<svg xmlns="http://www.w3.org/2000/svg" viewBox="0 0 705.41 401.08"><g id="Background_Complete" data-name="Background Complete"><path fill="#f5f5f5" d="M562.92,157.1H705.41L682.2,173.85v33a6.88,6.88,0,0,1-6.88,6.88H562.92a6.88,6.88,0,0,1-6.88-6.88h0V164a6.88,6.88,0,0,1,6.88-6.88h0Z"/><path fill="#e0e0e0" d="M568.86,180.39c0,.14,21.49.25,48,.25s48-.11,48-.25-21.49-.25-48-.25S568.86,180.25,568.86,180.39Z"/><path fill="#e0e0e0" d="M568.86,193c0,.14,21.49.25,48,.25s48-.11,48-.25-21.49-.25-48-.25S568.86,192.91,568.86,193Z"/><rect fill="#e0e0e0" x="339.84" y="35.5" width="6.67" height="22.34"/><rect fill="#e0e0e0" x="284.14" y="32.26" width="6.67" height="25.57"/><rect fill="#e0e0e0" x="298.06" y="26.93" width="6.67" height="30.9"/><rect fill="#e0e0e0" x="311.99" y="28.63" width="6.67" height="29.21"/><rect fill="#e0e0e0" x="325.91" y="18.75" width="6.67" height="39.09"/><rect fill="#e0e0e0" x="353.76" y="18.94" width="6.67" height="38.9"/><rect fill="#e0e0e0" x="367.69" y="31.71" width="6.67" height="26.12"/><rect fill="#e0e0e0" x="381.61" y="20.65" width="6.67" height="37.19"/><rect fill="#e0e0e0" x="395.53" y="12.27" width="6.67" height="45.56"/><rect fill="#e0e0e0" x="409.46" y="20.46" width="6.67" height="37.38"/><path fill="#ebebeb" d="M591.83,55.77,647,47.34a55.82,55.82,0,1,1-49-47Z"/><path fill="#e0e0e0" d="M609.72.47,603,43.21l42-7.88S638.82,11.41,609.72.47Z"/><path fill="#f5f5f5" d="M28.75,159.47a26.95,26.95,0,1,1,0,.13Zm40.41-.66a13.32,13.32,0,1,0,0,.08Z"/><path fill="#e0e0e0" d="M28.75,159.47a27.44,27.44,0,0,1,26.9-27.91l.23,14.33a13.14,13.14,0,0,0,.39,26.27l.26,14.31A27.43,27.43,0,0,1,28.75,159.47Z"/><path fill="#ebebeb" d="M53.2,129.35a31.26,31.26,0,0,1,32,30.5h0v.62l-16.7.26c-.13-8.47-6.58-13.8-15-13.66Z"/><rect fill="#f5f5f5" x="171.63" y="255.91" width="34.76" height="41.32"/><rect fill="#e0e0e0" x="15.76" y="253.21" width="157.07" height="46.61"/><path fill="#e0e0e0" d="M207.44,257.13H168.62v-3.92h38.82a2,2,0,0,1,2,2h0A2,2,0,0,1,207.44,257.13Z"/><path fill="#e0e0e0" d="M207.44,299.82H168.62V295.9h38.82a2,2,0,0,1,2,2h0A2,2,0,0,1,207.44,299.82Z"/><rect fill="#ebebeb" x="141.92" y="253.21" width="18.56" height="46.61"/><rect fill="#ebebeb" x="30.7" y="253.73" width="18.56" height="46.61"/><path fill="#e0e0e0" d="M206.39,262.74c0,.12-7.52.21-16.8.21s-16.8-.09-16.8-.21,7.52-.21,16.8-.21S206.39,262.63,206.39,262.74Z"/><path fill="#e0e0e0" d="M206.39,269c0,.11-7.52.2-16.8.2s-16.8-.09-16.8-.2,7.52-.21,16.8-.21S206.39,268.82,206.39,269Z"/><path fill="#e0e0e0" d="M206.39,276.57c0,.11-7.52.2-16.8.2s-16.8-.09-16.8-.2,7.52-.21,16.8-.21S206.39,276.47,206.39,276.57Z"/><path fill="#e0e0e0" d="M206.39,284.19c0,.12-7.52.21-16.8.21s-16.8-.09-16.8-.21,7.52-.2,16.8-.2S206.39,284.08,206.39,284.19Z"/><path fill="#e0e0e0" d="M206.39,291.82c0,.12-7.52.21-16.8.21s-16.8-.09-16.8-.21,7.52-.2,16.8-.2S206.39,291.71,206.39,291.82Z"/><rect fill="#ebebeb" x="61.28" y="272.37" width="70.66" height="8.39"/><rect fill="#fafafa" x="170.75" y="300.74" width="35.29" height="25.18"/><rect fill="#f5f5f5" x="20.96" y="299.82" width="150.18" height="27"/><path fill="#f5f5f5" d="M170.05,301.65H208a.91.91,0,0,0,.91-.91h0a.94.94,0,0,0-.91-.92H170.05Z"/><path fill="#f5f5f5" d="M170,325h38.42a.42.42,0,0,1,.42.42h0v1a.42.42,0,0,1-.42.42H170Z"/><path fill="#e0e0e0" d="M206,305.52c0,.11-7.82.21-17.45.21s-17.45-.1-17.45-.21,7.81-.21,17.45-.21S206,305.41,206,305.52Z"/><path fill="#e0e0e0" d="M206,310.28c0,.12-7.82.21-17.45.21s-17.45-.09-17.45-.21,7.81-.2,17.45-.2S206,310.17,206,310.28Z"/><path fill="#e0e0e0" d="M206,315.05c0,.11-7.82.2-17.45.2s-17.45-.09-17.45-.2,7.81-.21,17.45-.21S206,315,206,315.05Z"/><path fill="#e0e0e0" d="M206,319.81c0,.11-7.82.2-17.45.2s-17.45-.09-17.45-.2,7.81-.21,17.45-.21S206,319.69,206,319.81Z"/><rect fill="#ebebeb" x="175.37" y="329.22" width="36.02" height="68.25"/><rect fill="#e0e0e0" x="6.3" y="326.82" width="169.07" height="74"/><path fill="#e0e0e0" d="M214.21,400.82H170.75V396h43.46a2.42,2.42,0,0,1,2.4,2.4h0a2.39,2.39,0,0,1-2.34,2.44h0Z"/><path fill="#e0e0e0" d="M170.75,326.82H215.5a1.1,1.1,0,0,1,1.1,1.1h0v2.6a1.1,1.1,0,0,1-1.1,1.1H170.75v-4.8Z"/><path fill="#e0e0e0" d="M211.39,338.37c0,.12-8.06.21-18,.21s-18-.09-18-.21,8.06-.2,18-.2S211.39,338.26,211.39,338.37Z"/><path fill="#e0e0e0" d="M211.39,347.13c0,.11-8.06.2-18,.2s-18-.09-18-.2,8.06-.21,18-.21S211.39,347,211.39,347.13Z"/><path fill="#e0e0e0" d="M211.39,355.88c0,.11-8.06.21-18,.21s-18-.1-18-.21,8.06-.21,18-.21S211.39,355.77,211.39,355.88Z"/><path fill="#e0e0e0" d="M211.39,364.63c0,.12-8.06.21-18,.21s-18-.09-18-.21,8.06-.2,18-.2S211.39,364.52,211.39,364.63Z"/><path fill="#e0e0e0" d="M211.39,373.39c0,.11-8.06.2-18,.2s-18-.09-18-.2,8.06-.21,18-.21S211.39,373.27,211.39,373.39Z"/><path fill="#e0e0e0" d="M211.39,382.14c0,.11-8.06.21-18,.21s-18-.1-18-.21,8.06-.21,18-.21S211.39,382,211.39,382.14Z"/><path fill="#e0e0e0" d="M211.39,390.89c0,.12-8.06.21-18,.21s-18-.09-18-.21,8.06-.2,18-.2S211.39,390.78,211.39,390.89Z"/><path fill="#ebebeb" d="M64.15,367.87V372c0,5-2.48,7.79-7.26,7.79S49.63,377,49.63,372V355.9c0-5,2.48-7.8,7.26-7.8s7.26,2.84,7.26,7.8v3h-4.6v-3.31c0-2.22-1-3.06-2.52-3.06s-2.53.84-2.53,3.06V372.3c0,2.22,1,3,2.53,3s2.52-.79,2.52-3v-4.43Z"/><path fill="#ebebeb" d="M66.72,355.88c0-5,2.61-7.8,7.39-7.8s7.39,2.84,7.39,7.8V372c0,5-2.61,7.79-7.39,7.79S66.72,377,66.72,372Zm4.87,16.42c0,2.22,1,3.06,2.52,3.06s2.52-.84,2.52-3.06V355.57c0-2.22-1-3.06-2.52-3.06s-2.52.84-2.52,3.06Z"/><path fill="#ebebeb" d="M84.64,348.47h4.87V375h8v4.44H84.64Z"/><path fill="#ebebeb" d="M99.27,355.88c0-5,2.61-7.8,7.39-7.8s7.4,2.84,7.4,7.8V372c0,5-2.61,7.79-7.4,7.79S99.27,377,99.27,372Zm4.87,16.42c0,2.22,1,3.06,2.52,3.06s2.53-.84,2.53-3.06V355.57c0-2.22-1-3.06-2.53-3.06s-2.52.84-2.52,3.06Z"/><path fill="#ebebeb" d="M121.83,348.47v23.91c0,2.21,1,3,2.52,3s2.52-.8,2.52-3V348.47h4.61v23.6c0,5-2.48,7.79-7.26,7.79S117,377,117,372.07v-23.6Z"/><path fill="#ebebeb" d="M145,379.47a9.47,9.47,0,0,1-.45-3.81v-4.87c0-2.88-1-3.94-3.18-3.94h-1.69v12.62h-4.87v-31h7.35c5,0,7.22,2.35,7.22,7.13V358c0,3.19-1,5.27-3.19,6.29,2.44,1,3.23,3.36,3.23,6.59v4.79a9.07,9.07,0,0,0,.54,3.76Zm-5.32-26.56v9.51h1.91c1.81,0,2.92-.79,2.92-3.27v-3.06c0-2.21-.75-3.18-2.48-3.18Z"/><path fill="#e0e0e0" d="M63.1,310.47H59.55l.19-.92h8.15l-.2.92H64.15l-1.83,9.14h-1Z"/><path fill="#e0e0e0" d="M74.73,312l-5.52,8.54c-.94,1.44-1.64,1.89-2.73,1.89a2.44,2.44,0,0,1-1.8-.67l.54-.75a1.83,1.83,0,0,0,1.34.55c.65,0,1.15-.31,1.74-1.23l.53-.8L67,312.05h1l1.6,6.42L73.73,312Z"/><path fill="#e0e0e0" d="M83.13,315.17a4.25,4.25,0,0,1-4,4.49h-.27A2.86,2.86,0,0,1,76,318l-.86,4.37h-1L76.2,312h1l-.2,1.21a3.8,3.8,0,0,1,3-1.27,3.06,3.06,0,0,1,3.2,2.89Zm-1,.06a2.22,2.22,0,0,0-2.06-2.37h0a1.55,1.55,0,0,0-.43,0,3.3,3.3,0,0,0-3.3,3.3v.3a2.21,2.21,0,0,0,2,2.36,1.85,1.85,0,0,0,.47,0,3.3,3.3,0,0,0,3.27-3.33h0v-.26Z"/><path fill="#e0e0e0" d="M84.32,316.47A4.29,4.29,0,0,1,88.4,312h.29c2.1,0,3.44,1.24,3.44,3.19a4.3,4.3,0,0,1-4.09,4.5h-.28A3.1,3.1,0,0,1,84.34,317h0A2.57,2.57,0,0,1,84.32,316.47Zm6.79-1.24a2.22,2.22,0,0,0-2.06-2.37h0a1.55,1.55,0,0,0-.43,0,3.33,3.33,0,0,0-3.29,3.37h0v.18a2.21,2.21,0,0,0,2,2.36h.44a3.31,3.31,0,0,0,3.29-3.33h0A.31.31,0,0,0,91.11,315.23Z"/><path fill="#e0e0e0" d="M101.91,312l-1.32,6.64c-.53,2.68-1.94,3.78-4.4,3.78a4.85,4.85,0,0,1-3.36-1.13l.6-.78a4,4,0,0,0,2.84,1,3,3,0,0,0,3.27-2.7h0l.18-.83a3.89,3.89,0,0,1-3,1.29c-2,0-3.34-1.16-3.34-3a4.18,4.18,0,0,1,4-4.33h.28a2.9,2.9,0,0,1,3,1.73L101,312Zm-1.72,3c0-1.38-.93-2.2-2.5-2.2a3.2,3.2,0,0,0-3.29,3.11v.33c0,1.38.92,2.2,2.5,2.2a3.21,3.21,0,0,0,3.29-3.13h0V315Z"/><path fill="#e0e0e0" d="M108.58,312l-.19,1h-.28c-1.61,0-2.69.92-3.07,2.8l-.76,3.84h-1l1.5-7.56h1l-.31,1.41A3.42,3.42,0,0,1,108.58,312Z"/><path fill="#e0e0e0" d="M117.27,312l-1.51,7.56h-1l.24-1.19a3.82,3.82,0,0,1-2.94,1.26,3,3,0,0,1-3.28-2.69v-.1a1.41,1.41,0,0,1,0-.41,4.25,4.25,0,0,1,4-4.48H113a2.84,2.84,0,0,1,2.88,1.64l.32-1.58Zm-1.7,3.19a2.22,2.22,0,0,0-2.06-2.37h0a1.55,1.55,0,0,0-.43,0,3.32,3.32,0,0,0-3.28,3.36h0v.19a2.21,2.21,0,0,0,2,2.36h.43a3.31,3.31,0,0,0,3.29-3.33h0v-.21Z"/><path fill="#e0e0e0" d="M127.06,315.17a4.25,4.25,0,0,1-4,4.49h-.27A2.84,2.84,0,0,1,119.9,318l-.86,4.37h-1L120,312h1l-.24,1.21a3.78,3.78,0,0,1,2.94-1.27,3.06,3.06,0,0,1,3.27,2.83h0A.93.93,0,0,1,127.06,315.17Zm-1,.06a2.22,2.22,0,0,0-2.06-2.37h0a1.55,1.55,0,0,0-.43,0,3.29,3.29,0,0,0-3.31,3.27h0v.33a2.21,2.21,0,0,0,2,2.36,1.77,1.77,0,0,0,.46,0,3.29,3.29,0,0,0,3.29-3.29h0v-.3Z"/><path fill="#e0e0e0" d="M136.21,314.47a4.91,4.91,0,0,1-.08.86l-.86,4.3h-1l.87-4.31a5.38,5.38,0,0,0,.07-.69c0-1.08-.65-1.7-2-1.7a2.93,2.93,0,0,0-3.07,2.65l-.81,4h-1l2.13-10.6h1l-.85,4.24A3.68,3.68,0,0,1,133.5,312C135.27,312,136.21,312.9,136.21,314.47Z"/><path fill="#e0e0e0" d="M145.77,312l-5.5,8.54c-.94,1.44-1.64,1.88-2.73,1.88a2.44,2.44,0,0,1-1.8-.67l.55-.75a1.8,1.8,0,0,0,1.33.55c.65,0,1.15-.31,1.74-1.23l.54-.8L138,312h1l1.56,6.44,4.13-6.44Z"/><path fill="#f5f5f5" d="M168.55,1.26H15.16l25,18V54.73a7.4,7.4,0,0,0,7.39,7.41h121A7.41,7.41,0,0,0,176,54.77h0V8.67a7.41,7.41,0,0,0-7.41-7.41h0Z"/><path fill="#e0e0e0" d="M162.15,26.33c0,.15-23.13.27-51.66.27s-51.67-.13-51.67-.27,23.13-.27,51.67-.27S162.15,26.18,162.15,26.33Z"/><path fill="#e0e0e0" d="M162.15,40c0,.15-23.13.27-51.66.27S58.82,40.1,58.82,40s23.18-.3,51.67-.3S162.15,39.8,162.15,40Z"/></g><g id="Table"><path d="M700.54,400.82c0,.15-156.84.26-350.25.26S0,401,0,400.82s156.8-.26,350.29-.26S700.54,400.68,700.54,400.82Z"/></g><g id="Plants"><path fill="#1c1e28" d="M661.69,278.87c-1-5.08-4.84-13.2-6.17-15.58a2.63,2.63,0,0,0-4.94,1.24A87.6,87.6,0,0,0,652,280.12c2.41,14.07,4,24.61,3.13,32.41A117.17,117.17,0,0,1,652,328.4c-.82-13.27-2-29.32-3.33-36.53-1.74-9.34-5.41-19.74-8.68-25.4a1.54,1.54,0,0,0-2.87,1c1.11,7.4,3.12,21.69,4.23,35.2-3.13-10.3-6.63-20.05-10.09-26.2-8.49-14.83-16.93-36.31-24.59-43.93a2.51,2.51,0,0,0-4.13,2.56,71.45,71.45,0,0,0,3.66,9.4c4,8.51,15.76,39,21.26,55.77,2.72,8.29,6,20.12,8.6,30-6.06-7.25-13.87-16.83-19.36-24.5-10.24-14.35-23.7-44-23.7-44s-4.75-3.5,5.25,27,36.51,61,36.51,61L640,345.4c.46,1.81.72,2.87.72,2.87l1.39-.23v1h11s0-1-.13-2.81l1.21.13s8.55-20.32,10.86-33.48S664.36,292.76,661.69,278.87Z"/><path fill="#1c1e28" d="M656,346.38s29.11-62.55,31.13-71.83,8.87-30.66,9.68-29.45,2,12.51-3.23,25.42-27.64,77.76-27.64,77.76H656"/><path d="M642.83,343.58a7,7,0,0,1-.83-.6c-.51-.39-1.3-.94-2.25-1.72a102.43,102.43,0,0,1-7.82-6.91,131.1,131.1,0,0,1-21.12-27.1A177.92,177.92,0,0,1,596.4,276c-1.46-4.15-2.53-7.55-3.22-9.92-.36-1.17-.61-2.1-.78-2.72a4.82,4.82,0,0,1-.22-1,6.08,6.08,0,0,1,.34.93l.89,2.69c.76,2.34,1.89,5.72,3.4,9.84A190.5,190.5,0,0,0,611.36,307a136.32,136.32,0,0,0,20.91,27.13c3.11,3.1,5.78,5.45,7.66,7,.93.81,1.69,1.39,2.18,1.81A5.49,5.49,0,0,1,642.83,343.58Z"/><path d="M646,313.57a11.2,11.2,0,0,1-.26-1.83c-.14-1.3-.32-3-.53-5-.46-4.24-1.18-10.07-2.21-16.48s-2.18-12.18-3.07-16.34c-.43-2-.79-3.66-1.06-4.93a11.32,11.32,0,0,1-.33-1.83,9.85,9.85,0,0,1,.56,1.77c.33,1.15.76,2.82,1.26,4.89,1,4.14,2.22,9.91,3.25,16.34s1.68,12.28,2,16.53c.18,2.13.29,3.85.34,5A9.08,9.08,0,0,1,646,313.57Z"/><path d="M652.83,262.82a4.69,4.69,0,0,1,.34.8c.23.59.52,1.36.88,2.32s.82,2.25,1.25,3.73,1,3.12,1.41,5l.72,2.94c.25,1,.42,2.11.64,3.22.48,2.22.77,4.63,1.12,7.16A106.63,106.63,0,0,1,658,321.05c-.53,2.5-1,4.88-1.63,7.06-.3,1.09-.55,2.16-.87,3.16s-.63,2-.93,2.89c-.56,1.85-1.23,3.46-1.77,4.89s-1.06,2.65-1.51,3.63l-1,2.25a4.32,4.32,0,0,1-.4.77,4.7,4.7,0,0,1,.29-.82l.92-2.3c.42-1,.92-2.21,1.41-3.65s1.15-3.06,1.68-4.91c.28-.92.58-1.88.89-2.88s.54-2.07.83-3.16c.61-2.18,1-4.55,1.57-7a110.62,110.62,0,0,0,1.18-32.89c-.34-2.52-.61-4.92-1.06-7.13-.22-1.11-.38-2.19-.61-3.21s-.46-2-.68-2.94c-.39-1.88-.92-3.54-1.32-5s-.79-2.72-1.14-3.74-.57-1.76-.76-2.36A4.76,4.76,0,0,1,652.83,262.82Z"/><path d="M696.42,246.36a.66.66,0,0,1,0,.28,7.58,7.58,0,0,1-.13.81c-.13.71-.29,1.77-.57,3.12a115.26,115.26,0,0,1-3,11.26c-1.5,4.7-3.43,10.2-5.79,16.26s-5.08,12.65-7.66,19.67-4.65,13.86-6.55,20.06-3.66,11.8-5.39,16.4a104,104,0,0,1-4.59,10.7c-.6,1.24-1.14,2.16-1.48,2.8l-.41.71a1,1,0,0,1-.16.24,1.48,1.48,0,0,1,.1-.27l.36-.74c.31-.66.81-1.6,1.37-2.85,1.17-2.48,2.75-6.12,4.4-10.74s3.4-10.19,5.26-16.41,3.87-13.08,6.5-20.11,5.34-13.63,7.72-19.67,4.41-11.52,5.9-16.19,2.51-8.51,3.14-11.18c.32-1.33.52-2.38.69-3.08.08-.32.14-.58.19-.8A.88.88,0,0,1,696.42,246.36Z"/><path d="M630.68,310.75a6.76,6.76,0,0,1,.61,1.41c.35.92.82,2.26,1.35,3.94,1.08,3.35,2.41,8,3.74,13.23s2.44,9.94,3.21,13.37c.36,1.62.65,3,.89,4.07a7.67,7.67,0,0,1,.24,1.51,7.47,7.47,0,0,1-.48-1.45c-.28-1.07-.64-2.42-1.07-4l-3.39-13.36c-1.33-5.2-2.59-9.89-3.56-13.26l-1.16-4A8,8,0,0,1,630.68,310.75Z"/><path d="M646.62,347.33a1.55,1.55,0,0,1-.06-.31,7.46,7.46,0,0,0-.14-.93c-.12-.81-.23-2-.48-3.56-.43-3.08-1.2-7.53-2.46-12.95a188.43,188.43,0,0,0-5.5-18.77c-2.41-7-5.43-14.48-8.86-22.27C622.21,273,615.31,259.2,610.77,249c-2.29-5.09-4.07-9.24-5.24-12.14-.6-1.44-1-2.57-1.32-3.34-.13-.36-.24-.64-.33-.88a1.71,1.71,0,0,1-.09-.3,1.51,1.51,0,0,1,.15.28l.39.85,1.42,3.3c1.24,2.86,3.08,7,5.42,12,4.63,10.15,11.6,23.9,18.52,39.47,3.43,7.8,6.44,15.34,8.83,22.33a179.18,179.18,0,0,1,5.39,18.89q1.46,6.44,2.27,13c.21,1.55.28,2.76.37,3.58,0,.38.05.68.07.93A1.09,1.09,0,0,1,646.62,347.33Z"/><path d="M652.47,346.38a13.62,13.62,0,0,1-.4-2c-.23-1.38-.54-3.2-.91-5.4-.81-4.55-2-10.82-3.82-17.64s-3.75-12.91-5.27-17.27l-1.8-5.14a11.62,11.62,0,0,1-.62-1.92,13.8,13.8,0,0,1,.85,1.83c.5,1.19,1.21,2.93,2,5.1A168,168,0,0,1,648,321.2q2.26,8.78,3.65,17.73c.34,2.29.59,4.15.72,5.44A13.54,13.54,0,0,1,652.47,346.38Z"/><rect fill="#0c233b" x="630.72" y="344.69" width="45.86" height="55.87"/><g opacity=".3"><rect x="630.72" y="344.69" width="45.86" height="55.87"/></g><rect fill="#0c233b" x="621.27" y="344.69" width="40.68" height="55.87"/><path fill="#1c1e28" d="M65.8,325.27c-7.82-5-18.64-5.1-26.24.21-7.22,5-10.89,14.23-10.57,23S33.58,368,41.55,372.66l23.4-.1A31.46,31.46,0,0,0,77.83,349C78.18,339.71,73.61,330.27,65.8,325.27Z"/><path d="M54.27,373.54a10.3,10.3,0,0,1-.14-2c0-1.44-.1-3.28-.16-5.49-.12-4.63-.3-11-.61-18.09s-.69-13.46-1-18.09c-.13-2.2-.24-4-.33-5.48a11.13,11.13,0,0,1,0-2,11.41,11.41,0,0,1,.32,2c.16,1.29.35,3.16.57,5.47.42,4.62.88,11,1.2,18.09s.41,13.49.39,18.13c0,2.32,0,4.19-.08,5.49A10.84,10.84,0,0,1,54.27,373.54Z"/><path d="M31.35,346.52c0,.2-1.29.27-2.84.14s-2.79-.4-2.78-.6,1.29-.27,2.84-.15S31.37,346.31,31.35,346.52Z"/><path d="M31.79,338.62c-.09.19-1.18-.11-2.45-.68s-2.23-1.17-2.15-1.36,1.18.12,2.45.68S31.87,338.47,31.79,338.62Z"/><path d="M35.85,332.76c-.11.17-1.34-.41-2.62-1.47s-2.09-2.17-1.94-2.3,1.17.69,2.41,1.72S36,332.58,35.85,332.76Z"/><path d="M39.94,327.23c-.19.08-.78-.84-1.32-2.06s-.83-2.28-.64-2.37.78.84,1.32,2.07S40.12,327.15,39.94,327.23Z"/><path d="M46.35,323.31c-.19.08-.82-.9-1.25-2.26s-.46-2.54-.26-2.57.57,1,1,2.34S46.54,323.22,46.35,323.31Z"/><path d="M57,318.88c.2.07.08.91-.26,1.88s-.78,1.69-1,1.62-.08-.9.26-1.87S56.85,318.81,57,318.88Z"/><path d="M65,322.29c.14.15-.37.85-1.14,1.56s-1.5,1.16-1.64,1,.37-.85,1.13-1.56S64.84,322.14,65,322.29Z"/><path d="M72,326.8c.12.17-.5.79-1.38,1.39s-1.69.94-1.81.77.51-.79,1.39-1.39S71.85,326.63,72,326.8Z"/><path d="M76.92,333.52c.08.19-.89.79-2.18,1.34s-2.4.84-2.48.65.9-.79,2.19-1.33S76.84,333.33,76.92,333.52Z"/><path d="M78.88,340.86c0,.2-1,.5-2.23.65s-2.28.12-2.31-.09,1-.49,2.22-.65S78.85,340.65,78.88,340.86Z"/><path d="M79.89,349.89c-.08.19-1.14-.09-2.36-.62s-2.16-1.12-2.08-1.31,1.15.09,2.37.62S80,349.7,79.89,349.89Z"/><path d="M79,357.64c-.07.19-1.41-.13-2.81-1.05s-2.23-2-2.09-2.15,1.17.66,2.5,1.52S79.07,357.47,79,357.64Z"/><path d="M75,364.69c-.12.16-1.19-.46-2.21-1.57s-1.57-2.21-1.41-2.33,1,.77,2,1.82S75.1,364.53,75,364.69Z"/><path d="M36.66,365.52c.09.18-1,1-2.51,1.72s-2.75,1.23-2.88,1.07,1-1,2.5-1.73S36.56,365.34,36.66,365.52Z"/><path d="M33.16,359.14c.08.19-.82.78-2,1.32s-2.23.83-2.32.64.82-.78,2-1.32A4.59,4.59,0,0,1,33.16,359.14Z"/><path d="M30.59,353.47c0,.2-1.08.53-2.48.73s-2.54.19-2.57,0,1.08-.53,2.47-.72S30.56,353.28,30.59,353.47Z"/><path d="M39,350.37c.06.2-1,.7-2.45.86A4.06,4.06,0,0,1,34,351a7.62,7.62,0,0,1,2.5-.45C37.86,350.37,39,350.17,39,350.37Z"/><path d="M46,343.4c.06.19-.8.63-2,.74s-2-.16-2-.34.92-.29,2-.4S46,343.2,46,343.4Z"/><path d="M47.37,337.81c-.07.2-1,.05-2.08-.32s-1.9-.83-1.83-1,1-.05,2.08.33S47.44,337.62,47.37,337.81Z"/><path d="M49.94,332.16c-.14.15-.78-.27-1.24-1.07s-.5-1.55-.3-1.6.54.53,1,1.23S50.09,332,49.94,332.16Z"/><path d="M46.84,355.29c0,.2-.75.57-1.8.83a7,7,0,0,1-1.51.22l-.14-.44c.27,0,.44,0,.48.05s-.08.21-.3.38l-.15-.44a6.72,6.72,0,0,1,1.45-.5C45.91,355.14,46.79,355.09,46.84,355.29Z"/><path d="M48.27,365.2c.07.19-1,.77-2.3,1.3s-2.49.8-2.56.61,1-.78,2.29-1.3S48.21,365,48.27,365.2Z"/><path d="M40.37,360.8c.07.19-.62.6-1.53.91s-1.7.41-1.77.21.62-.6,1.53-.91S40.27,360.6,40.37,360.8Z"/><path d="M41,340.64c0,.2-1.24.08-2.61-.41S36,339.08,36.1,338.9s1.2.15,2.54.62A6.5,6.5,0,0,1,41,340.64Z"/><path d="M60.13,338.47c.12.17-.55.81-1.49,1.43s-1.8,1-1.92.81.56-.81,1.5-1.43S60,338.27,60.13,338.47Z"/><path d="M61.18,348.39c0,.2-.67.52-1.58.71s-1.68.18-1.73,0,.67-.52,1.58-.71S61.13,348.19,61.18,348.39Z"/><path d="M62.39,359.58c-.09.18-1.11-.1-2.27-.64a4.9,4.9,0,0,1-2-1.32c0-.19,1.11.1,2.27.64S62.47,359.39,62.39,359.58Z"/><path d="M59.82,370.47c-.16.14-.82-.4-1.47-1.2s-1-1.55-.89-1.68.81.41,1.47,1.21S60,370.33,59.82,370.47Z"/><path d="M59.27,331.12c.13.16-.31.71-1.06,1.08s-1.44.4-1.49.2.49-.52,1.16-.86S59.17,331,59.27,331.12Z"/><path d="M68.69,341.15c.07.19-.8.67-2,.84s-2.15-.06-2.14-.26.93-.33,2-.48A5.35,5.35,0,0,1,68.69,341.15Z"/><path d="M66.82,332.15c.09.18-.77.8-2,1.19s-2.28.39-2.31.19.92-.53,2.08-.91A5,5,0,0,1,66.82,332.15Z"/><path d="M70.74,355.1c0,.2-1.48.33-3.26,0s-3.11-1-3-1.15a12.22,12.22,0,0,1,3.18.41C69.37,354.66,70.74,354.89,70.74,355.1Z"/><path d="M67.27,368.18c-.12.16-1.21-.48-2.29-1.57s-1.71-2.14-1.58-2.3,1,.72,2.09,1.78S67.38,368,67.27,368.18Z"/><path d="M51.91,321.47a33.8,33.8,0,0,0-6.55,5.18,32,32,0,0,0-8.16,18,40.92,40.92,0,0,0,.49,11.05,89.83,89.83,0,0,0,2.07,8.87c.72,2.49,1.38,4.49,1.82,5.88a13.91,13.91,0,0,1,.63,2.18,11.27,11.27,0,0,1-.9-2.08c-.53-1.36-1.27-3.34-2.05-5.83a73.8,73.8,0,0,1-2.24-8.9,39.3,39.3,0,0,1-.56-11.25A31.4,31.4,0,0,1,45,326.25a23.27,23.27,0,0,1,4.88-3.78,13.3,13.3,0,0,1,1.5-.78A2,2,0,0,1,51.91,321.47Z"/><path d="M62.1,373.17c-.17-.09,1.67-2.92,3.35-8a45.42,45.42,0,0,0,2-20.63,38.81,38.81,0,0,0-3.18-11.07,26.33,26.33,0,0,0-5.42-7.56,20.11,20.11,0,0,0-5.32-3.36c-1.38-.57-2.21-.71-2.2-.77a2.08,2.08,0,0,1,.61,0,9.79,9.79,0,0,1,1.69.45,18.27,18.27,0,0,1,5.56,3.24,25.51,25.51,0,0,1,5.7,7.65,38.12,38.12,0,0,1,3.3,11.2,43.87,43.87,0,0,1-2.25,20.91c-.42,1.29-1,2.39-1.37,3.39a17.71,17.71,0,0,1-1.24,2.46A16.13,16.13,0,0,1,62.1,373.17Z"/><polygon fill="#0c233b" points="74.59 379.64 74.34 371.4 33.16 371.4 33.16 379.64 37.04 379.64 39.02 400.68 69.13 400.68 71.17 379.64 74.59 379.64"/><path d="M74.59,379.74c0,.21-9.27.37-20.71.37s-20.71-.16-20.71-.37,9.27-.37,20.71-.37S74.59,379.53,74.59,379.74Z"/><path d="M70.41,387.4a6,6,0,0,1-.88,1.58,23,23,0,0,1-3.2,3.77l-.19.18-.18-.2a59,59,0,0,0-8.08-7.06h.46l-3.58,3.14-4.23,3.66-.23.21-.24-.2-6.87-5.78.4-.05C42.17,388.39,41,389.84,40,391a9.19,9.19,0,0,1-1.4,1.52,11,11,0,0,1,1.15-1.72l3.36-4.49.18-.23.23.18,7,5.66h-.46l4.21-3.7,3.59-3.13.22-.19.24.17a52.67,52.67,0,0,1,8,7.29H66A40.71,40.71,0,0,0,70.41,387.4Z"/></g><g id="Device"><path fill="#1c1e28" d="M579.79,373.91V100.81a14.57,14.57,0,0,0-14.57-14.57H129.3a14.57,14.57,0,0,0-14.57,14.57v273.1H99.51V383a17.8,17.8,0,0,0,17.79,17.8H585.56a17.8,17.8,0,0,0,17.8-17.8v-9.07Z"/><polygon points="301.41 371.03 307.67 380.97 395.65 380.97 401.45 371.03 301.41 371.03"/><path d="M575.79,371c0,.17-103.22.3-230.51.3s-230.55-.13-230.55-.3,103.2-.3,230.55-.3S575.79,370.86,575.79,371Z"/><rect fill="#ebebeb" x="128.05" y="103.92" width="436.6" height="258.98" rx="3.27"/><polygon fill="#fff" points="564.18 363.28 127.58 363.28 128.05 123.28 564.18 123.28 564.18 363.28"/><path d="M163.86,114a3.49,3.49,0,1,1-3.52-3.46h0a3.47,3.47,0,0,1,3.52,3.42h0Z"/><path d="M142.73,114a3.49,3.49,0,1,1-3.52-3.46h.06A3.47,3.47,0,0,1,142.73,114Z"/><path d="M152.87,114a3.49,3.49,0,1,1-3.49-3.49,3.49,3.49,0,0,1,3.49,3.49Z"/><rect x="127.58" y="340.1" width="437.07" height="23.18"/><path fill="#fff" d="M144.1,354.37v.74h-3.48v-.58l1.87-1.78a1.31,1.31,0,0,0,.54-1c0-.43-.3-.68-.88-.68a1.34,1.34,0,0,0-1.1.49l-.62-.47a2.18,2.18,0,0,1,1.8-.78c1,0,1.69.51,1.69,1.35a1.88,1.88,0,0,1-.79,1.49l-1.26,1.2Z"/><path fill="#fff" d="M144.57,352a.56.56,0,1,1,.56.56h0a.54.54,0,0,1-.55-.53h0Zm0,2.57a.56.56,0,0,1,1.11-.15.38.38,0,0,1,0,.15.56.56,0,0,1-1.11.15h0a.24.24,0,0,1,0-.12Z"/><path fill="#fff" d="M147.87,350.39v4.72H147v-4h-1v-.74Z"/><path fill="#fff" d="M153,354h-.84v1.07h-.85V354h-2.59v-.57l2.33-3H152l-2.2,2.91h1.55v-.95h.82v.95H153Z"/><rect fill="#fff" x="160.73" y="352.15" width="358.24" height="1.63"/><rect fill="#0c233b" x="160.46" y="350.39" width="111.95" height="4.36"/><path fill="#0c233b" d="M276,353a5.45,5.45,0,1,1-5.45-5.45A5.45,5.45,0,0,1,276,353Z"/><path fill="#fff" d="M528,352.92a1.6,1.6,0,0,1-1.58,1.56h-.14c-1.29,0-2-.83-2-2.35a2.23,2.23,0,0,1,1.94-2.48h.48a2.46,2.46,0,0,1,1.24.31l-.33.66a1.65,1.65,0,0,0-.89-.23c-.89,0-1.45.55-1.45,1.62h0a1.61,1.61,0,0,1,1.26-.49,1.48,1.48,0,0,1,1.57,1.37Zm-.85,0c0-.49-.37-.8-.94-.8a.87.87,0,0,0-1,.7h0v.1c0,.44.35.79,1,.79a.81.81,0,0,0,.93-.67h0v-.13Z"/><path fill="#fff" d="M528.42,351.3a.56.56,0,0,1,1.11-.15.38.38,0,0,1,0,.15.56.56,0,0,1-1.11.15h0A.38.38,0,0,1,528.42,351.3Zm0,2.57a.56.56,0,1,1,1.11-.15.38.38,0,0,1,0,.15.56.56,0,0,1-1.11.15h0A.38.38,0,0,1,528.42,353.87Z"/><path fill="#fff" d="M530.09,352c0-1.55.85-2.43,2-2.43s2,.88,2,2.43-.85,2.43-2,2.43S530.09,353.57,530.09,352Zm3.06,0c0-1.14-.44-1.66-1.09-1.66S531,350.88,531,352s.45,1.67,1.09,1.67S533.15,353.16,533.15,352Z"/><path fill="#fff" d="M534.62,352c0-1.55.85-2.43,2-2.43s2,.88,2,2.43-.85,2.43-2,2.43S534.62,353.57,534.62,352Zm3.07,0c0-1.14-.45-1.66-1.1-1.66s-1.08.52-1.08,1.66.44,1.67,1.08,1.67S537.69,353.16,537.69,352Z"/><polygon fill="#fff" points="546.2 351.73 544.56 351.73 544.56 347.02 549.26 347.02 549.26 348.65 546.2 348.65 546.2 351.73"/><polygon fill="#fff" points="549.27 357.87 544.56 357.87 544.56 353.17 546.19 353.17 546.19 356.24 549.27 356.24 549.27 357.87"/><polygon fill="#fff" points="556.76 357.87 552.07 357.87 552.07 356.24 555.13 356.24 555.13 353.16 556.76 353.16 556.76 357.87"/><polygon fill="#fff" points="556.77 351.72 555.14 351.72 555.14 348.65 552.06 348.65 552.06 347.02 556.77 347.02 556.77 351.72"/><polygon fill="#ebebeb" points="187.45 137.55 161.72 137.55 148.85 159.83 161.72 182.12 187.45 182.12 200.32 159.83 187.45 137.55"/><path fill="#ffbe9d" d="M187.68,169.7c-.17-3.19-1.06-9.73-1.94-15.64a12.34,12.34,0,0,0-13-10.5h-.64c-6.84.86-9.93,7.15-8.88,14l.39,4.85c-1.15-.12-4.09-.12-3.72,3.53.32,3.14,2.81,3.35,4.27,3.16l1.06,13h16.7s-.4-4.31-.4-4.35S188,176.3,187.68,169.7Z"/><path fill="#eb996e" d="M181.51,177.68a15.4,15.4,0,0,1-8.77-1.87s2.36,4.61,8.9,3.58Z"/><path d="M183.61,159.72a.93.93,0,0,1-.84,1,.9.9,0,0,1-1-.77h0a.93.93,0,0,1,.84-1A.9.9,0,0,1,183.61,159.72Z"/><path d="M184.54,157.38c-.11.13-.86-.35-1.88-.28s-1.72.63-1.84.51,0-.28.36-.54a2.61,2.61,0,0,1,1.46-.56,2.48,2.48,0,0,1,1.5.38C184.47,157.11,184.59,157.32,184.54,157.38Z"/><path d="M174,160.41a1,1,0,0,1-.84,1,.91.91,0,0,1-1-.79,1,1,0,0,1,.84-1A.91.91,0,0,1,174,160.41Z"/><path d="M174.58,158.24c-.11.13-.86-.35-1.88-.28s-1.72.62-1.84.51,0-.28.36-.54a2.61,2.61,0,0,1,3-.19C174.51,158,174.63,158.18,174.58,158.24Z"/><path d="M178.76,165.47a6.5,6.5,0,0,1,1.63-.41c.26,0,.5-.11.53-.29a1.32,1.32,0,0,0-.22-.75l-.9-1.92a34.63,34.63,0,0,1-2.07-5,34.06,34.06,0,0,1,2.47,4.9c.3.67.59,1.32.87,1.93a1.65,1.65,0,0,1,.2,1,.68.68,0,0,1-.4.41,1.64,1.64,0,0,1-.44.09A6.66,6.66,0,0,1,178.76,165.47Z"/><path d="M174.57,154.24c-.08.28-1.1.22-2.28.45s-2.12.61-2.3.37.08-.38.45-.68a3.77,3.77,0,0,1,1.67-.71,3.7,3.7,0,0,1,1.81.09C174.37,153.91,174.61,154.11,174.57,154.24Z"/><path d="M184,154.47c-.17.24-.88,0-1.72.09s-1.54.26-1.72,0,0-.35.31-.59a2.36,2.36,0,0,1,1.37-.47,2.48,2.48,0,0,1,1.4.37A.9.9,0,0,1,184,154.47Z"/><path fill="#eb996e" d="M163.21,167.32l-.19.13a.81.81,0,0,1-.59.07,2,2,0,0,1-1.07-1.65,2.6,2.6,0,0,1,.11-1.14.89.89,0,0,1,.53-.67.41.41,0,0,1,.48.17c.08.12.06.22.08.22s.09-.08,0-.27a.52.52,0,0,0-.2-.26.59.59,0,0,0-.45-.07,1.13,1.13,0,0,0-.75.78,2.66,2.66,0,0,0-.14,1.28,2,2,0,0,0,1.33,1.83.83.83,0,0,0,.71-.19C163.27,167.47,163.27,167.32,163.21,167.32Z"/><path d="M188.45,144.88c-.46-1.79-2.6-3.11-4.29-2.33a2,2,0,0,0-.82-2.67,4.1,4.1,0,0,0-3-.21q-1.49.48-3,.81a15.65,15.65,0,0,1-4.37-.38,6.26,6.26,0,0,0-4.27.58c-1.41.91-2,2.67-3.32,3.76-1.65,1.39-4.36,1.72-5.12,3.72-.48,1.29.1,2.73,0,4.11a26.38,26.38,0,0,1-.65,2.93,7.78,7.78,0,0,0,1.07,4.94,22.47,22.47,0,0,0,3.14,4.06l.25-1.54.23.28a1.44,1.44,0,0,0,1.83.27,1.7,1.7,0,0,0,.45-1.07c.64-3.54,1.25-7.34-.25-10.61.3-.45.59-1,.91-1.46a21.58,21.58,0,0,0,14.22,1.82,11.07,11.07,0,0,0,5.1-2.08A5,5,0,0,0,188.45,144.88Z"/><path fill="#eb996e" d="M179.43,167.79l-2.3-1.07a.77.77,0,0,0-.42-.1.64.64,0,0,0-.39.27,2.13,2.13,0,0,0-.26,2.34,1.77,1.77,0,0,0,2.16.79,2.45,2.45,0,0,0,1.27-2.16Z"/><path d="M178.27,170.19a1.57,1.57,0,0,1-1.35.12,2.14,2.14,0,0,1-1.19-1,2.21,2.21,0,0,1,.8-3,.64.64,0,0,1,.6,0c.53.29.88.54,1.23.76.67.45,1.07.76,1,.82s-.5-.13-1.22-.5l-1.23-.64h-.18a3.11,3.11,0,0,0-.28.23,1.77,1.77,0,0,0-.42.66,1.82,1.82,0,0,0,1,2.31A5.79,5.79,0,0,0,178.27,170.19Z"/><path d="M177.56,159.83a3.93,3.93,0,0,0-.24-1.12,4.71,4.71,0,0,0-1.73-2.47,4.48,4.48,0,1,0,0,7.19,4.71,4.71,0,0,0,1.73-2.47c.2-.71.19-1.13.24-1.13s0,.11,0,.31a3.18,3.18,0,0,1-.09.87,4.57,4.57,0,0,1-1.69,2.71,4.92,4.92,0,1,1,0-7.77,4.57,4.57,0,0,1,1.69,2.71,3.18,3.18,0,0,1,.09.87C177.59,159.73,177.58,159.83,177.56,159.83Z"/><path d="M188.79,159.39a10.08,10.08,0,0,0-.24-1.09,4.55,4.55,0,0,0-1.68-2.4,4.36,4.36,0,1,0,0,7,4.55,4.55,0,0,0,1.68-2.4c.2-.69.19-1.1.24-1.1s0,.1,0,.3a3.45,3.45,0,0,1-.08.85,4.55,4.55,0,0,1-1.65,2.64,4.8,4.8,0,1,1,0-7.58,4.57,4.57,0,0,1,1.65,2.65,3.45,3.45,0,0,1,.08.85C188.82,159.29,188.81,159.39,188.79,159.39Z"/><path d="M179.63,158.36c-.1.09-.55-.2-1.15-.18s-1,.31-1.14.22.28-.72,1.13-.74S179.76,158.28,179.63,158.36Z"/><path d="M168.44,159.17c.09.11-.79.91-1.95,1.78a6.69,6.69,0,0,1-2.26,1.36c-.09-.11.79-.91,2-1.78A6.48,6.48,0,0,1,168.44,159.17Z"/><path d="M261.27,159.61c0,.14-11.57.26-25.84.26s-25.84-.12-25.84-.26,11.57-.26,25.84-.26S261.27,159.47,261.27,159.61Z"/><path d="M237.36,165c0,.14-6.14.26-13.72.26s-13.72-.12-13.72-.26,6.14-.27,13.72-.27S237.36,164.87,237.36,165Z"/></g><g id="Character"><g opacity=".3"><path d="M308.27,281.88c-.37-.82-.91-1.71-1.79-1.89-1.45-.3-2.42,1.41-2.91,2.81a127.39,127.39,0,0,1-15.82,30.89l-.31,14.86c7-5.91,13.94-12.24,18.42-20.25S312,290.24,308.27,281.88Z"/></g><path fill="#0c233b" d="M463.56,303.12c-.9-7.35-9.34-17.28-9.34-17.28s-14.77-45-19.6-62.28a39.38,39.38,0,0,0-18.56-24L373.27,192l-8.44-6.64-47.63,2.42L310,195l-11.42,3s-25.41,8-31.74,14.9c0,0-8.37,11.41-11.84,18.86s-32.28,70-34,76.47-6.2,26.77,7,31.48h27l32.61-30.1-.37,30.54H407.75c0-1,.76-15.53.76-15.53s49.83,8.94,51.43,7C462.66,328.26,464.46,310.47,463.56,303.12Z"/><path d="M256.73,300a12.71,12.71,0,0,0-1.85-1.24,20.9,20.9,0,0,0-5.68-2.06,27.5,27.5,0,0,0-4.14-.58,16.41,16.41,0,0,0-4.79.34,17.62,17.62,0,0,0-9.11,5.72A25,25,0,0,0,226,311.8a47.54,47.54,0,0,0-1.62,8.85c-.26,2.56-.35,4.65-.44,6.08,0,.68-.08,1.23-.1,1.66a2.25,2.25,0,0,1-.08.58,5.61,5.61,0,0,1,0-.58v-1.66c0-1.45.06-3.53.27-6.11a45.78,45.78,0,0,1,1.53-9,24.83,24.83,0,0,1,5.23-9.8,18,18,0,0,1,9.4-5.84,16.65,16.65,0,0,1,4.88-.27,25.89,25.89,0,0,1,4.19.65,19.86,19.86,0,0,1,5.7,2.24,9.43,9.43,0,0,1,1.35,1A3.16,3.16,0,0,1,256.73,300Z"/><path d="M243.9,289.07a3.52,3.52,0,0,1,.91-.14,15,15,0,0,1,2.51,0,20.94,20.94,0,0,1,3.69.55,22,22,0,0,1,8.21,3.92,20.5,20.5,0,0,1,2.75,2.52,15,15,0,0,1,1.55,2,3.33,3.33,0,0,1,.46.8c-.08.06-.82-1-2.28-2.52a25.27,25.27,0,0,0-2.77-2.39,24.85,24.85,0,0,0-3.84-2.3,26.07,26.07,0,0,0-4.2-1.54,24.46,24.46,0,0,0-3.6-.64C245.21,289.06,243.9,289.17,243.9,289.07Z"/><path d="M268.36,286.06a5.23,5.23,0,0,1-1.25-.09c-.8-.1-1.95-.22-3.39-.33a57.84,57.84,0,0,0-22.13,2.65c-1.37.44-2.47.83-3.22,1.12a6.14,6.14,0,0,1-1.19.39,5.1,5.1,0,0,1,1.11-.58c.73-.35,1.82-.79,3.18-1.28a51,51,0,0,1,22.29-2.66c1.43.15,2.59.32,3.38.49A6.56,6.56,0,0,1,268.36,286.06Z"/><path d="M345.45,232.61a1.75,1.75,0,0,1-.28-.33l-.74-1-2.72-3.76c-2.33-3.3-5.59-7.9-9.42-13.3l.42-.06c-1.46,4.28-3.07,9-4.76,14l-.11.31-.28-.18L327,228a28.75,28.75,0,0,1-5.89-5,34.9,34.9,0,0,1-4.21-5.82A49.22,49.22,0,0,1,312.27,206a77.54,77.54,0,0,1-1.75-8c-.16-.9-.28-1.63-.38-2.18a3.39,3.39,0,0,0-.13-.55.62.62,0,0,0,0-.27,15.21,15.21,0,0,1,.77,2.89,79.68,79.68,0,0,0,1.91,7.9,49.43,49.43,0,0,0,4.69,11.06,35.47,35.47,0,0,0,4.17,5.72,28.13,28.13,0,0,0,5.78,4.88l.55.36-.38.14c1.71-5,3.33-9.69,4.81-14l.15-.44.27.38c3.76,5.45,7,10.09,9.27,13.41,1.09,1.62,2,2.91,2.61,3.85l.67,1A2,2,0,0,1,345.45,232.61Z"/><g opacity=".3"><path d="M376.8,278.8a54.84,54.84,0,0,0,7,32.46c5.6,9.74,13.82,18.43,24.05,23.09.33-9.93-.15-21.63.18-31.56Z"/></g><path fill="#ffbe9d" d="M446.76,307.31c-7.29-5.47-17.87,0-17.87,0l-10-3.48c0-1,1.84-24,1.66-26.59s-2.92-8.75-2.92-8.75v-4.24L411,244.07s-3.65-1.64-4.92,4.19l-2.19-6.19s-3.46-.55-4.37,6.56.73,17,.73,17l-4.53,20.76-2.37.36s-3.57-1-5.52-7.69-7.24-14.76-12.16-13.3c0,0-4.38,1.21-1.1,10.18s4.38,8.42,6.57,16.8,4.74,16,8.56,20.78,18.05,14.4,18.05,14.4h0s10.68,6.94,16.87,8.24,21,4.91,24.9,4,8.86-7.13,8.86-7.13C460.38,327.19,454.05,312.78,446.76,307.31Z"/><path fill="#eb996e" d="M416.27,297.47a3.47,3.47,0,0,0-.06-.45c0-.44-.08-.89-.09-1.34-.07-1.22-.16-2.91-.27-5-.2-4.35-.47-10.41-.79-17.48l.05.15a2.58,2.58,0,0,0-2.58-.68,3.79,3.79,0,0,0-2.36,1.74c-1.12,1.79-1.18,4.13-1.53,6.38-.69,5.11-1.35,10-1.95,14.41-.3,2.22-.62,4.32-1.05,6.27a37.83,37.83,0,0,1-1.59,5.32,43.52,43.52,0,0,0-1.37,4.33,13.54,13.54,0,0,0-.41,3.35,10.73,10.73,0,0,0,.5,2.86,4.34,4.34,0,0,1-.3-.7,7.5,7.5,0,0,1-.4-2.15,12.52,12.52,0,0,1,.33-3.45,39.35,39.35,0,0,1,1.31-4.38,40.8,40.8,0,0,0,1.5-5.29c.41-1.93.72-4,1-6.24.58-4.44,1.23-9.3,1.91-14.42.16-1.13.28-2.26.48-3.38a8.79,8.79,0,0,1,1.12-3.21,4.29,4.29,0,0,1,2.69-1.94,3,3,0,0,1,3.07.84v.15c.25,7.07.46,13.13.61,17.49,0,2.11.09,3.8.13,5V297A1.83,1.83,0,0,1,416.27,297.47Z"/><path fill="#eb996e" d="M409.27,274.47a5,5,0,0,1-.54-1.14,28.24,28.24,0,0,1-1.07-3.26,33.82,33.82,0,0,1-.91-5,15,15,0,0,1-.06-3,6.48,6.48,0,0,1,1.1-3.12,4.48,4.48,0,0,1,2.34-1.76h.19l.1.17c1.85,3.26,3.46,6.14,4.58,8.21l1.31,2.45a4,4,0,0,1,.42.92,4.41,4.41,0,0,1-.58-.83l-1.44-2.37c-1.2-2-2.87-4.87-4.73-8.12l.29.12a4,4,0,0,0-2,1.56,6,6,0,0,0-1,2.88,14.44,14.44,0,0,0,0,2.94,36.88,36.88,0,0,0,.79,5c.32,1.4.67,2.52.9,3.29A5.6,5.6,0,0,1,409.27,274.47Z"/><path fill="#eb996e" d="M406.21,276.11a4.61,4.61,0,0,1-.12-1.17c0-.86-.08-1.92-.13-3.17-.08-2.68-.17-6.38-.22-10.47a89.54,89.54,0,0,1,.16-10.49,16.71,16.71,0,0,1,.68-3.12,3.85,3.85,0,0,1,.47-1.08,29,29,0,0,0-.79,4.24c-.25,2.65,0,6.35,0,10.44s.08,7.79.07,10.47V275A5.17,5.17,0,0,1,406.21,276.11Z"/><path fill="#eb996e" d="M395.42,309.72c-.07-.06.73-1,1.71-2.71a24,24,0,0,0,1.49-3.11,26,26,0,0,0,1.14-4.06,25.69,25.69,0,0,0,.35-4.2,24.55,24.55,0,0,0-.3-3.43c-.33-2-.75-3.11-.66-3.14a2.83,2.83,0,0,1,.36.79,14.88,14.88,0,0,1,.66,2.28,20.34,20.34,0,0,1-1.11,11.94,19.18,19.18,0,0,1-1.61,3.12,14.6,14.6,0,0,1-1.41,1.9C395.67,309.52,395.45,309.74,395.42,309.72Z"/><path fill="#eb996e" d="M419.18,319.76a4.21,4.21,0,0,1-.12-1c0-.75-.09-1.64-.15-2.68-.12-2.26-.27-5.38-.32-8.84s.05-6.59.25-8.85c.1-1.13.23-2,.34-2.67a3.16,3.16,0,0,1,.23-1c.08,0-.09,1.4-.2,3.66s-.15,5.37-.1,8.82.12,6.43.16,8.83v2.68A3.1,3.1,0,0,1,419.18,319.76Z"/><path d="M455.69,306.85a36.16,36.16,0,0,0-3.68-3.32,20.27,20.27,0,0,0-22.44-1.23,36.6,36.6,0,0,0-4,2.89,5.75,5.75,0,0,1,.91-1,18.06,18.06,0,0,1,2.93-2.22,19.91,19.91,0,0,1,22.86,1.27,18.19,18.19,0,0,1,2.66,2.53A5.83,5.83,0,0,1,455.69,306.85Z"/><path d="M454.27,297.62a22,22,0,0,0-4.61-2.54,20.4,20.4,0,0,0-12.46-.37,28.91,28.91,0,0,0-6.45,2.68,30.51,30.51,0,0,0-4.67,3.3c-1.24,1.06-2.19,2-2.84,2.63a8.28,8.28,0,0,1-1.05,1,6.9,6.9,0,0,1,.9-1.12,34.22,34.22,0,0,1,2.75-2.77,28.47,28.47,0,0,1,4.67-3.43,28,28,0,0,1,6.55-2.77,19.93,19.93,0,0,1,12.74.53,14.87,14.87,0,0,1,3.41,1.92c.37.27.62.53.81.69A1,1,0,0,1,454.27,297.62Z"/><path d="M454.36,289.62c0,.1-2-.49-5.18-.92a41.31,41.31,0,0,0-5.67-.36,44.74,44.74,0,0,0-6.93.62,45.66,45.66,0,0,0-6.73,1.78,40.89,40.89,0,0,0-5.21,2.28c-2.87,1.5-4.49,2.72-4.55,2.63a7.28,7.28,0,0,1,1.11-.88,12.78,12.78,0,0,1,1.37-.94c.55-.35,1.17-.76,1.89-1.14a38.6,38.6,0,0,1,5.23-2.4,40.9,40.9,0,0,1,6.8-1.84,42,42,0,0,1,7-.59,38,38,0,0,1,5.73.47c.81.1,1.53.29,2.16.42a14.81,14.81,0,0,1,1.62.42A8,8,0,0,1,454.36,289.62Z"/><path d="M369.53,191.7a9.38,9.38,0,0,1,.76,2.94,28.14,28.14,0,0,1-.42,8.59,49.37,49.37,0,0,1-1.43,6,46.15,46.15,0,0,1-2.9,6.65c-2.39,4.6-5.39,9.61-8.87,15l-.4.63V219.66l.39.19-9.39,7.49.08-.12a97.89,97.89,0,0,0-4.08,22.45c-.92,12.17-.18,23.81.39,34.37s.82,20.09,1.15,28.09.6,14.46.84,18.93c.14,2.22.24,3.94.31,5.14,0,.57.07,1,.09,1.34a3.53,3.53,0,0,1,0,.46,2.34,2.34,0,0,0-.07-.45c-.07-.3-.08-.77-.14-1.34-.11-1.17-.25-2.9-.4-5.14-.3-4.46-.65-10.93-1-18.93s-.78-17.51-1.26-28.08-1.35-22.22-.43-34.43a97.9,97.9,0,0,1,4.19-22.57V227H347l9.36-7.51.39-.32v11.6l-.41-.13c6.87-10.65,12.46-19.91,13.32-27.4a29.37,29.37,0,0,0,.54-8.52,15.22,15.22,0,0,0-.41-2.22A7.46,7.46,0,0,1,369.53,191.7Z"/><path fill="#fff" d="M351.59,320.69h-.32a2.81,2.81,0,1,0,.36,0Z"/><path fill="#fff" d="M351.59,282.15h-.32a2.8,2.8,0,1,0,.36,0Z"/><path fill="#fff" d="M351.27,247.67a2.82,2.82,0,0,0,.37-5.63h-.37a2.82,2.82,0,0,0,0,5.64Z"/><path fill="#ffbe9d" d="M380.79,163.3c-.53-9.74-3.25-29.7-5.93-47.73a37.56,37.56,0,0,0-39.68-32l-2,.12c-20.85,2.63-30.28,21.81-27.08,42.59l2.39,14.78c-2-.41-13.7-2.06-12.44,10.64,1.2,12.1,12.88,10.06,15.63,9.13L317.36,196s4.8,15.41,15.07,18.08l13,18.52,2.14-8,9.66-8.42a38.44,38.44,0,0,0,4.77-7.09,15.58,15.58,0,0,0,1.41-9.57c-.77-6-1.4-10.93-1.44-11.55C362,187.92,381.89,183.44,380.79,163.3Z"/><path fill="#eb996e" d="M362,187.64s-12.65,1.88-26.74-5.71c0,0,7.18,14.07,27.14,10.92Z"/><path d="M368.39,132.89a2.89,2.89,0,0,1-2.58,3.09,2.75,2.75,0,0,1-3.12-2.32v-.08a2.87,2.87,0,0,1,2.59-3.11,2.75,2.75,0,0,1,3.11,2.34h0Z"/><path d="M371.2,125.75c-.33.4-2.62-1.07-5.71-.85s-5.22,1.91-5.62,1.57c-.17-.15.15-.85,1.09-1.64a7.81,7.81,0,0,1,4.46-1.71,7.54,7.54,0,0,1,4.58,1.15C371,124.91,371.36,125.57,371.2,125.75Z"/><path d="M339.17,135a2.86,2.86,0,0,1-2.58,3.08,2.74,2.74,0,0,1-3.12-2.3h0v-.09A2.89,2.89,0,0,1,336,132.6a2.76,2.76,0,0,1,3.13,2.33Z"/><path d="M340.84,128.36c-.34.4-2.62-1.07-5.71-.85s-5.26,1.91-5.62,1.55c-.18-.15.14-.85,1.08-1.64a7.94,7.94,0,0,1,4.47-1.71,7.51,7.51,0,0,1,4.57,1.15C340.63,127.52,341,128.18,340.84,128.36Z"/><path d="M353.59,150.55c0-.18,1.88-.64,5-1.25.78-.13,1.52-.34,1.62-.88a4,4,0,0,0-.69-2.31l-2.74-5.86c-3.81-8.34-6.63-15.23-6.29-15.38s3.7,6.49,7.52,14.84l2.64,5.9a4.6,4.6,0,0,1,.62,3.07,2,2,0,0,1-1.22,1.24,5.53,5.53,0,0,1-1.33.28C355.56,150.58,353.62,150.72,353.59,150.55Z"/><path d="M340.82,116.18c-.25.87-3.36.67-7,1.35s-6.47,1.87-7,1.15c-.24-.35.22-1.17,1.35-2.07a12.35,12.35,0,0,1,10.63-1.9C340.21,115.16,340.93,115.78,340.82,116.18Z"/><path d="M369.46,116.87c-.49.74-2.67.16-5.24.29s-4.7.79-5.25.09c-.24-.34.06-1.07,1-1.8a7.61,7.61,0,0,1,8.45-.3C369.34,115.81,369.68,116.47,369.46,116.87Z"/><path fill="#eb996e" d="M306.19,156.05c-.07,0-.22.19-.61.41a2.4,2.4,0,0,1-1.78.22c-1.51-.39-3-2.57-3.27-5a7.94,7.94,0,0,1,.33-3.49,2.79,2.79,0,0,1,1.62-2,1.23,1.23,0,0,1,1.48.52c.22.37.16.65.23.66s.27-.25.11-.81a1.53,1.53,0,0,0-.63-.81,1.82,1.82,0,0,0-1.4-.28,3.38,3.38,0,0,0-2.28,2.38,8.14,8.14,0,0,0-.45,3.91c.36,2.76,2,5.21,4.07,5.58a2.57,2.57,0,0,0,2.16-.58C306.2,156.38,306.27,156.07,306.19,156.05Z"/><path d="M383.4,87.65c-1.41-5.48-7.94-9.49-13.08-7.12,1.81-2.63.25-6.5-2.5-8.14s-6.22-1.41-9.31-.64-6.07,2-9.23,2.47c-4.44.6-8.92-.53-13.33-1.15s-9.24-.68-13,1.76c-4.3,2.78-6.2,8.15-10.11,11.46-5,4.25-13.31,5.2-15.63,11.36-1.48,3.93.28,8.32,0,12.52-.22,3.1-1.5,6-2,9-.84,5.11.65,10.44,3.24,15s6.09,8.48,9.59,12.37l.78-4.59a7.87,7.87,0,0,0,.75.78c1.56,1.39,4,2.2,5.56.84a5.42,5.42,0,0,0,1.39-3.28c1.94-10.8,3.79-22.36-.78-32.36.93-1.39,1.83-3,2.83-4.48,13.06,7,28.87,8.34,43.51,5.55,5.55-1,11.19-2.76,15.55-6.35S384.81,93.13,383.4,87.65Z"/><path fill="#eb996e" d="M355.62,157.47l-7-3.26a2.25,2.25,0,0,0-1.27-.32,2,2,0,0,0-1.21.82,6.48,6.48,0,0,0-.78,7.15,5.48,5.48,0,0,0,6.57,2.42c2.48-1,3.68-3.91,3.88-6.59Z"/><path d="M352.15,164.8c0,.06-.33.26-1,.41a6.12,6.12,0,0,1-3-.22,6.27,6.27,0,0,1-3.47-2.89,6.41,6.41,0,0,1-.43-5.52,6.73,6.73,0,0,1,1.62-2.45,6.32,6.32,0,0,1,1.14-.86,1.79,1.79,0,0,1,.81-.25,1.88,1.88,0,0,1,.81.15c.37.19.74.4,1.09.62l.95.59,1.71,1.06c2.07,1.32,3.32,2.2,3.25,2.32s-1.45-.52-3.62-1.68l-1.77-1-1-.55c-.34-.17-.7-.4-1-.52a.74.74,0,0,0-.77.08,5.37,5.37,0,0,0-.92.73,6,6,0,0,0-1.36,2.08,5.62,5.62,0,0,0,.3,4.69,5.72,5.72,0,0,0,2.89,2.66,7,7,0,0,0,2.71.51C351.75,164.79,352.12,164.73,352.15,164.8Z"/><path d="M349.94,133.24a24.22,24.22,0,0,0-.55-3.48,14.19,14.19,0,0,0-17.28-10.18c-.44.12-.88.25-1.31.41a13.56,13.56,0,0,0-3.57,1.93,12.94,12.94,0,0,0-3,3,14,14,0,0,0,0,16.65,12.94,12.94,0,0,0,3,3,13.56,13.56,0,0,0,3.57,1.93A14.22,14.22,0,0,0,349,138c.14-.4.27-.81.38-1.23a23.87,23.87,0,0,0,.55-3.47.89.89,0,0,1,0,.23v.68a5.93,5.93,0,0,1-.08,1.11,12.38,12.38,0,0,1-.27,1.5,13.82,13.82,0,0,1-1.55,3.87,14.48,14.48,0,0,1-17.41,6.3,13.61,13.61,0,0,1-3.69-2,13.77,13.77,0,0,1-3.1-3.09,14.51,14.51,0,0,1,0-17.25,13.33,13.33,0,0,1,3.09-3.09,13.61,13.61,0,0,1,3.69-2,14.48,14.48,0,0,1,17.41,6.3,13.82,13.82,0,0,1,1.55,3.87,12.38,12.38,0,0,1,.27,1.5,5.93,5.93,0,0,1,.08,1.11V133A.65.65,0,0,1,349.94,133.24Z"/><path d="M384.18,131.89a26,26,0,0,0-.53-3.39,14,14,0,0,0-5.1-7.57,13.47,13.47,0,0,0-5.8-2.55,13.86,13.86,0,0,0-7.22.61,13.54,13.54,0,0,0-3.47,1.87,13.39,13.39,0,0,0-2.9,2.92,13.68,13.68,0,0,0,0,16.22,12.92,12.92,0,0,0,2.9,2.91,13.27,13.27,0,0,0,3.47,1.88,13.86,13.86,0,0,0,7.22.61,13.47,13.47,0,0,0,5.8-2.55,14,14,0,0,0,5.1-7.57,26,26,0,0,0,.53-3.39,13.33,13.33,0,0,1-.08,2,10.39,10.39,0,0,1-.26,1.46A14.14,14.14,0,1,1,367.54,118a14.31,14.31,0,0,1,5.3,0,14.09,14.09,0,0,1,11,10.5,10.39,10.39,0,0,1,.26,1.46,13.33,13.33,0,0,1,.08,2Z"/><path d="M356.27,128.73c-.06.05-.39-.22-1-.51a5.78,5.78,0,0,0-2.52-.55,5.42,5.42,0,0,0-2.49.64c-.6.31-.92.6-1,.54s.18-.44.78-.86a4.89,4.89,0,0,1,5.38-.09A2.33,2.33,0,0,1,356.27,128.73Z"/><path d="M322.12,131.2a62.62,62.62,0,0,1-6.26,5,62.42,62.42,0,0,1-6.58,4.59,61.62,61.62,0,0,1,6.27-5A62.29,62.29,0,0,1,322.12,131.2Z"/><g opacity=".3"><path d="M310.27,196.28c-1.39,13.57,3.77,27.9,14.66,36.12.85.65,1.92,1.29,2.93.92a3.24,3.24,0,0,0,1.52-1.56,26.55,26.55,0,0,0,3.24-17.44c-1.72,4.54-3.2,9-4.94,13.74C318.21,222.3,312.27,210.06,310.27,196.28Z"/></g><path opacity=".3" d="M347.14,227.14l8-2.92,1.32,13.51s8.62-15.71,12.19-22.87S370.38,195,370.38,195s1.27,11-7.36,25.07l-6.52,10.6v-11.1Z"/><g opacity=".3"><path d="M254.27,295.8a21.32,21.32,0,0,0-11.57-1.45,22.24,22.24,0,0,0-11.52,4.36c-3.24,2.61-5.43,6.73-5,10.87h.4c2.79-7.54,8.33-13,15.48-13.69s14.12,2.51,19,7.76C260.53,299.78,257.79,297.47,254.27,295.8Z"/></g><g opacity=".3"><path d="M456.21,303.47a18.27,18.27,0,0,0-10.32-5.31,23.14,23.14,0,0,0-19.24,5.57l1.52-1.24A24.35,24.35,0,0,1,441,299a18.51,18.51,0,0,1,12.21,4.88c3,2.84,4.79,6.69,6.5,10.44A13,13,0,0,0,456.21,303.47Z"/></g><path d="M404.72,240.77a5.16,5.16,0,0,1,.36-1.09c.31-.79.69-1.76,1.13-2.91,1-2.45,2.3-5.83,3.7-9.6s2.61-7.2,3.48-9.68l1-3a5.16,5.16,0,0,1,.44-1.06,4.32,4.32,0,0,1-.25,1.12c-.19.72-.49,1.74-.88,3-.78,2.52-1.94,6-3.34,9.75s-2.79,7.15-3.85,9.56c-.52,1.21-1,2.18-1.29,2.85A4.12,4.12,0,0,1,404.72,240.77Z"/><path d="M278.65,241.75c-.14,0-1.23-4.73-2.43-10.63s-2.06-10.65-2-10.73,1.22,4.73,2.42,10.63S278.79,241.72,278.65,241.75Z"/><path fill="#ffbe9d" d="M306.76,261.32c.65-4.9.34-7.9-3.29-8.71s-4.29,4.54-5.25,6.78-2.61,17.24-2.61,17.24l-8.93-19.82s-.18-7.28-.73-14.41-4-4.13-4-4.13c-1-3.8-4.93-1.45-4.93-1.45v8.39c-1.41,1.1-3.92,24.87-3.92,24.87s2.46,19.38,3.36,27.57l-19.53,8.21H244.85s-11.94,3.73-13.78,14.93-2.1,16.95,3.15,18.34,20.08,1.54,27.43-.9c6.54-2.17,22.51-14.73,25.94-17.47h.08c3.3-2.55,9.39-11,12.57-15.14s6.22-9.94,6.66-15.48-1-12.53-1.3-15.67S306.11,266.22,306.76,261.32Z"/><path fill="#eb996e" d="M280.64,275.75a6,6,0,0,1,0-1.34c.06-1,.15-2.18.25-3.64.23-3.07.59-7.31,1-12,.22-2.33.43-4.55.62-6.59a12.18,12.18,0,0,0,0-2.83,4.07,4.07,0,0,0-1-2.16,4.28,4.28,0,0,0-3.13-1.37,8.23,8.23,0,0,0-1.31.16,1.37,1.37,0,0,1,.32-.16,3.43,3.43,0,0,1,1-.21A4.43,4.43,0,0,1,281.8,247a4.33,4.33,0,0,1,1.11,2.35,11.06,11.06,0,0,1,0,2.93c-.18,2-.38,4.27-.58,6.6-.43,4.68-.85,8.91-1.18,12l-.41,3.63A7.32,7.32,0,0,1,280.64,275.75Z"/><path fill="#eb996e" d="M284.76,263a10.62,10.62,0,0,0-1.36,2.47,42,42,0,0,0-1.27,6.76c-.42,2.68-.82,5.1-1.14,6.85a15,15,0,0,1-.62,2.81,16.3,16.3,0,0,1,.26-2.87c.22-1.76.57-4.19,1-6.87a31.66,31.66,0,0,1,1.45-6.81,6.42,6.42,0,0,1,1.09-1.81C284.5,263.07,284.74,262.92,284.76,263Z"/><path fill="#eb996e" d="M281.94,237.86a3.53,3.53,0,0,1,.27,1c.14.64.31,1.57.5,2.73.38,2.31.8,5.52,1.07,9.09s.32,6.81.28,9.15c0,1.17-.05,2.12-.1,2.77a3.38,3.38,0,0,1-.12,1,34.13,34.13,0,0,1-.15-3.78c-.05-2.34-.17-5.56-.43-9.11s-.62-6.76-.91-9.08A31.94,31.94,0,0,1,281.94,237.86Z"/><path fill="#eb996e" d="M304.07,267.22a2.75,2.75,0,0,1-2.58.22c-1.47-.44-2.15-1.57-2-1.62a13.49,13.49,0,0,0,2.17,1.12A15,15,0,0,0,304.07,267.22Z"/><path fill="#eb996e" d="M281.94,309.72a4.86,4.86,0,0,1-.58-.53,12.61,12.61,0,0,1-1.31-1.68,22.84,22.84,0,0,1-2.83-6.41,37.35,37.35,0,0,1-1.25-6.88,13.39,13.39,0,0,1-.08-2.9,19.63,19.63,0,0,1,.44,2.85,50.77,50.77,0,0,0,1.39,6.79,26.8,26.8,0,0,0,2.64,6.36C281.27,308.83,282,309.65,281.94,309.72Z"/><path fill="#eb996e" d="M290.77,313.27a21,21,0,0,0,1.15-4.34,14,14,0,0,0-2.72-10.18c-1.23-1.72-2.62-3.22-3.79-4.68a21.54,21.54,0,0,1-2.74-4.14,10.93,10.93,0,0,1-1-3.2,4.16,4.16,0,0,1,0-1.22,14.21,14.21,0,0,0,1.38,4.25,23.11,23.11,0,0,0,2.79,4c1.17,1.42,2.57,2.92,3.83,4.68A14.49,14.49,0,0,1,292.2,304a14.24,14.24,0,0,1,.13,5,13.33,13.33,0,0,1-.92,3.22c-.16.36-.31.63-.41.81S290.78,313.28,290.77,313.27Z"/><path fill="#fff" d="M259.52,264.47a99.44,99.44,0,0,1-4.94-9,99.36,99.36,0,0,1-4.48-9.23,99.44,99.44,0,0,1,4.94,9A99.36,99.36,0,0,1,259.52,264.47Z"/><path fill="#fff" d="M292.27,228a61.68,61.68,0,0,1,3.05-7.5,63.42,63.42,0,0,1,3.53-7.28,65.07,65.07,0,0,1-3.05,7.5A63.42,63.42,0,0,1,292.27,228Z"/><path fill="#fff" d="M324.4,251.66a45.75,45.75,0,0,1-4.6-5.14,47.17,47.17,0,0,1-4.19-5.47,43.89,43.89,0,0,1,4.59,5.14A47.25,47.25,0,0,1,324.4,251.66Z"/><path fill="#fff" d="M317,284.23a39.34,39.34,0,0,1,3.46-5.22,38.31,38.31,0,0,1,3.89-4.91,38.7,38.7,0,0,1-3.46,5.22A35.41,35.41,0,0,1,317,284.23Z"/><path fill="#fff" d="M307.07,330.24a9.78,9.78,0,0,1-1.17-2c-.66-1.28-1.51-3.07-2.37-5.08s-1.55-3.88-2-5.23a10.24,10.24,0,0,1-.64-2.24,10.2,10.2,0,0,1,1,2.11L304,323c.83,1.91,1.57,3.64,2.22,5.13A10.13,10.13,0,0,1,307.07,330.24Z"/><path fill="#fff" d="M335.27,310.68a37.85,37.85,0,0,1-6.07-.91,36.35,36.35,0,0,1-6-1.42,73.11,73.11,0,0,1,12,2.33Z"/><path fill="#fff" d="M357.27,267.69a72.66,72.66,0,0,1,5.78-6.62,76.31,76.31,0,0,1,6.18-6.28,75.9,75.9,0,0,1-5.79,6.63A74.5,74.5,0,0,1,357.27,267.69Z"/><path fill="#fff" d="M379.27,325c-.11.1-3.34-3.65-7.22-8.35s-6.93-8.6-6.82-8.69,3.34,3.65,7.22,8.35S379.36,325,379.27,325Z"/><path fill="#fff" d="M242.47,300.59c.07.14-2.88,1.64-6.1,4.11s-5.46,4.91-5.58,4.8a7,7,0,0,1,1.36-1.7,32.11,32.11,0,0,1,8.32-6.33A7.3,7.3,0,0,1,242.47,300.59Z"/><path fill="#fff" d="M250.71,278.47a21.4,21.4,0,0,1-2.35,4,21.14,21.14,0,0,1-2.79,3.72,22.31,22.31,0,0,1,2.35-4A20.66,20.66,0,0,1,250.71,278.47Z"/><path fill="#fff" d="M269.27,300.19a13.19,13.19,0,0,1-1.94-8.55c.15,0,.2,2,.75,4.33S269.41,300.12,269.27,300.19Z"/><path fill="#fff" d="M272,231.27a15.36,15.36,0,0,1-3.85.81,14.8,14.8,0,0,1-3.93.29,15.43,15.43,0,0,1,3.86-.81A15.19,15.19,0,0,1,272,231.27Z"/><path fill="#fff" d="M286,206.54a30.7,30.7,0,0,1-7,3.88,15.15,15.15,0,0,1,3.37-2.17A15.65,15.65,0,0,1,286,206.54Z"/><path fill="#fff" d="M325.17,217a37.25,37.25,0,0,1-3.86-4.64,37.25,37.25,0,0,1-3.44-5A69.17,69.17,0,0,1,325.17,217Z"/><path fill="#fff" d="M374.94,241.85a24.49,24.49,0,0,1-6.05-9.72c.15-.06,1.22,2.27,2.9,4.94S375.06,241.75,374.94,241.85Z"/><path fill="#fff" d="M393.94,248.11a58.51,58.51,0,0,1-4.6,10.13,31.16,31.16,0,0,1,2.07-5.17A29,29,0,0,1,393.94,248.11Z"/><path fill="#fff" d="M396.6,222.18a54.25,54.25,0,0,1-5.06-5.66,55,55,0,0,1-4.65-6A111.54,111.54,0,0,1,396.6,222.18Z"/><path fill="#fff" d="M367.58,201.12a23.14,23.14,0,0,1-.45-4.84,22.66,22.66,0,0,1,.07-4.87,23.14,23.14,0,0,1,.45,4.84A22,22,0,0,1,367.58,201.12Z"/><path fill="#fff" d="M391.27,199.81a75.34,75.34,0,0,1-12.42,1.66A75.34,75.34,0,0,1,391.27,199.81Z"/><path fill="#fff" d="M428.5,227.18a62.78,62.78,0,0,1-3.72-7.08,61.08,61.08,0,0,1-3.24-7.31,62.85,62.85,0,0,1,3.73,7.08A63.41,63.41,0,0,1,428.5,227.18Z"/><path fill="#fff" d="M422.27,250.83a64.77,64.77,0,0,1,2.26-11.28,32.2,32.2,0,0,1-.87,5.69A31.73,31.73,0,0,1,422.27,250.83Z"/><path fill="#fff" d="M439.51,269.47a62.32,62.32,0,0,1-3-7.68A64.26,64.26,0,0,1,434,254a66.53,66.53,0,0,1,3,7.69A64.68,64.68,0,0,1,439.51,269.47Z"/><path fill="#fff" d="M437.1,280.38a13.79,13.79,0,0,1-5.05-1.81,13.29,13.29,0,0,1-4.27-3.24c.1-.12,1.94,1.4,4.52,2.78S437.15,280.23,437.1,280.38Z"/><path fill="#fff" d="M459.27,305.24a28.5,28.5,0,0,1-3.11-7A28.5,28.5,0,0,1,459.27,305.24Z"/><path fill="#fff" d="M328.48,339.92a19.6,19.6,0,0,1-.78-4.43,20.46,20.46,0,0,1-.26-4.49,18.37,18.37,0,0,1,.83,4.47A19.49,19.49,0,0,1,328.48,339.92Z"/><path fill="#fff" d="M396.41,338.2a18.66,18.66,0,0,1,.65-4.33,19.29,19.29,0,0,1,1.17-4.22A37.34,37.34,0,0,1,396.41,338.2Z"/></g><g id="Speech_Bubble" data-name="Speech Bubble"><path fill="#fafafa" d="M409.43,139.91l8.84-15.44a41.46,41.46,0,1,1,9.93,11h0Z"/><path d="M409.43,139.91l18.77-4.28h.19l-.12-.16h0l-.18.17a42.91,42.91,0,0,0,8.52,5.14A41.08,41.08,0,0,0,448,144a37.86,37.86,0,0,0,6.56.33c1.13-.06,2.27-.09,3.43-.18l3.5-.53A41.77,41.77,0,0,0,494.35,111a42.45,42.45,0,0,0-.49-18.43,40.94,40.94,0,0,0-8.88-17l-1.71-2c-.56-.63-1.22-1.14-1.82-1.72a16.36,16.36,0,0,0-1.88-1.64l-2-1.48a16.67,16.67,0,0,0-2.06-1.36l-2.1-1.28L471.21,65A19.93,19.93,0,0,0,469,64a42.5,42.5,0,0,0-18.57-2.85,40.82,40.82,0,0,0-17,5,42,42,0,0,0-19.69,24.23,44.77,44.77,0,0,0-1.8,13.47,41.07,41.07,0,0,0,2,11.63,41.84,41.84,0,0,0,4.15,8.92v-.13c-5.54,9.93-8.25,14.78-8.68,15.54.44-.75,3.22-5.57,8.89-15.42v-.12a42,42,0,0,1-4-8.89,40.82,40.82,0,0,1-2-11.55,44.34,44.34,0,0,1,1.81-13.25,41.7,41.7,0,0,1,19.51-23.9,40.27,40.27,0,0,1,16.85-5,41.93,41.93,0,0,1,18.34,2.83,19.64,19.64,0,0,1,2.19,1l2.18,1.06,2.1,1.3a17,17,0,0,1,2,1.34l2,1.47c.67.48,1.23,1.08,1.85,1.62a19.33,19.33,0,0,1,1.8,1.7l1.67,1.83a40.41,40.41,0,0,1,8.78,16.83,41.72,41.72,0,0,1,.49,18.2,40.75,40.75,0,0,1-6.9,15.83,41.37,41.37,0,0,1-25.58,16.49l-3.46.54c-1.15.09-2.28.13-3.4.19a37.16,37.16,0,0,1-6.5-.3,41.11,41.11,0,0,1-11.3-3.14,42.34,42.34,0,0,1-8.49-5.06l-.77-.59.59.77h0l.07-.2Z"/><path d="M464.67,101a4,4,0,1,0,0-.1Z"/><path d="M448.48,101a4,4,0,1,0,4-4A4,4,0,0,0,448.48,101Z"/><path d="M432.33,99a4,4,0,1,0,0-.07Z"/></g></svg>