<svg xmlns="http://www.w3.org/2000/svg" viewBox="0 0 707.73 433.05"><g id="Background_Complete" data-name="Background Complete"><path fill="#e0e0e0" d="M244.82,380.35a14.61,14.61,0,0,0,3.53-.62,11.48,11.48,0,0,0,7.14-6.89,10.63,10.63,0,0,0,.69-3.43c.06-1.23,0-2.55,0-3.91V340.81A36.37,36.37,0,0,0,256,335a11.38,11.38,0,0,0-8-8.6c-2.06-.63-4.32-.39-6.6-.43H135.11a11.23,11.23,0,0,0-11.24,11.22h0v30.5a13.37,13.37,0,0,0,.42,4.08,11.26,11.26,0,0,0,4.61,6.37,10.85,10.85,0,0,0,3.61,1.56,14.74,14.74,0,0,0,3.92.32l56.43.07,38,.09,10.34.06h0l-10.34.06-38,.1-56.43.06a15.8,15.8,0,0,1-4-.33,11.46,11.46,0,0,1-3.8-1.63,11.86,11.86,0,0,1-4.85-6.7,14,14,0,0,1-.44-4.23V337.29a11.86,11.86,0,0,1,11.82-11.88H244.77a12.18,12.18,0,0,1,3.34.46,11.83,11.83,0,0,1,8.31,9,15.84,15.84,0,0,1,.23,3V369.4a11.28,11.28,0,0,1-.74,3.49,11.55,11.55,0,0,1-7.55,6.95,12.51,12.51,0,0,1-2.65.49C245.13,380.36,244.82,380.35,244.82,380.35Z"/><path fill="#e0e0e0" d="M233.36,356.61h-60.8a4.08,4.08,0,0,1-4.08-4.08h0a4.11,4.11,0,0,1,4.08-4.09h60.8a4.09,4.09,0,0,1,4.09,4.09h0A4.11,4.11,0,0,1,233.36,356.61Z"/><rect fill="#e0e0e0" x="142.13" y="343.59" width="18.92" height="18.92" rx="5.14"/><polygon fill="#fff" points="145.05 353.32 146.96 351.42 150.63 354.68 156.77 348.52 158.54 350.43 150.36 358.36 145.05 353.32"/><path fill="#ebebeb" d="M656.2,89.92a9.08,9.08,0,1,1-10.89-6.81h0a9.08,9.08,0,0,1,10.89,6.81Z"/><path fill="#ebebeb" d="M613.36,99.9l68-15.63L675.43,80a18.86,18.86,0,0,1-7.28-11L664,50.49a25.46,25.46,0,0,0-30.5-19.1h0a25.45,25.45,0,0,0-19.1,30.45l4.07,17.75a18.87,18.87,0,0,1-1.29,12.25Z"/><rect fill="#ebebeb" x="629.12" y="23.35" width="6.85" height="14.56" rx="2.98" transform="translate(9.21 142.43) rotate(-12.94)"/><path fill="#e0e0e0" d="M681.45,84.42c0,.14-15.07,3.72-33.73,8s-33.82,7.64-33.86,7.5,15.07-3.73,33.74-8S681.42,84.27,681.45,84.42Z"/><path fill="#e0e0e0" d="M638.57,94.25a15.16,15.16,0,0,0,9.27,1.09,14.51,14.51,0,0,0,8.42-5.15Z"/><path fill="#e0e0e0" d="M659.84,48.05a5,5,0,0,0-1-2.17,1.76,1.76,0,0,0-2.18-.43h0a1.89,1.89,0,0,0-1.07,2.16c.66,2.92,2.1,9.37,2.82,13.24.59,3.19.92,6.66-.56,9.54a10.85,10.85,0,0,1-5.61,4.77A40.3,40.3,0,0,1,645,77.1a38.46,38.46,0,0,0-9,2.9,4.89,4.89,0,0,0-2,1.54,1.86,1.86,0,0,0,.16,2.32,2.78,2.78,0,0,0,2.23.33c7.91-1.09,15.87-2.33,23.39-5a8.08,8.08,0,0,0,4.13-2.63c1.07-1.55,1-3.59.81-5.47A131.38,131.38,0,0,0,659.84,48.05Z"/><g opacity=".2"><path fill="#fff" d="M627,37.31"/></g><path fill="#e0e0e0" d="M649,32.53c0,.1-1.54-.55-4.09-1.06a26.5,26.5,0,0,0-4.53-.5,27.69,27.69,0,0,0-10.94,2,27,27,0,0,0-4.08,2c-2.22,1.36-3.4,2.48-3.47,2.4s.26-.32.8-.82c.32-.3.65-.59,1-.86a11.93,11.93,0,0,1,1.44-1,25.51,25.51,0,0,1,4.1-2.17,27.89,27.89,0,0,1,5.51-1.63,28.22,28.22,0,0,1,5.66-.39,24.48,24.48,0,0,1,4.59.62,14.41,14.41,0,0,1,1.71.47,11.31,11.31,0,0,1,1.27.46A4.39,4.39,0,0,1,649,32.53Z"/><path fill="#fff" d="M618.72,90.48c-.15-.06.72-2.19,1-5s0-5,.16-5.08a13.74,13.74,0,0,1-1.2,10Z"/><path fill="#fff" d="M650,98.84a2.82,2.82,0,0,1-1.37.65,7,7,0,0,1-6.83-1.86c-.66-.69-.9-1.23-.85-1.26a14.81,14.81,0,0,1,1.1,1A8.14,8.14,0,0,0,645,99a7.88,7.88,0,0,0,3.45.14A10.34,10.34,0,0,1,650,98.84Z"/><path fill="#fff" d="M630.1,24.64a14.91,14.91,0,0,0-.63,2.47,15.33,15.33,0,0,0,.3,2.53A3.67,3.67,0,0,1,630.1,24.64Z"/><path fill="#e0e0e0" d="M151.78,122a27.24,27.24,0,0,1,6.51-2.82l1.34-6.44,10.87-.19,1.57,6.38a26.93,26.93,0,0,1,6.59,2.6l5.5-3.6,7.83,7.55-3.41,5.62a27.68,27.68,0,0,1,2.83,6.51l6.43,1.34.19,10.87-6.38,1.57a26.54,26.54,0,0,1-2.6,6.59l3.6,5.5-7.55,7.83-5.62-3.42a27.61,27.61,0,0,1-6.5,2.83l-1.34,6.43-10.88.19L159.2,171a26.46,26.46,0,0,1-6.6-2.6l-5.5,3.6-7.82-7.55,3.4-5.62a27,27,0,0,1-2.82-6.5L133.42,151l-.19-11,6.38-1.56a27.16,27.16,0,0,1,2.6-6.6l-3.6-5.5,7.55-7.82,5.62,3.4Zm5.8,14.49a11.67,11.67,0,1,0,16.5-.29h0a11.66,11.66,0,0,0-16.49.28h0Z"/><path fill="#ebebeb" d="M670.78,252.58a21.46,21.46,0,0,1,5.2-2.26l1.07-5.14,8.68-.15,1.25,5.1a21.33,21.33,0,0,1,5.27,2.07l4.39-2.87,6.26,6-2.73,4.51a20.49,20.49,0,0,1,2.26,5.19l5.14,1.07.16,8.69L702.62,276a20.43,20.43,0,0,1-2.07,5.27l2.88,4.39-6,6.25L693,289.23a21.46,21.46,0,0,1-5.2,2.26l-1.07,5.14-8.69.15-1.25-5.1a21.73,21.73,0,0,1-5.27-2.07l-4.39,2.88-6.25-6L663.6,282a21.36,21.36,0,0,1-2.25-5.19l-5.15-1.07-.15-8.69,5.1-1.25a20.82,20.82,0,0,1,2.08-5.27l-2.88-4.39,6-6.25,4.49,2.72Zm4.63,11.57a9.32,9.32,0,1,0,13.18-.23,9.32,9.32,0,0,0-13.18.23Z"/><path fill="#e0e0e0" d="M32.48,250.84a13.37,13.37,0,0,1,3.36-1.46l.69-3.32,5.62-.1.8,3.29a14,14,0,0,1,3.41,1.36l2.84-1.85,4,3.9-1.76,2.9a14.07,14.07,0,0,1,1.46,3.35l3.32.69.1,5.62L53,266a13.46,13.46,0,0,1-1.34,3.4l1.86,2.84-3.9,4-2.9-1.76A14,14,0,0,1,43.38,276l-.69,3.32-5.61.1-.72-3.25a14.16,14.16,0,0,1-3.46-1.3l-2.83,1.86-4-3.91,1.75-2.9a13.57,13.57,0,0,1-1.46-3.39l-3.4-.69-.1-5.62,3.3-.81A14.32,14.32,0,0,1,27.5,256l-1.86-2.84,3.9-4,2.9,1.76Zm3,7.48a6,6,0,1,0,8.51-.15,6,6,0,0,0-8.51.15l0,0Z"/><path fill="#f5f5f5" d="M259,63.64a30.91,30.91,0,0,1,7.53-3.27l1.55-7.44,12.58-.22,1.81,7.38a30.45,30.45,0,0,1,7.64,3l6.36-4.17,9,8.73-3.94,6.5a30.91,30.91,0,0,1,3.27,7.53l7.45,1.56.22,12.58-7.39,1.82a31.24,31.24,0,0,1-3,7.62l4.17,6.37-8.75,9.05-6.5-3.94a30.47,30.47,0,0,1-7.47,3.26L282,127.45l-12.59.22-1.81-7.38a30.45,30.45,0,0,1-7.64-3l-6.36,4.17-9-8.74,3.94-6.5a30.82,30.82,0,0,1-3.24-7.53l-7.45-1.55-.25-12.61,7.4-1.81a31.31,31.31,0,0,1,3-7.63l-4.16-6.36,8.74-9.06,6.5,3.94Zm6.71,16.77a13.5,13.5,0,1,0,19.09-.34,13.5,13.5,0,0,0-19.09.34Z"/><path fill="#f5f5f5" d="M591.69,369.31a28.51,28.51,0,0,1,7-3.06l1.45-6.94L612,359.1l1.69,6.92a28.23,28.23,0,0,1,7.15,2.81l6-3.91,8.47,8.18-3.69,6.08a28.69,28.69,0,0,1,3.06,7.05l7,1.45.21,11.77L635,401.14a28.73,28.73,0,0,1-2.8,7.15l3.9,5.95-8.18,8.48-6.08-3.7a28.69,28.69,0,0,1-7,3.06l-1.45,7-11.77.21-1.69-6.92a28.76,28.76,0,0,1-7.15-2.81l-6,3.91-8.42-8.19L582,409.2a28.51,28.51,0,0,1-3.06-7l-7-1.45-.3-11.75,6.92-1.69a28.66,28.66,0,0,1,2.8-7.14l-3.9-6,8.18-8.47,6.09,3.69ZM598,385a12.63,12.63,0,1,0,17.86-.32A12.63,12.63,0,0,0,598,385Z"/></g><g id="Desk"><path d="M669.36,432.78c0,.14-143.71.26-320.94.26s-321-.12-321-.26,143.68-.26,321-.26S669.36,432.63,669.36,432.78Z"/></g><g id="Chronometer"><rect x="521.13" y="53.97" width="4.62" height="7.21" transform="translate(77.02 336.9) rotate(-38.31)"/><path fill="#1c1e28" d="M526.29,53.44l-7.47,5.89L514,53.24a18.19,18.19,0,0,1,7.46-5.9Z"/><path d="M520.07,58.35a15.92,15.92,0,0,1-2.74-3A15.23,15.23,0,0,1,515,52a15.33,15.33,0,0,1,2.74,3A14.67,14.67,0,0,1,520.07,58.35Z"/><path d="M521.5,57.22a16,16,0,0,1-2.71-3.15,19.87,19.87,0,0,1-2.32-3.43c.14-.13,1.39,1.28,2.76,3.1A15.44,15.44,0,0,1,521.5,57.22Z"/><path d="M523.36,55.73a16.64,16.64,0,0,1-2.72-3.2A19.53,19.53,0,0,1,518.36,49c.14-.12,1.37,1.31,2.75,3.16A15.58,15.58,0,0,1,523.36,55.73Z"/><path d="M525.12,54.32a14.92,14.92,0,0,1-2.72-3A15.11,15.11,0,0,1,520.11,48a14.92,14.92,0,0,1,2.72,3A15.11,15.11,0,0,1,525.12,54.32Z"/><rect x="577.02" y="58.36" width="7.21" height="4.62" transform="translate(104.5 398.48) rotate(-41.32)"/><path fill="#1c1e28" d="M584.85,63.32l-6.28-7.14,5.79-5.13a18.12,18.12,0,0,1,6.28,7.14Z"/><path d="M579.62,57.37a15,15,0,0,1,2.84-2.89A14.89,14.89,0,0,1,585.67,52a15,15,0,0,1-2.84,2.9A14.54,14.54,0,0,1,579.62,57.37Z"/><path d="M580.82,58.73a15.94,15.94,0,0,1,3-2.86,21.84,21.84,0,0,1,3.31-2.51c.13.15-1.2,1.46-3,2.93A15.22,15.22,0,0,1,580.82,58.73Z"/><path d="M582.41,60.55a16.1,16.1,0,0,1,3-2.89,19.56,19.56,0,0,1,3.37-2.49c.12.13-1.24,1.44-3,2.92A16.27,16.27,0,0,1,582.41,60.55Z"/><path d="M583.9,62.2a15.71,15.71,0,0,1,2.88-2.88A15.53,15.53,0,0,1,590,56.84a15.71,15.71,0,0,1-2.88,2.88A15.53,15.53,0,0,1,583.9,62.2Z"/><rect x="548.9" y="44.26" width="8.53" height="5.47" transform="translate(483.24 597.74) rotate(-87.62)"/><path fill="#0c233b" d="M558.9,45.55l-11.25-.47L548,35.9a21.39,21.39,0,0,1,11.25.47Z"/><path d="M559.41,36.41A12.28,12.28,0,0,1,548,36,19.23,19.23,0,0,0,559.41,36.41Z"/><path d="M551.36,45.21a13.76,13.76,0,0,1-.12-4,14.39,14.39,0,0,1,.44-3.92,13.76,13.76,0,0,1,.12,4A14.79,14.79,0,0,1,551.36,45.21Z"/><path d="M553.5,45.36a14.49,14.49,0,0,1-.11-4,14.57,14.57,0,0,1,.44-4,13.75,13.75,0,0,1,.11,4A14.2,14.2,0,0,1,553.5,45.36Z"/><path d="M555.65,45.41a13.75,13.75,0,0,1-.11-4,14.15,14.15,0,0,1,.44-3.94,14.49,14.49,0,0,1,.11,4A14.53,14.53,0,0,1,555.65,45.41Z"/><path d="M557.43,45.48a16.59,16.59,0,0,1-.1-4.28,17,17,0,0,1,.45-4.27,16.22,16.22,0,0,1,.1,4.29A17,17,0,0,1,557.43,45.48Z"/><path d="M549.36,45.09a17.11,17.11,0,0,1-.09-4.29,16.51,16.51,0,0,1,.45-4.26,16.65,16.65,0,0,1,.1,4.29A16.09,16.09,0,0,1,549.36,45.09Z"/><path fill="#0c233b" d="M588.18,74.87a39.77,39.77,0,1,0-23.88,50.92h0A39.77,39.77,0,0,0,588.18,74.87Zm-7,27.17a33.4,33.4,0,1,1-16.37-44.31A33.4,33.4,0,0,1,581.18,102Z"/><path d="M584.17,89.44v-3.3c0-.43-.1-.89-.15-1.4a25.34,25.34,0,0,0-.56-3.47,31.78,31.78,0,0,0-3.33-9,33.31,33.31,0,0,0-21.76-16.53,32.59,32.59,0,0,0-4.17-.66c-.71,0-1.43-.15-2.16-.17h-3.3l-1.12.12c-.74.09-1.49.15-2.24.27a36.72,36.72,0,0,0-8.87,2.84c-.71.35-1.4.76-2.11,1.14a17.56,17.56,0,0,0-2,1.3,36.29,36.29,0,0,0-3.89,3,37.28,37.28,0,0,0-3.41,3.7,32.46,32.46,0,0,0-5.1,8.93,32.85,32.85,0,0,0-.87,20.89,32.12,32.12,0,0,0,4.35,9.32,37.39,37.39,0,0,0,3.09,4,35.82,35.82,0,0,0,3.62,3.35,17.26,17.26,0,0,0,1.94,1.46c.68.44,1.33.91,2,1.32a36.14,36.14,0,0,0,8.6,3.56c.74.18,1.48.3,2.22.45l1.1.22c.36.06.73.08,1.1.12l2.19.2c.72.05,1.44,0,2.16,0a31.14,31.14,0,0,0,4.21-.31,33.34,33.34,0,0,0,23.06-14.66,32.54,32.54,0,0,0,4.07-8.69,28.75,28.75,0,0,0,.84-3.41c.09-.5.21-1,.27-1.38s.08-.81.12-1.16c.07-.68.13-1.2.17-1.58a5,5,0,0,1,.08-.54v.54c0,.36-.07.91-.12,1.59a7.68,7.68,0,0,1-.09,1.17c-.06.43-.16.89-.25,1.39a24,24,0,0,1-.8,3.45,31.33,31.33,0,0,1-4,8.79,33.57,33.57,0,0,1-23.24,15,32,32,0,0,1-4.27.32h-2.2l-2.22-.2a3.51,3.51,0,0,1-1.12-.12l-1.11-.21c-.74-.16-1.5-.27-2.25-.46a36,36,0,0,1-4.43-1.49,36.55,36.55,0,0,1-4.31-2.11c-.7-.41-1.36-.88-2-1.33a18.12,18.12,0,0,1-2-1.48,38.31,38.31,0,0,1-3.69-3.4,39.19,39.19,0,0,1-3.14-4,32.92,32.92,0,0,1-4.43-9.47,33.44,33.44,0,0,1,.89-21.24,32.44,32.44,0,0,1,5.2-9.06,37.42,37.42,0,0,1,3.47-3.76,36,36,0,0,1,4-3.08,19.75,19.75,0,0,1,2.09-1.31c.72-.39,1.42-.81,2.15-1.16a35.29,35.29,0,0,1,4.4-1.74,37.12,37.12,0,0,1,4.39-1.11c.76-.12,1.52-.18,2.28-.27l1.12-.12H552c.74,0,1.46.12,2.19.18a31.7,31.7,0,0,1,4.22.68A33.56,33.56,0,0,1,580.3,72.19a31.47,31.47,0,0,1,3.27,9.1,22.94,22.94,0,0,1,.51,3.49c0,.51.11,1,.13,1.41V89A2.18,2.18,0,0,1,584.17,89.44Z"/><path d="M579.36,88.72c-3-.08-5.52-.33-5.52-.56s2.48-.45,5.52-.5,5.52.19,5.52.55S582.36,88.84,579.36,88.72Z"/><path d="M570.61,108.58c-2.11-2.2-3.69-4.11-3.53-4.27s2.07,1.41,4.28,3.52,3.78,4,3.53,4.27S572.72,110.78,570.61,108.58Z"/><path d="M550.45,116.58c0-3,.27-5.52.49-5.52s.48,2.46.57,5.51-.14,5.52-.5,5.52S550.36,119.62,550.45,116.58Z"/><path d="M530.49,108.09c2.18-2.14,4.07-3.74,4.23-3.58s-1.39,2.09-3.47,4.32-4,3.82-4.24,3.57S528.36,110.22,530.49,108.09Z"/><path d="M522.27,88c3.05,0,5.52.2,5.52.43s-2.46.51-5.5.63-5.52-.08-5.53-.44S519.22,88,522.27,88Z"/><path d="M530.54,68c2.16,2.15,3.78,4,3.62,4.19s-2.1-1.37-4.35-3.43-3.87-3.93-3.62-4.19S528.36,65.84,530.54,68Z"/><path d="M550.52,59.52c0,3-.15,5.52-.38,5.53s-.53-2.45-.68-5.5,0-5.51.38-5.53S550.5,56.48,550.52,59.52Z"/><path d="M570.66,67.57c-2.13,2.18-4,3.83-4.15,3.67s1.34-2.12,3.38-4.39,3.89-3.91,4.15-3.67S572.79,65.39,570.66,67.57Z"/><path fill="#e0e0e0" d="M560.84,70.7a114,114,0,0,1-1.06,14.65,18.32,18.32,0,0,1-1.26,5.15,6.88,6.88,0,0,1-3.64,3.69A4.3,4.3,0,0,1,550.05,93Z"/><polygon fill="#0c233b" points="550.18 85.41 563.16 65.49 554.88 88.24 551.09 89.2 550.18 85.41"/><g opacity=".4"><polygon points="563.16 65.49 553.3 85.98 554.88 88.24 563.16 65.49"/></g><path fill="#eee" d="M555,89.35a3.91,3.91,0,1,1-3.74-4.07h0a3.9,3.9,0,0,1,3.74,4Z"/><path d="M555,89.35a3.34,3.34,0,0,0-.19-.94,3.93,3.93,0,0,0-1.35-2.08,3.73,3.73,0,0,0-3.47-.62,3.66,3.66,0,0,0-.28,6.85,3.75,3.75,0,0,0,3.51-.33,3.91,3.91,0,0,0,1.51-2c.2-.58.22-.93.27-.92a2.12,2.12,0,0,1-.06,1,3.89,3.89,0,0,1-1.5,2.22,4.05,4.05,0,0,1-3.92.48,4.15,4.15,0,0,1,.32-7.81,4.09,4.09,0,0,1,3.87.81A3.89,3.89,0,0,1,555,88.35,2.11,2.11,0,0,1,555,89.35Z"/><path fill="#1c1e28" d="M554,89.31a2.91,2.91,0,1,1-2.82-3h0a2.91,2.91,0,0,1,2.82,3Z"/></g><g id="User_Icons" data-name="User Icons"><g opacity=".2"><circle cx="230.55" cy="189.12" r="17.86"/></g><circle fill="#1c1e28" cx="230.54" cy="185.81" r="17.86"/><path fill="#fff" d="M232.28,184.84a4.94,4.94,0,0,0,2.94-4.57,4.63,4.63,0,1,0-9.25-.44h0a3.09,3.09,0,0,0,0,.43,5,5,0,0,0,3,4.61c-7.12,1.07-6.8,8.81-6.8,8.81l16.84.08S239.36,185.93,232.28,184.84Z"/><g opacity=".2"><circle cx="152.32" cy="227.91" r="17.86"/></g><circle fill="#0c233b" cx="152.04" cy="224.68" r="17.86"/><path fill="#fff" d="M153.78,223.75a5,5,0,0,0,2.94-4.57,4.63,4.63,0,1,0-9.25-.44h0a3.09,3.09,0,0,0,0,.43,4.93,4.93,0,0,0,2.94,4.61c-7.12,1.07-6.79,8.81-6.79,8.81l16.83.08S160.84,224.84,153.78,223.75Z"/><g opacity=".2"><circle cx="353.71" cy="175.47" r="17.86" transform="translate(-20.48 301.51) rotate(-45)"/></g><circle fill="#0c233b" cx="353.12" cy="171.96" r="17.86" transform="translate(104.06 475.67) rotate(-76.61)"/><path fill="#fff" d="M354.84,171a4.9,4.9,0,0,0,2.94-4.56,4.64,4.64,0,1,0-9.25-.75h0a4.7,4.7,0,0,0,0,.75,4.92,4.92,0,0,0,3,4.6c-7.12,1.08-6.8,8.82-6.8,8.82l16.84.07S361.9,172.09,354.84,171Z"/><g opacity=".2"><circle cx="341.63" cy="97.98" r="17.86" transform="translate(171.54 410.05) rotate(-77.41)"/></g><circle fill="#1c1e28" cx="341.62" cy="95.73" r="17.86" transform="translate(173.73 408.28) rotate(-77.41)"/><path fill="#fff" d="M343.36,94.84a4.92,4.92,0,0,0,3-4.6,4.63,4.63,0,0,0-9.25-.43,3.09,3.09,0,0,0,0,.43,5,5,0,0,0,3,4.61c-7.12,1.07-6.8,8.81-6.8,8.81l16.84.07S350.43,95.84,343.36,94.84Z"/></g><g id="Calendar"><path fill="#fff" d="M200.44,10.18h-82.6a7.78,7.78,0,0,0-7.68,7.88h0v84.78a7.78,7.78,0,0,0,7.68,7.88h82.6a7.78,7.78,0,0,0,7.68-7.88h0V18.06a7.78,7.78,0,0,0-7.68-7.88Z"/><path fill="#0c233b" d="M208,41.92H110.27a.09.09,0,0,1-.1-.08h0v-26a5.68,5.68,0,0,1,5.68-5.68H202.2a5.92,5.92,0,0,1,5.92,5.92V41.82a.09.09,0,0,1-.08.1h0Z"/><path d="M152.65,54.9v34a.1.1,0,0,1-.09.11h-7.51a.11.11,0,0,1-.1-.11V61.25a.11.11,0,0,0-.11-.11h-6.48a.11.11,0,0,1-.1-.11V54.9a.11.11,0,0,1,.1-.06h14.19A.09.09,0,0,1,152.65,54.9Z"/><path d="M184.53,54.9v5h0l-12.33,29a.12.12,0,0,1-.1.07H164a.11.11,0,0,1-.11-.11h0l11.8-27.42a.11.11,0,0,0-.06-.14h-10.8a.11.11,0,0,0-.11.11h0V66.7a.11.11,0,0,1-.1.11H158a.11.11,0,0,1-.11-.11h0V54.9a.09.09,0,0,1,.08-.1h26.5a.1.1,0,0,1,.11.09h-.05Z"/><path d="M145.46,28.19c0,.17,6.73.32,15,.32s15-.15,15-.32-6.73-.33-15-.33S145.46,28,145.46,28.19Z"/><path d="M200.54,10.18a5.57,5.57,0,0,1,1,0,7,7,0,0,1,2.73.89,7.67,7.67,0,0,1,3.19,3.45,8,8,0,0,1,.75,3V21c0,9.85,0,24.08.09,41.65v40.7a8.24,8.24,0,0,1-1.27,4,8,8,0,0,1-3.11,2.79,8.3,8.3,0,0,1-4.1.82H117.74a7.91,7.91,0,0,1-7.53-5.79,8.94,8.94,0,0,1-.32-2.52V18.37a10.94,10.94,0,0,1,.16-2.06h0a8.33,8.33,0,0,1,.67-1.95,8.09,8.09,0,0,1,2.6-3A7.78,7.78,0,0,1,117,10c10.11-.06,19.47,0,28.05,0l40.59.08,11,.06h-11L145,10.28c-8.56,0-18,0-28,.06a7.31,7.31,0,0,0-5.89,4.14,8.43,8.43,0,0,0-.63,1.83h0a11.16,11.16,0,0,0-.15,2v81.8a19.25,19.25,0,0,0,.29,4.85,7.38,7.38,0,0,0,7,5.39h82.13a7.8,7.8,0,0,0,3.89-.76,7.38,7.38,0,0,0,2.92-2.62,7.58,7.58,0,0,0,1.2-3.72V62.67c0-17.57.06-31.8.08-41.65V17.55a7.73,7.73,0,0,0-3.8-6.34,7.37,7.37,0,0,0-2.69-.93,5.85,5.85,0,0,0-.72-.07Z"/><path fill="#e0e0e0" d="M144.63,23h0a3.22,3.22,0,0,0,3.18-3.26h0V3.6A3.22,3.22,0,0,0,144.64.33h0a3.24,3.24,0,0,0-3.19,3.27h0V19.76A3.23,3.23,0,0,0,144.63,23Z"/><path d="M144.52,23a3.78,3.78,0,0,1-1.81-.76,3.12,3.12,0,0,1-1.07-2V17.06c0-2.44,0-5.29.07-8.44v-5a3,3,0,0,1,.8-2.17,2.83,2.83,0,0,1,2.18-.84,2.78,2.78,0,0,1,2.09,1,3.08,3.08,0,0,1,.73,2.23v5c0,3.15,0,6,.07,8.43V19a9.14,9.14,0,0,1,0,1.48,3.08,3.08,0,0,1-1.22,1.92,3.91,3.91,0,0,1-1.86.64,1.19,1.19,0,0,0,.53,0,3,3,0,0,0,1.47-.48,3.37,3.37,0,0,0,1.4-2A8.18,8.18,0,0,0,148,19V17.32c0-2.43,0-5.28.06-8.43v-5a3.74,3.74,0,0,0-.82-2.65A3.36,3.36,0,0,0,144.66,0,3.43,3.43,0,0,0,142,1a3.63,3.63,0,0,0-1,2.62v5c0,3.15,0,6,.07,8.44,0,1.21,0,2.26.08,3.26a3.33,3.33,0,0,0,1.26,2.14,3.1,3.1,0,0,0,1.43.58A1.21,1.21,0,0,0,144.52,23Z"/><path fill="#e0e0e0" d="M174.53,23h0a3.24,3.24,0,0,0,3.19-3.27h0V3.6A3.24,3.24,0,0,0,174.53.33h0a3.22,3.22,0,0,0-3.17,3.27h0V19.76A3.22,3.22,0,0,0,174.53,23Z"/><path d="M174.42,23a3.78,3.78,0,0,1-1.81-.76,3.11,3.11,0,0,1-1.06-2V17.06c0-2.44,0-5.29.07-8.44v-5a2.92,2.92,0,0,1,.81-2.17,3,3,0,0,1,4.24.11h0a3,3,0,0,1,.68,2.24v5c0,3.15.05,6,.07,8.43V19a9.14,9.14,0,0,1,0,1.48,3,3,0,0,1-1.2,1.91,3.87,3.87,0,0,1-1.86.64,1.19,1.19,0,0,0,.53,0,2.88,2.88,0,0,0,1.47-.48,3.26,3.26,0,0,0,1.4-2,8.18,8.18,0,0,0,.1-1.56V17.3c0-2.43,0-5.28.07-8.43v-5a3.63,3.63,0,0,0-.82-2.65A3.32,3.32,0,0,0,174.57,0,3.43,3.43,0,0,0,172,1a3.63,3.63,0,0,0-1,2.62v5c0,3.15,0,6,.07,8.44,0,1.21,0,2.26.08,3.26a3.33,3.33,0,0,0,1.26,2.14,3.1,3.1,0,0,0,1.43.58A1,1,0,0,0,174.42,23Z"/><path d="M168.36,43.72h2.06A21.61,21.61,0,0,1,176.19,45,23.11,23.11,0,0,1,184,50.08a22.42,22.42,0,0,1,3.65,4.58,21.18,21.18,0,0,1,2.56,6.06A24.23,24.23,0,0,1,189,75.55a32.38,32.38,0,0,1-10.6,13.51,37.32,37.32,0,0,1-17.59,7.06,35.8,35.8,0,0,1-20-3.21,28.7,28.7,0,0,1-8.41-6.13,23.79,23.79,0,0,1-5.22-8.66,21,21,0,0,1-1-9.7,22.17,22.17,0,0,1,3.35-8.73,35.8,35.8,0,0,1,12.7-11.57A43.53,43.53,0,0,1,168.76,43a40.14,40.14,0,0,1,9.1,2.19c.6.23,1.18.4,1.7.64l1.45.67,1.25.57,1,.56,1.34.77c.3.17.44.27.44.27l-.47-.23-1.36-.71c-.29-.17-.63-.34-1-.54L181,46.67,179.5,46c-.52-.23-1.1-.4-1.7-.62a40.82,40.82,0,0,0-9.06-2.09,43.52,43.52,0,0,0-26.38,5.21A35.36,35.36,0,0,0,129.86,60a21.72,21.72,0,0,0-3.27,8.54,20.6,20.6,0,0,0,1,9.47,23.33,23.33,0,0,0,5.12,8.46,28.61,28.61,0,0,0,8.26,6,35.51,35.51,0,0,0,19.76,3.17,36.85,36.85,0,0,0,17.36-7,32,32,0,0,0,10.45-13.28,23.86,23.86,0,0,0,1.33-14.47,22.51,22.51,0,0,0-6-10.52,23.54,23.54,0,0,0-7.71-5.09,22.22,22.22,0,0,0-5.8-1.39l-1.53-.06Z"/></g><g id="Screens"><path fill="#fff" d="M4.9,230.84h97.51c2.62,0,4.74-1.74,4.74-3.89v-45.5c0-2.14-2.12-3.89-4.74-3.89H4.9c-2.62,0-4.74,1.75-4.74,3.89V227C.16,229.1,2.28,230.84,4.9,230.84Z"/><path d="M4.9,230.84a3.66,3.66,0,0,1-.81,0A5.27,5.27,0,0,1,1.86,230a3.74,3.74,0,0,1-1.78-3.3v-5.27c0-7.94,0-19.4-.08-33.56V181a3.47,3.47,0,0,1,.5-1.39,4.56,4.56,0,0,1,2.29-1.86,7.28,7.28,0,0,1,3-.4h96.66a5.51,5.51,0,0,1,3.86,1.44,3.86,3.86,0,0,1,1,1.85,11.13,11.13,0,0,1,.1,2v44a3.76,3.76,0,0,1-.39,1.86,4.77,4.77,0,0,1-2.89,2.27,6.2,6.2,0,0,1-1.82.25h-1.76l-49.77,0H17.17l33.56-.09H100.5a12.42,12.42,0,0,0,3.44-.24,4.2,4.2,0,0,0,2.59-2,3.3,3.3,0,0,0,.34-1.63V182.71a11.41,11.41,0,0,0-.08-1.94,3.44,3.44,0,0,0-.92-1.6,5,5,0,0,0-3.51-1.33H5.73a6.72,6.72,0,0,0-2.81.37,4.32,4.32,0,0,0-2.09,1.63,3,3,0,0,0-.45,1.24,10.59,10.59,0,0,0,0,1.38v5.43c0,14.16-.06,25.62-.08,33.56v5.27A3.64,3.64,0,0,0,2,229.93a5.16,5.16,0,0,0,2.17.84A6,6,0,0,0,4.9,230.84Z"/><path d="M136.36,213.06a5.71,5.71,0,0,1-1-.84l-2.54-2.38-3.7-3.63a7.12,7.12,0,0,0-2.5-1.54,8,8,0,0,0-3.15-.39c-4.51,0-8.59,0-11.54-.08l-3.5-.08a6.09,6.09,0,0,1-1.28-.1,5.49,5.49,0,0,1,1.28-.1l3.5-.09c3,0,7-.07,11.54-.07a8.74,8.74,0,0,1,3.33.43,7.58,7.58,0,0,1,2.66,1.65l3.62,3.71,2.41,2.54A6.7,6.7,0,0,1,136.36,213.06Z"/><path d="M139.28,214.6a1.91,1.91,0,1,1-1.91-1.91A1.92,1.92,0,0,1,139.28,214.6Z"/><rect fill="#e0e0e0" x="56.39" y="191.38" width="37.73" height="4.79" rx="1.44"/><rect fill="#e0e0e0" x="56.39" y="200.84" width="37.73" height="4.79" rx="1.44"/><path d="M67.79,218.38a3.86,3.86,0,1,1-3.1-4.5,3.85,3.85,0,0,1,3.1,4.5Z"/><path fill="#0c233b" d="M79.12,217.48a3.87,3.87,0,1,1-3.87-3.87h0A3.87,3.87,0,0,1,79.12,217.48Z"/><path fill="#1c1e28" d="M90.36,217.48a3.87,3.87,0,1,1-3.87-3.87h0A3.87,3.87,0,0,1,90.36,217.48Z"/><path d="M15.71,215.11a.51.51,0,0,1-.45-.28.51.51,0,0,1,0-.53l1.8-2.37a5.87,5.87,0,0,0,1.18-3.61l-.1-6.11a9,9,0,0,1,7-9v-1.46a1.5,1.5,0,0,1,1.48-1.52H27a1.58,1.58,0,0,1,1.07.43,1.5,1.5,0,0,1,.45,1V193a9,9,0,0,1,7.78,8.8l.11,6.35A5.79,5.79,0,0,0,37.9,212l1.64,1.83a.51.51,0,0,1,0,.71.47.47,0,0,1-.31.12l-23.5.39ZM27,191.27h-.3a.5.5,0,0,0-.5.5h0v1.87a.51.51,0,0,1-.42.5,8,8,0,0,0-6.59,8l.1,6.11a6.81,6.81,0,0,1-1.38,4.23L16.69,214,38,213.7l-.92-1h0a6.85,6.85,0,0,1-1.71-4.42l-.11-6.35A8,8,0,0,0,28,194.06a.51.51,0,0,1-.46-.49v-1.8a.5.5,0,0,0-.5-.5Z"/><g opacity=".2"><path fill="#fff" d="M23.27,189.34"/></g><path d="M27.18,218.75a4.09,4.09,0,0,1-2.51-.76,4.66,4.66,0,0,1-1.59-3.05.49.49,0,0,1,.41-.56h0a.5.5,0,0,1,.57.41,3.66,3.66,0,0,0,1.2,2.4,3.2,3.2,0,0,0,1.92.56,3.52,3.52,0,0,0,2.23-.72,2.68,2.68,0,0,0,1-2.36.51.51,0,0,1,.43-.56.5.5,0,0,1,.56.43,3.67,3.67,0,0,1-1.35,3.3,4.56,4.56,0,0,1-2.86.95Z"/><path d="M25,194.34a.5.5,0,0,1-.48-.35.51.51,0,0,1,.33-.63A8.83,8.83,0,0,1,29,193.2a.49.49,0,0,1,.35.6h0a.5.5,0,0,1-.59.39h0a7.69,7.69,0,0,0-3.66.14Z"/><path d="M414.2,45.68h-3.86l-10.5.09-34.65.07h-5a43.29,43.29,0,0,0-4.83.14,15.48,15.48,0,0,0-12.68,10.35,19.55,19.55,0,0,0-.86,7.09c0,4.4-.06,8-.08,10.5v3.6a.14.14,0,0,1,.1.16.13.13,0,0,1-.16.08.13.13,0,0,1-.09-.15.14.14,0,0,1,.09-.09v-.74c0-.7,0-1.65-.05-2.86,0-2.52-.05-6.1-.08-10.5a19.44,19.44,0,0,1,.81-7.23,16.24,16.24,0,0,1,1.78-3.68,15.93,15.93,0,0,1,11.25-7,40,40,0,0,1,4.89-.15h5l34.65.08,10.5.08H414A.62.62,0,0,1,414.2,45.68Z"/><rect fill="#fff" x="385.7" y="22.71" width="110.53" height="50.31" rx="3.96"/><path d="M492.27,73a4.48,4.48,0,0,0,.81-.1,4.14,4.14,0,0,0,2-1.16,4,4,0,0,0,.87-1.48,6.08,6.08,0,0,0,.18-2.08V62.89c0-8,0-19.51-.08-33.74V26.46a3.74,3.74,0,0,0-3.36-3.54h-103a3.68,3.68,0,0,0-3.7,3.57V69.1a3.81,3.81,0,0,0,.42,1.65,3.7,3.7,0,0,0,2.65,2,12.8,12.8,0,0,0,1.75.06h5.35l50,.06L479.9,73H390.79A10.7,10.7,0,0,1,389,73a4.17,4.17,0,0,1-3-2.2,4.25,4.25,0,0,1-.47-1.88V26.53a4.15,4.15,0,0,1,.61-2,4.21,4.21,0,0,1,3.61-2h103a4.17,4.17,0,0,1,2.59,1.3,4.07,4.07,0,0,1,1.11,2.62v2.71c0,14.23-.06,25.76-.08,33.74v5.29a6.09,6.09,0,0,1-.22,2.12,3.92,3.92,0,0,1-.92,1.51A4,4,0,0,1,493.14,73,3.17,3.17,0,0,1,492.27,73Z"/><path d="M407.2,60.71A11.85,11.85,0,1,1,419,48.81v0A11.86,11.86,0,0,1,407.2,60.71Zm0-22.69A10.85,10.85,0,1,0,418,48.92v0h0A10.86,10.86,0,0,0,407.2,38h0Z"/><path d="M413.68,50.1h-7.07a.5.5,0,0,1-.5-.5V42.2a.5.5,0,1,1,1,0v6.9h6.57a.5.5,0,0,1,0,1Z"/><rect fill="#e0e0e0" x="424.66" y="38.98" width="57.48" height="6.48" rx="1.98"/><rect fill="#e0e0e0" x="425.21" y="50.54" width="25.94" height="6.48" rx="1.98"/><path d="M463.46,53.76a4.17,4.17,0,1,1-4.18-4.16h0a4.17,4.17,0,0,1,4.18,4.16Z"/><path fill="#0c233b" d="M475.16,53.76A4.17,4.17,0,1,1,471,49.6h0a4.17,4.17,0,0,1,4.2,4.14h0Z"/></g><g id="Books"><rect fill="#0c233b" x="161.44" y="411.24" width="154.57" height="21.44"/><rect fill="#f5f5f5" x="161.44" y="413.92" width="152.05" height="16"/><g opacity=".2"><rect x="285.97" y="411.24" width="30.03" height="21.44"/></g><path d="M313.49,417.4"/><path d="M313.49,421.68H291.2l-53.84.16h75.7Z"/><path d="M286.06,432.31c-.05,0-.1-4.67-.1-10.43s0-10.42.1-10.42.1,4.67.1,10.42S286.11,432.31,286.06,432.31Z"/><rect fill="#1c1e28" x="186.99" y="391.4" width="106.89" height="19.84"/><rect fill="#1c1e28" x="274.1" y="391.52" width="29.09" height="19.61"/><rect fill="#f5f5f5" x="276.84" y="394.2" width="26.35" height="14.09"/><g opacity=".2"><rect x="274.1" y="391.52" width="29.09" height="19.61"/></g><path d="M266.28,406.84v-8.29h0l-72.72.07h0l.1-.11v8.33l-.1-.11h-.09v-8.52h.1l72.72.07h0v7.81C266.29,406.5,266.28,406.84,266.28,406.84Z"/><path d="M274.14,411.09s-.1-4.44-.1-9.92,0-9.93.1-9.93.1,4.44.1,9.93S274.19,411.09,274.14,411.09Z"/><rect fill="#0c233b" x="180.41" y="368.25" width="106.89" height="15.52"/><path d="M263.7,380.7v-2.52c0-1.58,0-3.78-.05-6.36l.09.1h-5.06s.18-.21.1-.11h0v8.86l-.08-.09h3.69l-3.71.05h-.08v-8.79h0c-.08.1.12-.14.1-.11h5.15v8.83A.67.67,0,0,1,263.7,380.7Z"/><rect fill="#fff" x="270.81" y="370.68" width="16.49" height="10.5"/><g opacity=".2"><rect x="268.64" y="368.25" width="18.66" height="15.52"/></g><path d="M268.56,383.66c-.05,0-.1-3.42-.1-7.65s0-7.65.1-7.65.1,3.43.1,7.65S268.62,383.66,268.56,383.66Z"/><path d="M287.43,373.15c0,.06-3.75.11-8.37.11s-8.37-.05-8.37-.11,3.75-.12,8.37-.12S287.43,373.09,287.43,373.15Z"/><path d="M287.43,375.91c0,.06-3.75.11-8.37.11s-8.37,0-8.37-.11,3.75-.11,8.37-.11S287.43,375.84,287.43,375.91Z"/><path d="M287.43,378.71c0,.07-3.75.12-8.37.12s-8.37-.05-8.37-.12,3.75-.11,8.37-.11S287.43,378.65,287.43,378.71Z"/><rect fill="#0c233b" x="198.75" y="383.77" width="106.89" height="7.66"/><rect fill="#e0e0e0" x="281.75" y="384.73" width="23.9" height="5.8"/><g opacity=".2"><rect x="280.4" y="383.77" width="25.25" height="7.66"/></g><path d="M280.36,391.42a32.47,32.47,0,0,1-.09-3.69,35,35,0,0,1,.1-3.69,32.47,32.47,0,0,1,.09,3.69A35,35,0,0,1,280.36,391.42Z"/><rect fill="#e0e0e0" x="206.43" y="386.73" width="64.38" height="1.83"/><path d="M277.8,391.36c0,.06-17.72.11-39.56.11s-39.57-.05-39.57-.11,17.71-.12,39.57-.12S277.8,391.29,277.8,391.36Z"/><path d="M280.66,391.39c0,.06-17.71.12-39.56.12s-39.57-.06-39.57-.12,17.71-.11,39.57-.11S280.66,391.33,280.66,391.39Z"/><path d="M305.64,383.7c0,.06-23.3.11-52,.11s-52.06-.05-52.06-.11,23.31-.11,52.06-.11S305.64,383.64,305.64,383.7Z"/></g><g id="Tasks"><path d="M667.89,373.34h.47a5.82,5.82,0,0,0,1.38-.13A6.08,6.08,0,0,0,674,370a5.79,5.79,0,0,0,.57-1.81c.1-.66.15-1.37.23-2.1.14-1.48.3-3.09.47-4.84.34-3.5.74-7.54,1.18-12.09,1.8-18.18,4.39-44.48,7.59-77q2.41-24.38,5.25-53.16,1.43-14.34,2.93-29.62.76-7.63,1.54-15.49c.25-2.61.51-5.25.77-7.9a5.94,5.94,0,0,0-4.09-6.05,8.47,8.47,0,0,0-2-.35l-2-.2-4.06-.4-8.21-.81-16.69-1.65L623,153.12l-72.39-7.18a6.12,6.12,0,0,0-4.27,1.23,6.06,6.06,0,0,0-2.23,3.83c-.33,3.06-.62,6.15-.93,9.21q-.91,9.18-1.81,18.24-1.8,18.12-3.54,35.67c-2.32,23.39-4.56,46-6.69,67.44s-4.17,41.91-6.07,61c-.23,2.39-.47,4.76-.7,7.11-.11,1.17-.25,2.34-.34,3.5a6,6,0,0,0,3.16,5.63,6.35,6.35,0,0,0,1.58.57c.55.1,1.12.15,1.68.21l6.72.66,25.54,2.6,77,7.68,20.93,2.1,5.44.56c1.22.12,1.85.2,1.85.2l-1.86-.17-5.44-.53-20.93-2.05-77-7.58-25.51-2.52-6.72-.67c-.56-.05-1.13-.1-1.71-.2a6.87,6.87,0,0,1-1.64-.6,6.32,6.32,0,0,1-2.49-2.43,6.16,6.16,0,0,1-.79-3.41c.09-1.18.22-2.34.33-3.52.23-2.34.47-4.71.7-7.1,1.89-19.11,3.91-39.53,6-61s4.36-44.05,6.68-67.43q1.74-17.55,3.53-35.68.9-9.06,1.81-18.24c.31-3.07.59-6.13.93-9.22a6.25,6.25,0,0,1,6.82-5.31L623,152.84l34.42,3.42,16.69,1.65,8.2.82,4.07.4,2,.2a8.49,8.49,0,0,1,2,.36A6.17,6.17,0,0,1,694.6,166c-.26,2.65-.51,5.29-.77,7.91q-.78,7.85-1.54,15.49l-2.94,29.61c-1.91,19.11-3.68,36.91-5.29,53.16-3.25,32.5-5.87,58.81-7.68,77-.46,4.54-.86,8.58-1.21,12.07-.18,1.75-.34,3.37-.49,4.84-.08.74-.13,1.45-.23,2.12a6.1,6.1,0,0,1-.59,1.81,6.28,6.28,0,0,1-2.11,2.35,6.2,6.2,0,0,1-2.11.87,6.48,6.48,0,0,1-1.39.12Z"/><path d="M667.89,373.34h.47a5.82,5.82,0,0,0,1.38-.13A6.08,6.08,0,0,0,674,370a5.79,5.79,0,0,0,.57-1.81c.1-.66.15-1.37.23-2.1.14-1.48.3-3.09.47-4.84.34-3.5.74-7.54,1.18-12.09,1.8-18.18,4.39-44.48,7.59-77q2.41-24.38,5.25-53.16,1.43-14.34,2.93-29.62.76-7.63,1.54-15.49c.25-2.61.51-5.25.77-7.9a5.94,5.94,0,0,0-4.09-6.05,8.47,8.47,0,0,0-2-.35l-2-.2-4.06-.4-8.21-.81-16.69-1.65L623,153.12l-72.39-7.18a6.12,6.12,0,0,0-4.27,1.23,6.06,6.06,0,0,0-2.23,3.83c-.33,3.06-.62,6.15-.93,9.21q-.91,9.18-1.81,18.24-1.8,18.12-3.54,35.67c-2.32,23.39-4.56,46-6.69,67.44s-4.17,41.91-6.07,61c-.23,2.39-.47,4.76-.7,7.11-.11,1.17-.25,2.34-.34,3.5a6,6,0,0,0,3.16,5.63,6.35,6.35,0,0,0,1.58.57c.55.1,1.12.15,1.68.21l6.72.66,25.54,2.6,77,7.68,20.93,2.1,5.44.56c1.22.12,1.85.2,1.85.2l-1.86-.17-5.44-.53-20.93-2.05-77-7.58-25.51-2.52-6.72-.67c-.56-.05-1.13-.1-1.71-.2a6.87,6.87,0,0,1-1.64-.6,6.32,6.32,0,0,1-2.49-2.43,6.16,6.16,0,0,1-.79-3.41c.09-1.18.22-2.34.33-3.52.23-2.34.47-4.71.7-7.1,1.89-19.11,3.91-39.53,6-61s4.36-44.05,6.68-67.43q1.74-17.55,3.53-35.68.9-9.06,1.81-18.24c.31-3.07.59-6.13.93-9.22a6.25,6.25,0,0,1,6.82-5.31L623,152.84l34.42,3.42,16.69,1.65,8.2.82,4.07.4,2,.2a8.49,8.49,0,0,1,2,.36A6.17,6.17,0,0,1,694.6,166c-.26,2.65-.51,5.29-.77,7.91q-.78,7.85-1.54,15.49l-2.94,29.61c-1.91,19.11-3.68,36.91-5.29,53.16-3.25,32.5-5.87,58.81-7.68,77-.46,4.54-.86,8.58-1.21,12.07-.18,1.75-.34,3.37-.49,4.84-.08.74-.13,1.45-.23,2.12a6.1,6.1,0,0,1-.59,1.81,6.28,6.28,0,0,1-2.11,2.35,6.2,6.2,0,0,1-2.11.87,6.48,6.48,0,0,1-1.39.12Z"/><path fill="#e0e0e0" d="M689.1,159.52,550.63,145.79a6.12,6.12,0,0,0-6.69,5.49L524,352.92a6.12,6.12,0,0,0,5.48,6.69L668,373.34h0a6.12,6.12,0,0,0,6.68-5.5l20-201.63a6.12,6.12,0,0,0-5.5-6.69ZM667.32,363.07,532,349.65l19.33-195.1L686.66,168Z"/><path d="M667.36,363.09c.11-1.13,7.88-80,19.22-195.12l.11.14L551.36,154.7h0l.15-.13c-7.27,73.27-14,141-19.37,195.1l-.1-.12,135.32,13.54L532,349.77h-.11v-.11c5.36-54.14,12.06-121.83,19.32-195.1v-.14h.19l135.35,13.42h.12V168C675.36,283.13,667.46,362,667.36,363.09Z"/><rect fill="#0c233b" x="616.53" y="150.03" width="6.3" height="68.24" rx="2.9" transform="translate(375.31 782.66) rotate(-84.34)"/><path d="M655.07,150.74l-23.69-2.35,1.89-7.42-17.67-1.75.28,7.64-23.57-2.34h0a3.35,3.35,0,0,0-3.66,3L587,164.32l69.41,6.89,1.66-16.8h0A3.35,3.35,0,0,0,655.07,150.74Z"/><rect fill="#e0e0e0" x="626.08" y="169.42" width="5.33" height="78.32" rx="2.45" transform="matrix(0.1, -1, 1, 0.1, 359.17, 813.7)"/><rect fill="#e0e0e0" x="606.15" y="196.04" width="5.33" height="40.15" rx="2.45" transform="translate(333.71 800.66) rotate(-84.34)"/><rect fill="#e0e0e0" x="625.75" y="202.64" width="5.36" height="78.71" rx="2.46" transform="translate(325.11 843.24) rotate(-84.29)"/><rect fill="#e0e0e0" x="603.05" y="227.23" width="5.33" height="40.15" rx="2.45" transform="translate(299.88 825.69) rotate(-84.34)"/><rect fill="#e0e0e0" x="619.88" y="231.79" width="5.33" height="78.32" rx="2.45" transform="translate(291.52 863.75) rotate(-84.34)"/><rect fill="#e0e0e0" x="599.97" y="258.42" width="5.33" height="40.15" rx="2.45" transform="translate(266.06 850.73) rotate(-84.34)"/><rect fill="#e0e0e0" x="616.81" y="262.99" width="5.33" height="78.32" rx="2.45" transform="translate(257.7 888.81) rotate(-84.34)"/><rect fill="#e0e0e0" x="596.89" y="289.62" width="5.33" height="40.15" rx="2.45" transform="translate(232.24 875.79) rotate(-84.34)"/><rect fill="#e0e0e0" x="612.49" y="290.07" width="5.33" height="78.32" rx="2.45" transform="translate(226.86 908.93) rotate(-84.34)"/><path fill="#1c1e28" d="M654,150.66c0,.08-13.55-1.2-30.26-2.85s-30.25-3.07-30.24-3.15,13.56,1.2,30.27,2.86S654,150.58,654,150.66Z"/><path fill="#1c1e28" d="M588.85,161.26c-.08,0,.14-2.86.49-6.38s.69-6.35.77-6.34-.13,2.86-.48,6.37A61.49,61.49,0,0,1,588.85,161.26Z"/><path fill="#1c1e28" d="M654.62,166.26a56,56,0,0,1,.43-5.79c.32-3.19.64-5.77.72-5.76q-.07,2.91-.43,5.79C655,163.69,654.7,166.27,654.62,166.26Z"/><path fill="#1c1e28" d="M651,168.61c0,.08-13.92-1.24-31.07-2.94s-31-3.14-31-3.22,13.92,1.23,31.07,2.93S651,168.53,651,168.61Z"/><g opacity=".2"><polygon points="657.82 156.88 659.85 165.69 659.44 169.86 656.2 169.54 657.82 156.88"/></g><rect fill="#0c233b" x="560.67" y="197.59" width="17.78" height="17.78" rx="3.6" transform="translate(307.91 752.9) rotate(-84.34)"/><polygon fill="#fff" points="563.41 206.16 565.37 204.56 568.5 207.95 574.82 202.76 576.29 204.71 567.91 211.36 563.41 206.16"/><rect fill="#0c233b" x="556.89" y="228.88" width="17.78" height="17.78" rx="3.6" transform="translate(273.37 777.35) rotate(-84.34)"/><polygon fill="#fff" points="559.64 237.47 561.6 235.86 564.73 239.26 571.04 234.07 572.52 236.01 564.13 242.67 559.64 237.47"/><rect fill="#0c233b" x="553.55" y="259.93" width="17.78" height="17.78" rx="3.6" transform="translate(239.46 802.02) rotate(-84.34)"/><polygon fill="#fff" points="556.29 268.5 558.25 266.9 561.38 270.29 567.69 265.1 569.17 267.05 560.79 273.7 556.29 268.5"/><path d="M564,309h.66a3.63,3.63,0,0,0,1.7-.66,3.51,3.51,0,0,0,1.42-2.42c.11-1.18.23-2.5.36-3.95s.28-3.07.44-4.78l.12-1.31a5.74,5.74,0,0,0,0-1.31,3.34,3.34,0,0,0-1.26-2.25,3.5,3.5,0,0,0-1.22-.61,10.23,10.23,0,0,0-1.46-.19l-3.09-.3-6.51-.64a3.37,3.37,0,0,0-2.78,1.05,3.46,3.46,0,0,0-.75,1.3,8.68,8.68,0,0,0-.22,1.53c-.21,2.1-.42,4.12-.61,6.06q-.15,1.44-.3,2.82a8.36,8.36,0,0,0-.08,1.32,3.26,3.26,0,0,0,.3,1.19,3.44,3.44,0,0,0,1.61,1.65,6.5,6.5,0,0,0,2.18.43l6.91.77,1.88.23a2.87,2.87,0,0,1,.65.12,3.64,3.64,0,0,1-.66,0l-1.89-.14-6.93-.6-1.12-.11a4.13,4.13,0,0,1-1.19-.33,3.7,3.7,0,0,1-1.83-1.83,3.92,3.92,0,0,1-.36-1.34,9.32,9.32,0,0,1,.08-1.4q.13-1.37.27-2.82c.19-1.94.39-4,.58-6.07a8.8,8.8,0,0,1,.24-1.62,4,4,0,0,1,.86-1.5,3.84,3.84,0,0,1,3.21-1.22l6.51.65,3.09.32a9.88,9.88,0,0,1,1.53.21,3.69,3.69,0,0,1,1.4.7,3.92,3.92,0,0,1,1.42,2.58,6.54,6.54,0,0,1-.06,1.4c0,.45-.1.88-.14,1.31-.18,1.71-.35,3.31-.51,4.78s-.3,2.77-.43,3.94a3.65,3.65,0,0,1-3.4,3.16A1.67,1.67,0,0,1,564,309Z"/><path d="M561.11,338.41a2.85,2.85,0,0,0,.65-.05,3.53,3.53,0,0,0,3.13-3.08c.1-1.17.22-2.49.35-3.95s.29-3.06.45-4.78l.12-1.31a7.17,7.17,0,0,0,0-1.31,3.4,3.4,0,0,0-1.27-2.25,3.34,3.34,0,0,0-1.22-.61,11.74,11.74,0,0,0-1.45-.19l-3.1-.3-6.5-.64a3.35,3.35,0,0,0-2.78,1.06,3.11,3.11,0,0,0-.75,1.29,7.84,7.84,0,0,0-.22,1.53c-.22,2.1-.42,4.13-.62,6.06-.1,1-.2,1.91-.29,2.82a9.76,9.76,0,0,0-.09,1.32,3.54,3.54,0,0,0,.3,1.19,3.38,3.38,0,0,0,1.62,1.65,6.22,6.22,0,0,0,2.18.43l6.91.77,1.88.24a4.64,4.64,0,0,1,.65.11,2.43,2.43,0,0,1-.66,0l-1.89-.14-6.93-.6-1.12-.11a3.52,3.52,0,0,1-1.19-.33,3.79,3.79,0,0,1-2.19-3.17,9.25,9.25,0,0,1,.07-1.39c.09-.92.18-1.86.27-2.83.19-1.93.39-4,.59-6.06a7.46,7.46,0,0,1,.24-1.63,3.82,3.82,0,0,1,.86-1.5,3.91,3.91,0,0,1,3.21-1.22l6.5.65,3.1.32a9.88,9.88,0,0,1,1.53.21,4,4,0,0,1,1.39.7,3.87,3.87,0,0,1,1.52,2.53,6.54,6.54,0,0,1-.06,1.4c0,.45-.09.88-.13,1.31-.19,1.72-.36,3.32-.51,4.78s-.31,2.77-.44,4a3.63,3.63,0,0,1-1.59,2.54,3.56,3.56,0,0,1-1.81.61A1.89,1.89,0,0,1,561.11,338.41Z"/></g><g id="Plant"><path fill="#1c1e28" d="M93.73,349.76c6.75-3.48,14.7-3.94,22.19-2.7,4,.67,8.23,1.87,11,4.9s3.26,8.35.11,10.94c-1.87,1.55-4.48,1.79-6.91,1.76-5.87-.07-12.38-1.1-17.07,2.43-2.67,2-4.45,5.36-7.65,6.35s-6.66-.88-8.32-3.7-1.71-6.35-.94-9.53A14.58,14.58,0,0,1,93.73,349.76Z"/><path fill="#1c1e28" d="M78.26,336.73c4.13,5.89,12.15,3.94,15.87.34s5.29-8.81,6.73-13.79c3.27-11.36,6.56-23.28,4.13-34.86a19.45,19.45,0,0,0-4.45-9.48c-2.43-2.56-6.17-4.09-9.59-3.19-4,1.07-6.56,5-8.38,8.8a83.13,83.13,0,0,0-8.21,35.67c0,5.74.66,11.77,3.9,16.51"/><path fill="#1c1e28" d="M68.54,356c4-4.79,4.79-11.76,3-17.75S65.7,327.11,61,323a56.64,56.64,0,0,0-18.8-11.11,20.05,20.05,0,0,0-8.46-1.43,8.9,8.9,0,0,0-7.11,4.29c-2,3.78-.08,8.36,2,12.1A142.56,142.56,0,0,0,41,345.63c3.71,4.78,8,9.49,13.6,11.65s11.51,1.91,14.51-2"/><path d="M106.08,354.67a21,21,0,0,0-7.18,1.87,23.89,23.89,0,0,0-8.62,6.85,45.89,45.89,0,0,0-6.7,11.69A77.73,77.73,0,0,0,79.71,388c-.18.92,6.13-59.44,8.59-71.38.52-2.71,1.06-5.15,1.56-7.28s.88-4,1.27-5.47.62-2.55.83-3.46a5.12,5.12,0,0,0,.22-1.23,5.29,5.29,0,0,0-.43,1.17l-1,3.41c-.46,1.47-.93,3.3-1.47,5.43s-1.14,4.56-1.72,7.26c-3,14.08-8.72,62.45-9.15,70.92-.11-.92-2.16-11.79-3.41-16.12a108.89,108.89,0,0,0-5.51-15.59,83.45,83.45,0,0,0-16.14-25.2,41.23,41.23,0,0,0-3.86-3.62c-.58-.49-1.1-1-1.63-1.38l-1.47-1a22.33,22.33,0,0,0-2.81-1.8c-.16.21,4,2.65,9.21,8.22A87.85,87.85,0,0,1,68.59,356a122.5,122.5,0,0,1,5.54,15.45,132.46,132.46,0,0,1,3.13,13.05c.44,2.39,2.73,7.16,3.47,3.62a82.33,82.33,0,0,1,3.9-12.66A46.53,46.53,0,0,1,91.07,364a24.4,24.4,0,0,1,8.17-6.8,22.81,22.81,0,0,1,6.89-2.14,12.56,12.56,0,0,0,2.66-.39A13.63,13.63,0,0,0,106.08,354.67Z"/><polygon fill="#0c233b" points="110.89 385.43 45.97 385.43 45.97 400.41 52.22 400.41 55.42 432.68 101.39 432.68 103.75 400.41 110.89 400.41 110.89 385.43"/><path d="M105.74,400.14c0,.17-12.23.31-27.32.31s-27.33-.14-27.33-.31,12.27-.3,27.33-.3S105.74,400,105.74,400.14Z"/></g><g id="Character"><path d="M572,290.84c3.93.21,6.88-4.35,6.11-8.21s-4.15-6.72-7.79-8.23-7.6-2-11.41-2.94a43.14,43.14,0,0,1-26.89-21c-2-3.92-17.77-67.05-19.58-79.61-4.68-32.45-13-68.07-59.32-64.75,0,0-30.82,5.8-42.65,27.91-10.4,19.44-4.4,78.05-5.77,120.28,0,0,159.2,72,165.17,68.68s10.91-9.17,11.81-16S578.53,292.71,572,290.84Z"/><path fill="#ffbf9d" d="M502.44,183.18c-.64-11.36-8.17-12.25-13.14-11.54l-42.41-53.4c-18.46,0-34.39,13.85-35.41,36.82-.73,16.59-1.21,33.45,1.37,45.71,5.19,24.64,24.37,26.94,24.38,26.85s.19,28.63.75,37.63c0,0,51.14-19.62,51.14-26.55l.11-41.18C494.15,197.54,503.17,195.57,502.44,183.18Z"/><path d="M448.45,171.84a3.2,3.2,0,0,0,3.24,3.06,3.06,3.06,0,0,0,3.14-3v0h0a3.2,3.2,0,0,0-3.23-3.06,3.06,3.06,0,0,0-3.15,3Z"/><path d="M417.85,171.84a3.2,3.2,0,0,0,3.23,3.06,3,3,0,0,0,3.14-2.85h0v-.14a3.19,3.19,0,0,0-3.22-3.06,3.05,3.05,0,0,0-3.15,3h0Z"/><path d="M414.78,161.62c.41.4,2.74-1.51,6.16-1.67s6,1.42,6.38,1c.18-.19-.27-.92-1.4-1.66a8.84,8.84,0,0,0-5.13-1.31,8.48,8.48,0,0,0-4.89,1.85C414.89,160.67,414.57,161.44,414.78,161.62Z"/><path d="M449.56,162c.46.36,2.58-1.78,6-2.29s6.14.79,6.44.32c.16-.21-.35-.89-1.56-1.51a8.78,8.78,0,0,0-5.24-.77,8.51,8.51,0,0,0-4.67,2.34C449.59,161,449.36,161.84,449.56,162Z"/><path d="M437.59,186.93c0-.2-2.14-.46-5.62-.73-.88,0-1.72-.17-1.89-.76a4.52,4.52,0,0,1,.45-2.63q1.08-3.24,2.25-6.79c3.12-9.67,5.33-17.61,4.94-17.73s-3.23,7.62-6.35,17.29c-.75,2.38-1.46,4.65-2.14,6.83a5,5,0,0,0-.29,3.45,2.22,2.22,0,0,0,1.51,1.21,5.34,5.34,0,0,0,1.49.13C435.43,187.22,437.58,187.12,437.59,186.93Z"/><path fill="#ff9a6c" d="M437.25,227.61a63.35,63.35,0,0,0,32.83-10.54s-7.51,17.62-32.48,16.54Z"/><path fill="#ff9a6c" d="M439.45,195.12a6.16,6.16,0,0,1,5.42-2.57,5.59,5.59,0,0,1,4,1.89,3.57,3.57,0,0,1,.48,4.07c-.86,1.35-2.78,1.75-4.44,1.36a12.9,12.9,0,0,1-4.51-2.39,4,4,0,0,1-1-1,1.13,1.13,0,0,1-.06-1.27"/><path d="M447.8,188.84c-.56,0-.38,3.71-3.44,6.51s-7,2.59-7,3.11c0,.24.92.68,2.59.64a9.26,9.26,0,0,0,5.89-2.38,8.13,8.13,0,0,0,2.64-5.46C448.51,189.66,448.05,188.76,447.8,188.84Z"/><path d="M446.28,148.61c.48.87,3.8-.08,7.85-.21s7.44.46,7.84-.45c.18-.43-.51-1.22-2-1.91a13.65,13.65,0,0,0-12,.5C446.7,147.36,446.07,148.2,446.28,148.61Z"/><path d="M415.27,146.89c.64.75,3-.18,5.8-.36s5.27.26,5.78-.58c.23-.41-.19-1.17-1.28-1.85a8.41,8.41,0,0,0-9.33.76C415.27,145.71,415,146.52,415.27,146.89Z"/><path d="M488.77,180.16s-17.56,5.47-27.49-37.87c-3.4-14.81-17.14-26.81-17.14-26.81l5.57-1.68S484.34,123.55,485,124s8.74,17.91,8.74,17.91Z"/><path fill="#ff9a6c" d="M491,190.4c.07-.06.31.19.82.39a3,3,0,0,0,2.2-.08c1.76-.76,3.1-3.69,3-6.74a9.5,9.5,0,0,0-1.07-4.18,3.38,3.38,0,0,0-2.34-2.14,1.52,1.52,0,0,0-1.7.91c-.2.49-.07.82-.16.85s-.38-.26-.28-1a1.91,1.91,0,0,1,.6-1.1,2.3,2.3,0,0,1,1.61-.52,4.16,4.16,0,0,1,3.23,2.45,10,10,0,0,1,1.29,4.66c.09,3.42-1.48,6.71-3.89,7.56a3.22,3.22,0,0,1-2.72-.3C491,190.84,490.9,190.43,491,190.4Z"/><path fill="#1c1e28" d="M503.08,242.53a41.7,41.7,0,0,1-.38-5.91,93.3,93.3,0,0,1,1.66-16.08c.61-3.36,1.27-7,2-11a106.21,106.21,0,0,0,1.48-12.7,52.22,52.22,0,0,0-1-14,34.6,34.6,0,0,0-2.38-7,34,34,0,0,0-4-6.51A78.33,78.33,0,0,0,489.8,158.6c-3.71-3.22-7.26-6.37-10.42-9.6a132.58,132.58,0,0,1-15.23-18.53,127.08,127.08,0,0,1-8.25-13.9c-.86-1.7-1.51-3-1.92-4l-.47-1-.15-.36a1.63,1.63,0,0,1,.19.34l.52,1c.44.91,1.1,2.23,2,3.91a137.89,137.89,0,0,0,8.29,13.81,133.69,133.69,0,0,0,15.26,18.4c3.16,3.22,6.7,6.35,10.42,9.56A78,78,0,0,1,500.77,169a34.36,34.36,0,0,1,4.06,6.59,35.64,35.64,0,0,1,2.41,7.13,52,52,0,0,1,1,14.13,105,105,0,0,1-1.57,12.74l-2,11a94.54,94.54,0,0,0-1.78,16c0,1.9,0,3.38.1,4.38,0,.49.06.87.08,1.14A3,3,0,0,1,503.08,242.53Z"/><path fill="#1c1e28" d="M508.53,244.13a41.84,41.84,0,0,1-.38-5.92,93.28,93.28,0,0,1,1.64-16.08c.61-3.36,1.27-7,2-11a106,106,0,0,0,1.52-12.68,52.22,52.22,0,0,0-1-14,34.6,34.6,0,0,0-2.38-7,33.41,33.41,0,0,0-4-6.5,78.4,78.4,0,0,0-10.66-10.74c-3.71-3.22-7.27-6.37-10.42-9.6a131.8,131.8,0,0,1-15.23-18.52,131.13,131.13,0,0,1-8.26-14c-.87-1.7-1.51-3-1.92-4-.2-.44-.36-.78-.47-1a2.75,2.75,0,0,1-.15-.36,2.27,2.27,0,0,1,.19.34l.52,1c.43.91,1.1,2.23,2,3.92a139.12,139.12,0,0,0,8.36,13.8,133.69,133.69,0,0,0,15.26,18.4c3.16,3.22,6.7,6.35,10.42,9.56a78.23,78.23,0,0,1,10.73,10.8,33.65,33.65,0,0,1,4.06,6.6,35.76,35.76,0,0,1,2.41,7.12,52,52,0,0,1,1,14.14,104.85,104.85,0,0,1-1.56,12.73l-2,11a95.58,95.58,0,0,0-1.79,16c0,1.9,0,3.39.11,4.39,0,.48.06.86.08,1.14A.67.67,0,0,1,508.53,244.13Z"/><path fill="#ffbf9d" d="M253.74,262.84c-4.47-4.56-9.66-9.47-9.66-9.47l-4.38-4.6a7.08,7.08,0,0,0-.47,1.18,4.82,4.82,0,0,1-1.09,2.13c-1.12,1-3,.7-4.3,0a9.31,9.31,0,0,1-4.71-7.87,9.17,9.17,0,0,1,4.27-7.69,6.75,6.75,0,0,1,1.18-2.33c3.66-4.71,12.3-4.1,12.3-4.1l-1.3-1.83s-5.92-3.63-15.68,2.56a7,7,0,0,1-4.9,1.08,3.58,3.58,0,0,1-2.65-1.58c-1.45-2.41-.11-4,5.92-8s13.18-5.76,17.74-4.1a48.52,48.52,0,0,1,6.23,2.61s-10.86-17.18-11.47-18.29c-1.85-3.22-2-6.73.06-8.17,1.31-.92,3.63-1.11,5.91,2.57,2,3.18,26.32,33.27,26.32,33.27l10,13.94,6.3,12.85-21.55,11.86-1.8-.17A19.83,19.83,0,0,1,253.74,262.84Z"/><path fill="#0c233b" d="M556.16,295c-5.8-25.36-22.64-33.16-22.64-33.16l-37-17.64.94-.62-8.1-13.74-35,25.86-17.12-20.77-8,10.54L404,253.16h-.08c-8.51,1.28-30.89,21.5-30.89,21.5S333.88,300.1,329.4,300.1L290.6,254l-4-3.61-24.5,20s4.21,9.4,10,20.26c6.9,12.9,34.16,59.2,49,60.3,10.39.78,42.78-13.12,62.38-22.06.3,9.2,18.89,49.14,15.74,69.59-.72,4.67-4.1,34.25-4.1,34.25H531.74l-3.61-10.89c10.3,2.52,19.48,4.07,24.89,3.42C571.6,423,575.35,402,575.43,393.38,575.56,378.63,559.21,308.42,556.16,295Zm-36.74,78.77,2.26-17.92,4.1,18.83Z"/><path fill="#ffbf9d" d="M279.46,244.69c-1.51,1.6-4.18,1.41-6.15.41s-3.55-2.64-5.44-3.78c-5.66-3.41-13.35-2-18.84-5.67-.76-.51-1.55-1.38-1.21-2.23s1.34-.94,2.2-1l21.84-.94"/><path fill="#ff9a6c" d="M271.86,231.5a9,9,0,0,0-2.37-.14c-1.53,0-3.73,0-6.46.08l-9.56.28-2.76.1c-.87.1-2.06-.16-3.15.87a1.83,1.83,0,0,0-.21,2,3.65,3.65,0,0,0,1.2,1.33,14.39,14.39,0,0,0,2.86,1.49c4.06,1.54,8.11,1.61,11.53,2.45a16.21,16.21,0,0,1,4.62,1.73c1.33.77,2.47,1.74,3.61,2.53,2.23,1.7,4.75,2.19,6.29,1.74a3.24,3.24,0,0,0,2-1.32,6.72,6.72,0,0,1-2.1.85,7.5,7.5,0,0,1-5.67-2,38,38,0,0,0-3.6-2.7,16.91,16.91,0,0,0-4.88-1.95c-3.55-.94-7.6-1.06-11.35-2.5a13.24,13.24,0,0,1-2.59-1.34c-.75-.52-1.15-1.26-.78-1.58a4.5,4.5,0,0,1,2.28-.49l2.76-.14,9.55-.54c2.71-.17,4.91-.34,6.43-.48A8.49,8.49,0,0,0,271.86,231.5Z"/><path fill="#ff9a6c" d="M247.17,230a9.13,9.13,0,0,0-3.19-2.63,7.05,7.05,0,0,0-4.35-.34,17.8,17.8,0,0,0-5.09,2.18,27.92,27.92,0,0,1-5.14,2.54,9.15,9.15,0,0,1-4.75.41,3.6,3.6,0,0,1-2.55-1.95,2,2,0,0,1-.26-1.15c.07,0,.17.39.54,1a3.46,3.46,0,0,0,2.39,1.55,9.38,9.38,0,0,0,4.39-.55,31.37,31.37,0,0,0,5-2.55,17.23,17.23,0,0,1,5.34-2.2,7.31,7.31,0,0,1,4.74.55,6.53,6.53,0,0,1,2.44,2.08A2.45,2.45,0,0,1,247.17,230Z"/><path fill="#ff9a6c" d="M240.06,201.29a24.07,24.07,0,0,1,2.17,3.39c1.43,2.37,3.14,5.18,5,8.3l5.15,8.22a21.24,21.24,0,0,1,2.05,3.47,18.7,18.7,0,0,1-2.52-3.16c-1.46-2-3.37-4.88-5.37-8.12s-3.68-6.23-4.84-8.43A17.23,17.23,0,0,1,240.06,201.29Z"/><path fill="#ff9a6c" d="M245.68,236.25a4.38,4.38,0,0,1-1.24.23A3.76,3.76,0,0,0,241.7,238a2,2,0,0,0,0,2,10.41,10.41,0,0,0,1.54,2.13,4.56,4.56,0,0,1,1.27,3,3.81,3.81,0,0,1-1.79,3,4.44,4.44,0,0,1-3.43.49,5.56,5.56,0,0,1-2.76-1.62,18.14,18.14,0,0,1-2.67-4.45,10.43,10.43,0,0,1-.88-3.37,2.41,2.41,0,0,1,.18-1.27,10.22,10.22,0,0,1,.13,1.24,12.65,12.65,0,0,0,1.09,3.17,18.8,18.8,0,0,0,2.7,4.18,4.48,4.48,0,0,0,5.2,1,3,3,0,0,0,1.44-2.33,3.86,3.86,0,0,0-1.06-2.45,10.76,10.76,0,0,1-1.57-2.32,2.58,2.58,0,0,1,.13-2.55,4,4,0,0,1,3.19-1.49A3.39,3.39,0,0,1,245.68,236.25Z"/><path fill="#ff9a6c" d="M239.25,247.77a1.82,1.82,0,0,1,.51,1,3.42,3.42,0,0,1-.91,3,4.66,4.66,0,0,1-4.5,1.14,7.74,7.74,0,0,1-4.51-3.5,9.25,9.25,0,0,1-1.37-5.5,8.7,8.7,0,0,1,1.55-4.34,8.29,8.29,0,0,1,2.2-2.18,2.67,2.67,0,0,1,1-.49,14,14,0,0,0-2.74,3,8.56,8.56,0,0,0-1.29,4.08,8.82,8.82,0,0,0,1.32,5,7.13,7.13,0,0,0,4,3.21,4.17,4.17,0,0,0,3.92-.83,3.25,3.25,0,0,0,1-2.55C239.36,248.16,239.19,247.84,239.25,247.77Z"/><path fill="#ff9a6c" d="M258.29,252a3.68,3.68,0,0,1,1.67-1,7.6,7.6,0,0,1,4.94,0l-.47.52a19.26,19.26,0,0,1-1.05-2.53c-1.75-5-1.09-9.42-.9-9.36a40.84,40.84,0,0,0,1.66,9.11,24.68,24.68,0,0,0,1,2.45l.38.84-.85-.31a8,8,0,0,0-4.55-.24A8.9,8.9,0,0,1,258.29,252Z"/><path fill="#ff9a6c" d="M239.77,222.92c.22,0,.32,1.62-.8,3.19s-2.68,2.06-2.74,1.85,1.13-.92,2.08-2.31S239.54,222.9,239.77,222.92Z"/><path d="M394.06,279.17a2.48,2.48,0,0,1,.12.66c.07.48.16,1.11.27,1.9.21,1.71.51,4.1.88,7v.06A217.36,217.36,0,0,0,389,313.54c-.9,4.79-1.53,9.38-1.9,13.58a96.8,96.8,0,0,0-.35,11.17,72.4,72.4,0,0,0,.59,7.5c.12.85.22,1.52.3,2a3.35,3.35,0,0,1,.07.71,2.68,2.68,0,0,1-.17-.69c-.1-.52-.24-1.19-.4-2a65.61,65.61,0,0,1-.8-7.53,91.49,91.49,0,0,1,.24-11.23c.35-4.22,1-8.83,1.86-13.63A193.52,193.52,0,0,1,395,288.7v.14c-.3-3-.54-5.35-.72-7.07-.07-.79-.12-1.43-.17-1.91A2.68,2.68,0,0,1,394.06,279.17Z"/><path d="M446.11,431.76a2.7,2.7,0,0,1-.07-.41,7.4,7.4,0,0,0-.16-1.23c-.13-1.11-.32-2.7-.56-4.73q-.18-1.54-.39-3.42t-.33-4.08c-.12-1.47-.25-3-.38-4.69s-.19-3.43-.3-5.27-.19-3.78-.29-5.8-.11-4.12-.16-6.29c-.16-4.35-.08-9-.11-13.89.11-9.78.49-20.53,1.16-31.79,1.39-22.54,3.48-42.87,5-57.58.76-7.34,1.38-13.28,1.82-17.42l.51-4.74c.06-.52.11-.92.15-1.23a1.85,1.85,0,0,1,.07-.41,2.94,2.94,0,0,1,0,.42,8.48,8.48,0,0,1-.09,1.23c-.1,1.12-.24,2.71-.42,4.75-.39,4.14-1,10.09-1.65,17.43-1.4,14.72-3.43,35.06-4.82,57.58-.67,11.26-1.06,22-1.2,31.77,0,4.88-.08,9.53.06,13.87,0,2.17.09,4.27.13,6.29s.17,3.94.26,5.79.13,3.6.26,5.26.23,3.23.34,4.69.2,2.83.29,4.09.24,2.39.34,3.42c.2,2,.36,3.63.47,4.74l.1,1.23A3,3,0,0,1,446.11,431.76Z"/><path d="M453.79,256.76a13.22,13.22,0,0,1-.89,1.09c-.58.7-1.35,1.78-2.27,3.16-1.83,2.77-4.2,6.8-6.72,11.52l-.21.39-.23-.37c-1-1.57-2-3.28-2.93-5-3.24-6-5.91-11.48-8-15.39-1-2-1.89-3.53-2.49-4.61l-.7-1.25a1.85,1.85,0,0,1-.21-.45,1.68,1.68,0,0,1,.3.4l.78,1.19c.66,1.06,1.58,2.6,2.65,4.55,2.17,3.87,4.88,9.37,8.11,15.31,1,1.77,2,3.46,2.91,5h-.44a122.22,122.22,0,0,1,6.91-11.46,31.24,31.24,0,0,1,2.41-3.09,10.46,10.46,0,0,1,.74-.75A1.61,1.61,0,0,1,453.79,256.76Z"/><path d="M497.5,243.62a2.62,2.62,0,0,1-.45.49l-1.35,1.34c-1.2,1.14-3,2.78-5.15,4.76-4.4,4-10.56,9.33-17.53,15.07-2.1,1.73-4.16,3.39-6.14,4.94s-3.87,3-5.75,4.24l-.23.15-.11-.26a48.39,48.39,0,0,1-1.94-7c-.47-2.1-.93-3.91-1.42-5.38a19.94,19.94,0,0,0-1.38-3.31,12.33,12.33,0,0,1-.63-1.12,1.71,1.71,0,0,1,.21.26,6.12,6.12,0,0,1,.54.79,17.22,17.22,0,0,1,1.52,3.29,50.82,50.82,0,0,1,1.53,5.39,49.69,49.69,0,0,0,2,6.88l-.34-.1c1.83-1.22,3.72-2.69,5.69-4.25s4-3.22,6.12-4.94c7-5.74,13.16-11.06,17.62-15l5.25-4.63L497,244A3.66,3.66,0,0,1,497.5,243.62Z"/><path d="M531.86,264a9.16,9.16,0,0,1-1.32,1,16.9,16.9,0,0,0-1.54,1.13c-.54.47-1.27,1-2,1.6a25,25,0,0,0-2.23,2.1c-.76.8-1.55,1.66-2.36,2.59a41.1,41.1,0,0,0-7.66,14c-.34,1.19-.69,2.31-.9,3.4s-.42,2.08-.55,3-.21,1.77-.29,2.51-.11,1.39-.12,1.91a9.85,9.85,0,0,1-.1,1.63,9.85,9.85,0,0,1-.1-1.63,15.37,15.37,0,0,1,0-1.92,21.57,21.57,0,0,1,.21-2.54,27.6,27.6,0,0,1,.5-3c.19-1.1.53-2.24.86-3.45a39.87,39.87,0,0,1,7.75-14.2c.83-.93,1.61-1.83,2.42-2.59s1.57-1.46,2.3-2.07,1.42-1.1,2-1.55a17.14,17.14,0,0,1,1.6-1.07A10.43,10.43,0,0,1,531.86,264Z"/><path fill="#e0e0e0" d="M400.53,301.46A9.47,9.47,0,0,0,392,296.2H333a2.86,2.86,0,0,0-2.89,2.83v0h0c0,.48,40.34,75.28,40.34,75.28a6.45,6.45,0,0,0,5.66,3.36h61.17Z"/><path d="M419.49,348a1.35,1.35,0,0,1-.15-.26L419,347c-.38-.73-.9-1.75-1.56-3-1.36-2.69-3.28-6.53-5.66-11.26s-5.2-10.44-8.33-16.73l-4.9-9.89c-.43-.85-.85-1.74-1.29-2.57a8.4,8.4,0,0,0-7.1-4.29l-41.57-.08L336,299h0l12.6-.08,41.58-.07a8.86,8.86,0,0,1,7.54,4.56c.46.88.86,1.74,1.29,2.6,1.7,3.43,3.33,6.74,4.88,9.9,3.09,6.31,5.88,12,8.23,16.77l5.51,11.21c.63,1.31,1.12,2.35,1.47,3.09.16.33.28.6.37.81A.75.75,0,0,1,419.49,348Z"/><path fill="#fff" d="M367.61,312.25a2.89,2.89,0,0,0,1.18,3.75,2.44,2.44,0,0,0,3.84-2.83c-.38-.95-2.1-2.47-3.34-2.13A3,3,0,0,0,367.61,312.25Z"/><path fill="#ffbf9d" d="M447.48,351.7c-2.41-2.69-17.12-12.1-17.12-12.1s-7.06-9.49-8.15-9.49-4.52.61-3.6,5a67.36,67.36,0,0,0,3.9,12.73l-33.31-1.1c-2,0-4.82.54-5.6,2.44-1,2.34,1.34,3.93,2.81,4.66,2,1,8,2.64,12.14,3.73-.06.11-2.76,5.26,1,7.91s4,3.16,4,3.16.18,5.33,1.81,7.49,18.87,14.39,36.26,14.15c5.73-.08,11.56,2.94,12.2,3.11s6.2-26.28,6.2-26.28S449.89,354.39,447.48,351.7Z"/><path fill="#ff9a6c" d="M419.49,348c0,.31,4,.47,8.8,1s8.84.77,8.86.43-3.86-1-8.75-1.52S419.48,347.71,419.49,348Z"/><path fill="#ff9a6c" d="M423.67,361.78c.1-.33-5.61-1.88-12.78-2.69-3.58-.45-6.82-.77-9.16-1s-3.79-.44-3.82-.29,1.37.61,3.7,1.06,5.57.9,9.14,1.35C417.9,361,423.6,362,423.67,361.78Z"/><path fill="#ff9a6c" d="M423.67,371.94c0-.32-4.56-.46-10.07-1.41s-9.86-2.3-10-2,4.15,2.13,9.78,3.08S423.69,372.22,423.67,371.94Z"/><path fill="#ff9a6c" d="M421.78,383.32c.3,0,.76-1.17,1-2.72s.22-2.86-.08-2.91-.76,1.17-1,2.73S421.48,383.27,421.78,383.32Z"/><path fill="#ff9a6c" d="M424.59,369.69c.31,0,.47-1,1-2.09s1.21-1.83,1-2.09-1.37.23-2,1.61S424.29,369.75,424.59,369.69Z"/><path fill="#ff9a6c" d="M428.16,356.05c.31,0,.63-.62,1-1.35s.7-1.39.49-1.62-1,.19-1.48,1.13S427.86,356,428.16,356.05Z"/><path d="M525.78,420.89l-.36-.06-1-.24c-.92-.21-2.3-.51-4.06-1-3.53-.93-8.63-2.49-15-4.56-12.8-4.14-30.74-10.42-51.6-18.11l-.2-.07v-.21c2.1-10,4.4-21,6.79-32.37V364l.27.07,5.94,1.49,3.5.88h0L525.7,374l-.25.27C522,358,519.05,344.39,517,334.88l-2.32-11-.6-2.91c-.13-.65-.18-1-.18-1s.1.34.25,1,.38,1.64.66,2.89l2.45,11,8.62,39.35.07.31h-.32L470,367h0l-3.49-.88-5.95-1.5.32-.2c-2.4,11.4-4.71,22.34-6.82,32.37l-.15-.28c20.84,7.72,38.76,14.06,51.52,18.28,6.38,2.11,11.47,3.71,15,4.69,1.75.53,3.11.86,4,1.09l1,.28Z"/><path d="M540.86,385.3c-.08,0-.61-.91-1.68-2.3a24.25,24.25,0,0,0-4.86-4.74,23.92,23.92,0,0,0-6-3.16c-1.65-.59-2.73-.8-2.71-.89s.28,0,.77.06a13.55,13.55,0,0,1,2,.48,20.64,20.64,0,0,1,6.21,3.09,21.06,21.06,0,0,1,4.85,4.94,15.72,15.72,0,0,1,1.08,1.81C540.79,385,540.89,385.28,540.86,385.3Z"/></g></svg>