<svg xmlns="http://www.w3.org/2000/svg" viewBox="0 0 345.1 383.97"><path fill="#694b4b" d="M99.74,26.25c2.57-1.83,2.58-3.26-.44-4.76a55.52,55.52,0,0,1-6.19-4.24c6.31-3.52,12.64-5.55,19-7.45C127.33,5.24,142.94,2.68,158.7.9c.9-.1,2.07.4,2.62-.85h25.52c4.39,1.67,9.13,1.6,13.65,2.71C215.08,6.34,228.1,12.51,238,24.25a9.52,9.52,0,0,0,2.1,1.46,4,4,0,0,0,.72,2.45c8.83,13,5.36,36.24-9.09,45.3-1.12.71-2.78,1.36-2.89,3.18-2.18-.46-3.65,1-5.32,2-1.06.36-2.12.68-3.16,1.07a96,96,0,0,1-26.77,5.77c-.26-1.62-1.52-1.38-2.61-1.37A50.71,50.71,0,0,1,177.4,82c-12.45-3.38-24.8-7.2-37.32-10.31-15.23-3.79-30.05-2.34-44.16,4.94-7.88,4.07-7.91,3.94-8.1-5A78.17,78.17,0,0,1,99.44,28.73C99.9,27.87,101.14,27.25,99.74,26.25Z"/><path fill="#eef1f9" d="M6.08,303c4.64-6.76,11.65-9.32,19.22-11.05,16.58-3.79,33.13-7.7,49.7-11.54,6.52-1.5,13.07-2.93,19.6-4.4,2.31,2.81,3.51,6.22,5,9.44,7.45,16.17,14.7,32.43,22.16,48.59,2.36,5.1,7.42,6.45,12.19,3.41,2.4-1.52,4.46-3.57,6.8-5.19,5-3.44,9.15-8.09,15.19-9.85-.32,3.57,1.79,6,4,8.34L156.1,384h-96c0-6.35.2-12.72-.06-19.06a33.38,33.38,0,0,0-4.92-16.54c-3.15-5.07-7.67-8.71-12-12.6-9-8-17.61-16.43-26.77-24.24C12.93,308.69,10.33,304.83,6.08,303Z"/><path fill="#eef1f9" d="M250.58,276c7.86,1.24,15.5,3.44,23.23,5.26,16.67,3.91,33.33,7.93,50,11.78A25.47,25.47,0,0,1,339.08,303a14.34,14.34,0,0,0-2.56,1.51c-5.9,5.32-11.72,10.73-17.63,16-6.27,5.64-12.64,11.17-18.93,16.78-6.68,6-12.45,12.5-14.12,21.74-1.49,8.29-.44,16.64-.77,25h-19.5v-2.24c0-8.91-2.35-11.26-11.28-11.26-11.7,0-23.41.25-35.1-.07S205,372.37,205.57,384h-16.5l-3.85-53.26c2.2-2.36,4.32-4.76,4-8.33a5.59,5.59,0,0,1,3.19.83c5.4,4.19,11.2,7.85,16.28,12.47,5.76,5.25,12.48,3.89,15.45-2.92,7-16,14.27-31.84,21.58-47.68C247.18,282,248.21,278.64,250.58,276Z"/><path fill="#e3e9f5" d="M6.08,303c4.25,1.84,6.85,5.7,10.23,8.57,9.16,7.81,17.79,16.23,26.77,24.24,4.36,3.89,8.88,7.53,12,12.6A33.38,33.38,0,0,1,60,364.94c.26,6.34.06,12.71.06,19.06H9.84c-8.22-3.8-10-10.67-9.83-19,.31-15,0-29.9.14-44.85C.21,313.84,1.64,307.85,6.08,303Z"/><path fill="#e3e9f5" d="M285.09,384c.33-8.31-.72-16.66.77-25,1.67-9.24,7.44-15.78,14.12-21.74,6.29-5.61,12.66-11.14,18.93-16.78,5.91-5.3,11.73-10.71,17.63-16A14.34,14.34,0,0,1,339.1,303c4.36,4.74,5.86,10.62,5.92,16.76.18,16.58,0,33.16.07,49.73,0,7.08-3.81,11.49-9.75,14.52Z"/><path fill="#5c5e6e" d="M185.24,330.74,189.09,384h-33l3.84-53.26Z"/><path fill="#e3e9f5" d="M205.59,384c-.62-11.65,1.8-13.89,13.62-13.57s23.4.07,35.1.07c8.93,0,11.28,2.35,11.28,11.26V384Z"/><path fill="#efbf86" d="M223.5,78.54c1.67-.94,3.14-2.41,5.32-2,9.37,7,14.39,16.86,17.83,27.73,3.28,10.39,4.56,21.1,5.37,31.89.18,2.41.81,3.74,3.6,3.24a16.51,16.51,0,0,1,9.81,1.42c5.91,4.46,7.39,10.24,5.5,17.26-2.36,8.78-4.45,17.63-6.68,26.45-1.34,5.27-3.49,7.25-8.81,7.32-2.9,0-2.54,1.79-2.49,3.47.26,9.26-1.9,17.81-7.31,25.42a45.75,45.75,0,0,1-9.44,9.56A17.74,17.74,0,0,0,232,234c-1.23-.24-1.64.9-2.41,1.45l-.77.81h0a129.17,129.17,0,0,0-15,11c-9.25,7.54-19.44,11.74-31.56,10.85-4.46-.33-9-.06-13.45-.05a58,58,0,0,1-18.94-14.67c-11.32-13.71-17.13-29.21-17.08-47q.1-37.26,0-74.53c-.05-13.18,8.49-22.74,22.62-22.77A155.57,155.57,0,0,0,186.84,96c11-2.29,21.73-5.39,31.12-11.86C220.1,82.65,223,81.69,223.5,78.54Z"/><path fill="#e3e9f5" d="M250.58,276c-2.37,2.64-3.4,6-4.84,9.11-7.31,15.84-14.6,31.7-21.58,47.68-3,6.81-9.69,8.17-15.45,2.92-5.08-4.62-10.88-8.28-16.28-12.47a5.59,5.59,0,0,0-3.19-.83c0-1.68-1.45-2.19-2.57-2.89-4.54-2.78-9.1-5.52-13.65-8.28,3.24-3.82,7.21-6.88,10.9-10.22,11.77-10.61,23.67-21.07,35.32-31.8,4.47-4.12,9.61-7.59,13.18-12.66.93-.33,1.87-.65,2.8-1,3.21-1.14,5.88-.42,7.84,2.41,1.77,2.55,3.3,5.29,5.22,7.74C250.72,268.84,252.61,271.94,250.58,276Z"/><path fill="#785651" d="M265.43,140.87a16.51,16.51,0,0,0-9.81-1.42c-2.79.5-3.42-.83-3.6-3.24-.81-10.79-2.09-21.5-5.37-31.89-3.44-10.87-8.46-20.69-17.83-27.73.11-1.82,1.77-2.47,2.89-3.18,14.45-9.06,17.92-32.31,9.09-45.3a4,4,0,0,1-.72-2.45c9.89,1.55,17,7.23,22.61,15.18,7.7,11,11,23.64,13.21,36.63a185.94,185.94,0,0,1,2.35,31.7,8.16,8.16,0,0,1-1.84,5.46C270.22,122.25,266.84,131.19,265.43,140.87Z"/><path fill="#e5af78" d="M232.42,256.56c-3.57,5.07-8.71,8.54-13.18,12.66C207.59,280,195.69,290.41,183.92,301c-3.69,3.34-7.66,6.4-10.9,10.23h-.86c-2.84-2.74-5.64-5.53-8.55-8.2-8.5-7.78-17.06-15.51-25.59-23.26a83,83,0,0,0,18.51.1A86.22,86.22,0,0,0,180,274.47c17.59-6.59,32.22-17.58,44.64-31.52,1.7-1.91,4.31-3.56,4.23-6.72h0l.79-.76c.77-.55,1.18-1.69,2.41-1.45Q232.24,245.32,232.42,256.56Z"/><path fill="#e5ae78" d="M223.5,78.54c-.52,3.15-3.4,4.11-5.51,5.56-9.39,6.47-20.12,9.57-31.12,11.86a155.68,155.68,0,0,1-31.43,3.11c-14.13,0-22.67,9.59-22.62,22.77q.12,37.26,0,74.53c0,17.77,5.76,33.27,17.08,47A58,58,0,0,0,168.84,258a2.38,2.38,0,0,1-2,.72c-12.82.44-24.52-2.36-34.74-10.73-6.11-5-12.26-10-19.19-14-3.59-4.14-8.63-6.65-12-11.14-5.15-6.88-8.36-14.33-8.59-23,0-1.37-.28-2.73-.31-4.1,0-2.73-.9-4-4.1-4a6.82,6.82,0,0,1-6.49-5.37c-2.76-10.32-5.38-20.69-7.77-31.11-1.22-5.29,1.07-9.73,4.58-13.6,4.07-2.11,8.28-3.52,12.87-2,2.2.71,1.93-.66,1.9-1.89a70.84,70.84,0,0,1,1.57-16.68c3.11-14.54,10.62-25.52,24.72-31.53,9.5-4,19.33-5.33,29.54-5,14.92.48,29.79,3,44.75.78a96,96,0,0,0,26.77-5.77Z"/><path fill="#5b4246" d="M193.57,85.38c-15,2.27-29.83-.3-44.75-.78-10.21-.33-20,1-29.54,5-14.1,6-21.61,17-24.72,31.53A70.84,70.84,0,0,0,93,137.81c0,1.23.3,2.6-1.9,1.89-4.59-1.48-8.8-.07-12.87,2-1.63-10.15-4-20-10.79-28.18a5.58,5.58,0,0,1-1.25-3.43C65,86.63,69.06,64.46,82.45,44.63A71.49,71.49,0,0,1,99.74,26.25c1.4,1,.16,1.67-.3,2.43a78.17,78.17,0,0,0-11.6,42.87c.19,8.94.22,9.07,8.1,5,14.11-7.28,28.93-8.73,44.16-4.94,12.52,3.11,24.87,6.93,37.32,10.31A50.71,50.71,0,0,0,191,84C192.05,84,193.31,83.76,193.57,85.38Z"/><path fill="#e3e9f5" d="M138,279.79c8.53,7.75,17.09,15.48,25.59,23.26,2.91,2.67,5.71,5.46,8.55,8.2-4.55,2.76-9.1,5.5-13.63,8.29-1.12.68-2.54,1.18-2.59,2.86-6,1.76-10.23,6.41-15.19,9.85-2.34,1.62-4.4,3.67-6.8,5.19-4.77,3-9.83,1.69-12.19-3.41-7.46-16.16-14.71-32.42-22.16-48.59-1.49-3.22-2.69-6.63-5-9.44-2-4.05-.16-7.15,2.29-10.26,1.69-2.13,3.06-4.52,4.59-6.79,2.9-4.29,4.83-4.83,9.72-2.8a8.81,8.81,0,0,0,1.43.36C120.5,264.92,129.43,272.16,138,279.79Z"/><path fill="#d19b6e" d="M138,279.79c-8.59-7.63-17.52-14.87-25.39-23.28q.14-11.23.26-22.47c6.93,3.93,13.08,9,19.19,14,10.22,8.37,21.92,11.17,34.74,10.73a2.38,2.38,0,0,0,2-.72c4.48,0,9-.28,13.45.05,12.12.89,22.31-3.31,31.56-10.85a129.17,129.17,0,0,1,15-11c.08,3.16-2.53,4.81-4.23,6.72-12.42,13.94-27,24.93-44.64,31.52a86.22,86.22,0,0,1-23.44,5.42A82.93,82.93,0,0,1,138,279.79Z"/><path fill="#525363" d="M155.94,322.4c0-1.68,1.47-2.18,2.59-2.86,4.53-2.79,9.08-5.53,13.63-8.29H173c4.55,2.75,9.11,5.49,13.65,8.27,1.12.7,2.52,1.21,2.57,2.89.32,3.57-1.8,6-4,8.33H159.93C157.73,328.38,155.62,326,155.94,322.4Z"/><path fill="#d19b6e" d="M229.61,235.49l-.77.76Z"/></svg>