<svg xmlns="http://www.w3.org/2000/svg" viewBox="0 0 354 361.75"><path fill="#1c1e28" d="M354,71.77A71.75,71.75,0,1,1,282.27,0h0A71.74,71.74,0,0,1,354,71.77Zm-11.25,0a60.39,60.39,0,1,0,0,.1Z"/><path fill="#1c1e28" d="M276.47,72.22c0-4.83,1.45-6.4,6.24-7.1,5.36-.78,8.78-4.43,8.84-9.43A9.49,9.49,0,0,0,272.71,54c-.11.61-.09,1.24-.19,1.86-.63,3.47-3.09,5.61-6.11,5.33s-5-2.69-5-6.28c0-14.16,15.3-24.17,28.55-18.52,8.05,3.43,12.58,9.7,12.85,18.55s-3.91,15.64-12,19.4c-2.57,1.19-3.22,2.54-3.07,5a54.92,54.92,0,0,1,0,7.48,5.52,5.52,0,0,1-5.63,5.41h0a5.5,5.5,0,0,1-5.56-5.4C276.39,84.09,276.47,72.22,276.47,72.22Z"/><path fill="#1c1e28" d="M287.65,106.6a5.61,5.61,0,0,1-5.78,5.43h-.12a5.54,5.54,0,0,1-5.28-5.65A5.46,5.46,0,0,1,282,101h.36A5.55,5.55,0,0,1,287.65,106.6Z"/><path fill="#777c87" d="M236,161.64c5.17,3,8.29,10.18,7.17,16.63-1.19,6.81-6.81,11.81-16.6,13.81C228.2,186.28,234.34,166.63,236,161.64ZM55.26,179.34A17.28,17.28,0,0,1,62.9,161c2.67,10.33,5.28,20.39,7.93,30.57C63.26,191.14,56.89,186,55.26,179.34Zm144.89,92-27,35-14.65-9.2c11.82-8.62,23.1-17,34.65-25.08,1.67-1.22,4.63-.57,7-.77Zm-51,19.49h-.05c-12-8.82-37.36-27.76-37.43-28.69.16-2.81.71-5.6,1.16-8.73,24.32,16.25,48.42,16.14,72.32.14.12.14,4.38,9.56-5,14.94-10.64,6.76-20.6,14.74-31,22.29Zm-59.1-75c-6.83-11.11-10.47-22.8-8.2-36.33s3.61-27.22,5.51-40.81c2.64-18.87,13.57-30.81,32.27-35.34,11.77-2.91,54.88-3.73,64.14.81,17.89,8.88,27.39,23.32,28.75,43.21.86,13.08,1.16,26.27,3.16,39.17s-3.3,23-9.86,32.79C197,232.45,185,242.25,171.16,249.59c-14,7.42-28.74,7.77-42.86.6-15.65-8-28.88-19.19-38.21-34.4Zm17.73,57.78c9.71,7.4,30.83,22.75,31.77,23.51l-14.45,9.24C116,295,106.84,283.68,97.4,272c4.29-1.2,7.3-.76,10.42,1.57Zm179.86,82.62c.08,7.7,10.36,6.53,10.36,0,0-.26,0-18.29-5.57-32.65-13.21-34.06-37.6-54.49-74.18-59.66-7.12-1-14.21-2.21-21.3-3.31-.59-3.93-1-7.65-1.59-11.34a5.31,5.31,0,0,1,2.12-5.46c10-8.52,18.92-18.21,23.63-30.52,2.78-7.27,6.9-10.46,14.1-12.87,21.26-7.08,23.4-31.06,10.4-45-5.31-4.5-8.27-8.21-7.08-12.59,2.27-8.33-8.51-12.58-10.31-6-1.42,5.2-3.86,24.72-4.44,25-.2-2-1.31-21.86-3.31-29.35-6.77-25.22-30.12-42.76-56.26-43.22-15.14-.26-30.15.37-45.08,3.54C96.8,97.48,81.67,112.41,77.67,135c-1.47,8.09-2.68,16.23-4,24.34h0s-8.13-45-5-65.56c.78-6.54,4.2-12.31,8.72-17.12,13.51-14.34,29.37-25.3,48.37-30.88,12.8-3.75,25.75-2.75,38.37,1.34C171,49.35,176.2,54,180.13,60c5.07,7.11,15.89-2.81,18-4,6.25-3.53,3.61-12.82-3.5-9.91-3.56,1.45-5.87,3.61-8.62,4.25-4.66-5.83-10-10.34-16.8-12.69-14.35-4.92-29.12-6.19-43.92-2.65C107.1,39.34,92,49.48,77.89,61.39c-15.08,12.68-22.54,28.53-20.8,48.53,1.15,13.23,3.34,39.23,2.21,40-9.39,6.43-15.87,17.4-14.59,28.66C46,189.15,51.91,197.15,62,200c8.29,2.31,12.45,6.63,15.56,14.41,4.74,11.88,13.53,21.15,23.08,29.59a6.26,6.26,0,0,1,2.17,4.18c-.19,4.09-1,8.15-1.57,12.55-6.1.84-37.69,5.73-46.59,9.78C20.76,285.9,1,312.38,0,356.19c-.16,7.12,10.77,7.71,10.77,0,0-2,1-14.19,1-14.19,3.6-31.23,27.94-58.56,57.33-65.74a118.64,118.64,0,0,1,14.38-2.45c1.09-.11,2.68,1,3.5,2,10.47,12.77,20.81,25.61,31.18,38.5,4.08,5,5.46,5.26,11,1.8,5.93-3.7,11.9-7.34,17.73-11.2,1.77-1.17,3-1,4.64.07,6.05,4,12.22,7.77,18.35,11.61,4.47,2.79,6.32,2.45,9.59-1.55C189.66,302.35,200,289.78,210,277c2.1-2.67,4-3.41,7.46-2.88,15.41,2.32,29.49,7.52,41.3,17.94,18.32,16.12,28.65,38.28,28.91,64.09Z"/></svg>