<svg xmlns="http://www.w3.org/2000/svg" fill="#fff" viewBox="0 0 1237.5 227.58"><path d="M120.91,113.76H21.21q1.14,18.42,12.63,28.78t27.87,10.3q13.42,0,22.41-6.25a33.2,33.2,0,0,0,12.63-16.75h22.3a53.6,53.6,0,0,1-20,29.24q-15,11.26-37.31,11.26-17.75,0-31.74-8A56.39,56.39,0,0,1,8,139.7Q0,125,0,105.7T7.74,71.8A54.3,54.3,0,0,1,29.47,49.44q14-7.84,32.19-7.85,17.75,0,31.4,7.74a53.51,53.51,0,0,1,21,21.27,62.89,62.89,0,0,1,7.4,30.6A122.47,122.47,0,0,1,120.91,113.76Zm-26-37.2a34.06,34.06,0,0,0-14.22-13,44.27,44.27,0,0,0-19.91-4.44q-15.7,0-26.73,10T21.47,96.84h78.72q0-11.73-5.28-20.28Z"/><path d="M213.91,168.36,184.3,122l-28.43,46.41H134.3l40.27-61.92L134.3,43.64h23.43L187.3,89.8l28.22-46.19h21.61l-40,61.66,40.27,63Z"/><path d="M296.85,48.84q12.18-7.17,28.33-7.17a58.38,58.38,0,0,1,30.15,8A56.31,56.31,0,0,1,376.6,72q7.69,14.44,7.7,33.56,0,18.89-7.74,33.67a56.71,56.71,0,0,1-51.42,31.17q-15.93,0-28.1-7.17a51,51,0,0,1-18.57-17.83v82.14H257.83V43.68h20.71v23Q284.67,56,296.85,48.84ZM357.47,81a39.3,39.3,0,0,0-15.36-15.92,42.61,42.61,0,0,0-21.22-5.46,41.49,41.49,0,0,0-21,5.57,40.83,40.83,0,0,0-15.47,16.16q-5.81,10.58-5.8,24.45,0,14.11,5.8,24.69a40.83,40.83,0,0,0,15.47,16.16,43,43,0,0,0,42.32,0,40,40,0,0,0,15.36-16.16q5.69-10.58,5.69-24.91,0-14.14-5.74-24.62Z"/><path d="M524.72,113.76H425.06q1.14,18.42,12.63,28.78t27.87,10.3q13.43,0,22.41-6.25a33.2,33.2,0,0,0,12.63-16.75h22.31a53.6,53.6,0,0,1-20,29.24q-15,11.26-37.32,11.26-17.74,0-31.74-8a56.34,56.34,0,0,1-21.94-22.5q-8-14.67-8-34t7.74-33.9a54.36,54.36,0,0,1,21.73-22.41q14-7.85,32.19-7.85,17.74,0,31.4,7.74a53.77,53.77,0,0,1,21,21.27,62.88,62.88,0,0,1,7.39,30.6A123.68,123.68,0,0,1,524.72,113.76Zm-25.94-37.2a34.06,34.06,0,0,0-14.22-13,44.27,44.27,0,0,0-19.91-4.44q-15.69,0-26.73,10T425.3,96.84H504q0-11.73-5.24-20.28Z"/><path d="M589,47.32q10.13-5.88,24.69-5.88v21.4h-5.46q-34.82,0-34.81,37.77v67.83H552.7V43.68h20.71V63.93A39.74,39.74,0,0,1,589,47.32Z"/><path d="M662.82,60.74v73.49q0,9.11,3.87,12.86t13.42,3.75h15.25v17.52H676.7q-17.3,0-25.94-8t-8.64-26.17V60.72H626V43.66h16.16V12.26h20.7v31.4h32.54V60.72Z"/><path d="M767.37,46a52.21,52.21,0,0,1,24.68-5.69,55.1,55.1,0,0,1,29.24,8A56.17,56.17,0,0,1,842,70.84q7.62,14.67,7.62,34T842,139.09a57.42,57.42,0,0,1-20.7,23.11,54,54,0,0,1-29.24,8.19q-14.1,0-24.68-5.57a47.82,47.82,0,0,1-17-14.45v18H718.56V0h31.91V60.74A45.52,45.52,0,0,1,767.37,46Zm45,39.24a32.34,32.34,0,0,0-12.29-12.62,32.88,32.88,0,0,0-16.49-4.33,31.78,31.78,0,0,0-16.27,4.44A33,33,0,0,0,755,85.55a40.21,40.21,0,0,0-4.66,19.79q0,11.39,4.66,19.79A33,33,0,0,0,767.3,138a32.08,32.08,0,0,0,32.76-.11,33.82,33.82,0,0,0,12.29-13q4.67-8.41,4.66-20,0-11.37-4.61-19.68Z"/><path d="M989.09,114.84H896.91q1.14,13.65,9.56,21.38t20.7,7.74q17.76,0,25.26-15.25h34.36a57.45,57.45,0,0,1-20.88,30q-15.43,11.73-38,11.73-18.21,0-32.65-8.08a56.72,56.72,0,0,1-22.53-22.86q-8.07-14.79-8.08-34.13,0-19.56,8-34.36A55.71,55.71,0,0,1,895,48.26q14.32-8,33-8,18,0,32.19,7.73a54.49,54.49,0,0,1,22.07,22q7.85,14.22,7.85,32.65A76.61,76.61,0,0,1,989.09,114.84ZM957,93.44q-.22-12.28-8.87-19.68T927,66.36q-11.84,0-19.91,7.17t-9.9,19.91Z"/><path d="M1045.06,0V168.36H1013.2V0Z"/><path d="M1108.3,0V168.36h-31.83V0Z"/><path d="M1160.19,164.84a49,49,0,0,1-19.46-15.13,38.4,38.4,0,0,1-7.85-21.16H1165a17.57,17.57,0,0,0,7.17,12.06q6.25,4.77,15.59,4.77,9.09,0,14.22-3.64t5.12-9.32q0-6.15-6.26-9.22t-19.89-6.76a169.18,169.18,0,0,1-23.09-7,40,40,0,0,1-15.47-11.15q-6.49-7.51-6.49-20.25a32.73,32.73,0,0,1,6-19.12q6-8.64,17.29-13.65t26.51-5q22.53,0,36,11.26t14.75,30.28h-30.5a16.51,16.51,0,0,0-6.26-11.94q-5.58-4.44-14.9-4.44-8.65,0-13.31,3.19a10.16,10.16,0,0,0-4.67,8.87q0,6.38,6.38,9.67t19.76,6.75a167.45,167.45,0,0,1,22.52,7.06,39.71,39.71,0,0,1,15.36,11.26q6.49,7.62,6.71,20.14a33.41,33.41,0,0,1-6,19.56q-6,8.65-17.3,13.54t-26.29,5A66.58,66.58,0,0,1,1160.19,164.84Z"/></svg>