<?xml version="1.0" encoding="utf-8"?>
<!-- Generator: Adobe Illustrator 23.0.3, SVG Export Plug-In . SVG Version: 6.00 Build 0)  -->
<svg version="1.1" id="Layer_1" xmlns="http://www.w3.org/2000/svg" xmlns:xlink="http://www.w3.org/1999/xlink" x="0px" y="0px"
	 viewBox="0 0 225 53.2" style="enable-background:new 0 0 225 53.2;" xml:space="preserve">
<style type="text/css">
	.st0{fill:#1B4D64;}
	.st1{fill:#6CA844;}
</style>
<title>logo</title>
<path class="st0" d="M18.4,1.1C8.4,1.1,0.2,9.3,0.2,19.4s8.2,18.2,18.2,18.2s18.2-8.2,18.2-18.2l0,0l0,0C36.6,9.3,28.5,1.1,18.4,1.1
	z M18.4,33.1c-7.6,0-13.7-6.1-13.7-13.7S10.8,5.6,18.4,5.6s13.7,6.1,13.7,13.7l0,0C32.2,26.9,26,33.1,18.4,33.1L18.4,33.1z"/>
<path class="st1" d="M24.4,28.5c-1.7,1.1-3.6,1.7-5.7,1.8c-1.9,0.1-3.7-0.3-5.4-1.2c-1.7-1-3.1-2.4-4.1-4.1
	c-1.1-1.7-1.7-3.6-1.8-5.5c-0.1-1.8,0.3-3.6,1.2-5.2c0.9-1.7,2.3-3.1,3.9-4c1.5-1,3.3-1.6,5.2-1.6c1.7,0,3.4,0.5,4.8,1.4
	c1.6,1.1,2.9,2.4,3.8,4.1c0.3,0.4,0.3,0.9,0.2,1.3c-0.1,0.5-0.4,0.9-0.9,1.1l-13.5,8.2l-1.6-2.6L24,14l-0.8,1.8
	c-0.6-1-1.5-1.9-2.5-2.6c-1.9-1.3-4.4-1.3-6.4,0c-1.2,0.7-2.1,1.6-2.8,2.8c-0.6,1.1-0.8,2.3-0.7,3.5c0.1,1.3,0.6,2.6,1.3,3.7
	c0.7,1.2,1.6,2.1,2.8,2.8c1.1,0.6,2.4,0.9,3.7,0.9c1.4-0.1,2.7-0.5,3.9-1.2c0.7-0.4,1.4-1,1.9-1.7c0.5-0.6,0.9-1.2,1.2-2
	c0.2-0.4,0.5-0.8,0.9-1.1c0.4-0.2,0.8-0.3,1.2-0.3c0.5,0.1,1,0.3,1.3,0.7c0.3,0.4,0.3,0.9,0.1,1.4c-0.5,1.2-1.1,2.2-1.9,3.2
	C26.4,27,25.5,27.9,24.4,28.5z"/>
<path class="st1" d="M54.3,36c-2.2,0-4.4-0.5-6.4-1.7c-1.9-1.1-3.4-2.7-4.5-4.5c-1.1-2-1.7-4.2-1.7-6.5V2.5c0-0.6,0.2-1.2,0.7-1.7
	c0.9-0.9,2.3-1,3.3-0.1c0.5,0.5,0.7,1.1,0.7,1.8v12.3c1.1-1.3,2.4-2.3,3.9-3c3.5-1.7,7.6-1.5,10.9,0.5c1.8,1.1,3.2,2.7,4.1,4.5
	c1,2,1.6,4.2,1.5,6.4c0,2.3-0.6,4.5-1.7,6.5C63,33.7,58.8,36.1,54.3,36L54.3,36z M54.3,31.9c1.5,0,2.9-0.4,4.2-1.1
	c1.2-0.8,2.2-1.8,2.9-3.1c0.7-1.3,1.1-2.9,1.1-4.4c0-1.5-0.3-3-1.1-4.4c-2.1-3.9-7-5.3-10.8-3.2c-0.1,0.1-0.2,0.1-0.3,0.2
	c-1.2,0.7-2.2,1.8-2.9,3c-0.7,1.3-1.1,2.9-1.1,4.4c0,1.5,0.3,3,1.1,4.4C48.7,30.3,51.4,31.9,54.3,31.9L54.3,31.9z"/>
<path class="st1" d="M72.5,6.8c-1.7,0-3.1-1.3-3.1-3c0-1.7,1.3-3.1,3-3.1c1.7,0,3.1,1.3,3.1,3c0,0.8-0.3,1.6-0.9,2.2
	C74.1,6.5,73.3,6.8,72.5,6.8z M72.5,35.8c-1.2,0-2.3-0.9-2.3-2.2c0,0,0,0,0,0V13.2c0-0.6,0.2-1.2,0.7-1.7c0.4-0.4,1-0.7,1.7-0.6
	c1.2-0.1,2.2,0.8,2.3,2.1c0,0.1,0,0.2,0,0.2v20.3c0,0.6-0.2,1.2-0.6,1.7C73.7,35.6,73.1,35.8,72.5,35.8z"/>
<path class="st1" d="M79.9,15.1c-1.4,0-2.1-0.7-2.1-2.1s0.7-2.1,2.1-2.1h15.5c1.4,0,2.1,0.7,2.1,2.1s-0.7,2.1-2.1,2.1H79.9z
	 M80.4,35.8c-1.4,0-2.1-0.7-2.1-2.1c0-1.4,0.7-2.1,2.1-2.1h15.5c1.4,0,2.1,0.7,2.1,2.1c0,1.4-0.7,2.1-2.1,2.1H80.4z M81.7,34.9
	l-3.1-2.7l15.5-20.5l3.1,2.7L81.7,34.9z"/>
<path class="st1" d="M102.2,15.1c-1.4,0-2.1-0.7-2.1-2.1s0.7-2.1,2.1-2.1h15.5c1.4,0,2.1,0.7,2.1,2.1s-0.7,2.1-2.1,2.1H102.2z
	 M102.7,35.8c-1.4,0-2.1-0.7-2.1-2.1c0-1.4,0.7-2.1,2.1-2.1h15.5c1.4,0,2.1,0.7,2.1,2.1c0,1.4-0.7,2.1-2.1,2.1H102.7z M104.1,34.9
	l-3.1-2.8l15.5-20.4l3.1,2.7L104.1,34.9z"/>
<path class="st0" d="M127.7,35.8c-1.2,0-2.3-0.9-2.3-2.2c0,0,0,0,0,0V13.2c0-0.6,0.2-1.2,0.7-1.7c0.4-0.4,1-0.7,1.7-0.6
	c1.2-0.1,2.2,0.8,2.3,2.1c0,0.1,0,0.2,0,0.3v20.3c0,0.6-0.2,1.2-0.6,1.7C129,35.6,128.4,35.9,127.7,35.8z M142.9,35.8
	c-1.2,0-2.3-1-2.3-2.2V20.5c0-1.9-0.5-3.3-1.4-4.2c-1-1-2.3-1.5-3.7-1.4c-1.5,0-2.9,0.6-3.9,1.6c-1.1,1.1-1.6,2.6-1.6,4.2h-2.9
	c0-1.8,0.4-3.6,1.2-5.2c1.5-3,4.7-4.9,8.1-4.8c1.6,0,3.2,0.4,4.6,1.1c1.4,0.8,2.4,1.9,3.1,3.3c0.8,1.7,1.2,3.5,1.1,5.4v13
	c0,0.6-0.2,1.2-0.6,1.7C144.2,35.6,143.6,35.9,142.9,35.8L142.9,35.8z M158.1,35.8c-1.2,0-2.3-0.9-2.3-2.2c0,0,0,0,0,0V20.5
	c0-1.9-0.5-3.3-1.4-4.2c-1-1-2.3-1.5-3.7-1.4c-1.5,0-2.9,0.6-3.9,1.6c-1,1.1-1.6,2.6-1.5,4.2h-3.8c0-1.8,0.4-3.6,1.3-5.2
	c0.8-1.5,2.1-2.7,3.6-3.5c1.6-0.9,3.4-1.3,5.3-1.3c1.6,0,3.2,0.4,4.6,1.1c1.4,0.8,2.4,1.9,3.1,3.3c0.8,1.7,1.2,3.5,1.1,5.4v13
	c0,0.6-0.2,1.2-0.6,1.7C159.4,35.6,158.7,35.9,158.1,35.8L158.1,35.8z"/>
<path class="st0" d="M174.9,36c-2.1,0-4.2-0.5-6-1.7c-1.8-1.1-3.2-2.7-4.2-4.5c-1-2-1.6-4.2-1.5-6.4c0-2.3,0.5-4.5,1.7-6.5
	c3.5-6,11.2-8.1,17.2-4.6c1.9,1.1,3.5,2.7,4.6,4.6c1.1,2,1.7,4.2,1.7,6.5h-1.8c0,2.2-0.5,4.5-1.5,6.4c-1,1.8-2.4,3.4-4.2,4.5
	C179.1,35.4,177,36,174.9,36z M175.8,31.9c1.5,0,2.9-0.4,4.1-1.1c1.2-0.7,2.2-1.8,2.9-3.1c1.4-2.7,1.4-6,0-8.7
	c-0.7-1.3-1.7-2.3-2.9-3.1c-2.6-1.5-5.7-1.5-8.3,0c-1.2,0.7-2.2,1.8-2.9,3.1c-1.4,2.7-1.4,6,0,8.7c0.7,1.3,1.7,2.3,2.9,3.1
	C172.9,31.5,174.3,31.9,175.8,31.9L175.8,31.9z M186,35.8c-1.2,0-2.3-0.9-2.3-2.2c0,0,0,0,0,0v-7.1l0.9-4.8l3.8,1.6v10.2
	c0,1.2-0.9,2.3-2.2,2.3c0,0,0,0,0,0L186,35.8z"/>
<path class="st0" d="M193.9,35.8c-0.6,0-1.2-0.2-1.7-0.6c-0.4-0.5-0.6-1.1-0.6-1.7V13.1c-0.1-1.1,0.7-2.2,1.8-2.3c0.1,0,0.3,0,0.5,0
	c1.1-0.2,2.1,0.6,2.3,1.7c0,0.2,0,0.4,0,0.6v20.4c0,0.6-0.2,1.2-0.6,1.7C195.1,35.6,194.5,35.8,193.9,35.8z M193.8,20.2
	c0-1.7,0.5-3.4,1.4-4.9c0.9-1.4,2.1-2.6,3.6-3.4c1.5-0.9,3.3-1.3,5-1.3c1.8,0,3.2,0.3,4.1,0.9s1.2,1.3,1,2.1c-0.1,0.4-0.2,0.7-0.5,1
	c-0.2,0.2-0.6,0.4-0.9,0.4c-0.4,0.1-0.7,0-1.1,0c-1.7-0.4-3.5-0.4-5.2-0.1c-1.4,0.3-2.7,0.9-3.7,1.9c-0.9,0.9-1.4,2.2-1.3,3.5
	L193.8,20.2z"/>
<path class="st0" d="M211.6,15.7c-0.6,0-1.1-0.2-1.5-0.5c-0.4-0.3-0.6-0.8-0.6-1.4c0-0.6,0.2-1.1,0.6-1.5c0.4-0.4,1-0.6,1.5-0.5
	h10.5c0.6,0,1.1,0.2,1.5,0.5c0.4,0.4,0.6,0.9,0.6,1.5c0,0.5-0.2,1-0.6,1.4c-0.4,0.4-1,0.6-1.5,0.5H211.6z M221.7,35.8
	c-1.5,0-2.9-0.4-4.1-1.1c-1.2-0.8-2.2-1.9-2.9-3.2c-0.7-1.4-1.1-2.9-1.1-4.5V5.2c0-1.3,1-2.3,2.3-2.3c1.3,0,2.3,1,2.3,2.3l0,0V27
	c0,1.1,0.3,2.2,1,3.1c0.6,0.8,1.5,1.2,2.5,1.2h1.6c0.5,0,1,0.2,1.4,0.6c0.4,0.5,0.6,1,0.6,1.6c0,0.6-0.3,1.2-0.8,1.6
	c-0.5,0.4-1.2,0.7-1.9,0.6L221.7,35.8z"/>
<path class="st0" d="M43.2,52.3L43.2,52.3c-2,1.6-5,1.2-6.5-0.8c0,0,0,0,0,0l0,0l-9.8-12.8c1.4-0.6,2.8-1.4,4.1-2.3
	c1.3-0.9,2.5-2,3.4-3.3l9.8,12.8C45.6,47.9,45.2,50.8,43.2,52.3z"/>
</svg>
