<svg xmlns="http://www.w3.org/2000/svg" viewBox="0 0 31.53 30.33"><path fill="none" stroke-width="2px" stroke="#1c1e28" d="M23,20h2.32a5,5,0,0,1,2.36.59,4.89,4.89,0,0,1,1.8,1.64L30,23l-15.17,5.9a6,6,0,0,1-2.76.38,6,6,0,0,1-2.64-.91L1,23V14H3c2.63,0,5.64,1,7,3h5a5,5,0,0,1,5,5H9"/><path fill="none" stroke-width="2px" stroke="#777c87" d="M24.88,2.18a3.68,3.68,0,0,0-1.19-.84A3.72,3.72,0,0,0,22.26,1a3.67,3.67,0,0,0-2.67,1,3.44,3.44,0,0,0-.59.73,3.69,3.69,0,0,0-1.19-1.2A3.93,3.93,0,0,0,16.21,1a3.73,3.73,0,0,0-3.09,1.14,4,4,0,0,0,0,5.58L19,13.85l5.88-6.09A4,4,0,0,0,24.88,2.18Z"/></svg>