<svg xmlns="http://www.w3.org/2000/svg" viewBox="0 0 298.11 363.41"><path d="M101.31,227.75c.59-4.4,1.38-8.46,1.57-12.55a6.26,6.26,0,0,0-2.17-4.18c-9.55-8.44-18.34-17.71-23.08-29.59-3.11-7.78-7.27-12.1-15.56-14.41C51.94,164.15,46,156.15,44.74,145.58c-1.28-11.26,5.2-22.23,14.59-28.66,1.13-.77-1.06-26.77-2.21-40-1.74-20,5.72-35.85,20.8-48.53C92,16.48,107.13,6.34,125.28,2c14.8-3.54,29.57-2.27,43.92,2.65C176,7,181.34,11.51,186,17.34c7.66-4.88,16.16-6,24.82-5.08,18.43,1.92,29.82,12.91,36,29.66,4.86,13.16,5.1,26.48-1.29,39.3-3.89,7.81-4.73,16.17-5.93,24.57-1,6.82-1.91,13.23,6.08,16.59,13,13.94,10.86,37.92-10.4,45-7.2,2.41-11.32,5.6-14.1,12.87-4.71,12.31-13.65,22-23.63,30.52a5.31,5.31,0,0,0-2.12,5.46c.61,3.69,1,7.41,1.59,11.34,7.09,1.1,14.18,2.3,21.3,3.31,36.58,5.17,60.89,25.63,74.18,59.66a85.32,85.32,0,0,1,5.57,30.8c.06,11.38,0,22.75,0,34.12,0,6.48-1.46,8-7.92,8H8.63c-7.13,0-8.37-1.21-8.36-8.19,0-12.75-.75-25.56.24-38.23,2.87-36.68,20.28-64.14,54.21-79.51C63.62,233.48,95.21,228.59,101.31,227.75Zm141.39,125h44.93c0-11.13.29-22-.06-32.84-.79-24.36-10.45-44.69-28.74-60.81-11.81-10.42-25.89-15.62-41.3-17.94-3.5-.53-5.36.21-7.46,2.88-10.06,12.74-20.35,25.31-30.57,38-3.27,4-5.12,4.34-9.59,1.55-6.13-3.84-12.3-7.65-18.35-11.61-1.69-1.11-2.87-1.24-4.64-.07-5.83,3.86-11.8,7.5-17.73,11.2-5.54,3.46-6.92,3.22-11-1.8-10.37-12.89-20.71-25.73-31.18-38.5-.82-1-2.41-2.11-3.5-2a118.64,118.64,0,0,0-14.38,2.45C39.74,250.44,15.4,277.77,11.8,309c-1.52,13.09-1.18,42.32-1.18,43.83H55.55V310c0-3.85,2.08-6,5.26-5.91,3,.08,4.83,2.16,5,5.81,0,1,.12,41.68.18,42.91H232.32V312.09c0-5.51,1.56-7.93,5.13-8s5.25,2.28,5.25,7.78ZM119.7,70.31C101,74.84,90.07,86.78,87.43,105.65c-1.9,13.59-3.24,27.28-5.51,40.81s1.37,25.22,8.2,36.33c9.33,15.19,22.56,26.39,38.25,34.36,14.12,7.17,28.88,6.82,42.86-.6,13.81-7.34,25.87-17.14,34.66-30.26,6.56-9.8,11.86-19.89,9.86-32.79s-2.3-26.09-3.16-39.17C211.23,94.44,201.73,80,183.84,71.12c-9.26-4.54-52.37-3.72-64.14-.81Zm-46,56c1.32-8.11,2.53-16.25,4-24.34,4-22.56,19.13-37.49,41.5-42.24,14.93-3.17,29.94-3.8,45.08-3.54,26.14.46,49.49,18,56.26,43.22,2,7.49,3.11,27.35,3.31,29.35,1-.48,6.85-40.68,11.58-49.95,6.79-13.35,5.76-26.51-1-39.48A31.16,31.16,0,0,0,196.12,24c-2.1.74-9.72,14.23-16,3-3.93-6.07-9.14-10.68-16-12.91C151.5,10,138.55,9,125.75,12.75c-19,5.58-34.86,16.54-48.37,30.88-4.52,4.81-7.94,10.58-8.72,17.12-3.13,20.57,5,65.56,5,65.56Zm75.52,131.47c10.36-7.55,20.32-15.53,31-22.34,9.38-5.38,5.12-14.8,5-14.94-23.9,16-48,16.11-72.32-.14-.45,3.13-1,5.92-1.16,8.73.07.93,25.38,19.87,37.43,28.69ZM97.43,239c9.44,11.68,18.56,23,27.74,34.32l14.45-9.24c-.94-.76-22.06-16.11-31.77-23.51-3.12-2.33-6.13-2.77-10.42-1.57Zm61.09,25.08,14.66,9.21,27-35c-2.37.2-5.33-.45-7,.72-11.55,8.09-22.84,16.47-34.66,25.09Zm68.09-105c9.8-2,15.42-7,16.61-13.81,1.12-6.45-2-13.61-7.17-16.63-1.68,5-7.83,24.69-9.44,30.46ZM62.93,128a17.28,17.28,0,0,0-7.64,18.34c1.63,6.62,8,11.8,15.57,12.23C68.21,148.39,65.6,138.33,62.93,128Z"/></svg>