<svg xmlns="http://www.w3.org/2000/svg" viewBox="0 0 38 24"><path opacity=".07" d="M35,0H3A3,3,0,0,0,0,3V21a3,3,0,0,0,3,3H35a3,3,0,0,0,3-3V3A3,3,0,0,0,35,0Z"/><path fill="#006fcf" d="M35,1a2,2,0,0,1,2,2V21a2,2,0,0,1-2,2H3a2,2,0,0,1-2-2V3A2,2,0,0,1,3,1H35"/><path fill="#fff" d="M9,10.27l.77,1.87H8.2Zm16.08.08h-3v.82H25v1.24H22.08v.92h3v.74l2.08-2.24L25.05,9.49v.86ZM15,8l.88,1.93L16.69,8H27.06l1.08,1.19L29.25,8H34l-3.52,3.85L34,15.68H29.14l-1.07-1.19-1.13,1.19H10l-.49-1.19H8.41l-.5,1.19H4L7.29,8Zm4.67,1.07H17.41l-1.5,3.54L14.28,9.08H12.06v4.81L10,9.08H8L5.63,14.6H7.18l.49-1.19h2.6l.49,1.19h2.72V10.66l1.75,3.94h1.19l1.75-3.93V14.6h1.45l0-5.52ZM29,11.85l2.53-2.77H29.69l-1.6,1.73L26.55,9.08h-5.9V14.6h5.81l1.62-1.74,1.54,1.74H31.5L29,11.85Z"/></svg>