<svg xmlns="http://www.w3.org/2000/svg" viewBox="0 0 300.06 301.44" fill="#0c233b"><path d="M149.08,0C72.32.29,8.22,59.71,0,134.63H152.08s-20.55-20.75-28.62-29c-6.59-6.77-6.48-15.47,0-22.12s15.49-7.15,22.11-.61q29.31,28.92,58.24,58.23c6.49,6.58,6.51,15.65.07,22.34q-28.22,29.28-56.81,58.17c-6.36,6.42-15.26,6.17-21.78,0-6.81-6.49-7.34-15.23-.89-22.08,9.09-9.66,28.69-29.55,28.69-29.55H.29c9.42,74.52,73.37,131.68,151.16,131.43,81.8-.26,148.94-68.09,148.61-150.15C299.73,66.49,233.05-.31,149.08,0Z"/></svg>