<svg xmlns="http://www.w3.org/2000/svg" viewBox="0 0 270.99 221.43"><path d="M153.37,182.84a170.57,170.57,0,0,0-21.69-31.75.28.28,0,0,1,0-.4h0a.28.28,0,0,1,.4,0h0a171.46,171.46,0,0,1,21.78,31.81.35.35,0,0,1-.13.42.19.19,0,0,1-.15,0A.39.39,0,0,1,153.37,182.84Z"/><path d="M161.08,176.82a182,182,0,0,0-21.83-26,.3.3,0,0,1,0-.41h0a.31.31,0,0,1,.42,0h0a182.93,182.93,0,0,1,21.89,26.06.29.29,0,0,1-.06.41h0a.27.27,0,0,1-.17.06A.28.28,0,0,1,161.08,176.82Z"/><path d="M200,156.18A179.47,179.47,0,0,1,142.67,137h0a.3.3,0,0,1,.29-.53h0a178.81,178.81,0,0,0,57.17,19.09h0a.32.32,0,0,1,.25.36h0a.32.32,0,0,1-.31.26Z"/><path d="M197.91,176.94l-54.7-33.85h0a.29.29,0,0,1-.1-.4h0a.33.33,0,0,1,.43-.11l54.7,33.88a.32.32,0,0,1,.1.42.29.29,0,0,1-.25.15h0A.31.31,0,0,1,197.91,176.94Z"/><path d="M249.73,165.74h-.06a.31.31,0,0,1-.22-.36,25.58,25.58,0,0,0-.76-13.55.06.06,0,0,1,0-.06h0a.31.31,0,0,1,.22-.36h0a.3.3,0,0,1,.36.22h0a26.3,26.3,0,0,1,.78,13.88.31.31,0,0,1-.3.24Z"/><path d="M256.1,164.43H256a.29.29,0,0,1-.21-.34h0l.86-4.5h0a.32.32,0,0,1,.37-.25h0a.33.33,0,0,1,.24.39h0l-.85,4.49a.3.3,0,0,1-.31.25Z"/><path fill="#fff" d="M83.75,26.09c1-1.5,1-4.84,1.09-6.5a3.1,3.1,0,0,0,2.64-.93,1.66,1.66,0,0,0-.2-2.32c-.72-.61-1.57-.61-2.5.32a15.86,15.86,0,0,0-.43-3.29c-.36-1.63-.51-4.1-1.7-4.76A12.88,12.88,0,0,0,79.8,7.8c-1.36-.29-3.17.62-4.57.71a7.89,7.89,0,0,0-3.89,1.55C70,11,69.9,13.68,70.1,15.19c.21,2.12-.11,4.24,0,6.37a8.18,8.18,0,0,0,2.33,5.83,7.84,7.84,0,0,0,5.07,1.83c.34,1.74.67,3.49,1,5.29A4.79,4.79,0,0,0,78.93,36,5.47,5.47,0,0,0,81.72,38a.85.85,0,0,0,.37.21A1.51,1.51,0,0,0,84,37.39a14.8,14.8,0,0,0,1.86-4.06,40.58,40.58,0,0,1-3.44-5.92A7.12,7.12,0,0,0,83.75,26.09Z"/><path fill="#acd4f7" d="M88.35,8.09c0-.09-.08-.17-.12-.27A2.12,2.12,0,0,0,85.36,7c.62-2.07,0-3.56-1.78-3.47a2.82,2.82,0,0,0-2.15,1.52,3,3,0,0,0-5.67-.86,2.16,2.16,0,0,0-.92-1.62,3.46,3.46,0,0,0-1.75-.48,3.66,3.66,0,0,0-2.58.93A2.32,2.32,0,0,0,70,5.69a8.29,8.29,0,0,0-2.5.93,2.52,2.52,0,0,0-1.2,2.31,1.56,1.56,0,0,0,1.66,1.44h.2a2.79,2.79,0,0,0-1.36,3.52,2.57,2.57,0,0,0,3.38,1.3,8.37,8.37,0,0,0,2.07-2c.48.84.83,1.26,1.73,1a4,4,0,0,0,2.33-2.61,1.94,1.94,0,0,0,2.66.66h0a3.56,3.56,0,0,0,2-2.21,4.22,4.22,0,0,0,.49,1c-.28.33,2.8,1.61,2.89,2.11a21.39,21.39,0,0,0,.37,2.38c-.23,2.19-.21.59,2.4.27.3,0,.32-1.85.46-3.65a4.11,4.11,0,0,0,.45-.38A4.2,4.2,0,0,0,88.35,8.09Z"/><path fill="#fff" d="M82.91,41.42A2.88,2.88,0,0,0,83.5,43a24.09,24.09,0,0,0,17.85,11,10.1,10.1,0,0,0,3.87-.25,13.57,13.57,0,0,0,2.88-1.43l5.57-3.46c-2.66-.56-5-2.31-7.71-2.5-2.94-.21-5.69,1.47-8.62,1.72A11.46,11.46,0,0,1,90,46a24.9,24.9,0,0,1-5.59-5.35C83.43,40.26,83,40.85,82.91,41.42Z"/><path d="M135.43,7.51c-1.35-.79-5.58-1.41-6-1.41h-.76l.63-.31a11,11,0,0,1,4.07-1.52.69.69,0,0,0,.62-.34V3.88a.69.69,0,0,0-.27-.95l-.17-.08a2.93,2.93,0,0,0-1.24-.18,11.22,11.22,0,0,0-3.94,1,21.55,21.55,0,0,1-2.19.72l-.44.12c-.31.1-.86.24-1.24.33a11.65,11.65,0,0,0-.87-4.32h0a.92.92,0,0,0-1.2-.43.9.9,0,0,0-.56.52.21.21,0,0,0,0,.11,6.31,6.31,0,0,0,0,.87,9.94,9.94,0,0,1-.32,3.21A3.41,3.41,0,0,1,120.84,6a4.4,4.4,0,0,0-.67.93,8.21,8.21,0,0,0-.59,2c-.08.36-.16.72-.25,1.06a8.67,8.67,0,0,1-.76,1.77l-1-.34a.31.31,0,0,0-.42,0,.28.28,0,0,0-.08.15c-1.29,3.71-5.45,9.86-9.29,15.35-1,1.47-5,2-8.8,2.55a50,50,0,0,0-7.08,1.26c-2.14.64-4.31,1.17-6.49,1.61a40.5,40.5,0,0,1-2.66-4.72,7.51,7.51,0,0,0,1.18-1.34,7.4,7.4,0,0,0,.82-2.59l.15-1.23c.08-.82.11-1.63.14-2.32v-.22a3.41,3.41,0,0,0,.9-.11l1-.42a3,3,0,0,0,.7-.57,2,2,0,0,0-.13-2.56c.18-1.35.33-2.71.44-4.07.12-.11.25-.2.37-.32a4.5,4.5,0,0,0,.44-3.91A2.47,2.47,0,0,0,87.19,6.5a2.41,2.41,0,0,0-1.25,0A3.11,3.11,0,0,0,85.57,4a2.15,2.15,0,0,0-1.86-.71,2.83,2.83,0,0,0-2,1.16A3.74,3.74,0,0,0,79.12,2.2,3.53,3.53,0,0,0,76,3.52a2.5,2.5,0,0,0-.93-1.15,3.68,3.68,0,0,0-1.94-.53,3.83,3.83,0,0,0-2.78.93,2.68,2.68,0,0,0-.77,2.65h-.19a6.65,6.65,0,0,0-2.16.77,2.8,2.8,0,0,0-1.33,2.62,2,2,0,0,0,.92,1.47,1.29,1.29,0,0,0,.33.17,3.12,3.12,0,0,0-.68,3.37,3,3,0,0,0,2.68,1.75l.51-.08a30.82,30.82,0,0,1,0,3.33v2.79a8.35,8.35,0,0,0,2.46,6.1,7.94,7.94,0,0,0,5,1.8l.9,4.68c-2.63,1.09-4.88,2.88-7.06,6.61A32.73,32.73,0,0,0,68.27,48,61.91,61.91,0,0,1,58.27,69a.32.32,0,0,0,0,.39,27.72,27.72,0,0,0,4.78,4,.3.3,0,0,0,.41-.08l5-6.84A40.6,40.6,0,0,0,72,61.09a40.94,40.94,0,0,0,2.5-6.5c.53-1.67,1.07-3.35,1.74-5.21.58,2,1.08,4.19,1.58,6.25a85.27,85.27,0,0,0,4.48,14.66l-6.09.48c-1.25.1-2.7.29-3.49,1.35a2.9,2.9,0,0,0-.36,2.57,5.8,5.8,0,0,0,3.71,3.49,3.69,3.69,0,0,0,.81.12,7.45,7.45,0,0,0,4.21-1.86,28.71,28.71,0,0,0,3-2.62c.44.74.9,1.46,1.4,2.15a.28.28,0,0,0,.19.26h.06C90.92,75.17,96.36,74,100.63,72a.32.32,0,0,0,.16-.36A144,144,0,0,1,96.36,53.2a24.49,24.49,0,0,0,5,1.07,7.52,7.52,0,0,0,1.5,0,8.11,8.11,0,0,0,2.5-.33,13,13,0,0,0,3-1.5L113.94,49a.33.33,0,0,0,.1-.42.32.32,0,0,0-.21-.15,18.67,18.67,0,0,1-3.32-1.16,10.5,10.5,0,0,0-9.42-.48,18.91,18.91,0,0,1-3.72.84,11.18,11.18,0,0,1-1.83,0q-.36-2.68-.62-5.39a37.05,37.05,0,0,1,8.83-4.16c5-1.93,9.62-3.68,11.15-7,.83-1.78,1.63-3.45,2.41-5.06,2.29-4.78,4.31-8.89,5.08-12.69a.3.3,0,0,0-.14-.31,9.61,9.61,0,0,1,1.6-.81,5.09,5.09,0,0,1,2.42-.62,6.66,6.66,0,0,1,1.26.23,1.45,1.45,0,0,0,.42.12c1.58.39,4.13,1.06,4.13,1.06h.15c.53-.1.62-.43.62-.57a.84.84,0,0,0-.55-.75l-2.22-1.06H130a4.29,4.29,0,0,1-1.45-.64,11.51,11.51,0,0,1,3.39.55c.72.18,1.47.37,2.22.5.52.1.76-.08.87-.25a1,1,0,0,0-.1-1c-.37-.44-1.8-.83-3.72-1.24A22.13,22.13,0,0,1,135,9a.74.74,0,0,0,.8-.53A.79.79,0,0,0,135.43,7.51Zm-65.74,7.3a2.13,2.13,0,0,1-1.32,0,2.39,2.39,0,0,1-1.32-1.22,2.52,2.52,0,0,1,1.16-3.13.31.31,0,0,0,.17-.4h0a.31.31,0,0,0-.4-.18h0a.91.91,0,0,1-.83-.12,1.45,1.45,0,0,1-.68-1,2.21,2.21,0,0,1,1.07-2,6,6,0,0,1,2-.69L70,6a.27.27,0,0,0,.2-.17.3.3,0,0,0,0-.26,2,2,0,0,1,.51-2.27,3.21,3.21,0,0,1,2.35-.79,2.88,2.88,0,0,1,1.59.42,1.85,1.85,0,0,1,.79,1.39.33.33,0,0,0,.34.28.31.31,0,0,0,.23-.14,3.09,3.09,0,0,1,2.86-1.59,3.2,3.2,0,0,1,2.25,2.27.32.32,0,0,0,.25.24.31.31,0,0,0,.32-.14,2.51,2.51,0,0,1,1.86-1.37,1.54,1.54,0,0,1,1.34.49,3,3,0,0,1,.13,2.59h0a.3.3,0,0,0,.19.38h0a.28.28,0,0,0,.25,0,1.69,1.69,0,0,1,1.42-.16,1.84,1.84,0,0,1,1.17,1.06,3.86,3.86,0,0,1,0,2.64L87.16,12a4.13,4.13,0,0,1-2.74.59L84,12.46a4,4,0,0,1-.82-.3,4.69,4.69,0,0,1-1.3-1.25l-.29-.47a3.2,3.2,0,0,1-.27-.56.28.28,0,0,0-.15-.15.32.32,0,0,0-.41.15,3.23,3.23,0,0,1-1.86,2.06,1.63,1.63,0,0,1-2.14-.6.31.31,0,0,0-.41-.15.3.3,0,0,0-.18.25A3.64,3.64,0,0,1,74,13.79c-.67.07-1-.1-1.41-.93a.3.3,0,0,0-.23-.16l-.11,0a.32.32,0,0,0-.23.09c-.18.2-.36.41-.53.63a4.79,4.79,0,0,1-1.06,1Zm17.36-2.1c-.08,1-.19,2-.31,2.94a1.81,1.81,0,0,0-1.83.28,18.23,18.23,0,0,0-.4-2.65v-.13a4.64,4.64,0,0,0,2.54-.44ZM77.14,29.09a7.64,7.64,0,0,1-4.4-1.74,7.76,7.76,0,0,1-2.31-5.68c-.08-.93,0-1.91,0-2.78a27.18,27.18,0,0,0,0-3.61h0a5.37,5.37,0,0,0,1.62-1.49l.24-.26a1.54,1.54,0,0,0,1.85.81,4.32,4.32,0,0,0,2.46-2.25,2.34,2.34,0,0,0,2.56.35A3.5,3.5,0,0,0,81,10.66l.42.67a4.93,4.93,0,0,0,1.44,1.33,5,5,0,0,0,1.14.41c0,.11.4,2.15.45,3.07v1.48a.33.33,0,0,0,.31.32s.27-.08.29-.24v-.89a1.51,1.51,0,0,1,1.63-.57l.77.66c.24.46-.24,1.55-.27,1.58l-1,.6a2.87,2.87,0,0,1-1.23.13s-.4.33-.4.41v.59a26.65,26.65,0,0,1-.19,2.9h0a7.53,7.53,0,0,1-.81,2.9,7.09,7.09,0,0,1-1,1.12l-.44.37a7,7,0,0,1-3.6,1.59c-.25,0-.49,0-.74,0Zm.72.43h.57A7.69,7.69,0,0,0,82.32,28c1.06,2,3.07,5.27,3.16,5.39a15.49,15.49,0,0,1-1.77,3.83h0l-.37.49a1.24,1.24,0,0,1-1.17.23l-.58-.31a5.21,5.21,0,0,1-2.44-1.85c-.13-.32-1-4.71-1.29-6.23Zm6.08,8.57.42.32c.33.29.71.57.71.93a1.39,1.39,0,0,1-.42.82s-.89,1.09-1.89.77a4,4,0,0,1-.83-.47,1.17,1.17,0,0,1-.28-.8,2.35,2.35,0,0,1,.18-1.2,3.37,3.37,0,0,0,.93.25,1.49,1.49,0,0,0,.47-.07A2,2,0,0,0,83.94,38.09ZM80.81,76c-1.15.87-2.87,2-4.56,1.61A5.22,5.22,0,0,1,73,74.51a2.32,2.32,0,0,1,.27-2c.59-.86,1.84-1,3-1.11l6.17-.48h.14c.38.81.79,1.61,1.22,2.39a31.21,31.21,0,0,1-3,2.62Zm19.4-4.56h-.1c-4.11,1.83-9.32,3-14.32,4-.46-.65-1.28-2-1.28-2L82.9,70.24s-3.33-9.79-4.54-14.8c-.61-2.38-1.18-4.85-1.86-7.2a.31.31,0,0,0-.2-.19.31.31,0,0,0-.38.19c-.83,2.13-1.45,4.13-2.07,6.13a41.07,41.07,0,0,1-2.42,6.33A42.71,42.71,0,0,1,68,66l-4.84,6.61A27.65,27.65,0,0,1,58.89,69a63.39,63.39,0,0,0,10-20.91,32.82,32.82,0,0,1,2.7-7c2.07-3.52,4.17-5.26,6.64-6.32a5.32,5.32,0,0,0,.41,1.34,5.78,5.78,0,0,0,2.62,2.09A3.17,3.17,0,0,0,81,39.72a1.87,1.87,0,0,0,.45,1.17,2.17,2.17,0,0,0,.74.49,3.75,3.75,0,0,0,.47.17,3.2,3.2,0,0,0,.61,1.57A24.51,24.51,0,0,0,95.78,53a139.58,139.58,0,0,0,4.43,18.37ZM97.37,48.29a19.68,19.68,0,0,0,3.79-.88,9.93,9.93,0,0,1,9,.44h0a25.69,25.69,0,0,0,2.7,1l-4.92,3.08a13.87,13.87,0,0,1-2.79,1.43,9.92,9.92,0,0,1-3.72.23,23.61,23.61,0,0,1-5.18-1.13c-.23-1.41-.44-2.82-.64-4.24A11.47,11.47,0,0,0,97.37,48.29Zm-1.7,4a23.92,23.92,0,0,1-11.91-9.48,2.59,2.59,0,0,1-.48-1.16h.4a2.6,2.6,0,0,0,.95-.45,26.42,26.42,0,0,0,5.24,4.89,11.84,11.84,0,0,0,5.18,2c.19,1.45.38,2.82.62,4.18Zm26.12-38.93C121,17,119,21,116.79,25.65c-.78,1.62-1.59,3.28-2.42,5.07-1.42,3.09-6,4.77-10.8,6.63-3.31,1.25-6.72,2.54-9.11,4.33a.31.31,0,0,0-.12.28c.17,1.86.39,3.72.63,5.57a11.26,11.26,0,0,1-4.7-1.87,25.93,25.93,0,0,1-5.17-4.92,5.13,5.13,0,0,0,.62-.85v-.06a1.55,1.55,0,0,0-1-1.94l-.43-.32a15.48,15.48,0,0,0,1.8-4,.53.53,0,0,0,0-.25l-.32-.48c2.15-.44,4.28-1,6.37-1.59a53.44,53.44,0,0,1,7-1.25c4.13-.55,8-1.1,9.22-2.79,3.72-5.39,7.89-11.42,9.29-15.22.16,0,4.12,1.34,4.14,1.35Zm13.32-5a.22.22,0,0,1-.13.08,44.45,44.45,0,0,0-7.28-.63h0a.28.28,0,0,0-.27.28.31.31,0,0,0,.18.16c.35.12,1.15.29,2.08.49,1.61.35,4.3.92,4.74,1.35a.47.47,0,0,1,.12.32h-.23c-.72-.13-1.45-.31-2.18-.49-1.76-.45-3.33-.84-4.26-.39a.3.3,0,0,0-.17.22.28.28,0,0,0,.06.25,4,4,0,0,0,2.12,1.2l2.2,1h.08a.18.18,0,0,1,.1.11c-.42-.07-2.63-.65-4.06-1l-.41-.11a5.72,5.72,0,0,0-1.37-.26l-.12.08a5.92,5.92,0,0,0-2.54.7,11,11,0,0,0-2,1.08L119.43,12a8.65,8.65,0,0,0,.73-1.78c.1-.36.17-.73.25-1.09A7.87,7.87,0,0,1,121,7.2a4.16,4.16,0,0,1,.59-.85,3.88,3.88,0,0,0,.85-1.4,10.94,10.94,0,0,0,.32-3.37,5,5,0,0,1,0-.77.31.31,0,0,1,.41-.14.41.41,0,0,1,.16.16A11.54,11.54,0,0,1,124,5.26a.28.28,0,0,0,.1.21.25.25,0,0,0,.23.09,13.68,13.68,0,0,0,1.68-.4l.4-.07a18,18,0,0,0,2.24-.78,11.19,11.19,0,0,1,3.72-.93,2.42,2.42,0,0,1,1,.13h0a.09.09,0,0,1,0,.12h0a.09.09,0,0,1-.11.07h0c-1.37,0-2.93.85-4.37,1.58-.6.3-1.14.58-1.6.77a.31.31,0,0,0-.17.4.27.27,0,0,0,.24.19c.55.07,1.21.11,1.86.19s4.64.63,5.82,1.34c.07,0,0,.16,0,.16Z"/><path d="M105.32,144.22a36.24,36.24,0,0,1-5.89-2.28.31.31,0,0,1-.18-.4h0a.32.32,0,0,1,.18-.18,27.14,27.14,0,0,0,6.87-3.65h0a41.76,41.76,0,0,0,10.9-11.88,45.68,45.68,0,0,0,4-8.12,41,41,0,0,0,1.37-4.46c.06-.26.12-.52.17-.79a.25.25,0,0,1,.11-.17.3.3,0,0,1,.41,0h0a34.08,34.08,0,0,1,3.36,4.21.38.38,0,0,1,0,.21,39.43,39.43,0,0,1-3.13,10.06,36.32,36.32,0,0,1-6.93,10.07,38.65,38.65,0,0,1-9.18,7,2.1,2.1,0,0,1-1,.31,1.92,1.92,0,0,0-.78.2h-.17Zm20.59-27.6a29.84,29.84,0,0,0-2.79-3.55.34.34,0,0,0,0,.2,37.66,37.66,0,0,1-1.37,4.54,46.5,46.5,0,0,1-4,8.21,43.09,43.09,0,0,1-11,12.18h0a29.53,29.53,0,0,1-6.32,3.49,33.21,33.21,0,0,0,5,2,2.47,2.47,0,0,1,.93-.21,1.52,1.52,0,0,0,.78-.24,37.22,37.22,0,0,0,9-6.88,35.7,35.7,0,0,0,6.82-9.9,39.34,39.34,0,0,0,3-9.77Z"/><path fill="#fff" d="M126.25,116.55c-6.33-10-48.45-45.07-62.09-54.8C36.86,42.24.31,46.75.31,46.75s7.69,36,35,55.48c13.12,9.29,58.84,38.86,70.12,41.73.93-.41.93,0,1.8-.51a37.55,37.55,0,0,0,9.12-6.87,35.85,35.85,0,0,0,6.89-10A39.08,39.08,0,0,0,126.25,116.55Z"/><path d="M61.43,104.09a12.51,12.51,0,1,1,7.31-22.74h0a12.51,12.51,0,0,1-7.31,22.74ZM68.36,81.8a11.92,11.92,0,0,0-16.62,2.79h0A11.91,11.91,0,1,0,68.43,81.8Z"/><path d="M56.19,98.94A9,9,0,1,1,66.68,84.22h0A9.06,9.06,0,0,1,63,100.53a8.59,8.59,0,0,1-1.52.13A8.9,8.9,0,0,1,56.19,98.94Zm10-14.24h0a8.35,8.35,0,0,0-11.63,2h0v.06h0a8.44,8.44,0,1,0,11.79-2h0Z"/><path d="M155.28,120.15l-26.18-27a.28.28,0,0,0-.3-.09l-19.29,5.81C94.32,85.09,73.58,68.14,64.43,61.59a73.91,73.91,0,0,0-14.11-7.82h-.07a.29.29,0,0,0-.15-.16,102.94,102.94,0,0,0-34-7.43,99.12,99.12,0,0,0-15.79.27h0a.3.3,0,0,0-.27.33H0A100.76,100.76,0,0,0,4.86,61.65a104.68,104.68,0,0,0,8.41,16.64c.37.6,1.52,2.4,1.71,2.68,1.15,1.75,2.38,3.5,3.71,5.25l4.07,5.07a.47.47,0,0,0,.15.06,73.66,73.66,0,0,0,12.27,11.13C43,108.09,64,121.83,81.43,132.09l2.18,21.66a.33.33,0,0,0,.18.26l35,13.81h0a.31.31,0,0,0,.31-.31.43.43,0,0,0,0-.16L104.28,144c.38.12.74.24,1.07.32h.2a2.1,2.1,0,0,1,.78-.21,2,2,0,0,0,1-.3,38.17,38.17,0,0,0,5.1-3.33,43,43,0,0,1,6.94,8.55c.52.76.95,1.48,1.45,2.2a.3.3,0,0,0,.22.12h.09a.39.39,0,0,0,.21-.08,58.13,58.13,0,0,0,15.9-23.14V128a.3.3,0,0,0-.24-.32,53,53,0,0,1-12.37-3.78,39.17,39.17,0,0,0,1.94-7.13.41.41,0,0,0,0-.22c-.16-.26-.37-.55-.58-.84l29.07,5h0a.29.29,0,0,0,.28-.3h0A.33.33,0,0,0,155.28,120.15ZM5.43,61.42A100.37,100.37,0,0,1,.65,47.09,101,101,0,0,1,16,46.88,111.89,111.89,0,0,1,35.7,49.69h0l1.73.4,1.44.39.72.2c.84.24,1.69.49,2.54.76-1,2.51-2.14,5-3.33,7.42A90.73,90.73,0,0,1,34.15,67c-1.7,2.58-3.46,5.21-5.41,7.71s-3.95,4.87-6.07,7.14c-1.32,1.35-2.56,2.56-3.72,3.72A103,103,0,0,1,5.43,61.42ZM19.3,86c1.24-1.16,2.47-2.42,3.77-3.83,2.1-2.27,4.17-4.68,6.1-7.17s3.77-5.15,5.46-7.77a87.28,87.28,0,0,0,4.64-8.15c1.23-2.43,2.37-4.94,3.36-7.47,2.28.74,4.58,1.58,6.89,2.54l-.15.3c-1.33,2.67-2.57,5-3.72,7.18l-.19.36c-1.92,3.51-3.72,6.6-5.58,9.45a95.41,95.41,0,0,1-6.42,8.82A68.07,68.07,0,0,1,26,88.05c-.95.85-2,1.68-3.07,2.49C21.64,89.09,20.43,87.53,19.3,86Zm98.83,80.88-34-13.4-2.13-21c8.81,5.17,16.65,9.39,21.35,11.15Zm18.3-38.73h0a58.2,58.2,0,0,1-15.34,22.25c-.42-.61-.82-1.24-1.25-1.86a42.28,42.28,0,0,0-7-8.55,37.08,37.08,0,0,0,3.62-3.23,36.26,36.26,0,0,0,7-10.06c.35-.75.67-1.51,1-2.27A53.16,53.16,0,0,0,136.43,128.16ZM112,140a38.32,38.32,0,0,1-4.92,3.24c-.1.07-1.56.38-1.72.46-.45-.12-1-.3-1.54-.5,0,0-5.55-1.93-22.46-11.78-1.93-1.12-37.66-23.5-45.9-29.38a73.56,73.56,0,0,1-12.08-10.9,39.15,39.15,0,0,0,3.07-2.52A71.59,71.59,0,0,0,34,80.73a99.15,99.15,0,0,0,6.5-8.89c1.92-2.85,3.71-6,5.63-9.49,1.22-2.35,2.6-4.94,4.1-7.93A73.58,73.58,0,0,1,63.9,62c9.14,6.49,29.78,23.3,44.93,37.07,0,0,15,14.33,16.26,16.41a6.12,6.12,0,0,0,.81,1.15,38.72,38.72,0,0,1-1.85,6.93s-.82,2.11-1.15,2.84h-.05a35.88,35.88,0,0,1-6.81,9.9C114.91,137.48,112,140,112,140Zm13.52-25c-2.81-3.64-8.48-9.26-15.41-15.59l18.75-5.66,25.46,26.23Z"/><path fill="#acd4f7" d="M100.55,71.36c-2.48,2.07-7.12,1.27-11.21,1.22a53,53,0,0,0-5.48.41c-.26,0-.9-1.37-1.26-2.13L77,71.25a27.86,27.86,0,0,1,2.57,2.15s-3.45,1-6.51,1.91a11.34,11.34,0,0,0-4.23,2.56c-2.5,2.71-4.81.07,2.86,33.77a17.71,17.71,0,0,0,5.57-.49c-.44-9.21-.93-24.71-.13-25.25a15.59,15.59,0,0,1,4.08-.53c9.85,0,14.78.26,17.75-3.17S101.32,75.63,100.55,71.36Z"/><path d="M85.9,116.61a10.69,10.69,0,1,1,12.33,8.75h0a10.69,10.69,0,0,1-12.33-8.75Zm10.47-11.8a10,10,0,1,0,10,10A10,10,0,0,0,96.37,104.81Z"/><path d="M96.34,122.56a7.71,7.71,0,0,1,0-15.42h0a7.8,7.8,0,0,1,4.45,1.43h0a7.71,7.71,0,0,1-3.21,13.93A8.58,8.58,0,0,1,96.34,122.56Zm4.17-13.5-.1-.06a7,7,0,0,0-9.76,1.64v.07h0a7.1,7.1,0,1,0,9.91-1.66h0Z"/><path d="M69.09,120.71a.26.26,0,0,1-.13-.22c-.17-1.25.38-2.58,1.62-4.07.19-.19.38-.41.57-.62A6.44,6.44,0,0,0,73.32,112a9.52,9.52,0,0,1,.29-1.08,2.94,2.94,0,0,1,1.79-2,.33.33,0,0,1,.39.15c.26.5.52,1,.8,1.51.78,1.45,1.61,2.94,2.38,4.71a.33.33,0,0,1-.12.38l-3.71,2.26a22.26,22.26,0,0,1-5.84,2.79h-.08A.3.3,0,0,1,69.09,120.71Zm9.2-5.44c-.73-1.63-1.49-3-2.24-4.38l-.68-1.25a2.33,2.33,0,0,0-1.18,1.46,8.64,8.64,0,0,0-.26,1,7.13,7.13,0,0,1-2.31,4.1c-.18.19-.37.4-.55.62a5.23,5.23,0,0,0-1.52,3.23,22.92,22.92,0,0,0,5.31-2.65l3.43-2.11Z"/><path d="M71.69,111.94a.3.3,0,0,1-.26-.24c-6.92-30.39-5.79-31.38-3.53-33.35a9.73,9.73,0,0,0,.74-.69c2.18-2.37,7.17-4,14.86-4.94h.11a44.55,44.55,0,0,1,5.77-.44c.93,0,1.86,0,2.73.08,3.13.13,6.4.28,8.27-1.24a.3.3,0,0,1,.3-.06.32.32,0,0,1,.19.23c.71,3.91,1.37,7.58-1.67,11.1-2.86,3.28-7.55,3.28-16.08,3.28H81.27a17.72,17.72,0,0,0-3.84.42c-.57,1-.3,13.63.24,25a.31.31,0,0,1-.25.32,24.79,24.79,0,0,1-4.37.57A8.83,8.83,0,0,1,71.69,111.94Zm5.31-1c-.28-5.48-.47-11.31-.51-15.63-.14-9.19.29-9.47.54-9.64.67-.44,4-.58,4.25-.58h1.86c8.63,0,13,0,15.64-3.08s2.36-5.83,1.62-10.09c-2.07,1.35-5.22,1.2-8.29,1.06-.92,0-1.85-.09-2.69-.09a45.29,45.29,0,0,0-5.7.45h-.1c-9.38,1.1-13.06,3.18-14.5,4.73a6.91,6.91,0,0,1-.78.75c-2,1.66-3.12,2.68,3.72,32.51a17.54,17.54,0,0,0,5-.46Z"/><path d="M72.35,18.09a.5.5,0,0,0,.58.4h0a.47.47,0,0,0,.39-.55v0h0a.47.47,0,0,0-.55-.39h0a.5.5,0,0,0-.4.58h0Z"/><path d="M79.43,17.77a.46.46,0,0,0,.54.36h0a.52.52,0,0,0,.34-.63h0a.53.53,0,0,0-.62-.36h0a.49.49,0,0,0-.35.6h0Z"/><path d="M77.48,26.2h0a.31.31,0,0,1-.26-.35h0a.32.32,0,0,1,.36-.25h0a2.15,2.15,0,0,0,2.07-.93h0a.31.31,0,0,1,.42-.07h0a.33.33,0,0,1,.08.43h0a2.78,2.78,0,0,1-2.27,1.18A2.67,2.67,0,0,1,77.48,26.2Z"/><path d="M75.6,23.7a1.41,1.41,0,0,1-.67-.33,1.23,1.23,0,0,1-.35-1,2.72,2.72,0,0,1,.21-.79v-.11a9.22,9.22,0,0,0,.48-4,.31.31,0,0,1,.25-.34h0a.33.33,0,0,1,.34.27,9.47,9.47,0,0,1-.43,4.29v.11a2.72,2.72,0,0,0-.17.62.64.64,0,0,0,.14.53,1,1,0,0,0,.4.18,2.4,2.4,0,0,0,1.19,0,1.39,1.39,0,0,0,.85-.63h0a.31.31,0,0,1,.42-.12h0a.29.29,0,0,1,.11.38h0a1.83,1.83,0,0,1-1.24.93,2.29,2.29,0,0,1-.64.08A3,3,0,0,1,75.6,23.7Z"/><path d="M85.7,10.94h0a.28.28,0,0,1,.08-.39h0a2.06,2.06,0,0,0,.93-2.12h0A.3.3,0,0,1,87,8.08h0a.31.31,0,0,1,.36.23,2.7,2.7,0,0,1-1.19,2.78H86A.3.3,0,0,1,85.7,10.94Z"/><g opacity=".13"><path d="M81.12,10.09a.49.49,0,0,1,0,.24,1.48,1.48,0,0,1-.12.41h0a3.81,3.81,0,0,1-.52,1,4.29,4.29,0,0,1-1.34,1.17,3.89,3.89,0,0,1-1.13.48h0a1.47,1.47,0,0,1-.92-.12,1.92,1.92,0,0,1-.56-.42,6.54,6.54,0,0,1-.62.93,5,5,0,0,1-.88.77,1.88,1.88,0,0,1-1.67.25,3.24,3.24,0,0,1-.93-.71,2.2,2.2,0,0,1-.17.25,5.2,5.2,0,0,1-1.37,1.19.43.43,0,0,1-.46,0h0a.43.43,0,0,1-.16-.58c.11-.19.35-.26.52-.39a6,6,0,0,0,.83-.45h0l.13-.12c.11-.12.18-.25.28-.36h0a.77.77,0,0,0,.07-.16.37.37,0,0,1,.3-.24h0a1.67,1.67,0,0,0,.34.45.06.06,0,0,0,0,.06h0a1,1,0,0,0,.13.16.73.73,0,0,0,.31.17.67.67,0,0,0,.34.09h.65a3.25,3.25,0,0,0,1.12-.75h0l.14-.32c.18-.24.37-.48.54-.73a.51.51,0,0,1,.1-.21.46.46,0,0,1,.3-.49h.06a.38.38,0,0,1,.4.33.14.14,0,0,1,0,.09h0a.23.23,0,0,1,.2,0h.09a3.51,3.51,0,0,0,.79.06h-.07A3.3,3.3,0,0,0,78.6,12h.1a.29.29,0,0,1,.36.09,4,4,0,0,0,1-1c.08-.14.15-.3.22-.44a.44.44,0,0,0,.07-.19l.31-.45a.32.32,0,0,1,.44.08Z"/></g><path d="M86.9,36.63h0a.31.31,0,0,1,0-.42h0a6,6,0,0,0,.93-2.56.32.32,0,0,1,.34-.28.29.29,0,0,1,.27.31h0a6.39,6.39,0,0,1-1,2.86.29.29,0,0,1-.25.14A.39.39,0,0,1,86.9,36.63Z"/><path d="M88.43,37.59a.29.29,0,0,1-.31-.27h0a.27.27,0,0,1,.09-.21h0l.79-.93a.31.31,0,0,1,.42,0h0a.31.31,0,0,1,0,.44h0l-.79.93a.28.28,0,0,1-.23.11Z"/><path d="M93.33,71.09a.33.33,0,0,1,.26-.34A21,21,0,0,0,99,69.24a.32.32,0,0,1,.4.17h0a.3.3,0,0,1-.17.38,20.74,20.74,0,0,1-5.63,1.55h0A.3.3,0,0,1,93.33,71.09Z"/><g opacity=".13"><path d="M63.81,60.28h0a.72.72,0,0,0-.17,1h0c.16.23.46.3.67.46l1.3.82a31.23,31.23,0,0,1,3,2.37.71.71,0,0,0,1-1h0a27.45,27.45,0,0,0-3.13-2.45l-1.38-.92a2.51,2.51,0,0,0-.93-.45A.71.71,0,0,0,63.81,60.28Z"/></g><path d="M98.55,118.8l-.73-8.36h0a.07.07,0,0,1,0-.09h0a.08.08,0,0,1,.1.06h0l.73,8.36a.1.1,0,0,1-.09.11h0A.11.11,0,0,1,98.55,118.8Z"/><path d="M95.32,120.09h0a.1.1,0,0,1-.08-.11l-.33-10.42h0a.11.11,0,0,1,.09-.1h0a.09.09,0,0,1,.11.07h0L95.43,120h0a.09.09,0,0,1-.08.1h0Z"/><path d="M63.43,93.84h0a.09.09,0,0,1-.1-.08h0l-.2-4.65h0a.12.12,0,0,1,.14-.08.13.13,0,0,1,.08.13l.18,4.64h0a.11.11,0,0,1-.09.1h0Z"/><path d="M60.43,97.55c0-4.15-.15-8.36-.36-12.51a.1.1,0,0,1,.07-.08.12.12,0,0,1,.13.07h0c.22,4.14.37,8.36.37,12.51h0a.11.11,0,0,1-.11.1h0A.11.11,0,0,1,60.43,97.55Z"/><path d="M77.1,115a.11.11,0,0,1-.12-.06h0a13,13,0,0,0-1.06-2.55.11.11,0,0,1,0-.15.11.11,0,0,1,.13,0,13.13,13.13,0,0,1,1.09,2.6h0a.12.12,0,0,1-.06.13h0Z"/><path d="M76.23,115.78a8.86,8.86,0,0,0-.7-2.07.1.1,0,0,1,0-.14h0a.11.11,0,0,1,.13,0h0a9.38,9.38,0,0,1,.72,2.13h0a.12.12,0,0,1-.07.1h0A.11.11,0,0,1,76.23,115.78Z"/><path d="M75.43,116.57h0a.11.11,0,0,1-.09-.1h0a5.26,5.26,0,0,0-.5-2.17h0a.14.14,0,0,1,.1-.11h0a.12.12,0,0,1,.11.1,5.45,5.45,0,0,1,.52,2.25.11.11,0,0,1-.1.11h0Z"/><path d="M74.35,117.16h0s-.06,0-.06-.08h0a7.51,7.51,0,0,0-.3-2h0a.1.1,0,0,1,.08-.1h0a.09.09,0,0,1,.11.07h0a8.43,8.43,0,0,1,.25,2h0a.1.1,0,0,1-.11.09h0Z"/><path d="M73.2,117.94h0a.11.11,0,0,1-.1-.11h0a17,17,0,0,0-.14-2.14h0a.09.09,0,0,1,.08-.1h0a.11.11,0,0,1,.11.11h0a17.44,17.44,0,0,1,.14,2.17h0a.09.09,0,0,1-.08.1h0Z"/><path d="M72.09,118.41h0a.12.12,0,0,1-.09-.1,12.78,12.78,0,0,0,0-1.75h0a.1.1,0,0,1,.08-.11h0a.09.09,0,0,1,.11.07h0a10.58,10.58,0,0,1,0,1.78h0a.09.09,0,0,1-.08.08h0Z"/><path d="M71,119.23h0a.09.09,0,0,1-.08-.08h0a6.84,6.84,0,0,0,0-1.43.1.1,0,0,1,.09-.11h0a.09.09,0,0,1,.11.07h0a6.11,6.11,0,0,1,0,1.48.12.12,0,0,1-.1.09Z"/><path d="M109.53,50.16h0a.12.12,0,0,1,0-.14h0a15.65,15.65,0,0,0,1.09-1.48.1.1,0,0,1,.14,0h0a.12.12,0,0,1,0,.14,18,18,0,0,1-1.1,1.5h-.07Z"/><path d="M106.53,52.28a.12.12,0,0,1,0-.14q1.59-2,3.06-4.1h0a.11.11,0,0,1,.19.11h0c-.93,1.39-2,2.79-3.07,4.1h-.14Z"/><path d="M104.27,52.94a.12.12,0,0,1,0-.14c1.38-1.69,2.7-3.45,4-5.25h0a.17.17,0,0,1,.14,0,.11.11,0,0,1,0,.15c-1.25,1.79-2.57,3.57-4,5.26h-.08Z"/><path d="M102.61,53.26a.11.11,0,0,1,0-.13,50.34,50.34,0,0,0,4.16-5.7h0a.09.09,0,0,1,.12,0h0a.09.09,0,0,1,0,.13h0a47.87,47.87,0,0,1-4.18,5.72.06.06,0,0,1-.08,0S102.62,53.29,102.61,53.26Z"/><path d="M101.12,53.09a.1.1,0,0,1,0-.14,66.64,66.64,0,0,0,4.32-5.7.12.12,0,0,1,.14,0h0a.17.17,0,0,1,0,.14,69.07,69.07,0,0,1-4.39,5.7Z"/><path d="M99.56,52.94h-.08a.11.11,0,0,1,0-.13h0a49.48,49.48,0,0,0,4.38-5.51.09.09,0,0,1,.1,0h0a.1.1,0,0,1,.06.13h0A47,47,0,0,1,99.65,53a.06.06,0,0,1-.08,0Z"/><path d="M98.14,52.7h0a.12.12,0,0,1,0-.14h0a61.42,61.42,0,0,0,4-4.81.1.1,0,0,1,.14,0h0a.12.12,0,0,1,0,.14c-1.27,1.67-2.61,3.28-4,4.83h-.15Z"/><path d="M96.86,52.33h-.09a.09.09,0,0,1,0-.13h0c1.24-1.35,2.54-2.79,3.71-4.17h0a.1.1,0,0,1,.14,0h0a.1.1,0,0,1,0,.14c-1.18,1.43-2.45,2.78-3.71,4.18h0Z"/><path d="M95.43,51.83h0a.09.09,0,0,1,0-.13h0a35.75,35.75,0,0,0,2.9-3,.08.08,0,0,1,.11,0,.12.12,0,0,1,0,.14c-.93,1-1.92,2-2.91,3h-.1Z"/><path d="M94.21,51.37h0a.11.11,0,0,1,0-.13h0c.8-.72,1.59-1.5,2.34-2.29h0a.12.12,0,0,1,.14,0h0a.12.12,0,0,1,0,.14c-.75.81-1.54,1.57-2.35,2.31h-.13Z"/><path d="M93.2,50.72a.12.12,0,0,1,0-.14h0l1.86-1.8a.11.11,0,0,1,.15,0h0a.11.11,0,0,1,0,.15l-1.86,1.8Z"/><path d="M91.89,50.28h0a.11.11,0,0,1,0-.15h0l1.76-1.65a.11.11,0,0,1,.13,0h0a.12.12,0,0,1,0,.14L92,50.28Z"/><path d="M91.11,49.63a.08.08,0,0,1-.09,0,.1.1,0,0,1,0-.14,12.25,12.25,0,0,0,1.41-1.29h0a.12.12,0,0,1,.14,0h0a.11.11,0,0,1,0,.15,17.62,17.62,0,0,1-1.42,1.31h0Z"/><path d="M90.16,48.94h0a.09.09,0,0,1,0-.13h0l1.27-1.17h0a.14.14,0,0,1,.15,0h0a.15.15,0,0,1,0,.16L90.3,49h-.11Z"/><path d="M89.18,48.43a.1.1,0,0,1,0-.14h0a11,11,0,0,1,1.25-1h0a.12.12,0,0,1,.14,0h0a.12.12,0,0,1,0,.14,13.48,13.48,0,0,0-1.26,1Z"/><path d="M88.31,47.61a.11.11,0,0,1,0-.15,10.07,10.07,0,0,0,1.14-.93.11.11,0,0,1,.11,0,.14.14,0,0,1,0,.15,14.75,14.75,0,0,1-1.16.93Z"/><path d="M87.43,46.72h0a.09.09,0,0,1,0-.13h0l1-.76h0a.12.12,0,0,1,.14,0h0a.12.12,0,0,1,0,.14l-1,.76h-.14Z"/><path d="M86.74,45.78h-.09a.12.12,0,0,1,0-.14l.69-.53h0a.11.11,0,0,1,.15,0h0a.1.1,0,0,1,0,.14l-.7.55h-.06Z"/><path d="M85.8,45.09h0a.1.1,0,0,1,0-.14h0l.72-.62a.11.11,0,0,1,.15,0h0a.11.11,0,0,1,0,.15L86,45.1H85.8Z"/><path d="M85.09,44.25a.1.1,0,0,1,0-.14c.24-.14.48-.3.72-.47a.1.1,0,0,1,.14,0,.09.09,0,0,1,0,.1h0c-.23.17-.48.33-.73.48h-.13Z"/><path d="M84.43,43.42h0a.12.12,0,0,1,0-.14h0l.76-.47h0a.08.08,0,0,1,.11,0h0a.09.09,0,0,1,0,.13h0l-.75.48Z"/><path d="M83.83,42.46h0a.1.1,0,0,1,.06-.13h0l.66-.35a.11.11,0,0,1,.15,0h0a.11.11,0,0,1,0,.13l-.67.35H84a.06.06,0,0,1-.08,0Z"/><path d="M82.75,40.55a.11.11,0,0,1,0-.15,10.2,10.2,0,0,0,1.42-.93h0a.11.11,0,0,1,.13,0h0a.1.1,0,0,1,0,.14,9.58,9.58,0,0,1-1.45,1h0A.09.09,0,0,1,82.75,40.55Z"/><path d="M82,39.84a.09.09,0,0,1,0-.13h0a9.9,9.9,0,0,0,1-.57h0a.1.1,0,0,1,.14,0h0a.11.11,0,0,1,0,.13,10.81,10.81,0,0,1-1.06.57Z"/><path d="M47.6,56.21h0a.06.06,0,0,1-.08,0h0L47,53.9h0a.1.1,0,0,1,.08-.1.12.12,0,0,1,.13.07h0l.48,2.31h0a.09.09,0,0,1-.07.11h0Z"/><path d="M46.22,59a58.13,58.13,0,0,0-1.06-5.84h0a.09.09,0,0,1,.08-.1h0a.1.1,0,0,1,.1.07h0a52.31,52.31,0,0,1,1.09,5.82h0a.09.09,0,0,1-.07.11h0a.08.08,0,0,1-.1-.06h0Z"/><path d="M45,61.57h0a.1.1,0,0,1-.09-.07h0c-.33-3-.76-6-1.25-9h0a.09.09,0,0,1,.09-.09h0a.12.12,0,0,1,.08.13h0c.48,3,.93,6,1.26,9a.11.11,0,0,1-.1.11h0Z"/><path d="M43.53,64.34h0a.09.09,0,0,1-.09-.08h0c-.31-3.59-.69-7.24-1.12-10.83h0a.09.09,0,0,1,.07-.11h0a.1.1,0,0,1,.12.08h0c.44,3.6.82,7.25,1.13,10.84a.12.12,0,0,1-.1.12h0Z"/><path d="M42.12,66.27h0s-.09,0-.09-.07h0l-.93-9.29a.1.1,0,0,1,.09-.11h0a.09.09,0,0,1,.11.07h0l.93,9.29a.12.12,0,0,1-.09.11h0Z"/><path d="M40.87,68.94a.11.11,0,0,1-.1-.11h0l-1-9.22a.06.06,0,0,1,0-.06h0a.1.1,0,0,1,.12-.06h0a.12.12,0,0,1,.07.13l1,9.21a.12.12,0,0,1-.09.12h0Z"/><path d="M39.43,71.29h0a.12.12,0,0,1-.11-.1q-.54-4.5-.93-9a.13.13,0,0,1,.09-.12.14.14,0,0,1,.12.11c.23,3,.53,6,.92,9A.14.14,0,0,1,39.43,71.29Z"/><path d="M37.76,73.65a.09.09,0,0,1-.1-.08h0L37,64.81a.1.1,0,0,1,.08-.07.13.13,0,0,1,.14.07h0l.62,8.76a.1.1,0,0,1-.09.11h0Z"/><path d="M36.14,75.94h0a.1.1,0,0,1-.08-.1C36,73,35.85,70,35.65,67.15a.12.12,0,0,1,.09-.11h0a.09.09,0,0,1,.1.08h0c.22,2.88.36,5.81.42,8.7a.09.09,0,0,1-.08.1h0Z"/><path d="M34.6,77.94a.13.13,0,0,1-.11-.11l-.44-8.29a.1.1,0,0,1,.07-.08.1.1,0,0,1,.13.06h0l.46,8.3h0a.12.12,0,0,1-.09.12h0Z"/><path d="M33.3,79.45h0a.08.08,0,0,1-.1-.06h0l-.63-7.74a.1.1,0,0,1,.09-.07.1.1,0,0,1,.13.06h0l.62,7.74a.12.12,0,0,1-.09.11h0Z"/><path d="M31.64,81.28c-.19-2.5-.33-5.11-.4-7.64a.08.08,0,0,1,.07-.08.1.1,0,0,1,.13.06h0c.08,2.53.21,5.13.41,7.63,0,.07,0,.11-.09.11h0a.1.1,0,0,1-.12-.08Z"/><path d="M30.26,83.09a.11.11,0,0,1-.11-.11h0l-.52-7.61h0a.09.09,0,0,1,.11-.07h0a.11.11,0,0,1,.07.14h0l.52,7.61h0a.09.09,0,0,1-.08.1h0Z"/><path d="M28.87,84.43h0a.14.14,0,0,1-.09-.09h0c-.33-2.3-.56-4.65-.7-7h0a.08.08,0,0,1,0-.09h0a.09.09,0,0,1,.11.07h0c.14,2.31.37,4.65.7,7h0a.09.09,0,0,1-.07.11h.05Z"/><path d="M26.93,86.61l-.36-7.33a.12.12,0,0,1,.1-.11h0a.14.14,0,0,1,.11.1l.35,7.32h0a.08.08,0,0,1-.06.1h0a.11.11,0,0,1-.14-.07h0Z"/><path d="M25.12,88.24h0a.11.11,0,0,1-.1-.1h0v-7.2h0a.14.14,0,0,1,.09-.09h0a.12.12,0,0,1,.09.1v7.24h0s0,.08-.07.09h0Z"/><path d="M23.43,89.3h0s-.1-.06-.09-.11l.15-6.55h0a.12.12,0,0,1,.09-.1h0a.11.11,0,0,1,.11.11h0l-.13,6.58h0a.11.11,0,0,1-.09.1h0Z"/><path d="M21.79,87.94a.1.1,0,0,1-.09-.11h0a20.58,20.58,0,0,0,.06-3.51.12.12,0,0,1,.09-.12h0a.12.12,0,0,1,.11.09h0a21.05,21.05,0,0,1-.07,3.55h0s0,.08-.07.09h0Z"/><path d="M125.43,117.94a.11.11,0,0,1-.12-.06h0l-.63-2a.12.12,0,0,1,.06-.13h0a.13.13,0,0,1,.12,0h0l.63,2a.12.12,0,0,1-.08.13Z"/><path d="M124.57,120.43h0a.1.1,0,0,1-.1-.08h0c-.34-1.8-.76-3.61-1.26-5.38h0a.13.13,0,0,1,0-.12h0a.12.12,0,0,1,.13.07c.49,1.77.93,3.59,1.25,5.39h0a.09.09,0,0,1-.07.11h0Z"/><path d="M123.43,123.32c-.26-2-.62-4-1-6h0a.08.08,0,0,1,.06-.1h0a.09.09,0,0,1,.1,0h0c.42,2,.78,4,1,6h0a.11.11,0,0,1-.07.12h0a.11.11,0,0,1-.1-.11Z"/><path d="M122.27,126h0a.1.1,0,0,1-.11-.09h0c-.21-2-.47-4-.77-5.91a.09.09,0,0,1,.07-.11h0a.09.09,0,0,1,.11.07h0c.31,2,.57,4,.78,5.92a.12.12,0,0,1-.09.11Z"/><path d="M121.07,128.61a.12.12,0,0,1-.09-.11l-.64-6.26v0a.11.11,0,0,1,.09-.1.13.13,0,0,1,.11.12h0l.63,6.26a.12.12,0,0,1-.09.11h0Z"/><path d="M119.7,130.94h0s-.08,0-.09-.07h0l-.62-6h0a.09.09,0,0,1,0-.12h0a.12.12,0,0,1,.12.1h0l.63,6a.12.12,0,0,1-.1.11h0Z"/><path d="M118,133.17a.08.08,0,0,1-.09-.07h0l-.44-5.69a.12.12,0,0,1,.09-.11h0a.12.12,0,0,1,.11.09h0l.42,5.69h0a.08.08,0,0,1-.07.09h0Z"/><path d="M116.33,135.32h0a.1.1,0,0,1-.08-.1h0c0-1.86-.09-3.71-.2-5.57a.13.13,0,0,1,.11-.11h0a.09.09,0,0,1,.1.08h0c.11,1.86.2,3.71.2,5.63a.12.12,0,0,1-.11.1h0Z"/><path d="M114.32,136.94c.11-1.79.11-3.6.11-5.38a.09.09,0,0,1,.08-.1h0a.09.09,0,0,1,.1.08h0c0,1.78,0,3.59-.1,5.39a.09.09,0,0,1-.11.07h0a.1.1,0,0,1-.08-.07Z"/><path d="M112.56,138.94h0a.09.09,0,0,1-.08-.1h0a49,49,0,0,0,.27-5.14.08.08,0,0,1,.06-.1h0a.09.09,0,0,1,.11.07h0a49.59,49.59,0,0,1-.27,5.17h0a.09.09,0,0,1-.08.08h0Z"/><path d="M110.62,140.39a.09.09,0,0,1-.09-.09h0c.23-1.52.4-3.07.51-4.64a.06.06,0,0,1,0-.06h0a.07.07,0,0,1,.07-.07h0a.11.11,0,0,1,.08.11h0c-.11,1.54-.28,3.13-.5,4.65a.11.11,0,0,1-.1.09Z"/><path d="M108.54,141.87h0a.1.1,0,0,1-.08-.12h0c.35-1.58.64-3.18.84-4.79h0a.08.08,0,0,1,0-.09h0a.08.08,0,0,1,.1.06h0c-.21,1.62-.49,3.23-.83,4.81a.15.15,0,0,1-.1.09Z"/><path d="M106.62,142.88h0a.06.06,0,0,1-.06-.06h0c.34-1.45.62-2.91.93-4.37a.09.09,0,0,1,.09-.09h0a.09.09,0,0,1,.08.08h0c-.28,1.45-.56,2.92-.93,4.37a.1.1,0,0,1-.1.08Z"/><path d="M105,142.94h0a.12.12,0,0,1-.07-.13h0l.75-3.22a.09.09,0,0,1,.09-.09h0a.12.12,0,0,1,.07.13l-.75,3.24a.1.1,0,0,1-.09.07Z"/><path d="M103.27,142.3a.1.1,0,0,1,0-.14h0l.46-1.48h0a.1.1,0,0,1,.13-.05h0a.13.13,0,0,1,0,.12l-.48,1.53a.12.12,0,0,1-.13.11h0A.1.1,0,0,1,103.27,142.3Z"/><g opacity=".13"><path d="M77.73,30.48a3.77,3.77,0,0,1,.14,1,2.12,2.12,0,0,0,.06.71.54.54,0,0,0,.69.33h0c.54-.25.87-.81,1.32-1.2l2.78-2.79a.59.59,0,0,0-.08-.82h0a.56.56,0,0,0-.54-.11,3.06,3.06,0,0,0-.53.42,1.33,1.33,0,0,0-.38.18l-.07.06a6.16,6.16,0,0,1-.68.34,8.47,8.47,0,0,1-1.31.46,3,3,0,0,0-1.32.44A.9.9,0,0,0,77.73,30.48Z"/></g><g opacity=".13"><path d="M83.76,43.5c.12.44.22.85.35,1.26a11,11,0,0,0,.57,1.37,10.43,10.43,0,0,0,.75,1,46.47,46.47,0,0,0,3.24,3.49A23.42,23.42,0,0,0,93,53.79,21.61,21.61,0,0,0,95,55c.36.2.74.56,1.18.36s.52-.93.44-1.37a2.1,2.1,0,0,0-.39-1.16l-.19-.14H96a29.22,29.22,0,0,1-5.9-3.37h0a.27.27,0,0,1-.37,0l-.81-.66a.48.48,0,0,0-.23.07c-.43-.44-.84-.93-1.25-1.34l-.19-.21c-.4-.37-.79-.74-1.16-1.13-.81-.83-1.52-1.73-2.26-2.61Z"/></g><g opacity=".13"><path d="M76.57,86.44a.8.8,0,0,0,.64.92,15,15,0,0,0,3.61.19c1.8-.1,3.58-.32,5.38-.45,1.64-.13,3.32-.31,4.5-.48.93-.14,2-.2,2.94-.43a.63.63,0,0,0,.19-.87.61.61,0,0,0-.52-.29,51.84,51.84,0,0,1-5.42.56c-.93.06-1.86.09-2.79.13a.6.6,0,0,0-.21-.14,2.15,2.15,0,0,0-.8,0H82.28a24.91,24.91,0,0,0-4.14.19,2.75,2.75,0,0,0-1.43.34A.81.81,0,0,0,76.57,86.44Z"/></g><g opacity=".13"><path d="M68.43,118.49"/></g><g opacity=".13"><path d="M67.24,95.4a21.1,21.1,0,0,1,.38,2.08c0,.29.36,3.06.63,4.58.44,1.93.79,3.87,1.14,5.82a20.59,20.59,0,0,0,1.46,4.65c-.09.17-.15.4-.24.57-.28.68-.53,1.37-.79,2-.4,1.08-.79,2-1.09,2.78a4.39,4.39,0,0,0-.26.63v.24a8.09,8.09,0,0,0-.53,2,.6.6,0,0,0,.18.49.69.69,0,0,0,.45.2h0a.65.65,0,0,0,.68-.6h0c.07-.3.14-.62.24-.93a11.73,11.73,0,0,1,1.75-3,14.08,14.08,0,0,0,2.25-3.54,1,1,0,0,0,.12-.53.92.92,0,0,0-.91-.93h-.63l-.07-.12a10.86,10.86,0,0,1-.63-1.73,34.58,34.58,0,0,1-1.09-4.92c-.22-1.18-.52-2.33-.75-3.5-.46-2.3-.63-4.64-1.25-6.88a.53.53,0,0,0-.24-.31h0a.58.58,0,0,0-.78.16C67,94.76,67.18,95.09,67.24,95.4Z"/></g><g opacity=".13"><path d="M19.7,86.89c.21.27.44.54.66.8l1.7,2.22a.51.51,0,0,0,0,.45,4.79,4.79,0,0,0,.62.73,80.18,80.18,0,0,0,8,7.64,40.54,40.54,0,0,0,3.54,2.72c.93.68,1.78,1.3,2.69,1.92a18.8,18.8,0,0,0,1.73,1.36c1.72,1.25,3.54,2.35,5.3,3.55,2.09,1.39,4.1,2.78,6.25,4.24s4.44,2.59,6.58,4c2.33,1.52,4.65,3,7,4.64,2.65,1.86,5.29,3.72,8.07,5.31A44.13,44.13,0,0,0,76.26,129l3.17,1.61c.19.35.72.56,1.13.92.59.41,1.16.79,1.79,1.17a.9.9,0,0,0-.4.23v.41c.25,1.51.47,3,.62,4.55.1.93.2,1.86.27,2.73.35.57.85.62,1.66.68,1.1.12,1.66.18,3,.41,5.32.93,10.57,2.34,15.79,3.54a.75.75,0,0,0,.93-.46h0a.75.75,0,0,0-.32-.79l.55.22h.11a.72.72,0,0,0,.27-1.41c-.38-.15-.8-.33-1.25-.55-.11-.28-.46-.4-.73-.57L101,140.56c-2.14-1.33-4.31-2.64-6.5-3.91-2.46-1.31-4.91-2.64-7.27-4.13-2.69-1.55-5.3-3.24-8-4.86-1.76-1-3.56-2-5.28-3.06-2.62-1.66-5.26-3.28-7.86-5-5.79-3.72-11.42-7.75-17-11.66-2.73-1.86-5.57-3.62-8.27-5.5l-.5-.34C36.2,99,32,95.6,27.82,92.16c-2.29-2-4.65-3.83-6.93-5.83l-.42-.53c-.32-.41-.63-.85-.93-1.25s-.53-.83-1-.72C17.76,82.9,17,82,16.1,81a.58.58,0,0,0-.5-.16A.51.51,0,0,0,15,81,64.41,64.41,0,0,0,19.7,86.89Z"/></g><g opacity=".13"><path d="M93.78,121.59"/></g><g opacity=".13"><path d="M88.93,115.09a7.78,7.78,0,0,0,.93,3,8.5,8.5,0,0,0,3.82,3.54l.12.06a6.89,6.89,0,0,0,2.5.47,11.3,11.3,0,0,0,4.15-.75.84.84,0,0,0,.23-.23h0a.73.73,0,0,0-.21-1h0c-.34-.22-.7,0-1,.1-3.72,1-6.92.14-8.73-3.54a10.74,10.74,0,0,1-.67-2.5v-.63a.57.57,0,0,0-.43-.55C88.53,112.94,88.89,114.38,88.93,115.09Z"/></g><g opacity=".13"><path d="M52.43,91.94h0a4.92,4.92,0,0,0,.2,1,10,10,0,0,0,1.24,2.67.39.39,0,0,0-.24.31c-.1.37.27.68.44,1a6.18,6.18,0,0,0,2,1.94,11.89,11.89,0,0,0,1.86,1,8,8,0,0,0,3.13.48.55.55,0,0,0,.52-.31h.06a12.82,12.82,0,0,0,2.9-.24.69.69,0,0,0,.4-.31h0a.7.7,0,0,0-.24-.93h0a1.24,1.24,0,0,0-.85,0,8.46,8.46,0,0,1-1.67.07,9.69,9.69,0,0,1-1.6-.34,3.61,3.61,0,0,1-.77-.24,13.68,13.68,0,0,1-1.73-.93,8.93,8.93,0,0,1-3.36-3.56,9,9,0,0,1-.63-1.19V92.3a9.11,9.11,0,0,1-.41-2,.67.67,0,0,0-1.33-.07A8.17,8.17,0,0,0,52.43,91.94Z"/></g><g opacity=".13"><path d="M113,139.46h0a.68.68,0,0,0-.18.93c.19.21.93.74,1.44,1.24a26,26,0,0,1,5.86,8l.09.19a1.19,1.19,0,0,0,.11.26.94.94,0,0,0,1.25.34c.45-.28.52-.85.82-1.26l.21-.21h0l.28-.2a.68.68,0,0,0,.26-.32.91.91,0,0,0,0-1,17.29,17.29,0,0,0-2.6-3,31.26,31.26,0,0,0-4.75-4c-.46-.3-.93-.57-1.42-.83a2.09,2.09,0,0,0-.71-.29.81.81,0,0,0-.66.09Z"/></g><path d="M262.11,201.35h0a.31.31,0,0,1-.34-.28h0a.3.3,0,0,1,.28-.32h0a11.48,11.48,0,0,0,8.13-8.73,16.29,16.29,0,0,0-2.5-12.07,21.37,21.37,0,0,0-24.43-8.29.31.31,0,0,1-.32,0,.3.3,0,0,1-.08-.32c2.36-8.36,1.07-17-3.44-23.22-5-6.76-14.15-9.86-21.36-7.22a.31.31,0,0,1-.39-.17h0a.31.31,0,0,1,.16-.39h0a18.14,18.14,0,0,1,12.08.13,21.31,21.31,0,0,1,9.93,7.32c4.53,6.15,5.89,14.78,3.71,23.22,8.87-2.91,19.6.85,24.61,8.72a16.9,16.9,0,0,1,2.58,12.58,12,12,0,0,1-8.61,9.19h0Z"/><path d="M225,214.32a9.91,9.91,0,0,1-5.75-4.56h0a.29.29,0,0,1,.09-.39h0a.3.3,0,0,1,.4.14,9.34,9.34,0,0,0,5.42,4.24,19.82,19.82,0,0,0,7.1.76c4.19-.16,9.69-1.21,12.07-5.41,1.74-3,1.36-6.73.78-10.63h0a.34.34,0,0,1,.27-.35h0a.33.33,0,0,1,.34.26c.63,4,1,7.87-.85,11.14-2.55,4.44-8.25,5.58-12.62,5.74h-1.38A18.31,18.31,0,0,1,225,214.32Z"/><path d="M204.8,211.58h0a.31.31,0,0,1,.19-.38h0a9.7,9.7,0,0,0,6.41-9.59h0a.32.32,0,0,1,.29-.33h0a.31.31,0,0,1,.33.29h0a10.36,10.36,0,0,1-6.84,10.22h-.09A.3.3,0,0,1,204.8,211.58Z"/><path d="M164.86,220.44c-4.91-1.68-8.75-5.58-9.91-10.08a10.73,10.73,0,0,1-18.82-4.5h0a.3.3,0,0,1,.22-.36h0a.34.34,0,0,1,.38.24h0a10.11,10.11,0,0,0,18.13,3.72.39.39,0,0,1,.19-.12.3.3,0,0,1,.36.22h0c.93,4.55,4.71,8.59,9.65,10.28,5.43,1.86,10.95.81,14.62-.4,6.57-2.16,11-6.38,11.8-11.29h0a.29.29,0,0,1,.34-.23h0a.3.3,0,0,1,.26.33h0c-.86,5.15-5.42,9.55-12.21,11.78a27.48,27.48,0,0,1-8.53,1.41A20.36,20.36,0,0,1,164.86,220.44Z"/><path d="M133.26,198.15a10.55,10.55,0,0,1,.92-19.73h0a.31.31,0,0,1,.38.19h0a.32.32,0,0,1-.21.38,9.92,9.92,0,0,0-.85,18.58h0a.28.28,0,0,1,.14.37h0a.34.34,0,0,1-.28.19Z"/><path d="M260.12,193.58h0a.31.31,0,0,1,0-.42h0a8.67,8.67,0,0,0-1.75-12h0a.28.28,0,0,1-.06-.39h0a.28.28,0,0,1,.38-.1h0a9.29,9.29,0,0,1,1.86,12.92.37.37,0,0,1-.24.12A.29.29,0,0,1,260.12,193.58Z"/><path d="M237.29,167.64a.33.33,0,0,1-.08-.43h0a6.65,6.65,0,0,0-.93-8.3l-.07-.07a.28.28,0,0,1,0-.38h0a.31.31,0,0,1,.44,0h0a7.29,7.29,0,0,1,.93,9.11.35.35,0,0,1-.44.09Z"/><path d="M230.59,208.94a.29.29,0,0,1-.3-.28h0a.29.29,0,0,1,.29-.29h0a7.18,7.18,0,0,0,7.33-5.8v-.07a.34.34,0,0,1,.38-.24h0a.36.36,0,0,1,.23.41A7.83,7.83,0,0,1,231,209Z"/><path d="M171.51,215.63a15.19,15.19,0,0,1-11.32-8.13h0a.3.3,0,0,1,.13-.4h0a.31.31,0,0,1,.41.14A14.62,14.62,0,0,0,171.57,215a.31.31,0,0,1,.26.35.33.33,0,0,1-.3.27Z"/><path d="M137.25,194.26a6.51,6.51,0,0,1-1.76-8.61.32.32,0,0,1,.42-.1h0a.32.32,0,0,1,.1.42,5.91,5.91,0,0,0,1.58,7.78.29.29,0,0,1,.1.4h0a.35.35,0,0,1-.25.14A.32.32,0,0,1,137.25,194.26Z"/><path d="M206.69,192.18a.34.34,0,0,1-.26-.37.34.34,0,0,1,.38-.26h0a9.64,9.64,0,0,0,2,.21c5,0,10.06-3.71,11.21-8.65a11.68,11.68,0,0,0-8.19-13.37.33.33,0,0,1-.23-.39.31.31,0,0,1,.37-.23h0a11.81,11.81,0,0,1,3.4,21.25,12.22,12.22,0,0,1-6.5,2A10.65,10.65,0,0,1,206.69,192.18Z"/><g opacity=".13"><path d="M127,187.76a10.51,10.51,0,0,0,.35,2.79,14.16,14.16,0,0,0,3.49,5.48,5.58,5.58,0,0,0,1.86,1.37l-.26-.11a2.61,2.61,0,0,0,1.07.42,1.07,1.07,0,0,0,1.06-1.07,1,1,0,0,0-.52-.93l.21.17c-.93-.75-.52-.36-1.19-.93a19.56,19.56,0,0,1-2-2.17c-.26-.37-.52-.75-.76-1.13a7.36,7.36,0,0,1-1.34-5.14,1,1,0,0,0-1-.93.9.9,0,0,0-.86.57A6.21,6.21,0,0,0,127,187.76Z"/></g><g opacity=".13"><path d="M137.07,205.54a.92.92,0,0,0-.85,1v0h0v.06c0,.29.23.51.37.75l1.06,1.61a11.86,11.86,0,0,0,2.94,3.41,8.78,8.78,0,0,0,4.23,1.64,14.83,14.83,0,0,0,4.41.18,2.57,2.57,0,0,0,1.4-.41l.14-.17a.93.93,0,0,0-.26-1.29h0a1,1,0,0,0-.65-.14l-.58.06a15.18,15.18,0,0,1-3.3-.13h.15a13.47,13.47,0,0,1-3.19-.75c-1.92-.93-3-2.44-4.92-5.3A1,1,0,0,0,137.07,205.54Z"/></g><g opacity=".13"><path d="M156.55,209.94a1.06,1.06,0,0,0-1.48,1.49h0c2.5,2.58,4.64,5.62,7.73,7.59,2.93,2,5.24,1.86,8.48,2.2l1.61.12a.82.82,0,0,0,.93-.34.74.74,0,0,0-.19-.93.93.93,0,0,0-.45-.18l-1.72-.35a35.28,35.28,0,0,1-5.18-1.17,11.18,11.18,0,0,1-1.25-.62,18.24,18.24,0,0,1-2.15-1.43h0a79,79,0,0,1-6.34-6.34Z"/></g><g opacity=".13"><path d="M219.94,208.58a1.08,1.08,0,0,0-.75,1.32h0c.2.48.76.8,1.11,1.18a21.19,21.19,0,0,0,2.51,1.93,11.38,11.38,0,0,0,3.85,1.53,27.42,27.42,0,0,0,7.57.06,8.34,8.34,0,0,0,1.11-.11h.23a1,1,0,0,0,.37-.2.77.77,0,0,0,.22-.54h0a.79.79,0,0,0-.8-.78h0a8.65,8.65,0,0,0-1.25-.06c-2-.08-3.93-.08-5.88-.3-2.79-.39-4.71-1.36-7.32-3.86A1.09,1.09,0,0,0,219.94,208.58Z"/></g><g opacity=".13"><path d="M206.57,191.94a5.74,5.74,0,0,0,1.17.12,13.26,13.26,0,0,0,3.2-.36,13.78,13.78,0,0,0,4.73-2.34,1,1,0,0,0,.23-1.4,1,1,0,0,0-.85-.41,1.33,1.33,0,0,0-.67.33c-.25.17-.5.3-.75.44a14.25,14.25,0,0,1-2.26,1,12.06,12.06,0,0,1-3.25.73,3.66,3.66,0,0,1-.81,0h-.49a1,1,0,0,0-.93,1.06,1,1,0,0,0,.66.88Z"/></g><g opacity=".13"><path d="M260.83,199.71h0a1.1,1.1,0,0,0,.93,1.24h0a1.92,1.92,0,0,0,1-.18,9.21,9.21,0,0,0,1.42-.67,14.78,14.78,0,0,0,3.62-2.87,9.08,9.08,0,0,0,1.43-2.63c.4-.84.93-2.29,1.49-3.49a.82.82,0,0,0-1.24-1.07c-.29.19-.37.57-.55.86-.26.54-.53,1.09-.81,1.64-1.2,2.07-1.59,3-3.36,4.43a17.44,17.44,0,0,1-1.62,1.07,6.28,6.28,0,0,1-.92.5c-.48.19-1,.25-1.3.74A.8.8,0,0,0,260.83,199.71Z"/></g></svg>