<svg xmlns="http://www.w3.org/2000/svg" viewBox="0 0 297.73 200.87"><path fill="#acd4f7" d="M261.45,109.91a18,18,0,0,0-10.73-2.5,16.13,16.13,0,0,0-12.53,7.74,15.89,15.89,0,0,0-1.11,15.19,16.49,16.49,0,0,0,12.83,9.08,17.48,17.48,0,0,0,13-3.89c3.5-2.92,4.94-7.17,5.39-11.58C268.49,121.82,267.54,113.77,261.45,109.91Zm-6.28,23.16a11.76,11.76,0,0,1-12.54-3.73,8.05,8.05,0,0,1-1.67-3.57,9.35,9.35,0,0,1,.27-3.9,13.07,13.07,0,0,1,5.5-7.78,10.16,10.16,0,0,1,9.59-.78,11.38,11.38,0,0,1,6.23,9.56,10.73,10.73,0,0,1-7.44,10.21Z"/><g opacity=".13"><path d="M269.33,122.33l-.57-1.55c-.35-1-.77-2-1.12-3h-.19c-1.15.48-.52,1.26-.49,2.25a23.54,23.54,0,0,0,.48,2.89,14.34,14.34,0,0,1,.09,2.93V126c-.16.54-.42,1-.57,1.55a11.74,11.74,0,0,1-2.29,4.72c-.09.1-.21.26-.3.38l-.6.83-.07.09-.18.21c-.17.24-1,1-1,1.07-1.15.84-1,.82-2.33,1.7a22.39,22.39,0,0,1-3,1.55,14.09,14.09,0,0,1-4.72,1.28,33.64,33.64,0,0,1-4.49-.15,12.94,12.94,0,0,1-4.82-1.84c-.6-.33-1.17-1-1.91-.9h0c.53.56,1.07,1.1,1.62,1.64s1.41,1.36,2.12,2a19.09,19.09,0,0,0,7.25,1.24,19.91,19.91,0,0,0,4.15-.46,17.64,17.64,0,0,0,6.54-3.22,30.42,30.42,0,0,0,4.09-3.77,15.74,15.74,0,0,0,2.45-7.87A18.64,18.64,0,0,0,269.33,122.33Z"/></g><g opacity=".13"><path d="M287.69,129.5a.9.9,0,0,0-1.15-.52.87.87,0,0,0-.4.31c-1.56,2.64-3.17,5.27-4.84,7.85a21.77,21.77,0,0,0-2.09,3.12,2.23,2.23,0,0,0-.39.89,1.29,1.29,0,0,0,1.09,1.43h0a1.25,1.25,0,0,0,.78-.17,1.6,1.6,0,0,0,.65-.78,2.38,2.38,0,0,0,.4-.44c1.62-2.24,2.42-4.92,3.79-7.29l2.06-3.74A.77.77,0,0,0,287.69,129.5Z"/></g><g opacity=".13"><path d="M261.84,152.7c-.63-.19-1.23.15-1.84.26-4.08,1.08-6.82,1.13-11.49,1a1.56,1.56,0,1,0-.62,3.06,2.15,2.15,0,0,0,.62,0,40.34,40.34,0,0,0,10.63-.71c.78-.18,1.62-.36,2.43-.57a1.92,1.92,0,0,0,1.23-.78,1.56,1.56,0,0,0-.62-2.11A2.07,2.07,0,0,0,261.84,152.7Z"/></g><path d="M248,157.58a.39.39,0,0,1-.39-.37,11.44,11.44,0,0,0-3.85-7.79,7.78,7.78,0,0,0-4.3-2.06,10.86,10.86,0,0,0-4.6.9c-2.29.84-4.61,1.9-6.07,4a.35.35,0,0,1-.25.16.38.38,0,0,1-.31-.07,54.22,54.22,0,0,1-10.46-9.61.4.4,0,0,1-.09-.3.39.39,0,0,1,.15-.26,14.52,14.52,0,0,0,5.26-8.49,6.23,6.23,0,0,0-.07-3.18c-.51-1.55-1.92-2.8-4.32-3.89a26,26,0,0,0-6.9-2,.35.35,0,0,1-.26-.16.4.4,0,0,1-.07-.3,69.87,69.87,0,0,1,4.36-14.71.38.38,0,0,1,.49-.23c2.8,1,9.82,1,12.68-2.21,4.68-5.34,2.49-11.44,1.69-13.18a.43.43,0,0,1,.2-.53,93.76,93.76,0,0,1,11.68-3.71c1.43-.39,2.92-.78,4.39-1.23a.4.4,0,0,1,.49.26h0a.38.38,0,0,1,0,.21c-.33,1.14,2.41,5.8,6.38,7.74,9.34,4.53,15.2-1.14,16.79-3a.51.51,0,0,1,.29-.13.34.34,0,0,1,.29.11,103.55,103.55,0,0,1,11.58,13,.32.32,0,0,1,.07.3.37.37,0,0,1-.16.27,12,12,0,0,0-5,12.22c1,4.47,5,8.3,10,9.51a.47.47,0,0,1,.25.19.44.44,0,0,1,0,.32,60.12,60.12,0,0,1-6.41,14,.4.4,0,0,1-.48.16c-3.55-1.46-7-2.68-10.22-1.63a9.13,9.13,0,0,0-5.39,5.45,26.9,26.9,0,0,0-1.34,6.58,10.48,10.48,0,0,1-.17,1.48.39.39,0,0,1-.32.34,93.53,93.53,0,0,1-15.65,1.77Zm-9-11.06h.61a8.59,8.59,0,0,1,4.8,2.3,12.17,12.17,0,0,1,4.08,8,94.07,94.07,0,0,0,14.78-1.67,9.43,9.43,0,0,1,.14-1.19,26.28,26.28,0,0,1,1.39-6.79,9.87,9.87,0,0,1,5.88-5.94c3.36-1.1,7,.12,10.45,1.56a59.92,59.92,0,0,0,6-13.13c-5.06-1.4-9.11-5.37-10.13-10a12.8,12.8,0,0,1,4.92-12.78,103.06,103.06,0,0,0-11-12.34c-1.73,1.86-8,7.46-17.47,2.86-3.69-1.8-6.62-5.94-6.84-8l-3.89,1.08A103.82,103.82,0,0,0,231.5,94c.93,2.23,2.75,8.3-2,13.66-3,3.43-10,3.48-13.18,2.56a68.61,68.61,0,0,0-4.1,13.82,25.32,25.32,0,0,1,6.71,2c2.6,1.19,4.15,2.62,4.74,4.37a6.8,6.8,0,0,1,.09,3.58,15.09,15.09,0,0,1-5.25,8.67,53.32,53.32,0,0,0,9.75,8.93c1.56-2.08,3.89-3.11,6.23-4a13.5,13.5,0,0,1,4.3-.92Z"/><path d="M251.25,134a12,12,0,0,1-9.46-4.44,8.69,8.69,0,0,1-1.74-3.74,9.54,9.54,0,0,1,.28-4.08,13.48,13.48,0,0,1,5.67-8.07,10.58,10.58,0,0,1,10-.78h0a11.76,11.76,0,0,1,6.43,9.91A11.21,11.21,0,0,1,251.25,134Zm.61-21.22a10.18,10.18,0,0,0-5.45,1.55,12.75,12.75,0,0,0-5.32,7.59,8.92,8.92,0,0,0-.27,3.74,7.82,7.82,0,0,0,1.56,3.41,11.34,11.34,0,0,0,12.14,3.66,10.33,10.33,0,0,0,7.14-9.85,10.91,10.91,0,0,0-6-9.22h0a8.73,8.73,0,0,0-3.82-.91Z"/><path d="M251.25,140a17.29,17.29,0,0,1-1.9-.11,17,17,0,0,1-13.1-9.28A16.27,16.27,0,0,1,237.37,115a16.67,16.67,0,0,1,12.8-7.93h0a18.54,18.54,0,0,1,11,2.57c6.57,4.11,7.21,12.59,7,14.47-.56,5.33-2.34,9.2-5.55,11.84A18,18,0,0,1,251.25,140Zm-1-32.16A15.71,15.71,0,0,0,238,115.44a15.43,15.43,0,0,0-1,14.85,16.17,16.17,0,0,0,12.52,8.86,17.06,17.06,0,0,0,12.64-3.79c3-2.5,4.73-6.23,5.25-11.3.25-2.4-.87-10.13-6.65-13.72A17.66,17.66,0,0,0,250.25,107.85Z"/><path fill="#acd4f7" d="M261.45,109.91a18,18,0,0,0-10.73-2.5,16.13,16.13,0,0,0-12.53,7.74,15.89,15.89,0,0,0-1.11,15.19,16.49,16.49,0,0,0,12.83,9.08,17.48,17.48,0,0,0,13-3.89c3.5-2.92,4.94-7.17,5.39-11.58C268.49,121.82,267.54,113.77,261.45,109.91Zm-6.28,23.16a11.76,11.76,0,0,1-12.54-3.73,8.05,8.05,0,0,1-1.67-3.57,9.35,9.35,0,0,1,.27-3.9,13.07,13.07,0,0,1,5.5-7.78,10.16,10.16,0,0,1,9.59-.78,11.38,11.38,0,0,1,6.23,9.56,10.73,10.73,0,0,1-7.44,10.21Z"/><path d="M251.25,140a17.29,17.29,0,0,1-1.9-.11,17,17,0,0,1-13.1-9.28A16.27,16.27,0,0,1,237.37,115a16.67,16.67,0,0,1,12.8-7.93h0a18.54,18.54,0,0,1,11,2.57c6.57,4.11,7.21,12.59,7,14.47-.56,5.33-2.34,9.2-5.55,11.84A18,18,0,0,1,251.25,140Zm-1-32.16A15.71,15.71,0,0,0,238,115.44a15.43,15.43,0,0,0-1,14.85,16.17,16.17,0,0,0,12.52,8.86,17.06,17.06,0,0,0,12.64-3.79c3-2.5,4.73-6.23,5.25-11.3.25-2.4-.87-10.13-6.65-13.72A17.66,17.66,0,0,0,250.25,107.85Z"/><path d="M148.25.55h0a.38.38,0,0,0-.39-.37h0c-30.31-.36-68-.09-101.22.14C29.52.44,13.35.56,1.11.56a.4.4,0,0,0-.4.38c-1.18,36.78-.6,86.59-.18,113a.41.41,0,0,0,.39.39c14.53.19,23,.25,37.11.25l24-.07c18.84-.07,44.62-.07,85.84-.07a.4.4,0,0,0,.4-.4c0-12.72.09-25.65.09-38.15C148.43,51.15,148.52,25.46,148.25.55Zm-101.58.6C79.76.93,117.25.66,147.5,1q.06,6.09.1,12.23C113,12.37,46,12.37,5.83,12.37H1.25q.12-5.64.28-11C13.67,1.39,29.73,1.28,46.67,1.15ZM147.59,76c0,12.37-.1,25.16-.1,37.78-41,0-66.68.07-85.45.07-31.31,0-39.86.06-60.74-.22h0C.92,89.91.48,47.91,1.18,13.13H5.8c40.11,0,107.16,0,141.77.87C147.74,34.63,147.66,55.57,147.59,76Z"/><path d="M139.84,10.65A3.66,3.66,0,1,1,143.48,7h0a3.66,3.66,0,0,1-3.64,3.68Zm0-6.51A2.86,2.86,0,1,0,142.69,7h0a2.89,2.89,0,0,0-2.85-2.86Z"/><path d="M125.64,10.65a3.66,3.66,0,1,1,3.61-3.71V7h0a3.66,3.66,0,0,1-3.65,3.67h0Zm0-6.51A2.86,2.86,0,1,0,128.49,7h0a2.86,2.86,0,0,0-2.85-2.86Z"/><path d="M110.72,10.65A3.66,3.66,0,1,1,114.36,7h0a3.66,3.66,0,0,1-3.64,3.68Zm0-6.51A2.86,2.86,0,1,0,113.57,7h0a2.89,2.89,0,0,0-2.85-2.86Z"/><path d="M16.73,58.15h-.2a.4.4,0,0,1-.15-.54c5.34-9.27,10.35-18.37,15.3-27.81a.39.39,0,0,1,.34-.21.37.37,0,0,1,.35.2l.06.09c3,5.08,6,10.33,9.09,15.68,5.64-6.54,11.25-13,17.19-19.76l1.47-1.65a.4.4,0,0,1,.57,0h0a.27.27,0,0,1,.09.12c2.67,6.1,5.45,12.39,8.41,18.93l10.37-9.58a1.65,1.65,0,0,1,.91-.52c.87-.14,1.44.77,1.63,1.08,2.17,3.52,4.22,7.12,6.22,10.6l3.34,5.79c4-7.27,8.21-14.52,12.57-21.56a.39.39,0,0,1,.53-.17h0a.4.4,0,0,1,.17.54h0c-4.49,7.22-8.82,14.68-12.9,22.13a.39.39,0,0,1-.34.21.42.42,0,0,1-.35-.19c-1.2-2.06-2.41-4.17-3.69-6.41-2-3.47-4-7.06-6.23-10.58-.31-.51-.59-.78-.83-.72a1.15,1.15,0,0,0-.48.33l-10.78,10a.38.38,0,0,1-.35.09.39.39,0,0,1-.28-.22c-3-6.52-5.74-12.8-8.41-18.88l-1.11,1.14C53.19,33.22,47.46,39.76,41.7,46.46a.4.4,0,0,1-.34.14.4.4,0,0,1-.3-.2C38,41.06,34.94,35.83,32,30.76,27.14,40,22.24,48.88,17,58A.36.36,0,0,1,16.73,58.15Z"/><path d="M29.51,58.34a.39.39,0,0,1-.35-.18l-1.68-2.69a.37.37,0,0,1,.13-.5h0a.4.4,0,0,1,.49.11l1.69,2.69a.41.41,0,0,1-.1.54.48.48,0,0,1-.23.07Zm10.84,0a.45.45,0,0,1-.27-.1.4.4,0,0,1,0-.56h0l2.17-2.33a.41.41,0,0,1,.56.07.42.42,0,0,1,0,.48h0l-2.17,2.34a.43.43,0,0,1-.29.07Zm-9.51-1.26H30.7a.41.41,0,0,1-.21-.51h0c.43-1,.88-1.93,1.34-2.89a.36.36,0,0,1,.45-.22h0a.36.36,0,0,1,.21.47h0c-.45,1-.89,1.92-1.32,2.87a.34.34,0,0,1-.37.17Zm51.76-.21a.4.4,0,0,1-.34-.2l-.78-1.47a.37.37,0,0,1,.11-.51h0a.41.41,0,0,1,.54.15l.78,1.47a.39.39,0,0,1-.14.53h-.19Zm-44-.78a.42.42,0,0,1-.34-.18c-.59-.94-1.17-1.83-1.72-2.67a.37.37,0,0,1,.07-.51h0a.4.4,0,0,1,.55.11h0c.55.84,1.14,1.74,1.73,2.68a.39.39,0,0,1-.11.54h-.21Zm6-2.41a.38.38,0,0,1-.39-.37h0a.36.36,0,0,1,.12-.28l2.16-2.34a.4.4,0,0,1,.56,0h0a.4.4,0,0,1,0,.56h0L44.93,53.6a.39.39,0,0,1-.32.13ZM26,53a.39.39,0,0,1-.34-.19C25.13,51.9,24.57,51,24,50.11a.39.39,0,0,1,.11-.54h0a.4.4,0,0,1,.54.12h0l1.7,2.68a.4.4,0,0,1-.12.55.41.41,0,0,1-.22,0Zm54.22-.37a.39.39,0,0,1-.35-.21l-1.51-2.82a.38.38,0,0,1,.13-.52h0a.4.4,0,0,1,.54.15h0L80.61,52a.39.39,0,0,1-.13.53h-.19ZM33.54,51.32a.28.28,0,0,1-.18,0,.36.36,0,0,1-.19-.47h0c.28-.56.57-1.12.86-1.67a.43.43,0,0,1,.55-.14h0a.32.32,0,0,1,.14.14c.22.37.46.73.69,1.1a.4.4,0,0,1,0,.56.39.39,0,0,1-.55-.06h0V50.6c-.12-.17-.23-.35-.34-.52l-.54,1a.39.39,0,0,1-.35.19ZM48.91,49a.54.54,0,0,1-.27-.11.43.43,0,0,1,0-.56L50.84,46a.4.4,0,0,1,.56,0h0a.4.4,0,0,1,0,.56h0l-2.15,2.34a.41.41,0,0,1-.31.14ZM22.72,47.58a.35.35,0,0,1-.33-.18l-1.72-2.67a.42.42,0,0,1,.12-.56.39.39,0,0,1,.54.11h0L23.05,47a.39.39,0,0,1-.12.53h0a.32.32,0,0,1-.21.08ZM77.23,47a.41.41,0,0,1-.33-.2L75.34,44a.4.4,0,0,1,.17-.54h0a.38.38,0,0,1,.52.13h0l1.55,2.78a.4.4,0,0,1-.15.54.42.42,0,0,1-.18.11Zm-24-2.72a.45.45,0,0,1-.27-.1.43.43,0,0,1,0-.56l2.14-2.34a.4.4,0,0,1,.57.57h0L53.55,44.2a.49.49,0,0,1-.3.14Zm-33.94-2A.39.39,0,0,1,19,42.1l-1.72-2.67a.38.38,0,0,1,.09-.53h0a.41.41,0,0,1,.54.11h0l1.72,2.67a.4.4,0,0,1-.11.55h0a.36.36,0,0,1-.2.06Zm54.87-.78a.4.4,0,0,1-.34-.2l-1.59-2.73a.4.4,0,0,1,.21-.52.39.39,0,0,1,.49.14L74.5,41a.4.4,0,0,1-.13.54h0a.38.38,0,0,1-.21,0ZM57.59,39.67a.54.54,0,0,1-.27-.11.4.4,0,0,1,0-.56l2.14-2.33a.39.39,0,0,1,.55,0h0a.4.4,0,0,1,0,.56l-2.14,2.35a.36.36,0,0,1-.35.11Zm13.49-3.73a.37.37,0,0,1-.35-.2L69.17,33a.38.38,0,0,1,.13-.52h0a.41.41,0,0,1,.55.14h0l1.55,2.79a.38.38,0,0,1-.13.52h0a.41.41,0,0,1-.22,0Zm-9.26-1a.38.38,0,0,1-.39-.37h0a.36.36,0,0,1,.12-.28L63.7,32a.4.4,0,0,1,.56,0,.4.4,0,0,1,0,.54l-2.15,2.34a.38.38,0,0,1-.35.11ZM68,30.34a.35.35,0,0,1-.35-.21l-.46-.82-.77.82a.41.41,0,0,1-.56.1.4.4,0,0,1-.09-.56h0l.06-.09L67,28.35a.4.4,0,0,1,.34-.13.36.36,0,0,1,.3.2l.72,1.31a.37.37,0,0,1-.11.51h0a.28.28,0,0,1-.22,0Z"/><path d="M113.51,73.15h0l-28.67-.62a.38.38,0,0,1-.38-.38h0a.4.4,0,0,1,.4-.39l28.62.63a.4.4,0,0,1,.31.46h0a.41.41,0,0,1-.31.31Z"/><path d="M80.35,82.47a.4.4,0,0,1-.4-.4h0a.4.4,0,0,1,.4-.4h20.13a.39.39,0,0,1,.31.45h0a.38.38,0,0,1-.31.31l-20.13.06Z"/><path d="M107.15,93c-7.44,0-14.94-.16-22.35-.48a.38.38,0,0,1-.38-.38h0a.38.38,0,0,1,.38-.38h0c9.29.4,18.69.55,28,.44h0a.4.4,0,0,1,.39.4h0a.4.4,0,0,1-.39.4Z"/><path d="M274.11,169.83a.38.38,0,0,1-.35-.23.41.41,0,0,1,.18-.53c6.75-3.25,11.89-6.93,15.71-11.24,4.62-5.22,7.21-11.41,7.29-17.45a.4.4,0,1,1,.79-.13h0a.29.29,0,0,1,0,.13h0a28.08,28.08,0,0,1-7.49,18c-3.89,4.39-9.1,8.13-16,11.43Z"/><path d="M279.13,170.65a9.41,9.41,0,0,1-2.24-.34c-.43-.09-.87-.19-1.29-.25q-.93-.1-1.86-.12a.4.4,0,0,1-.37-.26.41.41,0,0,1,.11-.43,13.28,13.28,0,0,0,3.61-5.17.41.41,0,0,1,.51-.25h0a.41.41,0,0,1,.26.5h0a13.83,13.83,0,0,1-3.11,4.82,5.55,5.55,0,0,1,1,.09c.46.07.91.17,1.35.27a5.91,5.91,0,0,0,3.12.17.39.39,0,0,1,.49.24h0a.35.35,0,0,1-.17.46h0A3.85,3.85,0,0,1,279.13,170.65Z"/><path d="M60.89,99.15h-.1a.35.35,0,0,1-.23-.18c-1.76-3.52-5.9-9.45-13.86-9.45-7.19,0-12.93,3-15.76,8.2a.36.36,0,0,1-.26.19.34.34,0,0,1-.31,0c-1.78-1.17-3.57-2.34-5.36-3.48l-1.2-.78L21.1,91.9a.41.41,0,0,1-.12-.53,23.65,23.65,0,0,1,7.44-8c7.3-4.23,11.68-4.37,17.64-4.56h.6c3.79.27,16.68,2.08,23.21,14a.39.39,0,0,1-.15.53l-2.33,1.44c-2,1.27-4,2.72-6.3,4.44A.37.37,0,0,1,60.89,99.15ZM46.67,88.68c8.07,0,12.39,5.75,14.36,9.47,2.14-1.61,4.09-3,6-4.19h0c.62-.4,1.28-.78,2-1.25-6.39-11.24-18.69-13-22.37-13.24h-.54c-5.89.19-10.12.32-17.27,4.45a23.15,23.15,0,0,0-7,7.44c.78.5,1.55,1,2.33,1.56l1.21.77,5,3.25c3.06-5.26,9-8.26,16.26-8.26Z"/><path fill="#acd4f7" d="M41.13,132.15c.41-2.39.87-4.77,1.36-7.13a19.61,19.61,0,0,1-5.24-1.17,12.51,12.51,0,0,1-4.08-2.9,17,17,0,0,1-4.61-9.41,32.28,32.28,0,0,1,0-6.06A20.18,20.18,0,0,1,29,102.1c-3.67-.87-7.26-2-11-2.86a34.28,34.28,0,0,0,.65,19.93C22.08,130,32.16,134,40.37,135.34,40.58,134.28,40.84,133.15,41.13,132.15Z"/><path d="M40.35,135.7h0c-8.09-1.28-18.48-5.18-22-16.44a34.77,34.77,0,0,1-.66-20.15.41.41,0,0,1,.47-.28c2,.45,4,1,6,1.56,1.63.45,3.3.91,5,1.32a.35.35,0,0,1,.29.4v0h0a20.91,20.91,0,0,0-.43,3.34v.94a27.83,27.83,0,0,0,0,5,16.62,16.62,0,0,0,4.5,9.2,12.13,12.13,0,0,0,4,2.79,18.07,18.07,0,0,0,5.18,1.19.4.4,0,0,1,.28.16.38.38,0,0,1,.07.31c-.53,2.51-1,4.84-1.36,7.11h0c-.29,1.11-.53,2.14-.78,3.12a.38.38,0,0,1-.35.41h0A.38.38,0,0,1,40.35,135.7Zm-22.06-36A34.06,34.06,0,0,0,19.06,119c3.38,10.69,13.24,14.52,21,15.83.2-.9.42-1.83.68-2.8.36-2.15.77-4.34,1.26-6.7a18.27,18.27,0,0,1-5-1.15,12.71,12.71,0,0,1-4.22-3,17.43,17.43,0,0,1-4.72-9.64,28.11,28.11,0,0,1-.06-5.19,4.92,4.92,0,0,1,0-.94,23.35,23.35,0,0,1,.37-3.11c-1.56-.38-3.11-.78-4.62-1.23-1.81-.48-3.72-1-5.56-1.43Z"/><path fill="#fff" d="M72.56,101.5c-3.32.56-6.65,1.16-9.93,2a17.15,17.15,0,0,1,.54,3.19,14.52,14.52,0,0,1-.2,3.16,26.39,26.39,0,0,1-1.64,5.57c-1.3,3.22-3.33,6.36-6.44,7.93A17.2,17.2,0,0,1,49.24,125l-.77.08q.18,1.85.39,3.69c.25,2.38.52,4.75.77,7.11h.62c15.7-1.35,23-18,23-26.77A39.37,39.37,0,0,0,72.56,101.5Z"/><path d="M49.66,136.2a.39.39,0,0,1-.4-.35c-.26-2.34-.54-4.74-.78-7.11l-.3-2.88-.09-.78a.39.39,0,0,1,.09-.29.36.36,0,0,1,.27-.12l.78-.1A16.08,16.08,0,0,0,54.75,123c2.61-1.32,4.67-3.9,6.23-7.73a27.68,27.68,0,0,0,1.62-5.49,14.27,14.27,0,0,0,.19-3.06,17.39,17.39,0,0,0-.53-3.12.42.42,0,0,1,.29-.49c3.33-.78,6.74-1.4,10-2a.39.39,0,0,1,.46.3h0a40.73,40.73,0,0,1,.68,7.56c0,5-2.25,11.43-5.7,16.35-3.12,4.5-8.76,10-17.69,10.79h-.6Zm-.78-10.84v.42c.1,1,.2,1.92.31,2.88.24,2.24.51,4.48.78,6.72h.28c8.63-.74,14.06-6.09,17.13-10.45A30,30,0,0,0,72.94,109a40,40,0,0,0-.59-7c-3,.51-6.09,1.07-9.14,1.8a18.39,18.39,0,0,1,.46,2.85,15.88,15.88,0,0,1-.18,3.23,28.53,28.53,0,0,1-1.67,5.66c-1.62,4-3.85,6.72-6.63,8.13a16.9,16.9,0,0,1-5.78,1.65Z"/><path d="M53.1,133.65H53l-2-1.93a.14.14,0,0,1,0-.19.12.12,0,0,1,.17,0h0l2,2a.13.13,0,0,1,0,.18h0A.16.16,0,0,1,53.1,133.65Z"/><path d="M55.84,133.15h-.09c-1.81-1.55-3.59-3.15-5.29-4.81a.12.12,0,0,1,0-.17h0a.13.13,0,0,1,.18,0h0c1.7,1.65,3.47,3.27,5.28,4.8a.13.13,0,0,1,0,.18Z"/><path d="M58.25,132.15h-.08l-6.63-6a.13.13,0,0,1,0-.18h0a.15.15,0,0,1,.18,0h0l6.62,6a.13.13,0,0,1,0,.18Z"/><path d="M60.84,130.38h-.08c-2.09-1.62-4.14-3.35-6.09-5.15a.13.13,0,0,1,0-.18h0a.13.13,0,0,1,.18,0h0c1.94,1.79,4,3.53,6.08,5.15a.12.12,0,0,1,0,.17h-.09Z"/><path d="M62.93,128.44h-.09a74.89,74.89,0,0,1-6.23-4.67.13.13,0,0,1,0-.18h0a.14.14,0,0,1,.19,0q3,2.49,6.23,4.67a.13.13,0,0,1,0,.18h-.1Z"/><path d="M64.84,126.49h0c-2-1.39-4-2.86-5.93-4.34a.14.14,0,0,1,0-.19.13.13,0,0,1,.18,0h0C61,123.45,63,125,65,126.3a.11.11,0,0,1,0,.15h0a.11.11,0,0,1-.1.06Z"/><path d="M66.48,124.25h-.07c-2-1.27-4.06-2.59-6-3.9a.12.12,0,0,1,0-.17h0a.12.12,0,0,1,.17,0h0c2,1.32,4,2.63,6,3.89a.13.13,0,0,1,0,.18A.17.17,0,0,1,66.48,124.25Z"/><path d="M67.84,121.82h-.07l-5.72-3.38a.12.12,0,0,1-.07-.15h0a.13.13,0,0,1,.16-.06h0l5.7,3.35a.15.15,0,0,1,0,.18.14.14,0,0,1-.12.07Z"/><path d="M68.9,119.48h-.06L63,116.23a.12.12,0,0,1-.07-.15h0a.14.14,0,0,1,.18,0l5.87,3.27a.12.12,0,0,1,.07.13h0A.16.16,0,0,1,68.9,119.48Z"/><path d="M70,117H69.9L64,113.78a.13.13,0,0,1,0-.18.12.12,0,0,1,.16-.06h0l5.9,3.24a.13.13,0,0,1,.06.17A.14.14,0,0,1,70,117Z"/><path d="M70.84,114.58h0c-2.09-1.22-4.23-2.41-6.35-3.55a.13.13,0,1,1,.12-.24h0c2.13,1.15,4.27,2.34,6.36,3.56a.12.12,0,0,1,.07.15h0A.18.18,0,0,1,70.84,114.58Z"/><path d="M71.37,111.7h-.06l-6.64-3.21a.13.13,0,0,1-.08-.13h0a.07.07,0,0,1,.07-.07h.12l6.65,3.2a.16.16,0,0,1,.08.14h0A.27.27,0,0,1,71.37,111.7Z"/><path d="M71.46,108.94H71.4c-2.25-1.06-4.53-2.16-6.75-3.27a.14.14,0,0,1-.06-.18h0a.12.12,0,0,1,.16-.06h0c2.22,1.1,4.5,2.2,6.76,3.26a.14.14,0,0,1,.06.18A.12.12,0,0,1,71.46,108.94Z"/><path d="M71.46,106.25H71.4A45.7,45.7,0,0,1,67.11,104a.12.12,0,0,1-.07-.15h0a.13.13,0,0,1,.18,0,45.78,45.78,0,0,0,4.3,2.2.13.13,0,0,1,.09.15h0a.14.14,0,0,1-.14.09Z"/><path d="M71.25,104h0l-1.2-.54a.12.12,0,0,1-.08-.13h0a.12.12,0,0,1,.15-.08h0l1.2.53a.14.14,0,0,1,.08.16h0a.12.12,0,0,1-.14,0Z"/><g opacity=".13"><path d="M75.06,107.8a21.8,21.8,0,0,0-.94-4.93c-.18-.45-.21-1-.67-1.29a.87.87,0,0,0-.83,0l-.07-.09a.78.78,0,0,0-1.1.09h0a.7.7,0,0,0-.17.37,1.1,1.1,0,0,0-1.1,1.1h0a1.13,1.13,0,0,0,0,.26,15,15,0,0,1,.37,4.67,27.26,27.26,0,0,1-2,8.94A21.83,21.83,0,0,1,67,120.37a26.36,26.36,0,0,1-3,5.1,13.87,13.87,0,0,1-.93,1.1,19.69,19.69,0,0,1-4.59,3.64,22,22,0,0,1-5.19,2.4,11,11,0,0,1-2.9.48,1,1,0,0,0-1.19.52.81.81,0,0,0,0,.68,1.09,1.09,0,0,0,1.25,1.55,2.93,2.93,0,0,0,.65-.29c.4-.14.84-.2,1.26-.31s1-.34,1.46-.46h.26a10.14,10.14,0,0,0,2.19-.31,19.3,19.3,0,0,0,7-4.68,29,29,0,0,0,3.62-4.2,45.21,45.21,0,0,0,2.43-4.49,35.12,35.12,0,0,0,1.9-4.52,26,26,0,0,0,1.38-4.9,20.27,20.27,0,0,0,.25-5.1,1.34,1.34,0,0,0,.07-.18c.07.61.12,1.26.16,2a20.58,20.58,0,0,1-.15,4,1.51,1.51,0,0,0-.11.22,1.07,1.07,0,0,0,.09,1.24,1.18,1.18,0,0,0,2-1h0v-.28a.92.92,0,0,1,0-.33A28.75,28.75,0,0,0,75.06,107.8Z"/></g><g opacity=".13"><path d="M68.71,92.46a15.13,15.13,0,0,0-4-6.22.89.89,0,0,0-1.26,0h0a.91.91,0,0,0,0,1.26c1.11.78,2,3,2.34,3.69a20.38,20.38,0,0,1,.84,2.38C67.18,95.28,69.68,94.46,68.71,92.46Z"/></g><g opacity=".13"><path d="M30.62,112.09c-.16-.85-.37-2.11-.37-2.18a60,60,0,0,1-.14-7.22.85.85,0,0,0-1.69,0h0c-.07,2.15-.19,4.3-.16,6.45a32.28,32.28,0,0,0,.61,4.27,1,1,0,0,0,1.84.24C31,113.15,30.7,112.58,30.62,112.09Z"/></g><path fill="#fff" d="M207.8,121.51c-.54-1.3-1.08-2.61-1.64-3.9a19.36,19.36,0,0,0-3.69-3.37c-5.84-4.12-13.11-5.57-20.11-6.93l-12.79-2.46a7.59,7.59,0,0,0-4.83,1.57v-.21c-1.86-6.23-5-15-7.37-25.08a150.18,150.18,0,0,1-17.51,6.16,133.39,133.39,0,0,1,1.41,16.46v-.13a7,7,0,0,0-3,2.6c-7.74,1.52-15.28,3.09-22.28,6.63a18.57,18.57,0,0,0-6.73,6.24,17.26,17.26,0,0,0-1.61,3.84c-3.11,9.62-5.8,19.38-8.23,29.19,1.8,4.12,3.8,8.21,5.8,12.21.35.74.72,1.44,1.08,2.21,1.43,2.88,2.87,5.75,4.43,8.48a175.14,175.14,0,0,0,13.12-23.87c6.48,15,8.09,32.19,7.26,49.44l63-.89c12.55,0,29.1.22,44.73.22,3.33-27,5.12-49.61,12.58-78.31Zm-57.61-5.36a16.86,16.86,0,0,0,3.48.08,9.14,9.14,0,0,1-1.12.47A4.07,4.07,0,0,1,150.19,116.15Z"/><path d="M283.84,200.07H239.15l0-.09c.48-3.81.91-9.52,1.34-13.09,2.59-21.76,4.83-40.55,11.24-65.19a.39.39,0,0,0-.07-.33.37.37,0,0,0-.3-.16c-10.73-.48-30.71-.54-43.49-.09a23.41,23.41,0,0,0-2.87-5c-4.06-4.6-10.29-6.45-15.74-7.83a193.47,193.47,0,0,0-24.6-4.5.41.41,0,0,0-.43.28,23.91,23.91,0,0,1-9.54,13c-.79.55-1.91,0-3-.53l-.7-.32A6.5,6.5,0,0,0,150,116c-2-.31-6-1-7.89-3.89-1.06-1.6-1.29-3.7-.7-6.23a.38.38,0,0,0,0-.15h0a.38.38,0,0,0-.45-.3h0A88.21,88.21,0,0,0,118.79,112c-3.08,1.32-6.54,3.09-8.83,6-2.1,2.61-3,5.88-3.89,8.77-4.63,15.89-3.09,8.81-6.77,24.23l-.14-.3a.4.4,0,0,0-.35-.22l-69-.38h-.17a.41.41,0,0,0-.19.53l23.1,49.49h-36a.42.42,0,0,0-.37.39c0,.35.4.4.4.4H283.87a.38.38,0,0,0,.31-.37A.43.43,0,0,0,283.84,200.07Zm-33-78.13c-6.32,24.45-8.55,43.16-11.13,64.82-.41,3.47-.84,9-1.29,12.73-8.29,0-16.74.22-24.92.43-7.12.19-13.86-.63-19.71-.63,0-.64.07-1.29.11-1.93a140.29,140.29,0,0,0,14.48,1c4.32,0,7.55-.43,9.17-1.53,4.26-2.75,7.18-6.87,7.44-10.54a87.91,87.91,0,0,0-1.27-16.91c-2.35-11.25-10.2-35.85-15.48-47.5,12.55-.45,31.9-.39,42.62.06Zm-111.22,62c-1.56-.82-3.32-.17-4.56.53a31,31,0,0,0-4.75,3.56c-.68.63-1.46,1.27-2.24,1.86a3,3,0,0,1-1,.59.88.88,0,0,1-.84-.14.93.93,0,0,1-.23-.62,3.61,3.61,0,0,1,1-2.26c3-3.76,6.08-5.84,9.5-6.38a.4.4,0,0,0,.32-.45.4.4,0,0,0-.45-.34c-3.63.57-6.88,2.78-10,6.68a4.31,4.31,0,0,0-1.12,2.81,1.88,1.88,0,0,0,.1.47,3.34,3.34,0,0,1-.75.75.92.92,0,0,1-.77.16,1.26,1.26,0,0,1-.68-1.22,6.84,6.84,0,0,1,1.42-4.07c2.37-3.55,4.79-5.79,7.18-6.63h0a.39.39,0,0,0,.2-.5h0a.39.39,0,0,0-.5-.2c-2.57.93-5.1,3.23-7.57,6.93a7.5,7.5,0,0,0-1.46,3.5h0a1.15,1.15,0,0,1-1.23-.1c-.38-.31.25-3.56,1.73-6,2.63-4.34,6.12-7.6,9.81-9.16h.07c1.27-.9,7.86.64,13.86,2.64a13,13,0,0,0,3.59.8c1.72.09,3.45.11,5.18.09h.08a.31.31,0,0,0,.19,0c1,0,2,0,3-.08a43.76,43.76,0,0,1,.73,7.4,12.43,12.43,0,0,1-.36,3.89,16.77,16.77,0,0,0-5.85-.72c-5.42.34-8.5-.84-9.57-1.36a3,3,0,0,0-2.72.4,39,39,0,0,0-6.75,4.62c-.56.42-.81.57-1.29.17-.11-.09-.25-.4.14-1.32a4.88,4.88,0,0,1,1-1.38,20,20,0,0,1,5.54-4.16.4.4,0,0,0,.22-.35.41.41,0,0,0-.15-.37Zm16.44-7.5a6.35,6.35,0,0,1,.13-.76,3.26,3.26,0,0,1,.43-1.08,1.09,1.09,0,0,1,.7-.45c.27.08.78.49,1.25,2.23a18.34,18.34,0,0,1-2.49.1Zm-.88,12a16.81,16.81,0,0,1,3.66.64,4.55,4.55,0,0,1-2.85,2.59.4.4,0,0,0-.18-.1.3.3,0,0,1-.21-.13,1.38,1.38,0,0,1-.19-.43,6.16,6.16,0,0,1-.16-2.49Zm19.88,5.71c-6.32-.87-12.34-1.69-17.58-2.24,2.66-1.6,2.94-4.74,2.84-7.45-.24-6.7-1-9.33-1.8-10.39h.53c12.1-.54,44.52-2.68,46.86-2.68a.4.4,0,1,0,.13-.79h-.13c-2.2,0-4.45.08-6.64.17-1.22-3.81-8.11-24.34-9.82-29.72a.38.38,0,0,0-.5-.2.37.37,0,0,0-.21.47c1.76,5.39,8.78,26.46,9.75,29.48-1,.12-27.34,2-39.51,2.5l-1.65.07h-.09a1.93,1.93,0,0,0-1.24.75,3.55,3.55,0,0,0-.57,1.36c-.08.31-.12.62-.17.94-2.16,0-4.52-.09-4.94-.09a12.86,12.86,0,0,1-3.42-.71c-3.7-1.22-12.53-3.9-14.53-2.56-3.89,1.68-7.37,4.94-10.12,9.47-1.22,2-2.66,6.33-1.5,7.11a2.12,2.12,0,0,0,1.19.37,1.6,1.6,0,0,0,.43-.11V190a2.09,2.09,0,0,0,1.23,1.92,1.62,1.62,0,0,0,.44.07,2,2,0,0,0,1.07-.39,5.06,5.06,0,0,0,.72-.67,1.64,1.64,0,0,0,1.54.27,3.8,3.8,0,0,0,1.27-.72c.78-.6,1.5-1.26,2.28-1.89a28.38,28.38,0,0,1,4.61-3.47,5.2,5.2,0,0,1,3-.78,20.49,20.49,0,0,0-4.94,3.9,5.46,5.46,0,0,0-1.13,1.6c-.17.4-.7,1.6.08,2.24a1.51,1.51,0,0,0,1,.42,2.12,2.12,0,0,0,1.32-.6,39.11,39.11,0,0,1,6.51-4.54,2.42,2.42,0,0,1,2-.39c1.17.55,4.4,1.79,10,1.44h1.06a6.87,6.87,0,0,0,.27,2.85,2.2,2.2,0,0,0,.33.69,1.16,1.16,0,0,0,.7.4.43.43,0,0,0,.3.16h.06c5.51.54,12,1.39,18.91,2.38,6.17.84,12.39,1.69,18.15,2.33a20.12,20.12,0,0,0,0,2.69c.06.07-47.86.11-47.86.11l-.11-6.57a.36.36,0,0,0-.12-.28.44.44,0,0,0-.29-.11l-24.58.58L99.88,152a.4.4,0,0,0,.09-.2c3.93-16.33,2.26-8.77,6.93-24.88.82-2.82,1.71-6,3.71-8.51,2.22-2.81,5.57-4.5,8.57-5.81a87.24,87.24,0,0,1,21.38-6.4,8.23,8.23,0,0,0,.93,6.28c2.07,3.16,6.41,3.91,8.41,4.27.38.07.78.18.88.18l.67.32c1.23.6,2.63,1.25,3.8.47a24.7,24.7,0,0,0,9.77-13.1,192.85,192.85,0,0,1,24.2,4.44c5.34,1.36,11.32,3.06,15.34,7.59a21.26,21.26,0,0,1,2.55,4.47l.34.74c5.06,11.11,13.08,35.62,15.61,47.67a88.15,88.15,0,0,1,1.26,16.7c-.24,3.42-3,7.31-7.08,9.91-3.1,2-12.37,1.59-23.22.41C194,196.58,181.06,195,175.06,194.15ZM53.25,199.67l-22.8-48.83,68.16.37,23.35,48Zm69.68-.36-2.39-4.91,23.89-.56.11,6Z"/><path d="M152.44,116.77a18.62,18.62,0,0,1-9.6-2.76,4,4,0,0,1-1.56-1.48,4.27,4.27,0,0,1-.3-2.09,134.1,134.1,0,0,0-1.42-23,.4.4,0,0,1,.28-.44,147.65,147.65,0,0,0,17.47-6.14.4.4,0,0,1,.34,0,.42.42,0,0,1,.21.26c1.7,7.12,3.79,13.69,5.45,19,.7,2.2,1.35,4.26,1.9,6.09a.38.38,0,0,1,0,.15,11.69,11.69,0,0,1-9,10A15.45,15.45,0,0,1,152.44,116.77ZM140.31,87.58a135.85,135.85,0,0,1,1.38,22.8,3.68,3.68,0,0,0,.22,1.71,3.12,3.12,0,0,0,1.28,1.16A16.75,16.75,0,0,0,156,115.49c3.84-1,7.9-4.25,8.35-9.24-.53-1.81-1.18-3.85-1.87-6-1.65-5.17-3.69-11.58-5.37-18.55a151.23,151.23,0,0,1-16.8,5.88Z"/><path fill="#acd4f7" d="M175.52,51.29a169.78,169.78,0,0,1-5.88,18.45,46.61,46.61,0,0,1-5.71,10.55,6.66,6.66,0,0,1-3.79,2.81c.07-1.6-1.5-2.56-1.56-4.17-.1-2,1.32-3.55.34-5.39a28.81,28.81,0,0,1-3.33-11,13.87,13.87,0,0,1,1.78-8.93,10.22,10.22,0,0,1,8.79-4.46C169,49.22,173.5,49.28,175.52,51.29Z"/><path d="M160.14,83.51a.36.36,0,0,1-.24-.09.42.42,0,0,1-.16-.33,3.43,3.43,0,0,0-.72-1.92,4.66,4.66,0,0,1-.86-2.18,6.61,6.61,0,0,1,.37-2.33,3.63,3.63,0,0,0,0-2.89,28.81,28.81,0,0,1-3.38-11.19c-.32-3.78.28-6.78,1.84-9.17a10.62,10.62,0,0,1,9.14-4.68h.44c2.86.11,7.19.27,9.22,2.29a.38.38,0,0,1,.1.38A170.34,170.34,0,0,1,170,69.88a46.9,46.9,0,0,1-5.75,10.66,7,7,0,0,1-4,3Zm5.61-34a9.83,9.83,0,0,0-8.09,4.31c-1.45,2.25-2,5.08-1.71,8.67a27.87,27.87,0,0,0,3.28,10.9,4.28,4.28,0,0,1,0,3.47,6.45,6.45,0,0,0-.34,2.09,4,4,0,0,0,.78,1.82,5,5,0,0,1,.78,1.81,6.16,6.16,0,0,0,3.11-2.49,45.67,45.67,0,0,0,5.69-10.51A168,168,0,0,0,175,51.38c-1.88-1.65-5.86-1.79-8.57-1.9h-.68Z"/><path fill="#fff" d="M130.07,55.76c-.58,5.22-2.46,10.22-3.34,15.4s-.62,10.83,2.71,15.43A19.31,19.31,0,0,0,143.09,94c5.46.5,11-1.38,14.38-4.87,3.18-3.29,5-11.28,6-15.25a7.47,7.47,0,0,0,6.86-1,4.08,4.08,0,0,0,.7-5.72c-1.41-1.78-3.48-2.34-6.27-.51a38.59,38.59,0,0,0,.67-8.17c0-4.16.87-10.2-1.68-12.38-1.44-1.24-4.67-2.64-6.47-3.45-3.12-1.37-8,0-11.42-.62s-7.18.5-10.21,1.75C132,45.25,130.49,51.85,130.07,55.76Z"/><path d="M144.84,94.45a12.89,12.89,0,0,1-1.76-.08,19.69,19.69,0,0,1-13.93-7.54c-3-4.15-3.9-9.35-2.78-15.74.39-2.27,1-4.54,1.56-6.73a61.91,61.91,0,0,0,1.79-8.64h0c.19-1.74,1.37-10.46,5.85-12.31,4-1.66,7.51-2.26,10.42-1.78a22.29,22.29,0,0,0,4.62.06c2.44-.13,5-.26,6.89.59l.2.09a29.65,29.65,0,0,1,6.38,3.41c2.16,1.87,2,6.15,1.86,9.92,0,1-.06,1.91,0,2.77v.11a39.44,39.44,0,0,1-.5,7.28c2.34-1.26,4.48-.89,6,1a4.46,4.46,0,0,1-.77,6.26h0a7.88,7.88,0,0,1-6.83,1.16c-.08.29-.15.61-.24.94-1.14,4.4-2.85,11.07-5.78,14.08A18.21,18.21,0,0,1,144.84,94.45ZM130.49,55.81a63.54,63.54,0,0,1-1.83,8.75c-.56,2.18-1.15,4.43-1.56,6.66-1,6.19-.16,11.28,2.63,15.14a19.1,19.1,0,0,0,13.36,7.22c5.37.48,10.75-1.34,14.06-4.76,2.78-2.87,4.54-9.66,5.58-13.73.12-.49.24-.94.35-1.34a.41.41,0,0,1,.19-.25.44.44,0,0,1,.32,0,7.08,7.08,0,0,0,6.47-.9,3.67,3.67,0,0,0,.66-5.15h0c-1.47-1.85-3.4-2-5.74-.42a.43.43,0,0,1-.44,0,.41.41,0,0,1-.17-.42,37.69,37.69,0,0,0,.65-8v-.14c0-.87,0-1.81.06-2.8.13-3.6.27-7.68-1.56-9.28a30.09,30.09,0,0,0-6.18-3.24l-.2-.09c-1.76-.78-4.18-.65-6.52-.53a24.06,24.06,0,0,1-4.8-.06c-2.76-.46-6.12.12-10,1.72-3.12,1.31-4.86,7.1-5.36,11.68Z"/><path fill="#acd4f7" d="M147.19,49.82c-.78,2.26-4.67,5.14-7,5.12s-3-1.14-3.68-3.39c-2.19,1.55-3.89,3.2-6,3.77a6.41,6.41,0,0,1-7.58-4.92,6.91,6.91,0,0,1,5-7.85c-2.18.29-4.08-2.1-3.89-4.39a6.22,6.22,0,0,1,4.1-5c2.07-.78,4.35-.67,6.59-.78a5.88,5.88,0,0,1,2.73-6.09,9,9,0,0,1,6.69-.78,8,8,0,0,1,4,2,5.27,5.27,0,0,1,1.46,4.4c2.25-2.28,5.62-3.62,8.57-2.58s4.81,5,4.77,7.53c1.65-1.65,3.72-2.93,6-2.57,4.45.72,5,4.68,2.52,9.35A5.19,5.19,0,0,1,178,47a4.35,4.35,0,0,1,.18.71,10.3,10.3,0,0,1-2.82,8.51c-2,1.83-8.57,2.88-12.63-.78a11.92,11.92,0,0,1-3.65-6.88c-1.56,2.11-2.68,3.56-6.07,4.29C150.5,53.45,147.77,52.15,147.19,49.82Z"/><path d="M169.61,58.34a10.65,10.65,0,0,1-7.14-2.53,12,12,0,0,1-3.63-6.23,8.64,8.64,0,0,1-5.8,3.74,5.46,5.46,0,0,1-5.91-2.47c-1.34,2.2-4.72,4.5-6.91,4.5h0c-2.34,0-3.21-1.1-3.89-3.11l-1.11.78a13.52,13.52,0,0,1-4.59,2.68,6.39,6.39,0,0,1-5-.84,6.88,6.88,0,0,1-3.11-4.38,7.39,7.39,0,0,1,3.78-7.79,3.91,3.91,0,0,1-1.2-.77,4.83,4.83,0,0,1-1.46-3.77A6.66,6.66,0,0,1,128,32.83a16.24,16.24,0,0,1,5.45-.78h.81a6.36,6.36,0,0,1,3-6,9.24,9.24,0,0,1,7-.83,8.36,8.36,0,0,1,4.18,2.15,5.75,5.75,0,0,1,1.62,3.71,8.53,8.53,0,0,1,8.23-2c2.72,1,4.67,4.28,5,7,1.91-1.68,3.81-2.38,5.67-2.09a4.9,4.9,0,0,1,3.9,2.52c.82,1.67.58,4-.66,6.59a5.55,5.55,0,0,1,3.5.63,5.84,5.84,0,0,1,2.86,4,10.74,10.74,0,0,1-3,8.88A9.74,9.74,0,0,1,169.61,58.34ZM159.07,48.22h.09a.38.38,0,0,1,.3.31A11.67,11.67,0,0,0,163,55.2c3.83,3.42,10.12,2.54,12.09.78a9.89,9.89,0,0,0,2.7-8.13,5.09,5.09,0,0,0-2.46-3.44,4.63,4.63,0,0,0-3.73-.34.4.4,0,0,1-.44-.11.41.41,0,0,1,0-.45c1.45-2.7,1.83-5.06,1-6.66a4.11,4.11,0,0,0-3.33-2.08c-1.8-.29-3.7.53-5.63,2.45a.38.38,0,0,1-.44.08.39.39,0,0,1-.24-.37c0-2.33-1.65-6.13-4.5-7.15-2.56-.91-5.75.07-8.13,2.5a.39.39,0,0,1-.46.07.41.41,0,0,1-.22-.41,4.92,4.92,0,0,0-1.37-4.06A7.67,7.67,0,0,0,144,26a8.41,8.41,0,0,0-6.38.77,5.38,5.38,0,0,0-2.55,5.65.41.41,0,0,1-.31.49h-1.31a15.32,15.32,0,0,0-5.21.69,5.88,5.88,0,0,0-3.84,4.67,4,4,0,0,0,1.21,3.12,2.71,2.71,0,0,0,2.22.82.4.4,0,0,1,.42.37h0a.4.4,0,0,1-.29.4,6.48,6.48,0,0,0-4.67,7.38,6,6,0,0,0,2.75,3.9,5.59,5.59,0,0,0,4.34.77,12.25,12.25,0,0,0,4.3-2.54c.5-.38,1-.78,1.56-1.17a.38.38,0,0,1,.36,0,.42.42,0,0,1,.26.26c.64,2.15,1.27,3.11,3.31,3.11h0c2.13,0,5.87-2.75,6.58-4.85a.37.37,0,0,1,.42-.31h0a.41.41,0,0,1,.31.31c.53,2.25,3.18,3.26,5.32,2.8,3.32-.71,4.37-2.15,5.83-4.14a.35.35,0,0,1,.32-.11Z"/><path d="M134.08,63.84A1.24,1.24,0,1,1,135.43,65h-.12A1.2,1.2,0,0,1,134.08,63.84Z"/><path d="M151.25,66.58a1.24,1.24,0,1,1,2.48,0h0a1.2,1.2,0,0,1-1.21,1.18h0a1.21,1.21,0,0,1-1.26-1.16h0Z"/><path d="M144.65,86.26a6.29,6.29,0,0,1-2.23-.41.4.4,0,0,1-.25-.49h0a.41.41,0,0,1,.52-.23A5.72,5.72,0,0,0,148.56,84a.38.38,0,0,1,.54,0h0a.4.4,0,0,1,0,.56A6.61,6.61,0,0,1,144.65,86.26Z"/><path d="M142.35,79.51a7.33,7.33,0,0,1-3.11-.78,3.25,3.25,0,0,1-1.32-1,2.67,2.67,0,0,1-.24-2.38,8,8,0,0,1,.9-1.71l.15-.24A22.53,22.53,0,0,0,142,63.8a.38.38,0,0,1,.37-.34h0a.37.37,0,0,1,.35.38h0v.06a23.29,23.29,0,0,1-3.4,9.93l-.16.24a7.08,7.08,0,0,0-.77,1.56,1.93,1.93,0,0,0,.12,1.69,2.55,2.55,0,0,0,1,.78,6.4,6.4,0,0,0,3,.71,3.66,3.66,0,0,0,2.66-1.22.4.4,0,1,1,.72.35h0V78h0a4.4,4.4,0,0,1-3.22,1.5Z"/><path fill="#acd4f7" d="M151.43,122.21q-3.18,15.95-6,31.94a21.7,21.7,0,0,0-.47,5.51,19.79,19.79,0,0,0,2.49,7.11,67.86,67.86,0,0,0,4.55,8,156.79,156.79,0,0,0,5.78-15.26c.56-11.83-3.3-23.36-3.61-35.2a5.55,5.55,0,0,0-.33-2.14C153.54,121.58,152.84,121.15,151.43,122.21Z"/><path d="M152,175.23a.39.39,0,0,1-.33-.17,71.41,71.41,0,0,1-4.58-8.08,20.2,20.2,0,0,1-2.52-7.26,21.5,21.5,0,0,1,.47-5.6c1.86-10.65,3.9-21.4,6-31.93a.49.49,0,0,1,.16-.24,2.59,2.59,0,0,1,2.06-.65,1.45,1.45,0,0,1,.93.83,5.48,5.48,0,0,1,.36,2.23v.06a119.1,119.1,0,0,0,1.82,15.64c1,6.38,2.1,13,1.78,19.58v.07A157.4,157.4,0,0,1,152.35,175a.43.43,0,0,1-.33.24Zm-.2-52.79c-2.12,10.51-4.13,21.2-6,31.79a20.85,20.85,0,0,0-.47,5.4,20.08,20.08,0,0,0,2.44,7,72.41,72.41,0,0,0,4.12,7.41,152.48,152.48,0,0,0,5.45-14.51c.3-6.5-.78-13-1.79-19.35a119.32,119.32,0,0,1-1.8-15.77v-.06a5,5,0,0,0-.3-1.92.61.61,0,0,0-.4-.4,1.8,1.8,0,0,0-1.2.41Z"/><path d="M73.84,179.69a6.4,6.4,0,0,1-4.32-1.55,5.24,5.24,0,0,1-1.36-5.83c.78-1.74,2.75-2.62,5.29-2.34h0c4.58.45,5.53,3.25,5.52,5.51a4.22,4.22,0,0,1-.67,2.34,4.66,4.66,0,0,1-2.9,1.78A6.78,6.78,0,0,1,73.84,179.69Zm-1.16-9c-1.16,0-3.06.27-3.8,1.93a4.46,4.46,0,0,0,1.18,4.93,5.78,5.78,0,0,0,5.16,1.22,3.91,3.91,0,0,0,2.42-1.44,3.47,3.47,0,0,0,.53-1.88c0-2.86-1.56-4.41-4.79-4.72h-.7Z"/><path fill="#acd4f7" d="M154.14,116.78a3.35,3.35,0,0,0-3.22-.2c-1.49.61-2.75,1.49-3,3.11a8,8,0,0,0,1.12,2.73,5.15,5.15,0,0,0,2.74,2.14,3.44,3.44,0,0,0,2.41-1.06c1.22-1.09,2.21-2.7,1.82-4.28A4.38,4.38,0,0,0,154.14,116.78Z"/><path d="M151.93,124.93h-.23c-1.32-.11-2.65-1.71-3-2.33s-1.28-2.39-1.17-3c.34-2,2-2.86,3.27-3.38a3.7,3.7,0,0,1,3.6.25,4.77,4.77,0,0,1,2,2.64c.37,1.51-.36,3.26-2,4.68A3.78,3.78,0,0,1,151.93,124.93Zm.52-8.27a4.09,4.09,0,0,0-1.38.28c-1.72.71-2.58,1.56-2.79,2.79a8.69,8.69,0,0,0,1.06,2.44,4.45,4.45,0,0,0,2.45,2,2.92,2.92,0,0,0,2.1-1c.52-.46,2.15-2.08,1.71-3.89a4.07,4.07,0,0,0-1.69-2.18h0a2.51,2.51,0,0,0-1.43-.44Z"/><path fill="#fff" d="M141.31,103.2c1.83,4.48,5.75,10.68,9.73,13.07a119.73,119.73,0,0,1-9.45,8.27c-1.6-8-3.27-11.87-4.24-18.15C138.42,105.58,140,104,141.31,103.2Z"/><path d="M141.57,124.93h-.14a.35.35,0,0,1-.24-.28c-.78-3.76-1.56-6.64-2.21-9.18a79,79,0,0,1-2-9,.35.35,0,0,1,.16-.37c.38-.29.86-.71,1.37-1.16a20.79,20.79,0,0,1,2.6-2.08.45.45,0,0,1,.58.22c1.91,4.67,5.81,10.62,9.55,12.87a.39.39,0,0,1,.2.31.41.41,0,0,1-.13.33c-.64.55-1.31,1.19-2.09,1.93a75.65,75.65,0,0,1-7.38,6.36A.37.37,0,0,1,141.57,124.93Zm-3.8-18.36a75.94,75.94,0,0,0,2,8.66c.65,2.42,1.38,5.13,2.1,8.57a73.67,73.67,0,0,0,6.81-5.92l1.71-1.61c-3.63-2.43-7.31-8-9.25-12.52a26.94,26.94,0,0,0-2.11,1.73Z"/><path fill="#fff" d="M153.77,116.24c2.27,2.86,4.55,5.73,7.28,8.66,3.3-6.45,6.65-13.11,8.15-20.24-1.42-.66-4.49-2.69-5.91-3.35.41,1.51,1.25,2.87,1,3.35A155.8,155.8,0,0,1,153.77,116.24Z"/><path d="M161,125.3a.43.43,0,0,1-.3-.13c-2.74-2.94-5-5.86-7.28-8.68a.39.39,0,0,1,0-.53c3.47-3.27,10-10.77,10.49-11.43a5.14,5.14,0,0,0-.43-1.27,16.82,16.82,0,0,1-.65-1.8A.42.42,0,0,1,163,101a.4.4,0,0,1,.42,0,31.57,31.57,0,0,1,3,1.69c1.12.69,2.23,1.34,2.92,1.66a.39.39,0,0,1,.22.44c-1.56,7.37-5.08,14.24-8.19,20.3a.4.4,0,0,1-.3.22Zm-6.72-9c2.06,2.59,4.18,5.25,6.65,7.94,3-5.81,6.23-12.35,7.79-19.31-.73-.36-1.73-1-2.71-1.55-.72-.43-1.45-.87-2.07-1.22.11.29.22.56.32.78.36.88.6,1.47.42,1.89a152.3,152.3,0,0,1-10.4,11.45Z"/><path d="M130.34,175a.39.39,0,0,1-.39-.34,87.43,87.43,0,0,0-11.63-33.32.39.39,0,0,1,.11-.54h0a.4.4,0,0,1,.54.12h0a88.21,88.21,0,0,1,11.76,33.65.4.4,0,0,1-.34.45Z"/><path d="M110.72,175.58a.44.44,0,0,1-.22-.07.4.4,0,0,1-.12-.54c4.29-6.64,9.64-15.38,13.08-24.08a.42.42,0,0,1,.52-.25h0a.43.43,0,0,1,.24.54c-3.45,8.77-8.83,17.55-13.14,24.22A.4.4,0,0,1,110.72,175.58Z"/><path d="M131.11,193.75h0a.41.41,0,0,1-.39-.41h0l.06-5.38a.38.38,0,0,1,.37-.39h0a.38.38,0,0,1,.4.36h0v5.39a.4.4,0,0,1-.4.4h0Z"/><path d="M164.25,69.65h-.11a.37.37,0,0,1-.3-.43h0c.34-1.41.49-2.15.78-3.52a.4.4,0,0,1,.48-.28h0a.42.42,0,0,1,.29.35h0v.07h0c-.27,1.37-.43,2.13-.78,3.55A.38.38,0,0,1,164.25,69.65Z"/><path d="M219.61,143.15a.4.4,0,0,1-.4-.37.39.39,0,0,1,.36-.42h0c7.15-.44,14.4-.57,21.55-.39a.38.38,0,0,1,.38.38h0a.4.4,0,0,1-.4.38c-7.13-.17-14.36,0-21.47.39Z"/><path d="M222.39,149.69a.4.4,0,1,1,0-.8h0l15.34-.29a.41.41,0,0,1,.41.39.4.4,0,0,1-.39.4h0l-15.34.3Z"/><path d="M230.34,178.15a.4.4,0,0,1-.4-.38.38.38,0,0,1,.35-.41h0l7.9-.35a.4.4,0,0,1,.46.33h0a.39.39,0,0,1-.31.45h-.09l-7.9.35Z"/><path d="M171.12,115.32H171a.39.39,0,0,1-.31-.45h0c.44-1.94.78-3.89,1.08-5.9a.4.4,0,0,1,.45-.34h0a.41.41,0,0,1,.34.44h0q-.42,3-1.09,6A.39.39,0,0,1,171.12,115.32Z"/><path d="M175.25,112.43h0a.41.41,0,0,1-.36-.42h0l.32-3.47a.39.39,0,0,1,.35-.43h0a.39.39,0,0,1,.43.35h0a.33.33,0,0,1,0,.14l-.31,3.47A.42.42,0,0,1,175.25,112.43Z"/><path d="M170.74,53.81a.4.4,0,0,1-.38-.26.41.41,0,0,1,.24-.51,5.45,5.45,0,0,0,3.54-5,.38.38,0,0,1,.36-.4h0a.38.38,0,0,1,.39.37h0a6.26,6.26,0,0,1-4,5.81Z"/><g opacity=".13"><path d="M158.55,48.7c-.32.32-.65.63-1,.92-.08.15-.16.29-.25.43a8.12,8.12,0,0,1-3.7,3,.73.73,0,0,0-.83-.42h-.29a15.54,15.54,0,0,1-1.93,0h.21a7.92,7.92,0,0,1-1.9-.54l-.2-.09a.73.73,0,0,0-.48-.1h-.12v-.32a.93.93,0,0,0-.85-1h-.13a1.09,1.09,0,0,0-1,1,5.32,5.32,0,0,1-.37.46,22.25,22.25,0,0,1-1.72,1.5l-.48.36-.08.06a7.82,7.82,0,0,1-3.12,1.19h0a3.94,3.94,0,0,1-.77-.07l-.23-.08-.11-.06-.24-.19h0l-.12-.16a3.19,3.19,0,0,1-1.45-1,2.38,2.38,0,0,1-.23-.45V53a1,1,0,0,0-.1-.17,4.7,4.7,0,0,1-.51-1.25h0a1.08,1.08,0,0,0-.88.41c-.08.13-.16.26-.25.38l-.09.09-.06.07h0c-.29.23-.54.51-.84.71l-.36.24-.11.07h0a12,12,0,0,1-2,1c-.47.23-1.08.28-1.44.67a1,1,0,1,0,1.2,1.64h0a12.76,12.76,0,0,0,3.89-2.18c.19-.15.37-.32.55-.49A7.34,7.34,0,0,0,138,56.54a4.6,4.6,0,0,0,4.19.27,9.53,9.53,0,0,0,2.53-1.41,12.86,12.86,0,0,0,2-1.83,4.69,4.69,0,0,0,1.14,1.33,3.82,3.82,0,0,0,2.23.78h.15a8.32,8.32,0,0,0,3-.56A11.79,11.79,0,0,0,157.07,53a8,8,0,0,0,1.66-2c.1-.21,0,0,0,.08.19-.3.35-.61.51-.92a1,1,0,0,0,.17-.59.78.78,0,0,0-.73-.83h-.13Z"/></g><g opacity=".13"><path d="M162.6,100.48c-.3-.87-.59-1.73-.84-2.61-.55-1.85-1-3.72-1.45-5.59-.52-1.37-1-2.76-1.42-4.18a.54.54,0,0,1,0-.18.82.82,0,0,0-.83,0,.36.36,0,0,1,0,.32,7.25,7.25,0,0,1-.63.83c-.21.24-.44.47-.66.7-.46.47-1,.9-1.44,1.33a.56.56,0,0,1-.17.09.79.79,0,0,0,0,.43l-.09.06a24.73,24.73,0,0,1-2.43,1.18l-1.4.56a1.19,1.19,0,0,0-.53,0H149a9.72,9.72,0,0,1-4.59.66,1,1,0,0,0-.44.36l-1-.29h-.45a.34.34,0,0,1-.38-.28,1.47,1.47,0,0,0-.72-.06,1,1,0,0,0-.64,1.26,1,1,0,0,0,.64.64c4.21,1.4,12.26,4.06,15.19,4.9a13.66,13.66,0,0,0,3.11.58h0a1,1,0,0,1,.35,0c.29.13.57.24.86.35a5,5,0,0,0,.78.24.67.67,0,0,0,.78.1C163.17,101.71,162.71,101,162.6,100.48Z"/></g><g opacity=".13"><path d="M152.65,124.67a2.21,2.21,0,0,0-1-.61,1,1,0,0,0-.62,1.83,8.76,8.76,0,0,1,1.23,1c.24.25.46.58.85.59a1,1,0,0,0,1-.83,1,1,0,0,0,0-.24,6.05,6.05,0,0,1,.1-1.41.78.78,0,0,0-.44-1h-.14a.78.78,0,0,0-1,.44h0v.09h0v.09A.36.36,0,0,0,152.65,124.67Z"/></g><g opacity=".13"><path d="M160.63,124.22c-.24-.4-.78-.61-1-1a14.29,14.29,0,0,1-1.8-1.93,7.44,7.44,0,0,1-.52-.73,1.08,1.08,0,0,0-.65-.62.87.87,0,0,0-1.08.56h0a.85.85,0,0,0,.08.68l.29.42-.24-.06a.83.83,0,0,0-1,.62h0v.12a.82.82,0,0,0,.42.86c1,.53,1.9,1.12,2.83,1.7a8,8,0,0,0,2.08,1,.88.88,0,0,0,1-.74h0a.89.89,0,0,0-.41-.86Z"/></g><g opacity=".13"><path d="M148.91,121.76c-.23-.42-.42-.84-.68-1.23-.12-.21-.18-.48-.4-.6a.87.87,0,0,0-1.21.11h0a.72.72,0,0,0-.15.27h-.08c-.37.09-.59.42-.84.68-.42.44-.38.53-.43.68h0a.83.83,0,0,0-.13.34c-.37.14-.74.29-1.09.46a4.7,4.7,0,0,0-1.56.87.87.87,0,0,0,.17,1.2.91.91,0,0,0,.93,0c.59-.32,1.27-.54,2.33-1,.61-.22,1.26-.29,1.89-.45a1,1,0,0,0,.4-.19.87.87,0,0,0,1-.71h0A.66.66,0,0,0,148.91,121.76Z"/></g><g opacity=".13"><path d="M159.59,179.07a10.81,10.81,0,0,0-1.4-4.63c-.22-.37-.46-.78-.91-.89a1.12,1.12,0,0,0-1.36.81,1.14,1.14,0,0,0,.11.83h0a2,2,0,0,0-.31,1,.72.72,0,0,0,.78.62.62.62,0,0,0,.26-.09,13.5,13.5,0,0,1,.45,1.77c.17,1.39.27,2.8.3,4.2a28.89,28.89,0,0,1-.11,2.94,22.18,22.18,0,0,1-.7,3.11l-.07-.11c-.2-.24-.36-.56-.67-.65a1,1,0,0,0-1.12,1.6l.21.24v.08h0a.81.81,0,0,1,0,.31h0v.22a.91.91,0,0,0,.1.56.78.78,0,0,0,.35.32.94.94,0,0,0,1.13.61c.39-.09.56-.47.84-.73a8.32,8.32,0,0,0,1.3-1.81,11.63,11.63,0,0,0,1-4.42A48.23,48.23,0,0,0,159.59,179.07Z"/></g><g opacity=".13"><path d="M251,134.28a1.32,1.32,0,0,0-2.57-.17c-.55,2.13-.86,4.32-1.44,6.45s-1,4-1.45,6c-.1.69-.21,1.38-.25,2.08v.16q-.09.42-.21.84h0a1.11,1.11,0,0,0,0,.72,1.29,1.29,0,0,0,1.6.86h0a1.28,1.28,0,0,0,.71-.54h0a4.54,4.54,0,0,0,.47-1.56c.39-1.48.53-3,.9-4.52.62-2.73,1.29-5.45,1.85-8.21.1-.42.17-.85.29-1.27A1.86,1.86,0,0,0,251,134.28Z"/></g><g opacity=".13"><path d="M235.6,193.66c-.42-1.07-.78-2.16-1.1-3.27-.46-1.37-1-2.71-1.48-4.08-.66-1.84-1.12-3.37-1.61-4.87-2.92-6.81-5.72-13.67-8.45-20.57-2.94-7.38-5.73-14.79-8.43-22.28a.71.71,0,0,0-.36.84c1.3,4.21,3.11,8.26,4.56,12.46,1.77,5.39,3.4,10.82,4.67,16.35.29,1.15.62,2.27,1,3.4a1,1,0,0,0-1.16.81h0a1.41,1.41,0,0,0,0,.41c.83,4.44,1.56,7.49,1.64,11.76v2a1.92,1.92,0,0,0-.31.18,1,1,0,0,0-.26.27c.16-.67.32-1.35.46-2a.76.76,0,0,0-.61.22c-.22.2-.22.49-.28.78a3.72,3.72,0,0,1-.59,1.46h0l-.1.12a29.14,29.14,0,0,1-3.89,3.47,18.69,18.69,0,0,1-6,2.92c-.78.24-1.5.47-2.27.67-1.6,0-3.21.14-4.82.1-2.57-.07-5.13-.36-7.69-.53a75.75,75.75,0,0,1-10.74-.77,52.39,52.39,0,0,0-7.49-.87c-2.24-.21-3-.35-5-.6-1.43-.15-3.51-.34-4-.45-2.09-.35-6.23-1.11-7-1.17a33.39,33.39,0,0,0-4-.36,3.23,3.23,0,0,0-1.2.07.88.88,0,0,0-.58.73l-.78-.05a.76.76,0,0,0-.36.08.93.93,0,0,0-.48,1.2h0a.93.93,0,0,0,.83.56,55.73,55.73,0,0,1,5.9.53c1.11.17,2.22.34,3.34.45.49,0,1,.22,1.48,0a.73.73,0,0,0,.42-.35l.59.14c3.22.68,5.81.77,8.44,1.18s5.13.52,7.7.78c.58.1,3,.5,4.77.63.1.37.44,3.63.83,3.62,1.32.11,2.64.28,4,.41.37.67,1-.54,1.74-.37,1.7.18,3.4.15,5.1.19s3.51.2,5.27.17c1.48,0,3,.85,4.44.66a21.53,21.53,0,0,0,4.73-.56c0,.52.4,0,.92,0h3c3.45-.31,11.2-.53,11.36-.48,1.5,0,3,0,4.5-.07h1.18a1,1,0,0,0,.46-.89,5.74,5.74,0,0,0-.65-1.65C237.09,196.58,235.84,194.15,235.6,193.66Z"/></g><path d="M197,71.48h-.1a.37.37,0,0,1-.29-.4c0-.5.07-1,.11-1.49.34-4.46.7-9.06-1.72-12.46-.31-.43-.67-.84-1-1.25a11,11,0,0,1-1.66-2.33,11.46,11.46,0,0,1-.78-4.81c0-5.14-.06-10.44.88-15.58.42-2.29,1.22-5.6,3.38-8,3-3.31,7.72-4.2,12.41-4.67a123.66,123.66,0,0,1,26.58-.09c4.62.53,10.38,1.65,13.91,5.65,2.92,3.32,3.73,7.89,4.17,12.33a25.48,25.48,0,0,1-.1,7.65,18.07,18.07,0,0,1-2.24,5.52,12,12,0,0,1-3.34,3.89c-2.5,1.75-5.78,1.89-8.41,2l-20.25.88A62.25,62.25,0,0,0,207,59.58a7,7,0,0,0-2.78,1.13,7.51,7.51,0,0,0-1.56,1.9c-1.87,2.81-3.61,5.74-5.19,8.72A.39.39,0,0,1,197,71.48Zm25.58-51a130.8,130.8,0,0,0-14.27.78c-4.52.45-9.09,1.3-11.9,4.4-1.55,1.74-2.54,4.09-3.18,7.62a84.92,84.92,0,0,0-.87,15.45,10.65,10.65,0,0,0,.69,4.47,9.34,9.34,0,0,0,1.56,2.13,10.45,10.45,0,0,1,1,1.3c2.52,3.54,2.24,8.13,1.9,12.61,1.34-2.44,2.8-4.84,4.34-7.15a8.48,8.48,0,0,1,1.77-2.1,7.79,7.79,0,0,1,3.11-1.27,65,65,0,0,1,11.8-1.24l20.27-.9c2.53-.11,5.66-.24,8-1.86A11.11,11.11,0,0,0,250,51.15a17.35,17.35,0,0,0,2.14-5.28,24.67,24.67,0,0,0,0-7.38c-.43-4.31-1.21-8.74-4-11.88-3.34-3.8-8.92-4.88-13.4-5.39a104.76,104.76,0,0,0-12.14-.71Z"/><path d="M203.9,45.25a.39.39,0,0,1-.31-.45h0a.41.41,0,0,1,.31-.32l35.65-1.4h0a.37.37,0,0,1,.31.42h0a.38.38,0,0,1-.31.31Z"/><path d="M203.25,34.92a.4.4,0,0,1-.32-.46h0a.41.41,0,0,1,.32-.31l36.3-1.5A.4.4,0,0,1,240,33h0a.38.38,0,0,1-.35.41h0L203.25,35Z"/><g opacity=".13"><path d="M250.58,48.29a22.49,22.49,0,0,1-2.33,3.4,9.44,9.44,0,0,1-3.35,2.06,7,7,0,0,1-.88.3,6.25,6.25,0,0,1-.86.18c-1.35.15-2.71.1-4.08.16-2.25,0-4.5.13-6.75.21-4.67,0-9.34.29-14,.68a37,37,0,0,0-6.19.82,21.27,21.27,0,0,0-4.62,1.28.87.87,0,0,0-.32,1.19h0a.88.88,0,0,0,1.1.37,40.8,40.8,0,0,1,6.76-1.23c2.12-.23,4.26-.16,6.39-.27,4.67-.21,9.34-.48,14-.64,1.71,0,3.41-.13,5.1-.23a21.4,21.4,0,0,0,3.57-.37,10,10,0,0,0,6.23-4.61c.4-.61.78-1.23,1.19-1.87a2.8,2.8,0,0,0,.44-.86.78.78,0,0,0-.69-.86h0A.8.8,0,0,0,250.58,48.29Z"/></g></svg>