<svg id="Layer_1" data-name="Layer 1" xmlns="http://www.w3.org/2000/svg" viewBox="0 0 783.57 354.26"><defs><style>.cls-1{opacity:0.13;}.cls-2{fill:#acd4f7;}.cls-3{fill:#fff;}</style></defs><title>bg-img2</title><path d="M195,292.78a.46.46,0,0,1-.23-.06.51.51,0,0,1-.21-.67,273.73,273.73,0,0,1,34.82-50.92.49.49,0,0,1,.74.64,272.25,272.25,0,0,0-34.69,50.74A.52.52,0,0,1,195,292.78Z"/><path d="M182.72,283.09a.46.46,0,0,1-.28-.08.5.5,0,0,1-.12-.69,292.22,292.22,0,0,1,35-41.67.49.49,0,1,1,.69.7,291.67,291.67,0,0,0-34.91,41.53A.49.49,0,0,1,182.72,283.09Z"/><path d="M120.78,249.89a.5.5,0,0,1-.49-.42.49.49,0,0,1,.41-.56h0a286.16,286.16,0,0,0,91.42-30.55.49.49,0,0,1,.47.87h0a287.32,287.32,0,0,1-91.74,30.65Z"/><path d="M123.93,283.09a.49.49,0,0,1-.26-.91L211.16,228a.49.49,0,0,1,.52.84h0L124.19,283A.48.48,0,0,1,123.93,283.09Z"/><path d="M465.2,194.72a.51.51,0,0,1-.51-.51.5.5,0,0,1,.14-.35l17-15.43a.5.5,0,0,1,.59,0l13,7.89,24.9-26.41a.47.47,0,0,1,.6-.09l9.81,5.66,22.18-23a.5.5,0,0,1,.81.59h0l-.1.1-22.39,23.22a.47.47,0,0,1-.6.08l-9.8-5.65-24.9,26.44a.5.5,0,0,1-.62.08l-13-7.91-16.78,15.16A.51.51,0,0,1,465.2,194.72Z"/><path d="M551.93,150.7a.49.49,0,0,1-.49-.49,18.66,18.66,0,0,1,1.27-6.81,44.23,44.23,0,0,1-6.72,2.26.51.51,0,1,1-.24-1,41.3,41.3,0,0,0,7.71-2.72.49.49,0,0,1,.56.1.5.5,0,0,1,.09.56,17.49,17.49,0,0,0-1.68,7.56.49.49,0,0,1-.48.5h0Z"/><path d="M41.28,265.17a.49.49,0,0,1-.48-.39,41.88,41.88,0,0,1,1.25-22.2.48.48,0,0,1,.58-.35.47.47,0,0,1,.35.58.36.36,0,0,1,0,.11,40.93,40.93,0,0,0-1.22,21.67.49.49,0,0,1-.37.59h-.07Z"/><path d="M31.12,263.09a.48.48,0,0,1-.48-.41l-1.37-7.19a.51.51,0,1,1,1-.2h0l1.37,7.2a.47.47,0,0,1-.35.57h-.17Z"/><path d="M392.29,165.7c-5.55,0-11-.61-15-4a12.8,12.8,0,0,1-.69-18.09h0c.18-.2.37-.39.57-.58a12.8,12.8,0,0,1,9.95-2.83,13.07,13.07,0,0,1,8.13,4,15.55,15.55,0,0,1,4.87-9.77A19.2,19.2,0,0,1,414,128.91c8.17.3,16.2,6,20.17,14a8.54,8.54,0,0,1,2.88-4.73,10.73,10.73,0,0,1,9.41-2.39c5.67,1.49,9,7.06,9.69,12.21a11.57,11.57,0,0,1,9-3.45,11.35,11.35,0,0,1,9.49,5,9.23,9.23,0,0,1,1.45,5.74c-.47,4.52-4.78,7.56-8.59,8.48-2.59.62-6.22.68-7.21.29L395,165.71C394.11,165.68,393.2,165.7,392.29,165.7Zm-6.85-24.61a11.49,11.49,0,0,0-7.59,2.68,11.81,11.81,0,0,0-.4,16.7h0c.16.17.33.33.5.49,4.34,3.72,10.54,3.88,17,3.71L460.63,163h.15a.51.51,0,0,1,.39.19,20.25,20.25,0,0,0,6.06-.44c3.48-.84,7.42-3.58,7.84-7.62a8.17,8.17,0,0,0-1.31-5.11,11.2,11.2,0,0,0-15.67-2.3,10.87,10.87,0,0,0-1.91,1.8.5.5,0,0,1-.9-.27c-.21-5.1-3.39-11-9.06-12.53a9.69,9.69,0,0,0-8.51,2.17,7,7,0,0,0-2.65,6,.49.49,0,0,1-.45.53h0a.48.48,0,0,1-.49-.3c-3.43-8.69-11.72-15-20.15-15.29a18.28,18.28,0,0,0-13.15,5.23,14.28,14.28,0,0,0-4.61,10.4.5.5,0,0,1-.51.49h0a.5.5,0,0,1-.39-.2,11.72,11.72,0,0,0-8.28-4.63,14.08,14.08,0,0,0-1.59,0Z"/><g class="cls-1"><path d="M472.72,157.49h0a10.09,10.09,0,0,1-2.39,1.65,14.94,14.94,0,0,1-4.94,1c-2.08.12-4.15-.27-6.24-.28-5.59,0-11.18.14-16.77.06-7.19.1-14.37.19-21.56.35-2.52.09-5,.35-7.54.52-2.91.18-5.82.28-8.74.44-4.36.1-8.73.44-13.08.12-.71-.06-1.52-.29-2.07.3a1.4,1.4,0,0,0,0,2l0,0a1.4,1.4,0,0,0,1,.4,62,62,0,0,0,9.14.22c1.18,0,2.35-.06,3.53-.09a.85.85,0,0,0,.77.45c3.57.29,7.15.13,10.73.25q12.6.44,25.2-.31c3.12-.17,6.23-.27,9.35-.4l3.28-.16a1.22,1.22,0,0,0,.92-.26.77.77,0,0,0,.24-.59h7.55a.83.83,0,0,0,.4.74,1.71,1.71,0,0,0,1,.07c.6-.06,1.19-.13,1.79-.21a26.74,26.74,0,0,0,3.08-.65,5.15,5.15,0,0,0,1.32-.45.76.76,0,0,0,.34-.6,9.91,9.91,0,0,0,4.29-2.63c.34-.39.9-.71.9-1.28a.89.89,0,0,0-1.5-.64Z"/></g><path d="M250.4,25.66a.5.5,0,0,1-.42-.22c-1.42-2.25-3.85-4.15-7.4-5.8a8.21,8.21,0,0,0-3.88-1,9.68,9.68,0,0,0-2,.38c-.23.07-.45.13-.68.18-2.53.62-6.56,1.69-6.6,1.7a.41.41,0,0,1-.22,0c-.85-.16-1-.7-1-.92a1.33,1.33,0,0,1,.87-1.2l3.56-1.7h.09a7,7,0,0,0,2.32-1,17.82,17.82,0,0,0-5.42.87c-1.16.29-2.36.6-3.54.81-.84.15-1.23-.14-1.4-.41a1.47,1.47,0,0,1,.16-1.58h0c.64-.7,2.94-1.33,6-2a37.13,37.13,0,0,0-5.94.76h0a1.15,1.15,0,0,1-1.27-.84,1.22,1.22,0,0,1,.48-1.55h0c2.23-1.28,9-2.2,9.67-2.26L235,9.77l-1-.51c-2.19-1.12-4.67-2.39-6.52-2.43A1.11,1.11,0,0,1,226.35,6a1.12,1.12,0,0,1,.53-1.32l.26-.13a5,5,0,0,1,2-.29,18.29,18.29,0,0,1,6.29,1.64,30.78,30.78,0,0,0,3.5,1.21l.69.19c.56.16,1.39.39,2,.52A18.14,18.14,0,0,1,243,.91a1.49,1.49,0,0,1,2.78.09.54.54,0,0,1,0,.18,13.1,13.1,0,0,1,0,1.4,15.53,15.53,0,0,0,.5,5.12,5.6,5.6,0,0,0,1.15,1.84,7.51,7.51,0,0,1,1.07,1.55,15.4,15.4,0,0,1,.94,3.26c.12.56.24,1.14.39,1.69a13.57,13.57,0,0,0,4.1,6.52A.49.49,0,0,1,254,23c-.22.93-1.82,2.29-3.57,2.65Zm-11.47-8A9.84,9.84,0,0,1,243,18.79c3.58,1.67,6.08,3.59,7.63,5.87a4.83,4.83,0,0,0,2.37-1.6,14.45,14.45,0,0,1-4.14-6.8c-.16-.58-.28-1.17-.4-1.74a14.1,14.1,0,0,0-.88-3.06,7.41,7.41,0,0,0-.94-1.35,6,6,0,0,1-1.34-2.24,16.06,16.06,0,0,1-.52-5.39,8.42,8.42,0,0,0,0-1.23.51.51,0,0,0-.67-.26.55.55,0,0,0-.26.26,18,18,0,0,0-1.22,7.08.53.53,0,0,1-.17.35.5.5,0,0,1-.37.13,20.34,20.34,0,0,1-2.67-.64L238.75,8a30.75,30.75,0,0,1-3.61-1.24,17.48,17.48,0,0,0-5.94-1.57,4,4,0,0,0-1.65.21l-.15.08a.14.14,0,0,0-.07.18.16.16,0,0,0,.18.14h0c2.11,0,4.7,1.37,7,2.53.94.48,1.82.93,2.56,1.24a.49.49,0,0,1,.27.64h0a.5.5,0,0,1-.39.3c-.91.11-2,.21-3,.3s-7.36,1-9.29,2.14h0c-.16.1-.08.3-.07.33a.37.37,0,0,0,.2.12h0c3.17-.86,11.31-1,11.65-1a.49.49,0,0,1,.49.49h0a.5.5,0,0,1-.32.46c-.57.2-1.78.46-3.32.79-2.58.55-6.89,1.47-7.59,2.16a.8.8,0,0,0-.14.45h.37c1.14-.21,2.32-.5,3.47-.79,2.83-.72,5.28-1.34,6.83-.61a.55.55,0,0,1,.27.33.51.51,0,0,1-.09.41A6.59,6.59,0,0,1,233,18l-3.5,1.67h-.09a.46.46,0,0,0-.17.17h0c.69-.18,4.2-1.11,6.5-1.68l.66-.17a10.21,10.21,0,0,1,2.19-.42Z"/><path class="cls-2" d="M305.22,113.11a9.49,9.49,0,0,1,3.6-.17l9.88.77c1.92.15,4.08.43,5.22,2a4.26,4.26,0,0,1,.51,3.67,8.8,8.8,0,0,1-5.52,5.25c-2.74.65-5.49-.94-7.72-2.66a47.92,47.92,0,0,1-5-4.44,4.65,4.65,0,0,1-1.32-2A3.3,3.3,0,0,1,305.22,113.11Z"/><path d="M317.63,125.26c-2.61,0-5-1.6-6.73-2.91a49.15,49.15,0,0,1-5.07-4.49,4.93,4.93,0,0,1-1.45-2.17,3.83,3.83,0,0,1,.47-2.88.51.51,0,0,1,.23-.15,10.3,10.3,0,0,1,3.79-.2l9.88.78c2,.16,4.32.47,5.58,2.17a4.66,4.66,0,0,1,.58,4.1A9.33,9.33,0,0,1,319,125.1,6,6,0,0,1,317.63,125.26Zm-12.08-11.71a3,3,0,0,0-.22,1.89,4.26,4.26,0,0,0,1.2,1.73,47.54,47.54,0,0,0,5,4.4c1.84,1.41,4.59,3.21,7.3,2.57a8.27,8.27,0,0,0,5.16-4.91,3.72,3.72,0,0,0-.43-3.24c-1-1.36-3-1.63-4.85-1.77l-9.88-.77a9.57,9.57,0,0,0-3.29,0Z"/><path class="cls-3" d="M279.86,114.47a228.09,228.09,0,0,0,9.44-47.42c-9.19-6.92-28-9-32-17.74C252,37.86,247,29,245.3,21c0,0,7.75-2.53,7.48-2.59,2.07,6.06,9.06,16.27,15,24.74,2.85,4.07,17,3.8,25.68,6.35,16.39,5.21,24.89,2.12,33.14,16,5.26,8.86,4.79,23.72,20.42,45.05a42.85,42.85,0,0,1-7.56,6.27l-8-10.93a62.72,62.72,0,0,1-5.56-8.5A63.51,63.51,0,0,1,322,87.17c-1-3.17-2-6.34-3.31-9.78-4.25,14.87-6.29,31.58-15.13,43.84C295.37,119.55,286.72,117.66,279.86,114.47Z"/><path d="M303.63,121.72h-.1c-8.3-1.7-17-3.61-23.83-6.79a.5.5,0,0,1-.26-.59,228.84,228.84,0,0,0,9.4-47c-3.7-2.71-9-4.71-14.12-6.65-7.9-3-15.37-5.8-17.82-11.11-1.32-2.84-2.6-5.51-3.85-8.08-3.69-7.66-6.89-14.24-8.12-20.31a.49.49,0,0,1,.33-.57c2.54-.83,6.66-2.21,7.31-2.5a.49.49,0,0,1,.81.28c2.05,5.93,8.76,15.77,14.89,24.54,1.66,2.36,8,3.24,14.09,4.09a81.77,81.77,0,0,1,11.32,2,110.3,110.3,0,0,0,12.14,3c9.11,1.88,15.21,3.1,21.23,13.23,1.86,3.13,3,7,4.37,11.52,2.62,8.75,5.88,19.63,16,33.49a.5.5,0,0,1,0,.63,43.84,43.84,0,0,1-7.64,6.35.49.49,0,0,1-.66-.13l-8-10.93a64.77,64.77,0,0,1-5.61-8.57,65.19,65.19,0,0,1-4-10.34c-.84-2.68-1.7-5.44-2.77-8.34-.91,3.29-1.73,6.7-2.53,10-2.75,11.45-5.6,23.28-12.27,32.53A.52.52,0,0,1,303.63,121.72ZM280.5,114.2c6.61,3,14.92,4.84,22.91,6.48,6.43-9.06,9.23-20.69,11.94-31.93.91-3.81,1.86-7.75,2.94-11.51a.47.47,0,0,1,.45-.35.49.49,0,0,1,.48.31c1.34,3.46,2.35,6.68,3.32,9.8a63.9,63.9,0,0,0,3.82,10.17,65.18,65.18,0,0,0,5.53,8.44l7.74,10.56a43.23,43.23,0,0,0,6.78-5.66C336.36,96.67,333,85.35,330.49,77.07c-1.33-4.45-2.48-8.28-4.27-11.3-5.81-9.77-11.71-11-20.64-12.76a111.85,111.85,0,0,1-12.23-3,83.12,83.12,0,0,0-11.18-2c-6.61-.91-12.86-1.78-14.75-4.49-6-8.62-12.61-18.27-14.86-24.35-.88.37-2.73,1-6.62,2.25,1.32,5.82,4.42,12.25,8,19.66,1.24,2.58,2.53,5.24,3.85,8.1,2.29,4.94,9.57,7.69,17.28,10.6,5.29,2,10.75,4.07,14.58,6.94a.53.53,0,0,1,.19.44,226.85,226.85,0,0,1-9.39,47Z"/><path class="cls-3" d="M309.22,43.18a65.21,65.21,0,0,1-5.86,10.23,23.44,23.44,0,0,0,2.95,6.48,2.39,2.39,0,0,0,3.09,1.37h0a2.32,2.32,0,0,0,.59-.34c1.75-.8,3.6-1.69,4.46-3.33a8,8,0,0,0,.68-2.3c.57-3,1.15-6,1.72-9l-5.22-2.58A3.13,3.13,0,0,0,309.22,43.18Z"/><path d="M308.35,61.84a2.34,2.34,0,0,1-.74-.12,3.44,3.44,0,0,1-1.68-1.56,24,24,0,0,1-3-6.62.5.5,0,0,1,.07-.41A65,65,0,0,0,308.82,43a.45.45,0,0,1,.28-.26,3.58,3.58,0,0,1,2.79.52l5.23,2.58a.47.47,0,0,1,.26.53l-1.72,9a8.3,8.3,0,0,1-.72,2.43c-.9,1.71-2.66,2.62-4.69,3.55A4.68,4.68,0,0,1,308.35,61.84Zm-4.42-8.34a23,23,0,0,0,2.83,6.12,1.93,1.93,0,0,0,2.47,1.16,2,2,0,0,0,.6-.35c1.87-.85,3.47-1.68,4.22-3.1a7.85,7.85,0,0,0,.64-2.17l1.65-8.62-4.9-2.42a3.3,3.3,0,0,0-1.83-.52A65.2,65.2,0,0,1,303.93,53.5Z"/><path d="M192.63,193.09a.49.49,0,0,1-.49-.49.48.48,0,0,1,.14-.34L234.21,149a.5.5,0,0,1,.49-.13l37.15,11.26a.5.5,0,0,1,.33.33.54.54,0,0,1-.09.46l-17.3,21.32a.51.51,0,0,1-.3.17l-61.76,10.66Zm42.08-43.17L194,191.86l60.09-10.33,16.73-20.65Z"/><path d="M250.63,268.49a.49.49,0,0,1-.49-.49v0a.43.43,0,0,1,.07-.25l33.54-52.94a.58.58,0,0,1,.28-.21l26.37-7.76a.49.49,0,0,1,.61.33h0a.31.31,0,0,1,0,.19L307.13,246a.51.51,0,0,1-.31.41l-56,22.08A.41.41,0,0,1,250.63,268.49Zm33.86-53L251.85,267l54.35-21.42L310,208Z"/><path d="M247.11,242a.5.5,0,0,1-.33-.12c-11.83-10.79-20.39-23.23-25.44-37a.49.49,0,0,1,0-.41.45.45,0,0,1,.34-.24c10.07-1.73,16.51-4.54,23.88-8a.5.5,0,0,1,.63.19c3.17,5.26,6.79,10.21,10.3,15,2.55,3.48,5,6.76,7.16,10.11a.49.49,0,0,1-.08.64,67.75,67.75,0,0,0-13.76,16.14c-.78,1.22-1.52,2.36-2.33,3.52a.55.55,0,0,1-.35.2Zm-24.64-36.86A93.24,93.24,0,0,0,247,240.72c.68-1,1.32-2,2-3a68.33,68.33,0,0,1,13.6-16c-2.12-3.21-4.45-6.38-6.9-9.72-3.43-4.68-7-9.52-10.11-14.68C238.49,200.64,232.15,203.36,222.47,205.09Z"/><path class="cls-3" d="M243.71,202.48a57.33,57.33,0,0,0,11,16,61.22,61.22,0,0,0,14.59,11c1.44.79,1.35.14,2.88.81,18-4.64,91.17-51.81,112.1-66.74,43.64-31.13,55.94-88.72,55.94-88.72s-58.46-7.12-102.1,24c-21.83,15.58-89.19,71.61-99.31,87.67A62.52,62.52,0,0,0,243.71,202.48Z"/><path d="M272.17,230.81h-.24a3.21,3.21,0,0,0-1.25-.32A3.3,3.3,0,0,1,269,230a61.4,61.4,0,0,1-14.7-11.13,58.13,58.13,0,0,1-11.08-16.11,62.94,62.94,0,0,1-5-16.08.5.5,0,0,1,.07-.34c10.13-16.07,77-71.79,99.44-87.81C360.37,82.37,387,76.67,405.39,74.74a173,173,0,0,1,34.8-.33.49.49,0,0,1,.43.54h0A171.7,171.7,0,0,1,429,107.75c-7.8,16.74-21.86,40.09-44.49,56.23-20,14.3-93.78,62.05-112.27,66.82Zm-28-28.54a56.79,56.79,0,0,0,10.9,15.84,60.34,60.34,0,0,0,14.46,11,2.42,2.42,0,0,0,1.25.39,3.93,3.93,0,0,1,1.43.33c17.87-4.77,90.52-51.45,111.79-66.62,22.45-16,36.4-39.2,44.16-55.82a175.14,175.14,0,0,0,11.47-32.13,174.51,174.51,0,0,0-34.05.39c-18.25,2-44.71,7.61-67.15,23.61s-88.68,71.19-99.08,87.38a62.28,62.28,0,0,0,4.81,15.62Z"/><path d="M272.17,230.81h-.24a3.21,3.21,0,0,0-1.25-.32A3.3,3.3,0,0,1,269,230a61.4,61.4,0,0,1-14.7-11.13,58.13,58.13,0,0,1-11.08-16.11,62.94,62.94,0,0,1-5-16.08.5.5,0,0,1,.07-.34,55.23,55.23,0,0,1,5.36-6.74.49.49,0,0,1,.69,0,.5.5,0,0,1,.16.27c.09.43.18.85.28,1.26a61.13,61.13,0,0,0,2.19,7.13,71.29,71.29,0,0,0,6.32,13,67.24,67.24,0,0,0,17.41,19h0a44,44,0,0,0,11,5.85.5.5,0,0,1,.32.44.5.5,0,0,1-.28.47,58.45,58.45,0,0,1-9.47,3.74Zm-32.85-44.17a61.54,61.54,0,0,0,4.84,15.62,56.79,56.79,0,0,0,10.9,15.84,60.34,60.34,0,0,0,14.46,11,2.42,2.42,0,0,0,1.25.39,3.93,3.93,0,0,1,1.43.33,55.77,55.77,0,0,0,8.08-3.13,45.55,45.55,0,0,1-10.15-5.57h0a68.49,68.49,0,0,1-17.59-19.48,72.71,72.71,0,0,1-6.4-13.12,61.35,61.35,0,0,1-2.21-7.26.57.57,0,0,0-.07-.34,50.5,50.5,0,0,0-4.52,5.68Z"/><path d="M404.09,146.09a.47.47,0,0,1-.3-.1c-1.89-1.43-3.68-2.89-5.33-4.35a110.85,110.85,0,0,1-12.06-12.55,149.63,149.63,0,0,1-10.33-14.21c-2.95-4.57-5.88-9.54-8.95-15.18h0c-2.1-3.89-4.33-8.2-6.81-13.18a.45.45,0,0,1,0-.39.57.57,0,0,1,.27-.28c20.11-8.5,40.71-11.17,54.45-11.92a159,159,0,0,1,25.26.43.49.49,0,0,1,.43.54h0A160.77,160.77,0,0,1,433,98.65c-5.1,12.61-14.18,31-28.53,47.24A.48.48,0,0,1,404.09,146.09ZM368,99.26c3.05,5.62,6,10.56,8.91,15.11a149.45,149.45,0,0,0,10.26,14.12,111,111,0,0,0,12,12.44c1.53,1.35,3.18,2.7,4.92,4,14.07-16,23-34.15,28-46.59a164.5,164.5,0,0,0,7.55-23A165.07,165.07,0,0,0,415.07,75c-13.55.73-33.79,3.35-53.61,11.64,2.37,4.77,4.52,8.92,6.56,12.67Z"/><path d="M404.09,146.09a.47.47,0,0,1-.3-.1c-1.89-1.43-3.68-2.9-5.33-4.35a110.85,110.85,0,0,1-12.06-12.55,149.63,149.63,0,0,1-10.33-14.21c-2.95-4.57-5.88-9.54-8.95-15.18-2.1-3.89-4.33-8.2-6.81-13.18a.45.45,0,0,1,0-.39.57.57,0,0,1,.27-.28c3.82-1.61,7.85-3.1,12-4.41a.5.5,0,0,1,.61.29c1.67,4.21,3.55,8.4,5.57,12.45,2.16,4.31,4.64,8.68,7.37,13,2.62,4.13,5.53,8.28,8.66,12.33s6.32,7.79,9.71,11.42h0c2.25,2.4,4.34,4.52,6.39,6.47a.49.49,0,0,1,0,.66c-2.1,2.77-4.27,5.41-6.44,7.86A.46.46,0,0,1,404.09,146.09ZM361.43,86.56c2.4,4.83,4.49,8.86,6.56,12.67,3.05,5.62,6,10.56,8.91,15.11a149.45,149.45,0,0,0,10.26,14.12,111,111,0,0,0,12,12.44c1.52,1.35,3.18,2.7,4.92,4,2-2.23,3.91-4.62,5.82-7.11-2-1.88-4-3.92-6.11-6.21-3.41-3.65-6.7-7.51-9.77-11.48s-6.08-8.26-8.71-12.42c-2.75-4.35-5.25-8.75-7.42-13.09-2-3.94-3.8-8-5.44-12.1C368.63,83.73,364.93,85.09,361.43,86.56Z"/><path d="M342.49,166.57A20,20,0,0,1,330.8,130.2h0a20,20,0,1,1,11.69,36.37ZM331.37,131A19.07,19.07,0,1,0,358,135.5l0,0h0A19.09,19.09,0,0,0,331.37,131Z"/><path d="M342.48,161a14,14,0,0,1-2.42-.2,14.49,14.49,0,0,1-6-26.09h0a14.49,14.49,0,0,1,16.8,23.54A14.27,14.27,0,0,1,342.48,161Zm-7.85-25.49h0a13.51,13.51,0,1,0,18.84,3.16h0a13.43,13.43,0,0,0-18.7-3.26h0Z"/><path d="M286.63,200.81a17.09,17.09,0,1,1,16.7-14.23A16.92,16.92,0,0,1,286.63,200.81Zm-.05-33.09a16,16,0,1,0,13.05,6.73A16,16,0,0,0,286.58,167.72Z"/><path d="M286.63,196.11a12.91,12.91,0,0,1-2.06-.17,12.34,12.34,0,0,1-5.13-22.21h0a12.33,12.33,0,1,1,7.19,22.38ZM280,174.53h0a11.35,11.35,0,1,0,15.83,2.65h0a11.28,11.28,0,0,0-15.71-2.76l-.16.11Z"/><path class="cls-3" d="M305.63,65a40.74,40.74,0,0,1-8.87,8.57,18.53,18.53,0,0,1-11.67,3.36c-4.7-.4-9.1-3.09-13.81-2.75-4.29.31-8.06,3.11-12.32,4l8.86,5.53A20.41,20.41,0,0,0,272.43,86a16,16,0,0,0,6.2.4,38.66,38.66,0,0,0,28.54-17.55,4.69,4.69,0,0,0,.94-2.51C308.05,65.43,307.33,64.48,305.63,65Z"/><path d="M276.25,87a13.55,13.55,0,0,1-4-.54,20.38,20.38,0,0,1-4.72-2.4l-8.9-5.52a.49.49,0,0,1-.17-.67.49.49,0,0,1,.33-.23,29.47,29.47,0,0,0,5.32-1.87A16.81,16.81,0,0,1,279.18,75a29.57,29.57,0,0,0,5.87,1.35,18,18,0,0,0,11.35-3.28,41.1,41.1,0,0,0,8.75-8.47.56.56,0,0,1,.26-.17,2.58,2.58,0,0,1,2.32.27,2,2,0,0,1,.78,1.58,5.11,5.11,0,0,1-1,2.78,39.33,39.33,0,0,1-28.88,17.78C277.93,87,277.11,87,276.25,87Zm-16.07-8.74,7.87,4.91a19.8,19.8,0,0,0,4.49,2.29,15.76,15.76,0,0,0,6,.38,38.34,38.34,0,0,0,28.18-17.32,4.31,4.31,0,0,0,.85-2.23,1.07,1.07,0,0,0-.38-.82,1.63,1.63,0,0,0-1.33-.14A41.49,41.49,0,0,1,297,73.87a19.16,19.16,0,0,1-12,3.45,30.73,30.73,0,0,1-6.07-1.4c-2.61-.79-5.08-1.55-7.66-1.36a21.31,21.31,0,0,0-6.75,2.06A39.08,39.08,0,0,1,260.18,78.26Z"/><path d="M329.93,193.26h-.13a35.26,35.26,0,0,1-9.32-4.52l-5.87-3.62a.51.51,0,0,1-.2-.62c1.24-2.81,2.55-5.21,3.81-7.53.44-.81.87-1.6,1.29-2.4a.49.49,0,0,1,.6-.24,4.7,4.7,0,0,1,2.88,3.12,12.93,12.93,0,0,1,.45,1.73,14,14,0,0,0,.48,1.8,14.34,14.34,0,0,0,3,4.31c.3.35.61.69.9,1,2,2.38,2.87,4.51,2.61,6.51a.47.47,0,0,1-.21.35A.61.61,0,0,1,329.93,193.26Zm-14.44-8.76,5.5,3.39a36.37,36.37,0,0,0,8.48,4.24c0-1.56-.8-3.25-2.42-5.17-.29-.35-.59-.69-.89-1a11.38,11.38,0,0,1-3.68-6.55,15.6,15.6,0,0,0-.42-1.63,3.79,3.79,0,0,0-1.89-2.33l-1.08,2c-1.2,2.13-2.42,4.4-3.6,7Z"/><path class="cls-2" d="M279.93,114.26c-1.23,6.83-2,12.08,2.56,17.33,4.75,5.48,12.65,5.07,28.39,5.07,1,0,5.7.3,6.53.85,1.3.85.5,25.65-.21,40.39,3,.58,6,1.16,8.86.77,12.28-53.9,8.58-49.67,4.58-54-5.2-5.65-20-7.33-23.64-7.76a74.21,74.21,0,0,0-9.18-.71C291.34,116.26,283.87,117.53,279.93,114.26Z"/><path d="M324.07,179.26a38.33,38.33,0,0,1-7-.9.5.5,0,0,1-.4-.51c.88-18.21,1.31-38.32.39-40-.76-.41-4.85-.74-6.22-.74h-3c-13.63,0-21.14,0-25.71-5.25-4.86-5.62-3.8-11.5-2.68-17.74a.48.48,0,0,1,.32-.37.49.49,0,0,1,.48.08c3,2.44,8.19,2.2,13.23,2,1.44-.07,2.93-.14,4.35-.14a73.26,73.26,0,0,1,9.24.71h.16c12.3,1.45,20.3,4.11,23.78,7.9a13.6,13.6,0,0,0,1.18,1.1c3.62,3.16,5.43,4.74-5.64,53.35a.5.5,0,0,1-.42.38A15.07,15.07,0,0,1,324.07,179.26Zm-6.44-1.8a27.91,27.91,0,0,0,7.94.73c10.86-47.72,9-49.35,5.88-52A14.06,14.06,0,0,1,330.2,125c-2.29-2.48-8.16-5.81-23.18-7.58h-.16a73.25,73.25,0,0,0-9.12-.71c-1.4,0-2.87.08-4.3.14-4.9.23-9.94.47-13.25-1.7-1.2,6.82-1.5,11.42,2.59,16.14,4.28,5,11.2,4.94,25,4.92h3c.46,0,5.74.22,6.81.93.4.27,1.09.72.86,15.41-.06,6.93-.37,16.24-.82,25Z"/><path class="cls-2" d="M300.48,15.48a110.9,110.9,0,0,0,1.24,12.46,30.25,30.25,0,0,0,2.2,7.45,4.36,4.36,0,0,0,2,2.29c.18-1,1.3-1.42,1.57-2.42.33-1.24-.36-2.43.51-3.46a18.55,18.55,0,0,0,3.63-6.54,9,9,0,0,0,0-5.9,6.65,6.65,0,0,0-5-4C304.93,15.06,302,14.48,300.48,15.48Z"/><path d="M305.93,38.17a.43.43,0,0,1-.25-.07,4.73,4.73,0,0,1-2.21-2.51A30.8,30.8,0,0,1,301.23,28,111.56,111.56,0,0,1,300,15.51a.52.52,0,0,1,.23-.44c1.63-1.05,4.44-.56,6.31-.24h.28a7.1,7.1,0,0,1,5.33,4.43,9.42,9.42,0,0,1-.06,6.2,19,19,0,0,1-3.68,6.71,2.08,2.08,0,0,0-.33,1.66,4.78,4.78,0,0,1-.09,1.6,3.17,3.17,0,0,1-.89,1.38,2,2,0,0,0-.66,1,.45.45,0,0,1-.28.36A.38.38,0,0,1,305.93,38.17ZM301,15.76a111.62,111.62,0,0,0,1.23,12.11,29.53,29.53,0,0,0,2.15,7.31,3.78,3.78,0,0,0,1.33,1.75,4.26,4.26,0,0,1,.67-.85,2.4,2.4,0,0,0,.66-1,3.5,3.5,0,0,0,.06-1.29,3.06,3.06,0,0,1,.55-2.36,18,18,0,0,0,3.49-6.35,8.42,8.42,0,0,0,.09-5.56,6.1,6.1,0,0,0-4.58-3.67l-.28,0c-1.62-.28-4-.7-5.37,0Z"/><path class="cls-3" d="M328.63,24.42c-.34,3.38.18,6.79,0,10.18s-1.06,6.94-3.78,9.4a12.5,12.5,0,0,1-9.63,2.84,11.72,11.72,0,0,1-8.44-5c-1.57-2.5-1.63-7.8-1.76-10.45a4.89,4.89,0,0,1-4.21-1.53,2.65,2.65,0,0,1,.32-3.72c1.14-.93,2.53-1,4,.53a24.63,24.63,0,0,1,.68-5.27c.58-2.63.82-6.56,2.72-7.61a20.81,20.81,0,0,1,4.56-1.3c2.17-.46,5.07,1,7.31,1.14a12.6,12.6,0,0,1,6.22,2.47C328.79,17.52,328.93,21.89,328.63,24.42Z"/><path d="M316.79,47.42a13.82,13.82,0,0,1-1.58-.09,12.24,12.24,0,0,1-8.81-5.24c-1.47-2.36-1.67-6.83-1.77-9.83v-.4a5.33,5.33,0,0,1-4.12-1.75,3.13,3.13,0,0,1,.39-4.4,3,3,0,0,1,3.89-.14,26.56,26.56,0,0,1,.65-4.26h0c.12-.54.22-1.13.33-1.75.43-2.46.92-5.25,2.64-6.19A19.93,19.93,0,0,1,312.93,12h.14a10.36,10.36,0,0,1,4.55.56,14.12,14.12,0,0,0,2.88.57A12.78,12.78,0,0,1,327,15.72c2.69,1.85,2.26,7.64,2.14,8.79a41.27,41.27,0,0,0,0,5.67c.06,1.47.12,3,.06,4.48-.18,4.26-1.51,7.54-3.94,9.75A12.79,12.79,0,0,1,316.79,47.42ZM305.06,30.87a.6.6,0,0,1,.32.12.53.53,0,0,1,.17.35v.92c.11,2.69.31,7.19,1.65,9.32a11.23,11.23,0,0,0,8.08,4.79,12,12,0,0,0,9.24-2.71c2.23-2,3.45-5.07,3.62-9.06.06-1.45,0-3-.07-4.4a43.33,43.33,0,0,1,0-5.81c.29-2.89,0-6.69-1.72-7.88a12,12,0,0,0-6-2.39,14.92,14.92,0,0,1-3.1-.61,9.44,9.44,0,0,0-4.08-.54H313a20.51,20.51,0,0,0-4.28,1.22c-1.3.72-1.74,3.26-2.14,5.5-.11.63-.21,1.23-.34,1.79v.06a24.32,24.32,0,0,0-.66,5.1.48.48,0,0,1-.3.45.49.49,0,0,1-.54-.11c-1.19-1.22-2.3-1.38-3.38-.49a2.15,2.15,0,0,0-.24,3,4.37,4.37,0,0,0,3.79,1.33Z"/><path class="cls-2" d="M318.63,18.36a6.25,6.25,0,0,0,3.72,4.18c1.44.3,2-.32,2.78-1.66,1.18,1.28,2,2.55,3.3,3.19A4.13,4.13,0,0,0,333.91,22l0,0a4.45,4.45,0,0,0-2.12-5.63c1.34.47,2.86-.79,3-2.26a4,4,0,0,0-1.92-3.7A13.31,13.31,0,0,0,328.82,9a3.74,3.74,0,0,0-.91-4.21,5.8,5.8,0,0,0-4.12-1.4,5.2,5.2,0,0,0-2.8.76,3.45,3.45,0,0,0-1.51,2.59A5.5,5.5,0,0,0,314.42,4c-2,.27-3.71,2.5-4,4.12a4.62,4.62,0,0,0-3.49-2.42c-2.91-.14-3.82,2.25-2.84,5.56a3.37,3.37,0,0,0-4.59,1.25c-.07.14-.14.28-.2.42a6.72,6.72,0,0,0,.63,5.76c1,1.43,5,3,8.09,1.21A7.69,7.69,0,0,0,311.25,16a5.67,5.67,0,0,0,3.27,3.53A3.09,3.09,0,0,0,318.63,18.36Z"/><path d="M330,24.94a4.25,4.25,0,0,1-1.85-.43,8.83,8.83,0,0,1-2.61-2.37c-.12-.14-.25-.28-.37-.43a2.51,2.51,0,0,1-3,1.31c-1.34-.28-3.1-2-3.81-3.58a3.76,3.76,0,0,1-4.09.55,5.69,5.69,0,0,1-3.07-2.84,7.78,7.78,0,0,1-3,3.15c-3.36,1.92-7.62.19-8.73-1.35a7.22,7.22,0,0,1-.69-6.25,3.93,3.93,0,0,1,2.48-2.25,3.77,3.77,0,0,1,2,0,5,5,0,0,1,.6-4.06,3.36,3.36,0,0,1,3.05-1.13,4.5,4.5,0,0,1,3.23,1.84,5.9,5.9,0,0,1,4.14-3.53,5.62,5.62,0,0,1,4.88,2.12,3.85,3.85,0,0,1,1.48-1.85A5.78,5.78,0,0,1,323.72,3a6.21,6.21,0,0,1,4.47,1.53,4.29,4.29,0,0,1,1.23,4.23h.24A10.6,10.6,0,0,1,333.1,10a4.53,4.53,0,0,1,2.14,4.18,3.29,3.29,0,0,1-1.53,2.37,3.6,3.6,0,0,1-.52.26,5,5,0,0,1,1.09,5.4A4.78,4.78,0,0,1,330,25Zm-4.92-4.55a.52.52,0,0,1,.37.16,11.4,11.4,0,0,1,.84,1,8,8,0,0,0,2.32,2.08,3.41,3.41,0,0,0,2.66.1,3.65,3.65,0,0,0,2.12-1.94,4,4,0,0,0-1.87-5,.49.49,0,1,1,.36-.92,1.54,1.54,0,0,0,1.32-.2A2.41,2.41,0,0,0,334.3,14a3.57,3.57,0,0,0-1.67-3.22,9.68,9.68,0,0,0-3.13-1.11l-.79-.19a.45.45,0,0,1-.33-.27.51.51,0,0,1,0-.42,3.25,3.25,0,0,0-.81-3.64,5.24,5.24,0,0,0-3.77-1.26,4.68,4.68,0,0,0-2.53.67A2.93,2.93,0,0,0,320,6.79a.5.5,0,0,1-.91.23,4.94,4.94,0,0,0-4.57-2.56c-1.81.24-3.35,2.37-3.61,3.73a.49.49,0,0,1-.39.39.51.51,0,0,1-.51-.22,4.11,4.11,0,0,0-3-2.2,2.46,2.46,0,0,0-2.16.79c-.65.83-.72,2.34-.19,4.14a.49.49,0,0,1-.31.61h0a.49.49,0,0,1-.41,0,2.71,2.71,0,0,0-2.27-.26,3,3,0,0,0-1.87,1.71,6.21,6.21,0,0,0,.59,5.28c.83,1.15,4.5,2.74,7.44,1.07a7.35,7.35,0,0,0,3-3.64.51.51,0,0,1,.45-.29.49.49,0,0,1,.45.29,5.17,5.17,0,0,0,3,3.28,2.62,2.62,0,0,0,3.43-.94.49.49,0,0,1,.94.15,5.79,5.79,0,0,0,3.33,3.75c1.06.22,1.52-.07,2.25-1.41a.49.49,0,0,1,.37-.25Z"/><path d="M325,29a.8.8,0,1,0-1.57-.34h0A.8.8,0,1,0,325,29Z"/><path d="M313.81,28.43a.8.8,0,0,0-.57-1,.81.81,0,0,0-1,.57.8.8,0,0,0,.55,1h0a.78.78,0,0,0,.95-.56Z"/><path d="M316.19,42.08a4.47,4.47,0,0,1-3.64-1.89.49.49,0,0,1,.81-.56h0a3.47,3.47,0,0,0,3.32,1.43.5.5,0,0,1,.57.41.49.49,0,0,1-.41.56h0A3.49,3.49,0,0,1,316.19,42.08Z"/><path d="M318.53,38.09a3.76,3.76,0,0,1-1-.13,3.11,3.11,0,0,1-2-1.5.47.47,0,0,1,.17-.64h0a.5.5,0,0,1,.67.19h0a2.14,2.14,0,0,0,1.37,1,3.78,3.78,0,0,0,1.89,0,1.41,1.41,0,0,0,.64-.28,1,1,0,0,0,.23-.85,3.94,3.94,0,0,0-.29-1l-.06-.17a15.2,15.2,0,0,1-.84-6.85.5.5,0,0,1,.55-.44.49.49,0,0,1,.43.54,14.4,14.4,0,0,0,.78,6.41l.07.17a5,5,0,0,1,.34,1.26,2,2,0,0,1-.57,1.67,2.15,2.15,0,0,1-1.07.52A5.4,5.4,0,0,1,318.53,38.09Z"/><path d="M305.21,28.88a.49.49,0,0,1-.49-.48V26a.47.47,0,0,1,.46-.48h0a.47.47,0,0,1,.49.45v2.36a.5.5,0,0,1-.48.51Z"/><path d="M303.22,17.94a.44.44,0,0,1-.25-.08,4.28,4.28,0,0,1-1.9-4.45.5.5,0,0,1,.58-.38.48.48,0,0,1,.38.58h0A3.29,3.29,0,0,0,303.48,17a.49.49,0,0,1,.17.66h0A.48.48,0,0,1,303.22,17.94Z"/><g class="cls-1"><path d="M311.54,16l.5.72a.48.48,0,0,0,.11.3,6.67,6.67,0,0,0,.35.71,6.17,6.17,0,0,0,1.59,1.67.44.44,0,0,1,.58-.15h.16a10.09,10.09,0,0,0,1.22.23h-.12a5.4,5.4,0,0,0,1.27-.09h.14a.44.44,0,0,1,.32,0h.08a.33.33,0,0,1,0-.14.59.59,0,0,1,.65-.52h.1a.69.69,0,0,1,.48.77,3.59,3.59,0,0,0,.17.34A14.57,14.57,0,0,0,320,21c.06.08.23.26.25.3h.05a5,5,0,0,0,1.79,1.2h0a2.24,2.24,0,0,0,.52.06h.23l.17-.08h.11a1.21,1.21,0,0,0,.56-.13,1.18,1.18,0,0,0,.5-.28,1.22,1.22,0,0,0,.2-.25h0a.39.39,0,0,0,.08-.1A2.94,2.94,0,0,0,325,21h0a.6.6,0,0,1,.49.38,2,2,0,0,0,.11.26v.08h0c.16.18.28.39.44.57l.2.2.06.05h0a8.74,8.74,0,0,0,1.35.72c.26.21.64.32.82.62a.68.68,0,0,1-.25.93h0a.68.68,0,0,1-.75,0,8.17,8.17,0,0,1-2.19-1.91,2.76,2.76,0,0,1-.28-.39,4.75,4.75,0,0,1-1.5,1.25,2.93,2.93,0,0,1-2.67-.4,5.78,5.78,0,0,1-1.42-1.23,8.34,8.34,0,0,1-1-1.43,3,3,0,0,1-.89.69,2.49,2.49,0,0,1-1.52.18h-.06a5.79,5.79,0,0,1-1.79-.76A7.48,7.48,0,0,1,312,18.94a5.34,5.34,0,0,1-.82-1.59h0c-.08-.21-.14-.43-.2-.65a.65.65,0,0,1,0-.39A.52.52,0,0,1,311.54,16Z"/></g><g class="cls-1"><path d="M300.75,20.26c.26-.36.67-.16,1,0,.48.2,1,.33,1.49.51a11,11,0,0,0,1.09.4h0a2.23,2.23,0,0,1,.6.16.55.55,0,0,1,.25-.2.6.6,0,0,1,.78.34h0a.64.64,0,0,1,0,.43,8.64,8.64,0,0,0-.43,1.1c-.1.56-.29,1.45-1,1.18a.77.77,0,0,1-.34-.33s-.3-.33-.38-.4c-.34-.36-1-.93-1.65-1.51q-.51-.42-1.05-.81h-.13l-.1-.06a.5.5,0,0,1-.2-.69v0A.52.52,0,0,1,300.75,20.26Z"/></g><path d="M307.36,66.74h-.25a4,4,0,0,1-2.55-1.82,2.47,2.47,0,0,1,.66-4.19l1.13-.84a2.9,2.9,0,0,1,2.3-.52,2.71,2.71,0,0,1,1.84,1.28h0l-.42.25.43-.23a5,5,0,0,1,.63,2.91,3,3,0,0,1-.72,1.87,3.54,3.54,0,0,1-1.18.77A4.41,4.41,0,0,1,307.36,66.74Zm.72-6.47a1.91,1.91,0,0,0-1.15.38l-1.13.84c-.54.4-1.12.88-1.15,1.44a2.25,2.25,0,0,0,.68,1.33,3.25,3.25,0,0,0,1.88,1.45,3.08,3.08,0,0,0,1.59-.45,2.65,2.65,0,0,0,.89-.55,2,2,0,0,0,.45-1.28,4,4,0,0,0-.48-2.32l.41-.28-.42.26a1.8,1.8,0,0,0-1.19-.83h-.38Z"/><path d="M301.45,58.8a.49.49,0,0,1-.41-.22A10.47,10.47,0,0,1,299.35,54a.5.5,0,0,1,.43-.55.52.52,0,0,1,.55.44A9.54,9.54,0,0,0,301.86,58a.49.49,0,0,1-.14.68h0A.5.5,0,0,1,301.45,58.8Z"/><path d="M299.36,60.26a.45.45,0,0,1-.37-.17l-1.26-1.43a.49.49,0,0,1,0-.69.5.5,0,0,1,.7,0l1.26,1.43a.49.49,0,0,1,0,.69.47.47,0,0,1-.34.13Z"/><path d="M291,114.14h-.05a34.27,34.27,0,0,1-9-2.48.48.48,0,0,1-.27-.62h0a.5.5,0,0,1,.65-.26,33.76,33.76,0,0,0,8.7,2.4.5.5,0,0,1,.42.56A.49.49,0,0,1,291,114.14Z"/><g class="cls-1"><path d="M338,96.26a3.68,3.68,0,0,0-1.48.7l-2.23,1.49a43.93,43.93,0,0,0-5,3.91,1.12,1.12,0,0,0,1.58,1.58,48,48,0,0,1,4.86-3.79c.7-.43,1.38-.89,2.08-1.32.34-.26.82-.37,1.07-.73a1.15,1.15,0,0,0-.23-1.61h0A1.19,1.19,0,0,0,338,96.26Z"/></g><path d="M282.93,190.26h0a.17.17,0,0,1-.15-.18l1.18-13.4a.15.15,0,0,1,.16-.14h0a.15.15,0,0,1,.15.15h0l-1.17,13.4A.18.18,0,0,1,282.93,190.26Z"/><path d="M288.26,192.08h0a.16.16,0,0,1-.16-.16h0l.56-16.71a.16.16,0,0,1,.16-.16h0a.15.15,0,0,1,.15.15h0l-.56,16.71a.16.16,0,0,1-.15.17Z"/><path d="M339.21,150.16h0a.15.15,0,0,1-.15-.15h0l.3-7.36a.18.18,0,0,1,.12-.21.18.18,0,0,1,.21.13.11.11,0,0,1,0,.08l-.31,7.36a.16.16,0,0,1-.16.16h0Z"/><path d="M343.93,156.26h0a.16.16,0,0,1-.16-.16h0c0-6.65.23-13.39.58-20a.17.17,0,0,1,.33,0c-.35,6.64-.55,13.37-.58,20A.17.17,0,0,1,343.93,156.26Z"/><path d="M317.39,184h0a.16.16,0,0,1-.11-.2h0a19.69,19.69,0,0,1,1.74-4.16.17.17,0,0,1,.22-.06.17.17,0,0,1,.06.23,20,20,0,0,0-1.71,4.08.16.16,0,0,1-.2.11Z"/><path d="M318.63,185.38h0a.14.14,0,0,1-.12-.17v0a14.08,14.08,0,0,1,1.16-3.4.15.15,0,0,1,.2-.08h0a.17.17,0,0,1,.08.22,13.42,13.42,0,0,0-1.13,3.32A.19.19,0,0,1,318.63,185.38Z"/><path d="M320.14,186.56h0a.17.17,0,0,1-.16-.17,8.79,8.79,0,0,1,.84-3.6.18.18,0,0,1,.18-.16.17.17,0,0,1,.16.19s0,0,0,0a.09.09,0,0,1,0,.07,8.52,8.52,0,0,0-.81,3.47.16.16,0,0,1-.18.16Z"/><path d="M321.81,187.47h0a.18.18,0,0,1-.18-.16h0a13.24,13.24,0,0,1,.48-3.31.16.16,0,0,1,.18-.12h0a.14.14,0,0,1,.12.17v0h0a12.32,12.32,0,0,0-.48,3.19.15.15,0,0,1-.1.2Z"/><path d="M323.63,188.69a.16.16,0,0,1-.16-.16h0a25.31,25.31,0,0,1,.22-3.48.18.18,0,0,1,.16-.18.17.17,0,0,1,.18.17.13.13,0,0,1,0,.06,24.6,24.6,0,0,0-.23,3.43.16.16,0,0,1-.16.16Z"/><path d="M325.39,189.46a.15.15,0,0,1-.16-.14h0a17.94,17.94,0,0,1,.07-2.84.17.17,0,0,1,.18-.15.16.16,0,0,1,.14.18h0a20,20,0,0,0-.07,2.79.16.16,0,0,1-.13.17h0Z"/><path d="M327.09,190.79a.17.17,0,0,1-.16-.15,10.35,10.35,0,0,1,0-2.36.16.16,0,0,1,.18-.14h0a.17.17,0,0,1,.15.18,9.66,9.66,0,0,0,0,2.28.16.16,0,0,1-.14.18h0Z"/><path d="M265.45,80.41a.14.14,0,0,1-.12-.06,27.34,27.34,0,0,1-1.76-2.4.16.16,0,0,1,0-.22h0a.17.17,0,0,1,.23,0,26.58,26.58,0,0,0,1.73,2.37.16.16,0,0,1,0,.23h0A.3.3,0,0,1,265.45,80.41Z"/><path d="M270.24,83.78a.16.16,0,0,1-.13-.06c-1.69-2.12-3.34-4.33-4.9-6.55a.16.16,0,0,1,.23-.23h0c1.56,2.22,3.2,4.42,4.89,6.54a.17.17,0,0,1,0,.23A.16.16,0,0,1,270.24,83.78Z"/><path d="M273.87,84.84a.16.16,0,0,1-.13-.06c-2.21-2.71-4.34-5.54-6.33-8.41a.17.17,0,0,1,0-.23.16.16,0,0,1,.22,0h0c2,2.86,4.11,5.68,6.32,8.38a.17.17,0,0,1,0,.23A.18.18,0,0,1,273.87,84.84Z"/><path d="M276.5,85.38a.16.16,0,0,1-.13-.06,80.89,80.89,0,0,1-6.69-9.15.17.17,0,0,1,.06-.22.15.15,0,0,1,.21,0h0a80.18,80.18,0,0,0,6.66,9.11.17.17,0,0,1,0,.23A.14.14,0,0,1,276.5,85.38Z"/><path d="M279,85.14a.16.16,0,0,1-.13-.06,110.38,110.38,0,0,1-7-9.13.16.16,0,0,1,0-.22h0a.16.16,0,0,1,.22,0A107.74,107.74,0,0,0,279,84.84a.17.17,0,0,1,0,.23Z"/><path d="M281.49,84.88a.14.14,0,0,1-.12-.06,72.67,72.67,0,0,1-7-8.84.17.17,0,0,1,.1-.22h0a.17.17,0,0,1,.17,0,72.37,72.37,0,0,0,7,8.81.16.16,0,0,1,0,.24h-.1Z"/><path d="M283.63,84.38h-.12a96.81,96.81,0,0,1-6.44-7.72.16.16,0,1,1,.26-.2,98.28,98.28,0,0,0,6.42,7.69.16.16,0,0,1,0,.23h0A.17.17,0,0,1,283.63,84.38Z"/><path d="M285.76,83.78a.24.24,0,0,1-.12,0c-2.07-2.16-4.11-4.41-6-6.69a.16.16,0,1,1,.25-.21h0c1.93,2.27,4,4.52,6,6.67a.16.16,0,0,1,0,.24h-.13Z"/><path d="M287.93,83a.24.24,0,0,1-.12,0c-1.6-1.51-3.16-3.1-4.65-4.73a.17.17,0,0,1,.25-.22c1.48,1.62,3,3.21,4.63,4.71a.16.16,0,0,1,0,.23h0A.21.21,0,0,1,287.93,83Z"/><path d="M289.93,82.26h-.11c-1.29-1.17-2.56-2.4-3.75-3.68a.16.16,0,1,1,.24-.22h0c1.19,1.26,2.44,2.49,3.73,3.66a.16.16,0,0,1,0,.23h0A.2.2,0,0,1,289.93,82.26Z"/><path d="M291.53,81.2h-.11l-3-2.88a.16.16,0,0,1,0-.23h0a.17.17,0,0,1,.23,0l3,2.88a.18.18,0,0,1,0,.24Z"/><path d="M293.63,80.46h-.11l-2.8-2.65a.16.16,0,1,1,.22-.24l2.8,2.65a.16.16,0,0,1,0,.23h0A.14.14,0,0,1,293.63,80.46Z"/><path d="M295.05,79.46h-.12a21.47,21.47,0,0,1-2.27-2.1.16.16,0,0,1,0-.23h0a.17.17,0,0,1,.23,0h0a20.89,20.89,0,0,0,2.25,2.06.16.16,0,0,1,0,.22.15.15,0,0,1-.15.07Z"/><path d="M296.45,78.45h-.11l-2-1.87a.18.18,0,0,1,0-.25h0a.17.17,0,0,1,.24,0l0,0,1.95,1.87a.16.16,0,0,1,0,.23h0A.17.17,0,0,1,296.45,78.45Z"/><path d="M298,77.45h-.11a20.81,20.81,0,0,0-2-1.62.17.17,0,0,1-.1-.22h0a.17.17,0,0,1,.23-.06.17.17,0,0,1,.06.06c.69.51,1.36,1.06,2,1.64a.18.18,0,0,1,0,.24Z"/><path d="M299.38,76.26h-.09a16.63,16.63,0,0,1-1.86-1.49.18.18,0,0,1,.05-.24.19.19,0,0,1,.18,0A15.94,15.94,0,0,0,299.48,76a.17.17,0,0,1,0,.23A.18.18,0,0,1,299.38,76.26Z"/><path d="M300.79,74.8h-.1l-1.63-1.21a.16.16,0,0,1,0-.22.16.16,0,0,1,.23,0h0l1.64,1.21a.16.16,0,0,1,0,.23h0A.22.22,0,0,1,300.79,74.8Z"/><path d="M302,73.26h-.1l-1.11-.87a.17.17,0,0,1,0-.23.16.16,0,0,1,.23,0h0l1.11.86a.16.16,0,0,1,0,.22.15.15,0,0,1-.14.07Z"/><path d="M303.38,72.26h-.1l-1.16-1a.16.16,0,1,1,.21-.25l1.16,1a.16.16,0,0,1,0,.23h0A.14.14,0,0,1,303.38,72.26Z"/><path d="M304.44,70.88h-.09c-.39-.24-.78-.49-1.16-.76a.16.16,0,1,1,.23-.23q.56.4,1.14.75a.18.18,0,0,1,.06.23A.17.17,0,0,1,304.44,70.88Z"/><path d="M305.53,69.53a.11.11,0,0,1-.08,0l-1.21-.76a.16.16,0,0,1-.06-.22h0a.15.15,0,0,1,.21,0h0l1.21.76a.16.16,0,0,1,.06.22h0A.15.15,0,0,1,305.53,69.53Z"/><path d="M306.5,68.07h-.08l-1.08-.57a.15.15,0,0,1-.08-.2h0a.18.18,0,0,1,.23-.07l1.07.57a.15.15,0,0,1,.08.2h0A.14.14,0,0,1,306.5,68.07Z"/><path d="M308.23,65h-.08a18.31,18.31,0,0,1-2.32-1.59.16.16,0,1,1,.21-.25h0a16,16,0,0,0,2.27,1.55.19.19,0,0,1,.06.23A.2.2,0,0,1,308.23,65Z"/><path d="M309.37,63.81h-.07a18.52,18.52,0,0,1-1.69-.93.15.15,0,0,1-.06-.2h0a.16.16,0,0,1,.22-.06h0a14.83,14.83,0,0,0,1.66.91.17.17,0,0,1,.08.22A.2.2,0,0,1,309.37,63.81Z"/><path d="M364.56,90h0a.15.15,0,0,1-.13-.17h0l.78-3.7a.17.17,0,0,1,.2-.13.14.14,0,0,1,.12.17v0h0l-.78,3.7a.14.14,0,0,1-.17.12Z"/><path d="M366.63,94.59h0a.16.16,0,0,1-.14-.18h0a86.81,86.81,0,0,1,1.7-9.35.14.14,0,0,1,.17-.12h0a.14.14,0,0,1,.12.17v0a86.24,86.24,0,0,0-1.69,9.32A.18.18,0,0,1,366.63,94.59Z"/><path d="M368.76,98.62h0a.17.17,0,0,1-.15-.18c.55-4.8,1.23-9.64,2-14.39a.18.18,0,0,1,.12-.21.18.18,0,0,1,.21.13.11.11,0,0,1,0,.08c-.79,4.75-1.47,9.59-2,14.37a.15.15,0,0,1-.15.15h0Z"/><path d="M371.06,103h0a.17.17,0,0,1-.15-.18c.49-5.76,1.1-11.59,1.79-17.34a.18.18,0,0,1,.19-.14.16.16,0,0,1,.14.18h0c-.7,5.74-1.3,11.57-1.79,17.33a.15.15,0,0,1-.15.15h0Z"/><path d="M373.3,106.07h0a.17.17,0,0,1-.15-.18l1.48-14.82a.16.16,0,0,1,.18-.14h0a.17.17,0,0,1,.15.18l-1.45,14.82a.16.16,0,0,1-.17.15h0Z"/><path d="M375.35,110.38h0a.18.18,0,0,1-.15-.19l1.63-14.74a.16.16,0,1,1,.31-.06.11.11,0,0,1,0,.08l-1.63,14.75a.18.18,0,0,1-.16.18Z"/><path d="M377.72,114.1h0a.18.18,0,0,1-.14-.19c.59-4.77,1.07-9.63,1.43-14.42a.18.18,0,0,1,.18-.16.17.17,0,0,1,.15.18c-.36,4.8-.84,9.66-1.43,14.44a.17.17,0,0,1-.19.15Z"/><path d="M380.3,117.89h0a.17.17,0,0,1-.15-.18l1-14a.17.17,0,0,1,.33,0l-1,14a.18.18,0,0,1-.16.18Z"/><path d="M382.93,121.52h0a.17.17,0,0,1-.16-.17c.1-4.61.32-9.29.66-13.9a.16.16,0,0,1,.16-.16h0a.18.18,0,0,1,.16.18c-.34,4.6-.56,9.27-.66,13.88a.16.16,0,0,1-.13.17h-.05Z"/><path d="M385.35,124.72h0a.16.16,0,0,1-.15-.17h0l.73-13.29a.17.17,0,0,1,.33,0l-.7,13.27a.18.18,0,0,1-.18.16Z"/><path d="M387.43,127.19h0a.17.17,0,0,1-.15-.18l1-12.37a.17.17,0,0,1,.33,0l-1,12.37a.15.15,0,0,1-.15.15h0Z"/><path d="M389.93,130.26h0a.18.18,0,0,1-.16-.18c.31-4,.53-8.16.66-12.22a.17.17,0,0,1,.33,0c-.13,4.06-.35,8.18-.66,12.23A.18.18,0,0,1,389.93,130.26Z"/><path d="M392.32,132.94h0a.16.16,0,0,1-.15-.17h0L393,120.6a.17.17,0,1,1,.33-.08.11.11,0,0,1,0,.08l-.84,12.17a.18.18,0,0,1-.17.17Z"/><path d="M394.5,135.2h0a.16.16,0,0,1-.14-.18h0c.52-3.68.9-7.42,1.12-11.13a.17.17,0,0,1,.18-.15.15.15,0,0,1,.15.15h0c-.22,3.72-.6,7.47-1.13,11.15a.14.14,0,0,1-.14.14h0Z"/><path d="M397.48,138.73h0a.15.15,0,0,1-.16-.14h0l.57-11.71a.17.17,0,0,1,.17-.16.18.18,0,0,1,.16.18l-.59,11.71A.15.15,0,0,1,397.48,138.73Z"/><path d="M400.56,141.26a.16.16,0,0,1-.17-.15h0V129.53a.15.15,0,0,1,.14-.16h0a.15.15,0,0,1,.16.14h0v11.54a.16.16,0,0,1-.16.16h0Z"/><path d="M403.29,143a.16.16,0,0,1-.16-.16h0l-.2-10.53a.17.17,0,0,1,.16-.17.16.16,0,0,1,.17.15h0l.24,10.48a.16.16,0,0,1-.15.17h0Z"/><path d="M405.85,140.8a.16.16,0,0,1-.17-.15h0a32.53,32.53,0,0,1-.1-5.67.16.16,0,0,1,.17-.15h0a.17.17,0,0,1,.16.17,32,32,0,0,0,.1,5.62.17.17,0,0,1-.15.18Z"/><path d="M240.07,188.77h0a.18.18,0,0,1-.11-.21l1-3.27a.16.16,0,0,1,.21-.11.17.17,0,0,1,.1.21l-1,3.27A.16.16,0,0,1,240.07,188.77Z"/><path d="M241.47,192.68h0a.15.15,0,0,1-.13-.17h0c.55-2.89,1.23-5.8,2-8.63a.16.16,0,0,1,.31.09c-.79,2.82-1.47,5.72-2,8.6a.16.16,0,0,1-.17.13h0Z"/><path d="M243.19,197.49h0a.16.16,0,0,1-.14-.18h0c.42-3.2,1-6.43,1.67-9.58a.14.14,0,0,1,.17-.12h0a.14.14,0,0,1,.12.16h0c-.68,3.14-1.24,6.36-1.66,9.55A.18.18,0,0,1,243.19,197.49Z"/><path d="M245.17,201.59h0a.17.17,0,0,1-.15-.18c.34-3.15.75-6.33,1.24-9.46a.16.16,0,0,1,.18-.14h0a.18.18,0,0,1,.14.19c-.48,3.12-.9,6.3-1.23,9.45a.16.16,0,0,1-.18.14Z"/><path d="M247.06,205.78h0a.17.17,0,0,1-.15-.18l1-10a.18.18,0,0,1,.12-.21.18.18,0,0,1,.21.13.11.11,0,0,1,0,.08l-1,10a.18.18,0,0,1-.16.18Z"/><path d="M249.24,209.49h0a.17.17,0,0,1-.15-.18l1-9.57a.17.17,0,0,1,.18-.15.17.17,0,0,1,.15.19h0l-1,9.56a.15.15,0,0,1-.15.15h0Z"/><path d="M251.93,213.05h0a.15.15,0,0,1-.15-.15h0l.69-9.09a.15.15,0,0,1,.15-.15h0a.18.18,0,0,1,.16.18l-.7,9.08a.15.15,0,0,1-.15.15Z"/><path d="M254.63,216.52h0a.18.18,0,0,1-.17-.17c0-3,.14-6,.32-9a.17.17,0,0,1,.17-.16.18.18,0,0,1,.16.18c-.18,3-.29,6-.32,8.95a.17.17,0,0,1-.13.2h0Z"/><path d="M257.72,219.34a.17.17,0,0,1-.17-.16c-.13-2.86-.18-5.76-.17-8.61a.18.18,0,0,1,.17-.17h0a.17.17,0,0,1,.16.17c0,2.85,0,5.74.17,8.6A.17.17,0,0,1,257.72,219.34Z"/><path d="M260.7,222.26a.15.15,0,0,1-.16-.14h0a73.3,73.3,0,0,1-.43-8.25.18.18,0,0,1,.17-.17h0a.17.17,0,0,1,.16.17,75.12,75.12,0,0,0,.42,8.21.16.16,0,0,1-.14.18h0Z"/><path d="M263.79,224.58a.16.16,0,0,1-.16-.14c-.35-2.44-.63-4.93-.81-7.39a.17.17,0,1,1,.33-.08.11.11,0,0,1,0,.08c.18,2.46.45,4.94.81,7.37a.18.18,0,0,1-.14.19Z"/><path d="M267.08,226.94a.17.17,0,0,1-.16-.13c-.55-2.53-1-5.11-1.33-7.69a.16.16,0,0,1,.32,0h0c.33,2.56.78,5.14,1.33,7.66a.17.17,0,0,1-.11.2h0Z"/><path d="M270.13,228.57a.17.17,0,0,1-.16-.12c-.55-2.32-1-4.68-1.47-7a.15.15,0,0,1,.13-.16.17.17,0,0,1,.19.13c.42,2.34.92,4.69,1.47,7a.17.17,0,0,1-.11.2h0Z"/><path d="M272.79,228.64a.17.17,0,0,1-.16-.12l-1.19-5.17a.17.17,0,0,1,.11-.2h0a.17.17,0,0,1,.2.13l1.19,5.16a.17.17,0,0,1-.11.2h0Z"/><path d="M275.41,227.83h0a.22.22,0,0,1-.2-.18l-.76-2.46a.15.15,0,0,1,.08-.19h0a.17.17,0,0,1,.21.09h0l.74,2.37h.06a.18.18,0,0,1,0,.22A.17.17,0,0,1,275.41,227.83Z"/><g class="cls-1"><path d="M316.26,47.26a4.86,4.86,0,0,0-2.12-.71,15.63,15.63,0,0,1-2.09-.72,11,11,0,0,1-1.08-.55l-.12-.09a1.78,1.78,0,0,0-.62-.3,4.19,4.19,0,0,0-.84-.67.94.94,0,0,0-1,1.53c1.5,1.45,3,2.94,4.48,4.41.71.63,1.24,1.53,2.11,1.94a.9.9,0,0,0,1.09-.54,3.24,3.24,0,0,0,.11-1.12,5,5,0,0,1,.22-1.59A1.46,1.46,0,0,0,316.26,47.26Z"/></g><g class="cls-1"><path d="M306.77,69.69c-1.18,1.41-2.32,2.84-3.61,4.17-.6.62-1.22,1.22-1.86,1.81L301,76c-.65.72-1.31,1.44-2,2.14a1,1,0,0,0-.38-.11c-.42.35-.85.71-1.29,1.06a.44.44,0,0,1-.59,0h0a46.18,46.18,0,0,1-9.44,5.39h-.15l-.31.22a3.27,3.27,0,0,0-.62,1.86c-.14.78-.17,1.84.71,2.18.7.34,1.31-.25,1.89-.57a34.82,34.82,0,0,0,3.1-2,37.11,37.11,0,0,0,7-5.08,71.87,71.87,0,0,0,5.18-5.57,15.93,15.93,0,0,0,1.19-1.64,22.39,22.39,0,0,0,.92-2.21c.21-.64.38-1.3.55-2Z"/></g><g class="cls-1"><path d="M318,137.7c-.61-.58-1.52-.44-2.29-.56a41.88,41.88,0,0,0-6.62-.31H306.2a3.94,3.94,0,0,0-1.28.1,1,1,0,0,0-.35.22c-1.47-.07-2.95-.13-4.42-.21a84.25,84.25,0,0,1-8.68-.9,1,1,0,0,0-.51,1.86c1.54.36,3.13.47,4.69.69,1.88.26,4.58.56,7.21.75,2.87.21,5.72.57,8.59.73a23.91,23.91,0,0,0,5.79-.3,1.25,1.25,0,0,0,1-1.43A1.17,1.17,0,0,0,318,137.7Z"/></g><g class="cls-1"><path d="M331.21,189.51v.09C331.29,189.71,331.31,189.76,331.21,189.51Z"/></g><g class="cls-1"><path d="M333.25,151.26A.92.92,0,0,0,332,151h0a.87.87,0,0,0-.38.5c-1,3.58-1.27,7.32-2,11-.37,1.87-.86,3.72-1.2,5.6a55.87,55.87,0,0,1-1.75,7.87,17.94,17.94,0,0,1-1,2.77,1.74,1.74,0,0,1-.11.18h-.81a1.54,1.54,0,0,0-1.64,1.43,1.51,1.51,0,0,0,.19.86c.61,2,3,4.88,3.6,5.66a19.19,19.19,0,0,1,2.81,4.81c.14.49.26,1,.37,1.48a1.05,1.05,0,0,0,1.11,1,1.07,1.07,0,0,0,.7-.33,1,1,0,0,0,.31-.78,13.41,13.41,0,0,0-.86-3.17l-.06-.19-.06-.12c-.14-.36-.66-1.55-.43-1-.48-1.1-1.11-2.65-1.75-4.37-.41-1.09-.81-2.19-1.26-3.28-.15-.28-.23-.63-.39-.92a32.19,32.19,0,0,0,2.34-7.36c.56-3.12,1.12-6.23,1.83-9.32.42-2.44.94-6.86,1-7.32.16-1.12.35-2.23.61-3.33C333.26,152.12,333.51,151.65,333.25,151.26Z"/></g><g class="cls-1"><path d="M417.5,128.26a.82.82,0,0,0-.93-.2.86.86,0,0,0-.8.25c-1.35,1.43-2.64,2.9-3.89,4.39-.76-.17-1.19.52-1.61,1.16s-.93,1.34-1.43,2l-.67.84c-3.6,3.21-7.43,6.18-11.09,9.33-6.69,5.42-13.4,10.85-19.9,15.89l-.79.55c-4.39,3-8.87,5.8-13.24,8.8-9,6.25-18,12.74-27.26,18.64-4.15,2.68-8.38,5.27-12.56,7.92-2.77,1.72-5.64,3.26-8.46,4.91-4.24,2.58-8.42,5.28-12.73,7.76-3.77,2.38-7.68,4.51-11.62,6.6q-5.28,3-10.42,6.25l-3,1.86c-.43.27-1,.46-1.18.92-.71.34-1.39.64-2,.88a1.14,1.14,0,1,0,.44,2.24l.17-.05.88-.35a1.17,1.17,0,0,0,.89,2.13c8.43-1.93,16.82-4.1,25.33-5.66,2.2-.37,3.09-.48,4.85-.68,1.29-.06,2.1-.15,2.66-1.08.11-1.46.26-2.92.43-4.36.28-2.44.64-4.87,1.05-7.29v-.65a1.23,1.23,0,0,0-.64-.35c1-.61,1.91-1.23,2.85-1.88.66-.53,1.51-.87,1.81-1.43,1.69-.86,3.37-1.72,5.07-2.57,2.45-1.2,4.74-2.69,7.07-4.1,4.45-2.6,8.67-5.56,12.91-8.49,3.66-2.52,7.4-4.92,11.12-7.36,3.43-2.28,7.11-4.13,10.54-6.41s6.64-4.56,10-6.79c2.8-1.91,5.71-3.69,8.47-5.67a31.26,31.26,0,0,0,2.75-2.17c1.46-1,2.89-2,4.32-3.08,1.92-1.4,3.85-2.8,5.66-4.36a126.78,126.78,0,0,0,12.75-12.21,8.23,8.23,0,0,0,.95-1.17.88.88,0,0,0,0-.71L409,139c.36-.42.71-.85,1.06-1.28,1.3-1.22,2.57-2.49,3.76-3.82s2.31-2.69,3.36-4.1l.3-.4a.89.89,0,0,0,.22-.58A.84.84,0,0,0,417.5,128.26ZM278.82,227.92c-1.07.26-2.14.51-3.2.74,1-.43,2-.91,3.05-1.41a1,1,0,0,0,.3.44A1.14,1.14,0,0,0,278.82,227.92ZM306.75,213c-.66.45-4,2.79-5.6,3.73-2.25,1.26-4.53,2.39-6.83,3.49,1.82-1,3.62-2.07,5.39-3.18,2.52-1.5,5.08-3,7.6-4.47C307.13,212.76,306.93,212.9,306.75,213Z"/></g><g class="cls-1"><path d="M290.8,194.57h-.07C291.07,194.47,291,194.5,290.8,194.57Z"/></g><g class="cls-1"><path d="M297.4,180.92a.92.92,0,0,0-.68.89v1a18,18,0,0,1-1.09,4c-2.88,5.89-8,7.26-13.95,5.68-.54-.15-1.12-.52-1.66-.17a1.14,1.14,0,0,0-.37,1.57h0a1.09,1.09,0,0,0,.37.37,18,18,0,0,0,6.64,1.21,11.19,11.19,0,0,0,4-.76l.19-.08a13.75,13.75,0,0,0,6.1-5.66,12.58,12.58,0,0,0,1.54-4.81C298.55,183.07,299.13,180.67,297.4,180.92Z"/></g><g class="cls-1"><path d="M356.93,144.52a1.06,1.06,0,1,0-2.12.11,13.57,13.57,0,0,1-.66,3.21v.09a17.56,17.56,0,0,1-1,1.92,14.52,14.52,0,0,1-5.36,5.69A27.64,27.64,0,0,1,345,157c.76-.3-.89.32-1.23.38a16,16,0,0,1-2.56.54,13.24,13.24,0,0,1-2.67-.11,2,2,0,0,0-1.35,0,1.1,1.1,0,0,0-.38,1.51h0a1.12,1.12,0,0,0,.64.49,20,20,0,0,0,4.63.39h.1a.9.9,0,0,0,.84.51,12.91,12.91,0,0,0,5-.78,18,18,0,0,0,2.93-1.66,10.11,10.11,0,0,0,3.21-3.1c.28-.5.87-1,.71-1.59a.73.73,0,0,0-.39-.5,16.75,16.75,0,0,0,2-4.26,10.21,10.21,0,0,0,.31-1.65h0A13.72,13.72,0,0,0,356.93,144.52Z"/></g><g class="cls-1"><path d="M259.76,223a1.08,1.08,0,0,0-.75.06,3.24,3.24,0,0,0-1.12.46c-.78.42-1.55.84-2.28,1.32A50.32,50.32,0,0,0,248,231.2a28.7,28.7,0,0,0-4.16,4.71,1.49,1.49,0,0,0,0,1.6,1.26,1.26,0,0,0,.42.52l.46.32h0a2.65,2.65,0,0,1,.33.34c.48.65.59,1.56,1.31,2a1.56,1.56,0,0,0,2-.54,1.65,1.65,0,0,0,.18-.41l.15-.31c.51-1.16,1.15-2.26,1.77-3.36a34.31,34.31,0,0,1,7.59-9.44c.88-.81,2-1.65,2.3-2a1.1,1.1,0,0,0-.28-1.53h0A1,1,0,0,0,259.76,223Z"/></g><path d="M21.48,322.09h-.11c-6.63-1.53-12.16-7.44-13.77-14.7-1.43-6.43.08-13.77,4.14-20.12,8-12.59,25.17-18.6,39.34-13.95-3.52-13.42-1.34-27.22,5.9-37.07a33.84,33.84,0,0,1,15.88-11.68,28.82,28.82,0,0,1,19.39-.21.49.49,0,0,1-.33.93c-11.53-4.22-26.21.74-34.15,11.55-7.22,9.83-9.27,23.7-5.49,37.11a.52.52,0,0,1-.14.5.51.51,0,0,1-.5.1c-13.93-5.05-31.09.77-39.07,13.25-3.92,6.13-5.38,13.2-4,19.38,1.53,6.89,6.77,12.5,13,13.95a.48.48,0,0,1,.44.53v0a.5.5,0,0,1-.55.45h0Z"/><path d="M71.38,344.26h-2.2c-7-.26-16.1-2.06-20.19-9.16-2.94-5.17-2.36-11.35-1.36-17.77a.48.48,0,0,1,.55-.42h0a.5.5,0,0,1,.43.56h0c-.92,6.24-1.53,12.24,1.25,17,3.87,6.71,12.67,8.41,19.37,8.66a31.55,31.55,0,0,0,11.35-1.22,14.91,14.91,0,0,0,8.68-6.79.47.47,0,0,1,.64-.21h0a.48.48,0,0,1,.21.65h0a15.87,15.87,0,0,1-9.2,7.3A29.46,29.46,0,0,1,71.38,344.26Z"/><path d="M112.72,338.83h-.16a16.55,16.55,0,0,1-10.93-16.36.49.49,0,0,1,.52-.46h0a.49.49,0,0,1,.46.52h0a15.59,15.59,0,0,0,10.25,15.34.49.49,0,0,1,.32.6h0A.47.47,0,0,1,112.72,338.83Z"/><path d="M166.63,354.26A44,44,0,0,1,153,352c-10.86-3.57-18.16-10.61-19.53-18.83a.49.49,0,0,1,.41-.56h0a.48.48,0,0,1,.56.38h0c1.31,7.85,8.37,14.6,18.87,18.06,5.87,1.93,14.7,3.61,23.38.64,7.91-2.71,14-9.16,15.44-16.44a.5.5,0,0,1,.58-.38.52.52,0,0,1,.3.2,16.17,16.17,0,0,0,29-5.94.51.51,0,0,1,.61-.39h0a.49.49,0,0,1,.39.59h0a17.16,17.16,0,0,1-30.11,7.19c-1.87,7.18-8,13.44-15.85,16.13A32.26,32.26,0,0,1,166.63,354.26Z"/><path d="M227.44,317a.49.49,0,0,1-.45-.3.46.46,0,0,1,.23-.62h0a15.87,15.87,0,0,0-1.38-29.71.49.49,0,0,1-.32-.6v0h0a.48.48,0,0,1,.61-.32h0A16.86,16.86,0,0,1,227.6,317,.45.45,0,0,1,227.44,317Z"/><path d="M24.38,309.84a.5.5,0,0,1-.39-.18A14.83,14.83,0,0,1,27,289a.49.49,0,0,1,.68.13.48.48,0,0,1-.09.66h0A13.83,13.83,0,0,0,24.77,309a.49.49,0,0,1-.07.69h0A.47.47,0,0,1,24.38,309.84Z"/><path d="M60.93,268.26a.52.52,0,0,1-.41-.21,11.64,11.64,0,0,1,1.55-14.56.5.5,0,0,1,.71,0,.51.51,0,0,1,.07.64l-.1.1a10.61,10.61,0,0,0-1.42,13.28.5.5,0,0,1-.12.69A.54.54,0,0,1,60.93,268.26Z"/><path d="M71.15,334.26a12.5,12.5,0,0,1-12-10.11.51.51,0,1,1,1-.28.5.5,0,0,1,0,.12,11.45,11.45,0,0,0,11.72,9.27.5.5,0,0,1,.54.46.51.51,0,0,1-.47.54Z"/><path d="M166.37,344.88a.5.5,0,0,1-.49-.43.49.49,0,0,1,.42-.55,23.37,23.37,0,0,0,17.33-12.46.49.49,0,1,1,.88.44h0a24.3,24.3,0,0,1-18.09,13Z"/><path d="M220.93,310.79a.52.52,0,0,1-.41-.21.49.49,0,0,1,.13-.68,9.47,9.47,0,0,0,2.54-12.44.49.49,0,1,1,.83-.53,10.48,10.48,0,0,1-2.82,13.78A.5.5,0,0,1,220.93,310.79Z"/><path d="M106.73,307.78a19.49,19.49,0,0,1-10.47-3.16,18.9,18.9,0,0,1,5.43-34,.51.51,0,1,1,.24,1C93,273.86,86.79,284.05,88.85,293c1.82,7.9,9.86,13.84,17.91,13.84a15.59,15.59,0,0,0,3.2-.33.51.51,0,0,1,.2,1A16.43,16.43,0,0,1,106.73,307.78Z"/><g class="cls-1"><path d="M237.52,297.89a1.57,1.57,0,0,0-3,.6,11.88,11.88,0,0,1-2.16,8.23c-.39.62-.79,1.23-1.22,1.81A28.58,28.58,0,0,1,228,312c-1.08.85-.34.22-1.91,1.42l.34-.26a1.7,1.7,0,0,0,.86,3.16,4.27,4.27,0,0,0,1.72-.67l-.42.18a8.91,8.91,0,0,0,2.94-2.19,22.5,22.5,0,0,0,5.58-8.77,17,17,0,0,0,.57-4.43A10.14,10.14,0,0,0,237.52,297.89Z"/></g><g class="cls-1"><path d="M220,329.57c-3,4.57-4.79,7-7.86,8.48a20.87,20.87,0,0,1-5.11,1.19h.24a23.23,23.23,0,0,1-5.27.21l-.92-.09a1.57,1.57,0,0,0-1,.19,1.56,1.56,0,0,0-.53,2.13,1.93,1.93,0,0,0,.22.28,4.13,4.13,0,0,0,2.26.68,22.91,22.91,0,0,0,7.06-.28,14.12,14.12,0,0,0,6.76-2.63,18.73,18.73,0,0,0,4.7-5.44l1.69-2.57c.23-.39.59-.74.6-1.21a1.53,1.53,0,0,0-2.84-.94Z"/></g><g class="cls-1"><path d="M190.34,335.85C187,339.27,183.92,343,180.21,346h0a31.57,31.57,0,0,1-3.45,2.27,20.72,20.72,0,0,1-2,1c-2.64,1-5.53,1.27-8.29,1.87l-2.74.56a1.37,1.37,0,0,0-.72.28,1.17,1.17,0,0,0-.3,1.52,1.32,1.32,0,0,0,1.5.55l2.56-.19c5.19-.54,8.89-.25,13.57-3.53,4.92-3.17,8.41-8,12.38-12.14a1.69,1.69,0,0,0-2.38-2.36Z"/></g><g class="cls-1"><path d="M87.34,334c-4.17,4-7.33,5.54-11.7,6.16-3.13.36-6.28.37-9.42.49a16.64,16.64,0,0,0-2,.09h.07A1.27,1.27,0,0,0,63,342h0a1.23,1.23,0,0,0,.36.87,1.38,1.38,0,0,0,.58.32h.38c.32,0,.71.09,1.78.18,4,.35,8.12.67,12.1-.1a18.58,18.58,0,0,0,6.16-2.45,32.23,32.23,0,0,0,4-3.08c.57-.61,1.46-1.13,1.79-1.89A1.76,1.76,0,0,0,87.34,334Z"/></g><g class="cls-1"><path d="M111.49,305.17A1.66,1.66,0,0,0,109.9,304h-.24l-.54.08a7.06,7.06,0,0,1-1.3,0,19.29,19.29,0,0,1-5.2-1.15A26,26,0,0,1,99,301.26c-.4-.22-.8-.45-1.19-.71a2,2,0,0,0-1.07-.52,1.57,1.57,0,0,0-1,2.9,21.89,21.89,0,0,0,7.62,3.79,20.38,20.38,0,0,0,5.1.59,8.37,8.37,0,0,0,1.87-.2A1.65,1.65,0,0,0,111.49,305.17Z"/></g><g class="cls-1"><path d="M23.34,318.8c-.43-.78-1.31-.87-2.06-1.17a14.53,14.53,0,0,1-1.51-.8c-.88-.55-1.76-1.08-2.58-1.71-2.82-2.25-3.46-3.78-5.38-7.09-.45-.87-.87-1.75-1.29-2.62-.28-.47-.41-1.07-.87-1.39a1.33,1.33,0,0,0-2,1.72c.94,1.92,1.76,4.24,2.4,5.58a14.08,14.08,0,0,0,2.29,4.2,22.34,22.34,0,0,0,5.78,4.59,14.63,14.63,0,0,0,2.26,1.08,3.26,3.26,0,0,0,1.6.29,1.79,1.79,0,0,0,1.59-2v0A1.65,1.65,0,0,0,23.34,318.8Z"/></g><path d="M620.15,118.77a.48.48,0,0,1-.52-.44h0c-.36-25.86-.45-51.63-.53-76.55q0-8.46-.07-16.9a.51.51,0,0,1,.15-.35.47.47,0,0,1,.35-.15c8.12,0,18,0,28.54-.08,34.57-.13,77.58-.29,106.09.62a.5.5,0,0,1,.48.5c-.29,30.78-.88,62-1.77,92.72a.47.47,0,0,1-.46.48h0c-41.19-1.32-84.44-1.26-132.23.19Zm-.1-93.51.06,16.41c.09,24.75.18,50.35.53,76,47.42-1.41,90.38-1.41,131.29-.16.88-30.42,1.46-61.28,1.75-91.73-28.5-.9-71.21-.73-105.57-.6C637.82,25.26,628.09,25.26,620.05,25.26Z"/><path d="M703.09,93.78h-7.88a.51.51,0,0,1-.49-.5V52.57a.49.49,0,0,1,.49-.49h7.88a.49.49,0,0,1,.49.49V93.26a.5.5,0,0,1-.48.52Zm-7.39-1h6.93V53.06h-6.9Z"/><path d="M719.18,93.78H711.3a.51.51,0,0,1-.49-.5V46.94a.49.49,0,0,1,.49-.49h7.88a.49.49,0,0,1,.49.49V93.26a.5.5,0,0,1-.48.52Zm-7.39-1h6.9V47.44h-6.9Z"/><path d="M735.27,93.78h-7.88a.51.51,0,0,1-.49-.5V52.57a.49.49,0,0,1,.49-.49h7.88a.49.49,0,0,1,.49.49V93.26a.5.5,0,0,1-.48.52Zm-7.39-1h6.9V53.06h-6.85Z"/><path d="M619.63,34.67a.5.5,0,0,1,0-1c43.61-.77,87.63-.82,134.59-.18a.51.51,0,0,1,.49.5.52.52,0,0,1-.5.49c-47-.65-91-.59-134.56.17Z"/><path d="M680.31,70.91H641.56a.49.49,0,0,1-.49-.49V46.94a.49.49,0,0,1,.49-.49h38.75a.49.49,0,0,1,.49.49V70.42A.49.49,0,0,1,680.31,70.91Zm-38.25-1h37.76V47.44H642.06Z"/><rect class="cls-2" x="695.21" y="46.94" width="7.88" height="15.1"/><path d="M703.09,62.54h-7.88a.49.49,0,0,1-.49-.49V46.94a.49.49,0,0,1,.49-.49h7.88a.49.49,0,0,1,.49.49V62.05A.49.49,0,0,1,703.09,62.54Zm-7.39-1h6.93V47.44h-6.9Z"/><rect class="cls-2" x="711.3" y="77.42" width="7.88" height="16.75"/><path d="M719.18,94.66H711.3a.49.49,0,0,1-.49-.49V77.42a.49.49,0,0,1,.49-.49h7.88a.49.49,0,0,1,.49.49V94.17A.49.49,0,0,1,719.18,94.66Zm-7.39-1h6.9V77.91h-6.9Z"/><rect class="cls-2" x="727.39" y="46.94" width="7.88" height="19.42"/><path d="M735.27,66.85h-7.88a.49.49,0,0,1-.49-.49V46.94a.49.49,0,0,1,.49-.49h7.88a.49.49,0,0,1,.49.49V66.36A.49.49,0,0,1,735.27,66.85Zm-7.39-1h6.9V47.44h-6.85Z"/><path d="M642.38,83.77a.51.51,0,0,1-.5-.49.49.49,0,0,1,.49-.49h0l37.11-.1h0a.51.51,0,0,1,.5.49.49.49,0,0,1-.49.49h0Z"/><path d="M642.46,91a.49.49,0,0,1-.49-.49.51.51,0,0,1,.49-.5l15.5-.08h0a.5.5,0,0,1,0,1l-15.5.08Z"/><path d="M652.27,98.42h-9.34a.51.51,0,0,1-.49-.5.49.49,0,0,1,.49-.49h0c9.08.11,18.28.06,27.36-.13a.5.5,0,0,1,0,1C664.31,98.36,658.28,98.42,652.27,98.42Z"/><g class="cls-1"><path d="M752.8,34.2a3.75,3.75,0,0,0-1.59-.23c-.91-.08-1.82-.22-2.74-.24-2.8-.07-5.6.16-8.4.1s-5.64.28-8.45.23c-5.14-.13-10.24-.76-15.37-.88-4.94.06-9.86.31-14.79.54-5.19.21-10.4.24-15.6.4-6.18.41-12.37.22-18.56.17-4.8.11-9.61.45-14.41.09-1.84-.16-3.35-.26-4.46-.48-.46-.08-.91-.18-1.36-.3a1.71,1.71,0,0,0-.84-.13,1.18,1.18,0,0,0-.15,2.3,33.4,33.4,0,0,0,6.28,1c5,.57,9.93.24,14.9.14,4.69,0,9.38.2,14.07.19,3.59-.13,7.18-.29,10.77-.28,4.17-.08,8.34-.11,12.5-.33q3.69-.21,7.38-.27c1.78-.08,3.56-.22,5.34-.18,4.86.13,9.71.57,14.57.7,3.13,0,6.26-.24,9.39-.23,2.4,0,4.79-.22,7.19-.13.74,0,1.47.1,2.21.17h.25c.55.06,1.14.33,1.67.06a1.42,1.42,0,0,0,.61-1.9A1.57,1.57,0,0,0,752.8,34.2Z"/></g><path class="cls-3" d="M596.93,216.26c-.3,34,.84,68.3-.09,102.27-42.46,0-100.35-.12-140.47-.12-.46-34.75-.49-68.71-.63-102.74C491.63,215.64,557.72,214.91,596.93,216.26Z"/><path d="M596.85,319c-21.53,0-47.27,0-72.16-.06s-48.53-.06-68.31-.06a.47.47,0,0,1-.49-.45v0h0c-.38-28.44-.47-56.78-.56-84.18q0-9.28-.07-18.57a.47.47,0,0,1,.15-.35.48.48,0,0,1,.34-.14c8.53,0,18.93,0,29.94-.09,36.25-.15,81.36-.33,111.27.68a.5.5,0,0,1,.48.5c-.13,13.94,0,28.18.11,42,.17,19.8.34,40.28-.21,60.32A.51.51,0,0,1,596.85,319Zm-140-1.1c19.68,0,43.08,0,67.83.06s50.25,0,71.68,0c.53-19.86.36-40.17.19-59.8-.11-13.62-.23-27.69-.11-41.49-29.89-1-74.71-.81-110.76-.66-10.8,0-21,.08-29.44.08l.06,18.08c.1,27.29.2,55.46.56,83.73Z"/><path d="M455.79,226.94a.5.5,0,1,1,0-1c45.71-.76,91.85-.82,141.07-.18a.51.51,0,0,1,.49.5.49.49,0,0,1-.49.49h0c-49.21-.65-95.35-.59-141,.18Z"/><path d="M471.28,283.16a4.23,4.23,0,1,1,4.5-4.22A4.37,4.37,0,0,1,471.28,283.16Zm0-7.46a3.25,3.25,0,1,0,3.51,3.24A3.39,3.39,0,0,0,471.28,275.7Z"/><path d="M483.24,253.7a4.23,4.23,0,1,1,4.49-4.22A4.37,4.37,0,0,1,483.24,253.7Zm0-7.46a3.25,3.25,0,1,0,3.51,3.24,3.39,3.39,0,0,0-3.51-3.19Z"/><path class="cls-2" d="M499.63,264a4,4,0,1,1,4.26,3.72h-.26A3.88,3.88,0,0,1,499.63,264Z"/><path d="M503.63,268.2a4.23,4.23,0,1,1,4.5-4.22,4.36,4.36,0,0,1-4.5,4.22Zm0-7.46a3.25,3.25,0,1,0,3.52,3.24A3.39,3.39,0,0,0,503.63,260.74Z"/><path d="M517.06,248.26a4.23,4.23,0,1,1,4.5-4.23A4.37,4.37,0,0,1,517.06,248.26Zm0-7.47a3.25,3.25,0,1,0,3.51,3.24,3.38,3.38,0,0,0-3.51-3.2Z"/><path d="M472.46,275.78h-.19a.48.48,0,0,1-.27-.62h0l9-22a.49.49,0,0,1,.64-.27h0a.51.51,0,0,1,.27.65l-9,22A.49.49,0,0,1,472.46,275.78Z"/><path d="M500.45,261.89a.47.47,0,0,1-.3-.1l-13.62-10.07a.48.48,0,0,1-.12-.67h0a.5.5,0,0,1,.69-.11L500.73,261a.49.49,0,0,1,.1.69h0A.47.47,0,0,1,500.45,261.89Z"/><path d="M506.06,261.17a.52.52,0,0,1-.29-.09.51.51,0,0,1-.12-.69l9.2-13a.48.48,0,0,1,.67-.12h0a.48.48,0,0,1,.13.67h0l-9.19,13A.51.51,0,0,1,506.06,261.17Z"/><path d="M509.46,302.7h0l-37.31-.15a.51.51,0,0,1-.49-.5.49.49,0,0,1,.49-.49h0l37.32.15a.5.5,0,0,1,0,1Z"/><path d="M580.19,244h0l-37.26-.15a.5.5,0,0,1,0-1h0l37.32.15a.5.5,0,0,1,0,1h-.06Z"/><path d="M580.19,265.79h0l-37.26-.15a.5.5,0,0,1,0-1h0l37.32.15a.51.51,0,0,1,.49.5.49.49,0,0,1-.48.5h-.07Z"/><path d="M565.33,253.86h0l-22.4-.15a.47.47,0,0,1-.49-.45v0h0a.5.5,0,0,1,.49-.49l22.45.15a.49.49,0,0,1,.49.49h0a.47.47,0,0,1-.46.48h-.08Z"/><path d="M494.17,293.41h0l-21.43-.15a.49.49,0,0,1-.49-.49.51.51,0,0,1,.5-.49h0l21.42.15a.5.5,0,0,1,0,1Z"/><path d="M558.93,279.06h0l-16-.15a.5.5,0,0,1,0-1h0l16.09.15a.5.5,0,0,1,0,1Z"/><g class="cls-1"><path d="M594.93,226.83h-1.41l-.94-.13a50.29,50.29,0,0,0-9.26-.35c-3.55.29-7.1.24-10.65.19-5.94.09-11.86-.34-17.79-.31-7,0-14,.33-21,.06-10.44-.28-20.87.06-31.32.07-2,0-4.08.16-6.12.33-2.66-.17-5.33-.36-8-.4-3.28,0-6.55.31-9.83.34a38,38,0,0,1-4.53-.07h.09a7.57,7.57,0,0,0-1.42-.19.8.8,0,0,0-.73.64c-1.39,0-2.78,0-4.16-.09-2.78-.12-5.57-.22-8.35-.08H458a2.39,2.39,0,0,0-1.06.13,1.44,1.44,0,0,0,.55,2.76c1.78,0,3.55-.15,5.33-.16,2.36,0,4.72.12,7.07.18,3.59-.05,7.18,0,10.77.21,2.77.09,5.53,0,8.29.11,4,0,8-.47,11.93-.64,4.54-.15,9.08-.14,13.62-.24,8.71-.14,17.43.07,26.14.23,5.56,0,11.12-.18,16.68-.12,3.41,0,6.82.18,10.23.27s7.08,0,10.62.1c3.84-.09,7.68-.42,11.52-.35a24.54,24.54,0,0,1,4.69.3h0a1.57,1.57,0,0,0,1.11-.05,1.45,1.45,0,0,0-.55-2.74Z"/></g><path class="cls-3" d="M132.5,7.26q-.44,43.11-1.74,86.21c-39.64,0-83.87.18-129.69.18C.63,64.26.63,35.57.49,6.79,34,6.79,95.82,6.17,132.5,7.26Z"/><path d="M1.07,94.18a.49.49,0,0,1-.49-.49h0c-.35-24-.44-48-.52-71.19L0,6.79a.5.5,0,0,1,.14-.35.51.51,0,0,1,.35-.15c8,0,17.69,0,28-.07,33.89-.12,76.07-.28,104,.58a.5.5,0,0,1,.44.46c-.28,28.62-.87,57.63-1.73,86.23a.5.5,0,0,1-.5.48c-19.1,0-39,0-60.17.08C48.08,94.13,24.81,94.18,1.07,94.18ZM1,7.26,1,22.47c.09,23,.17,46.82.52,70.7,23.56,0,46.68,0,69-.09,20.94,0,40.74-.09,59.7-.09C131.11,64.71,131.69,36,132,7.75c-28-.84-69.83-.69-103.51-.56C18.4,7.26,8.86,7.26,1,7.26Z"/><path d="M.55,17.19a.5.5,0,0,1,0-1c43.77-.74,88.16-.83,131.93-.26a.5.5,0,0,1,0,1h0c-43.76-.57-88.14-.49-131.91.25Z"/><path d="M46.86,70.49a.5.5,0,0,1-.24-.06.49.49,0,0,1-.19-.67h0c1.34-2.35,2.69-4.89,4.12-7.57,3.13-5.88,6.36-12,9.74-16.63a.5.5,0,0,1,.39-.2.45.45,0,0,1,.4.19c2.19,2.77,4.45,5.62,6.94,8.37A214.74,214.74,0,0,0,81,33.33a.47.47,0,0,1,.42-.26.5.5,0,0,1,.43.24c2.62,4.25,5.34,8.64,7.76,13.24L101,32a.49.49,0,0,1,.69-.08h0a.51.51,0,0,1,.13.16l11.12,20.87a.51.51,0,0,1-.21.67.49.49,0,0,1-.66-.21l-10.67-20.2L90,47.76a.48.48,0,0,1-.43.19.46.46,0,0,1-.39-.26c-2.36-4.56-5-8.93-7.64-13.15A212,212,0,0,1,68.46,55a.49.49,0,0,1-.37.2A.48.48,0,0,1,67.7,55c-2.52-2.74-4.8-5.59-7-8.36a157.39,157.39,0,0,0-9.29,16c-1.48,2.69-2.79,5.23-4.13,7.59A.5.5,0,0,1,46.86,70.49Z"/><path d="M87.93,67.26a.47.47,0,0,1-.49-.45v0h0a.49.49,0,0,1,.45-.53h0l33.29-.34h0a.49.49,0,0,1,.49.49h0a.47.47,0,0,1-.45.49h0Z"/><path d="M99.15,74.45c-3.75,0-7.48,0-11.21-.11a.5.5,0,0,1-.48-.51.49.49,0,0,1,.5-.48h0c7.62.16,15.35.15,23,0a.49.49,0,0,1,.5.48h0a.48.48,0,0,1-.46.5h0Q105.06,74.45,99.15,74.45Z"/><path d="M27.93,62.6a17.08,17.08,0,1,1,17-17.16v.08A17,17,0,0,1,28,62.6h-.08Zm0-33.17a16.09,16.09,0,1,0,16,16.18v-.09A16.05,16.05,0,0,0,27.93,29.43Z"/><path class="cls-2" d="M43.05,39c-5,2.78-10.16,5.48-15.26,8,1.63-5.82,3.3-11.5,5.23-17.23C36.93,31,40.39,33.62,43.05,39Z"/><path d="M27.79,47.47a.51.51,0,0,1-.31-.11.49.49,0,0,1-.16-.51c1.92-6.89,3.53-12.22,5.23-17.26a.5.5,0,0,1,.62-.31c4.47,1.41,7.85,4.5,10.32,9.45a.49.49,0,0,1-.2.65c-4.56,2.55-9.56,5.17-15.28,8A.43.43,0,0,1,27.79,47.47Zm5.54-17.1c-1.55,4.62-3,9.52-4.76,15.67,5.12-2.58,9.66-5,13.83-7.29C40.16,34.47,37.19,31.72,33.33,30.37Z"/><g class="cls-1"><path d="M132.18,17.13a2.55,2.55,0,0,0-1.65-.57h0a12,12,0,0,0-2.07-.09c-2.28,0-4.55-.15-6.82-.13-2.79,0-5.57.23-8.36.14-4.27-.07-8.55-.23-12.82-.17-2.5.08-5,.06-7.51.06-2.24,0-4.48.13-6.72.09-3.61.12-7.22,0-10.83-.06H73.73l-.15-.1A3.73,3.73,0,0,0,71.93,16a35,35,0,0,0-3.83,0C63.1,16.4,58,16,53,16c-3.64,0-7.26.32-10.9.38-2.45,0-4.89.07-7.34.15s-5.12.29-7.68.28c-7.1,0-14.2-.26-21.3,0-1,0-2,.06-3,0-.7,0-1.5-.1-2,.46a1.59,1.59,0,0,0,0,2.23A1.62,1.62,0,0,0,1.82,20c3.62,0,7.24-.06,10.86,0,5.3.17,10.6.36,15.9.46,4.92-.1,9.84-.33,14.76-.37,4.91-.23,9.82-.54,14.74-.46,3.63.14,7.25.05,10.88-.12h3.27a3.39,3.39,0,0,0,1-.13H74c2.86.16,5.72.41,8.59.48,2.13,0,4.26.07,6.39,0s4-.17,6-.11q8.75-.09,17.49,0c3.55.1,7.11-.17,10.66-.13,2.37.09,4.74,0,7.11,0h.18a1.57,1.57,0,0,0,1.74-2.55Z"/></g><path d="M549.32,207.2h-.11a.49.49,0,0,1-.37-.59h0c.11-.51.23-1,.36-1.52a.48.48,0,0,1,.57-.36h0a.49.49,0,0,1,.35.6h0c-.13.49-.24,1-.35,1.48A.5.5,0,0,1,549.32,207.2Zm1.53-5.26h-.17a.49.49,0,0,1-.3-.61h0c.45-1.23,1-2.46,1.56-3.67a.49.49,0,1,1,.88.42h0c-.56,1.18-1.08,2.38-1.52,3.58a.48.48,0,0,1-.46.29Zm3.41-7.09a.48.48,0,0,1-.26-.07.49.49,0,0,1-.17-.67c.67-1.13,1.41-2.25,2.18-3.33a.49.49,0,0,1,.68-.13h0a.51.51,0,0,1,.12.69c-.77,1.06-1.48,2.16-2.14,3.26a.49.49,0,0,1-.42.24Zm4.57-6.41a.51.51,0,0,1-.31-.11.5.5,0,0,1-.07-.7c.85-1,1.74-2,2.67-2.94a.49.49,0,1,1,.71.68h0c-.91.94-1.79,1.91-2.62,2.9a.52.52,0,0,1-.38.17Zm5.49-5.65a.51.51,0,0,1-.51-.51.5.5,0,0,1,.14-.35c1-.87,2-1.73,3-2.55a.49.49,0,0,1,.61.77c-1,.81-2,1.66-3,2.52A.55.55,0,0,1,564.32,182.79Zm6.19-4.86a.48.48,0,0,1-.5-.48.47.47,0,0,1,.22-.42c.53-.36,1.06-.72,1.6-1.06s1.16-.74,1.74-1.09a.49.49,0,0,1,.67.17.5.5,0,0,1-.16.68c-.58.34-1.15.7-1.72,1.07s-1,.68-1.57,1a.52.52,0,0,1-.28.13Zm6.74-4.08a.49.49,0,0,1-.23-.93c1.14-.61,2.33-1.21,3.53-1.78a.49.49,0,0,1,.43.89h0c-1.19.56-2.37,1.16-3.5,1.76a.46.46,0,0,1-.23.06Zm7.11-3.39a.48.48,0,0,1-.45-.3.5.5,0,0,1,.26-.65c1.18-.5,2.42-1,3.67-1.47a.46.46,0,0,1,.61.25v0h0a.49.49,0,0,1-.27.64h0c-1.24.47-2.46,1-3.64,1.46h-.19Zm7.36-2.81a.51.51,0,0,1-.28-1l.12,0h0c1.2-.41,2.47-.82,3.76-1.23a.49.49,0,0,1,.61.33h0a.49.49,0,0,1-.31.61h0c-1.28.4-2.54.81-3.73,1.22a.46.46,0,0,1-.16.07Zm7.52-2.35a.5.5,0,0,1-.14-1h0c1.22-.35,2.5-.7,3.81-1a.49.49,0,0,1,.6.35h0a.49.49,0,0,1-.35.6h0c-1.3.35-2.58.7-3.78,1Zm7.61-2a.48.48,0,0,1-.47-.37.49.49,0,0,1,.35-.6h0l1.39-.34,2.45-.59a.51.51,0,1,1,.22,1l-2.44.59-1.42.27Zm7.67-1.83a.47.47,0,0,1-.48-.38.49.49,0,0,1,.37-.59h0c1.28-.29,2.56-.58,3.85-.85a.5.5,0,0,1,.59.37.51.51,0,0,1-.38.59l-3.84.85Zm7.7-1.66a.5.5,0,0,1-.1-1h0L626,158a.52.52,0,0,1,.6.41.5.5,0,0,1-.41.59h0c-1.29.25-2.58.51-3.86.78Zm7.71-1.55a.52.52,0,0,1-.55-.45.51.51,0,0,1,.46-.55c1.3-.24,2.59-.47,3.89-.69a.49.49,0,0,1,.57.4h0a.5.5,0,0,1-.4.57c-1.3.22-2.59.45-3.88.69Zm7.77-1.35a.49.49,0,0,1-.49-.41.5.5,0,0,1,.41-.57l3.9-.61a.5.5,0,1,1,.14,1c-1.29.2-2.59.4-3.88.62Zm7.79-1.18a.5.5,0,0,1-.49-.42.5.5,0,0,1,.42-.56c1.3-.19,2.61-.36,3.91-.53a.5.5,0,0,1,.13,1h0l-3.9.53Zm7.81-1a.5.5,0,0,1-.49-.44.49.49,0,0,1,.43-.54l3.92-.45a.49.49,0,0,1,.55.42h0a.5.5,0,0,1-.44.55l-3.91.44Zm7.84-.86a.5.5,0,0,1,0-1c1.31-.13,2.62-.26,3.93-.37a.5.5,0,1,1,.08,1l-3.92.37Zm7.85-.69a.5.5,0,0,1,0-1c1.31-.1,2.62-.2,3.93-.28a.49.49,0,0,1,.53.46.5.5,0,0,1-.46.54l-3.93.28Zm7.86-.53a.5.5,0,0,1,0-1l3.94-.2a.48.48,0,0,1,.51.45h0a.48.48,0,0,1-.45.51h0l-3.93.2Zm7.87-.37a.52.52,0,0,1-.49-.48.48.48,0,0,1,.46-.5h0l4-.13h0a.52.52,0,0,1,.49.48.49.49,0,0,1-.47.51h0q-2,0-3.93.12Zm7.88-.2a.5.5,0,0,1,0-1l3.94-.05h0a.47.47,0,0,1,.49.47h0a.49.49,0,0,1-.48.5h0l-3.93.06Zm7.88-.1a.5.5,0,0,1,0-1h3.95a.5.5,0,0,1,0,1Zm7.88-.1a.5.5,0,0,1,0-1c1.32,0,2.63,0,3.94-.08h0a.5.5,0,0,1,0,1l-3.94.07Zm7.88-.18a.5.5,0,0,1,0-1c1.36,0,2.68-.1,3.93-.16a.5.5,0,0,1,.52.48h0a.49.49,0,0,1-.46.52h0l-3.94.16Zm7.87-.38a.5.5,0,0,1,0-1h0c1.34-.09,2.65-.18,3.91-.29a.49.49,0,0,1,.54.43h0a.51.51,0,0,1-.45.54c-1.27.11-2.59.21-3.94.3Zm7.85-.68a.5.5,0,0,1-.06-1c1.33-.14,2.64-.31,3.9-.48a.52.52,0,0,1,.58.42.51.51,0,0,1-.43.58h0c-1.27.18-2.59.34-3.92.49Zm7.8-1.09a.49.49,0,0,1-.49-.41.5.5,0,0,1,.41-.57c1.3-.22,2.6-.47,3.85-.73a.5.5,0,0,1,.58.38.49.49,0,0,1-.37.59h0c-1.26.26-2.57.51-3.89.73Zm7.71-1.61a.49.49,0,0,1-.48-.37.51.51,0,0,1,.36-.6c1.28-.31,2.55-.66,3.78-1a.5.5,0,0,1,.62.33.51.51,0,0,1-.34.62c-1.24.36-2.53.71-3.82,1Zm7.56-2.22a.51.51,0,0,1-.53-.49.51.51,0,0,1,.37-.51h0c1.24-.43,2.48-.88,3.67-1.36a.49.49,0,1,1,.36.92c-1.2.48-2.45.94-3.71,1.37Zm7.31-2.93a.49.49,0,0,1-.44-.28.5.5,0,0,1,.23-.66c1.19-.55,2.36-1.15,3.48-1.77a.49.49,0,0,1,.67.19h0a.49.49,0,0,1-.19.67h0c-1.14.63-2.33,1.24-3.54,1.81h-.21Zm6.88-3.84a.48.48,0,0,1-.41-.22.51.51,0,0,1,.13-.69c1.1-.73,2.16-1.5,3.14-2.3a.5.5,0,0,1,.7.08.49.49,0,0,1-.08.69h0c-1,.81-2.08,1.6-3.21,2.35a.42.42,0,0,1-.27,0Zm6.11-5a.5.5,0,0,1-.5-.48.48.48,0,0,1,.15-.36,31,31,0,0,0,2.65-2.85.48.48,0,0,1,.67-.1h0a.49.49,0,0,1,.08.69h0a30.23,30.23,0,0,1-2.65,3,.44.44,0,0,1-.4.08Zm4.82-6.2a.43.43,0,0,1-.25-.07.49.49,0,0,1-.18-.67h0a23.56,23.56,0,0,0,1.63-3.49.5.5,0,0,1,.63-.29h0a.49.49,0,0,1,.3.61h0a23.17,23.17,0,0,1-1.7,3.64.48.48,0,0,1-.42.23Zm2.68-7.36h-.08a.49.49,0,0,1-.4-.57h0v-.29a20.59,20.59,0,0,0,.27-3.33V116a.48.48,0,0,1,.46-.5h0a.49.49,0,0,1,.49.49v.28a22.6,22.6,0,0,1-.27,3.49v.3a.49.49,0,0,1-.5.38Zm-.06-7.84a.5.5,0,0,1-.49-.4,25.34,25.34,0,0,0-1-3.73.5.5,0,0,1,.29-.63h0a.5.5,0,0,1,.63.3,27.28,27.28,0,0,1,1,3.88.49.49,0,0,1-.39.57Zm-2.57-7.42a.52.52,0,0,1-.44-.27,31.64,31.64,0,0,0-2-3.36.5.5,0,0,1,.83-.54,34.77,34.77,0,0,1,2,3.45.48.48,0,0,1-.19.65h0a.45.45,0,0,1-.23,0Zm-4.3-6.59a.46.46,0,0,1-.38-.18,35.78,35.78,0,0,0-2.59-2.92.49.49,0,0,1,.71-.68h0q1.41,1.5,2.64,3a.49.49,0,0,1-.07.69h0a.42.42,0,0,1-.31.07Zm-5.46-5.67a.5.5,0,0,1-.33-.12c-1-.86-2-1.69-3-2.47a.49.49,0,0,1,.59-.79h0c1.06.8,2.1,1.65,3.08,2.52a.49.49,0,0,1,.06.68h0a.51.51,0,0,1-.39.15Z"/><path d="M407.48,65.41a.47.47,0,0,1-.35-.15c-.84-.86-1.72-1.72-2.61-2.54a.49.49,0,0,1,0-.69.47.47,0,0,1,.63,0c.91.83,1.81,1.7,2.66,2.58a.49.49,0,0,1,0,.69A.55.55,0,0,1,407.48,65.41Zm-5.61-5.15a.51.51,0,0,1-.31-.11c-1-.81-2.05-1.61-3.11-2.37a.51.51,0,0,1-.12-.69A.5.5,0,0,1,399,57c1.08.77,2.14,1.58,3.16,2.4a.5.5,0,0,1,.07.7A.49.49,0,0,1,401.87,60.26Zm-6.4-4.59a.52.52,0,0,1-.27-.07c-1.09-.69-2.22-1.36-3.36-2a.49.49,0,0,1-.2-.65h0a.49.49,0,0,1,.66-.19c1.16.64,2.31,1.32,3.42,2a.49.49,0,0,1,.15.68h0a.46.46,0,0,1-.41.24Zm-6.84-3.83h-.22c-1.16-.57-2.36-1.11-3.57-1.61a.48.48,0,0,1-.27-.62h0a.49.49,0,0,1,.64-.27h0c1.22.51,2.44,1.06,3.62,1.63a.49.49,0,0,1,.22.66.48.48,0,0,1-.43.27ZM331.27,49.7a.49.49,0,0,1-.49-.49.51.51,0,0,1,.3-.45c1.21-.51,2.46-1,3.71-1.42a.48.48,0,0,1,.61.29h0a.49.49,0,0,1-.29.62h0c-1.23.43-2.46.9-3.65,1.39a.49.49,0,0,1-.24,0Zm50.09-.88h-.17c-1.22-.43-2.47-.84-3.72-1.2a.51.51,0,0,1-.37-.6v0a.51.51,0,0,1,.62-.37h0c1.27.37,2.54.78,3.78,1.22a.51.51,0,0,1-.16,1Zm-42.73-1.66a.5.5,0,1,1-.14-1h0c1.26-.35,2.56-.67,3.85-1a.49.49,0,0,1,.59.37h0a.49.49,0,0,1-.38.58h0c-1.28.28-2.55.59-3.8.94Zm35.09-.53h-.09c-1.26-.3-2.55-.57-3.83-.8a.49.49,0,0,1-.4-.57h0a.51.51,0,0,1,.58-.4c1.29.24,2.6.51,3.88.81a.5.5,0,0,1,.45.55h0a.51.51,0,0,1-.56.45ZM346.33,45.5a.5.5,0,0,1-.49-.42.49.49,0,0,1,.41-.56h0c1.3-.2,2.62-.37,3.94-.49a.49.49,0,0,1,.54.43h0a.51.51,0,0,1-.45.54c-1.29.12-2.6.29-3.88.48ZM366,45.26h-.06c-1.29-.17-2.6-.29-3.89-.38a.5.5,0,0,1-.47-.54.5.5,0,0,1,.54-.46h0c1.31.1,2.64.23,3.95.39a.5.5,0,0,1,.46.54h0a.49.49,0,0,1-.52.46h0Zm-11.79-.5a.5.5,0,0,1,0-1c1.31-.06,2.64-.07,4,0a.5.5,0,0,1,0,1Z"/><path d="M497.06,128.47h-1.87a.5.5,0,0,1,0-1h3.92a.5.5,0,0,1,0,1Zm6-.17a.5.5,0,1,1,0-1c1.28-.08,2.59-.17,3.91-.29a.49.49,0,0,1,.53.45h0a.48.48,0,0,1-.42.53h0c-1.33.12-2.66.22-4,.29Zm-11.81,0h0c-1.33-.09-2.66-.2-4-.34a.5.5,0,0,1-.45-.55h0a.51.51,0,0,1,.56-.45c1.27.14,2.59.25,3.9.33a.49.49,0,0,1,.46.52h0a.5.5,0,0,1-.46.47Zm19.66-.7a.49.49,0,0,1-.07-1h0c1.28-.15,2.59-.33,3.89-.52a.49.49,0,0,1,.56.41h0a.49.49,0,0,1-.41.56h0c-1.32.2-2.64.37-3.92.53Zm-27.49-.16h-.08c-1.31-.21-2.62-.46-3.9-.73a.49.49,0,0,1-.37-.59h0a.46.46,0,0,1,.55-.37h0c1.26.27,2.55.51,3.85.72a.5.5,0,0,1-.08,1Zm35.29-1a.52.52,0,0,1-.55-.45.51.51,0,0,1,.46-.55c1.31-.23,2.61-.47,3.85-.74a.5.5,0,0,1,.6.38h0a.51.51,0,0,1-.39.61h0c-1.26.26-2.57.51-3.89.75Zm-43-.68h-.13l-1.65-.5c-.72-.23-1.45-.46-2.16-.71a.49.49,0,1,1,.32-.93c.7.24,1.42.48,2.13.69.53.17,1.07.32,1.6.47a.5.5,0,0,1,.43.56h0a.49.49,0,0,1-.54.43h0Zm50.7-.94a.51.51,0,0,1-.57-.43.51.51,0,0,1,.44-.57h0c1.29-.32,2.56-.66,3.78-1a.48.48,0,0,1,.6.31h0a.5.5,0,0,1-.33.62c-1.24.36-2.52.7-3.82,1Zm-58.14-1.65h-.19c-1.22-.52-2.43-1.08-3.6-1.67a.5.5,0,0,1-.23-.65h0a.46.46,0,0,1,.62-.23h0c1.15.58,2.35,1.13,3.54,1.64a.49.49,0,0,1,.27.64h0a.49.49,0,0,1-.44.28Zm65.7-.57a.51.51,0,0,1-.28-1l.12,0h0c1.25-.43,2.48-.89,3.67-1.36a.49.49,0,0,1,.63.25h0a.49.49,0,0,1-.27.64h0c-1.19.48-2.44,1-3.71,1.39Zm7.3-3a.5.5,0,0,1-.45-.28.49.49,0,0,1,.24-.65c1.19-.57,2.36-1.17,3.48-1.79a.51.51,0,0,1,.67.19.5.5,0,0,1-.19.67h0c-1.13.63-2.32,1.24-3.53,1.82a.66.66,0,0,1-.19.09Zm-80,0a.43.43,0,0,1-.25-.07c-1.14-.68-2.26-1.4-3.34-2.15a.49.49,0,1,1,.56-.81c1.06.74,2.16,1.45,3.29,2.12a.49.49,0,0,1,.17.67.52.52,0,0,1-.44.27Zm86.91-3.81a.48.48,0,0,1-.41-.22.49.49,0,0,1,.14-.68h0c1.1-.72,2.17-1.48,3.18-2.25a.49.49,0,0,1,.6.78c-1,.79-2.12,1.56-3.24,2.29a.49.49,0,0,1-.28.11Zm-93.36-.69a.52.52,0,0,1-.32-.11c-1-.84-2-1.73-3-2.63a.5.5,0,0,1,0-.7.48.48,0,0,1,.68,0h0c.93.88,1.91,1.75,2.93,2.58a.49.49,0,0,1-.31.87Zm99.6-4.1a.52.52,0,0,1-.37-.16.5.5,0,0,1,0-.7c.93-.84,1.84-1.73,2.79-2.73a.5.5,0,0,1,.7,0,.49.49,0,0,1,0,.69c-1,1-1.9,1.92-2.84,2.78a.48.48,0,0,1-.29.15Zm-105.3-1.31a.48.48,0,0,1-.37-.17,38.79,38.79,0,0,1-2.5-3.09.49.49,0,0,1,.79-.59c.76,1,1.59,2,2.45,3a.49.49,0,0,1,0,.69.47.47,0,0,1-.37.16Zm110.75-4.34a.47.47,0,0,1-.32-.12.48.48,0,0,1,0-.68h0c.77-.9,1.57-1.85,2.51-3a.49.49,0,0,1,.76.62h0c-.94,1.17-1.75,2.14-2.53,3a.46.46,0,0,1-.42.18Zm-115.42-2a.49.49,0,0,1-.42-.24c-.69-1.14-1.32-2.32-1.89-3.5a.49.49,0,0,1,.89-.43h0c.56,1.17,1.18,2.32,1.85,3.43a.49.49,0,0,1-.17.67.48.48,0,0,1-.26.07Zm120.4-4.1a.51.51,0,0,1-.31-.11.5.5,0,0,1-.08-.69c.82-1,1.64-2.06,2.47-3.08a.48.48,0,0,1,.69-.09h0a.5.5,0,0,1,.07.7c-.82,1-1.64,2-2.45,3.07a.51.51,0,0,1-.4.23Zm5-6.11a.47.47,0,0,1-.32-.12.48.48,0,0,1,0-.68h0c.93-1.08,1.8-2,2.66-2.94a.48.48,0,0,1,.68,0h0a.49.49,0,0,1,0,.69h0c-.85.88-1.71,1.83-2.63,2.9a.47.47,0,0,1-.42.15Zm5.46-5.68a.49.49,0,0,1-.49-.49.48.48,0,0,1,.16-.36c.32-.3.65-.58,1-.85.68-.58,1.39-1.15,2.1-1.7a.49.49,0,0,1,.67.17h0a.5.5,0,0,1-.08.61c-.71.53-1.4,1.09-2.06,1.66-.32.27-.63.55-.94.83a.55.55,0,0,1-.39.12Zm6.28-4.74a.48.48,0,0,1-.42-.23.5.5,0,0,1,.16-.68c1.12-.69,2.29-1.35,3.47-2a.5.5,0,0,1,.66.22.48.48,0,0,1-.19.65h0c-1.16.59-2.31,1.23-3.4,1.91a.5.5,0,0,1-.28.12Zm7-3.54a.52.52,0,0,1-.63-.36.51.51,0,0,1,.36-.62l.09,0h0c1.23-.49,2.49-.94,3.76-1.32a.49.49,0,0,1,.28.94h0c-1.23.38-2.47.81-3.67,1.29a.38.38,0,0,1-.15.09Zm7.54-2.28a.5.5,0,0,1-.1-1h0c1.29-.27,2.61-.49,3.92-.65a.5.5,0,1,1,.12,1h0c-1.28.16-2.57.38-3.84.64Zm16-.46h-.42a.49.49,0,0,1-.41-.56h0a.5.5,0,0,1,.56-.42l.34.06a.49.49,0,0,1,.41.56h0a.49.49,0,0,1-.47.36ZM607.87,76h0A36.06,36.06,0,0,0,604,76a.49.49,0,0,1-.51-.47h0a.49.49,0,0,1,.47-.51h4a.5.5,0,0,1,.46.52.49.49,0,0,1-.52.46h0Z"/><path d="M148.35,149.7h0c-1.33,0-2.66-.08-4-.17a.5.5,0,1,1,.06-1c1.29.08,2.61.14,3.92.17a.47.47,0,0,1,.48.46v0h0A.5.5,0,0,1,148.35,149.7Zm3.94,0a.5.5,0,0,1,0-1c1.29,0,2.61-.09,3.91-.17a.47.47,0,0,1,.52.41h0a.48.48,0,0,1-.44.52h0c-1.31.08-2.64.14-4,.17Zm7.86-.5a.5.5,0,0,1-.49-.44.5.5,0,0,1,.44-.55c1.28-.13,2.59-.3,3.89-.48a.48.48,0,0,1,.55.4h0a.49.49,0,0,1-.41.56h0c-1.31.19-2.63.36-3.93.49Zm-19.66,0h-.06c-1.31-.15-2.63-.33-3.92-.54a.49.49,0,0,1-.41-.56h0a.48.48,0,0,1,.55-.4h0c1.28.2,2.59.38,3.88.53a.5.5,0,0,1,0,1Zm27.44-1.11a.48.48,0,0,1-.48-.4.5.5,0,0,1,.4-.58c1.27-.23,2.56-.49,3.84-.77a.51.51,0,0,1,.61.39h0a.51.51,0,0,1-.4.61c-1.29.28-2.59.55-3.88.78ZM132.7,148h-.08c-1.3-.26-2.6-.56-3.86-.88a.5.5,0,0,1-.37-.59.49.49,0,0,1,.59-.36h0c1.25.31,2.54.61,3.82.87a.5.5,0,1,1-.1,1Zm42.92-1.57a.49.49,0,0,1-.48-.37.48.48,0,0,1,.33-.59h0c1.25-.33,2.53-.68,3.78-1a.49.49,0,1,1,.28.94h0c-1.27.37-2.55.73-3.82,1ZM125.05,146h-.12c-1.28-.38-2.55-.8-3.77-1.23a.49.49,0,1,1,.33-.93c1.21.43,2.46.84,3.72,1.22a.5.5,0,0,1-.14,1Zm58.13-1.83a.51.51,0,0,1-.57-.42h0a.49.49,0,0,1,.4-.57h0c1.23-.4,2.48-.83,3.71-1.28a.5.5,0,0,1,.63.29h0a.5.5,0,0,1-.29.63c-1.25.45-2.51.88-3.74,1.28Zm-65.56-.81h-.19c-1.22-.51-2.44-1-3.62-1.62a.49.49,0,0,1-.24-.65.5.5,0,0,1,.66-.24c1.16.56,2.37,1.1,3.58,1.6a.47.47,0,0,1,.27.62h0a.46.46,0,0,1-.45.29Zm73-1.87a.48.48,0,0,1-.45-.31.49.49,0,0,1,.27-.64h0c1.21-.47,2.43-1,3.63-1.49a.5.5,0,0,1,.65.26.46.46,0,0,1-.23.62h0c-1.21.52-2.44,1-3.66,1.51a.54.54,0,0,1-.18,0ZM110.54,140a.5.5,0,0,1-.24-.06c-1.16-.64-2.31-1.32-3.42-2a.49.49,0,0,1-.15-.68h0a.5.5,0,0,1,.68-.16c1.08.69,2.22,1.36,3.37,2a.48.48,0,0,1,.2.66.51.51,0,0,1-.44.26Zm87.39-1.57a.47.47,0,0,1-.45-.28.5.5,0,0,1,.24-.66c1.18-.54,2.37-1.11,3.54-1.69a.49.49,0,0,1,.66.22h0a.48.48,0,0,1-.2.65h0c-1.18.59-2.38,1.16-3.57,1.71a.41.41,0,0,1-.22,0Zm-94-2.63a.43.43,0,0,1-.29-.1c-1.08-.77-2.14-1.59-3.14-2.43a.49.49,0,0,1-.07-.69h0a.5.5,0,0,1,.7-.07c1,.83,2,1.63,3.09,2.4a.48.48,0,0,1,.12.67h0a.52.52,0,0,1-.41.21Zm101-.86a.48.48,0,0,1-.43-.26.5.5,0,0,1,.19-.67h0l.1-.05c1.12-.59,2.25-1.2,3.36-1.82a.49.49,0,1,1,.48.86c-1.12.62-2.26,1.24-3.38,1.83l-.1.05a.6.6,0,0,1-.19.06Zm6.89-3.83a.5.5,0,0,1-.43-.25.48.48,0,0,1,.16-.66h0l3.37-2a.47.47,0,0,1,.65.14h0a.5.5,0,0,1-.15.68h0c-1.13.69-2.27,1.38-3.38,2a.49.49,0,0,1-.21.08Zm-114-.34a.47.47,0,0,1-.34-.13c-1-.92-1.9-1.87-2.78-2.84a.49.49,0,0,1,0-.69h0a.5.5,0,0,1,.7,0,35.94,35.94,0,0,0,2.73,2.79.55.55,0,0,1-.07.77.56.56,0,0,1-.2.11Zm120.71-3.79a.47.47,0,0,1-.48-.48v0a.47.47,0,0,1,.22-.4c1.08-.7,2.18-1.42,3.28-2.16a.5.5,0,0,1,.69.14.49.49,0,0,1-.14.68h0c-1.11.74-2.22,1.47-3.3,2.17a.62.62,0,0,1-.23.07Zm-126-2a.51.51,0,0,1-.39-.19c-.82-1-1.6-2.12-2.34-3.21a.49.49,0,0,1,.1-.69h0a.5.5,0,0,1,.69.1h0c.73,1.07,1.5,2.13,2.3,3.15a.49.49,0,0,1-.08.69h0a.44.44,0,0,1-.27.09Zm132.57-2.35a.48.48,0,0,1-.5-.48.47.47,0,0,1,.22-.42c1-.72,2.13-1.48,3.21-2.26a.5.5,0,0,1,.69.12.48.48,0,0,1-.1.67h0c-1.09.78-2.18,1.54-3.23,2.27a.55.55,0,0,1-.25.07Zm-137-4.18a.49.49,0,0,1-.42-.24c-.66-1.14-1.28-2.32-1.86-3.52a.49.49,0,0,1,.89-.42c.57,1.17,1.18,2.33,1.82,3.45a.48.48,0,0,1-.16.66h0a.67.67,0,0,1-.2,0Zm143.39-.4a.52.52,0,0,1-.4-.2.5.5,0,0,1,.11-.69c1-.75,2.09-1.54,3.15-2.35a.49.49,0,0,1,.69.1h0a.49.49,0,0,1-.1.69h0l-3.16,2.36a.51.51,0,0,1-.24.07Zm6.24-4.75a.52.52,0,0,1-.49-.51.56.56,0,0,1,.19-.38l3.1-2.42a.49.49,0,1,1,.61.77c-1,.82-2.07,1.63-3.11,2.43a.5.5,0,0,1-.25.13Zm-153-2a.5.5,0,0,1-.46-.31c-.48-1.21-.94-2.47-1.35-3.73a.49.49,0,0,1,.94-.3c.4,1.24.85,2.47,1.33,3.67a.5.5,0,0,1-.28.64Zm159.2-2.91a.51.51,0,0,1-.39-.19.49.49,0,0,1,.06-.68h0l3.06-2.48a.49.49,0,0,1,.69.07h0a.5.5,0,0,1-.07.7l-3,2.49a.46.46,0,0,1-.3.08ZM82.24,103.81a.49.49,0,0,1-.48-.37c-.32-1.26-.62-2.56-.87-3.87a.51.51,0,0,1,.44-.57.51.51,0,0,1,.56.38c.25,1.29.54,2.57.86,3.82a.51.51,0,0,1-.36.6Zm167.83-.44a.49.49,0,0,1-.38-.18.5.5,0,0,1,.07-.7l3-2.51a.5.5,0,0,1,.68,0h0a.48.48,0,0,1,0,.68h0l-3,2.51a.55.55,0,0,1-.32.14Zm6.06-5a.52.52,0,0,1-.38-.17.5.5,0,0,1,.06-.7l3-2.53a.49.49,0,0,1,.63.75l-3,2.54a.48.48,0,0,1-.31.08Zm6-5.08a.48.48,0,0,1-.37-.17.5.5,0,0,1,0-.68h0l.21-.19a.5.5,0,0,1,.7.06.49.49,0,0,1-.06.69l-.22.19a.46.46,0,0,1-.3.11Z"/><path class="cls-3" d="M625.7,291.17q1.27-.82,2.55-1.59c-6.15-11.24-17.9-14.64-25.16-15.16-6.9.22-11.65.22-19.85,5a25.88,25.88,0,0,0-8,8.68l3,1.91c2.41,1.56,4.82,3.11,7.22,4.68,3.33-6.13,9.91-9.24,17.71-9.24s12.89,5.13,15.63,10.64C621,294.35,623.32,292.7,625.7,291.17Z"/><path d="M618.75,296.56h-.12a.54.54,0,0,1-.33-.26c-1.93-3.88-6.47-10.37-15.19-10.37-7.88,0-14.18,3.28-17.28,9a.47.47,0,0,1-.31.24.49.49,0,0,1-.39-.06c-2-1.28-3.9-2.54-5.85-3.8l-1.37-.89-3-1.91a.5.5,0,0,1-.15-.67A26.1,26.1,0,0,1,583,279c8-4.67,12.82-4.82,19.42-5H603c4.18.3,18.38,2.29,25.57,15.41a.51.51,0,0,1-.18.66c-.94.57-1.77,1.09-2.54,1.58h0c-2.16,1.39-4.42,3-6.92,4.88A.52.52,0,0,1,618.75,296.56Zm-15.63-11.63c8.86,0,13.63,6.28,15.8,10.39,2.34-1.75,4.48-3.25,6.52-4.57h0c.66-.43,1.37-.87,2.15-1.35-7-12.29-20.47-14.2-24.51-14.49h-.64c-6.46.2-11.13.35-19,4.89a25.15,25.15,0,0,0-7.6,8.1l2.57,1.66,1.37.88,5.41,3.51c3.39-5.73,9.84-9,17.88-9Z"/><path class="cls-2" d="M597,332.77c.45-2.62,1-5.24,1.5-7.84a20.65,20.65,0,0,1-5.81-1.29,13.42,13.42,0,0,1-4.49-3.18,18.69,18.69,0,0,1-5.07-10.35,35.28,35.28,0,0,1,0-6.66,23.48,23.48,0,0,1,.48-3.74c-4-1-8-2.24-12-3.14a37.79,37.79,0,0,0,.71,21.91c3.77,11.93,14.85,16.33,23.89,17.77C596.41,335.08,596.69,333.92,597,332.77Z"/><path d="M596.16,336.74h-.08c-8.92-1.42-20.36-5.71-24.28-18.11a38.31,38.31,0,0,1-.71-22.19.48.48,0,0,1,.58-.35c2.21.49,4.43,1.11,6.57,1.7,1.79.49,3.64,1,5.47,1.44a.47.47,0,0,1,.36.57h0a23.8,23.8,0,0,0-.47,3.66,5.57,5.57,0,0,1,0,1,28.39,28.39,0,0,0,.06,5.53,18.12,18.12,0,0,0,4.93,10.08,13.29,13.29,0,0,0,4.32,3.06,20.5,20.5,0,0,0,5.68,1.26.55.55,0,0,1,.35.2.52.52,0,0,1,.08.4c-.58,2.76-1.07,5.31-1.5,7.81h0c-.32,1.22-.59,2.36-.83,3.46a.5.5,0,0,1-.52.48Zm-24.23-39.59a37.53,37.53,0,0,0,.83,21.18c3.7,11.71,14.47,15.91,23,17.36.22-1,.46-2,.74-3,.4-2.34.85-4.73,1.38-7.29a20.92,20.92,0,0,1-5.4-1.27,14,14,0,0,1-4.66-3.3,19.14,19.14,0,0,1-5.2-10.62,31.23,31.23,0,0,1-.07-5.72l.06-1a23.71,23.71,0,0,1,.39-3.35c-1.69-.42-3.38-.89-5-1.34C576,298.19,574,297.62,571.93,297.15Z"/><path d="M606.36,337.26a.5.5,0,0,1-.49-.44v-.2c-.29-2.54-.58-5.08-.85-7.62-.12-1.1-.23-2.2-.35-3.31l-.08-.75a.52.52,0,0,1,.11-.36.48.48,0,0,1,.33-.18l.88-.1a18.53,18.53,0,0,0,6-1.72c2.85-1.45,5.16-4.29,6.85-8.47a29.75,29.75,0,0,0,1.77-6,15.68,15.68,0,0,0,.21-3.35,19.85,19.85,0,0,0-.57-3.42.48.48,0,0,1,0-.37.52.52,0,0,1,.31-.23c3.65-.88,7.41-1.55,11-2.15a.51.51,0,0,1,.57.39,45.67,45.67,0,0,1,.74,8.33c0,5.51-2.46,12.59-6.28,18.05-3.46,4.95-9.65,11-19.49,11.88h-.66Zm-.73-11.92v.26c.12,1.1.23,2.2.35,3.3.27,2.45.55,4.9.82,7.35h.13c9.46-.82,15.43-6.69,18.76-11.46,4.51-6.45,6.11-13.45,6.11-17.49a44.78,44.78,0,0,0-.64-7.67c-3.23.56-6.63,1.16-9.93,2a20.4,20.4,0,0,1,.49,3.1,17.29,17.29,0,0,1-.23,3.59,30.72,30.72,0,0,1-1.83,6.23c-1.78,4.4-4.24,7.42-7.32,9a19.4,19.4,0,0,1-6.37,1.82Z"/><path d="M610.2,334.46a.16.16,0,0,1-.11,0l-2.16-2.15a.16.16,0,0,1,.23-.23l2.2,2.15a.17.17,0,0,1,0,.23A.18.18,0,0,1,610.2,334.46Z"/><path d="M613.13,333.87H613c-2-1.68-4-3.46-5.82-5.28a.18.18,0,0,1,0-.24.17.17,0,0,1,.23,0c1.87,1.82,3.82,3.59,5.8,5.27a.16.16,0,0,1,0,.23h0A.18.18,0,0,1,613.13,333.87Z"/><path d="M615.77,332.76h-.11l-7.28-6.56a.16.16,0,1,1,.22-.24l7.28,6.55a.16.16,0,0,1,0,.23h0A.14.14,0,0,1,615.77,332.76Z"/><path d="M618.63,330.9h-.1c-2.3-1.79-4.55-3.69-6.7-5.67a.17.17,0,0,1,0-.23.16.16,0,0,1,.23,0h0c2.13,2,4.38,3.87,6.67,5.65a.17.17,0,0,1,0,.21h0A.15.15,0,0,1,618.63,330.9Z"/><path d="M621,328.72h-.09c-2.35-1.59-4.66-3.31-6.85-5.13a.16.16,0,1,1,.21-.25h0a84.86,84.86,0,0,0,6.83,5.11.17.17,0,0,1,0,.23A.18.18,0,0,1,621,328.72Z"/><path d="M623.11,326.57H623c-2.19-1.53-4.38-3.13-6.51-4.77a.17.17,0,0,1,0-.23.17.17,0,0,1,.21,0h0c2.12,1.63,4.31,3.24,6.5,4.76a.16.16,0,0,1,0,.23h0A.17.17,0,0,1,623.11,326.57Z"/><path d="M624.93,324.12h-.09c-2.23-1.4-4.47-2.85-6.65-4.29a.17.17,0,0,1,0-.23.16.16,0,0,1,.23,0h0c2.18,1.45,4.42,2.89,6.64,4.29a.16.16,0,0,1,0,.23h0A.15.15,0,0,1,624.93,324.12Z"/><path d="M626.38,321.4h-.08l-6.3-3.73a.15.15,0,0,1-.07-.2h0a.16.16,0,0,1,.22-.06h0l6.3,3.72a.17.17,0,0,1,.06.23A.2.2,0,0,1,626.38,321.4Z"/><path d="M627.53,318.91h-.08L621,315.26a.18.18,0,0,1-.07-.23.19.19,0,0,1,.23-.06l6.45,3.59a.15.15,0,0,1,.07.2h0a.15.15,0,0,1-.15.15Z"/><path d="M628.73,316.15h-.08l-6.49-3.57a.16.16,0,1,1,.16-.28l6.49,3.56a.15.15,0,0,1,.08.2h0A.19.19,0,0,1,628.73,316.15Z"/><path d="M629.69,313.47h-.08c-2.29-1.34-4.64-2.65-7-3.91a.15.15,0,0,1-.08-.2h0a.17.17,0,0,1,.23-.06c2.34,1.25,4.69,2.56,7,3.9a.16.16,0,0,1,0,.23h0a.17.17,0,0,1-.13.07Z"/><path d="M630.26,310.26h-.07l-7.26-3.5a.15.15,0,0,1-.08-.2h0a.15.15,0,0,1,.2-.08h0l7.3,3.52a.15.15,0,0,1,.09.19v0h0A.19.19,0,0,1,630.26,310.26Z"/><path d="M630.32,307.26h-.07c-2.47-1.16-5-2.37-7.43-3.59a.16.16,0,0,1,.15-.29h0c2.45,1.22,5,2.43,7.42,3.59a.15.15,0,0,1,.09.19v0h0A.18.18,0,0,1,630.32,307.26Z"/><path d="M630.31,304.35h-.06a49,49,0,0,1-4.73-2.42.17.17,0,0,1-.06-.22.17.17,0,0,1,.23-.06,51.76,51.76,0,0,0,4.69,2.4.17.17,0,0,1,.08.22A.14.14,0,0,1,630.31,304.35Z"/><path d="M630.16,301.81h-.07l-1.32-.58a.16.16,0,0,1,0-.24.18.18,0,0,1,.17-.06l1.31.58a.16.16,0,0,1,.1.2h0A.18.18,0,0,1,630.16,301.81Z"/><g class="cls-1"><path d="M632,303.26c0-1-.17-1.91-.21-2.86-.06-.47.11-1-.26-1.42a.82.82,0,0,0-1.16,0h0a.8.8,0,0,0-.23.48,1.21,1.21,0,0,0-1.21,1.21h0a1.41,1.41,0,0,0,0,.29,16.84,16.84,0,0,1,.41,5.15,29.56,29.56,0,0,1-2.25,9.85,25.07,25.07,0,0,1-1.67,3.79,28.61,28.61,0,0,1-3.22,5.57l-1,1.2a21.94,21.94,0,0,1-5,4,24.07,24.07,0,0,1-5.71,2.64,11.82,11.82,0,0,1-3.18.52,1.08,1.08,0,0,0-1.31.57.89.89,0,0,0,0,.75,1.21,1.21,0,0,0,.55,1.61,1.25,1.25,0,0,0,.83.08,3.5,3.5,0,0,0,.71-.32c.45-.16.93-.21,1.39-.34s1.06-.37,1.61-.5l.29,0a11.48,11.48,0,0,0,2.4-.34,21.23,21.23,0,0,0,7.67-5.1,31.51,31.51,0,0,0,4-4.63,54.59,54.59,0,0,0,2.66-4.94,35.9,35.9,0,0,0,2.09-5,28.69,28.69,0,0,0,1.52-5.38,22.36,22.36,0,0,0,.26-5.6A2.83,2.83,0,0,0,632,303.26Z"/></g><g class="cls-1"><path d="M627.34,289.15a16.6,16.6,0,0,0-4.38-6.81,1,1,0,0,0-1.38,1.38c1.21.89,2.24,3.25,2.57,4.06a27.25,27.25,0,0,1,.94,2.62C625.63,292.26,628.38,291.34,627.34,289.15Z"/></g><g class="cls-1"><path d="M595.93,333.4a8.65,8.65,0,0,1-3.61-.38c-1.48-.39-3-.72-4.46-1.15-1.25-.31-3.13-1.07-3.68-1.2a.87.87,0,0,0-.53,1.62c.91.49,1.79,1,2.74,1.44.78.34,1.63.53,2.44.82a18.8,18.8,0,0,0,5.43,1.34,6.76,6.76,0,0,0,1.68-.06,1.13,1.13,0,0,0,.74-.27,1.21,1.21,0,0,0-.75-2.16Z"/></g><path class="cls-3" d="M111.43,104.88c18.14,1.38,36.37.57,54.53-.58,4.38-.28,9.11-.72,12.38-3.67,4.71-4.25,3.81-13-1.47-16.47s-13.24-1.2-16.24,4.41a13.4,13.4,0,0,0-26.7-2.31c-.51-4.56-7-6.38-10.72-3.7s-4.68,7.92-3.94,12.44c-1.81-4.31-8.66-4.64-11.51-1S106.09,104.48,111.43,104.88Z"/><path d="M131.75,106.1c-6.91,0-13.63-.22-20.36-.73a5.67,5.67,0,0,1-5-3.48,8.21,8.21,0,0,1,1-8.08,7.71,7.71,0,0,1,7.06-2.67,7,7,0,0,1,4.14,2c-.2-3.91.85-8.37,4.36-10.91a8.1,8.1,0,0,1,7.79-.62,6.26,6.26,0,0,1,3.13,2.81c1.85-6,8.18-10.6,14.48-10.07s12,6.26,12.65,12.64a12.48,12.48,0,0,1,7-4.57,11.45,11.45,0,0,1,9.13,1.34,11.21,11.21,0,0,1,4.71,8.55,10.49,10.49,0,0,1-3.19,8.7c-3.29,3-7.88,3.49-12.68,3.79C153.63,105.58,142.46,106.1,131.75,106.1Zm-18.37-14a6.56,6.56,0,0,0-5.19,2.35,7.23,7.23,0,0,0-.85,7.08,4.72,4.72,0,0,0,4.12,2.9c17.11,1.3,34.15.71,54.47-.58,4.62-.29,9-.78,12.08-3.54a9.5,9.5,0,0,0,2.87-7.89,10.26,10.26,0,0,0-4.28-7.81,10.5,10.5,0,0,0-8.34-1.21A11.21,11.21,0,0,0,161,88.84a.51.51,0,0,1-.56.25.5.5,0,0,1-.37-.49,12.89,12.89,0,0,0-25.65-2.17.5.5,0,0,1-.49.43.49.49,0,0,1-.48-.44,4.93,4.93,0,0,0-3.11-3.88,7.1,7.1,0,0,0-6.83.52c-3.77,2.73-4.37,8.15-3.74,12a.49.49,0,0,1-.94.27,5.39,5.39,0,0,0-4.51-3.13,8.3,8.3,0,0,0-1-.14Z"/><g class="cls-1"><path d="M179.5,98.46a1.1,1.1,0,0,0-1.08-1,2.09,2.09,0,0,0-1,.46,9.7,9.7,0,0,1-1.23.66,20.31,20.31,0,0,1-4.7,1.45l-.46.06c.67-.09.06,0-.29,0-7.49.07-14.94.88-22.42,1.15-3.42.13-6.83.39-10.24.51-5.68.13-11.35.29-17,.42-1.43,0-2.87,0-4.3-.12-2.37-.21-4.73-.57-7.11-.64a1.38,1.38,0,0,0,0,2.76h0c3.65.21,4,.6,8.59,1,3.54.26,7.09,0,10.64,0h10.73c2.92,0,5.83-.21,8.75-.3h.25c4,.08,8.1,0,12.14-.27,1.73-.11,3.47-.1,5.2-.18,1.54-.14,2.08-.26,3.08-.36a17.34,17.34,0,0,0,5.81-1.26,5,5,0,0,0,1.59-1,.85.85,0,0,0,.2-.65,11.06,11.06,0,0,0,1.55-1l.26-.2a6.87,6.87,0,0,0,.66-.55A1.06,1.06,0,0,0,179.5,98.46Z"/></g><path class="cls-3" d="M566.79,41.26l56.49,1.52c5.22.14,11,.1,14.91-3.34,4.46-3.91,4.5-11.79.08-15.74s-12.25-3-15.62,1.85c.1-7.89-7.83-14.45-15.71-14.16s-14.83,6.31-17.66,13.67c.55-5-5.3-9-10.12-7.69s-7.88,6.41-8.08,11.39c-3.55-5.16-12.55-4.9-15.8.44A7.7,7.7,0,0,0,554.1,34c.36,3.53,3.61,6.21,7.06,7.06S568.22,41.26,566.79,41.26Z"/><path d="M625.68,43.26h-2.41l-56-1.5a15.12,15.12,0,0,1-6.21-.27c-3.29-.81-7-3.51-7.43-7.49a8.24,8.24,0,0,1,1.3-5,9.72,9.72,0,0,1,8.19-4.39,10,10,0,0,1,7.64,3c.61-4.5,3.5-9.31,8.34-10.61a9,9,0,0,1,8,2,7.6,7.6,0,0,1,2.53,4c3.45-7,10.3-11.85,17.28-12.1a16.47,16.47,0,0,1,11.84,4.73,14,14,0,0,1,4.32,8.67A11.14,11.14,0,0,1,630,20.87a11,11,0,0,1,8.51,19C635.13,42.76,630.44,43.26,625.68,43.26Zm-58.75-2.49,56.36,1.49c5.57.15,10.88,0,14.58-3.23a10,10,0,0,0-13-15.2l-.28.25a9.67,9.67,0,0,0-1.54,1.72.49.49,0,0,1-.55.19.5.5,0,0,1-.35-.48,12.67,12.67,0,0,0-4.08-9.2,15.49,15.49,0,0,0-11.14-4.43c-7.21.27-14.29,5.76-17.22,13.35a.5.5,0,0,1-.58.31.49.49,0,0,1-.37-.54,6.15,6.15,0,0,0-2.35-5.33,8.12,8.12,0,0,0-7.15-1.83c-4.83,1.29-7.54,6.48-7.72,10.94a.5.5,0,0,1-.36.45.48.48,0,0,1-.54-.2,9.42,9.42,0,0,0-13.23-1.45h0a9.51,9.51,0,0,0-1.77,1.87,7.31,7.31,0,0,0-1,4.45c.36,3.51,3.72,5.9,6.69,6.63a17,17,0,0,0,5.13.4.52.52,0,0,1,.39-.17Z"/><g class="cls-1"><path d="M638.56,36.1a1,1,0,0,0-.73-.09c-.55.19-.86.75-1.3,1.1a5.35,5.35,0,0,1-1.6,1.15l-.3.12h0l-.16.07a.34.34,0,0,1,.12-.06,8.89,8.89,0,0,1-1.68.46,56.4,56.4,0,0,1-7,.23c-2.43,0-4.85-.26-7.28-.34-6.45-.36-12.9.16-19.34-.31-3.8-.15-7.59-.37-11.38-.36-2.21,0-4.42-.24-6.63-.2-4,0-8.09.29-12.14.39a72.86,72.86,0,0,1-8.36-.18,1.19,1.19,0,0,0-.32,2.34,48.78,48.78,0,0,0,6.83.37h2.64a.92.92,0,0,0,.71.31c3.37,0,6.74.22,10.11.38,5.22.17,10.42.61,15.64.68,2.79,0,5.58.19,8.37.37a64.14,64.14,0,0,0,6.5.31c3.2,0,6.41-.13,9.62,0a46.84,46.84,0,0,0,5.3.12A42,42,0,0,0,632.5,42a12.88,12.88,0,0,0,4.35-1.39c.46-.3,1.1-.48,1.28-1h0a9.94,9.94,0,0,0,1.94-2,1.09,1.09,0,0,0-1.35-1.71.86.86,0,0,0-.14.13Z"/></g><g class="cls-1"><path d="M634.63,38.4"/></g></svg>