<svg xmlns="http://www.w3.org/2000/svg" viewBox="0 0 1520.6 222.35"><path fill="#acd4f7" d="M194.56,45a88.37,88.37,0,0,0,14.91,0c.28,3.57.55,5.75-.57,9.19a6.78,6.78,0,0,1-3.34,4.23c-2.13,1-4.77.51-7.11,0a7.13,7.13,0,0,1-2.59-1c-1.47-1.06-1.55-3-1.53-4.59C194.42,49.6,194.5,47.91,194.56,45Z"/><g opacity=".13"><path d="M220.92,23.48a1,1,0,0,0-1.4.14c-.21.42-.14.22-.23.83a.45.45,0,0,1,0,.23c-.06.24-.25,1-.33,1.22h0a15.43,15.43,0,0,1-1.69,3.28,10.47,10.47,0,0,1-1.44,2c-.94,1.11-3.55,3.18-5.06,5-.44.51-1.41,1.68-1.55,1.88h0A12.11,12.11,0,0,0,207.67,40a22.62,22.62,0,0,0-1.3,2.37,5.86,5.86,0,0,0-.76,2.22.43.43,0,0,0,0,.16,1.63,1.63,0,0,0-.23,1.45c.48,1.36.47,2.94.36,5.45a8,8,0,0,1-.75,4,5.67,5.67,0,0,1-.79,1.55,1.82,1.82,0,0,0-.41.82,1.24,1.24,0,0,0,.93,1.41,3.91,3.91,0,0,0,.44-.26c.61-.41,1.22-.83,1.85-1.23l.94-.6a12.19,12.19,0,0,0,1.18-2.9c.43-2.14.54-2.54,1-4.88a11.27,11.27,0,0,0,0-3.07,3.08,3.08,0,0,0-.64-1.89h-.42l-.72.07a18.65,18.65,0,0,1,3.8-6.82c1.27-1.28,2.63-2.43,3.95-3.69a17,17,0,0,0,3.21-3.67c.46-1,.39-.86.68-1.54,0-.11,0,0-.07.12.17-.34.34-.68.49-1a6.3,6.3,0,0,0,.5-1.65h0C221.08,25.26,221.53,24.09,220.92,23.48Z"/></g><g opacity=".13"><path d="M206.21,42.59l.11-.2v-.07Z"/></g><path d="M202.5,59.58a12.51,12.51,0,0,1-1.83-.13c-1.48-.19-5.07-.94-6.22-3.51a6.78,6.78,0,0,1-.45-2.85V44.85a.33.33,0,0,1,.31-.35h0a147.23,147.23,0,0,0,15.15.2.36.36,0,0,1,.39.28h0a26.44,26.44,0,0,1-.53,9.17,7.08,7.08,0,0,1-1.51,3.61A7.37,7.37,0,0,1,202.5,59.58Zm-7.84-14.4v7.91a6.11,6.11,0,0,0,.37,2.58c.68,1.57,2.82,2.73,5.68,3.11s5.32-.18,6.55-1.49A6.31,6.31,0,0,0,208.63,54a24.89,24.89,0,0,0,.56-8.64c-2.9.17-11.32,0-14.53-.2Z"/><path d="M208.52,45.26h-.06a.34.34,0,0,1-.28-.38h0c.68-3.53,3.41-6.33,6.14-9,2.48-2.51,5.05-5.12,5.85-8.25a17.2,17.2,0,0,0-1.11-9.27,12.15,12.15,0,0,0-4.65-5.77c-3.79-2.36-10.23-4-15.33-2.68-4.82,1.26-8.81,3.62-11.16,6.65a13.06,13.06,0,0,0-2.62,9.76,16.87,16.87,0,0,0,4.68,9.3c.36.39.74.78,1.11,1.16a20.4,20.4,0,0,1,2.25,2.49,9.55,9.55,0,0,1,1.89,5.41.35.35,0,0,1-.34.35.33.33,0,0,1-.35-.31h0a8.85,8.85,0,0,0-1.75-5,21.75,21.75,0,0,0-2.18-2.42c-.37-.38-.77-.77-1.14-1.16a17.73,17.73,0,0,1-4.84-9.72,13.86,13.86,0,0,1,2.73-10.31C189.8,13,193.9,10.5,198.89,9.2c5.29-1.36,12,.35,15.86,2.77a12.69,12.69,0,0,1,4.93,6.08,18.05,18.05,0,0,1,1.14,9.72c-.84,3.31-3.48,6-6,8.56s-5.28,5.37-5.91,8.68A.35.35,0,0,1,208.52,45.26Z"/><path d="M204.49,45.09h0a.35.35,0,0,1-.34-.36h0c0-3.35.2-6.81.51-10.4a16.89,16.89,0,0,1,.77-4.28,5.79,5.79,0,0,1-2.9-1.67,3.44,3.44,0,0,1-.35-.41c-.15.26-.32.52-.48.76A4.25,4.25,0,0,1,198.56,31a3.16,3.16,0,0,1-1.06-.1,24.5,24.5,0,0,1,.73,2.8,46.19,46.19,0,0,1,1,11,.35.35,0,0,1-.35.34h0a.36.36,0,0,1-.34-.36,45.65,45.65,0,0,0-1-10.81,25.14,25.14,0,0,0-.89-3.19l-.49-.19a9.89,9.89,0,0,1-4.63-3.21,1.52,1.52,0,0,1-.14-1.87,1.72,1.72,0,0,1,1.79-.41,3.21,3.21,0,0,1,1.36.91,12.06,12.06,0,0,1,2.65,4.23,3.06,3.06,0,0,0,3.92-1.72c.22-.33.43-.68.63-1a8.72,8.72,0,0,1-1.05-3.8,5.9,5.9,0,0,1,1-4.24,1.14,1.14,0,0,1,1.13-.49,1.05,1.05,0,0,1,.59.45,5.06,5.06,0,0,1,.54,4,15.84,15.84,0,0,1-1.45,4A7.31,7.31,0,0,0,203,28a5.23,5.23,0,0,0,2.66,1.48l.07-.16a9.18,9.18,0,0,1,3.65-3.86,1.75,1.75,0,0,1,1.08-.31,1,1,0,0,1,.81.56,2,2,0,0,1-.18,1.67A5.58,5.58,0,0,1,208,30a4.48,4.48,0,0,1-1.89.17,15.47,15.47,0,0,0-.76,4.22c-.31,3.53-.48,7-.51,10.34v.11a.36.36,0,0,1-.38.34h0ZM192.58,25.48a.87.87,0,0,0-.68.25c-.27.31,0,.83.18,1a9.71,9.71,0,0,0,4.18,2.9A10.85,10.85,0,0,0,194,26.22a2.53,2.53,0,0,0-1.06-.73,1.15,1.15,0,0,0-.37,0Zm13.81,4a4.17,4.17,0,0,0,1.36-.17,4.94,4.94,0,0,0,2.73-2.37,1.22,1.22,0,0,0,.14-1,.3.3,0,0,0-.26-.17,1.2,1.2,0,0,0-.68.22,8.58,8.58,0,0,0-3.34,3.52Zm-3.75-10a.6.6,0,0,0-.38.26,5.24,5.24,0,0,0-.88,3.75,8.38,8.38,0,0,0,.73,3.12,13,13,0,0,0,1.21-3.44,4.29,4.29,0,0,0-.42-3.48.49.49,0,0,0-.2-.18Z"/><path d="M223.12,13.22a.36.36,0,0,1-.42-.25h0a.36.36,0,0,1,.25-.43h0l4.35-2.35a.65.65,0,0,1,.79,0,.36.36,0,0,1,.15.34c0,.32,0,.34-5,2.73A.28.28,0,0,1,223.12,13.22Z"/><path d="M195.53,5.25a.36.36,0,0,1-.32-.2L193.1.45a.37.37,0,0,1,.23-.44.37.37,0,0,1,.4.15l2.13,4.57a.34.34,0,0,1-.16.45h0A.36.36,0,0,1,195.53,5.25Z"/><path d="M181.31,15.51h-.06l-4.78-.95a.67.67,0,0,1-.6-.43.38.38,0,0,1,.1-.38c.2-.21.32-.32,5.45,1.08a.36.36,0,0,1,.25.42A.35.35,0,0,1,181.31,15.51Z"/><path d="M174.94,33.36a.35.35,0,0,1-.42-.26h0a.36.36,0,0,1,.28-.41h0l4.95-2a.36.36,0,0,1,.46.18h0a.35.35,0,0,1-.18.45h0l-4.95,2.08Z"/><path d="M210.07,5.16h-.13a.37.37,0,0,1-.2-.43L211.5.35A.37.37,0,0,1,212,.12l0,0h0a.35.35,0,0,1,.19.45h0L210.44,5A.37.37,0,0,1,210.07,5.16Z"/><path d="M229.32,30h-.12l-4.77-1.87a.38.38,0,0,1-.22-.45h0a.36.36,0,0,1,.46-.22h0l4.77,1.84a.34.34,0,0,1,.25.41h0a.37.37,0,0,1-.37.26Z"/><path d="M24.66,139.75A24.51,24.51,0,0,1,6.88,132C3.41,128.35-.56,121.85.06,111.71A24.16,24.16,0,0,1,7.34,95.62,24.78,24.78,0,0,1,24.66,88.9a25.14,25.14,0,0,1,23.28,15c2.55,6.39,2.46,17.66-2.14,24.72A25.4,25.4,0,0,1,24.66,139.75Zm0-50.17c-13.12,0-23.18,9.33-23.93,22.16C.15,121.65,4,128,7.38,131.51A23.9,23.9,0,0,0,24.66,139a24.71,24.71,0,0,0,20.56-10.92c4.48-6.86,4.57-17.84,2-24.07h0A24.56,24.56,0,0,0,24.59,89.57Z"/><path fill="#fff" d="M48.07,101.93q4.2-3.75,8.74-7.09c-2.57-.34-5.09-.52-7.6-.68.64-2.53,1.11-5,1.58-7.5q-4.49,3.12-8.64,6.68a31.46,31.46,0,0,0-.9,7.23C43.26,101.24,45.9,101.35,48.07,101.93Z"/><path d="M48.07,102.28H48a29.34,29.34,0,0,0-3.08-.59,22,22,0,0,1-3.77-.81.32.32,0,0,1-.23-.31,26.41,26.41,0,0,1,.68-6.33c.07-.33.13-.68.19-1a.37.37,0,0,1,.12-.2,105.94,105.94,0,0,1,8.67-6.7.33.33,0,0,1,.38,0,.34.34,0,0,1,.15.36c-.44,2.33-.9,4.77-1.49,7.14,2.14.13,4.64.3,7.22.64a.34.34,0,0,1,.29.26.39.39,0,0,1-.13.35c-3,2.21-5.94,4.59-8.72,7.07A.35.35,0,0,1,48.07,102.28Zm-6.49-2A25,25,0,0,0,45,101c1,.15,2,.31,3,.55,2.54-2.25,5.21-4.43,7.93-6.46-2.42-.29-4.77-.45-6.73-.57a.31.31,0,0,1-.25-.13.35.35,0,0,1-.07-.3c.57-2.23,1-4.48,1.44-6.67-2.6,1.81-4.89,3.65-7.83,6.09a4.19,4.19,0,0,1-.17.87,27,27,0,0,0-.73,6Z"/><path d="M25.12,131.85h-1a19.23,19.23,0,0,1-11.38-4.75,14.09,14.09,0,0,1-5.2-10,21.86,21.86,0,0,1,1-8.11,17.22,17.22,0,0,1,8-9.38A18.1,18.1,0,0,1,29,97.85h0c5,1.13,9.62,5.5,11.73,11.18a16.74,16.74,0,0,1-9.49,21.69h0a16.45,16.45,0,0,1-6.13,1.13Zm0-33.72a17.39,17.39,0,0,0-8.18,2,16.52,16.52,0,0,0-7.68,9,21.35,21.35,0,0,0-1,7.86,13.4,13.4,0,0,0,4.93,9.58,18.59,18.59,0,0,0,11,4.55,16.28,16.28,0,0,0,14-6.68,16.48,16.48,0,0,0,1.88-15.18c-2-5.45-6.46-9.65-11.25-10.72a17,17,0,0,0-3.7-.44Z"/><path fill="#acd4f7" d="M26.94,106a9.67,9.67,0,0,0-6.53.88,8.92,8.92,0,0,0-4.23,4.83,11.16,11.16,0,0,0-.54,4.21,7.16,7.16,0,0,0,2.72,5.21,10.33,10.33,0,0,0,6,2.45A9,9,0,0,0,32.09,120a8.75,8.75,0,0,0,1-8.18A9.12,9.12,0,0,0,26.94,106Z"/><path d="M24.91,123.85h-.57a10.61,10.61,0,0,1-6.2-2.52,7.49,7.49,0,0,1-2.86-5.48,11.23,11.23,0,0,1,.57-4.34,9.34,9.34,0,0,1,4.4-5,10.06,10.06,0,0,1,6.77-.92h0a9.61,9.61,0,0,1,6.44,6,9.05,9.05,0,0,1-1.08,8.5A9.43,9.43,0,0,1,24.91,123.85Zm0-17.78a9.37,9.37,0,0,0-4.34,1.06,8.62,8.62,0,0,0-4.09,4.64,10.85,10.85,0,0,0-.48,4.08,6.8,6.8,0,0,0,2.6,4.92,10,10,0,0,0,5.79,2.37,8.61,8.61,0,0,0,7.42-3.46,8.34,8.34,0,0,0,1-7.85,8.83,8.83,0,0,0-5.94-5.54h0a9,9,0,0,0-2-.2Z"/><path d="M25.31,114.21a.3.3,0,0,1-.25-.12.34.34,0,0,1,0-.48h0C34.34,105.34,44.14,97.4,54.11,90a.35.35,0,0,1,.49.07h0a.36.36,0,0,1-.07.49h0c-10,7.38-19.77,15.3-29,23.55A.44.44,0,0,1,25.31,114.21Z"/><path d="M13,124.25a.09.09,0,0,1-.1-.06,62.61,62.61,0,0,1-3.41-8,.12.12,0,0,1,.11-.1.12.12,0,0,1,.15.08h0a67.85,67.85,0,0,0,3.4,8,.11.11,0,0,1,0,.15H13Z"/><path d="M17.56,128.93a.14.14,0,0,1-.1-.07A115.75,115.75,0,0,1,10,111.27a.12.12,0,0,1,0-.17h0a.11.11,0,0,1,.14.07h0a117.77,117.77,0,0,0,7.5,17.57.12.12,0,0,1-.05.15Z"/><path d="M19.84,129.52h-.07c-3-6.81-5.87-13.79-8.46-20.78a.12.12,0,0,1,.07-.15h0a.12.12,0,0,1,.15.07h0c2.59,7,5.45,14,8.45,20.77a.12.12,0,0,1-.05.15h-.09Z"/><path d="M14.74,110.94a.13.13,0,0,1-.11-.06c-.8-1.72-1.48-3.5-2.16-5.27a.09.09,0,0,1,0-.13h0a.12.12,0,0,1,.15.06h0c.64,1.77,1.37,3.53,2.15,5.25a.11.11,0,0,1,0,.15h0Z"/><path d="M16.31,108.57a.12.12,0,0,1-.11-.07l-2-4.84a.09.09,0,0,1,0-.13h0a.09.09,0,0,1,.13,0h0l2,4.84a.12.12,0,0,1,0,.14h-.06Z"/><path d="M17.92,106.19a.08.08,0,0,1-.1-.06h0l-1.76-4.22a.11.11,0,0,1,.07-.14h0a.15.15,0,0,1,.13,0L18,106.09a.13.13,0,0,1-.06.15Z"/><path d="M20.48,104.79a.12.12,0,0,1-.11-.08,42.48,42.48,0,0,1-1.61-4.24.12.12,0,0,1,0-.17h0a.12.12,0,0,1,.16,0h0c.46,1.43,1,2.85,1.6,4.23a.1.1,0,0,1,0,.14h0Z"/><path d="M22.93,103.9a.1.1,0,0,1-.1-.07,33.23,33.23,0,0,1-1.47-4.09.11.11,0,0,1,.07-.14h0a.12.12,0,0,1,.15.08h0A33,33,0,0,0,23,103.77a.09.09,0,0,1,0,.13h-.07Z"/><path d="M25.65,104a.14.14,0,0,1-.12-.09l-1.32-4.54a.11.11,0,0,1,.07-.14h0a.12.12,0,0,1,.15.08h0l1.32,4.55a.11.11,0,0,1-.07.14h0Z"/><path d="M28.63,105.33a.11.11,0,0,1-.11-.08l-1.74-5.4a.11.11,0,0,1,.07-.14h0a.12.12,0,0,1,.15.07l1.73,5.45a.12.12,0,0,1-.07.15h0Z"/><path d="M32.08,106.65a.12.12,0,0,1-.11-.07l-2.35-6.24a.11.11,0,0,1,.06-.14h0a.11.11,0,0,1,.15,0h0l2.35,6.27a.12.12,0,0,1-.07.15Z"/><path d="M22.92,130.45a.12.12,0,0,1-.11-.07,44.83,44.83,0,0,1-2.72-5.94.12.12,0,0,1,.05-.15h0a.12.12,0,0,1,.15.07h0a42.57,42.57,0,0,0,2.7,5.91.12.12,0,0,1,0,.16Z"/><path d="M25.22,130.32a.17.17,0,0,1-.1,0A27.84,27.84,0,0,1,22.53,125a.11.11,0,0,1,0-.15h0a.11.11,0,0,1,.15,0h0a28.81,28.81,0,0,0,2.59,5.29.14.14,0,0,1,0,.17Z"/><path d="M27.5,130a.12.12,0,0,1-.11-.07,50,50,0,0,1-2.17-4.84.12.12,0,0,1,.05-.15h0a.12.12,0,0,1,.16,0h0c.68,1.64,1.36,3.27,2.18,4.84a.12.12,0,0,1-.05.16h0Z"/><path d="M33.43,104.25a.12.12,0,0,1-.11-.07l-.92-2.61a.12.12,0,0,1,.07-.15.11.11,0,0,1,.15,0h0l.92,2.62a.11.11,0,0,1-.06.14h0Z"/><path d="M39.77,118.31a.12.12,0,0,1-.11-.07c-1.66-3.53-3.19-7.15-4.66-10.71a.13.13,0,0,1,.06-.15.14.14,0,0,1,.16.07c1.44,3.58,3,7.18,4.62,10.69a.11.11,0,0,1,0,.15Z"/><path d="M40.05,113.21a.11.11,0,0,1-.1-.06c-1.21-2.26-2.35-4.6-3.36-7a.12.12,0,0,1,0-.16h0a.12.12,0,0,1,.15.06c1,2.35,2.15,4.69,3.36,7a.14.14,0,0,1,0,.15Z"/><path d="M38.8,121.57a.12.12,0,0,1-.11-.07l-5.35-12.33a.11.11,0,0,1,0-.13h.06a.11.11,0,0,1,.13,0h0l5.32,12.34a.11.11,0,0,1,0,.15Z"/><path d="M37.54,123.85a.12.12,0,0,1-.11-.07l-2.73-5.87a.11.11,0,0,1,0-.15h0a.12.12,0,0,1,.15.06h0l2.73,5.87a.12.12,0,0,1-.06.15Z"/><path d="M35.83,125.56a.12.12,0,0,1-.11-.07l-2.32-5a.12.12,0,0,1,.05-.16h0a.12.12,0,0,1,.16.06h0l2.32,5a.12.12,0,0,1-.06.15Z"/><path d="M34.08,127a.14.14,0,0,1-.1-.07l-2-4.25a.13.13,0,0,1,.06-.16h0a.1.1,0,0,1,.14,0h0l2,4.25a.12.12,0,0,1,0,.14h0Z"/><path d="M32.14,128.26a.12.12,0,0,1-.1-.07L30,124a.12.12,0,0,1,.05-.16h0a.12.12,0,0,1,.16.06h0l2,4.24a.09.09,0,0,1,0,.13h-.07Z"/><path d="M29.83,129.7a.14.14,0,0,1-.11-.06l-2-4.34a.14.14,0,0,1,.05-.16h0a.12.12,0,0,1,.14,0h0l2,4.34a.14.14,0,0,1-.05.16Z"/><g opacity=".13"><path d="M50.24,94.71c-.41-.64-1.05-.44-1.54,0a9.52,9.52,0,0,1-1.36,1c-2,1.46-4,2.73-5.46,4a.77.77,0,0,0,1,1.14c1.76-1.36,3.62-2.6,5.45-3.89.48-.32,1-.68,1.43-1a.87.87,0,0,0,.53-1.11h0A.58.58,0,0,0,50.24,94.71Z"/></g><g opacity=".13"><path d="M34.14,113.62a2.42,2.42,0,0,0-.24-1.3.83.83,0,0,0-1.16-.18h0c-.5.37-.3,1.07-.42,1.6h0a9.18,9.18,0,0,1-.42,1.64A10.69,10.69,0,0,1,29.47,119a10,10,0,0,1-3.9,2,7,7,0,0,1-3.05.1h0a5.93,5.93,0,0,1-3.86-1.72.84.84,0,0,0-1.17-.1.82.82,0,0,0-.11,1.14h0l.1.1a9.61,9.61,0,0,0,6.17,2.6,6.84,6.84,0,0,0,1.28,0,1.22,1.22,0,0,0,0,.27c.36.8.82.51,1.36.44l1.28-.27a7.09,7.09,0,0,0,3.53-2.18,9.89,9.89,0,0,0,3.08-7.69Z"/></g><g opacity=".13"><path d="M41.24,113.9a13.63,13.63,0,0,0-.19-1.41.87.87,0,0,0-.42-.74.81.81,0,0,0-1.1.31.79.79,0,0,0-.09.6,8.31,8.31,0,0,1,0,3.22,24.79,24.79,0,0,1-1.27,3.85c-.1.25-.2.5-.31.74a3.2,3.2,0,0,1-.26.6,17.68,17.68,0,0,1-1.3,2.38A20,20,0,0,1,31.81,128c-1.17.87-1,.49-2,1.12l.34-.2-.53.19a22.93,22.93,0,0,1-4.52,1.31H23.36a3,3,0,0,1-.6,0,.6.6,0,0,0-.68.48h0a.59.59,0,0,0,.45.68l.87.15h.09a8.85,8.85,0,0,0,3.51-.29,35.19,35.19,0,0,0,3.47-1c.19-.06,0,0-.11,0a6.44,6.44,0,0,0,1.36-.4,17,17,0,0,0,6.28-5.3,12,12,0,0,0,1.37-2.45,5.15,5.15,0,0,0,.49-1.36v.28a23.1,23.1,0,0,0,1.26-4.15.53.53,0,0,1,0,.25A11.46,11.46,0,0,0,41.24,113.9Z"/></g><g opacity=".13"><path d="M49.17,113.69a.73.73,0,0,0-.22-.52.74.74,0,0,0-1.05,0h0a.71.71,0,0,0-.21.5,13.6,13.6,0,0,1-.8,5.1A23.45,23.45,0,0,1,45,123.62c-.68,1.24-1.25,2.53-2,3.75a29.16,29.16,0,0,1-3.14,4.19c-2.17,2.21-3.77,3.77-6.21,4.56a26.84,26.84,0,0,1-7.17,2.15H26.2l-.35.06a.61.61,0,0,0-.55.66h0a.6.6,0,0,0,.55.55,15.6,15.6,0,0,0,2.72-.29,25.75,25.75,0,0,0,4.71-1.4,19.23,19.23,0,0,0,3.1-1.23A16.26,16.26,0,0,0,40,133.85a18.58,18.58,0,0,0,1.66-1.66.63.63,0,0,0,.78.39h0a.68.68,0,0,0,.23-.14,22.09,22.09,0,0,0,4-5.85,19.14,19.14,0,0,0,1.22-3.18c.06-.4.29-.84.09-1.22a.74.74,0,0,0-.16-.19,24.58,24.58,0,0,0,1.32-6.57A16.84,16.84,0,0,0,49.17,113.69Z"/></g><path d="M201.76,172.41h-.51a12.66,12.66,0,0,1-9.16-5.2c-1.9-2.4-3.25-5.38-4.42-9.67V145.26c0-7.83,0-15.24-.15-22.78a.29.29,0,0,1,.11-.26.35.35,0,0,1,.26-.1c4.32.38,15.78,1.37,20.06,3.64a16.79,16.79,0,0,1,8.35,9.76h0c.88,2.91.55,6,.23,9-.14,1.29-.29,2.61-.33,3.89-.15,5-.32,10.55-2.55,15.41C211.59,168.15,207.22,172.41,201.76,172.41Zm-13.46-15a25.41,25.41,0,0,0,4.28,9.38,12.06,12.06,0,0,0,8.65,4.93c5.34.28,9.71-3.94,11.68-8.24,2.16-4.73,2.33-10.22,2.48-15.14a37.15,37.15,0,0,1,.33-3.94c.31-2.9.64-5.91-.21-8.68h0a16,16,0,0,0-8-9.34c-4-2.13-14.88-3.13-19.42-3.52.12,7.41.13,14.7.15,22.4,0,3.93.06,8,.06,12.12Z"/><path d="M108.41,222.35c-13,0-25.11-.75-34.76-1.62-20.94-1.9-37.49-5.07-40.5-6.24a.33.33,0,0,1-.21-.35A584.84,584.84,0,0,0,34,155.52a.34.34,0,0,1,.13-.28.33.33,0,0,1,.3-.06,323.27,323.27,0,0,0,117.24,7.3.36.36,0,0,1,.39.28h0c.6,9.16,1.07,18.14,1.41,26.69h0c.38,9.66.62,19.39.68,28.93a.34.34,0,0,1-.3.34l-5.95.89A270.38,270.38,0,0,1,108.41,222.35Zm-74.78-8.42c3.53,1.22,19.7,4.26,40.07,6.13,19,1.73,47.27,2.94,74.12-1l5.65-.84c-.09-9.43-.33-19.09-.68-28.63-.34-8.43-.8-17.27-1.37-26.3a328,328,0,0,1-58.62,1.65,324.79,324.79,0,0,1-58-8.84c.51,19.46.2,39-1.17,57.83Z"/><path fill="#fff" d="M217,188.32c-.6-9.78-1.19-19.57-.93-29.36.2-7.79,1-15.63-.11-23.35.4,4.32-2.41,8.71-6,11.79-6.41,5.52-15.06,7.95-23.47,9.89q-12.11,2.78-24.44,4.62c-12.33,1.84,0,0,0,.05.27,5.09.58,10.18.83,15.27q.65,13.64,1,27.27.17,6.41.26,12.81a241.21,241.21,0,0,0,26.19-5.63c10.07-2.86,20.29-7,26.91-15.11C217.24,193.55,217.09,190.94,217,188.32Z"/><path d="M164.13,217.63a.39.39,0,0,1-.23-.07.4.4,0,0,1-.12-.27c-.06-4.24-.15-8.54-.26-12.81-.22-8.62-.55-17.52-1-27.23-.15-3.09-.32-6.24-.49-9.28l-.33-6h0a.33.33,0,0,1,.27-.38h0c8.18-1.24,16.42-2.79,24.41-4.62s16.82-4.22,23.32-9.82c4-3.46,6.2-7.76,5.84-11.5a.35.35,0,0,1,.37-.33h0a.33.33,0,0,1,.31.26c.82,6,.56,12.11.31,18-.07,1.76-.15,3.58-.2,5.36-.26,9.79.35,19.73.93,29.31h0c.16,2.57.32,5.22.29,8.25a.27.27,0,0,1-.09.21c-7.06,8.71-18.17,12.69-27.06,15.24a237.24,237.24,0,0,1-26.23,5.63Zm-1.7-55.44c.1,1.91.21,3.81.31,5.72.17,3.05.35,6.19.5,9.29.45,9.71.79,18.62,1,27.26.1,4.14.19,8.31.25,12.42a235.58,235.58,0,0,0,25.75-5.56c8.76-2.47,19.69-6.47,26.65-14.89,0-3-.13-5.56-.28-8.08h0c-.58-9.62-1.19-19.58-.93-29.39,0-1.79.12-3.62.2-5.38a126.48,126.48,0,0,0,.05-14.44,17.61,17.61,0,0,1-5.75,8.52c-6.62,5.72-15.68,8.14-23.61,10s-16,3.32-24.14,4.53Z"/><path fill="#acd4f7" d="M86.65,74.39c2,6.13.16,13.54-5,17.33-2.83,2-6.35,3-9.33,4.77s-5.55,5.3-4.57,8.67a14.06,14.06,0,0,1,.81,2.53c.23,2.38-2.23,4-4,5.55-4.09,3.51-5.65,10.28-2.13,14.32,2.78,3.19,7.5,3.66,11.73,3.75,5.73.12,11.67-.12,16.85-2.6a25.62,25.62,0,0,0,11.53-12.05,46.87,46.87,0,0,0,4.14-16.36c.59-6.49.29-13.38-3-19S93.31,71.76,86.65,74.39Z"/><path d="M76.22,131.67H74.1c-4.33-.09-9.14-.62-12-3.87a8.66,8.66,0,0,1-2-6.51,12.39,12.39,0,0,1,4.19-8.35c.25-.22.52-.44.79-.69,1.62-1.36,3.3-2.72,3.12-4.58a5.67,5.67,0,0,0-.45-1.52c-.12-.31-.25-.62-.35-.94-1-3.58,1.7-7.19,4.71-9a34.8,34.8,0,0,1,4.23-2.12,26.52,26.52,0,0,0,5.09-2.73c4.9-3.57,7-10.7,4.92-16.93a.35.35,0,0,1,.2-.43h0a12.69,12.69,0,0,1,10,.35,16.32,16.32,0,0,1,7.37,6.74c2.84,4.84,3.8,10.94,3,19.22a46.73,46.73,0,0,1-4.17,16.54,26,26,0,0,1-11.69,12.21C86.5,131.22,81.31,131.67,76.22,131.67ZM87.08,74.6c2,6.48-.21,13.71-5.29,17.38a26.9,26.9,0,0,1-5.22,2.77,33.43,33.43,0,0,0-4.13,2c-2.79,1.71-5.36,5-4.4,8.24.09.3.2.58.32.88a6.2,6.2,0,0,1,.52,1.75c.21,2.22-1.69,3.8-3.37,5.18l-.78.68a11.86,11.86,0,0,0-3.93,7.85,8,8,0,0,0,1.84,6c2.65,3,7.08,3.55,11.47,3.63,5.65.12,11.59-.12,16.69-2.57a25.22,25.22,0,0,0,11.37-11.89,45.79,45.79,0,0,0,4.09-16.26c.73-8.12-.21-14.1-3-18.8C100.26,76.3,93.61,72.21,87.08,74.6Z"/><path fill="#acd4f7" d="M115.68,50.21c.88,9.29,2,19.23,8,26.32,2,2.3,4.4,4.21,6.19,6.66a25.56,25.56,0,0,1,4,10c1.37,6.67,1.46,13.93-1.7,20S122,123.51,115.43,122c-5.82-1.37-10-6.89-11.38-12.69s-.62-11.91.4-17.8A210.31,210.31,0,0,1,115.68,50.21Z"/><path d="M118.15,122.61a12.06,12.06,0,0,1-2.81-.33c-5.46-1.29-10-6.37-11.64-13-1.46-6-.6-12.13.4-17.94A212,212,0,0,1,115.39,50a.36.36,0,0,1,.38-.22.35.35,0,0,1,.29.32c1,10.31,2.22,19.4,8,26.12A31.31,31.31,0,0,0,126.68,79a31.83,31.83,0,0,1,3.58,3.94,25.33,25.33,0,0,1,4,10.1c1.67,8,1.09,14.82-1.72,20.2C129.55,119,123.72,122.61,118.15,122.61Zm-2.66-70.89a213.21,213.21,0,0,0-10.72,39.81c-1,5.74-1.84,11.82-.41,17.66,1.56,6.32,5.92,11.2,11.13,12.44a11.86,11.86,0,0,0,2.66.3c5.33,0,10.9-3.5,13.75-9,2.73-5.23,3.29-11.87,1.66-19.73a24.77,24.77,0,0,0-3.91-9.84,33.68,33.68,0,0,0-3.51-3.85c-.89-.89-1.83-1.8-2.66-2.78-5.61-6.58-7-15.24-8-25.08Z"/><path fill="#fff" d="M117,100.63a115.2,115.2,0,0,1-3.69-14.86,21.6,21.6,0,0,0-6.57-.11,3.64,3.64,0,0,0-2.6,1.18,3.44,3.44,0,0,0-.48,1.68l-1.31,12.06a1.5,1.5,0,0,0,1,1.84A11.78,11.78,0,0,0,117,100.63Z"/><path d="M108.94,104.2a11.76,11.76,0,0,1-5.74-1.47,1.86,1.86,0,0,1-1.19-2.19l1.32-12.06a3.79,3.79,0,0,1,.54-1.85,4,4,0,0,1,2.83-1.32,22.33,22.33,0,0,1,6.68.11.37.37,0,0,1,.28.28,114.32,114.32,0,0,0,3.72,14.82.34.34,0,0,1-.09.36A12,12,0,0,1,108.94,104.2Zm.73-18.4a21.32,21.32,0,0,0-2.88.19,3.37,3.37,0,0,0-2.36,1,3.19,3.19,0,0,0-.41,1.54l-1.29,12.07a1.63,1.63,0,0,0,0,.76,1.69,1.69,0,0,0,.82.74,11.53,11.53,0,0,0,13.1-1.58,112.18,112.18,0,0,1-3.6-14.45,22.18,22.18,0,0,0-3.36-.28Z"/><path fill="#fff" d="M118.34,51.77c.74,4.48,1.24,9.28,3.67,13.24,1.32,2.15,4.89,14.09-3.64,20.39a19.45,19.45,0,0,1-16.51,3.13c-4.16-1.07-10.45-6.4-11.59-13.23-2.66,1.69-6.13.6-7-2A3.74,3.74,0,0,1,85.66,69a3.41,3.41,0,0,1,2.83.09A41.25,41.25,0,0,0,86.59,59c2.19-4.65,7-8.12,12-10.53a20.45,20.45,0,0,1,5.26-1.85C109.17,45.66,117.58,47.14,118.34,51.77Z"/><path d="M107,89.49a21,21,0,0,1-5.18-.68c-4.09-1-10.36-6.14-11.77-13a5.48,5.48,0,0,1-4.31.31A4.44,4.44,0,0,1,83,73.36a3.89,3.89,0,0,1,.42-3,3.7,3.7,0,0,1,2.2-1.83,3.59,3.59,0,0,1,2.52-.07A40.11,40.11,0,0,0,86.3,59a.39.39,0,0,1,0-.26c2.48-5.23,8-8.7,12.16-10.69a21.06,21.06,0,0,1,5.41-1.83c3.74-.68,9.43-.12,12.59,2.13a5.12,5.12,0,0,1,2.27,3.33h0L119,53.3c.62,4,1.27,8,3.36,11.47,1.61,2.64,4.77,14.56-3.74,20.85A19.39,19.39,0,0,1,107,89.49ZM90.3,74.94h.15a.32.32,0,0,1,.19.26c1.14,6.76,7.43,12,11.35,13a18.9,18.9,0,0,0,16.21-3c8.7-6.43,4.47-18.45,3.56-19.94-2.17-3.53-2.81-7.69-3.45-11.72l-.26-1.69h0a4.5,4.5,0,0,0-2-2.88c-3-2.14-8.46-2.64-12.07-2a19.91,19.91,0,0,0-5.18,1.8C94.8,50.69,89.45,54,87,59a42.26,42.26,0,0,1,1.81,10.1.34.34,0,0,1-.13.3.38.38,0,0,1-.33,0A3.36,3.36,0,0,0,84,70.85a3.23,3.23,0,0,0-.39,2.41,3.68,3.68,0,0,0,2.31,2.31,4.77,4.77,0,0,0,4.14-.49.34.34,0,0,1,.19-.09Z"/><path d="M100.56,74.77a6.19,6.19,0,0,1-3.87-1.36A7.45,7.45,0,0,1,94,68.77h0c-.68-3.88,1.69-7.5,5.2-8.1s6.89,2,7.55,6a7.49,7.49,0,0,1-1,5.27,6.23,6.23,0,0,1-4.18,2.83A5.68,5.68,0,0,1,100.56,74.77Zm-5.88-6.13a6.87,6.87,0,0,0,2.44,4.21,5.38,5.38,0,0,0,7.54-.68,6.45,6.45,0,0,0,.47-.69,6.77,6.77,0,0,0,.92-4.77c-.58-3.49-3.61-5.91-6.74-5.37s-5.21,3.79-4.63,7.28Z"/><path d="M118.12,70.31A6.27,6.27,0,0,1,114.24,69a7.63,7.63,0,0,1-1.66-9.9,6.12,6.12,0,0,1,4.17-2.83c3.51-.6,6.9,2,7.55,6a7.49,7.49,0,0,1-1,5.27,6.12,6.12,0,0,1-4.17,2.83A5.65,5.65,0,0,1,118.12,70.31Zm-.36-13.46a4.91,4.91,0,0,0-.86.07,5.43,5.43,0,0,0-3.7,2.52,7,7,0,0,0,1.51,9,5.37,5.37,0,0,0,7.55-.69,7,7,0,0,0,1.39-5.45A6.29,6.29,0,0,0,117.76,56.85Z"/><circle fill="#acd4f7" cx="86.18" cy="36.33" r="11.49"/><path d="M85.74,48.18A11.87,11.87,0,0,1,73.89,36.33h0A11.85,11.85,0,1,1,85.75,48.19h0Zm0-23A11.14,11.14,0,0,0,74.59,36.31h0a11.14,11.14,0,0,0,11.1,11.18h0A11.15,11.15,0,0,0,96.88,36.38h0a11.17,11.17,0,0,0-11.14-11.2Z"/><path d="M176.61,84.09h-.07a.35.35,0,0,1-.27-.4h0a149.65,149.65,0,0,0,2.51-18.25,6.14,6.14,0,0,0-.16-2.56A2,2,0,0,0,177,61.52h0c-.62,0-1.23.4-1.94,1.27a15.12,15.12,0,0,0-2.52,4.48,2.89,2.89,0,0,0-.24,1.51c.09.4.45.81.85.76a1.44,1.44,0,0,0,.68-.33,9,9,0,0,0,2.5-3,.33.33,0,0,1,.45-.13h0a.36.36,0,0,1,.16.47,9.83,9.83,0,0,1-2.78,3.3,2,2,0,0,1-1,.48,1.56,1.56,0,0,1-1.6-1.31,3.38,3.38,0,0,1,.24-1.91,16.12,16.12,0,0,1,2.63-4.68A3.37,3.37,0,0,1,177,60.85h0a2.66,2.66,0,0,1,2.29,1.84,6.86,6.86,0,0,1,.21,2.85A150.59,150.59,0,0,1,177,83.85.37.37,0,0,1,176.61,84.09Z"/><path d="M170.89,69.72a1.18,1.18,0,0,1-.63-.18,2,2,0,0,1-.84-1.2,6.91,6.91,0,0,1-.11-3.35A13.42,13.42,0,0,1,171,60.42a2.15,2.15,0,0,1,.75-.86,1.75,1.75,0,0,1,1-.24,4,4,0,0,1,3.34,1.86.34.34,0,0,1-.1.47h0a.36.36,0,0,1-.48-.12A3.23,3.23,0,0,0,172.79,60a1.26,1.26,0,0,0-.69.13,1.77,1.77,0,0,0-.51.61A13.32,13.32,0,0,0,170,65.09a6.34,6.34,0,0,0,.09,3,1.38,1.38,0,0,0,.53.82.53.53,0,0,0,.52,0,.69.69,0,0,0,.39-.53.37.37,0,0,1,.43-.3h0a.36.36,0,0,1,.28.39h0A1.47,1.47,0,0,1,170.89,69.72Z"/><path d="M168.66,69.4h0a1.61,1.61,0,0,1-1.32-.92,3.55,3.55,0,0,1-.34-1.39,31.65,31.65,0,0,1-.06-4.77,6.23,6.23,0,0,1,.39-2,2.56,2.56,0,0,1,1.5-1.49,3.58,3.58,0,0,1,3,.88.38.38,0,0,1,0,.49.36.36,0,0,1-.45.06,3,3,0,0,0-2.42-.77,1.93,1.93,0,0,0-1.06,1.16,5.39,5.39,0,0,0-.33,1.78,31.24,31.24,0,0,0,.05,4.64,3.2,3.2,0,0,0,.25,1.15.93.93,0,0,0,.73.54h0a1.15,1.15,0,0,0,.68-.33.75.75,0,0,0,.07-.12.36.36,0,0,1,.28-.39h0a.36.36,0,0,1,.39.28h0a.79.79,0,0,1-.23.68A1.68,1.68,0,0,1,168.66,69.4Z"/><path d="M162.33,66.31h-.1a.32.32,0,0,1-.24-.38h0a42.13,42.13,0,0,0,1.67-11.81V52.55a19.37,19.37,0,0,1,.68-6.82c.29-.83.93-1.57,1.73-1.36a1.63,1.63,0,0,1,.93,1.07,22.15,22.15,0,0,1,1.09,7.27,24.73,24.73,0,0,0,.8,6.35.36.36,0,0,1-.21.44h0a.38.38,0,0,1-.45-.22h0a25.28,25.28,0,0,1-.83-6.54,21.93,21.93,0,0,0-1-7.06,1.22,1.22,0,0,0-.5-.68c-.37-.11-.74.5-.88.91a19.22,19.22,0,0,0-.61,6.58V54a42.75,42.75,0,0,1-1.7,12,.34.34,0,0,1-.38.3h0Z"/><path fill="#acd4f7" d="M89,69.36c1.48-5.19,2.25-8.86,1.56-14.38,12.17,3,21.65-1.06,31.42-4.45a10,10,0,0,0-2.36-4.77c-2.89-3.41-6.05-6.13-12.83-6.95-4.77-.6-10.75-.13-15.07,1.91A22.57,22.57,0,0,0,82,50.22a20.07,20.07,0,0,0-2.36,11.52c.36,3.41,1.9,5.55,4.36,8.35a3.84,3.84,0,0,1,2.3-1.46A4.86,4.86,0,0,1,89,69.36Z"/><path d="M84,70.5h0a.36.36,0,0,1-.25-.11c-2.26-2.63-4-4.93-4.37-8.59a20.47,20.47,0,0,1,2.41-11.71c2.68-4.59,6-7.85,9.85-9.64,4.77-2.24,11-2.47,15.27-1.94A18.57,18.57,0,0,1,120,45.58a10.49,10.49,0,0,1,2.43,4.91.35.35,0,0,1-.23.39l-2.54.91C111,54.85,102,58,91,55.47c.61,5.57-.3,9.34-1.63,14a.38.38,0,0,1-.45.23h0a4.49,4.49,0,0,0-2.55-.63,3.61,3.61,0,0,0-2,1.28l-.08.08A.34.34,0,0,1,84,70.5Zm18.87-31.56a26.47,26.47,0,0,0-11,2.15q-5.55,2.64-9.52,9.36A20,20,0,0,0,80,61.73c.31,3.07,1.53,5,4,7.91a3.74,3.74,0,0,1,2.24-1.29,4.74,4.74,0,0,1,2.56.5c1.29-4.55,2.12-8.29,1.44-13.85a.32.32,0,0,1,.12-.3.39.39,0,0,1,.31-.08c11,2.69,20-.49,28.72-3.56l2.21-.77A9.86,9.86,0,0,0,119.38,46c-2.55-3-5.63-6-12.6-6.82a34.41,34.41,0,0,0-3.93-.25Z"/><path fill="#fff" d="M166.6,69.09a5.48,5.48,0,0,1,1.08-3.58,14.85,14.85,0,0,0,1.47-1.88,1.73,1.73,0,0,0-.28-2.18,1.83,1.83,0,0,0-1.46-.21,6.78,6.78,0,0,0-3.26,2.15,7.34,7.34,0,0,0-1.5,2,6.45,6.45,0,0,0-.51,2.12,2.19,2.19,0,0,0,1.49,2.59,3.14,3.14,0,0,0,1.89.44A1.32,1.32,0,0,0,166.6,69.09Z"/><path d="M107.78,81.48h-.49a6.34,6.34,0,0,1-4-2.1.36.36,0,0,1,0-.49.34.34,0,0,1,.48,0h0a5.66,5.66,0,0,0,3.58,1.87,2.88,2.88,0,0,0,2.78-1.11.35.35,0,0,1,.46-.14h0a.37.37,0,0,1,.14.47h0A3.43,3.43,0,0,1,107.78,81.48Z"/><path d="M100.55,66.09a1.08,1.08,0,0,1,.83-1.28h0a1.08,1.08,0,0,1,1.28.83h0a1.1,1.1,0,0,1-.86,1.29h0a1.08,1.08,0,0,1-1.24-.84h0Z"/><path d="M164.5,84.72a.34.34,0,0,1-.34-.34h0a50.71,50.71,0,0,0-1.65-11.88l-.11-.39c-.55-2-1.17-4.42-.32-6.51a9.49,9.49,0,0,1,2.77-3.36,5.46,5.46,0,0,1,2.45-1.39,2.16,2.16,0,0,1,2.53,1.37c.26,1.07-.53,1.92-1.23,2.67l-.37.41a5.31,5.31,0,0,0-.62,6,.37.37,0,0,1-.13.48h0a.34.34,0,0,1-.47-.11h0a6,6,0,0,1,.68-6.75l.39-.43c.6-.68,1.24-1.32,1.06-2a1.48,1.48,0,0,0-1.73-.87,4.88,4.88,0,0,0-2.09,1.23,8.6,8.6,0,0,0-2.6,3.08c-.77,1.87-.21,4,.35,6.07l.1.4a51.21,51.21,0,0,1,1.67,12,.36.36,0,0,1-.34.36h0Z"/><path d="M116,62.48a1.1,1.1,0,0,1,.82-1.31h0a1.1,1.1,0,0,1,1.31.82h0a1.09,1.09,0,0,1-.79,1.31h-.11A1.07,1.07,0,0,1,116,62.48Z"/><path d="M112.88,73.09a.34.34,0,0,1-.31-.37h0a.36.36,0,0,1,.13-.23l1.24-1c.14-.1.17-.15.18-.17a1.06,1.06,0,0,0-.23-.19,6.73,6.73,0,0,1-2.72-5.21.35.35,0,0,1,.34-.36h0a.37.37,0,0,1,.35.35,6,6,0,0,0,2.46,4.66.82.82,0,0,1,.44,1,.78.78,0,0,1-.39.43l-1.22,1A.33.33,0,0,1,112.88,73.09Z"/><path d="M105.85,64.54a.28.28,0,0,1-.18-.06.33.33,0,0,1-.13-.45h0a5.19,5.19,0,0,1,4.09-2.34A2.26,2.26,0,0,1,112,63a.36.36,0,0,1-.28.41.38.38,0,0,1-.39-.22c-.16-.56-1-.81-1.69-.79a4.46,4.46,0,0,0-3.51,2A.35.35,0,0,1,105.85,64.54Z"/><path d="M89.39,69.24a.35.35,0,0,1-.36-.33h0a.34.34,0,0,1,.26-.35L94.06,67a.38.38,0,0,1,.45.22h0a.38.38,0,0,1-.22.45h0l-4.77,1.59Z"/><path fill="#fff" d="M92.5,151.76c-.77-9.2-1.54-15.77-2.31-25-1.1,6.24-4.5,18.5-5.87,25.18a316.36,316.36,0,0,1,33.27,2.31,16.29,16.29,0,0,0-5,6.55,28.48,28.48,0,0,0-1.6,7.85c-14.11-.48-27.95-.68-41.84-.27a8.06,8.06,0,0,1-4.51-.72,5.32,5.32,0,0,1-2.12-2.73c-1.16-3-.45-6.32.27-9.44,2.21-9.2,6.29-26.73,10.08-35.4a34.83,34.83,0,0,1,6.44-10.37c5.91-6.18,14.69-8.48,23.17-10.48.37,2.12,2.61,3.41,4.71,3.84a9.49,9.49,0,0,0,5.63-.32A7.34,7.34,0,0,0,116.91,98c6.51-.59,10.62-.57,13.49-.16,3.79.56,7.5,3.32,10,6.08,5.25,5.77,8,10.61,13.56,17.32a99.36,99.36,0,0,0,7.3-38.45c1.19,2.73,16.47,2.47,18.09-1.87-1.07,16-2.17,32.28-7,47.61-1.57,4.93-3.58,9.84-7,13.77s-8.29,6.82-13.46,6.65-8.49-1.57-11.83-8a10.56,10.56,0,0,0-1.42,2.9c0,6.81.6,14.82.68,21.54-15.25,2.41-31.25.37-46.58-.62C92.73,160.2,92.81,155.66,92.5,151.76Z"/><path d="M126.18,175.53c-.78,0-1.44-.68-1.85-1.92l-.08-.21a10.8,10.8,0,0,0-1.92-3.94,8.61,8.61,0,0,0-4.24-2.34,29.18,29.18,0,0,0-6.18-.68,10.32,10.32,0,0,1-1.36-.06.35.35,0,0,1-.32-.38h0a.35.35,0,0,1,.38-.31,9.72,9.72,0,0,1,1.32.06,28.81,28.81,0,0,1,6.34.73,9.34,9.34,0,0,1,4.57,2.53,11.23,11.23,0,0,1,2,4.18l.08.22c.15.46.58,1.51,1.25,1.44a.58.58,0,0,0,.45-.25,2.58,2.58,0,0,0,.31-1.72,16.63,16.63,0,0,0-2-6.13.36.36,0,0,1,.12-.48h0a.37.37,0,0,1,.48.13h0a17,17,0,0,1,2.17,6.38,3.1,3.1,0,0,1-.46,2.24,1.29,1.29,0,0,1-.92.5Z"/><path d="M108.64,212.55a3,3,0,1,1,.37-6h0a3,3,0,0,1,2.8,3A3.1,3.1,0,0,1,108.64,212.55Zm0-5.26a2.29,2.29,0,0,0-2.09,2.47h0a2.29,2.29,0,1,0,4.58-.19h0a2.38,2.38,0,0,0-2.48-2.28h0Z"/><path d="M117.08,191.73a3,3,0,1,1,.37-6h0a3,3,0,0,1,2.8,3A3.1,3.1,0,0,1,117.08,191.73Zm0-5.27a2.31,2.31,0,0,0-2.1,2.48h0a2.29,2.29,0,0,0,4.58-.17h0a2.38,2.38,0,0,0-2.48-2.25Z"/><path fill="#acd4f7" d="M128.63,199a2.83,2.83,0,0,1,2.62-3h0a2.84,2.84,0,0,1,.41,5.66h-.22a2.72,2.72,0,0,1-2.81-2.63h0Z"/><path d="M131.47,202a3,3,0,1,1,.37-6h0a3,3,0,0,1,2.79,3,3.07,3.07,0,0,1-3.14,3h0Zm0-5.27a2.29,2.29,0,0,0-2.1,2.47h0a2.29,2.29,0,0,0,2.47,2.1h0A2.29,2.29,0,0,0,134,199a2.38,2.38,0,0,0-2.49-2.28h0Z"/><path d="M141,188a3,3,0,1,1,3.17-3A3.1,3.1,0,0,1,141,188Zm0-5.27a2.29,2.29,0,0,0-2.11,2.46h0a2.29,2.29,0,0,0,2.45,2.11h0a2.29,2.29,0,0,0,2.12-2.3,2.38,2.38,0,0,0-2.46-2.31Z"/><path d="M129.24,176.74a1.65,1.65,0,0,1-1-.34c-.27-.21-.92-.9-1.24-3a.37.37,0,0,1,.3-.4h0a.36.36,0,0,1,.39.3h0a4.52,4.52,0,0,0,1,2.55.78.78,0,0,0,.84.12,1.39,1.39,0,0,0,.39-.88,16.51,16.51,0,0,0-1.47-10,.36.36,0,0,1,.16-.47.44.44,0,0,1,.32,0,7.93,7.93,0,0,1,3.41,4.09,18.45,18.45,0,0,1,1.11,5.14,2.57,2.57,0,0,0,.21.94.65.65,0,0,0,.54.34c.28,0,.46-.47.55-.81a11.36,11.36,0,0,0-2.28-10.67.37.37,0,0,1,0-.5h0a.34.34,0,0,1,.48,0h0a12.1,12.1,0,0,1,2.45,11.31c-.22.78-.59,1.22-1.1,1.31a1.28,1.28,0,0,1-1.26-.68,3.12,3.12,0,0,1-.3-1.2,17.51,17.51,0,0,0-1.06-5,8,8,0,0,0-2.14-3,17,17,0,0,1,1,9.33,1.88,1.88,0,0,1-.68,1.37A1.32,1.32,0,0,1,129.24,176.74Z"/><path d="M87.84,208.64h0l-6.89-.1a.34.34,0,0,1-.34-.34h0l.73-24.35a.35.35,0,0,1,.35-.34h6.72a.36.36,0,0,1,.26.11.38.38,0,0,1,.09.25l-.56,24.5a.36.36,0,0,1-.36.34h0Zm-6.5-.82,6.19.12L88,184.15H82Z"/><path d="M75.81,207.59h0l-6.73-.36a.33.33,0,0,1-.33-.33h0l.69-11.49a.35.35,0,0,1,.36-.33h0l6.36.33a.34.34,0,0,1,.32.36h0l-.34,11.52a.33.33,0,0,1-.11.25A.34.34,0,0,1,75.81,207.59Zm-6.35-1,6,.32.34-10.82-5.67-.3Z"/><path d="M139.73,173.4h-.11a1.34,1.34,0,0,1-.91-.68h0l-1.08-1.53a42.31,42.31,0,0,0-3.06-4,.38.38,0,0,1,0-.49.36.36,0,0,1,.49,0,44,44,0,0,1,3.11,4.09l1.07,1.52v.06c.07.11.23.34.41.37a.63.63,0,0,0,.43-.21,2.53,2.53,0,0,0,.23-1.46c-.73-4.16-3.6-7.29-7.67-10.73a13,13,0,0,0-3.85-2.4,19,19,0,0,0-4.28-.85c-1.63-.2-3.3-.35-4.9-.5s-3.3-.3-4.93-.5a.34.34,0,0,1-.4-.27h0a.34.34,0,0,1,.26-.4h.25c1.63.2,3.29.36,4.9.51s3.3.3,4.93.49a19.69,19.69,0,0,1,4.43.9,13.94,13.94,0,0,1,4.09,2.49c4.2,3.54,7.14,6.82,7.9,11.15a2.91,2.91,0,0,1-.43,2.11A1.3,1.3,0,0,1,139.73,173.4Z"/><path d="M52.77,205h0l-6.72-.18a.36.36,0,0,1-.34-.36V199a.37.37,0,0,1,.35-.35H52.8a.36.36,0,0,1,.37.33h0v5.59a.33.33,0,0,1-.11.25A.33.33,0,0,1,52.77,205Zm-6.38-.87,6,.16V199.4h-6Z"/><path d="M136.18,146.74a.37.37,0,0,1-.35-.36h0a.32.32,0,0,1,.07-.19h0c2.6-3.41,5.2-6.9,7.71-10.39a1.91,1.91,0,0,0,.34-2.41l-7.14-17.3a.36.36,0,0,1,.19-.46.33.33,0,0,1,.42.15h0l7.15,17.31a2.56,2.56,0,0,1-.43,3.09c-2.51,3.48-5.11,7-7.72,10.4A.31.31,0,0,1,136.18,146.74Z"/><polygon fill="#acd4f7" points="58.47 191.97 58.08 205.59 64.81 206.04 65.32 192.23 58.47 191.97"/><path d="M64.37,206.39h0l-6.73-.45a.34.34,0,0,1-.32-.35L57.71,192a.3.3,0,0,1,.1-.25.41.41,0,0,1,.26-.09l6.81.26a.34.34,0,0,1,.34.34h0l-.53,13.85a.33.33,0,0,1-.12.24A.45.45,0,0,1,64.37,206.39ZM58,205.27l6,.41.48-13.12-6.13-.23Z"/><path d="M174.93,197.63h-.11a.34.34,0,0,1-.23-.42h0l5.84-18.36a.37.37,0,0,1,.26-.24.34.34,0,0,1,.33.1,52,52,0,0,0,6.35,5.88,151.21,151.21,0,0,0,5.8-15.41.35.35,0,0,1,.28-.24.3.3,0,0,1,.33.13c2.95,4.09,5.95,8.53,9.41,14l7.25-20.45a.36.36,0,0,1,.48-.18h0a.35.35,0,0,1,.2.41h0L203.62,184a.35.35,0,0,1-.28.24A.38.38,0,0,1,203,184c-3.45-5.45-6.45-9.88-9.36-13.95a150,150,0,0,1-5.78,15.21.34.34,0,0,1-.22.2.4.4,0,0,1-.3-.06,49.34,49.34,0,0,1-6.38-5.79l-5.62,17.77A.35.35,0,0,1,174.93,197.63Z"/><path d="M185.6,194.32h-.12a3.57,3.57,0,0,1-.85-.48l-1.54-1.11a.34.34,0,0,1-.1-.46h0a.34.34,0,0,1,.47-.08h0l1.55,1.1a2.68,2.68,0,0,0,.68.38.31.31,0,0,1,.28.34h0a.36.36,0,0,1-.39.28h0Zm2.05-1.54a.36.36,0,0,1-.2-.06.34.34,0,0,1-.1-.47h0l1.56-2.31a.34.34,0,0,1,.47-.1h0a.35.35,0,0,1,.09.49h0l-1.56,2.29a.35.35,0,0,1-.26.16Zm-6.6-1.61a.31.31,0,0,1-.2-.07l-2.26-1.61a.34.34,0,0,1-.1-.46h0a.35.35,0,0,1,.49-.09h0l2.26,1.62a.34.34,0,0,1,.09.46h0a.35.35,0,0,1-.28.15Zm19.47-1.83a.35.35,0,0,1-.22-.08c-.68-.6-1.41-1.19-2.14-1.77a.33.33,0,0,1,0-.47h0a.33.33,0,0,1,.45-.07h0c.73.59,1.45,1.19,2.14,1.78a.34.34,0,0,1,0,.48h0a.32.32,0,0,1-.26.12Zm-9.75-1.16a.33.33,0,0,1-.19-.06.34.34,0,0,1-.1-.47h0l1.57-2.27a.36.36,0,0,1,.47-.17.35.35,0,0,1,.16.47h0a.22.22,0,0,1-.05.08h0L191,188.1a.32.32,0,0,1-.3.12Zm-14.23-.24a.36.36,0,0,1-.2-.06l-2.23-1.6a.34.34,0,0,1-.1-.46h0a.35.35,0,0,1,.49-.09h0l2.26,1.62a.34.34,0,0,1,.1.46h0a.34.34,0,0,1-.32.13Zm19.69-2.1a.39.39,0,0,1-.21-.08c-.73-.56-1.47-1.13-2.21-1.68a.36.36,0,0,1-.07-.49.34.34,0,0,1,.47-.08h0l2.21,1.69a.35.35,0,0,1,.08.49h0a.37.37,0,0,1-.29.14Z"/><path d="M58.91,175h0a47.75,47.75,0,0,1-14.61-2.38.38.38,0,0,1-.23-.45h0a.38.38,0,0,1,.45-.23h0a46.4,46.4,0,0,0,14.36,2.35.34.34,0,0,1,.4.26h0a.34.34,0,0,1-.27.4h-.13Z"/><path d="M52.29,179.46h0a46.52,46.52,0,0,1-7.69-1.25.35.35,0,0,1,.17-.68h0a45,45,0,0,0,7.56,1.24.32.32,0,0,1,.28.36h0a.34.34,0,0,1-.27.28Z"/><path d="M49.56,185.24h0a24.88,24.88,0,0,1-6.13-1.39.35.35,0,0,1-.22-.42h0a.35.35,0,0,1,.45-.21h0a23.86,23.86,0,0,0,5.9,1.3.33.33,0,0,1,.27.38h0a.34.34,0,0,1-.27.28Z"/><path d="M205.17,136.72H205a24.3,24.3,0,0,0-10.41-2.25h0a.35.35,0,0,1-.35-.34h0a.35.35,0,0,1,.34-.35h0a24.72,24.72,0,0,1,10.7,2.3.36.36,0,0,1,.28.39h0a.34.34,0,0,1-.4.27h0Z"/><path d="M137.55,164.5a.36.36,0,0,1-.28-.39h0a.37.37,0,0,1,.28-.28h1.3a68.08,68.08,0,0,1-.43-9.89c0-3.18,0-6.47-.27-9.94a.35.35,0,0,1,.32-.37h0a.35.35,0,0,1,.38.3h0c.29,3.5.28,6.81.27,10a66.37,66.37,0,0,0,.48,10.16.29.29,0,0,1-.07.27.3.3,0,0,1-.26.13h-1.72Z"/><path d="M201,140.41h-.1a16.86,16.86,0,0,0-6.36-.55.35.35,0,0,1-.38-.31h0a.36.36,0,0,1,.3-.39,18.09,18.09,0,0,1,6.63.58.36.36,0,0,1,.3.39h0a.35.35,0,0,1-.38.29h0Z"/><path d="M205,146.62h-.15a17.36,17.36,0,0,0-9.54-1.7.34.34,0,0,1-.44-.19h0a.35.35,0,0,1,.2-.43h.17a17.91,17.91,0,0,1,9.9,1.76.35.35,0,0,1,.16.46A.37.37,0,0,1,205,146.62Z"/><path d="M109.48,207.34h-.13a.35.35,0,0,1-.19-.46h0l6.37-15.48a.33.33,0,0,1,.36-.27h0a.34.34,0,0,1,.27.4h0v.11l-6.37,15.52A.32.32,0,0,1,109.48,207.34Z"/><path d="M129.23,197.54a.37.37,0,0,1-.2-.07l-9.62-7.1a.34.34,0,0,1-.1-.46h0a.35.35,0,0,1,.49-.06h0l9.62,7.13a.37.37,0,0,1,.08.49A.42.42,0,0,1,129.23,197.54Z"/><path d="M133.19,197a.31.31,0,0,1-.2-.07.34.34,0,0,1-.09-.46h0l6.49-9.15a.35.35,0,0,1,.49-.08h0a.34.34,0,0,1,.12.41h0l-.05.06-6.49,9.16A.37.37,0,0,1,133.19,197Z"/><path d="M111,169h0c-16.93-.58-29.82-.69-41.81-.27a8.49,8.49,0,0,1-4.71-.77,5.9,5.9,0,0,1-2.26-2.88c-1.23-3.19-.4-6.77.26-9.65,1.67-7.22,6.1-26.4,10.08-35.52a34.73,34.73,0,0,1,6.49-10.47c5.8-6.06,14-8.38,23.36-10.57a.34.34,0,0,1,.28,0,.44.44,0,0,1,.15.23c.34,2,2.51,3.13,4.43,3.55a9.22,9.22,0,0,0,5.45-.3,7.14,7.14,0,0,0,3.91-4.59.37.37,0,0,1,.3-.24c6.13-.55,10.45-.6,13.57-.15,4.73.69,8.72,4.56,10.22,6.19a100.08,100.08,0,0,1,7.46,9.34c1.72,2.35,3.51,4.77,5.77,7.53A98.3,98.3,0,0,0,161,82.73a.36.36,0,0,1,.34-.36h0a.35.35,0,0,1,.35.25c.32,1,2.82,1.63,6.26,1.63h.1c4.9,0,10.37-1.37,11.06-3.49a.34.34,0,0,1,.41-.25h0a.35.35,0,0,1,.25.37c-1,15.85-2.15,32.24-7.07,47.71-1.36,4.23-3.35,9.62-7,13.89s-8.86,6.92-13.73,6.77c-5.12-.14-8.7-1.54-11.84-8.26a.35.35,0,1,1,.64-.3h0c3,6.43,6.25,7.72,11.22,7.86,4.63.13,9.54-2.31,13.19-6.53s5.45-9.54,6.81-13.67c4.77-14.95,5.92-30.82,6.95-46.21-2,2-7.38,2.78-11,2.8-1.22,0-4.77-.09-6.34-1.23a99.6,99.6,0,0,1-7.37,37.57.36.36,0,0,1-.27.21.35.35,0,0,1-.32-.11c-2.46-3-4.35-5.53-6.18-8a104.72,104.72,0,0,0-7.4-9.27c-1.45-1.58-5.3-5.32-9.8-6-3-.45-7.22-.4-13.19.13a7.68,7.68,0,0,1-4.23,4.77,9.79,9.79,0,0,1-5.84.34c-2-.44-4.31-1.65-4.89-3.75C93,101.76,85,104.05,79.45,109.9a34.26,34.26,0,0,0-6.37,10.27c-4,9.06-8.37,28.2-10,35.4-.64,2.78-1.44,6.25-.29,9.24a5.18,5.18,0,0,0,2,2.54c1.27.76,2.9.68,4.33.68,11.88-.38,24.65-.31,41.33.25-.61-2,.1-5.31,1.08-7.75l.08-.19c.85-2.11,1.88-4.66,4.45-5.89-10.33-1.28-18.36-1.71-31.8-2.14a.3.3,0,0,1-.26-.13.35.35,0,0,1-.07-.28c.61-2.93,1.59-6.82,2.61-11,1.3-5.24,2.64-10.67,3.27-14.16a.33.33,0,0,1,.38-.27h0a.34.34,0,0,1,.27.27c.39,4.6.78,8.61,1.16,12.48s.77,7.89,1.16,12.49a.31.31,0,0,1,0,.19c9.29.39,16.16.9,24.81,2a.35.35,0,0,1,.27.4h0a.37.37,0,0,1-.27.27c-3.28.8-4.39,3.55-5.37,6l-.09.2c-1,2.61-1.7,6.09-.9,7.69a.35.35,0,0,1-.14.47H111ZM84.72,151.62l7.46.27a.17.17,0,0,1,0-.1c-.39-4.6-.79-8.6-1.17-12.48-.31-3.18-.63-6.44-1-10-.68,3.34-1.77,7.62-2.8,11.79-1,4-1.93,7.73-2.54,10.56Z"/><path d="M118.41,156.29h-.06a.35.35,0,0,1-.29-.38h0a1.57,1.57,0,0,0-.28-1.11c-.1-.15-.23-.23-.29-.21a.35.35,0,0,1-.41-.26h0a.35.35,0,0,1,.22-.4,1,1,0,0,1,1,.48,2.19,2.19,0,0,1,.4,1.61A.35.35,0,0,1,118.41,156.29Z"/><path d="M111.82,169.3a1.36,1.36,0,0,1-1.29-.76.35.35,0,0,1,.08-.49h0a.35.35,0,0,1,.48.07h0v.08a.09.09,0,0,1,0,.07.73.73,0,0,0,.76.32,2.76,2.76,0,0,0,1.54-1,14.14,14.14,0,0,0,1.37-1.52.36.36,0,0,1,.47-.17.35.35,0,0,1,.16.47h0a.16.16,0,0,1-.06.08,14.28,14.28,0,0,1-1.41,1.6,3.51,3.51,0,0,1-2,1.15Z"/><path d="M161.24,83a.35.35,0,0,1-.35-.31,1.14,1.14,0,0,1,.27-.81,2.16,2.16,0,0,1,.54-.46,6,6,0,0,1,2.59-.88.37.37,0,0,1,.44.24.35.35,0,0,1-.23.43h-.14a5.49,5.49,0,0,0-2.29.79,1.35,1.35,0,0,0-.37.3.38.38,0,0,0-.11.3.35.35,0,0,1-.31.38h0Z"/><path d="M179.34,81.31h0A.35.35,0,0,1,179,81h0a.27.27,0,0,0-.11-.18,1.22,1.22,0,0,0-.36-.18,3.48,3.48,0,0,0-1.2-.16.35.35,0,0,1-.28-.4h0a.35.35,0,0,1,.28-.27,4.09,4.09,0,0,1,1.43.2,1.69,1.69,0,0,1,.6.3,1,1,0,0,1,.35.74A.34.34,0,0,1,179.34,81.31Z"/><path d="M107.93,107a8.58,8.58,0,0,1-7.4-4.38.33.33,0,0,1,.12-.45h0a.35.35,0,0,1,.47.14h0a7.87,7.87,0,0,0,7.39,4,.35.35,0,0,1,.37.32.34.34,0,0,1-.31.37h-.64Z"/><path d="M100.78,107.41h-.1A4.42,4.42,0,0,1,98,104.18a.35.35,0,0,1,.17-.46h0a.37.37,0,0,1,.47.2v.17a3.68,3.68,0,0,0,2.26,2.76.33.33,0,0,1,.2.41h0a.32.32,0,0,1-.32.21Z"/><path d="M82.52,45.67h-.13a.35.35,0,0,1-.19-.45h0a10.1,10.1,0,0,1,3-3.79,23.93,23.93,0,0,1,4.09-2.52.35.35,0,0,1,.47.15h0a.35.35,0,0,1-.14.47h0A23.67,23.67,0,0,0,85.68,42a9.4,9.4,0,0,0-2.81,3.53A.35.35,0,0,1,82.52,45.67Z"/><path d="M152,124.73a.33.33,0,0,1-.35-.31h0a.29.29,0,0,1,.07-.22,13.86,13.86,0,0,0,2.33-4.16.37.37,0,0,1,.47-.2h0a.37.37,0,0,1,.21.44,15.11,15.11,0,0,1-2.44,4.34A.34.34,0,0,1,152,124.73Z"/><path d="M79.27,152.7a.35.35,0,0,1-.31-.38.37.37,0,0,1,.26-.3,33.7,33.7,0,0,1,6.58-.35.34.34,0,0,1,.34.34h0a.33.33,0,0,1-.33.33h0a33.36,33.36,0,0,0-6.47.35Z"/><path d="M89.52,73.09a.35.35,0,0,1-.33-.24,10.45,10.45,0,0,1-.42-4.16.38.38,0,0,1,.37-.31h0a.35.35,0,0,1,.31.38,9.6,9.6,0,0,0,.39,3.88.35.35,0,0,1-.23.44h-.09Z"/><g opacity=".13"><path d="M117.68,52.63a1,1,0,0,0-1.06-.2,5,5,0,0,0-.91.34c-1,.37-2,.79-3,1.09a57,57,0,0,1-5.91,1.55,39.37,39.37,0,0,1-7.5.79A23.51,23.51,0,0,1,92,55c-.46-.1-1-.41-1.43-.15a.77.77,0,0,0-.22,1,.87.87,0,0,0,.4.31A29.77,29.77,0,0,0,100,57.85a44.25,44.25,0,0,0,5.51-.4c1.45-.22,2.86-.6,4.3-.9,2.16-.56,4.32-1.07,6.41-1.84l1-.41a1.17,1.17,0,0,0,.52-.36A1,1,0,0,0,117.68,52.63Z"/></g><g opacity=".13"><path d="M115.34,94c-.1-.38-.21-.75-.32-1.14a13.46,13.46,0,0,1-.6-2.15c-.19-.68-.37-1.36-.56-2a.26.26,0,0,1,0-.21l-.06-.16a.26.26,0,0,1,.11-.34c-.47-.34-1.09.13-1.61.36a7.21,7.21,0,0,1-1.56.54c-.64.17-2.69.26-3.28.39a.64.64,0,0,0-.43.34l-1-.43c-.24-.1-.47-.2-.69-.31a11.19,11.19,0,0,1-1.64-.06V89a1,1,0,0,1,0,.24v.18c-.07.23-.15.44-.22.68l.16.12c2,1,4.13,2,6.13,3.06,1,.56,2,1.1,3,1.64a6.07,6.07,0,0,0,1.37.56h.32a.66.66,0,0,0,.28,0,.91.91,0,0,0,.68-.68.43.43,0,0,0,.14-.23A3.81,3.81,0,0,0,115.34,94Z"/></g><g opacity=".13"><path d="M159.43,145.85a.9.9,0,0,0-.6.12,9.84,9.84,0,0,1-3.88.49,14.07,14.07,0,0,1-5.46-1.19,4.66,4.66,0,0,1-.85-.46c-.13-.1-.8-.56-1-.68a7.57,7.57,0,0,1-1.37-1.28h0a25.41,25.41,0,0,1-2.1-4v-.11a4,4,0,0,0-.4-1,1,1,0,0,0-.38-.32l-.34.36a.31.31,0,0,1-.11.2l-.41.38a32.41,32.41,0,0,0-2,2.66.77.77,0,0,0,.11.3,13,13,0,0,0,1.2,1.64c.95,2.1,2.31,4.09,4.61,4.78a29.72,29.72,0,0,0,4.77.81,21.14,21.14,0,0,0,2.87-.14h2.14a4.06,4.06,0,0,0,1.3-.1.83.83,0,0,0,.53-.84,7.4,7.4,0,0,0,1.05-.29c.24-.12.55-.16.68-.38a.56.56,0,0,0,0-.79h0A.62.62,0,0,0,159.43,145.85Z"/></g><g opacity=".13"><path d="M179.32,80.85a.78.78,0,0,0-.53-.54h-.16a.68.68,0,0,0-.89-.35.34.34,0,0,0-.16.1,9.55,9.55,0,0,1-.91,1,3.07,3.07,0,0,1-.26.25,18.8,18.8,0,0,1-1.8.57,13.3,13.3,0,0,1-2.48.72c-1,.15-1,.14-2.24.26a17.7,17.7,0,0,1-3,.26,9.6,9.6,0,0,1-2.27-.28h0a.85.85,0,0,0-.21-.73h0a.84.84,0,0,0,0-1.19h0a.84.84,0,0,0-1.19,0h0a5.15,5.15,0,0,1-.77.55,1.56,1.56,0,0,0-.6.51h-.1a.72.72,0,0,0-.68.76h0a.74.74,0,0,0,.37.55,11.6,11.6,0,0,0,5.15,1.37c.61,0,1.22-.1,1.83-.09s1.18,0,1.75,0c1.23-.14,2.42-.37,3.62-.61h0a8.46,8.46,0,0,0,1.65-.33c1.56-.55,3.17-1.17,3.59-1.9a2.07,2.07,0,0,0,.19-.32h0A.69.69,0,0,0,179.32,80.85Z"/></g><g opacity=".13"><path d="M177.26,67.26a.68.68,0,0,0-.79-.55h0c-.42.11-.51.58-.73.9a4.94,4.94,0,0,1-.3.49c-.11.15-.13.11-.34.26h0a7.78,7.78,0,0,1-.8.58,1.87,1.87,0,0,1-.39.22,4,4,0,0,1-1.19.18c-.88,0-1.13-.24-2.42-.26-.28,0-.58.06-.87.06a2.74,2.74,0,0,1-.91-.44h0c-.3-.23-.47-.62-.82-.76a.93.93,0,0,0-1.21.48h0a.92.92,0,0,0,.19,1,4.15,4.15,0,0,0,2.62,1.65h.31a6,6,0,0,1,1.79.14c.62.08.34.09,1.26.19a3.49,3.49,0,0,0,1.44-.4,5.62,5.62,0,0,0,1.5-1,1.09,1.09,0,0,0,.17-.13l.16-.19h0a2,2,0,0,0,.54-.69,6.87,6.87,0,0,0,.51-.81C177.09,67.85,177.31,67.57,177.26,67.26Z"/></g><g opacity=".13"><path d="M168.46,58.68a.73.73,0,0,0-.9-.51h0l-.17.07c-.4.28-.51.91-.85,1.29a40.45,40.45,0,0,0-3.41,3.64.69.69,0,0,0,0,1l0,0h.11a.68.68,0,0,0,1,0l0,0h0a36.47,36.47,0,0,1,3-3.09,5,5,0,0,0,1.07-1.46A1,1,0,0,0,168.46,58.68Z"/></g><g opacity=".13"><path d="M118.8,155.09a1.1,1.1,0,0,0-.94-.43,10.48,10.48,0,0,0-1.77-.06,1.08,1.08,0,0,0-.8.28.83.83,0,0,0-.22.88,6.83,6.83,0,0,0-.79.73,15.16,15.16,0,0,0-2.82,4.81,18,18,0,0,0-.62,2.61,7.64,7.64,0,0,0,0,4.24c.68,1.14,1.91.56,2.73-.12l.36-.28c.45-.31.79-.77.5-1.32a1,1,0,0,0-1-.39.91.91,0,0,0-1.17.51v-.13a7,7,0,0,1,.28-2.4,13.33,13.33,0,0,1,1.55-4.22,10.73,10.73,0,0,1,2-2.73c.57-.48.3-.33.9-.58.25-.1.53-.13.76-.24h.36a.76.76,0,0,0,.74-.76h0a.77.77,0,0,0-.11-.39Z"/></g><g opacity=".13"><path d="M87.89,133.66c-.62,0-.68.68-.83,1.17-.28,1-.49,1.91-.78,2.86a46.29,46.29,0,0,1-2.38,6.46c-.22.62-1.7,3.55-2.47,4.95-.22.43-.45.85-.68,1.27a2,2,0,0,0-.39.87,1.19,1.19,0,0,0,.19.88,14.1,14.1,0,0,1,2.83-.22l.17-.14a7,7,0,0,0,2-3.95c.1-.38.17-.77.25-1.15a.83.83,0,0,0,0-.69.75.75,0,0,0-.25-.25c.68-1.92,1.29-3.86,1.92-5.79a39.55,39.55,0,0,0,.94-4.32,7.13,7.13,0,0,0,.23-1.37.63.63,0,0,0-.67-.59h-.08Z"/></g><g opacity=".13"><path d="M121,168.14a13,13,0,0,0-4-1.41h-.38a2.28,2.28,0,0,0-1.27.35c-.77.6-1.62,1.66-1.85,1.7h0l-.33.18a3.9,3.9,0,0,1-.69.19,23.83,23.83,0,0,1-3.58-.23c-1.25-.13-2.51-.14-3.76-.22-1.42-.1-2.83-.25-4.24-.38-2.53-.29-5.07-.2-7.62-.32-2-.15-4,0-6-.07-3.46,0-7,.15-10.5.36-2.32.2-7.35.4-9.35-.24-.55-.11-1.11-.54-1.65-.26a.76.76,0,0,0-.23,1.05h0a.81.81,0,0,0,.41.32,18.63,18.63,0,0,0,4.89,1.09,36.12,36.12,0,0,0,6.24.12c2-.14,3.92-.12,5.88-.23a55.52,55.52,0,0,1,6.32,0c1.26,0,2.52,0,3.78.05,1.78.09,3.57,0,5.34.1,2.46.15,4.9.43,7.36.55a30.06,30.06,0,0,1,3.55.21,9.9,9.9,0,0,0,4.77-.33,6.55,6.55,0,0,0,2.37-2h.07a9.19,9.19,0,0,1,1.47.33,10.84,10.84,0,0,1,5,2.73,2.32,2.32,0,0,1,.68.84,1.17,1.17,0,0,0,.39.56,1,1,0,0,0,1.4-.2h0a1,1,0,0,0,.19-.58C125.26,170.7,122.5,168.93,121,168.14Z"/></g><g opacity=".13"><path d="M213,200.67l1.88-1.91,1.86-1.9.83-.88v-.81a27.52,27.52,0,0,0-.23-2.87c-.05-.62-.25-3-.47-4.43a.85.85,0,0,0-.09-.38c-.09-1.69-.17-3.37-.16-5.06v-1.07a52.73,52.73,0,0,1-.14-5.62c-.07-1.29-.11-2.58-.13-3.86-.06-2.79-.08-5.59,0-8.38v-2.05c-.06-2.19-.17-4.39-.07-6.59l.08-1.61c0-2.17,0-4.34.07-6.5,0-1.36.19-2.73.23-4.09v-3.45a.75.75,0,0,0-1,.38v0h0a27.8,27.8,0,0,0-.92,4.33,54,54,0,0,0-.76,7.5c0,1.46-.15,2.91-.23,4.36s-.06,3-.12,4.48c-.17,5.24-.44,10.48-.34,15.73.11,3.19.25,6.39.36,9.59V193a34.26,34.26,0,0,1-1.36,7.24c-.1.31-.14.42-.39,1.08a1.64,1.64,0,0,0-.2.65A13.29,13.29,0,0,1,213,200.67Z"/></g><path d="M1402.94,183.75A170.57,170.57,0,0,0,1381.25,152a.28.28,0,0,1,0-.4h0a.28.28,0,0,1,.4,0h0a171.46,171.46,0,0,1,21.78,31.81.35.35,0,0,1-.13.42.2.2,0,0,1-.15,0A.39.39,0,0,1,1402.94,183.75Z"/><path d="M1410.65,177.73a182,182,0,0,0-21.83-26,.3.3,0,0,1,0-.41h0a.31.31,0,0,1,.42,0h0a182.93,182.93,0,0,1,21.89,26.06.29.29,0,0,1-.06.41h0a.27.27,0,0,1-.17.06A.28.28,0,0,1,1410.65,177.73Z"/><path d="M1449.6,157.09a179.47,179.47,0,0,1-57.36-19.18h0a.3.3,0,0,1,.29-.53h0a178.81,178.81,0,0,0,57.17,19.09h0a.32.32,0,0,1,.25.36h0a.32.32,0,0,1-.31.26Z"/><path d="M1447.48,177.85,1392.78,144h0a.29.29,0,0,1-.1-.4h0a.33.33,0,0,1,.43-.11l54.7,33.88a.32.32,0,0,1,.1.42.29.29,0,0,1-.25.15h0A.31.31,0,0,1,1447.48,177.85Z"/><path d="M1499.3,166.65h-.06a.31.31,0,0,1-.22-.36,25.58,25.58,0,0,0-.76-13.55.06.06,0,0,1,0-.06h0a.31.31,0,0,1,.22-.36h0a.3.3,0,0,1,.36.22h0a26.3,26.3,0,0,1,.78,13.88.31.31,0,0,1-.3.24Z"/><path d="M1505.67,165.34h-.11a.29.29,0,0,1-.21-.34h0l.86-4.5h0a.32.32,0,0,1,.37-.25h0a.33.33,0,0,1,.24.39h0l-.85,4.49a.3.3,0,0,1-.31.25Z"/><path d="M1368.55,16.85a3,3,0,0,1-2.23-1.66.26.26,0,0,1,0-.27,8.53,8.53,0,0,0,2.58-4.07c.09-.34.17-.7.25-1.06a8.21,8.21,0,0,1,.59-2,4.4,4.4,0,0,1,.67-.93,3.41,3.41,0,0,0,.71-1.15,9.94,9.94,0,0,0,.32-3.21,6.31,6.31,0,0,1,0-.87.21.21,0,0,1,0-.11A.9.9,0,0,1,1372,1a.92.92,0,0,1,1.23.43h0a11.65,11.65,0,0,1,.87,4.32c.38-.09.93-.23,1.24-.33l.44-.12a21.55,21.55,0,0,0,2.19-.72,11.22,11.22,0,0,1,3.94-1,2.93,2.93,0,0,1,1.24.18l.17.08a.7.7,0,0,1,.24,1,.69.69,0,0,1-.62.34,11,11,0,0,0-4.07,1.52l-.63.31.76,0c.42,0,4.65.62,6,1.41h0a.79.79,0,0,1,.31.93.74.74,0,0,1-.8.53h0a22.13,22.13,0,0,0-3.72-.47c1.92.41,3.35.8,3.72,1.24h0a1,1,0,0,1,.1,1c-.11.17-.35.35-.87.25-.75-.13-1.5-.32-2.22-.5a11.51,11.51,0,0,0-3.39-.55,4.29,4.29,0,0,0,1.45.64h.06l2.22,1.06a.84.84,0,0,1,.55.75c0,.14-.09.47-.62.57h-.15s-2.55-.67-4.13-1.06a1.45,1.45,0,0,1-.42-.12,6.66,6.66,0,0,0-1.26-.23,5.09,5.09,0,0,0-2.42.62,10.27,10.27,0,0,0-4.65,3.63.38.38,0,0,1-.26.14Zm7.45-5a5.72,5.72,0,0,1,1.37.26l.41.11c1.43.35,3.64.93,4.06,1h0a.18.18,0,0,0-.1-.11h-.08l-2.2-1a4,4,0,0,1-2.12-1.2.28.28,0,0,1-.06-.25.3.3,0,0,1,.17-.22c.93-.45,2.5-.06,4.26.39.73.18,1.46.36,2.18.49h.23A.47.47,0,0,0,1384,11c-.44-.43-3.13-1-4.74-1.35-.93-.2-1.73-.37-2.08-.49A.3.3,0,0,1,1377,9h0a.29.29,0,0,1,.27-.31h0a44.45,44.45,0,0,1,7.28.63h0a.22.22,0,0,0,.13-.08s.06-.14,0-.2h0c-1.18-.71-5.17-1.26-5.82-1.34s-1.31-.12-1.86-.19a.27.27,0,0,1-.24-.19h0a.31.31,0,0,1,.17-.4h0c.46-.19,1-.47,1.6-.77,1.44-.73,3-1.58,4.37-1.58h0a.09.09,0,0,0,.11-.07v0h0a.09.09,0,0,0,0-.12h-.09a2.42,2.42,0,0,0-1-.13,11.19,11.19,0,0,0-3.72.93,18,18,0,0,1-2.24.78l-.41.11a13.68,13.68,0,0,1-1.68.4.25.25,0,0,1-.23-.09.28.28,0,0,1-.1-.21,11.54,11.54,0,0,0-.74-4.43.41.41,0,0,0-.16-.16.31.31,0,0,0-.41.14h0a5,5,0,0,0,0,.77,10.94,10.94,0,0,1-.32,3.37,3.88,3.88,0,0,1-.85,1.4,4.16,4.16,0,0,0-.59.85,7.87,7.87,0,0,0-.54,1.91c-.08.36-.15.73-.25,1.09a9,9,0,0,1-2.6,4.24,2.94,2.94,0,0,0,1.49,1,11.25,11.25,0,0,1,4.77-3.72,5.92,5.92,0,0,1,2.54-.7Z"/><path fill="#acd4f7" d="M1334.5,73.09a2.91,2.91,0,0,1-.82,1.25,31.71,31.71,0,0,1-3.12,2.79c-1.4,1.08-3.13,2.07-4.83,1.66a5.48,5.48,0,0,1-3.45-3.28,2.59,2.59,0,0,1,.32-2.29c.71-1,2.06-1.15,3.26-1.26l6.17-.47a5.93,5.93,0,0,1,2.26.1A2.07,2.07,0,0,1,1334.5,73.09Z"/><path d="M1325.67,79.06a5.8,5.8,0,0,1-3.71-3.49,2.9,2.9,0,0,1,.36-2.57c.79-1.06,2.24-1.25,3.49-1.35l6.18-.49a6.1,6.1,0,0,1,2.37.13.19.19,0,0,1,.14.09,2.33,2.33,0,0,1,.29,1.8,3,3,0,0,1-.93,1.36,29.89,29.89,0,0,1-3.17,2.78,7.45,7.45,0,0,1-4.21,1.86A3.69,3.69,0,0,1,1325.67,79.06Zm8.42-7.28a5.94,5.94,0,0,0-2.06,0l-6.17.48c-1.16.08-2.41.25-3,1.11a2.32,2.32,0,0,0-.27,2,5.22,5.22,0,0,0,3.23,3.08c1.69.39,3.41-.74,4.56-1.61a31.82,31.82,0,0,0,3.13-2.79,2.55,2.55,0,0,0,.75-1.08,2,2,0,0,0-.13-1.18Z"/><path fill="#fff" d="M1335.32,76.65c-5.57-7.67-6.8-18.13-9.45-27.41-.82,2.15-1.44,4.14-2.08,6.11a40.52,40.52,0,0,1-2.43,6.4,40.43,40.43,0,0,1-3.48,5.31l-5,6.84a27.38,27.38,0,0,1-4.73-3.92c9.77-13.34,9.48-22.63,12.77-28.14,5.16-8.69,10.47-6.75,20.72-10,5.41-1.59,14.27-1.43,16-4,3.71-5.32,8.13-11.71,9.37-15.5-.17,0,4.65,1.62,4.65,1.62-1.07,5-4.19,10.54-7.51,17.65-2.5,5.47-14.26,6.77-20,11.15A143.34,143.34,0,0,0,1350,72.41C1345.86,74.42,1340.45,75.6,1335.32,76.65Z"/><path d="M1335.09,76.85c-4.17-5.78-5.95-13.18-7.67-20.34-.5-2.06-1-4.2-1.58-6.25-.67,1.86-1.21,3.54-1.74,5.21a40.94,40.94,0,0,1-2.5,6.5,40.51,40.51,0,0,1-3.51,5.36l-5,6.84a.3.3,0,0,1-.41.08,27.72,27.72,0,0,1-4.78-4,.32.32,0,0,1,0-.39,61.91,61.91,0,0,0,10-20.94,32.73,32.73,0,0,1,2.73-7.21c3.71-6.33,7.58-7.1,13.27-8.27a73.8,73.8,0,0,0,7.6-1.85,50,50,0,0,1,7.08-1.26c3.8-.53,7.76-1.08,8.8-2.55,3.84-5.49,8-11.64,9.29-15.35a.28.28,0,0,1,.08-.15.31.31,0,0,1,.42,0h0c.41.18,3,1,4.57,1.56a.31.31,0,0,1,.21.36c-.77,3.8-2.79,7.91-5.08,12.69-.78,1.61-1.58,3.28-2.41,5.06-1.53,3.32-6.2,5.07-11.15,7-3.2,1.21-6.5,2.46-8.83,4.16a143.76,143.76,0,0,0,5.88,29.39.32.32,0,0,1-.16.36c-4.27,2-9.71,3.19-14.86,4.25h-.06A.29.29,0,0,1,1335.09,76.85Zm14.69-4.57a140.58,140.58,0,0,1-5.87-29.43.31.31,0,0,1,.12-.28c2.39-1.79,5.8-3.08,9.11-4.33,4.82-1.86,9.38-3.54,10.8-6.63.83-1.79,1.64-3.45,2.42-5.07,2.24-4.64,4.17-8.65,5-12.29-2.43-.78-3.58-1.17-4.14-1.4-1.4,3.8-5.57,9.83-9.29,15.22-1.18,1.69-5.09,2.24-9.22,2.79a53.44,53.44,0,0,0-7,1.25,67.13,67.13,0,0,1-7.65,1.86c-5.57,1.11-9.29,1.86-12.9,8a32.64,32.64,0,0,0-2.67,7.07,63.39,63.39,0,0,1-10,20.91,27.65,27.65,0,0,0,4.24,3.54l4.84-6.61a42.71,42.71,0,0,0,3.46-5.27,41.28,41.28,0,0,0,2.39-6.36c.62-2,1.24-4,2.07-6.13a.31.31,0,0,1,.38-.19h0a.31.31,0,0,1,.2.19c.68,2.35,1.25,4.82,1.86,7.2,1.69,7,3.44,14.3,7.43,20,5-1,10.21-2.17,14.32-4Z"/><path fill="#fff" d="M1330.28,28.18l-3.23,1.61c.36,1.86.71,3.72,1.07,5.63a4.79,4.79,0,0,0,.43,1.44,5.47,5.47,0,0,0,2.79,2.08.91.91,0,0,0,.37.21h0a1.51,1.51,0,0,0,1.93-.85,14.8,14.8,0,0,0,1.86-4.06,41.3,41.3,0,0,1-3.67-6.39A2,2,0,0,0,1330.28,28.18Z"/><path d="M1331.14,39.21a5.78,5.78,0,0,1-2.93-2.22,5,5,0,0,1-.45-1.52l-1.08-5.62a.3.3,0,0,1,.15-.28L1330.1,28a2.31,2.31,0,0,1,1.75-.33.29.29,0,0,1,.17.17,40.66,40.66,0,0,0,3.64,6.34.53.53,0,0,1,0,.25,15.42,15.42,0,0,1-1.86,4.14,2.1,2.1,0,0,1-1,.93,1.49,1.49,0,0,1-.47.07A3.11,3.11,0,0,1,1331.14,39.21Zm.4-11.15a2.19,2.19,0,0,0-1.14.33l-3.07,1.51,1,5.39a5.32,5.32,0,0,0,.4,1.36,5.29,5.29,0,0,0,2.64,1.94,1.79,1.79,0,0,0,.38.22,1.23,1.23,0,0,0,1.55-.73,15.49,15.49,0,0,0,1.77-3.83,39.57,39.57,0,0,1-3.56-6.19Z"/><path d="M1404.63,121.57,1366,114.91a.39.39,0,0,1-.19-.12L1355,101.47a.31.31,0,0,1-.06-.29.3.3,0,0,1,.2-.21l23.23-7a.28.28,0,0,1,.3.09l26.18,27a.31.31,0,0,1,.09.22h0a.29.29,0,0,1-.28.3h0Zm-48.82-20.12,10.46,12.91,37.58,6.5-25.46-26.23Z"/><path d="M1368.32,168.73l-35-13.81a.33.33,0,0,1-.18-.26l-2.43-24.15a.21.21,0,0,1,0-.11h0a.29.29,0,0,1,.35-.21h0l16.49,4.85a.37.37,0,0,1,.17.13l20.94,33.06a.43.43,0,0,1,0,.16h0a.31.31,0,0,1-.31.31h0Zm-37-37.83,2.38,23.5,34,13.4-20.43-32.21Z"/><path d="M1370.61,152.16a.3.3,0,0,1-.22-.12c-.5-.72-.93-1.44-1.45-2.2a42.91,42.91,0,0,0-8.61-10.1.29.29,0,0,1,0-.39c1.34-2.09,2.88-4.15,4.48-6.32,2.19-3,4.45-6.09,6.43-9.38a.33.33,0,0,1,.4-.12,52.87,52.87,0,0,0,14.93,5,.3.3,0,0,1,.24.32v.08a58.13,58.13,0,0,1-15.9,23.14.39.39,0,0,1-.21.08ZM1386,129.07a53.1,53.1,0,0,1-14.45-4.87c-2,3.24-4.18,6.27-6.33,9.19-1.53,2.08-3,4.07-4.31,6.08a42.84,42.84,0,0,1,8.5,10c.43.62.83,1.25,1.25,1.86A58.2,58.2,0,0,0,1386,129.08Z"/><path fill="#fff" d="M1375.82,117.46c-6.33-10-48.45-45.07-62.09-54.8-27.3-19.51-63.85-15-63.85-15s7.69,36,35,55.48c13.08,9.29,58.84,38.83,70.09,41.73.93-.41.93,0,1.8-.51a37.55,37.55,0,0,0,9.12-6.87,35.85,35.85,0,0,0,6.89-10A39.14,39.14,0,0,0,1375.82,117.46Z"/><path d="M1354.91,145.16c-11.56-3-57.69-32.84-70.2-41.8-14.15-10.09-22.94-24.69-27.81-35.16a107.34,107.34,0,0,1-7.28-20.43h0a.33.33,0,0,1,.27-.35,107.75,107.75,0,0,1,21.77.22c11.5,1.19,28.13,4.76,42.3,14.86s55.84,44.85,62.18,54.9a.41.41,0,0,1,0,.22,39,39,0,0,1-3.13,10,36.32,36.32,0,0,1-6.93,10.07,38.36,38.36,0,0,1-9.18,6.93,2,2,0,0,1-1,.3,2.1,2.1,0,0,0-.78.21h-.2Zm17.56-17.84a39.76,39.76,0,0,0,3-9.77c-6.5-10.12-47.92-44.63-62-54.63s-30.57-13.52-42-14.77a108.76,108.76,0,0,0-21.27-.25,109.37,109.37,0,0,0,7.18,20.1c4.85,10.39,13.57,24.89,27.61,34.9,13.3,9.49,58.72,38.67,69.9,41.66a2.14,2.14,0,0,1,.93-.21,1.48,1.48,0,0,0,.79-.25,38.84,38.84,0,0,0,9-6.87,35.88,35.88,0,0,0,6.81-9.9Z"/><path d="M1354.89,145.13a36.24,36.24,0,0,1-5.89-2.28.31.31,0,0,1-.18-.4h0a.32.32,0,0,1,.18-.18,27.14,27.14,0,0,0,6.87-3.65h0a41.76,41.76,0,0,0,10.9-11.88,45.68,45.68,0,0,0,4-8.12,41,41,0,0,0,1.37-4.46c.06-.26.12-.52.17-.79a.25.25,0,0,1,.11-.17.3.3,0,0,1,.41,0h0a34.08,34.08,0,0,1,3.36,4.21.37.37,0,0,1,0,.21,39.43,39.43,0,0,1-3.13,10.06,36.32,36.32,0,0,1-6.93,10.07,38.65,38.65,0,0,1-9.18,7,2.1,2.1,0,0,1-1,.31,1.92,1.92,0,0,0-.78.2H1355Zm20.59-27.6a29.84,29.84,0,0,0-2.79-3.55.34.34,0,0,0,0,.2,37.66,37.66,0,0,1-1.37,4.54,46.5,46.5,0,0,1-4,8.21,43.09,43.09,0,0,1-11,12.18h0a29.74,29.74,0,0,1-6.35,3.49,34.3,34.3,0,0,0,5,2,2.47,2.47,0,0,1,.93-.21,1.52,1.52,0,0,0,.78-.24,37.22,37.22,0,0,0,9-6.88,35.7,35.7,0,0,0,6.82-9.9,39.34,39.34,0,0,0,3-9.77Z"/><path d="M1272.23,92.06a104.65,104.65,0,0,1-17.84-29.53,100.76,100.76,0,0,1-4.82-14.87h0a.3.3,0,0,1,.27-.33h0a99.12,99.12,0,0,1,15.79-.27c8.59.46,21.47,2.14,34,7.43a.33.33,0,0,1,.17.18.25.25,0,0,1,0,.24c-1.55,3.13-3,5.81-4.26,8.24h0c-1.92,3.53-3.71,6.64-5.62,9.49a96,96,0,0,1-6.51,8.89,68.11,68.11,0,0,1-7.54,7.84,36.22,36.22,0,0,1-3.33,2.72.26.26,0,0,1-.19.07A.29.29,0,0,1,1272.23,92.06ZM1295,62.93c1.25-2.34,2.62-4.94,4.1-7.92-12.39-5.18-25.08-6.82-33.52-7.27a101,101,0,0,0-15.36.21A101,101,0,0,0,1255,62.33a103.24,103.24,0,0,0,17.5,29.13c1.1-.82,2.13-1.65,3.09-2.5a70.57,70.57,0,0,0,7.49-7.78,91.21,91.21,0,0,0,6.42-8.83c1.86-2.84,3.66-5.93,5.58-9.44Z"/><path d="M1272.24,92.06c-1.36-1.53-2.71-3.18-4-4.91a.31.31,0,0,1,0-.42c1.24-1.25,2.58-2.54,4-4h0c2.12-2.27,4.12-4.64,6.07-7.14s3.71-5.13,5.41-7.71a90.73,90.73,0,0,0,4.65-8.13c1.25-2.53,2.44-5.15,3.48-7.78a.32.32,0,0,1,.38-.19,76.86,76.86,0,0,1,7.51,2.79.46.46,0,0,1,.17.17.36.36,0,0,1,0,.25c-1.56,3.13-3,5.81-4.26,8.24-1.92,3.53-3.71,6.64-5.63,9.49a99.15,99.15,0,0,1-6.5,8.89,71.59,71.59,0,0,1-7.54,7.84c-1.07,1-2.19,1.87-3.34,2.72a.24.24,0,0,1-.35,0A.22.22,0,0,1,1272.24,92.06Zm20-39.66c-1,2.56-2.15,5.1-3.4,7.56a89.24,89.24,0,0,1-4.64,8.19c-1.69,2.62-3.53,5.28-5.46,7.77s-4,4.9-6.1,7.17c-1.32,1.43-2.57,2.71-3.83,3.88,1.2,1.56,2.39,3.06,3.64,4.45,1.09-.81,2.13-1.65,3.08-2.5a68.07,68.07,0,0,0,7.5-7.78,95.41,95.41,0,0,0,6.42-8.82c1.86-2.85,3.66-5.94,5.58-9.45,1.3-2.39,2.6-4.91,4.1-7.92-2.19-.93-4.5-1.75-6.89-2.52Z"/><path d="M1311,105a12.51,12.51,0,1,1,7.31-22.74h0A12.51,12.51,0,0,1,1311,105Zm6.93-22.29a11.92,11.92,0,0,0-16.62,2.79h0A11.91,11.91,0,1,0,1318,82.71Z"/><path d="M1305.76,99.85a9,9,0,0,1,10.49-14.72h0a9.06,9.06,0,0,1-3.71,16.31,8.59,8.59,0,0,1-1.52.13A8.9,8.9,0,0,1,1305.76,99.85Zm10-14.24h0a8.34,8.34,0,0,0-11.64,2h0v.06h0a8.44,8.44,0,1,0,11.79-2h0Z"/><path d="M1335.47,117.52a10.69,10.69,0,1,1,12.33,8.75h0a10.69,10.69,0,0,1-12.33-8.75Zm10.47-11.8a10,10,0,1,0,10,10A10,10,0,0,0,1345.94,105.72Z"/><path d="M1345.91,123.47a7.71,7.71,0,0,1,0-15.42h0a7.8,7.8,0,0,1,4.45,1.43h0a7.71,7.71,0,0,1-3.21,13.93A8.58,8.58,0,0,1,1345.91,123.47Zm4.17-13.5-.1-.06a7,7,0,0,0-9.76,1.64v.07h0a7.1,7.1,0,1,0,9.91-1.66h-.05Z"/><path fill="#fff" d="M1332.48,42.33a2.88,2.88,0,0,0,.59,1.57,24.09,24.09,0,0,0,17.85,11,10.1,10.1,0,0,0,3.87-.25,13.57,13.57,0,0,0,2.88-1.43l5.57-3.46c-2.66-.56-5-2.31-7.71-2.5-2.94-.21-5.69,1.47-8.62,1.72a11.46,11.46,0,0,1-7.32-2.11,24.86,24.86,0,0,1-5.58-5.35C1333,41.17,1332.52,41.76,1332.48,42.33Z"/><path d="M1350.92,55.15A24.56,24.56,0,0,1,1332.86,44a3.28,3.28,0,0,1-.63-1.73,1.26,1.26,0,0,1,.49-1,1.62,1.62,0,0,1,1.45-.16.21.21,0,0,1,.16.11,25.79,25.79,0,0,0,5.51,5.33,11.32,11.32,0,0,0,7.09,2,18.91,18.91,0,0,0,3.72-.84,10.5,10.5,0,0,1,9.42.48,18.67,18.67,0,0,0,3.32,1.16.32.32,0,0,1,.21.15.33.33,0,0,1-.1.42l-5.58,3.45a13,13,0,0,1-3,1.5,8.11,8.11,0,0,1-2.5.33A6.85,6.85,0,0,1,1350.92,55.15Zm8.81-6.39a9.93,9.93,0,0,0-9-.44,19.68,19.68,0,0,1-3.79.88,12,12,0,0,1-7.5-2.16,26.17,26.17,0,0,1-5.58-5.34,1,1,0,0,0-.83.08.62.62,0,0,0-.23.51,2.6,2.6,0,0,0,.53,1.41A24,24,0,0,0,1351,54.52a9.92,9.92,0,0,0,3.72-.23,13.87,13.87,0,0,0,2.79-1.43l4.92-3.08a25.69,25.69,0,0,1-2.7-1Z"/><path d="M1318.66,121.62a.26.26,0,0,1-.13-.22c-.17-1.25.38-2.58,1.62-4.07.19-.19.38-.41.57-.62a6.44,6.44,0,0,0,2.17-3.83,9.52,9.52,0,0,1,.29-1.08,2.94,2.94,0,0,1,1.79-2,.33.33,0,0,1,.39.15c.26.5.52,1,.8,1.51.78,1.45,1.61,2.94,2.38,4.71a.33.33,0,0,1-.12.38l-3.71,2.26a22.26,22.26,0,0,1-5.84,2.79h-.08A.3.3,0,0,1,1318.66,121.62Zm9.2-5.44c-.73-1.63-1.49-3.05-2.24-4.38l-.68-1.25a2.33,2.33,0,0,0-1.18,1.46,8.64,8.64,0,0,0-.26,1,7.13,7.13,0,0,1-2.31,4.1c-.18.19-.37.4-.55.62a5.23,5.23,0,0,0-1.52,3.23,22.92,22.92,0,0,0,5.31-2.65l3.43-2.11Z"/><path fill="#acd4f7" d="M1338.91,73.49a44.09,44.09,0,0,0-5.74.44c-2.28.27-11.53,1.32-14.78,4.85-2.5,2.71-4.81.07,2.86,33.77a17.71,17.71,0,0,0,5.57-.49c-.44-9.21-.93-24.71-.13-25.25a15.59,15.59,0,0,1,4.08-.53c9.85,0,14.78.26,17.75-3.17s2.37-6.57,1.6-10.84C1347.64,74.34,1343,73.54,1338.91,73.49Z"/><path d="M1321.26,112.85a.3.3,0,0,1-.26-.24c-6.92-30.39-5.79-31.38-3.53-33.35a9.73,9.73,0,0,0,.74-.69c2.18-2.37,7.17-4,14.86-4.94h.11a44.55,44.55,0,0,1,5.77-.44c.93,0,1.86,0,2.73.08,3.13.13,6.4.28,8.27-1.24a.3.3,0,0,1,.3-.06.32.32,0,0,1,.19.23c.71,3.91,1.37,7.58-1.67,11.1-2.86,3.28-7.55,3.28-16.08,3.28h-1.85A17.72,17.72,0,0,0,1327,87c-.57,1-.3,13.63.24,25a.31.31,0,0,1-.25.32,24.79,24.79,0,0,1-4.37.57A8.83,8.83,0,0,1,1321.26,112.85Zm5.31-1c-.28-5.48-.47-11.31-.51-15.63-.14-9.19.29-9.47.54-9.64.67-.44,4-.58,4.25-.58h1.86c8.63,0,13,0,15.64-3.08s2.36-5.83,1.62-10.09c-2.07,1.35-5.22,1.2-8.29,1.06-.92,0-1.85-.09-2.69-.09a45.29,45.29,0,0,0-5.7.45h-.1c-9.38,1.1-13.06,3.18-14.5,4.73a6.91,6.91,0,0,1-.78.75c-2,1.66-3.12,2.68,3.72,32.51a17.54,17.54,0,0,0,5-.46Z"/><path fill="#acd4f7" d="M1333.41,10.45a4.17,4.17,0,0,0-3.13,2.5,5.52,5.52,0,0,0,0,3.72,11.47,11.47,0,0,0,2.27,4.08c.54.63.12,1.39.32,2.17.17.62.87.93,1,1.51a2.75,2.75,0,0,0,1.25-1.44,18.34,18.34,0,0,0,1.37-4.64,72.79,72.79,0,0,0,.78-7.8C1336.3,9.9,1334.47,10.27,1333.41,10.45Z"/><path d="M1333.7,24.72a.27.27,0,0,1-.17-.23,1.32,1.32,0,0,0-.42-.62,2.07,2.07,0,0,1-.56-.87,2.8,2.8,0,0,1,0-1,1.27,1.27,0,0,0-.21-1,11.9,11.9,0,0,1-2.3-4.2,5.87,5.87,0,0,1,0-3.88,4.48,4.48,0,0,1,3.34-2.78h.17c1.17-.2,2.93-.5,4,.16a.32.32,0,0,1,.14.27,70.47,70.47,0,0,1-.77,7.81,19.14,19.14,0,0,1-1.4,4.74,3,3,0,0,1-1.38,1.57A.66.66,0,0,1,1333.7,24.72Zm3.23-13.93c-.86-.44-2.35-.18-3.36,0h-.18a3.73,3.73,0,0,0-2.86,2.29,5.19,5.19,0,0,0,0,3.52,11.31,11.31,0,0,0,2.18,4,1.88,1.88,0,0,1,.34,1.47,2.75,2.75,0,0,0,0,.81,1.46,1.46,0,0,0,.42.62,3.06,3.06,0,0,1,.42.53,2.55,2.55,0,0,0,.83-1.09,18.73,18.73,0,0,0,1.34-4.57,68.59,68.59,0,0,0,.77-7.57Z"/><path fill="#fff" d="M1320.91,10.92a7.89,7.89,0,0,1,3.89-1.55c1.4-.09,3.21-1,4.57-.71a12.88,12.88,0,0,1,2.85.81c1.19.66,1.34,3.13,1.7,4.76a15.86,15.86,0,0,1,.43,3.29c.93-.93,1.78-.93,2.5-.32a1.66,1.66,0,0,1,.2,2.32,3.1,3.1,0,0,1-2.64.93c-.08,1.66-.12,5-1.09,6.5a7.43,7.43,0,0,1-5.28,3.12,7.82,7.82,0,0,1-6-1.77,8.18,8.18,0,0,1-2.37-5.88c-.11-2.13.21-4.25,0-6.37C1319.47,14.54,1319.54,11.85,1320.91,10.92Z"/><path d="M1321.76,28.62a8.35,8.35,0,0,1-2.46-6.1V19.73a30,30,0,0,0,0-3.55c-.08-.71-.34-4.33,1.34-5.5a8,8,0,0,1,4.06-1.61,9.26,9.26,0,0,0,1.8-.36,6.69,6.69,0,0,1,2.84-.35h.09a12.88,12.88,0,0,1,2.79.86c1.08.58,1.38,2.33,1.65,3.87.07.39.13.75.21,1.1h0a18.23,18.23,0,0,1,.4,2.65,1.84,1.84,0,0,1,2.43.1,2,2,0,0,1,.3,2.74h0a3.3,3.3,0,0,1-2.57,1.1V21c-.07,1.86-.19,4.64-1.11,6.14a7.63,7.63,0,0,1-5.51,3.28,8.34,8.34,0,0,1-1,0A7.88,7.88,0,0,1,1321.76,28.62Zm12.73-8.5a2.81,2.81,0,0,0,2.36-.83,1.34,1.34,0,0,0-.14-1.86c-.68-.56-1.38-.46-2.12.3a.31.31,0,0,1-.44,0h0a.31.31,0,0,1-.09-.22,14.82,14.82,0,0,0-.41-3.18h0c-.08-.36-.14-.73-.21-1.12-.25-1.4-.52-3-1.34-3.45a13,13,0,0,0-2.68-.74h-.1a5.67,5.67,0,0,0-2.55.35,10.57,10.57,0,0,1-1.94.38,7.36,7.36,0,0,0-3.72,1.49c-1.07.74-1.24,3.12-1.07,4.92a27.63,27.63,0,0,1,0,3.64c0,.87-.08,1.85,0,2.78a7.76,7.76,0,0,0,2.27,5.67,7.57,7.57,0,0,0,5.78,1.7,7,7,0,0,0,5-3c.85-1.33.93-4.14,1-5.83v-.59a.27.27,0,0,1,.09-.21.54.54,0,0,1,.21-.08Z"/><path fill="#acd4f7" d="M1328.48,13.11a3.56,3.56,0,0,0,2-2.21,4.71,4.71,0,0,0,2,2.44,4.32,4.32,0,0,0,5.06-.76,4.22,4.22,0,0,0,.38-3.6c0-.09-.08-.17-.12-.27a2.12,2.12,0,0,0-2.87-.78c.62-2.07,0-3.56-1.78-3.47A2.83,2.83,0,0,0,1331,6a3,3,0,0,0-5.67-.86,2.16,2.16,0,0,0-.92-1.62,3.46,3.46,0,0,0-1.75-.48,3.66,3.66,0,0,0-2.58.93,2.32,2.32,0,0,0-.56,2.63,8.29,8.29,0,0,0-2.5.93,2.52,2.52,0,0,0-1.2,2.31,1.56,1.56,0,0,0,1.66,1.44h.2a2.79,2.79,0,0,0-1.36,3.52h0a2.57,2.57,0,0,0,3.38,1.3h0a8.37,8.37,0,0,0,2.07-2c.48.84.83,1.26,1.73,1a4,4,0,0,0,2.33-2.61,1.94,1.94,0,0,0,2.66.66Z"/><path d="M1318.8,16.48a3,3,0,0,1-2.68-1.75,3.12,3.12,0,0,1,.68-3.37,1.29,1.29,0,0,1-.33-.17,2,2,0,0,1-.92-1.47,2.8,2.8,0,0,1,1.33-2.62,6.65,6.65,0,0,1,2.16-.77h.15a2.68,2.68,0,0,1,.77-2.65,3.83,3.83,0,0,1,2.78-.93,3.68,3.68,0,0,1,1.94.53,2.5,2.5,0,0,1,.93,1.15,3.53,3.53,0,0,1,3.08-1.32,3.74,3.74,0,0,1,2.59,2.21,2.83,2.83,0,0,1,2-1.16,2.15,2.15,0,0,1,1.86.71,3.11,3.11,0,0,1,.37,2.54,2.41,2.41,0,0,1,1.25,0,2.47,2.47,0,0,1,1.57,1.41,4.5,4.5,0,0,1-.44,3.91,4.69,4.69,0,0,1-5.45.84,5,5,0,0,1-1.86-2,3.5,3.5,0,0,1-1.85,1.78,2.34,2.34,0,0,1-2.56-.35,4.31,4.31,0,0,1-2.39,2.24,1.54,1.54,0,0,1-1.85-.81l-.24.26a5.37,5.37,0,0,1-1.62,1.49,2.6,2.6,0,0,1-1.16.27Zm3.12-2.85a.3.3,0,0,1,.23.16c.46.83.74,1,1.41.93a3.64,3.64,0,0,0,2.08-2.35.31.31,0,0,1,.59-.1,1.63,1.63,0,0,0,2.14.6,3.23,3.23,0,0,0,1.86-2.06.32.32,0,0,1,.41-.15.28.28,0,0,1,.15.15,4.68,4.68,0,0,0,1.86,2.28,4.09,4.09,0,0,0,4.64-.67,3.9,3.9,0,0,0,.37-3.31,1.84,1.84,0,0,0-1.17-1.06,1.69,1.69,0,0,0-1.42.16.28.28,0,0,1-.25,0h0a.3.3,0,0,1-.19-.38h0a3,3,0,0,0-.13-2.59,1.54,1.54,0,0,0-1.34-.49,2.51,2.51,0,0,0-1.86,1.37.31.31,0,0,1-.32.14.32.32,0,0,1-.25-.24,3.2,3.2,0,0,0-2.25-2.34,3.09,3.09,0,0,0-2.86,1.59.31.31,0,0,1-.23.14.33.33,0,0,1-.34-.28,1.85,1.85,0,0,0-.79-1.39,2.88,2.88,0,0,0-1.59-.42,3.21,3.21,0,0,0-2.35.79,2,2,0,0,0-.51,2.27.3.3,0,0,1,0,.26.27.27,0,0,1-.2.17l-.5.12a6,6,0,0,0-2,.69,2.21,2.21,0,0,0-1.07,2,1.45,1.45,0,0,0,.68,1,.91.91,0,0,0,.83.12.31.31,0,0,1,.4.18h0a.31.31,0,0,1-.17.4h0a2.52,2.52,0,0,0-1.16,3.13,2.39,2.39,0,0,0,1.32,1.22,2.13,2.13,0,0,0,1.66-.07,4.75,4.75,0,0,0,1.45-1.3c.17-.22.35-.43.53-.63a.32.32,0,0,1,.23-.09Z"/><path d="M1321.92,19a.5.5,0,0,0,.58.4h0a.49.49,0,0,0,.39-.59h0a.49.49,0,0,0-.59-.39h0a.5.5,0,0,0-.4.58h0Z"/><path d="M1329,18.68a.47.47,0,0,0,.57.36h0a.52.52,0,0,0,.34-.63h0a.53.53,0,0,0-.62-.36h0a.49.49,0,0,0-.35.6h0Z"/><path d="M1327.05,27.11h0a.31.31,0,0,1-.26-.35h0a.32.32,0,0,1,.36-.25h0a2.15,2.15,0,0,0,2.07-.93h0a.31.31,0,0,1,.42-.07h0a.33.33,0,0,1,.08.43h0a2.78,2.78,0,0,1-2.27,1.18A2.67,2.67,0,0,1,1327.05,27.11Z"/><path d="M1325.17,24.61a1.41,1.41,0,0,1-.67-.33,1.23,1.23,0,0,1-.35-1,2.72,2.72,0,0,1,.21-.79l.05-.11a9.22,9.22,0,0,0,.48-4,.3.3,0,0,1,.25-.34h0a.33.33,0,0,1,.34.27,9.49,9.49,0,0,1-.53,4.29v.11a2.72,2.72,0,0,0-.17.62.64.64,0,0,0,.14.53,1,1,0,0,0,.4.18,2.4,2.4,0,0,0,1.19,0,1.39,1.39,0,0,0,.85-.63h0a.31.31,0,0,1,.42-.12h0a.29.29,0,0,1,.11.38h0a1.83,1.83,0,0,1-1.24.93,2.29,2.29,0,0,1-.64.08A3,3,0,0,1,1325.17,24.61Z"/><path d="M1334.31,18.85a.33.33,0,0,1-.31-.32h0V17.1h0a.31.31,0,0,1,.31-.28h0a.31.31,0,0,1,.29.3v1.49a.32.32,0,0,1-.31.29Z"/><path d="M1335.27,11.85h0a.28.28,0,0,1,.08-.39h0a2.06,2.06,0,0,0,.93-2.12h0a.3.3,0,0,1,.24-.35h0a.31.31,0,0,1,.36.23,2.7,2.7,0,0,1-1.19,2.79h-.16A.29.29,0,0,1,1335.27,11.85Z"/><g opacity=".13"><path d="M1330.69,11a.49.49,0,0,1,0,.24,1.48,1.48,0,0,1-.12.41h0a3.81,3.81,0,0,1-.52,1,4.29,4.29,0,0,1-1.34,1.17,3.89,3.89,0,0,1-1.13.48h0a1.47,1.47,0,0,1-.92-.12,1.92,1.92,0,0,1-.56-.42,6.54,6.54,0,0,1-.62.93,5,5,0,0,1-.88.77,1.88,1.88,0,0,1-1.67.25A3.24,3.24,0,0,1,1322,15a2.2,2.2,0,0,1-.17.25,5.2,5.2,0,0,1-1.37,1.19.43.43,0,0,1-.46,0h0a.43.43,0,0,1-.16-.58c.11-.19.35-.26.52-.39a6,6,0,0,0,.83-.45h0l.13-.12c.11-.12.18-.25.28-.36h0v0a.77.77,0,0,0,.07-.16.37.37,0,0,1,.3-.24h0a1.67,1.67,0,0,0,.34.45.06.06,0,0,0,0,.06h0a1,1,0,0,0,.13.16.73.73,0,0,0,.31.17.67.67,0,0,0,.34.09h.65a3.25,3.25,0,0,0,1.12-.75h0L1325,14c.18-.24.37-.48.54-.73a.51.51,0,0,1,.1-.21.46.46,0,0,1,.3-.49h.07a.38.38,0,0,1,.4.33.14.14,0,0,1,0,.09h0a.23.23,0,0,1,.2,0h.09a3.51,3.51,0,0,0,.79.06h-.07a3.3,3.3,0,0,0,.76-.15h.1a.29.29,0,0,1,.36.09,4,4,0,0,0,1-1c.08-.14.15-.3.22-.44a.44.44,0,0,0,.07-.19l.31-.45a.32.32,0,0,1,.44.08Z"/></g><path d="M1331.78,42.26a2.17,2.17,0,0,1-.74-.49,1.87,1.87,0,0,1-.45-1.17,3.14,3.14,0,0,1,.39-1.85l.27.14-.26-.15h0a1.67,1.67,0,0,1,1.16-.8,1.85,1.85,0,0,1,1.44.32l.7.52a1.55,1.55,0,0,1,1,2v0h0a1.38,1.38,0,0,1-.46.63h0a2.5,2.5,0,0,1-1.58,1.15H1333A3,3,0,0,1,1331.78,42.26Zm.72-3.72h-.23a1.12,1.12,0,0,0-.75.52l-.27-.17.26.18a2.37,2.37,0,0,0-.29,1.45,1.17,1.17,0,0,0,.28.8,1.42,1.42,0,0,0,.55.34,1.88,1.88,0,0,0,1,.29,2,2,0,0,0,1.17-.93,1.39,1.39,0,0,0,.42-.82c0-.36-.38-.64-.71-.93l-.71-.53a1.18,1.18,0,0,0-.72-.24Z"/><path d="M1336.47,37.54h0a.31.31,0,0,1,0-.42h0a6,6,0,0,0,.93-2.56.32.32,0,0,1,.34-.28.29.29,0,0,1,.27.31v0h0a6.37,6.37,0,0,1-1.06,2.86.29.29,0,0,1-.25.14A.33.33,0,0,1,1336.47,37.54Z"/><path d="M1338,38.5a.29.29,0,0,1-.31-.27h0a.27.27,0,0,1,.09-.21h0l.79-.93a.31.31,0,0,1,.42,0h0a.31.31,0,0,1,0,.44h0l-.79.93a.28.28,0,0,1-.23.11Z"/><path d="M1342.9,72a.33.33,0,0,1,.26-.34,21,21,0,0,0,5.45-1.51.32.32,0,0,1,.4.17h0a.3.3,0,0,1-.17.38,20.74,20.74,0,0,1-5.63,1.55h0A.3.3,0,0,1,1342.9,72Z"/><g opacity=".13"><path d="M1313.38,61.19h0a.72.72,0,0,0-.17,1h0c.16.23.46.3.67.46l1.3.82a31.23,31.23,0,0,1,3,2.37.71.71,0,0,0,1-1h0a27.45,27.45,0,0,0-3.13-2.45l-1.38-.92a2.51,2.51,0,0,0-.93-.45A.74.74,0,0,0,1313.38,61.19Z"/></g><path d="M1348.12,119.71l-.73-8.36h0a.08.08,0,0,1,0-.09h0a.08.08,0,0,1,.1.06h0l.73,8.36a.1.1,0,0,1-.09.11h0A.11.11,0,0,1,1348.12,119.71Z"/><path d="M1344.89,121h0a.1.1,0,0,1-.08-.11l-.33-10.42h0a.11.11,0,0,1,.09-.1h0a.09.09,0,0,1,.11.07v0h0l.32,10.43h0a.09.09,0,0,1-.08.1h0Z"/><path d="M1313,94.75h0a.09.09,0,0,1-.1-.08v0h0l-.2-4.65h0a.12.12,0,0,1,.14-.08.13.13,0,0,1,.08.13l.18,4.64h0a.11.11,0,0,1-.09.1h0Z"/><path d="M1310,98.46c0-4.15-.15-8.36-.36-12.51a.1.1,0,0,1,.07-.08.12.12,0,0,1,.13.07h0c.22,4.14.37,8.36.37,12.51h0a.11.11,0,0,1-.11.1h0A.11.11,0,0,1,1310,98.46Z"/><path d="M1326.67,115.9a.11.11,0,0,1-.12-.06h0a13,13,0,0,0-1.06-2.55.11.11,0,0,1,0-.15.11.11,0,0,1,.13,0,13.13,13.13,0,0,1,1.09,2.6h0a.12.12,0,0,1-.06.13h0Z"/><path d="M1325.8,116.69a8.86,8.86,0,0,0-.7-2.07.1.1,0,0,1,0-.14h0a.11.11,0,0,1,.13,0h0a9.38,9.38,0,0,1,.72,2.13h0a.12.12,0,0,1-.07.1h0A.11.11,0,0,1,1325.8,116.69Z"/><path d="M1325,117.48h0a.11.11,0,0,1-.09-.1h0a5.26,5.26,0,0,0-.5-2.17h0a.14.14,0,0,1,.1-.11h0a.12.12,0,0,1,.11.1,5.45,5.45,0,0,1,.52,2.25.11.11,0,0,1-.1.11h0Z"/><path d="M1323.92,118.07h0s-.06,0-.06-.08h0a7.51,7.51,0,0,0-.3-2h0a.1.1,0,0,1,.08-.1h0a.09.09,0,0,1,.11.07h0a8.26,8.26,0,0,1,.25,2h0a.1.1,0,0,1-.11.09h0Z"/><path d="M1322.77,118.85h0a.11.11,0,0,1-.1-.11h0a17,17,0,0,0-.14-2.14h0a.09.09,0,0,1,.08-.1h0a.11.11,0,0,1,.11.11,17.44,17.44,0,0,1,.14,2.17h0a.09.09,0,0,1-.08.1h0Z"/><path d="M1321.66,119.32h0a.12.12,0,0,1-.09-.1,12.78,12.78,0,0,0,0-1.75h0a.1.1,0,0,1,.08-.11h0a.09.09,0,0,1,.11.07h0a10.58,10.58,0,0,1,0,1.78h0a.09.09,0,0,1-.08.08h0Z"/><path d="M1320.6,120.14h0a.09.09,0,0,1-.08-.08h0a6.84,6.84,0,0,0,0-1.43.1.1,0,0,1,.09-.11h0a.09.09,0,0,1,.11.07h0a6.11,6.11,0,0,1,0,1.48.12.12,0,0,1-.1.09Z"/><path d="M1359.1,51.07h0a.12.12,0,0,1,0-.14h0a15.65,15.65,0,0,0,1.09-1.48.1.1,0,0,1,.14,0h0a.12.12,0,0,1,0,.14,18,18,0,0,1-1.1,1.5h-.07Z"/><path d="M1356.1,53.19a.12.12,0,0,1,0-.14q1.59-2,3.06-4.1h0a.11.11,0,0,1,.19.11h0c-.93,1.39-2,2.79-3.07,4.1h-.14Z"/><path d="M1353.84,53.85a.12.12,0,0,1,0-.14c1.38-1.69,2.7-3.45,4-5.25h0a.17.17,0,0,1,.14,0,.11.11,0,0,1,0,.15c-1.25,1.79-2.57,3.57-4,5.26h-.08Z"/><path d="M1352.18,54.17a.11.11,0,0,1,0-.13,50.34,50.34,0,0,0,4.16-5.7h0a.09.09,0,0,1,.12,0h0a.09.09,0,0,1,0,.13h0a47.87,47.87,0,0,1-4.18,5.72.06.06,0,0,1-.08,0S1352.19,54.2,1352.18,54.17Z"/><path d="M1350.69,54a.1.1,0,0,1,0-.14,66.64,66.64,0,0,0,4.32-5.7.12.12,0,0,1,.14,0h0a.17.17,0,0,1,0,.14,69.07,69.07,0,0,1-4.39,5.7Z"/><path d="M1349.13,53.85h-.08a.11.11,0,0,1,0-.13h0a49.48,49.48,0,0,0,4.38-5.51.09.09,0,0,1,.1,0h0a.1.1,0,0,1,.06.13h0a47,47,0,0,1-4.37,5.57.06.06,0,0,1-.08,0Z"/><path d="M1347.71,53.61h0a.12.12,0,0,1,0-.14h0a61.42,61.42,0,0,0,4-4.81.1.1,0,0,1,.14,0h0a.12.12,0,0,1,0,.14c-1.27,1.67-2.61,3.28-4,4.83h-.15Z"/><path d="M1346.43,53.24h-.09a.09.09,0,0,1,0-.13h0c1.24-1.35,2.54-2.79,3.71-4.17h0a.1.1,0,0,1,.14,0h0a.1.1,0,0,1,0,.14c-1.18,1.43-2.45,2.78-3.71,4.18h0Z"/><path d="M1345,52.74h0a.09.09,0,0,1,0-.13h0a35.75,35.75,0,0,0,2.9-3,.08.08,0,0,1,.11,0,.12.12,0,0,1,0,.14c-.93,1-1.92,2-2.91,3h-.1Z"/><path d="M1343.78,52.28h0a.11.11,0,0,1,0-.13h0c.8-.72,1.59-1.5,2.34-2.29h0a.12.12,0,0,1,.14,0h0a.12.12,0,0,1,0,.14c-.75.81-1.54,1.57-2.35,2.31h-.13Z"/><path d="M1342.77,51.63a.12.12,0,0,1,0-.14h0l1.86-1.8a.11.11,0,0,1,.15,0h0a.11.11,0,0,1,0,.15l-1.86,1.8Z"/><path d="M1341.46,51.19h0a.11.11,0,0,1,0-.15h0l1.76-1.65a.11.11,0,0,1,.13,0h0a.12.12,0,0,1,0,.14l-1.75,1.66Z"/><path d="M1340.68,50.54a.07.07,0,0,1-.09,0,.1.1,0,0,1,0-.14,12.25,12.25,0,0,0,1.41-1.29h0a.12.12,0,0,1,.14,0h0a.11.11,0,0,1,0,.15,17.62,17.62,0,0,1-1.42,1.31h0Z"/><path d="M1339.73,49.85h0a.09.09,0,0,1,0-.13h0l1.24-1.17h0a.14.14,0,0,1,.15,0h0a.15.15,0,0,1,0,.16l-1.28,1.17h-.11Z"/><path d="M1338.75,49.34a.1.1,0,0,1,0-.14h0a11,11,0,0,1,1.25-1h0a.12.12,0,0,1,.14,0h0a.11.11,0,0,1-.05.14,13.48,13.48,0,0,0-1.26,1Z"/><path d="M1337.88,48.52a.11.11,0,0,1,0-.15,10.07,10.07,0,0,0,1.14-.93.11.11,0,0,1,.11,0,.14.14,0,0,1,0,.15,14.75,14.75,0,0,1-1.16.93Z"/><path d="M1337,47.63h0a.09.09,0,0,1,0-.13h0l1-.76h0a.12.12,0,0,1,.14,0h0a.12.12,0,0,1,0,.14l-1,.76H1337Z"/><path d="M1336.31,46.69h-.09a.12.12,0,0,1,0-.14l.69-.53h0a.11.11,0,0,1,.15,0h0a.1.1,0,0,1,0,.14l-.7.55h-.06Z"/><path d="M1335.37,46h0a.1.1,0,0,1,0-.14h0l.72-.62a.11.11,0,0,1,.15,0h0a.11.11,0,0,1,0,.15l-.72.62h-.15Z"/><path d="M1334.66,45.16a.1.1,0,0,1,0-.14c.24-.14.48-.3.72-.47a.1.1,0,0,1,.14,0,.09.09,0,0,1,0,.1h0c-.23.17-.48.33-.73.48h-.13Z"/><path d="M1334,44.33h0a.12.12,0,0,1,0-.14h0l.76-.47h0a.08.08,0,0,1,.11,0h0a.09.09,0,0,1,0,.13h0l-.75.48Z"/><path d="M1333.4,43.37h0a.1.1,0,0,1,.06-.13h0l.66-.35a.11.11,0,0,1,.15,0h0a.11.11,0,0,1,0,.13l-.67.35h-.06a.06.06,0,0,1-.08,0Z"/><path d="M1332.32,41.46a.11.11,0,0,1,0-.15,10.2,10.2,0,0,0,1.42-.93h0a.11.11,0,0,1,.13,0h0a.1.1,0,0,1,0,.14,9.58,9.58,0,0,1-1.45,1h0A.09.09,0,0,1,1332.32,41.46Z"/><path d="M1331.61,40.75a.09.09,0,0,1,0-.13h0a9.9,9.9,0,0,0,1-.57h0a.1.1,0,0,1,.14,0h0a.11.11,0,0,1,0,.13,10.81,10.81,0,0,1-1.06.57Z"/><path d="M1297.17,57.12h0a.06.06,0,0,1-.08,0h0l-.49-2.31h0a.1.1,0,0,1,.08-.1.12.12,0,0,1,.13.07h0l.48,2.31h0a.09.09,0,0,1-.07.11h0Z"/><path d="M1295.79,59.9a58.13,58.13,0,0,0-1.06-5.84h0a.09.09,0,0,1,.08-.1h0a.1.1,0,0,1,.1.07h0a52.31,52.31,0,0,1,1.09,5.82h0a.09.09,0,0,1-.07.11h0a.08.08,0,0,1-.1-.06h0Z"/><path d="M1294.53,62.48h0a.1.1,0,0,1-.09-.07h0c-.33-3-.76-6-1.25-9h0a.09.09,0,0,1,.09-.09h0a.12.12,0,0,1,.08.13h0c.48,3,.93,6,1.26,9a.11.11,0,0,1-.1.11h0Z"/><path d="M1293.1,65.25h0a.09.09,0,0,1-.09-.08h0c-.31-3.59-.69-7.24-1.12-10.83h0a.09.09,0,0,1,.07-.11h0a.1.1,0,0,1,.12.08h0c.44,3.6.82,7.25,1.13,10.84a.12.12,0,0,1-.1.12h0Z"/><path d="M1291.69,67.18h0s-.09,0-.09-.07h0l-.93-9.29a.1.1,0,0,1,.09-.11h0a.09.09,0,0,1,.11.07h0l.93,9.29a.12.12,0,0,1-.09.11h0Z"/><path d="M1290.44,69.85a.11.11,0,0,1-.1-.11h0l-1-9.22a.06.06,0,0,1,0-.06h0a.1.1,0,0,1,.12-.06h0a.12.12,0,0,1,.07.13l1,9.21a.12.12,0,0,1-.09.12h0Z"/><path d="M1289,72.2h0a.12.12,0,0,1-.11-.1q-.54-4.5-.93-9a.13.13,0,0,1,.09-.12.14.14,0,0,1,.12.11c.23,3,.53,6,.92,9A.14.14,0,0,1,1289,72.2Z"/><path d="M1287.33,74.56a.09.09,0,0,1-.1-.08v0h0l-.63-8.76a.1.1,0,0,1,.08-.07.13.13,0,0,1,.14.07h0l.62,8.76a.1.1,0,0,1-.09.11h0Z"/><path d="M1285.71,76.85h0a.1.1,0,0,1-.08-.1c-.07-2.89-.21-5.81-.41-8.69a.12.12,0,0,1,.09-.11h0a.09.09,0,0,1,.1.08v0h0c.22,2.88.36,5.81.42,8.7a.09.09,0,0,1-.08.1h0Z"/><path d="M1284.17,78.85a.13.13,0,0,1-.11-.11l-.44-8.29a.1.1,0,0,1,.07-.08.1.1,0,0,1,.13.06h0l.46,8.3h0a.12.12,0,0,1-.09.12h0Z"/><path d="M1282.87,80.36h0a.08.08,0,0,1-.1-.06h0l-.63-7.74a.1.1,0,0,1,.09-.07.1.1,0,0,1,.13.06h0l.62,7.74a.12.12,0,0,1-.09.11h0Z"/><path d="M1281.21,82.19c-.19-2.5-.33-5.11-.4-7.64a.08.08,0,0,1,.07-.08.1.1,0,0,1,.13.06h0c.08,2.53.21,5.13.41,7.63,0,.07,0,.11-.09.11h0a.1.1,0,0,1-.12-.08Z"/><path d="M1279.83,84a.11.11,0,0,1-.11-.11h0l-.52-7.61h0a.09.09,0,0,1,.11-.07h0a.11.11,0,0,1,.07.14h0l.52,7.61h0a.09.09,0,0,1-.08.1h0Z"/><path d="M1278.44,85.34h0a.14.14,0,0,1-.09-.09h0c-.33-2.3-.56-4.65-.7-7h0a.08.08,0,0,1,0-.09h0a.09.09,0,0,1,.11.07h0c.14,2.31.37,4.65.7,7h0a.09.09,0,0,1-.07.11h0Z"/><path d="M1276.5,87.52l-.36-7.33a.12.12,0,0,1,.1-.11h0a.14.14,0,0,1,.11.1l.35,7.32h0a.08.08,0,0,1-.06.1h0A.11.11,0,0,1,1276.5,87.52Z"/><path d="M1274.69,89.15h0a.11.11,0,0,1-.1-.1h0v-7.2h0a.14.14,0,0,1,.09-.09h0a.12.12,0,0,1,.09.1V89.1h0s0,.08-.07.09h0Z"/><path d="M1273,90.21h0s-.1-.06-.09-.11l.15-6.55h0a.12.12,0,0,1,.09-.1h0a.11.11,0,0,1,.11.11l-.13,6.58h0a.11.11,0,0,1-.09.1h0Z"/><path d="M1271.36,88.85a.1.1,0,0,1-.09-.11h0a20.58,20.58,0,0,0,.06-3.51.12.12,0,0,1,.09-.12h0a.12.12,0,0,1,.11.09h0a21.05,21.05,0,0,1-.07,3.55h0s0,.08-.07.09h0Z"/><path d="M1375,118.85a.11.11,0,0,1-.12-.06h0l-.63-2.05a.12.12,0,0,1,.06-.13h0a.13.13,0,0,1,.12,0h0l.63,2a.12.12,0,0,1-.08.13Z"/><path d="M1374.14,121.34h0a.1.1,0,0,1-.1-.08h0c-.34-1.8-.76-3.61-1.26-5.38h0a.13.13,0,0,1,0-.12h0a.12.12,0,0,1,.13.07c.49,1.77.93,3.59,1.25,5.39h0a.09.09,0,0,1-.07.11h.05Z"/><path d="M1373,124.23c-.26-2-.62-4-1-6h0a.08.08,0,0,1,.06-.1h0a.09.09,0,0,1,.1.05h0c.42,2,.78,4,1,6h0a.11.11,0,0,1-.07.12h0a.11.11,0,0,1-.1-.11Z"/><path d="M1371.84,126.9h0a.1.1,0,0,1-.11-.09h0c-.21-2-.47-4-.77-5.91a.09.09,0,0,1,.07-.11h0a.09.09,0,0,1,.11.07h0c.31,2,.57,4,.78,5.92a.12.12,0,0,1-.09.11Z"/><path d="M1370.64,129.52a.12.12,0,0,1-.09-.11l-.64-6.26v-.05a.11.11,0,0,1,.11-.11.13.13,0,0,1,.11.12h0l.63,6.26a.12.12,0,0,1-.09.11h0Z"/><path d="M1369.27,131.85h0s-.08,0-.09-.07h0l-.62-6h0a.09.09,0,0,1,0-.12h0a.12.12,0,0,1,.12.1h0l.63,6a.12.12,0,0,1-.1.11h0Z"/><path d="M1367.61,134.08a.08.08,0,0,1-.09-.07h0l-.44-5.69a.12.12,0,0,1,.09-.11h0a.12.12,0,0,1,.11.09h0l.42,5.69h0a.08.08,0,0,1-.07.09h0Z"/><path d="M1365.9,136.23h0a.1.1,0,0,1-.08-.1h0c0-1.86-.09-3.71-.2-5.57a.13.13,0,0,1,.11-.11h0a.09.09,0,0,1,.1.08v0c.11,1.86.2,3.71.2,5.63a.12.12,0,0,1-.11.1h0Z"/><path d="M1363.89,137.85c.11-1.79.11-3.6.11-5.38a.09.09,0,0,1,.08-.1h0a.09.09,0,0,1,.1.08h0c0,1.78,0,3.59-.1,5.39a.09.09,0,0,1-.11.07h0a.1.1,0,0,1-.08-.07Z"/><path d="M1362.13,139.85h0a.09.09,0,0,1-.08-.1h0a49,49,0,0,0,.27-5.14.08.08,0,0,1,.06-.1h0a.09.09,0,0,1,.11.07h0a49.59,49.59,0,0,1-.27,5.17h0a.09.09,0,0,1-.08.08h0Z"/><path d="M1360.19,141.3a.09.09,0,0,1-.09-.11h0c.23-1.52.4-3.07.51-4.64a.06.06,0,0,1,0-.06h0a.07.07,0,0,1,.07-.07h0a.11.11,0,0,1,.08.11h0c-.11,1.54-.28,3.13-.5,4.65a.11.11,0,0,1-.1.09Z"/><path d="M1358.11,142.78h0a.1.1,0,0,1-.08-.12h0c.35-1.58.64-3.18.84-4.79h0a.08.08,0,0,1,0-.09h0a.08.08,0,0,1,.1.06h0c-.21,1.62-.49,3.23-.83,4.81a.15.15,0,0,1-.1.09Z"/><path d="M1356.19,143.79h0a.06.06,0,0,1-.06-.06v0h0c.34-1.45.62-2.91.93-4.37a.09.09,0,0,1,.09-.09h0a.09.09,0,0,1,.08.08h0c-.28,1.45-.56,2.92-.93,4.37a.1.1,0,0,1-.1.08Z"/><path d="M1354.56,143.85h0a.12.12,0,0,1-.07-.13h0l.75-3.22a.09.09,0,0,1,.09-.09h0a.12.12,0,0,1,.07.13l-.75,3.24a.1.1,0,0,1-.09.07Z"/><path d="M1352.84,143.21a.1.1,0,0,1,0-.14h0l.46-1.48h0a.1.1,0,0,1,.13-.05h0a.13.13,0,0,1,0,.12l-.48,1.53a.12.12,0,0,1-.13.11h0A.1.1,0,0,1,1352.84,143.21Z"/><g opacity=".13"><path d="M1327.3,31.39a3.77,3.77,0,0,1,.14,1,2.12,2.12,0,0,0,.06.71.54.54,0,0,0,.69.33h0c.54-.25.87-.81,1.32-1.2l2.78-2.79a.59.59,0,0,0-.08-.82h0a.56.56,0,0,0-.54-.11,3.06,3.06,0,0,0-.53.42,1.33,1.33,0,0,0-.38.18l-.07.06a6.16,6.16,0,0,1-.68.34,8.47,8.47,0,0,1-1.31.46,3,3,0,0,0-1.32.44A.9.9,0,0,0,1327.3,31.39Z"/></g><g opacity=".13"><path d="M1333.33,44.41c.12.44.22.85.35,1.26a11.65,11.65,0,0,0,.57,1.37,10.43,10.43,0,0,0,.75,1,46.47,46.47,0,0,0,3.24,3.49,23.42,23.42,0,0,0,4.37,3.17,21.61,21.61,0,0,0,2,1.25c.36.2.74.56,1.18.36s.52-.93.44-1.37a2.1,2.1,0,0,0-.39-1.16l-.19-.14h-.1a29.22,29.22,0,0,1-5.9-3.37h0a.27.27,0,0,1-.37,0l-.81-.66a.48.48,0,0,0-.23.07c-.43-.44-.84-.93-1.25-1.34l-.19-.21c-.4-.37-.79-.74-1.16-1.13-.81-.83-1.52-1.73-2.26-2.61Z"/></g><g opacity=".13"><path d="M1326.14,87.35a.8.8,0,0,0,.64.92,15,15,0,0,0,3.61.19c1.8-.1,3.58-.32,5.38-.45,1.64-.13,3.32-.31,4.5-.48.93-.14,2-.2,2.94-.43a.63.63,0,0,0,.19-.87.61.61,0,0,0-.52-.29,51.84,51.84,0,0,1-5.42.56c-.93.06-1.86.09-2.79.13a.6.6,0,0,0-.21-.14,2.15,2.15,0,0,0-.8,0h-1.81a24.91,24.91,0,0,0-4.14.19,2.75,2.75,0,0,0-1.43.34A.81.81,0,0,0,1326.14,87.35Z"/></g><g opacity=".13"><path d="M1318,119.4Z"/></g><g opacity=".13"><path d="M1316.81,96.31a21.1,21.1,0,0,1,.38,2.08c0,.29.36,3.06.63,4.58.44,1.93.79,3.87,1.14,5.82a20.59,20.59,0,0,0,1.46,4.65c-.09.17-.15.4-.24.57-.28.68-.53,1.37-.79,2-.4,1.08-.79,2-1.09,2.78a4.39,4.39,0,0,0-.26.63v.24a8.09,8.09,0,0,0-.53,2,.6.6,0,0,0,.18.49.69.69,0,0,0,.45.2h0a.65.65,0,0,0,.68-.6h0c.07-.3.14-.62.24-.93a11.73,11.73,0,0,1,1.75-3,14.08,14.08,0,0,0,2.25-3.54,1,1,0,0,0,.12-.53.92.92,0,0,0-.91-.93h-.63l-.07-.12a10.86,10.86,0,0,1-.63-1.73,34.58,34.58,0,0,1-1.09-4.92c-.22-1.18-.52-2.33-.75-3.5-.46-2.3-.63-4.64-1.25-6.88a.53.53,0,0,0-.24-.31h0a.58.58,0,0,0-.78.16C1316.61,95.67,1316.75,96,1316.81,96.31Z"/></g><g opacity=".13"><path d="M1264,81.4a.59.59,0,0,0,.13.36l.19.24a27.35,27.35,0,0,0,2.1,2.57c.74.83,1.54,1.63,2.36,2.39.21.27.44.54.66.8l1.7,2.22a.51.51,0,0,0,0,.45,4.79,4.79,0,0,0,.62.73,80.18,80.18,0,0,0,8,7.64,40.54,40.54,0,0,0,3.54,2.72c.93.68,1.78,1.3,2.69,1.92a18.8,18.8,0,0,0,1.73,1.36c1.72,1.25,3.54,2.35,5.3,3.55,2.09,1.39,4.1,2.78,6.25,4.24s4.44,2.59,6.58,4c2.33,1.52,4.65,3,7,4.64,2.65,1.86,5.29,3.72,8.07,5.31a44.13,44.13,0,0,0,4.42,2.56l3.17,1.61c.19.35.72.56,1.13.92.59.41,1.16.79,1.79,1.17a.9.9,0,0,0-.4.23v.41c.25,1.51.47,3,.62,4.55.1.93.2,1.86.27,2.73.35.57.85.62,1.66.68,1.1.12,1.66.18,3,.41,5.32.93,10.57,2.34,15.79,3.54a.74.74,0,0,0,.93-.46h0a.73.73,0,0,0-.32-.79l.55.22h.11a.72.72,0,0,0,.27-1.41c-.38-.15-.8-.33-1.25-.55-.11-.28-.46-.4-.73-.57l-1.86-1.16c-2.14-1.33-4.31-2.64-6.5-3.91-2.46-1.31-4.91-2.64-7.27-4.13-2.69-1.55-5.3-3.24-8-4.86-1.76-1-3.56-2-5.28-3.06-2.62-1.66-5.26-3.28-7.86-5-5.79-3.72-11.42-7.75-17.05-11.66-2.73-1.86-5.57-3.62-8.27-5.5l-.5-.34c-4.06-3.13-8.25-6.5-12.44-9.94-2.29-2-4.65-3.83-6.93-5.83l-.42-.53c-.32-.41-.63-.85-.93-1.25s-.53-.83-1-.72c-.78-.93-1.59-1.86-2.44-2.79a.58.58,0,0,0-.5-.16.51.51,0,0,0-.57.13A.42.42,0,0,0,1264,81.4Z"/></g><g opacity=".13"><path d="M1343.35,122.5"/></g><g opacity=".13"><path d="M1338.5,116a7.78,7.78,0,0,0,.93,3,8.5,8.5,0,0,0,3.82,3.54l.12.06a6.89,6.89,0,0,0,2.5.47,11.3,11.3,0,0,0,4.15-.75.84.84,0,0,0,.23-.23h0a.73.73,0,0,0-.21-1h0c-.34-.22-.7,0-1,.1-3.72,1-6.92.14-8.73-3.54a10.74,10.74,0,0,1-.67-2.5v-.63a.57.57,0,0,0-.43-.55C1338.1,113.85,1338.46,115.29,1338.5,116Z"/></g><g opacity=".13"><path d="M1302,92.85h0a4.92,4.92,0,0,0,.2,1,10,10,0,0,0,1.24,2.67.39.39,0,0,0-.24.31c-.1.37.27.68.44,1a6.18,6.18,0,0,0,2,1.94,11.89,11.89,0,0,0,1.86,1,7.93,7.93,0,0,0,3.13.48.55.55,0,0,0,.52-.31h.06a12.82,12.82,0,0,0,2.9-.24.69.69,0,0,0,.4-.31h0a.7.7,0,0,0-.24-.93h0a1.24,1.24,0,0,0-.85,0,8.46,8.46,0,0,1-1.67.07,9.69,9.69,0,0,1-1.6-.34,3.61,3.61,0,0,1-.77-.24,13.68,13.68,0,0,1-1.73-.93,8.93,8.93,0,0,1-3.36-3.56,9,9,0,0,1-.63-1.19v-.06a9.11,9.11,0,0,1-.41-2,.67.67,0,0,0-1.33-.07A8.17,8.17,0,0,0,1302,92.85Z"/></g><g opacity=".13"><path d="M1362.52,140.37h0a.68.68,0,0,0-.18.93c.19.21.93.74,1.44,1.24a26.13,26.13,0,0,1,5.86,8l.09.19a1.19,1.19,0,0,0,.11.26.94.94,0,0,0,1.25.34c.45-.28.52-.85.82-1.26l.21-.21h0l.28-.2a.68.68,0,0,0,.26-.32.91.91,0,0,0,0-1,17,17,0,0,0-2.6-3,31.26,31.26,0,0,0-4.75-4c-.46-.3-.93-.57-1.42-.83a2.09,2.09,0,0,0-.71-.29.81.81,0,0,0-.66.09Z"/></g><path d="M1511.68,202.26h0a.31.31,0,0,1-.34-.28h0a.3.3,0,0,1,.28-.32h0a11.48,11.48,0,0,0,8.13-8.73,16.29,16.29,0,0,0-2.5-12.07,21.37,21.37,0,0,0-24.43-8.29.31.31,0,0,1-.32,0,.3.3,0,0,1-.08-.32c2.36-8.36,1.07-17-3.44-23.22-5-6.76-14.15-9.86-21.36-7.22a.31.31,0,0,1-.39-.17h0a.31.31,0,0,1,.16-.39h0a18.14,18.14,0,0,1,12.08.13,21.31,21.31,0,0,1,9.93,7.32c4.53,6.15,5.89,14.78,3.71,23.22,8.87-2.91,19.6.85,24.61,8.72a16.9,16.9,0,0,1,2.58,12.58,12,12,0,0,1-8.61,9.19h0Z"/><path d="M1474.53,215.23a9.91,9.91,0,0,1-5.75-4.56h0a.29.29,0,0,1,.09-.39h0a.3.3,0,0,1,.4.14,9.34,9.34,0,0,0,5.42,4.24,19.82,19.82,0,0,0,7.1.76c4.19-.16,9.69-1.21,12.07-5.41,1.74-3,1.36-6.73.78-10.63h0a.34.34,0,0,1,.27-.35h0a.33.33,0,0,1,.34.26c.63,4,1,7.87-.85,11.14-2.55,4.44-8.25,5.58-12.62,5.74h-1.38A18.31,18.31,0,0,1,1474.53,215.23Z"/><path d="M1454.37,212.49h0a.31.31,0,0,1,.19-.38h0a9.71,9.71,0,0,0,6.41-9.59h0a.32.32,0,0,1,.29-.33h0a.31.31,0,0,1,.33.29h0a10.36,10.36,0,0,1-6.84,10.22h-.09A.3.3,0,0,1,1454.37,212.49Z"/><path d="M1414.43,221.35c-4.91-1.68-8.75-5.58-9.91-10.08a10.73,10.73,0,0,1-18.82-4.5h0a.3.3,0,0,1,.22-.36h0a.34.34,0,0,1,.38.24h0a10.11,10.11,0,0,0,18.13,3.72.39.39,0,0,1,.19-.12.3.3,0,0,1,.36.22h0c.93,4.55,4.71,8.59,9.65,10.28,5.43,1.86,10.95.81,14.62-.4,6.57-2.16,11-6.38,11.8-11.29h0a.29.29,0,0,1,.34-.23h0a.3.3,0,0,1,.26.33h0c-.86,5.15-5.42,9.55-12.21,11.78a27.48,27.48,0,0,1-8.53,1.41A20.36,20.36,0,0,1,1414.43,221.35Z"/><path d="M1382.83,199.06a10.55,10.55,0,0,1,.92-19.73h0a.31.31,0,0,1,.38.19h0a.32.32,0,0,1-.21.38,9.92,9.92,0,0,0-.85,18.58h0a.28.28,0,0,1,.14.37h0a.34.34,0,0,1-.28.19Z"/><path d="M1509.69,194.49h0a.31.31,0,0,1,0-.42h0a8.67,8.67,0,0,0-1.75-12h0a.28.28,0,0,1-.06-.39h0a.28.28,0,0,1,.38-.1h0a9.29,9.29,0,0,1,1.86,12.92.37.37,0,0,1-.24.12A.29.29,0,0,1,1509.69,194.49Z"/><path d="M1486.86,168.55a.33.33,0,0,1-.08-.43h0a6.65,6.65,0,0,0-.93-8.3l-.07-.07a.28.28,0,0,1,0-.38h0a.31.31,0,0,1,.44,0h0a7.29,7.29,0,0,1,.93,9.11.35.35,0,0,1-.44.09Z"/><path d="M1480.16,209.85a.29.29,0,0,1-.3-.28v0h0a.29.29,0,0,1,.29-.29h0a7.18,7.18,0,0,0,7.33-5.8v-.07a.34.34,0,0,1,.38-.24h0a.36.36,0,0,1,.23.41,7.83,7.83,0,0,1-7.51,6.32Z"/><path d="M1421.08,216.54a15.19,15.19,0,0,1-11.32-8.13h0a.3.3,0,0,1,.13-.4h0a.31.31,0,0,1,.41.14,14.62,14.62,0,0,0,10.84,7.79.31.31,0,0,1,.26.35.33.33,0,0,1-.3.27Z"/><path d="M1386.82,195.17a6.51,6.51,0,0,1-1.76-8.61.32.32,0,0,1,.42-.1h0a.32.32,0,0,1,.1.42,5.91,5.91,0,0,0,1.58,7.78.29.29,0,0,1,.1.4h0a.35.35,0,0,1-.25.14A.31.31,0,0,1,1386.82,195.17Z"/><path d="M1456.26,193.09a.34.34,0,0,1-.26-.37.34.34,0,0,1,.38-.26h0a9.64,9.64,0,0,0,2,.21c5,0,10.06-3.71,11.21-8.65a11.68,11.68,0,0,0-8.19-13.37.33.33,0,0,1-.23-.39.31.31,0,0,1,.37-.23h0a11.81,11.81,0,0,1,3.4,21.25,12.22,12.22,0,0,1-6.5,2A10.65,10.65,0,0,1,1456.26,193.09Z"/><g opacity=".13"><path d="M1376.52,188.67a10.51,10.51,0,0,0,.35,2.79,14.16,14.16,0,0,0,3.49,5.48,5.58,5.58,0,0,0,1.86,1.37l-.26-.11a2.61,2.61,0,0,0,1.07.42,1.07,1.07,0,0,0,1.06-1.07,1,1,0,0,0-.52-.93l.21.17c-.93-.75-.52-.36-1.19-.93a19.56,19.56,0,0,1-2-2.17c-.26-.37-.52-.75-.76-1.13a7.36,7.36,0,0,1-1.34-5.14,1,1,0,0,0-1-.93.9.9,0,0,0-.86.57A6.21,6.21,0,0,0,1376.52,188.67Z"/></g><g opacity=".13"><path d="M1386.64,206.45a.92.92,0,0,0-.85,1v0h0v.06c0,.29.23.51.37.75l1.06,1.61a11.86,11.86,0,0,0,2.94,3.41,8.78,8.78,0,0,0,4.23,1.64,14.83,14.83,0,0,0,4.41.18,2.57,2.57,0,0,0,1.4-.41l.14-.17a.93.93,0,0,0-.26-1.29h0a1,1,0,0,0-.65-.14l-.58.06a15.18,15.18,0,0,1-3.3-.13h.15a13.47,13.47,0,0,1-3.19-.75c-1.92-.93-3-2.44-4.92-5.3A1,1,0,0,0,1386.64,206.45Z"/></g><g opacity=".13"><path d="M1406.12,210.85a1.06,1.06,0,0,0-1.48,1.49h0c2.5,2.58,4.64,5.62,7.73,7.59,2.93,2,5.24,1.86,8.48,2.2l1.61.12a.82.82,0,0,0,.93-.34.74.74,0,0,0-.19-.93.93.93,0,0,0-.45-.18l-1.72-.35a35.28,35.28,0,0,1-5.18-1.17,11.18,11.18,0,0,1-1.25-.62,18.24,18.24,0,0,1-2.15-1.43h0a79,79,0,0,1-6.34-6.34Z"/></g><g opacity=".13"><path d="M1469.51,209.49a1.08,1.08,0,0,0-.75,1.32h0c.2.48.76.8,1.11,1.18a21.19,21.19,0,0,0,2.51,1.93,11.38,11.38,0,0,0,3.85,1.53,27.42,27.42,0,0,0,7.57.06c.66,0,.93-.11,1.11-.11h.23a1,1,0,0,0,.37-.2.77.77,0,0,0,.22-.54h0a.79.79,0,0,0-.8-.78h0a8.65,8.65,0,0,0-1.25-.06c-2-.08-3.93-.08-5.88-.3-2.79-.39-4.71-1.36-7.32-3.86A1.09,1.09,0,0,0,1469.51,209.49Z"/></g><g opacity=".13"><path d="M1456.14,192.85a5.81,5.81,0,0,0,1.17.12,13.26,13.26,0,0,0,3.2-.36,13.78,13.78,0,0,0,4.73-2.34,1,1,0,0,0-.62-1.81,1.33,1.33,0,0,0-.67.33c-.25.17-.5.3-.75.44a14.25,14.25,0,0,1-2.26,1,12.06,12.06,0,0,1-3.25.73,3.66,3.66,0,0,1-.81,0h-.49a1,1,0,0,0-.93,1.06,1,1,0,0,0,.66.88Z"/></g><g opacity=".13"><path d="M1510.4,200.62h0a1.1,1.1,0,0,0,.93,1.24h0a1.92,1.92,0,0,0,1-.18,9.21,9.21,0,0,0,1.42-.67,14.78,14.78,0,0,0,3.62-2.87,9.08,9.08,0,0,0,1.43-2.63c.4-.84.93-2.29,1.49-3.49a.82.82,0,0,0-1.24-1.07c-.29.19-.37.57-.55.86-.26.54-.53,1.09-.81,1.64-1.2,2.07-1.59,3-3.36,4.43a17.44,17.44,0,0,1-1.62,1.07,6.28,6.28,0,0,1-.92.5c-.48.19-1,.25-1.3.74A.8.8,0,0,0,1510.4,200.62Z"/></g></svg>