<svg xmlns="http://www.w3.org/2000/svg" viewBox="0 0 1500.48 223.42"><path fill="#acd4f7" d="M1464.2,131.76a18,18,0,0,0-10.73-2.5,16.14,16.14,0,0,0-12.53,7.78,15.89,15.89,0,0,0-1.11,15.19,16.49,16.49,0,0,0,12.83,9.08,17.48,17.48,0,0,0,13-3.89c3.5-2.92,4.94-7.17,5.39-11.58C1471.24,143.67,1470.29,135.62,1464.2,131.76Zm-6.28,23.16a11.76,11.76,0,0,1-12.54-3.73,8.05,8.05,0,0,1-1.67-3.57,9.35,9.35,0,0,1,.27-3.9,13.07,13.07,0,0,1,5.5-7.78,10.16,10.16,0,0,1,9.59-.78,11.38,11.38,0,0,1,6.23,9.56,10.73,10.73,0,0,1-7.44,10.21Z"/><g opacity=".13"><path d="M1472.08,144.18l-.57-1.55c-.35-1-.77-2-1.12-3h-.19c-1.15.48-.52,1.26-.49,2.25a25.61,25.61,0,0,0,.48,2.89,14.34,14.34,0,0,1,.09,2.93v.16c-.16.54-.42,1-.57,1.55a11.74,11.74,0,0,1-2.29,4.72c-.09.1-.21.26-.3.38l-.6.83-.07.09-.18.21c-.17.24-1,1-1,1.07-1.15.84-1,.82-2.33,1.7a21.81,21.81,0,0,1-3,1.55,14.09,14.09,0,0,1-4.72,1.28,33.64,33.64,0,0,1-4.49-.15,12.94,12.94,0,0,1-4.82-1.84c-.6-.33-1.17-1-1.91-.9h0c.53.56,1.07,1.1,1.62,1.64s1.41,1.36,2.12,2a19.09,19.09,0,0,0,7.25,1.24,19.91,19.91,0,0,0,4.15-.46,17.64,17.64,0,0,0,6.54-3.22,30.42,30.42,0,0,0,4.09-3.77,15.74,15.74,0,0,0,2.45-7.87A18.59,18.59,0,0,0,1472.08,144.18Z"/></g><g opacity=".13"><path d="M1490.44,151.35a.9.9,0,0,0-1.15-.52.87.87,0,0,0-.4.31c-1.56,2.64-3.17,5.27-4.84,7.85a21.77,21.77,0,0,0-2.09,3.12,2.23,2.23,0,0,0-.39.89,1.29,1.29,0,0,0,1.09,1.43h0a1.25,1.25,0,0,0,.78-.17,1.6,1.6,0,0,0,.65-.78,2.38,2.38,0,0,0,.4-.44c1.62-2.24,2.42-4.92,3.79-7.29l2.06-3.74A.77.77,0,0,0,1490.44,151.35Z"/></g><g opacity=".13"><path d="M1464.59,174.55c-.63-.19-1.23.15-1.84.26-4.08,1.08-6.82,1.13-11.49,1a1.56,1.56,0,1,0-.62,3.06,2.15,2.15,0,0,0,.62,0,40.34,40.34,0,0,0,10.63-.71c.78-.18,1.62-.36,2.43-.57a1.92,1.92,0,0,0,1.23-.78,1.56,1.56,0,0,0-.62-2.11A2.07,2.07,0,0,0,1464.59,174.55Z"/></g><path d="M1450.73,179.43a.39.39,0,0,1-.39-.37,11.44,11.44,0,0,0-3.85-7.79,7.78,7.78,0,0,0-4.3-2.06,10.86,10.86,0,0,0-4.6.9c-2.29.84-4.61,1.9-6.07,4a.35.35,0,0,1-.25.16.38.38,0,0,1-.31-.07,54.22,54.22,0,0,1-10.46-9.61.4.4,0,0,1-.09-.3.39.39,0,0,1,.15-.26,14.52,14.52,0,0,0,5.26-8.49,6.23,6.23,0,0,0-.07-3.18c-.51-1.55-1.92-2.8-4.32-3.89a26,26,0,0,0-6.9-2,.35.35,0,0,1-.26-.16.4.4,0,0,1-.07-.3,69.87,69.87,0,0,1,4.36-14.71.39.39,0,0,1,.49-.23c2.8,1,9.82,1,12.68-2.21,4.68-5.34,2.49-11.44,1.69-13.18a.43.43,0,0,1,.2-.53,93.76,93.76,0,0,1,11.68-3.71c1.43-.39,2.92-.78,4.39-1.23a.4.4,0,0,1,.49.26h0a.38.38,0,0,1,0,.21c-.33,1.14,2.41,5.8,6.38,7.74,9.34,4.53,15.2-1.14,16.79-3a.51.51,0,0,1,.29-.13.34.34,0,0,1,.29.11,103.55,103.55,0,0,1,11.58,13,.32.32,0,0,1,.07.3.37.37,0,0,1-.16.27,12,12,0,0,0-5,12.22c1,4.47,5,8.3,10,9.51a.47.47,0,0,1,.25.19.44.44,0,0,1,0,.32,60.12,60.12,0,0,1-6.41,14,.4.4,0,0,1-.48.16c-3.55-1.46-7-2.68-10.22-1.63a9.13,9.13,0,0,0-5.39,5.45,26.9,26.9,0,0,0-1.34,6.58,10.48,10.48,0,0,1-.17,1.48.39.39,0,0,1-.32.34,93.53,93.53,0,0,1-15.65,1.77Zm-9-11.06h.61a8.59,8.59,0,0,1,4.8,2.3,12.17,12.17,0,0,1,4.08,8A94,94,0,0,0,1466,177a9.43,9.43,0,0,1,.14-1.19,26.28,26.28,0,0,1,1.39-6.79,9.87,9.87,0,0,1,5.88-5.94c3.36-1.1,7,.12,10.45,1.56a59.92,59.92,0,0,0,6-13.13c-5.06-1.4-9.11-5.37-10.13-10a12.8,12.8,0,0,1,4.92-12.78,103.06,103.06,0,0,0-11-12.34c-1.73,1.86-8,7.46-17.47,2.86-3.69-1.8-6.62-5.94-6.84-8l-3.89,1.08a103.82,103.82,0,0,0-11.2,3.51c.93,2.23,2.75,8.3-2,13.66-3,3.43-10,3.48-13.18,2.56a68.61,68.61,0,0,0-4.1,13.82,25.32,25.32,0,0,1,6.71,2c2.6,1.19,4.15,2.62,4.74,4.37a6.8,6.8,0,0,1,.09,3.58,15.09,15.09,0,0,1-5.25,8.67,53.32,53.32,0,0,0,9.75,8.93c1.56-2.08,3.89-3.11,6.23-4a13.5,13.5,0,0,1,4.3-.92Z"/><path d="M1454,155.86a12,12,0,0,1-9.46-4.44,8.69,8.69,0,0,1-1.74-3.74,9.54,9.54,0,0,1,.28-4.08,13.48,13.48,0,0,1,5.67-8.07,10.58,10.58,0,0,1,10-.78h0a11.76,11.76,0,0,1,6.43,9.91,11.21,11.21,0,0,1-11.19,11.2Zm.61-21.22a10.18,10.18,0,0,0-5.45,1.55,12.75,12.75,0,0,0-5.32,7.59,8.92,8.92,0,0,0-.27,3.74,7.82,7.82,0,0,0,1.56,3.41,11.34,11.34,0,0,0,12.14,3.66,10.33,10.33,0,0,0,7.14-9.85,10.91,10.91,0,0,0-6-9.22h0a8.73,8.73,0,0,0-3.82-.91Z"/><path d="M1454,161.86a17.29,17.29,0,0,1-1.9-.11,17,17,0,0,1-13.15-9.28,16.27,16.27,0,0,1,1.12-15.62,16.67,16.67,0,0,1,12.8-7.93h0a18.54,18.54,0,0,1,11,2.57c6.57,4.11,7.21,12.59,7,14.47-.56,5.33-2.34,9.2-5.55,11.84A18,18,0,0,1,1454,161.86Zm-1-32.16a15.71,15.71,0,0,0-12.24,7.59,15.43,15.43,0,0,0-1,14.85,16.15,16.15,0,0,0,12.52,8.83,17.06,17.06,0,0,0,12.64-3.79c3-2.5,4.73-6.23,5.25-11.3.25-2.4-.87-10.13-6.65-13.72A17.64,17.64,0,0,0,1453,129.7Z"/><path fill="#acd4f7" d="M1464.2,131.76a18,18,0,0,0-10.73-2.5,16.14,16.14,0,0,0-12.53,7.78,15.89,15.89,0,0,0-1.11,15.19,16.49,16.49,0,0,0,12.83,9.08,17.48,17.48,0,0,0,13-3.89c3.5-2.92,4.94-7.17,5.39-11.58C1471.24,143.67,1470.29,135.62,1464.2,131.76Zm-6.28,23.16a11.76,11.76,0,0,1-12.54-3.73,8.05,8.05,0,0,1-1.67-3.57,9.35,9.35,0,0,1,.27-3.9,13.07,13.07,0,0,1,5.5-7.78,10.16,10.16,0,0,1,9.59-.78,11.38,11.38,0,0,1,6.23,9.56,10.73,10.73,0,0,1-7.44,10.21Z"/><path d="M1454,161.86a17.29,17.29,0,0,1-1.9-.11,17,17,0,0,1-13.15-9.28,16.27,16.27,0,0,1,1.12-15.62,16.67,16.67,0,0,1,12.8-7.93h0a18.54,18.54,0,0,1,11,2.57c6.57,4.11,7.21,12.59,7,14.47-.56,5.33-2.34,9.2-5.55,11.84A18,18,0,0,1,1454,161.86Zm-1-32.16a15.71,15.71,0,0,0-12.24,7.59,15.43,15.43,0,0,0-1,14.85,16.15,16.15,0,0,0,12.52,8.83,17.06,17.06,0,0,0,12.64-3.79c3-2.5,4.73-6.23,5.25-11.3.25-2.4-.87-10.13-6.65-13.72A17.64,17.64,0,0,0,1453,129.7Z"/><path fill="#acd4f7" d="M194.83,45.1a90.89,90.89,0,0,0,14.94,0c.28,3.57.55,5.75-.58,9.2a6.8,6.8,0,0,1-3.34,4.24c-2.14,1-4.78.5-7.12,0a7.13,7.13,0,0,1-2.59-1c-1.48-1.06-1.56-3-1.53-4.59C194.7,49.72,194.77,48,194.83,45.1Z"/><g opacity=".13"><path d="M221.23,23.56a1,1,0,0,0-1.4.14c-.21.42-.14.22-.23.83a.89.89,0,0,1,0,.23c-.06.24-.25,1-.33,1.23h0a16.12,16.12,0,0,1-1.7,3.27,10,10,0,0,1-1.43,2c-1,1.11-3.56,3.19-5.07,5-.45.51-1.42,1.68-1.55,1.88h0A11.42,11.42,0,0,0,208,40.1a20.92,20.92,0,0,0-1.3,2.37,5.53,5.53,0,0,0-.76,2.23.43.43,0,0,0,0,.16,1.6,1.6,0,0,0-.23,1.45c.48,1.36.48,2.95.36,5.46a8.1,8.1,0,0,1-.75,4,5.67,5.67,0,0,1-.79,1.55c-.16.27-.41.52-.41.83a1.22,1.22,0,0,0,.93,1.4,3.83,3.83,0,0,0,.44-.25c.61-.41,1.22-.83,1.86-1.23l.94-.61a12.59,12.59,0,0,0,1.17-2.9c.43-2.14.54-2.54,1-4.89a11.27,11.27,0,0,0,0-3.07,3.14,3.14,0,0,0-.64-1.89h-.42l-.73.06A18.53,18.53,0,0,1,212.44,38c1.27-1.29,2.64-2.44,4-3.69a17.89,17.89,0,0,0,3.15-3.68c.46-.95.39-.86.68-1.55,0-.11,0,0-.07.13l.49-1a6.83,6.83,0,0,0,.5-1.65h0C221.39,25.34,221.84,24.16,221.23,23.56Z"/></g><g opacity=".13"><path d="M206.5,42.7l.11-.2v-.07Z"/></g><path d="M202.78,59.7a13.79,13.79,0,0,1-1.82-.12c-1.49-.2-5.08-.94-6.24-3.51a6.85,6.85,0,0,1-.43-2.87V44.91a.32.32,0,0,1,.12-.26.38.38,0,0,1,.27-.08,150.51,150.51,0,0,0,15.17.19.38.38,0,0,1,.39.3h0a27,27,0,0,1-.53,9.18,7.18,7.18,0,0,1-1.52,3.61A7.43,7.43,0,0,1,202.78,59.7Zm-7.84-14.41v7.9a6,6,0,0,0,.36,2.58c.69,1.57,2.83,2.73,5.69,3.12s5.33-.18,6.57-1.5a6.26,6.26,0,0,0,1.36-3.27,25.44,25.44,0,0,0,.56-8.65c-2.9.19-11.33.07-14.54-.18Z"/><path d="M208.82,45.37h-.06a.33.33,0,0,1-.29-.37h0c.68-3.54,3.41-6.34,6.14-9,2.48-2.52,5.06-5.13,5.86-8.26a17.25,17.25,0,0,0-1.1-9.26,12.25,12.25,0,0,0-4.66-5.78c-3.79-2.36-10.24-4-15.35-2.68-4.82,1.26-8.82,3.63-11.18,6.66a13,13,0,0,0-2.59,9.73,16.87,16.87,0,0,0,4.69,9.32c.36.39.74.78,1.12,1.15a23.61,23.61,0,0,1,2.19,2.5,9.7,9.7,0,0,1,1.89,5.41.36.36,0,0,1-.34.36.35.35,0,0,1-.36-.33h0a8.85,8.85,0,0,0-1.75-5,22.79,22.79,0,0,0-2.18-2.42c-.37-.38-.77-.77-1.14-1.17a17.65,17.65,0,0,1-4.82-9.75,13.79,13.79,0,0,1,2.7-10.25c2.45-3.16,6.55-5.62,11.55-6.92,5.3-1.36,12,.35,15.89,2.77A12.72,12.72,0,0,1,220,18.12a18.22,18.22,0,0,1,1.14,9.74c-.84,3.31-3.49,6-6,8.57s-5.29,5.37-5.92,8.69A.35.35,0,0,1,208.82,45.37Z"/><path d="M204.78,45.19h0a.35.35,0,0,1-.34-.36h0c0-3.33.17-6.81.51-10.42a16.89,16.89,0,0,1,.77-4.28,5.87,5.87,0,0,1-2.91-1.7c-.12-.13-.24-.27-.35-.41l-.47.76A4.35,4.35,0,0,1,198.84,31a3.84,3.84,0,0,1-1.07-.09,24.54,24.54,0,0,1,.74,2.8,46.71,46.71,0,0,1,1,11,.35.35,0,0,1-.35.34h0a.35.35,0,0,1-.34-.36h0a45.73,45.73,0,0,0-1-10.82,27.62,27.62,0,0,0-.89-3.2l-.49-.19a9.87,9.87,0,0,1-4.64-3.21,1.53,1.53,0,0,1-.14-1.88,1.72,1.72,0,0,1,1.79-.41,3.27,3.27,0,0,1,1.37.91,12.49,12.49,0,0,1,2.65,4.24,3.08,3.08,0,0,0,3.92-1.7c.23-.34.43-.69.63-1a8.67,8.67,0,0,1-1-3.8,5.83,5.83,0,0,1,1-4.25,1.12,1.12,0,0,1,1.12-.49,1.17,1.17,0,0,1,.6.45,5.1,5.1,0,0,1,.54,4,16.26,16.26,0,0,1-1.46,4,5,5,0,0,0,.49.62,5.18,5.18,0,0,0,2.7,1.49.16.16,0,0,1,.07-.16,9.21,9.21,0,0,1,3.66-3.86,1.63,1.63,0,0,1,1.07-.3,1,1,0,0,1,.82.55,2,2,0,0,1-.18,1.67,5.71,5.71,0,0,1-3.11,2.73,4.82,4.82,0,0,1-1.89.17,15.26,15.26,0,0,0-.76,4.18c-.31,3.54-.48,7-.51,10.36v.06a.39.39,0,0,1-.38.34ZM192.85,25.56a.82.82,0,0,0-.68.24c-.27.32,0,.83.18,1a9.74,9.74,0,0,0,4.19,2.9,11.35,11.35,0,0,0-2.25-3.42,2.63,2.63,0,0,0-1.07-.73A.92.92,0,0,0,192.85,25.56Zm13.83,4a4,4,0,0,0,1.37-.18A5,5,0,0,0,210.78,27a1.34,1.34,0,0,0,.14-1.05.29.29,0,0,0-.27-.18A1.2,1.2,0,0,0,210,26a8.64,8.64,0,0,0-3.38,3.53Zm-3.75-10.13a.56.56,0,0,0-.38.27,5.15,5.15,0,0,0-.88,3.75,8.28,8.28,0,0,0,.73,3.13,14.38,14.38,0,0,0,1.19-3.45,4.37,4.37,0,0,0-.42-3.48.41.41,0,0,0-.2-.17Z"/><path d="M223.44,13.28a.35.35,0,0,1-.42-.22h0a.34.34,0,0,1,.23-.42h0l4.34-2.39a.65.65,0,0,1,.79,0,.44.44,0,0,1,.16.34c0,.33,0,.35-5,2.73Z"/><path d="M195.8,5.3a.32.32,0,0,1-.31-.19L193.37.5a.37.37,0,0,1,.21-.47h0a.38.38,0,0,1,.47.18l2.13,4.58a.36.36,0,0,1-.17.46h0A.34.34,0,0,1,195.8,5.3Z"/><path d="M181.59,15.58h-.07l-4.78-1a.7.7,0,0,1-.6-.44.33.33,0,0,1,.1-.37c.2-.22.32-.32,5.46,1.08a.36.36,0,0,1,.28.44A.38.38,0,0,1,181.59,15.58Z"/><path d="M175.19,33.43a.34.34,0,0,1-.42-.24h0a.35.35,0,0,1,.28-.41h0l5-2.05a.33.33,0,0,1,.44.16h0a.33.33,0,0,1-.16.44h0l-5,2.09Z"/><path d="M210.37,5.22h-.13a.35.35,0,0,1-.2-.43L211.8.43a.35.35,0,0,1,.44-.22h0a.38.38,0,0,1,.19.46h0L210.71,5A.37.37,0,0,1,210.37,5.22Z"/><path d="M229.64,30.1h-.12l-4.78-1.88a.35.35,0,0,1-.22-.44h0a.35.35,0,0,1,.46-.21h0l4.78,1.87a.34.34,0,0,1,.24.41h0a.36.36,0,0,1-.37.25Z"/><path d="M24.7,140a24.55,24.55,0,0,1-17.8-7.76C3.42,128.57-.55,122.07.07,111.91A24.17,24.17,0,0,1,7.36,95.8,24.81,24.81,0,0,1,24.7,89.07,25.2,25.2,0,0,1,48,104c2.55,6.4,2.46,17.68-2.14,24.75A25.44,25.44,0,0,1,24.7,140Zm0-50.24c-13.14,0-23.2,9.34-24,22.19-.58,9.93,3.3,16.25,6.66,19.8a24,24,0,0,0,17.3,7.5,24.71,24.71,0,0,0,20.59-10.92c4.48-6.87,4.57-17.87,2-24.11h0A24.62,24.62,0,0,0,24.67,89.74Z"/><path fill="#fff" d="M48.14,102.12C51,99.61,53.88,97.25,56.9,95c-2.58-.34-5.1-.53-7.62-.68.64-2.53,1.12-5,1.59-7.51a103.84,103.84,0,0,0-8.65,6.69,30.92,30.92,0,0,0-.9,7.23C43.32,101.43,46,101.53,48.14,102.12Z"/><path d="M48.14,102.43H48a26.59,26.59,0,0,0-3.08-.6,23.32,23.32,0,0,1-3.78-.8.34.34,0,0,1-.23-.32,27.09,27.09,0,0,1,.67-6.28c.07-.32.13-.68.2-1a.28.28,0,0,1,.12-.2q4.19-3.62,8.68-6.8a.34.34,0,0,1,.47.08h0a.43.43,0,0,1,.06.27c-.44,2.34-.9,4.78-1.49,7.15,2.14.13,4.64.31,7.23.65a.35.35,0,0,1,.29.26.37.37,0,0,1-.13.37,109.84,109.84,0,0,0-8.74,7.08A.64.64,0,0,1,48.14,102.43Zm-6.5-2a23.25,23.25,0,0,0,3.42.68,27.79,27.79,0,0,1,3,.56c2.55-2.26,5.22-4.44,8-6.47-2.43-.3-4.78-.45-6.74-.57a.29.29,0,0,1-.26-.14A.33.33,0,0,1,49,94.2c.57-2.24,1-4.49,1.43-6.68-2.6,1.81-4.89,3.65-7.83,6.1-.06.29-.11.57-.17.87A27,27,0,0,0,41.64,100.43Z"/><path d="M25.16,132.07h-1a19.32,19.32,0,0,1-11.37-4.72,14.09,14.09,0,0,1-5.2-10.11,21.43,21.43,0,0,1,1-8.11,17.16,17.16,0,0,1,8-9.39A18.12,18.12,0,0,1,29,98h0c5,1.13,9.63,5.51,11.74,11.2a16.77,16.77,0,0,1-9.5,21.72h0a17,17,0,0,1-6.14,1.15Zm0-33.77a17.43,17.43,0,0,0-8.19,2,16.46,16.46,0,0,0-7.69,9,20.94,20.94,0,0,0-1,7.86,13.42,13.42,0,0,0,4.94,9.6,18.67,18.67,0,0,0,11,4.56,16.33,16.33,0,0,0,14-6.7,16.54,16.54,0,0,0,1.9-15.19c-2-5.46-6.47-9.67-11.27-10.74A16.94,16.94,0,0,0,25.16,98.3Z"/><path fill="#acd4f7" d="M27,106.15a9.72,9.72,0,0,0-6.55.88,9,9,0,0,0-4.23,4.84,10.91,10.91,0,0,0-.54,4.21,7.13,7.13,0,0,0,2.73,5.19,10.33,10.33,0,0,0,6,2.45,9.06,9.06,0,0,0,7.74-3.58,8.76,8.76,0,0,0,1-8.19A9.13,9.13,0,0,0,27,106.15Z"/><path d="M25,124.08h-.57a10.69,10.69,0,0,1-6.21-2.51,7.47,7.47,0,0,1-2.86-5.47,11.23,11.23,0,0,1,.57-4.34,9.32,9.32,0,0,1,4.41-5,10,10,0,0,1,6.78-.91h0a9.56,9.56,0,0,1,6.45,6,9.11,9.11,0,0,1-1.09,8.51A9.4,9.4,0,0,1,25,124.08Zm0-17.8a9.19,9.19,0,0,0-4.36,1.07,8.49,8.49,0,0,0-4.1,4.64,10.73,10.73,0,0,0-.53,4.09,6.8,6.8,0,0,0,2.6,4.93,10.09,10.09,0,0,0,5.8,2.38,8.68,8.68,0,0,0,7.43-3.47,8.39,8.39,0,0,0,1-7.86,8.86,8.86,0,0,0-5.95-5.55h0A9.22,9.22,0,0,0,25,106.28Z"/><path d="M25.36,114.43a.36.36,0,0,1-.26-.11.35.35,0,0,1,0-.49h0c9.3-8.27,19.11-16.23,29.1-23.62a.36.36,0,0,1,.48.14.35.35,0,0,1-.06.41h0c-10,7.39-19.79,15.32-29,23.58A.26.26,0,0,1,25.36,114.43Z"/><path d="M13.07,124.43H13a62.67,62.67,0,0,1-3.42-8,.12.12,0,1,1,.17-.17v0a63.23,63.23,0,0,0,3.41,8,.14.14,0,0,1,0,.15h0Z"/><path d="M17.59,129.15a.11.11,0,0,1-.1-.06A116.62,116.62,0,0,1,10,111.43a.11.11,0,0,1,.06-.14h0a.1.1,0,0,1,.13.06h0A117,117,0,0,0,17.71,129a.14.14,0,0,1-.05.16Z"/><path d="M19.88,129.74a.09.09,0,0,1-.08-.05c-3-6.82-5.87-13.81-8.46-20.81a.12.12,0,0,1,.06-.15h0a.12.12,0,0,1,.15.07h0c2.58,7,5.46,14,8.45,20.81a.12.12,0,0,1-.05.15h0Z"/><path d="M14.77,111.14a.12.12,0,0,1-.11-.07c-.8-1.72-1.48-3.5-2.17-5.26a.1.1,0,0,1,0-.14h0a.12.12,0,0,1,.15.07h0c.64,1.77,1.37,3.54,2.15,5.26a.14.14,0,0,1,0,.15h0Z"/><path d="M16.34,108.77a.12.12,0,0,1-.11-.07l-2-4.85a.09.09,0,0,1,0-.13h0a.08.08,0,0,1,.1,0s0,0,0,0h0l2,4.84a.12.12,0,0,1,0,.14h0Z"/><path d="M18,106.43c-.05,0-.09,0-.1-.07l-1.76-4.22a.11.11,0,0,1,.07-.14h0a.11.11,0,0,1,.13,0l1.76,4.22a.13.13,0,0,1-.06.15Z"/><path d="M20.52,105a.11.11,0,0,1-.11-.08,40.39,40.39,0,0,1-1.62-4.25.12.12,0,0,1,.06-.15h0a.1.1,0,0,1,.13.06h0c.47,1.43,1,2.85,1.61,4.24a.12.12,0,0,1,0,.14h0Z"/><path d="M23,104.09a.1.1,0,0,1-.1-.07,32.79,32.79,0,0,1-1.47-4.1.11.11,0,0,1,.07-.14h0a.1.1,0,0,1,.13.06h0a31,31,0,0,0,1.42,4.1.11.11,0,0,1,0,.13h0Z"/><path d="M25.69,104.17a.1.1,0,0,1-.11-.08l-1.33-4.54a.12.12,0,0,1,.06-.15h0a.1.1,0,0,1,.13,0,0,0,0,0,1,0,0h0L25.79,104a.14.14,0,0,1-.08.15h0Z"/><path d="M28.68,105.53a.12.12,0,0,1-.09-.1L26.85,100a.1.1,0,0,1,0-.13h0a.1.1,0,0,1,.14,0h0l1.73,5.6a.13.13,0,0,1-.07.14h0Z"/><path d="M32.13,106.84a.12.12,0,0,1-.11-.07l-2.35-6.25a.1.1,0,0,1,0-.13h0a.1.1,0,0,1,.14,0h0l2.35,6.28a.12.12,0,0,1-.07.15Z"/><path d="M23,130.67a.11.11,0,0,1-.11-.06,47,47,0,0,1-2.73-6,.12.12,0,0,1,.06-.15h0a.1.1,0,0,1,.14,0h0a42.73,42.73,0,0,0,2.73,5.91.12.12,0,0,1,0,.16Z"/><path d="M25.26,130.55a.09.09,0,0,1-.1-.06,28.44,28.44,0,0,1-2.57-5.33.11.11,0,0,1,.05-.15h0a.12.12,0,0,1,.15.07h0a27.63,27.63,0,0,0,2.58,5.3.12.12,0,0,1,0,.16Z"/><path d="M27.59,130.22a.12.12,0,0,1-.11-.07,50.3,50.3,0,0,1-2.17-4.86.12.12,0,0,1,.05-.15h0a.1.1,0,0,1,.14,0h0c.69,1.64,1.37,3.27,2.19,4.85a.14.14,0,0,1,0,.15h0Z"/><path d="M33.49,104.43a.11.11,0,0,1-.11-.08l-.92-2.61a.12.12,0,0,1,.17-.17h0l.92,2.62a.12.12,0,1,1,0,.24Z"/><path d="M39.83,118.51a.11.11,0,0,1-.11-.06c-1.64-3.54-3.19-7.13-4.67-10.73a.12.12,0,0,1,.06-.15.14.14,0,0,1,.16.07c1.44,3.58,3,7.19,4.63,10.71a.13.13,0,0,1-.06.15Z"/><path d="M40.12,113.43a.11.11,0,0,1-.11-.06c-1.21-2.26-2.34-4.61-3.36-7a.12.12,0,0,1,0-.16h0a.12.12,0,0,1,.15.06c1,2.36,2.15,4.7,3.36,7a.15.15,0,0,1,0,.16Z"/><path d="M38.86,121.78a.11.11,0,0,1-.11-.06l-5.36-12.36a.08.08,0,0,1,0-.1s0,0,0,0h0a.1.1,0,0,1,.14,0h0l5.32,12.35a.14.14,0,0,1,0,.15Z"/><path d="M37.59,124.06a.11.11,0,0,1-.11-.06l-2.73-5.88a.11.11,0,0,1,0-.14l0,0h0a.12.12,0,0,1,.16,0h0l2.73,5.87a.15.15,0,0,1,0,.16Z"/><path d="M35.88,125.78a.14.14,0,0,1-.1-.07l-2.33-5a.11.11,0,0,1,0-.15h0a.1.1,0,0,1,.14,0h0l2.32,5a.13.13,0,0,1-.06.15Z"/><path d="M34.14,127.2a.12.12,0,0,1-.11-.07l-2-4.26a.12.12,0,0,1,0-.16h0a.12.12,0,0,1,.16,0h0l2,4.25a.12.12,0,0,1,0,.14h0Z"/><path d="M32.2,128.43a.1.1,0,0,1-.1-.07l-2-4.24a.12.12,0,0,1,0-.16h0a.12.12,0,0,1,.16.05h0l2,4.27a.12.12,0,0,1,0,.14H32.2Z"/><path d="M29.88,129.93c-.05,0-.09,0-.1-.07l-2-4.34a.12.12,0,0,1,0-.16h0a.1.1,0,0,1,.14,0h0l2,4.34a.14.14,0,0,1-.05.16Z"/><g opacity=".13"><path d="M50.32,94.88c-.42-.63-1.06-.43-1.54,0a11.16,11.16,0,0,1-1.37,1c-2,1.46-4,2.73-5.46,4a.75.75,0,0,0,.06,1.06l0,0A.78.78,0,0,0,43,101c1.76-1.37,3.62-2.61,5.46-3.9.48-.32.94-.68,1.43-1A.89.89,0,0,0,50.37,95h0A.5.5,0,0,0,50.32,94.88Z"/></g><g opacity=".13"><path d="M34.2,113.82a2.52,2.52,0,0,0-.24-1.3.84.84,0,0,0-1.17-.18h0c-.5.37-.3,1.08-.41,1.6h0a11.77,11.77,0,0,1-.43,1.65,10.78,10.78,0,0,1-2.43,3.57,10,10,0,0,1-3.9,2,6.88,6.88,0,0,1-3.06.1h0a6,6,0,0,1-3.87-1.72.85.85,0,0,0-1.18,0,.82.82,0,0,0-.09,1.07h0l.1.1a9.68,9.68,0,0,0,6.15,2.63,9,9,0,0,0,1.27,0v.28c.37.8.82.51,1.37.43a9.4,9.4,0,0,0,1.28-.27,7.33,7.33,0,0,0,3.53-2.18,10,10,0,0,0,3.09-7.7Z"/></g><g opacity=".13"><path d="M41.3,114.1a11.33,11.33,0,0,0-.18-1.41.92.92,0,0,0-.42-.74.82.82,0,0,0-1.11.31.79.79,0,0,0-.08.6,8.72,8.72,0,0,1,0,3.22,26.06,26.06,0,0,1-1.28,3.86c-.09.25-.2.5-.31.74a4.6,4.6,0,0,1-.25.61,21,21,0,0,1-1.31,2.37,20.54,20.54,0,0,1-4.5,4.57c-1.16.87-1,.5-2,1.12l.34-.19-.53.18a23,23,0,0,1-4.53,1.31h-.31a11.37,11.37,0,0,1-1.43,0,2.32,2.32,0,0,1-.59-.05.61.61,0,0,0-.69.48h0a.59.59,0,0,0,.45.68c.29.06.58.12.88.16h.08a9.05,9.05,0,0,0,3.55-.29c1.17-.28,2.34-.61,3.49-1h-.12a6,6,0,0,0,1.37-.4,17,17,0,0,0,6.25-5.3,13,13,0,0,0,1.33-2.5,5.09,5.09,0,0,0,.49-1.37v.28a23.23,23.23,0,0,0,1.27-4.16,1.13,1.13,0,0,1,0,.26A11.35,11.35,0,0,0,41.3,114.1Z"/></g><g opacity=".13"><path d="M49.25,113.89a.76.76,0,0,0-.77-.73.71.71,0,0,0-.5.21.66.66,0,0,0-.21.51A14.32,14.32,0,0,1,47,119a24.81,24.81,0,0,1-1.87,4.85c-.68,1.24-1.25,2.53-2,3.75a32.1,32.1,0,0,1-3.14,4.2c-2.18,2.2-3.79,3.77-6.22,4.56a27.09,27.09,0,0,1-7.15,2.16H26a.62.62,0,1,0,0,1.24h0a16.64,16.64,0,0,0,2.73-.29A26.15,26.15,0,0,0,33.4,138a19.23,19.23,0,0,0,3.1-1.23A16,16,0,0,0,40.14,134c.58-.5,1.13-1,1.66-1.57a.59.59,0,0,0,.76.38h0a.76.76,0,0,0,.23-.13,22.8,22.8,0,0,0,4-5.86,19.27,19.27,0,0,0,1.2-3.2c0-.39.29-.84.08-1.22a.55.55,0,0,0-.16-.18,25.14,25.14,0,0,0,1.33-6.59C49.27,115.06,49.27,114.43,49.25,113.89Z"/></g><path d="M1240.77,136.43c-14.07,0-22.58-.06-37.11-.25a.41.41,0,0,1-.39-.39c-.42-26.41-1-76.22.18-113a.4.4,0,0,1,.4-.38h0c12.24,0,28.41-.12,45.53-.24,33.24-.23,70.91-.5,101.22-.14a.38.38,0,0,1,.39.37h0c.28,24.91.19,50.55.09,75.34,0,12.5-.09,25.43-.09,38.15a.4.4,0,0,1-.4.4h0c-41.22,0-67,0-85.84.07Zm-36.72-1c20.88.28,29.43.27,60.74.22,18.77,0,44.47-.07,85.45-.07,0-12.62.06-25.41.1-37.78.09-24.67.18-50.17-.09-74.94-30.25-.35-67.74-.08-100.83.14-16.94.13-33,.24-45.16.24-1.1,36.55-.59,85.78-.17,112.19Z"/><path d="M1350.75,35.86h0c-34.49-.88-101.9-.87-142.16-.88h-4.91a.38.38,0,0,1-.4-.36v0h0a.4.4,0,0,1,.4-.4h4.9c40.28,0,107.68,0,142.18.88a.39.39,0,0,1,.31.45h0a.38.38,0,0,1-.31.31Z"/><path d="M1342.59,32.5a3.66,3.66,0,1,1,3.64-3.68h0a3.66,3.66,0,0,1-3.64,3.68Zm0-6.51a2.86,2.86,0,1,0,2.85,2.87h0A2.89,2.89,0,0,0,1342.59,26Z"/><path d="M1328.39,32.5a3.66,3.66,0,1,1,3.65-3.67h0a3.66,3.66,0,0,1-3.65,3.67Zm0-6.51a2.86,2.86,0,1,0,2.85,2.87h0a2.86,2.86,0,0,0-2.85-2.87Z"/><path d="M1313.47,32.5a3.66,3.66,0,1,1,3.64-3.68h0a3.66,3.66,0,0,1-3.64,3.68Zm0-6.51a2.86,2.86,0,1,0,2.85,2.87h0A2.89,2.89,0,0,0,1313.47,26Z"/><path d="M1219.48,80a.67.67,0,0,1-.2,0,.4.4,0,0,1-.15-.54c5.34-9.27,10.35-18.37,15.3-27.81a.39.39,0,0,1,.34-.21.37.37,0,0,1,.35.2l.06.09c3,5.08,6,10.33,9.09,15.68,5.64-6.54,11.25-13,17.19-19.76l1.47-1.69a.4.4,0,0,1,.58,0,.27.27,0,0,1,.09.12c2.67,6.1,5.45,12.39,8.41,18.93l10.37-9.58a1.65,1.65,0,0,1,.91-.52c.87-.14,1.44.77,1.63,1.08,2.17,3.52,4.22,7.12,6.22,10.6l3.34,5.79c4-7.27,8.21-14.52,12.57-21.56a.4.4,0,0,1,.71.38h0c-4.49,7.22-8.82,14.68-12.9,22.13a.39.39,0,0,1-.34.21.42.42,0,0,1-.35-.19c-1.2-2.06-2.41-4.17-3.69-6.41-2-3.47-4-7.06-6.23-10.58-.31-.51-.59-.78-.83-.72a1.15,1.15,0,0,0-.48.33l-10.79,10a.38.38,0,0,1-.35.09.39.39,0,0,1-.28-.22c-3-6.52-5.74-12.8-8.41-18.88L1262,48.13c-6.06,6.94-11.79,13.48-17.55,20.18a.4.4,0,0,1-.34.14.4.4,0,0,1-.3-.2c-3.07-5.34-6.12-10.57-9.07-15.64-4.85,9.22-9.75,18.12-15,27.2A.36.36,0,0,1,1219.48,80Z"/><path d="M1232.26,80.19a.39.39,0,0,1-.35-.18l-1.68-2.69a.37.37,0,0,1,.13-.5h0a.4.4,0,0,1,.49.11l1.69,2.69a.41.41,0,0,1-.1.54.48.48,0,0,1-.23.07Zm10.84,0a.45.45,0,0,1-.27-.1.4.4,0,0,1,0-.56h0L1245,77.2a.41.41,0,0,1,.56.07.42.42,0,0,1,0,.48h0l-2.17,2.34a.43.43,0,0,1-.29.07Zm-9.51-1.26h-.14a.41.41,0,0,1-.21-.51h0c.43-1,.88-1.93,1.34-2.89a.36.36,0,0,1,.47-.21h0a.37.37,0,0,1,.2.48v0h0c-.45,1-.89,1.92-1.32,2.87a.34.34,0,0,1-.37.17Zm51.76-.21a.4.4,0,0,1-.34-.2l-.78-1.47a.37.37,0,0,1,.11-.51h0a.41.41,0,0,1,.54.15l.78,1.47a.39.39,0,0,1-.14.53h0a.61.61,0,0,1-.19,0Zm-44-.78a.42.42,0,0,1-.34-.18c-.59-.94-1.17-1.83-1.72-2.67a.37.37,0,0,1,.07-.51h0a.4.4,0,0,1,.55.11h0c.55.84,1.14,1.74,1.73,2.68a.39.39,0,0,1-.11.54h-.21Zm6-2.41a.38.38,0,0,1-.39-.39h0a.36.36,0,0,1,.12-.28l2.16-2.34a.4.4,0,0,1,.56,0h0a.4.4,0,0,1,0,.56h0l-2.12,2.35a.39.39,0,0,1-.32.13Zm-18.57-.7a.39.39,0,0,1-.34-.19c-.56-.89-1.12-1.79-1.69-2.68a.39.39,0,0,1,.11-.54h0a.4.4,0,0,1,.54.12h0l1.7,2.68a.4.4,0,0,1-.12.55.41.41,0,0,1-.22,0Zm54.18-.37a.39.39,0,0,1-.35-.21l-1.51-2.82a.38.38,0,0,1,.15-.53h0a.4.4,0,0,1,.54.15h0l1.55,2.78a.39.39,0,0,1-.13.53h0a.61.61,0,0,1-.19,0Zm-46.71-1.29a.28.28,0,0,1-.18,0,.36.36,0,0,1-.19-.47v0h0c.28-.56.57-1.12.86-1.67a.43.43,0,0,1,.55-.14h0a.32.32,0,0,1,.14.14c.22.37.46.73.69,1.1a.4.4,0,0,1,0,.56.39.39,0,0,1-.55-.06h0v-.18c-.12-.17-.23-.35-.34-.52l-.54,1a.39.39,0,0,1-.35.19Zm15.37-2.33a.54.54,0,0,1-.27-.11.43.43,0,0,1,0-.56l2.2-2.31a.4.4,0,0,1,.56,0h0a.4.4,0,0,1,0,.56h0L1252,70.76a.41.41,0,0,1-.31.14Zm-26.19-1.41a.35.35,0,0,1-.33-.18l-1.72-2.67a.42.42,0,0,1,.12-.56.39.39,0,0,1,.54.11v0l1.72,2.68a.39.39,0,0,1-.12.53h0a.32.32,0,0,1-.21.08Zm54.51-.57a.41.41,0,0,1-.33-.2l-1.56-2.78a.4.4,0,0,1,.17-.54h0a.38.38,0,0,1,.52.13h0l1.55,2.78a.4.4,0,0,1-.15.54.42.42,0,0,1-.18.11ZM1256,66.14a.45.45,0,0,1-.27-.1.43.43,0,0,1,0-.56l2.14-2.34a.4.4,0,1,1,.57.57l-2.14,2.34a.49.49,0,0,1-.3.14Zm-33.94-2a.39.39,0,0,1-.34-.19L1220,61.28a.38.38,0,0,1,.09-.53h0a.41.41,0,0,1,.54.11h0l1.72,2.67a.4.4,0,0,1-.11.55h0a.36.36,0,0,1-.2.06Zm54.87-.78a.4.4,0,0,1-.34-.2l-1.56-2.73a.4.4,0,0,1,.21-.52.39.39,0,0,1,.49.14l1.55,2.78a.4.4,0,0,1-.13.54h0a.38.38,0,0,1-.21,0Zm-16.59-1.84a.54.54,0,0,1-.27-.11.4.4,0,0,1,0-.56l2.14-2.33a.39.39,0,0,1,.55,0h0a.4.4,0,0,1,0,.56l-2.14,2.35a.36.36,0,0,1-.35.11Zm13.49-3.73a.37.37,0,0,1-.35-.2l-1.56-2.78a.38.38,0,0,1,.13-.52h0a.41.41,0,0,1,.55.14h0l1.55,2.79a.38.38,0,0,1-.13.52h0a.41.41,0,0,1-.22,0Zm-9.26-1a.38.38,0,0,1-.39-.39h0a.36.36,0,0,1,.12-.28l2.15-2.34a.4.4,0,0,1,.56,0,.4.4,0,0,1,0,.54l-2.15,2.34a.38.38,0,0,1-.35.11Zm6.17-4.6a.35.35,0,0,1-.35-.21l-.46-.82-.77.82a.41.41,0,0,1-.56.1.4.4,0,0,1-.09-.56h0l.06-.09,1.14-1.23a.4.4,0,0,1,.34-.13.36.36,0,0,1,.3.2l.72,1.31a.37.37,0,0,1-.11.51h0a.28.28,0,0,1-.22,0Z"/><path d="M1316.26,95h0l-28.67-.62a.38.38,0,0,1-.38-.38v0h0a.4.4,0,0,1,.4-.39l28.62.63a.4.4,0,0,1,.31.46h0a.41.41,0,0,1-.31.31Z"/><path d="M1283.1,104.32a.4.4,0,0,1-.4-.4h0a.4.4,0,0,1,.4-.4h20.13a.39.39,0,0,1,.31.45h0a.38.38,0,0,1-.31.31l-20.13.06Z"/><path d="M1309.9,114.86c-7.44,0-14.94-.16-22.35-.48a.38.38,0,0,1-.38-.38v0h0a.38.38,0,0,1,.38-.38h0c9.29.4,18.69.55,28,.44h0a.4.4,0,0,1,.39.4h0a.4.4,0,0,1-.39.4h0C1313.69,114.86,1311.81,114.86,1309.9,114.86Z"/><path d="M1476.86,191.68a.38.38,0,0,1-.35-.23.41.41,0,0,1,.18-.53c6.75-3.25,11.89-6.93,15.71-11.24,4.62-5.22,7.21-11.41,7.29-17.45a.4.4,0,0,1,.79-.13h0a.29.29,0,0,1,0,.13h0a28.08,28.08,0,0,1-7.49,18c-3.89,4.39-9.1,8.13-16,11.43Z"/><path d="M1481.88,192.5a9.41,9.41,0,0,1-2.24-.34c-.43-.09-.87-.19-1.29-.25q-.93-.1-1.86-.12a.4.4,0,0,1-.37-.26.41.41,0,0,1,.11-.43,13.28,13.28,0,0,0,3.61-5.17.41.41,0,0,1,.51-.25h0a.41.41,0,0,1,.26.5h0a13.89,13.89,0,0,1-3.11,4.81,5.55,5.55,0,0,1,1,.09c.46.07.91.17,1.35.27a5.91,5.91,0,0,0,3.12.17.39.39,0,0,1,.49.24h0a.36.36,0,0,1-.2.48h0A4,4,0,0,1,1481.88,192.5Z"/><path d="M202,172.7h-.51a12.75,12.75,0,0,1-9.18-5.21,26,26,0,0,1-4.43-9.69V145.5c0-7.84,0-15.25-.15-22.81a.29.29,0,0,1,.11-.26.33.33,0,0,1,.27-.09c4.32.37,15.8,1.36,20.09,3.64a16.81,16.81,0,0,1,8.35,9.77h0c.88,2.91.55,6,.23,9-.14,1.28-.28,2.61-.32,3.89-.15,5-.32,10.56-2.56,15.43C211.89,168.43,207.51,172.7,202,172.7Zm-13.48-15a25.29,25.29,0,0,0,4.28,9.39,12.17,12.17,0,0,0,8.67,4.94c5.34.28,9.71-3.94,11.69-8.25,2.16-4.74,2.33-10.24,2.49-15.16a34.68,34.68,0,0,1,.32-3.94c.31-2.91.64-5.92-.21-8.7h0a16.08,16.08,0,0,0-8-9.35c-4.05-2.14-14.91-3.13-19.45-3.53.11,7.43.13,14.72.15,22.44,0,3.93.05,8,.05,12.13Z"/><path d="M108.59,222.7c-13.07,0-25.15-.75-34.81-1.62-21-1.91-37.54-5.08-40.55-6.25a.34.34,0,0,1-.2-.39q2-29.31,1.1-58.7a.31.31,0,0,1,.13-.28.33.33,0,0,1,.33,0A323.48,323.48,0,0,0,152,162.74a.38.38,0,0,1,.39.29h0c.6,9.17,1.07,18.16,1.41,26.72h0c.38,9.68.62,19.42.68,29a.36.36,0,0,1-.3.35l-6,.89A271.58,271.58,0,0,1,108.59,222.7Zm-74.9-8.44c3.53,1.23,19.72,4.27,40.12,6.15,19,1.72,47.34,2.94,74.22-1l5.66-.85c-.09-9.44-.33-19.11-.68-28.66-.34-8.45-.8-17.3-1.37-26.34a328.94,328.94,0,0,1-58.7,1.65,323.3,323.3,0,0,1-58.12-8.86C35.37,175.85,35,195.36,33.69,214.26Z"/><path fill="#fff" d="M217.26,188.63c-.59-9.8-1.19-19.6-.93-29.41.21-7.8,1-15.65-.11-23.38.41,4.33-2.41,8.73-6,11.81-6.41,5.53-15.08,8-23.5,9.9q-12.12,2.79-24.47,4.63c-12.35,1.84,0,0,0,0,.27,5.09.58,10.19.83,15.29q.64,13.65,1,27.3c.11,4.28.19,8.55.26,12.84A242.34,242.34,0,0,0,190.59,212c10.08-2.86,20.32-7,26.94-15.12C217.59,193.86,217.4,191.25,217.26,188.63Z"/><path d="M164.36,218a.35.35,0,0,1-.22-.08.33.33,0,0,1-.13-.26c-.06-4.25-.15-8.56-.25-12.84-.22-8.62-.56-17.54-1-27.26-.15-3.1-.33-6.25-.5-9.29l-.33-6h0a.35.35,0,0,1,.29-.39c8.19-1.23,16.45-2.79,24.45-4.62s16.82-4.22,23.34-9.8c4-3.46,6.2-7.77,5.85-11.52a.35.35,0,0,1,.36-.33h0a.35.35,0,0,1,.32.26c.82,6,.56,12.13.31,18.06-.08,1.77-.15,3.59-.2,5.38-.26,9.8.35,19.75.93,29.35h0c.15,2.56.32,5.22.28,8.26a.49.49,0,0,1-.08.21c-7.07,8.71-18.2,12.71-27.1,15.26A240.11,240.11,0,0,1,164.42,218Zm-1.7-55.55c.1,1.91.21,3.81.31,5.72.17,3.06.35,6.21.5,9.31.46,9.72.79,18.65,1,27.3.11,4.14.19,8.32.25,12.44a239.21,239.21,0,0,0,25.79-5.57c8.77-2.49,19.72-6.44,26.69-14.92,0-3-.13-5.57-.29-8.09h0c-.58-9.63-1.19-19.6-.93-29.43.05-1.79.13-3.62.2-5.38a124.74,124.74,0,0,0,0-14.47,17.69,17.69,0,0,1-5.76,8.54c-6.62,5.72-15.7,8.15-23.64,10S170.77,161.25,162.66,162.43Z"/><path d="M76.33,131.9H74.21c-4.33-.09-9.15-.62-12-3.88a8.67,8.67,0,0,1-2-6.52,12.36,12.36,0,0,1,4.2-8.36c.25-.22.52-.44.79-.69,1.62-1.36,3.3-2.73,3.13-4.59a5.69,5.69,0,0,0-.46-1.52c-.12-.31-.25-.62-.34-.94-1.06-3.58,1.7-7.2,4.71-9a35,35,0,0,1,4.26-2.09,27.89,27.89,0,0,0,5.09-2.78c4.91-3.58,7-10.72,4.93-17a.35.35,0,0,1,.2-.43h0a12.73,12.73,0,0,1,10,.36,16.39,16.39,0,0,1,7.38,6.74c2.84,4.85,3.81,11,3.06,19.25a47.17,47.17,0,0,1-4.1,16.55,26.13,26.13,0,0,1-11.71,12.22C86.59,131.43,81.43,131.9,76.33,131.9ZM87.21,74.75c2,6.48-.21,13.73-5.29,17.4a27.88,27.88,0,0,1-5.23,2.78,33.56,33.56,0,0,0-4.14,2c-2.79,1.72-5.36,5-4.41,8.25.09.3.21.59.32.89a6.24,6.24,0,0,1,.52,1.74c.21,2.23-1.69,3.8-3.37,5.19l-.78.68a11.81,11.81,0,0,0-3.94,7.87,8,8,0,0,0,1.85,6c2.65,3,7.08,3.55,11.48,3.64,5.66.12,11.61-.12,16.71-2.57a25.3,25.3,0,0,0,11.39-11.91,46,46,0,0,0,4.09-16.28c.74-8.13-.2-14.12-3-18.82C100.46,76.43,93.75,72.36,87.21,74.75Z"/><path fill="#acd4f7" d="M134.11,93.35a25.71,25.71,0,0,0-4-10c-1.79-2.45-4.2-4.36-6.2-6.67-6.06-7.1-7.18-17-8.06-26.35a209.74,209.74,0,0,0-10.14,35.34,21.14,21.14,0,0,0-1.86-4.18c-3.3-5.6-10.41-9.58-17.07-7,2,6.14.16,13.55-5,17.35-2.83,2-6.35,3-9.34,4.78s-5.56,5.31-4.58,8.68a16,16,0,0,1,.82,2.54c.22,2.38-2.24,4-4,5.55-4.1,3.52-5.66,10.3-2.13,14.34,2.78,3.19,7.5,3.67,11.74,3.76,5.74.11,11.69-.13,16.87-2.61a25.59,25.59,0,0,0,11.55-12.06,46.86,46.86,0,0,0,2.08-5.39c1.77,5.08,5.65,9.59,10.83,10.8,6.6,1.53,13.62-2.87,16.79-8.87S135.48,100,134.11,93.35Z"/><path d="M118.32,122.82a12.06,12.06,0,0,1-2.81-.33c-5.47-1.29-10-6.38-11.66-13-1.46-6-.6-12.15.4-18a211.66,211.66,0,0,1,11.34-41.36.36.36,0,0,1,.38-.22.35.35,0,0,1,.29.31c1,10.33,2.22,19.43,8,26.16a33.91,33.91,0,0,0,2.62,2.74,32.72,32.72,0,0,1,3.59,3.94,25.78,25.78,0,0,1,4,10.12c1.66,8,1.08,14.83-1.73,20.22C129.74,119.16,123.89,122.82,118.32,122.82Zm-2.66-71a211.55,211.55,0,0,0-10.73,39.87c-1,5.75-1.85,11.84-.41,17.69,1.55,6.33,5.92,11.21,11.14,12.45a11.86,11.86,0,0,0,2.66.31c5.34,0,10.92-3.51,13.77-9,2.73-5.24,3.3-11.89,1.67-19.76a25.13,25.13,0,0,0-3.92-9.85,33,33,0,0,0-3.52-3.86c-.89-.89-1.83-1.8-2.66-2.78-5.62-6.58-7-15.26-8-25.11Z"/><path fill="#fff" d="M117.21,100.82a113.65,113.65,0,0,1-3.7-14.89,21.66,21.66,0,0,0-6.58-.11,3.64,3.64,0,0,0-2.6,1.18,3.34,3.34,0,0,0-.48,1.69l-1.26,12.07a1.51,1.51,0,0,0,1,1.85A11.8,11.8,0,0,0,117.21,100.82Z"/><path d="M109.1,104.43a11.76,11.76,0,0,1-5.74-1.47,1.86,1.86,0,0,1-1.2-2.19l1.32-12.08a3.68,3.68,0,0,1,.54-1.85,4,4,0,0,1,2.84-1.33,22.07,22.07,0,0,1,6.69.12.34.34,0,0,1,.28.28,111.73,111.73,0,0,0,3.76,14.85.36.36,0,0,1-.09.36A12,12,0,0,1,109.1,104.43ZM109.83,86a21.32,21.32,0,0,0-2.88.19,3.5,3.5,0,0,0-2.37,1,3.12,3.12,0,0,0-.41,1.55l-1.29,12.08a1.67,1.67,0,0,0,0,.77,1.69,1.69,0,0,0,.82.74,11.55,11.55,0,0,0,13.12-1.59,112.51,112.51,0,0,1-3.61-14.47,21,21,0,0,0-3.36-.27Z"/><path fill="#fff" d="M118.52,51.88c.73,4.49,1.24,9.3,3.67,13.26,1.32,2.16,4.89,14.11-3.65,20.42A19.42,19.42,0,0,1,102,88.69c-4.17-1.06-10.42-6.4-11.6-13.26-2.67,1.7-6.15.61-7-2a3.76,3.76,0,0,1,2.4-4.35,3.41,3.41,0,0,1,2.83.09,42,42,0,0,0-1.9-10.12c2.19-4.65,7-8.13,12-10.54A20.83,20.83,0,0,1,104,46.66C109.33,45.77,117.75,47.25,118.52,51.88Z"/><path d="M107.11,89.66a20.66,20.66,0,0,1-5.19-.69c-4.1-1-10.38-6.14-11.79-13a5.48,5.48,0,0,1-4.31.31,4.41,4.41,0,0,1-2.73-2.73,4,4,0,0,1,.42-3,3.69,3.69,0,0,1,2.21-1.83,3.59,3.59,0,0,1,2.52-.07,41,41,0,0,0-1.84-9.5.39.39,0,0,1,0-.26c2.48-5.24,8-8.72,12.18-10.7A20.38,20.38,0,0,1,104,46.34c3.75-.68,9.44-.12,12.61,2.14a5.12,5.12,0,0,1,2.27,3.33h0l.27,1.65c.62,4,1.26,8.06,3.35,11.49,1.62,2.64,4.78,14.58-3.74,20.88A19.49,19.49,0,0,1,107.11,89.66ZM90.39,75.09h.14a.34.34,0,0,1,.2.26c1.14,6.77,7.44,12,11.36,13a19,19,0,0,0,16.23-3c8.71-6.43,4.47-18.47,3.57-20-2.17-3.54-2.82-7.71-3.46-11.74L118.17,52h0a4.46,4.46,0,0,0-2-2.88c-3-2.14-8.48-2.64-12.09-2a19.78,19.78,0,0,0-5.18,1.8c-4,1.92-9.37,5.26-11.79,10.24A42.46,42.46,0,0,1,89,69.24a.34.34,0,0,1-.13.3.38.38,0,0,1-.33,0,3,3,0,0,0-2.62-.08,2.9,2.9,0,0,0-1.77,1.48,3.16,3.16,0,0,0-.38,2.49A3.68,3.68,0,0,0,86,75.74a4.79,4.79,0,0,0,4.15-.49.34.34,0,0,1,.19-.09Z"/><path d="M100.71,74.92a6.17,6.17,0,0,1-3.88-1.37,7.44,7.44,0,0,1-2.73-4.64h0c-.68-3.88,1.69-7.51,5.2-8.11s6.91,2,7.56,6a7.49,7.49,0,0,1-1,5.27,6.16,6.16,0,0,1-4.18,2.83A6.29,6.29,0,0,1,100.71,74.92Zm-5.89-6.14A6.73,6.73,0,0,0,97.26,73a5.37,5.37,0,0,0,7.56-.68c.16-.22.32-.45.47-.68a6.91,6.91,0,0,0,.92-4.78c-.62-3.5-3.62-5.92-6.76-5.42s-5.21,3.8-4.63,7.29Z"/><path d="M118.29,70.43a6.28,6.28,0,0,1-3.88-1.37,7.64,7.64,0,0,1-1.67-9.92,6.12,6.12,0,0,1,4.18-2.83c3.51-.59,6.91,2,7.56,6a7.58,7.58,0,0,1-1,5.28,6.16,6.16,0,0,1-4.18,2.84A5.68,5.68,0,0,1,118.29,70.43Zm-.36-13.53a6.11,6.11,0,0,0-.86.06,5.52,5.52,0,0,0-3.71,2.53,7,7,0,0,0,1.52,9,5.37,5.37,0,0,0,7.55-.69,6.32,6.32,0,0,0,.47-.68,6.92,6.92,0,0,0,.93-4.78,6.31,6.31,0,0,0-5.9-5.46Z"/><circle fill="#acd4f7" cx="86.28" cy="36.42" r="11.51"/><path d="M85.87,48.29A11.86,11.86,0,0,1,74,36.43h0A11.86,11.86,0,1,1,85.88,48.32h0Zm0-23A11.15,11.15,0,0,0,74.7,36.42h0A11.15,11.15,0,0,0,85.81,47.62h0A11.17,11.17,0,0,0,97,36.45v0h0a11.18,11.18,0,0,0-11.15-11.2Z"/><path d="M176.86,84.28h-.07a.34.34,0,0,1-.27-.4h0A149.66,149.66,0,0,0,179,65.61a6.37,6.37,0,0,0-.17-2.57,2,2,0,0,0-1.67-1.36h0c-.62,0-1.23.4-1.94,1.27a15.12,15.12,0,0,0-2.52,4.48,2.8,2.8,0,0,0-.25,1.51c.09.41.45.81.86.76a1.44,1.44,0,0,0,.68-.33,9.17,9.17,0,0,0,2.5-3,.31.31,0,0,1,.43-.13h0a.37.37,0,0,1,.16.46A9.83,9.83,0,0,1,174.37,70a2,2,0,0,1-1,.48,1.59,1.59,0,0,1-1.6-1.31,3.3,3.3,0,0,1,.25-1.91,15.06,15.06,0,0,1,2.63-4.69A3.34,3.34,0,0,1,177.24,61h0a2.67,2.67,0,0,1,2.3,1.84,6.91,6.91,0,0,1,.2,2.86,149.27,149.27,0,0,1-2.54,18.36A.35.35,0,0,1,176.86,84.28Z"/><path d="M171.13,69.86a1.18,1.18,0,0,1-.63-.18,1.91,1.91,0,0,1-.84-1.2,7,7,0,0,1-.11-3.36,13.34,13.34,0,0,1,1.66-4.58,2.33,2.33,0,0,1,.76-.86,1.82,1.82,0,0,1,1-.23,4,4,0,0,1,3.34,1.86.35.35,0,0,1-.1.47h0a.34.34,0,0,1-.48-.12A3.28,3.28,0,0,0,173,60.11a1.45,1.45,0,0,0-.68.13,1.7,1.7,0,0,0-.51.62,12.56,12.56,0,0,0-1.57,4.35,6.22,6.22,0,0,0,.08,3,1.38,1.38,0,0,0,.53.82.55.55,0,0,0,.53,0,.71.71,0,0,0,.39-.53.35.35,0,0,1,.43-.24h0a.38.38,0,0,1,.26.36h0A1.47,1.47,0,0,1,171.13,69.86Z"/><path d="M168.9,69.54h0a1.61,1.61,0,0,1-1.32-.92,3.59,3.59,0,0,1-.32-1.41,29.35,29.35,0,0,1-.06-4.78,6.22,6.22,0,0,1,.38-2,2.53,2.53,0,0,1,1.51-1.49,3.54,3.54,0,0,1,3,.87.39.39,0,0,1,0,.5.35.35,0,0,1-.44.06,3,3,0,0,0-2.43-.77,1.93,1.93,0,0,0-1.06,1.16,5.15,5.15,0,0,0-.33,1.78,30.08,30.08,0,0,0,0,4.65,3,3,0,0,0,.25,1.15.91.91,0,0,0,.73.54h0a1.28,1.28,0,0,0,.68-.33l.1-.12a.34.34,0,0,1,.26-.39h0a.36.36,0,0,1,.4.29A.86.86,0,0,1,170,69,1.74,1.74,0,0,1,168.9,69.54Z"/><path d="M162.59,66.43h-.1a.33.33,0,0,1-.25-.39h0a42.62,42.62,0,0,0,1.67-11.88V52.61a19,19,0,0,1,.68-6.83c.29-.83.93-1.57,1.73-1.36a1.63,1.63,0,0,1,.94,1.06,22.81,22.81,0,0,1,1.09,7.29,24.81,24.81,0,0,0,.8,6.36.37.37,0,0,1-.21.44h0a.38.38,0,0,1-.45-.23h0a24.57,24.57,0,0,1-.83-6.55,22.28,22.28,0,0,0-1-7.07,1.22,1.22,0,0,0-.5-.68c-.38-.11-.75.5-.88.91a19,19,0,0,0-.62,6.58v1.54A42.87,42.87,0,0,1,163,66.14a.35.35,0,0,1-.38.3Z"/><path fill="#acd4f7" d="M89.16,69.5c1.48-5.19,2.25-8.87,1.57-14.4,12.18,3,21.68-1.06,31.46-4.45a10.21,10.21,0,0,0-2.36-4.78c-2.91-3.41-6.07-6.14-12.85-7-4.78-.6-10.76-.13-15.09,1.91a22.57,22.57,0,0,0-9.71,9.51,20.13,20.13,0,0,0-2.37,11.54c.34,3.41,1.85,5.55,4.3,8.4a3.84,3.84,0,0,1,2.3-1.46A4.84,4.84,0,0,1,89.16,69.5Z"/><path d="M84.11,70.65h0a.42.42,0,0,1-.26-.12c-2.25-2.63-4-4.93-4.37-8.6a20.45,20.45,0,0,1,2.44-11.75c2.68-4.59,6-7.85,9.85-9.65,4.78-2.24,11-2.48,15.29-1.94a18.54,18.54,0,0,1,13.08,7.08,10.42,10.42,0,0,1,2.45,4.92.35.35,0,0,1-.24.38l-2.53.91c-8.68,3.07-17.66,6.24-28.67,3.71.61,5.58-.3,9.36-1.64,14a.37.37,0,0,1-.44.23h0a4.49,4.49,0,0,0-2.55-.63,3.61,3.61,0,0,0-2,1.28l-.08.08A.48.48,0,0,1,84.11,70.65ZM103,39a26.6,26.6,0,0,0-11,2.12c-3.73,1.75-6.94,4.9-9.55,9.37a19.93,19.93,0,0,0-2.33,11.33c.31,3.08,1.53,5,4,7.93a3.73,3.73,0,0,1,2.25-1.3,4.73,4.73,0,0,1,2.56.52c1.29-4.55,2.13-8.3,1.44-13.86a.34.34,0,0,1,.12-.31.39.39,0,0,1,.31-.08c11,2.69,20.06-.49,28.77-3.56l2.21-.77a10,10,0,0,0-2.2-4.3c-2.55-3-5.64-6-12.62-6.83a34.41,34.41,0,0,0-3.93-.25Z"/><path fill="#fff" d="M166.84,69.27a5.43,5.43,0,0,1,1.08-3.58,15,15,0,0,0,1.47-1.89,1.76,1.76,0,0,0-.28-2.18,1.87,1.87,0,0,0-1.46-.21,6.77,6.77,0,0,0-3.27,2.15,7.34,7.34,0,0,0-1.5,2,6.27,6.27,0,0,0-.51,2.13,2.19,2.19,0,0,0,1.49,2.59,3.1,3.1,0,0,0,1.9.44A1.34,1.34,0,0,0,166.84,69.27Z"/><path d="M107.94,81.64h-.49a6.35,6.35,0,0,1-4-2.11.35.35,0,0,1,0-.48h0a.33.33,0,0,1,.42,0,5.66,5.66,0,0,0,3.58,1.87,2.89,2.89,0,0,0,2.79-1.1.32.32,0,0,1,.42-.16h0a.38.38,0,0,1,.14.46h0A3.44,3.44,0,0,1,107.94,81.64Z"/><path d="M100.69,66.26a1.09,1.09,0,0,1,.86-1.28h0a1.11,1.11,0,0,1,1.29.86h0a1.1,1.1,0,0,1-.86,1.28h0a1.07,1.07,0,0,1-1.25-.84h0Z"/><path d="M164.74,84.88a.35.35,0,0,1-.35-.34h0a50.79,50.79,0,0,0-1.65-11.89l-.1-.4c-.56-2-1.18-4.42-.32-6.52a9.49,9.49,0,0,1,2.77-3.36,5.5,5.5,0,0,1,2.5-1.37,2.18,2.18,0,0,1,2.53,1.37c.27,1.08-.53,1.93-1.23,2.68-.13.14-.26.27-.37.41a5.33,5.33,0,0,0-.63,6,.37.37,0,0,1-.12.48h0a.37.37,0,0,1-.48-.13h0a6,6,0,0,1,.69-6.75,4,4,0,0,1,.39-.43c.6-.69,1.24-1.33,1.06-2a1.48,1.48,0,0,0-1.73-.87A4.73,4.73,0,0,0,165.6,63,8.51,8.51,0,0,0,163,66.1c-.77,1.87-.2,4,.35,6.08l.1.39a51.19,51.19,0,0,1,1.67,12.06.36.36,0,0,1-.34.36h0Z"/><path d="M116.18,62.61A1.09,1.09,0,0,1,117,61.3h0a1.1,1.1,0,0,1,1.31.82h0a1.08,1.08,0,0,1-.8,1.3h-.1A1.06,1.06,0,0,1,116.18,62.61Z"/><path d="M113,73.2a.34.34,0,0,1-.31-.37h0a.34.34,0,0,1,.13-.23l1.25-1c.13-.1.17-.15.17-.17a1,1,0,0,0-.22-.2A6.65,6.65,0,0,1,111.3,66a.33.33,0,0,1,.3-.36h0A.35.35,0,0,1,112,66a6,6,0,0,0,2.46,4.67.82.82,0,0,1,.45,1h0a.88.88,0,0,1-.39.42l-1.23,1A.35.35,0,0,1,113,73.2Z"/><path d="M106,64.67a.28.28,0,0,1-.18,0,.34.34,0,0,1-.12-.48,5.2,5.2,0,0,1,4.1-2.34,2.24,2.24,0,0,1,2.39,1.29.34.34,0,0,1-.66.2h0c-.17-.56-1-.81-1.7-.78a4.43,4.43,0,0,0-3.51,2A.35.35,0,0,1,106,64.67Z"/><path d="M89.53,69.43a.33.33,0,0,1-.36-.3h0a.34.34,0,0,1,.25-.35L94.2,67.2a.38.38,0,0,1,.45.22h0a.38.38,0,0,1-.23.45h0l-4.78,1.56Z"/><path fill="#fff" d="M92.64,152c-.77-9.21-1.55-15.79-2.32-25-1.09,6.25-4.51,18.53-5.87,25.21a319.84,319.84,0,0,1,33.31,2.32,16.05,16.05,0,0,0-5,6.55,27.84,27.84,0,0,0-1.61,7.87c-14.13-.48-28-.69-41.89-.27a8.3,8.3,0,0,1-4.53-.72,5.22,5.22,0,0,1-2.14-2.73c-1.16-3-.45-6.34.26-9.46,2.14-9.25,6.28-26.8,10.07-35.49a34.87,34.87,0,0,1,6.44-10.38c6-6.19,14.75-8.48,23.23-10.48.37,2.12,2.61,3.41,4.71,3.84A9.65,9.65,0,0,0,113,103,7.45,7.45,0,0,0,117,98.17c6.52-.59,10.64-.57,13.51-.16,3.79.56,7.51,3.32,10,6.09,5.26,5.78,8,10.62,13.58,17.34a99.58,99.58,0,0,0,7.31-38.5c1.19,2.73,16.49,2.47,18.12-1.87-1.08,16.07-2.18,32.32-7.06,47.67-1.58,4.94-3.59,9.85-7,13.79s-8.3,6.83-13.49,6.66-8.49-1.57-11.84-8a10.56,10.56,0,0,0-1.42,2.9c0,6.83.6,14.85.68,21.57-15.27,2.42-31.3.38-46.64-.61C92.87,160.43,93,155.92,92.64,152Z"/><path d="M126.36,175.82c-.78,0-1.44-.69-1.85-1.93l-.08-.21a11,11,0,0,0-1.92-3.94,8.56,8.56,0,0,0-4.25-2.34,28.63,28.63,0,0,0-6.19-.68,10.32,10.32,0,0,1-1.36-.06.35.35,0,0,1-.32-.38h0a.35.35,0,0,1,.38-.31c.32,0,.78.05,1.32.06a29.45,29.45,0,0,1,6.35.73A9.24,9.24,0,0,1,123,169.3a11.23,11.23,0,0,1,2,4.18l.08.22c.15.46.58,1.51,1.25,1.45a.66.66,0,0,0,.45-.25,2.58,2.58,0,0,0,.31-1.72,16.73,16.73,0,0,0-2-6.15.34.34,0,0,1,.11-.47h0a.34.34,0,0,1,.48.12h0a17.2,17.2,0,0,1,2.17,6.38,3.2,3.2,0,0,1-.45,2.24,1.36,1.36,0,0,1-.93.51Z"/><path d="M108.8,212.89a3,3,0,1,1,.37-6h0a3,3,0,0,1,2.8,3A3.1,3.1,0,0,1,108.8,212.89Zm0-5.27a2.28,2.28,0,0,0-2.1,2.45h0a2.29,2.29,0,1,0,4.58-.19,2.38,2.38,0,0,0-2.49-2.28Z"/><path d="M117.25,192a3,3,0,0,1,.37-6h0a3,3,0,0,1,2.8,3A3.12,3.12,0,0,1,117.25,192Zm0-5.28a2.3,2.3,0,0,0-2.11,2.48h0a2.3,2.3,0,1,0,4.6-.16h0a2.41,2.41,0,0,0-2.49-2.26Z"/><path fill="#acd4f7" d="M128.82,199.32a2.83,2.83,0,0,1,2.62-3h0a2.84,2.84,0,0,1,.65,5.64h-.5a2.72,2.72,0,0,1-2.81-2.63h0Z"/><path d="M131.66,202.31a3,3,0,0,1,.37-6h0a3,3,0,0,1,2.8,3,3.09,3.09,0,0,1-3.16,3Zm0-5.27a2.29,2.29,0,0,0-2.11,2.46h0a2.3,2.3,0,0,0,2.47,2.11h0a2.29,2.29,0,0,0,2.12-2.29A2.4,2.4,0,0,0,131.66,197Z"/><path d="M141.16,188.27a3,3,0,1,1,3.18-3A3.11,3.11,0,0,1,141.16,188.27Zm0-5.28a2.28,2.28,0,0,0-2.16,2.39h0a2.28,2.28,0,0,0,2.43,2.11h0a2.31,2.31,0,0,0,2.13-2.3A2.41,2.41,0,0,0,141.16,183Z"/><path d="M129.43,177a1.65,1.65,0,0,1-1-.34c-.26-.2-.92-.9-1.23-3a.34.34,0,0,1,.26-.39h0a.36.36,0,0,1,.4.29h0a4.33,4.33,0,0,0,1,2.55.77.77,0,0,0,.84.13,1.45,1.45,0,0,0,.39-.88,16.71,16.71,0,0,0-1.47-10.06.31.31,0,0,1,.07-.4.38.38,0,0,1,.41-.06,8,8,0,0,1,3.41,4.1,19,19,0,0,1,1.11,5.15,2.47,2.47,0,0,0,.21.93.6.6,0,0,0,.54.34c.28,0,.46-.46.55-.81a11.38,11.38,0,0,0-2.28-10.68.35.35,0,0,1,0-.49h0a.34.34,0,0,1,.48,0h0a12.12,12.12,0,0,1,2.45,11.32c-.22.78-.6,1.22-1.11,1.31a1.24,1.24,0,0,1-1.26-.68,2.91,2.91,0,0,1-.3-1.19,17.85,17.85,0,0,0-1.06-5,7.87,7.87,0,0,0-2.14-3.05,17.26,17.26,0,0,1,1,9.35,1.93,1.93,0,0,1-.68,1.36A1.31,1.31,0,0,1,129.43,177Z"/><path d="M88,209h0l-6.9-.1a.33.33,0,0,1-.25-.11.27.27,0,0,1-.09-.24l.74-24.4a.34.34,0,0,1,.34-.34h6.74a.4.4,0,0,1,.26.1.41.41,0,0,1,.09.26l-.56,24.53A.37.37,0,0,1,88,209h0Zm-6.5-.82,6.19.12.5-23.83h-6Z"/><path d="M75.92,207.92h0l-6.73-.36a.41.41,0,0,1-.24-.11.28.28,0,0,1-.09-.26l.73-11.51a.33.33,0,0,1,.34-.32h0l6.37.33a.33.33,0,0,1,.33.33h0l-.34,11.54a.36.36,0,0,1-.11.25A.54.54,0,0,1,75.92,207.92Zm-6.36-1,6,.32.33-10.81-5.69-.29Z"/><path d="M139.93,173.69h-.11a1.39,1.39,0,0,1-.91-.69h0l-1.08-1.57a47.52,47.52,0,0,0-3.06-4,.36.36,0,0,1,0-.49.34.34,0,0,1,.48,0h0a45.76,45.76,0,0,1,3.1,4.09l1.08,1.52v.06c.07.11.23.35.41.37a.65.65,0,0,0,.43-.21,2.53,2.53,0,0,0,.23-1.46c-.73-4.16-3.6-7.3-7.68-10.75a13.41,13.41,0,0,0-3.86-2.39,17.86,17.86,0,0,0-4.28-.86c-1.63-.2-3.3-.35-4.91-.5s-3.3-.3-4.94-.5a.35.35,0,0,1-.4-.27h0a.34.34,0,0,1,.25-.4H115c1.63.2,3.3.35,4.92.5s3.29.3,4.93.5a19.77,19.77,0,0,1,4.44.9,13.44,13.44,0,0,1,4.09,2.5c4.2,3.54,7.15,6.82,7.92,11.16a2.91,2.91,0,0,1-.44,2.11A1.39,1.39,0,0,1,139.93,173.69Z"/><path d="M52.85,205.28h0l-6.73-.18a.35.35,0,0,1-.34-.35l.06-5.43a.34.34,0,0,1,.34-.34h6.7a.35.35,0,0,1,.37.33h0v5.6a.47.47,0,0,1-.11.25A.35.35,0,0,1,52.85,205.28Zm-6.39-.85,6,.15v-4.89h-6Z"/><path d="M136.38,147a.37.37,0,0,1-.36-.35h0a.22.22,0,0,1,.06-.19h0c2.61-3.41,5.21-6.92,7.73-10.4a1.93,1.93,0,0,0,.33-2.42L137,116.29a.34.34,0,0,1,.16-.45h0a.32.32,0,0,1,.41.15h0l7.16,17.33a2.54,2.54,0,0,1-.42,3.09c-2.52,3.49-5.12,7-7.73,10.42A.37.37,0,0,1,136.38,147Z"/><polygon fill="#acd4f7" points="58.54 192.27 58.15 205.91 64.89 206.36 65.4 192.53 58.54 192.27"/><path d="M64.47,206.72h0l-6.74-.45a.33.33,0,0,1-.32-.34h0l.38-13.65a.27.27,0,0,1,.11-.25.31.31,0,0,1,.26-.09l6.82.25a.36.36,0,0,1,.34.36h0l-.54,13.82a.36.36,0,0,1-.11.25A.56.56,0,0,1,64.47,206.72Zm-6.38-1.12,6,.41.5-13.14-6.14-.23Z"/><path d="M175.18,198h-.11a.32.32,0,0,1-.23-.4v0h0l5.85-18.39a.32.32,0,0,1,.25-.24.42.42,0,0,1,.34.1,50.59,50.59,0,0,0,6.35,5.89,155.48,155.48,0,0,0,5.81-15.46.35.35,0,0,1,.28-.23.3.3,0,0,1,.33.13c3,4.1,6,8.54,9.43,14l7.26-20.48a.35.35,0,0,1,.45-.19h0a.38.38,0,0,1,.21.41h0l-7.51,21.16a.34.34,0,0,1-.45.21.31.31,0,0,1-.17-.13c-3.46-5.46-6.46-9.9-9.38-14a150.53,150.53,0,0,1-5.78,15.24.35.35,0,0,1-.23.2.4.4,0,0,1-.3-.06,48.07,48.07,0,0,1-6.38-5.8l-5.61,17.82A.35.35,0,0,1,175.18,198Z"/><path d="M185.86,194.63h-.11a3.45,3.45,0,0,1-.86-.48L183.35,193a.32.32,0,0,1-.11-.45h0a.35.35,0,0,1,.47-.09h0l1.55,1.1a2.93,2.93,0,0,0,.69.39.33.33,0,0,1,.28.37h0a.36.36,0,0,1-.4.28h0Zm2-1.54a.35.35,0,0,1-.36-.33.31.31,0,0,1,.07-.21h0l1.57-2.31a.34.34,0,0,1,.47-.1h0a.35.35,0,0,1,.09.47h0l-1.56,2.3a.34.34,0,0,1-.29.16Zm-6.6-1.65a.36.36,0,0,1-.2-.06l-2.27-1.62a.34.34,0,0,1-.1-.46h0a.34.34,0,0,1,.46-.1l0,0h0l2.27,1.62a.34.34,0,0,1,.09.46h0a.37.37,0,0,1-.29.14Zm19.5-1.83a.27.27,0,0,1-.23-.08c-.68-.59-1.41-1.19-2.14-1.77a.33.33,0,0,1,0-.47h0a.32.32,0,0,1,.45-.08h0c.73.59,1.45,1.19,2.15,1.78a.38.38,0,0,1,0,.49h0a.45.45,0,0,1-.27.12Zm-9.8-1.17a.33.33,0,0,1-.19-.06.34.34,0,0,1-.1-.47h0l1.57-2.27a.34.34,0,0,1,.48-.1h0a.35.35,0,0,1,.09.47h0l-1.5,2.42a.39.39,0,0,1-.3.12Zm-14.25-.23a.37.37,0,0,1-.2-.07l-2.23-1.6a.32.32,0,0,1-.11-.45h0a.34.34,0,0,1,.47-.1h0l2.27,1.62a.33.33,0,0,1,.1.45h0a.34.34,0,0,1-.32.13Zm19.72-2.11a.35.35,0,0,1-.22-.08c-.72-.57-1.46-1.13-2.21-1.68a.35.35,0,0,1-.07-.49h0a.35.35,0,0,1,.48-.08h0c.75.56,1.5,1.12,2.22,1.69a.36.36,0,0,1,.07.49.35.35,0,0,1-.28.14Z"/><path d="M59,175.31h0a47.17,47.17,0,0,1-14.62-2.38.36.36,0,0,1-.24-.45h0a.35.35,0,0,1,.45-.23h0A46.42,46.42,0,0,0,59,174.6a.35.35,0,0,1,.4.27h0a.35.35,0,0,1-.27.4H59Z"/><path d="M52.37,179.75h0a46.52,46.52,0,0,1-7.69-1.25.35.35,0,0,1,.17-.68h0a45.1,45.1,0,0,0,7.57,1.24.35.35,0,0,1,.28.39h0a.4.4,0,0,1-.28.28Z"/><path d="M49.64,185.54h0a24.88,24.88,0,0,1-6.15-1.36.33.33,0,0,1-.21-.43h0a.36.36,0,0,1,.45-.21,23.51,23.51,0,0,0,5.91,1.31.34.34,0,0,1,.27.39h0a.37.37,0,0,1-.27.27Z"/><path d="M205.46,137h-.14a24.39,24.39,0,0,0-10.43-2.25h0a.34.34,0,0,1-.34-.34h0a.32.32,0,0,1,.29-.35h0a24.66,24.66,0,0,1,10.72,2.3.35.35,0,0,1,.28.39h0a.34.34,0,0,1-.41.27h0Z"/><path d="M137.74,164.77a.33.33,0,0,1-.27-.38h0a.34.34,0,0,1,.27-.28H139a65.64,65.64,0,0,1-.43-9.91c0-3.18,0-6.47-.27-9.94a.35.35,0,0,1,.32-.38h0a.35.35,0,0,1,.38.31h0c.29,3.51.28,6.82.27,10a66.76,66.76,0,0,0,.48,10.19.32.32,0,0,1-.07.28.33.33,0,0,1-.26.13h-1.69Z"/><path d="M201.3,140.65h-.09a16.76,16.76,0,0,0-6.38-.55.35.35,0,0,1-.38-.31h0a.35.35,0,0,1,.31-.38,17.73,17.73,0,0,1,6.64.58.35.35,0,0,1,.29.38h0a.35.35,0,0,1-.38.3h0Z"/><path d="M205.26,146.87h-.15a17.41,17.41,0,0,0-9.55-1.7.37.37,0,0,1-.45-.22h0a.34.34,0,0,1,.2-.44h.17a18.06,18.06,0,0,1,9.91,1.77.37.37,0,0,1,.16.46A.39.39,0,0,1,205.26,146.87Z"/><path d="M109.64,207.67h-.13a.36.36,0,0,1-.2-.46l6.39-15.5a.29.29,0,0,1,.33-.27h0a.33.33,0,0,1,.28.39h0V192L110,207.49A.34.34,0,0,1,109.64,207.67Z"/><path d="M129.42,197.86a.52.52,0,0,1-.21-.07l-9.62-7.11a.35.35,0,0,1-.09-.49h0a.36.36,0,0,1,.49-.07h0l9.64,7.15a.37.37,0,0,1,.07.48A.33.33,0,0,1,129.42,197.86Z"/><path d="M133.38,197.34a.36.36,0,0,1-.2-.06.35.35,0,0,1-.09-.47h0l6.5-9.16a.36.36,0,0,1,.45-.21.35.35,0,0,1,.2.45V188h0l-.05.07-6.5,9.16A.36.36,0,0,1,133.38,197.34Z"/><path d="M111.13,169.28h0c-17-.57-29.86-.68-41.86-.26a8.56,8.56,0,0,1-4.73-.77,6,6,0,0,1-2.22-2.89c-1.24-3.2-.41-6.78.26-9.66,1.66-7.23,6.1-26.44,10.09-35.57a34.61,34.61,0,0,1,6.5-10.48c5.8-6.07,14-8.39,23.39-10.59a.34.34,0,0,1,.28,0,.51.51,0,0,1,.15.23c.34,2,2.52,3.13,4.43,3.56a9.34,9.34,0,0,0,5.46-.3A7.2,7.2,0,0,0,116.8,98a.34.34,0,0,1,.3-.24c6.14-.56,10.47-.6,13.59-.15,4.73.69,8.73,4.56,10.23,6.2a103.36,103.36,0,0,1,7.47,9.35c1.73,2.36,3.52,4.78,5.78,7.55a98.92,98.92,0,0,0,7.07-37.82.35.35,0,0,1,.34-.36h0a.34.34,0,0,1,.35.25c.32,1,2.83,1.63,6.27,1.63h.1c4.9,0,10.38-1.37,11.07-3.5a.33.33,0,0,1,.41-.24h0a.35.35,0,0,1,.25.36c-1.06,15.87-2.16,32.29-7.08,47.78-1.36,4.24-3.36,9.64-7,13.91s-8.88,6.93-13.76,6.78c-5.12-.14-8.7-1.54-11.85-8.27a.35.35,0,0,1,.17-.46.33.33,0,0,1,.45.13v0h0c3,6.43,6.26,7.73,11.23,7.87,4.64.13,9.56-2.32,13.21-6.54s5.46-9.55,6.83-13.69c4.77-15,5.92-30.86,7-46.28-2,2-7.38,2.8-11,2.81-1.23,0-4.77-.09-6.34-1.23a99.77,99.77,0,0,1-7.38,37.61.34.34,0,0,1-.27.22.38.38,0,0,1-.32-.12c-2.46-3-4.35-5.54-6.19-8a101.91,101.91,0,0,0-7.41-9.29c-1.45-1.59-5.3-5.33-9.82-6-3-.45-7.22-.4-13.2.13a7.76,7.76,0,0,1-4.24,4.78,9.87,9.87,0,0,1-5.84.34c-2-.44-4.32-1.66-4.9-3.76-9.11,2.15-17.1,4.45-22.7,10.31a34,34,0,0,0-6.38,10.28c-4,9.07-8.38,28.24-10,35.45-.64,2.79-1.45,6.26-.29,9.25a5.07,5.07,0,0,0,2,2.54c1.27.77,2.9.69,4.34.69,11.89-.38,24.68-.31,41.38.24-.61-2,.1-5.31,1.09-7.76l.07-.19c.85-2.11,1.88-4.66,4.46-5.9-10.35-1.28-18.38-1.7-31.84-2.13a.33.33,0,0,1-.26-.13.31.31,0,0,1-.07-.29c.61-2.93,1.58-6.82,2.61-11,1.3-5.25,2.64-10.68,3.27-14.18a.33.33,0,0,1,.39-.28h0a.35.35,0,0,1,.27.28c.39,4.61.79,8.62,1.17,12.5s.77,7.89,1.16,12.51a.54.54,0,0,1,0,.18c9.3.39,16.18.9,24.84,2a.34.34,0,0,1,.27.39h0a.38.38,0,0,1-.27.28c-3.29.8-4.4,3.55-5.38,6l-.08.2c-1.06,2.62-1.71,6.1-.9,7.71a.37.37,0,0,1-.15.47h-.15Zm-26.29-17.4,7.47.26a.17.17,0,0,1,0-.1c-.39-4.6-.78-8.61-1.17-12.5-.31-3.18-.63-6.44-.94-10-.69,3.35-1.78,7.64-2.81,11.81-1,4-1.93,7.74-2.55,10.58Z"/><path d="M118.59,156.55h-.06a.35.35,0,0,1-.3-.38h0a1.61,1.61,0,0,0-.27-1.11c-.11-.15-.24-.23-.3-.21a.35.35,0,0,1-.41-.28h0a.32.32,0,0,1,.22-.39,1,1,0,0,1,1,.48,2.25,2.25,0,0,1,.4,1.61A.35.35,0,0,1,118.59,156.55Z"/><path d="M112,169.58a1.36,1.36,0,0,1-1.29-.77.35.35,0,1,1,.61-.33.09.09,0,0,1,0,.07.7.7,0,0,0,.76.32,2.83,2.83,0,0,0,1.55-1,19.2,19.2,0,0,0,1.37-1.48.34.34,0,0,1,.47-.08h0a.36.36,0,0,1,.07.49h0a14.38,14.38,0,0,1-1.41,1.61,3.59,3.59,0,0,1-2,1.14Z"/><path d="M161.47,83.12a.35.35,0,0,1-.35-.31,1,1,0,0,1,.27-.81,2,2,0,0,1,.54-.46,6.06,6.06,0,0,1,2.6-.89.34.34,0,0,1,.42.24h0a.35.35,0,0,1-.22.43h-.14a5.22,5.22,0,0,0-2.3.79,1.19,1.19,0,0,0-.37.3.38.38,0,0,0-.11.3.36.36,0,0,1-.31.38h0Z"/><path d="M179.59,81.43h0a.35.35,0,0,1-.34-.35h0a.42.42,0,0,0-.11-.18,1.16,1.16,0,0,0-.35-.18,3.81,3.81,0,0,0-1.21-.17.35.35,0,0,1-.28-.39h0a.33.33,0,0,1,.28-.27,4.14,4.14,0,0,1,1.44.19,1.87,1.87,0,0,1,.57.35,1,1,0,0,1,.36.74A.35.35,0,0,1,179.59,81.43Z"/><path d="M108.09,107.17a8.61,8.61,0,0,1-7.42-4.38.34.34,0,0,1,.12-.47h0a.37.37,0,0,1,.48.13h0a7.86,7.86,0,0,0,7.4,4,.35.35,0,0,1,.37.32.35.35,0,0,1-.31.37h0Z"/><path d="M100.93,107.6h-.1a4.41,4.41,0,0,1-2.73-3.24.34.34,0,0,1,.17-.45h0a.36.36,0,0,1,.46.2v.13A3.73,3.73,0,0,0,101,107a.35.35,0,0,1,.2.41h0a.32.32,0,0,1-.32.21Z"/><path d="M82.65,45.78h-.14a.33.33,0,0,1-.2-.42v0h0a9.87,9.87,0,0,1,3-3.8A23.55,23.55,0,0,1,89.41,39a.35.35,0,0,1,.47.15h0a.37.37,0,0,1-.15.47h0a21.55,21.55,0,0,0-4,2.45A9.14,9.14,0,0,0,83,45.62.37.37,0,0,1,82.65,45.78Z"/><path d="M152.22,125a.44.44,0,0,1-.22-.07.35.35,0,0,1-.06-.49,13.86,13.86,0,0,0,2.33-4.16.37.37,0,0,1,.47-.2h0a.37.37,0,0,1,.21.44,15.14,15.14,0,0,1-2.45,4.34A.35.35,0,0,1,152.22,125Z"/><path d="M79.38,153a.36.36,0,0,1-.3-.39.37.37,0,0,1,.26-.3,33.81,33.81,0,0,1,6.59-.35.35.35,0,0,1,.34.35h0a.35.35,0,0,1-.35.34h0a32.59,32.59,0,0,0-6.47.35Z"/><path d="M89.66,73.21a.37.37,0,0,1-.34-.24,10.34,10.34,0,0,1-.41-4.17.33.33,0,0,1,.35-.31h0a.36.36,0,0,1,.31.38,9.48,9.48,0,0,0,.4,3.89.35.35,0,0,1-.23.43Z"/><g opacity=".13"><path d="M117.85,52.75a1,1,0,0,0-1.06-.21,5.89,5.89,0,0,0-.91.35c-1,.36-2,.79-3,1.09A57.21,57.21,0,0,1,107,55.53a39.48,39.48,0,0,1-7.51.79,23.27,23.27,0,0,1-7.31-1.24c-.45-.1-1-.41-1.42-.15a.74.74,0,0,0-.22,1,.69.69,0,0,0,.4.31,30.09,30.09,0,0,0,9.25,1.67,46.26,46.26,0,0,0,5.52-.39c1.44-.23,2.86-.6,4.3-.91,2.16-.56,4.33-1.07,6.42-1.84l1-.41a1.25,1.25,0,0,0,.52-.36A1,1,0,0,0,117.85,52.75Z"/></g><g opacity=".13"><path d="M115.51,94.2l-.33-1.13a13.28,13.28,0,0,1-.6-2.16c-.18-.68-.36-1.36-.56-2a.34.34,0,0,1,0-.2l0-.16a.25.25,0,0,1,.1-.34h0c-.47-.34-1.09.12-1.6.36a6.76,6.76,0,0,1-1.57.53c-.64.18-2.69.27-3.29.4a.62.62,0,0,0-.43.34l-1.06-.46-.68-.31a15.17,15.17,0,0,1-1.65-.06v.62c-.07.23-.15.44-.22.68l.16.12c2,1,4.13,2,6.14,3.06,1,.56,2,1.1,3,1.64a6.75,6.75,0,0,0,1.36.57h.36a.66.66,0,0,0,.28,0,1,1,0,0,0,.68-.68,1.09,1.09,0,0,0,.14-.23Z"/></g><g opacity=".13"><path d="M159.65,146.08a1,1,0,0,0-.6.11,10,10,0,0,1-3.88.5,14.25,14.25,0,0,1-5.46-1.19,4.31,4.31,0,0,1-.85-.47l-1-.68a7.57,7.57,0,0,1-1.37-1.28h0a25.46,25.46,0,0,1-2.11-4V139a5.13,5.13,0,0,0-.41-1,.88.88,0,0,0-.37-.32l-.35.37a.31.31,0,0,1-.11.2l-.4.38c-.72.85-1.4,1.74-2.05,2.65a.68.68,0,0,0,.11.31,13.9,13.9,0,0,0,1.2,1.65c1,2.1,2.32,4.09,4.62,4.77a29.55,29.55,0,0,0,4.77.82,21.37,21.37,0,0,0,2.88-.14h2.14a4.37,4.37,0,0,0,1.3-.1.85.85,0,0,0,.54-.84c.35-.08.7-.18,1.05-.29s.55-.16.68-.38a.57.57,0,0,0,0-.79h0A.52.52,0,0,0,159.65,146.08Z"/></g><g opacity=".13"><path d="M179.59,81a.81.81,0,0,0-.57-.51h-.16a.69.69,0,0,0-.9-.35.51.51,0,0,0-.16.09,8.64,8.64,0,0,1-.91,1c-.09.09-.17.18-.26.26a16.29,16.29,0,0,1-1.8.56,12.61,12.61,0,0,1-2.48.73c-1,.15-1.06.14-2.25.26a17.7,17.7,0,0,1-3,.26,9.75,9.75,0,0,1-2.28-.28h0a.89.89,0,0,0-.21-.73h0a.86.86,0,0,0,0-1.19h0a.85.85,0,0,0-1.18,0h0a4.46,4.46,0,0,1-.77.54,1.59,1.59,0,0,0-.6.52h0a.71.71,0,0,0-.68.74v0h0a.78.78,0,0,0,.37.56,11.76,11.76,0,0,0,5.16,1.36c.61,0,1.22-.1,1.83-.09h1.76c1.22-.14,2.42-.37,3.62-.61h0a9.38,9.38,0,0,0,1.66-.33c1.56-.55,3.17-1.18,3.59-1.9.07-.11.14-.22.2-.33h0A.78.78,0,0,0,179.59,81Z"/></g><g opacity=".13"><path d="M177.51,67.43a.69.69,0,0,0-.79-.56h0c-.42.12-.51.59-.73.91l-.3.49c-.11.15-.13.11-.34.26h0a7.64,7.64,0,0,1-.79.58l-.39.22a4,4,0,0,1-1.19.18c-.88,0-1.14-.24-2.42-.26-.29,0-.58.06-.88.06a2.74,2.74,0,0,1-.91-.44h0c-.3-.23-.47-.62-.82-.76a.93.93,0,0,0-1.22.49h0a.93.93,0,0,0,.2,1,4.13,4.13,0,0,0,2.66,1.65h.31a6.41,6.41,0,0,1,1.8.14c.61.09.34.09,1.26.19a3.6,3.6,0,0,0,1.44-.36,6,6,0,0,0,1.5-1l.17-.13.16-.19h0a2.12,2.12,0,0,0,.54-.69q.27-.39.51-.81C177.34,68,177.59,67.71,177.51,67.43Z"/></g><g opacity=".13"><path d="M168.7,58.8a.72.72,0,0,0-.9-.5h0a.51.51,0,0,0-.17.07c-.41.28-.51.91-.86,1.29a40.45,40.45,0,0,0-3.41,3.64.68.68,0,0,0,.15,1h0a.67.67,0,0,0,.94-.08h0l0-.06h0a36.59,36.59,0,0,1,3-3.1,5.18,5.18,0,0,0,1.08-1.46A1,1,0,0,0,168.7,58.8Z"/></g><g opacity=".13"><path d="M119,155.37a1.05,1.05,0,0,0-.94-.43,11.65,11.65,0,0,0-1.77-.07,1.08,1.08,0,0,0-.8.28.85.85,0,0,0-.23.88,6.82,6.82,0,0,0-.78.74,14.84,14.84,0,0,0-2.83,4.82,16.91,16.91,0,0,0-.62,2.62,7.64,7.64,0,0,0,0,4.24c.68,1.13,1.91.56,2.73-.12l.37-.28c.44-.32.78-.78.49-1.33a1,1,0,0,0-1-.39,1.33,1.33,0,0,0-1,.26.56.56,0,0,0-.17.26v-.13a7,7,0,0,1,.28-2.41,13.54,13.54,0,0,1,1.55-4.23,10.5,10.5,0,0,1,2-2.73c.57-.48.3-.33.9-.58.25-.1.53-.13.77-.24h.35a.78.78,0,0,0,.74-.77h0a.88.88,0,0,0-.11-.39Z"/></g><g opacity=".13"><path d="M88,133.89c-.62,0-.68.68-.83,1.17-.28,1-.5,1.91-.78,2.86A48.8,48.8,0,0,1,84,144.43c-.22.63-1.7,3.56-2.48,5-.22.43-.45.86-.68,1.27a1.86,1.86,0,0,0-.39.87,1.15,1.15,0,0,0,.19.88,14.26,14.26,0,0,1,2.84-.22,1.07,1.07,0,0,0,.16-.14,7.1,7.1,0,0,0,2-4c.09-.38.17-.77.25-1.16a.89.89,0,0,0,0-.68.75.75,0,0,0-.25-.25c.68-1.93,1.29-3.87,1.92-5.8.4-1.43.74-2.87,1-4.33a9.09,9.09,0,0,0,.22-1.37.64.64,0,0,0-.57-.69Z"/></g><g opacity=".13"><path d="M121.12,168.43a12.42,12.42,0,0,0-4-1.42h-.38a2.28,2.28,0,0,0-1.27.35c-.77.6-1.62,1.67-1.86,1.71h0l-.33.18a5.27,5.27,0,0,1-.68.19,24,24,0,0,1-3.59-.24c-1.25-.12-2.51-.13-3.77-.21-1.42-.1-2.83-.26-4.24-.38-2.54-.29-5.08-.2-7.63-.33-2-.14-4,0-6-.06-3.46,0-7.06.15-10.52.36-2.32.19-7.35.39-9.36-.25-.55-.1-1.11-.54-1.65-.25a.75.75,0,0,0-.23,1,.69.69,0,0,0,.4.35,18.24,18.24,0,0,0,4.9,1.1,36.26,36.26,0,0,0,6.25.12c2-.14,3.92-.12,5.88-.23a55.7,55.7,0,0,1,6.33,0h3.79c1.78.09,3.57,0,5.35.1,2.46.15,4.9.43,7.36.55a30.23,30.23,0,0,1,3.56.21,9.93,9.93,0,0,0,4.78-.33,6.45,6.45,0,0,0,2.37-2h.07a10.59,10.59,0,0,1,1.48.34,10.84,10.84,0,0,1,5,2.73,2.56,2.56,0,0,1,.68.85,1.17,1.17,0,0,0,.39.56,1,1,0,0,0,1.4-.2h0a1.09,1.09,0,0,0,.2-.58C125.44,171,122.67,169.21,121.12,168.43Z"/></g><g opacity=".13"><path d="M213.27,201l1.88-1.91,1.87-1.91c.28-.28.55-.58.82-.88v-.8a27.91,27.91,0,0,0-.22-2.88c-.06-.62-.26-3-.47-4.44a1.24,1.24,0,0,0-.09-.38c-.1-1.69-.17-3.37-.17-5.07v-1.06a50.34,50.34,0,0,1-.13-5.63c-.08-1.29-.11-2.58-.14-3.87-.05-2.79-.07-5.6,0-8.39v-2.05c-.05-2.2-.16-4.39-.07-6.6l.08-1.62c0-2.17,0-4.34.08-6.5,0-1.37.18-2.73.22-4.1v-3.47a.77.77,0,0,0-1,.47h0a27.92,27.92,0,0,0-.92,4.34,54,54,0,0,0-.76,7.51c0,1.46-.15,2.92-.23,4.37s-.06,3-.12,4.49c-.17,5.24-.44,10.49-.34,15.74.11,3.2.25,6.4.36,9.61v7.47a35,35,0,0,1-1.36,7.25c-.1.31-.14.42-.39,1.09a1.6,1.6,0,0,0-.2.64A11,11,0,0,1,213.27,201Z"/></g><path d="M1263.64,121h-.1a.35.35,0,0,1-.23-.18c-1.76-3.52-5.9-9.45-13.86-9.45-7.19,0-12.93,3-15.76,8.2a.36.36,0,0,1-.26.19.34.34,0,0,1-.31,0c-1.78-1.17-3.57-2.34-5.36-3.48l-1.2-.78-2.71-1.75a.41.41,0,0,1-.12-.53,23.65,23.65,0,0,1,7.44-8c7.3-4.23,11.68-4.37,17.64-4.56h.6c3.79.27,16.68,2.08,23.21,14a.39.39,0,0,1-.15.53l-2.33,1.44c-2,1.27-4,2.72-6.3,4.44A.37.37,0,0,1,1263.64,121Zm-14.22-10.47c8.07,0,12.39,5.75,14.36,9.47,2.14-1.61,4.09-3,6-4.19h0c.62-.4,1.28-.78,2-1.25-6.39-11.24-18.69-13-22.37-13.24h-.54c-5.89.19-10.12.32-17.27,4.45a23.15,23.15,0,0,0-7,7.44c.78.5,1.55,1,2.33,1.56l1.21.77,5,3.25c3.06-5.26,9-8.26,16.26-8.26Z"/><path fill="#acd4f7" d="M1243.88,154c.41-2.39.87-4.77,1.36-7.13a19.51,19.51,0,0,1-5.28-1.17,12.51,12.51,0,0,1-4.08-2.9,17,17,0,0,1-4.61-9.41,32.28,32.28,0,0,1,0-6.06,20.18,20.18,0,0,1,.44-3.38c-3.67-.87-7.26-2-11-2.86a34.28,34.28,0,0,0,.65,19.93c3.43,10.86,13.51,14.86,21.72,16.17C1243.33,156.13,1243.59,155,1243.88,154Z"/><path d="M1243.1,157.55h0c-8.09-1.28-18.48-5.18-22-16.44a34.77,34.77,0,0,1-.66-20.15.41.41,0,0,1,.47-.28c2,.45,4,1,6,1.56,1.63.45,3.3.91,5,1.32a.36.36,0,0,1,.29.43v0h0a20.91,20.91,0,0,0-.43,3.34v.94a27.83,27.83,0,0,0,0,5,16.62,16.62,0,0,0,4.5,9.2,12.13,12.13,0,0,0,4,2.79,18.07,18.07,0,0,0,5.18,1.19.4.4,0,0,1,.28.16.38.38,0,0,1,.07.31c-.53,2.51-1,4.84-1.36,7.11h0c-.29,1.11-.53,2.14-.78,3.12a.38.38,0,0,1-.37.41h0A.42.42,0,0,1,1243.1,157.55Zm-22.06-36a34.06,34.06,0,0,0,.77,19.34c3.38,10.69,13.24,14.52,21,15.83.2-.9.42-1.83.68-2.8.36-2.15.77-4.34,1.26-6.7a18.27,18.27,0,0,1-5-1.15,12.71,12.71,0,0,1-4.22-3,17.43,17.43,0,0,1-4.72-9.64,28.11,28.11,0,0,1-.06-5.19,4.92,4.92,0,0,1,0-.94,23.35,23.35,0,0,1,.37-3.11c-1.56-.38-3.11-.78-4.62-1.23-1.81-.48-3.72-1-5.56-1.43Z"/><path fill="#fff" d="M1275.31,123.35c-3.32.56-6.65,1.16-9.93,2a17.15,17.15,0,0,1,.54,3.19,14.52,14.52,0,0,1-.2,3.16,26.39,26.39,0,0,1-1.64,5.57c-1.3,3.22-3.33,6.36-6.44,7.93a17.2,17.2,0,0,1-5.65,1.62l-.77.08q.18,1.84.39,3.69c.25,2.38.52,4.75.77,7.11h.58c15.7-1.35,23-18,23-26.77A39.34,39.34,0,0,0,1275.31,123.35Z"/><path d="M1252.41,158.05a.39.39,0,0,1-.4-.35c-.26-2.34-.54-4.74-.78-7.11l-.3-2.88-.09-.78a.39.39,0,0,1,.09-.29.36.36,0,0,1,.27-.12l.78-.1a16.08,16.08,0,0,0,5.52-1.55c2.61-1.32,4.67-3.9,6.23-7.73a27.68,27.68,0,0,0,1.62-5.49,14.27,14.27,0,0,0,.19-3.06,17.39,17.39,0,0,0-.53-3.12.42.42,0,0,1,.29-.49c3.33-.78,6.74-1.4,10-2a.39.39,0,0,1,.46.3h0a40.73,40.73,0,0,1,.68,7.56c0,5-2.25,11.43-5.7,16.35-3.12,4.5-8.76,10-17.69,10.79h-.6Zm-.78-10.84v.42c.1,1,.2,1.92.31,2.88.24,2.24.51,4.48.78,6.72h.24c8.63-.74,14.06-6.09,17.13-10.45a30,30,0,0,0,5.56-15.93,40,40,0,0,0-.59-7c-3,.51-6.09,1.07-9.14,1.8a18.39,18.39,0,0,1,.46,2.85,15.88,15.88,0,0,1-.18,3.23,28.53,28.53,0,0,1-1.67,5.66c-1.62,4-3.85,6.72-6.63,8.13a16.9,16.9,0,0,1-5.78,1.65Z"/><path d="M1255.85,155.5h-.09l-2-1.93a.14.14,0,0,1,0-.19.12.12,0,0,1,.17,0h0l2,2a.13.13,0,0,1,0,.18h0A.16.16,0,0,1,1255.85,155.5Z"/><path d="M1258.59,155h-.09c-1.81-1.55-3.59-3.15-5.29-4.81a.12.12,0,0,1,0-.17h0a.13.13,0,0,1,.18,0h0c1.7,1.65,3.47,3.27,5.28,4.8a.13.13,0,0,1,0,.18h-.08Z"/><path d="M1261,154h-.08l-6.63-6a.13.13,0,0,1,0-.18h0a.15.15,0,0,1,.18,0h0l6.62,6a.13.13,0,0,1,0,.18h0Z"/><path d="M1263.59,152.23h-.08c-2.09-1.62-4.14-3.35-6.09-5.15a.13.13,0,0,1,0-.18h0a.13.13,0,0,1,.18,0h0c1.94,1.79,4,3.53,6.08,5.15a.12.12,0,0,1,0,.17h-.09Z"/><path d="M1265.68,150.29h-.09a74.89,74.89,0,0,1-6.23-4.67.13.13,0,0,1,0-.18h0a.14.14,0,0,1,.19,0q3,2.49,6.23,4.67a.13.13,0,0,1,0,.18h0A.17.17,0,0,1,1265.68,150.29Z"/><path d="M1267.59,148.34h0c-2-1.39-4-2.86-5.93-4.34a.14.14,0,0,1,0-.19.13.13,0,0,1,.18,0h0c1.92,1.49,3.89,3,5.91,4.34a.11.11,0,0,1,0,.15h0a.11.11,0,0,1-.1.06Z"/><path d="M1269.23,146.1h-.07c-2-1.27-4.06-2.59-6-3.9a.12.12,0,0,1,0-.17h0a.12.12,0,0,1,.17,0h0c2,1.32,4,2.63,6,3.89a.13.13,0,0,1,0,.18A.17.17,0,0,1,1269.23,146.1Z"/><path d="M1270.59,143.67h-.07l-5.72-3.38a.12.12,0,0,1-.07-.15h0a.13.13,0,0,1,.16-.06h0l5.7,3.35a.15.15,0,0,1,0,.18.14.14,0,0,1-.12.07Z"/><path d="M1271.65,141.33h-.06l-5.88-3.25a.12.12,0,0,1-.07-.15h0a.14.14,0,0,1,.18-.05l5.87,3.27a.11.11,0,0,1,.07.13h0A.18.18,0,0,1,1271.65,141.33Z"/><path d="M1272.73,138.86h-.08l-5.92-3.23a.13.13,0,0,1,0-.18.12.12,0,0,1,.16-.06h0l5.9,3.24a.13.13,0,0,1,.06.17A.14.14,0,0,1,1272.73,138.86Z"/><path d="M1273.59,136.43h0c-2.09-1.22-4.23-2.41-6.35-3.55a.13.13,0,1,1,.12-.24h0c2.13,1.15,4.27,2.34,6.36,3.56a.12.12,0,0,1,.07.15h0A.18.18,0,0,1,1273.59,136.43Z"/><path d="M1274.12,133.55h-.06l-6.64-3.21a.13.13,0,0,1-.08-.13h0a.08.08,0,0,1,.1-.07h.09l6.65,3.2a.16.16,0,0,1,.08.14h0A.27.27,0,0,1,1274.12,133.55Z"/><path d="M1274.21,130.79h-.06c-2.25-1.06-4.53-2.16-6.75-3.27a.14.14,0,0,1-.06-.18h0a.12.12,0,0,1,.16-.06h0c2.22,1.1,4.5,2.2,6.76,3.26a.14.14,0,0,1,.06.18A.12.12,0,0,1,1274.21,130.79Z"/><path d="M1274.21,128.1h-.06a45.7,45.7,0,0,1-4.29-2.21.12.12,0,0,1-.07-.15h0a.13.13,0,0,1,.18,0,45.78,45.78,0,0,0,4.3,2.2.13.13,0,0,1,.09.15h0a.14.14,0,0,1-.14.09Z"/><path d="M1274,125.86h0l-1.2-.54a.12.12,0,0,1-.08-.13h0a.12.12,0,0,1,.15-.08h0l1.2.53a.14.14,0,0,1,.08.16h0a.12.12,0,0,1-.14,0Z"/><g opacity=".13"><path d="M1277.81,129.65a21.8,21.8,0,0,0-.94-4.93c-.18-.45-.21-1-.67-1.29a.87.87,0,0,0-.83,0l-.07-.09a.78.78,0,0,0-1.1.09h0a.74.74,0,0,0-.17.37,1.1,1.1,0,0,0-1.1,1.1h0a1.13,1.13,0,0,0,0,.26,15,15,0,0,1,.37,4.67,27.26,27.26,0,0,1-2,8.94,21.83,21.83,0,0,1-1.56,3.45,26.36,26.36,0,0,1-3,5.1,13.87,13.87,0,0,1-.93,1.1,19.69,19.69,0,0,1-4.59,3.64,22,22,0,0,1-5.19,2.4,11,11,0,0,1-2.9.48,1,1,0,0,0-1.19.52.81.81,0,0,0,0,.68,1.09,1.09,0,0,0,1.25,1.55,2.93,2.93,0,0,0,.65-.29c.4-.14.84-.2,1.26-.31s1-.34,1.46-.46h.26a10.14,10.14,0,0,0,2.19-.31,19.3,19.3,0,0,0,7-4.68,29,29,0,0,0,3.62-4.2,45.21,45.21,0,0,0,2.43-4.49,35.12,35.12,0,0,0,1.9-4.52,26,26,0,0,0,1.38-4.9,20.27,20.27,0,0,0,.25-5.1,1.34,1.34,0,0,0,.07-.18c.07.61.12,1.26.16,2a20.58,20.58,0,0,1-.15,4,1.51,1.51,0,0,0-.11.22,1.07,1.07,0,0,0,.09,1.24,1.18,1.18,0,0,0,2-1h0v-.28a.91.91,0,0,1,0-.33A28.75,28.75,0,0,0,1277.81,129.65Z"/></g><g opacity=".13"><path d="M1271.46,114.31a15.13,15.13,0,0,0-4-6.22.89.89,0,0,0-1.26,0h0a.91.91,0,0,0,0,1.26c1.11.78,2,3,2.34,3.69a20.38,20.38,0,0,1,.84,2.38C1269.93,117.13,1272.43,116.31,1271.46,114.31Z"/></g><g opacity=".13"><path d="M1233.37,133.94c-.16-.85-.37-2.11-.37-2.18a60,60,0,0,1-.14-7.22.85.85,0,0,0-1.69,0h0c-.07,2.15-.19,4.3-.16,6.45a32.28,32.28,0,0,0,.61,4.27,1,1,0,0,0,1.84.24C1233.76,135,1233.45,134.43,1233.37,133.94Z"/></g><path fill="#fff" d="M1396.14,221.54c12.63,0,29.51.22,45.42.22,3.33-27,5.12-49.61,12.58-78.31-15.83-.7-49.76-.48-54.58.78C1398.59,170,1397.59,196.43,1396.14,221.54Z"/><path d="M1396.14,221.93a.38.38,0,0,1-.29-.12.38.38,0,0,1-.11-.3c1.56-25.69,2.54-53.59,3.42-77.3a.4.4,0,0,1,.3-.37c5-1.29,39.34-1.47,54.7-.78a.37.37,0,0,1,.3.16.39.39,0,0,1,.07.33c-6.41,24.64-8.65,43.43-11.24,65.19-.43,3.57-.86,9.28-1.34,13.09a.4.4,0,0,1-.39.34c-8.41,0-17,.23-25.27.44C1409,222.75,1402.09,221.93,1396.14,221.93Zm3.8-77.42c-.88,23.55-1.87,51.17-3.38,76.63,5.85,0,12.59.82,19.71.63,8.18-.21,16.63-.43,24.92-.43.45-3.68.88-9.26,1.29-12.73,2.58-21.66,4.81-40.37,11.13-64.82-15.24-.64-47.92-.49-53.67.72Z"/><path fill="#fff" d="M1333.86,223.43c.83-17.25-.78-34.48-7.26-49.44a175.31,175.31,0,0,1-13.13,23.88c-1.56-2.73-3-5.6-4.43-8.48-.36-.77-.73-1.47-1.08-2.21-2-4-4-8.09-5.8-12.21,2.43-9.81,5.12-19.57,8.23-29.19a17.26,17.26,0,0,1,1.61-3.84,18.57,18.57,0,0,1,6.73-6.24c7-3.54,14.54-5.11,22.28-6.63a7.07,7.07,0,0,1,3-2.6A24,24,0,0,0,1350.4,137c1.33,1.37,3.11,2.74,4.9,2.54,4.92-1.69,7.73-6.78,11.85-10a7.54,7.54,0,0,1,5.17-1.84l12.79,2.46c7,1.36,14.27,2.81,20.11,6.93a19.36,19.36,0,0,1,3.69,3.37,303.41,303.41,0,0,1,16,47.31c2,7.86,3.77,16.11,2,24.2a17.23,17.23,0,0,1-4.82,6.09,13.27,13.27,0,0,1-4.06,2.49,17.4,17.4,0,0,1-5.37.67l-11.53,1.26Z"/><path d="M1321.59,221.86a.4.4,0,0,1-.38-.26l-2-5.45a.38.38,0,0,1,0-.36.44.44,0,0,1,.32-.17l27.94-.66a.44.44,0,0,1,.29.11.36.36,0,0,1,.12.28l.11,6.79a.41.41,0,0,1-.39.41l-26-.62Zm-1.44-5.54,1.73,4.75,25.36.62-.11-6Z"/><path fill="#fff" d="M1342.64,109.14a135,135,0,0,1,1.42,23.08,3.94,3.94,0,0,0,.26,1.89,3.49,3.49,0,0,0,1.44,1.33,17.39,17.39,0,0,0,13.1,2.29c4.41-1.15,8.26-4.78,8.66-9.67-1.86-6.23-5-15-7.37-25.08A150.18,150.18,0,0,1,1342.64,109.14Z"/><path d="M1355.19,138.62a18.62,18.62,0,0,1-9.6-2.76,4,4,0,0,1-1.56-1.48,4.27,4.27,0,0,1-.3-2.09,134.1,134.1,0,0,0-1.42-23,.4.4,0,0,1,.28-.44,147.65,147.65,0,0,0,17.47-6.14.4.4,0,0,1,.34,0,.42.42,0,0,1,.21.26c1.7,7.12,3.79,13.69,5.45,19,.7,2.2,1.35,4.26,1.9,6.09a.38.38,0,0,1,0,.15,11.69,11.69,0,0,1-9,10A15.45,15.45,0,0,1,1355.19,138.62Zm-12.13-29.19a135.85,135.85,0,0,1,1.38,22.8,3.68,3.68,0,0,0,.22,1.71,3.12,3.12,0,0,0,1.28,1.16,16.75,16.75,0,0,0,12.81,2.24c3.84-1,7.9-4.25,8.35-9.24-.53-1.81-1.18-3.85-1.87-6-1.65-5.17-3.69-11.58-5.37-18.55A151.23,151.23,0,0,1,1343.06,109.43Z"/><path fill="#acd4f7" d="M1378.27,73.14a169.78,169.78,0,0,1-5.88,18.45,46.61,46.61,0,0,1-5.71,10.55,6.66,6.66,0,0,1-3.79,2.81c.07-1.6-1.5-2.56-1.56-4.17-.1-2,1.32-3.55.34-5.39a28.81,28.81,0,0,1-3.33-11,13.87,13.87,0,0,1,1.78-8.93,10.23,10.23,0,0,1,8.79-4.45C1371.7,71.07,1376.25,71.13,1378.27,73.14Z"/><path d="M1362.89,105.36a.36.36,0,0,1-.24-.09.42.42,0,0,1-.16-.33,3.43,3.43,0,0,0-.72-1.92,4.66,4.66,0,0,1-.86-2.18,6.61,6.61,0,0,1,.37-2.33,3.63,3.63,0,0,0,0-2.89,28.81,28.81,0,0,1-3.38-11.19c-.32-3.78.28-6.78,1.84-9.17a10.62,10.62,0,0,1,9.14-4.68h.44c2.86.11,7.19.27,9.22,2.29a.38.38,0,0,1,.1.38,170.34,170.34,0,0,1-5.89,18.48,46.9,46.9,0,0,1-5.75,10.66,7,7,0,0,1-4,3Zm5.61-34a9.83,9.83,0,0,0-8.09,4.31c-1.45,2.25-2,5.08-1.71,8.67a27.87,27.87,0,0,0,3.28,10.9,4.28,4.28,0,0,1,0,3.47,6.45,6.45,0,0,0-.34,2.09,4,4,0,0,0,.78,1.82,5,5,0,0,1,.78,1.81,6.16,6.16,0,0,0,3.11-2.49A45.56,45.56,0,0,0,1372,91.43a168,168,0,0,0,5.78-18.2c-1.88-1.65-5.86-1.79-8.57-1.9h-.68Z"/><path fill="#fff" d="M1332.82,77.61c-.58,5.22-2.46,10.22-3.34,15.4s-.62,10.83,2.71,15.43a19.31,19.31,0,0,0,13.65,7.38c5.46.5,11-1.38,14.38-4.87,3.18-3.29,5-11.28,6-15.25a7.47,7.47,0,0,0,6.86-1,4.08,4.08,0,0,0,.7-5.72c-1.41-1.78-3.48-2.34-6.27-.51a38.59,38.59,0,0,0,.67-8.17c0-4.16.87-10.2-1.68-12.38-1.44-1.24-4.67-2.64-6.47-3.45-3.12-1.37-8,0-11.42-.62s-7.18.5-10.21,1.75C1334.79,67.1,1333.24,73.7,1332.82,77.61Z"/><path d="M1347.59,116.3a12.89,12.89,0,0,1-1.76-.08,19.69,19.69,0,0,1-13.93-7.54c-3-4.15-3.9-9.35-2.78-15.74.39-2.27,1-4.54,1.56-6.73a61.91,61.91,0,0,0,1.79-8.64h0c.19-1.74,1.37-10.46,5.85-12.31,4-1.66,7.51-2.26,10.42-1.78a22.29,22.29,0,0,0,4.62.06c2.44-.13,5-.26,6.89.59l.2.09a29.65,29.65,0,0,1,6.38,3.41c2.16,1.87,2,6.15,1.86,9.92,0,1-.06,1.91,0,2.77v.11a39.44,39.44,0,0,1-.5,7.28c2.34-1.26,4.48-.89,6,1a4.46,4.46,0,0,1-.77,6.26h0a7.88,7.88,0,0,1-6.83,1.16c-.08.29-.15.61-.24.94-1.14,4.4-2.85,11.07-5.78,14.08A18.21,18.21,0,0,1,1347.59,116.3Zm-14.35-38.64a63.54,63.54,0,0,1-1.83,8.75c-.56,2.18-1.15,4.43-1.56,6.66-1,6.19-.16,11.28,2.63,15.14a19.1,19.1,0,0,0,13.36,7.22c5.37.48,10.75-1.34,14.06-4.76,2.78-2.87,4.54-9.66,5.58-13.73.12-.49.24-.94.35-1.34a.41.41,0,0,1,.19-.25.44.44,0,0,1,.32,0,7.08,7.08,0,0,0,6.47-.9,3.67,3.67,0,0,0,.66-5.15h0c-1.47-1.85-3.4-2-5.74-.42a.43.43,0,0,1-.44,0,.41.41,0,0,1-.17-.42,37.69,37.69,0,0,0,.65-8v-.14c0-.87,0-1.81.06-2.8.13-3.6.27-7.68-1.56-9.28a30,30,0,0,0-6.18-3.29l-.2-.09c-1.76-.78-4.18-.65-6.52-.53a24.06,24.06,0,0,1-4.8-.06c-2.76-.46-6.12.12-10,1.72-3.12,1.31-4.86,7.1-5.36,11.68Z"/><path fill="#acd4f7" d="M1349.94,71.67c-.78,2.26-4.67,5.14-7,5.12s-3-1.14-3.68-3.39c-2.19,1.55-3.89,3.2-6,3.77a6.41,6.41,0,0,1-7.58-4.92,6.91,6.91,0,0,1,5-7.85c-2.18.29-4.08-2.1-3.89-4.39a6.22,6.22,0,0,1,4.1-5c2.07-.78,4.35-.67,6.59-.78a5.88,5.88,0,0,1,2.73-6.09,9,9,0,0,1,6.69-.78,8,8,0,0,1,4,2,5.27,5.27,0,0,1,1.46,4.4c2.25-2.28,5.62-3.62,8.57-2.58s4.81,5,4.77,7.53c1.65-1.65,3.72-2.93,6-2.57,4.45.72,5,4.68,2.52,9.35a5.19,5.19,0,0,1,6.53,3.35,4.35,4.35,0,0,1,.18.71,10.3,10.3,0,0,1-2.82,8.51c-2,1.83-8.57,2.88-12.63-.78a11.92,11.92,0,0,1-3.65-6.88c-1.56,2.11-2.68,3.56-6.07,4.29C1353.25,75.3,1350.52,74,1349.94,71.67Z"/><path d="M1372.36,80.19a10.65,10.65,0,0,1-7.14-2.53,12,12,0,0,1-3.63-6.23,8.64,8.64,0,0,1-5.8,3.74,5.46,5.46,0,0,1-5.91-2.47c-1.34,2.2-4.72,4.5-6.91,4.5h0c-2.34,0-3.21-1.1-3.89-3.11l-1.11.78a13.52,13.52,0,0,1-4.59,2.68,6.39,6.39,0,0,1-5-.84,6.88,6.88,0,0,1-3.11-4.38,7.39,7.39,0,0,1,3.78-7.79,3.91,3.91,0,0,1-1.2-.77,4.84,4.84,0,0,1-1.46-3.79,6.66,6.66,0,0,1,4.35-5.32,16.24,16.24,0,0,1,5.45-.78h.78a6.36,6.36,0,0,1,3-6,9.24,9.24,0,0,1,7-.83,8.36,8.36,0,0,1,4.18,2.15,5.75,5.75,0,0,1,1.62,3.71,8.53,8.53,0,0,1,8.23-2c2.72,1,4.67,4.28,5,7,1.91-1.68,3.81-2.38,5.67-2.09a4.9,4.9,0,0,1,3.9,2.52c.82,1.67.58,4-.66,6.59a5.55,5.55,0,0,1,3.5.63,5.84,5.84,0,0,1,2.86,4,10.74,10.74,0,0,1-3,8.88A9.73,9.73,0,0,1,1372.36,80.19Zm-10.54-10.12h.09a.38.38,0,0,1,.3.31,11.67,11.67,0,0,0,3.54,6.67c3.83,3.42,10.12,2.54,12.09.78a9.89,9.89,0,0,0,2.7-8.13,5.09,5.09,0,0,0-2.46-3.44,4.63,4.63,0,0,0-3.73-.34.4.4,0,0,1-.44-.11.41.41,0,0,1,0-.45c1.45-2.7,1.83-5.06,1-6.66a4.11,4.11,0,0,0-3.33-2.08c-1.8-.29-3.7.53-5.63,2.45a.38.38,0,0,1-.44.08.39.39,0,0,1-.24-.37c0-2.33-1.65-6.13-4.5-7.15-2.56-.91-5.75.07-8.13,2.5a.39.39,0,0,1-.46.07.41.41,0,0,1-.22-.41,4.92,4.92,0,0,0-1.37-4.06,7.67,7.67,0,0,0-3.8-1.93,8.41,8.41,0,0,0-6.38.77,5.38,5.38,0,0,0-2.55,5.65.41.41,0,0,1-.31.49h-1.31a15.32,15.32,0,0,0-5.21.69,5.88,5.88,0,0,0-3.84,4.67,4,4,0,0,0,1.21,3.12,2.71,2.71,0,0,0,2.22.82.4.4,0,0,1,.42.37h0a.4.4,0,0,1-.29.4,6.48,6.48,0,0,0-4.67,7.38,6,6,0,0,0,2.75,3.9,5.59,5.59,0,0,0,4.34.77,12.25,12.25,0,0,0,4.3-2.54c.5-.38,1-.78,1.56-1.17a.38.38,0,0,1,.36,0,.42.42,0,0,1,.26.26c.64,2.15,1.27,3.11,3.31,3.11h0c2.13,0,5.87-2.75,6.58-4.85a.37.37,0,0,1,.42-.31h0a.41.41,0,0,1,.31.31c.53,2.25,3.18,3.26,5.32,2.8,3.32-.71,4.37-2.15,5.83-4.14a.35.35,0,0,1,.32-.11Z"/><path d="M1336.83,85.69a1.24,1.24,0,1,1,1.35,1.13h-.12A1.2,1.2,0,0,1,1336.83,85.69Z"/><path d="M1354,88.43a1.24,1.24,0,0,1,2.48,0,1.2,1.2,0,0,1-1.21,1.18h0a1.21,1.21,0,0,1-1.26-1.16h0Z"/><path d="M1347.4,108.11a6.29,6.29,0,0,1-2.23-.41.4.4,0,0,1-.25-.49h0a.41.41,0,0,1,.52-.23,5.72,5.72,0,0,0,5.87-1.16.38.38,0,0,1,.54,0h0a.4.4,0,0,1,0,.56A6.61,6.61,0,0,1,1347.4,108.11Z"/><path d="M1345.1,101.36a7.33,7.33,0,0,1-3.11-.78,3.25,3.25,0,0,1-1.32-1,2.67,2.67,0,0,1-.24-2.38,8,8,0,0,1,.9-1.71l.15-.24a22.53,22.53,0,0,0,3.29-9.6.38.38,0,0,1,.37-.34h0a.37.37,0,0,1,.35.38h0v.06a23.29,23.29,0,0,1-3.4,9.93l-.16.24a7.08,7.08,0,0,0-.77,1.56,1.93,1.93,0,0,0,.12,1.69,2.55,2.55,0,0,0,1,.78,6.4,6.4,0,0,0,3,.71,3.66,3.66,0,0,0,2.66-1.22.4.4,0,1,1,.69.4l0,.06h0a4.4,4.4,0,0,1-3.22,1.5Z"/><path d="M1411.15,220.19c-8.57,0-21.12-1.72-33.42-3.4-6.93-1-13.47-1.85-19-2.39a.39.39,0,0,1-.36-.42h0a.41.41,0,0,1,.44-.35c5.55.55,12.1,1.44,19,2.39,17.48,2.39,37.29,5.1,42.13,2,4.06-2.6,6.84-6.49,7.08-9.91a88.15,88.15,0,0,0-1.26-16.7c-3.11-14.79-14.48-48.35-18.5-52.88s-10-6.23-15.34-7.59a192.85,192.85,0,0,0-24.2-4.44,24.7,24.7,0,0,1-9.77,13.1c-1.17.78-2.57.13-3.8-.47l-.67-.32c-.1,0-.5-.11-.88-.18-2-.36-6.34-1.11-8.41-4.27a8.23,8.23,0,0,1-.93-6.28,87.24,87.24,0,0,0-21.38,6.4c-3,1.31-6.35,3-8.57,5.81-2,2.49-2.89,5.69-3.71,8.51-4.67,16.11-9,32.55-12.93,48.88a.39.39,0,0,1-.42.35h0a.4.4,0,0,1-.36-.44h0v-.1c3.89-16.35,8.23-32.79,12.93-48.92.84-2.89,1.79-6.16,3.89-8.77,2.29-2.91,5.75-4.68,8.83-6a88.21,88.21,0,0,1,22.15-6.55.38.38,0,0,1,.45.3h0a.38.38,0,0,1,0,.15c-.59,2.53-.36,4.63.7,6.23,1.89,2.87,5.94,3.58,7.89,3.89a6.5,6.5,0,0,1,1.06.24l.7.32c1.09.53,2.21,1.08,3,.53a23.91,23.91,0,0,0,9.54-13,.41.41,0,0,1,.43-.28,193.47,193.47,0,0,1,24.6,4.5c5.45,1.38,11.68,3.23,15.74,7.83,4.46,5,15.79,39.34,18.69,53.25a87.91,87.91,0,0,1,1.27,16.91c-.26,3.67-3.18,7.79-7.44,10.54C1418.7,219.76,1415.47,220.19,1411.15,220.19Z"/><path fill="#acd4f7" d="M1354.18,144.06q-3.2,15.91-6,31.92a21.7,21.7,0,0,0-.47,5.51,19.79,19.79,0,0,0,2.49,7.11,67.86,67.86,0,0,0,4.55,8.05,156.79,156.79,0,0,0,5.78-15.26c.56-11.83-3.3-23.36-3.61-35.2a5.55,5.55,0,0,0-.33-2.14C1356.29,143.43,1355.59,143,1354.18,144.06Z"/><path d="M1354.74,197.08a.39.39,0,0,1-.33-.17,71.41,71.41,0,0,1-4.58-8.08,20.2,20.2,0,0,1-2.52-7.26,21.5,21.5,0,0,1,.47-5.6c1.86-10.65,3.9-21.4,6-31.93a.49.49,0,0,1,.16-.24,2.59,2.59,0,0,1,2.06-.65,1.45,1.45,0,0,1,.93.83,5.48,5.48,0,0,1,.36,2.23v.06a119.1,119.1,0,0,0,1.82,15.64c1,6.38,2.1,13,1.78,19.58v.07a157.4,157.4,0,0,1-5.79,15.29.43.43,0,0,1-.33.24Zm-.2-52.79c-2.12,10.51-4.13,21.2-6,31.79a20.85,20.85,0,0,0-.47,5.4,20.08,20.08,0,0,0,2.44,7,72.41,72.41,0,0,0,4.12,7.41,152.48,152.48,0,0,0,5.45-14.51c.3-6.5-.78-13-1.79-19.35a119.32,119.32,0,0,1-1.8-15.77v-.06a5,5,0,0,0-.3-1.92.61.61,0,0,0-.4-.4,1.8,1.8,0,0,0-1.2.41Z"/><path d="M1358.76,214.43a.41.41,0,0,1-.38-.27.39.39,0,0,1,.22-.49h0c2.7-.87,3.79-3,3.64-7.28-.31-9.35-1.78-10.3-2.22-10.37a.4.4,0,0,1-.29-.48.41.41,0,0,1,.34-.3l1.65-.07c13.94-.61,29.72-1.31,39.51-2.5-1.65-5.15-3.23-9.85-4.75-14.41-1.55-4.76-3.24-9.68-5-15.07a.39.39,0,0,1,.22-.49h0a.39.39,0,0,1,.49.22h0c1.71,5.38,3.35,10.3,5,15.06s3.18,9.55,4.89,14.87a.5.5,0,0,1,0,.34.36.36,0,0,1-.28.18c-9.78,1.24-25.86,1.94-40,2.57h-.53c.78,1.06,1.56,3.69,1.8,10.39.11,3.12-.27,6.8-4.2,8.06Z"/><polygon fill="#fff" points="1233.05 172.25 1302.06 172.63 1325.84 221.46 1256.21 221.87 1233.05 172.25"/><path d="M1255.73,222.31a.41.41,0,0,1-.36-.23l-23.17-49.65a.41.41,0,0,1,.19-.53h.17l69,.38a.4.4,0,0,1,.35.22l23.78,48.78a.37.37,0,0,1,0,.38.37.37,0,0,1-.33.19l-69.6.4Zm-22.58-49.62,22.8,48.83,68.71-.41-23.35-48.05Z"/><path d="M1276.59,201.54a6.4,6.4,0,0,1-4.32-1.55,5.24,5.24,0,0,1-1.36-5.83c.78-1.74,2.75-2.62,5.29-2.34h0c4.58.45,5.53,3.25,5.52,5.51a4.22,4.22,0,0,1-.67,2.34,4.66,4.66,0,0,1-2.9,1.78A6.78,6.78,0,0,1,1276.59,201.54Zm-1.16-9c-1.16,0-3.06.27-3.8,1.93a4.46,4.46,0,0,0,1.18,4.93,5.78,5.78,0,0,0,5.16,1.22,3.91,3.91,0,0,0,2.42-1.44,3.47,3.47,0,0,0,.53-1.88c0-2.86-1.56-4.41-4.79-4.72h-.7Z"/><path fill="#acd4f7" d="M1356.89,138.63a3.35,3.35,0,0,0-3.22-.2c-1.49.61-2.75,1.49-3,3.11a8,8,0,0,0,1.12,2.73,5.14,5.14,0,0,0,2.74,2.14,3.44,3.44,0,0,0,2.41-1.06c1.22-1.09,2.21-2.7,1.82-4.28A4.38,4.38,0,0,0,1356.89,138.63Z"/><path d="M1354.68,146.78h-.23c-1.32-.11-2.65-1.71-3-2.33s-1.28-2.39-1.17-3c.34-2,2-2.86,3.27-3.38a3.7,3.7,0,0,1,3.6.25,4.77,4.77,0,0,1,2,2.64c.37,1.51-.36,3.26-2,4.68A3.78,3.78,0,0,1,1354.68,146.78Zm.52-8.27a4.09,4.09,0,0,0-1.38.28c-1.72.71-2.58,1.56-2.79,2.79a8.69,8.69,0,0,0,1.06,2.44,4.45,4.45,0,0,0,2.45,2,2.92,2.92,0,0,0,2.1-1c.52-.46,2.15-2.08,1.71-3.89a4.07,4.07,0,0,0-1.69-2.18h0a2.51,2.51,0,0,0-1.43-.44Z"/><path d="M1336.27,214.43a1.51,1.51,0,0,1-1-.42c-.78-.64-.25-1.84-.08-2.24a5.46,5.46,0,0,1,1.13-1.6,20.49,20.49,0,0,1,4.94-3.9,5.2,5.2,0,0,0-3,.78,28.38,28.38,0,0,0-4.61,3.47c-.78.63-1.5,1.29-2.28,1.89a3.8,3.8,0,0,1-1.27.72,1.65,1.65,0,0,1-1.62-.33,1.76,1.76,0,0,1-.46-1.13,4.31,4.31,0,0,1,1.12-2.81c3.12-3.9,6.37-6.11,10-6.68a.4.4,0,0,1,.45.34h0a.4.4,0,0,1-.32.45c-3.42.54-6.53,2.62-9.5,6.38a3.61,3.61,0,0,0-1,2.26.93.93,0,0,0,.23.62.88.88,0,0,0,.84.14,3,3,0,0,0,1-.59c.78-.59,1.56-1.23,2.24-1.86a31,31,0,0,1,4.75-3.56c1.24-.7,3-1.35,4.56-.53a.39.39,0,0,1,.21.35.4.4,0,0,1-.22.35,20,20,0,0,0-5.54,4.16,4.88,4.88,0,0,0-1,1.38c-.39.92-.25,1.23-.14,1.32.48.4.73.25,1.29-.17h0a39,39,0,0,1,6.75-4.62,3,3,0,0,1,2.72-.4c1.07.52,4.15,1.7,9.57,1.36a16.65,16.65,0,0,1,6.19.82.39.39,0,0,1,.26.48h0a.39.39,0,0,1-.48.26h0a16.38,16.38,0,0,0-5.9-.78c-5.6.35-8.83-.89-10-1.44a2.42,2.42,0,0,0-2,.39,39.11,39.11,0,0,0-6.51,4.54h0A2.12,2.12,0,0,1,1336.27,214.43Z"/><path d="M1326.77,213.92a1.62,1.62,0,0,1-.44-.07,2.09,2.09,0,0,1-1.23-1.92,7.67,7.67,0,0,1,1.56-4.58c2.47-3.7,5-6,7.57-6.93a.38.38,0,0,1,.5.21h0a.38.38,0,0,1-.21.5h0c-2.39.84-4.81,3.08-7.18,6.63a6.84,6.84,0,0,0-1.42,4.07,1.26,1.26,0,0,0,.68,1.22.92.92,0,0,0,.77-.16,3.61,3.61,0,0,0,.78-.78.4.4,0,0,1,.56-.06h0a.41.41,0,0,1,.07.56,4.55,4.55,0,0,1-.94.92A2,2,0,0,1,1326.77,213.92Z"/><path d="M1324.68,211.92a2.09,2.09,0,0,1-1.19-.37c-1.16-.78.28-5.1,1.5-7.11,2.75-4.53,6.23-7.79,10.12-9.47,2-1.34,10.83,1.34,14.53,2.56a12.86,12.86,0,0,0,3.42.71c.72,0,7.07.21,8.52,0a.38.38,0,0,1,.45.3h0a.42.42,0,0,1-.33.45h0a83.38,83.38,0,0,1-8.66,0,13,13,0,0,1-3.65-.74c-6-2-12.59-3.54-13.86-2.64h-.07c-3.69,1.56-7.18,4.82-9.81,9.16-1.48,2.44-2.11,5.69-1.73,6a1.15,1.15,0,0,0,1.23.1.41.41,0,0,1,.56.11h0a.38.38,0,0,1-.08.53h0A1.71,1.71,0,0,1,1324.68,211.92Z"/><path fill="#fff" d="M1344.06,125.05c1.83,4.48,5.75,10.68,9.73,13.07a119.73,119.73,0,0,1-9.45,8.27c-1.6-8-3.27-11.87-4.24-18.15C1341.17,127.43,1342.77,125.86,1344.06,125.05Z"/><path d="M1344.32,146.78h-.14a.35.35,0,0,1-.24-.28c-.78-3.76-1.56-6.64-2.21-9.18a79,79,0,0,1-2-9,.35.35,0,0,1,.16-.37c.38-.29.86-.71,1.37-1.16a20.79,20.79,0,0,1,2.6-2.08.45.45,0,0,1,.58.22c1.91,4.67,5.81,10.62,9.55,12.87a.39.39,0,0,1,.2.31.41.41,0,0,1-.13.33c-.64.55-1.31,1.19-2.09,1.93a75.65,75.65,0,0,1-7.38,6.36A.37.37,0,0,1,1344.32,146.78Zm-3.8-18.36a75.94,75.94,0,0,0,2,8.66c.65,2.42,1.38,5.13,2.1,8.57a73.67,73.67,0,0,0,6.81-5.92l1.71-1.61c-3.63-2.43-7.31-8-9.25-12.52a26.94,26.94,0,0,0-2.11,1.73l-1.26,1.09Z"/><path fill="#fff" d="M1356.52,138.09c2.27,2.86,4.55,5.73,7.28,8.66,3.3-6.45,6.65-13.11,8.15-20.24-1.42-.66-4.49-2.69-5.91-3.35.41,1.51,1.25,2.87,1,3.35A155.8,155.8,0,0,1,1356.52,138.09Z"/><path d="M1363.79,147.15a.43.43,0,0,1-.3-.13c-2.74-2.94-5-5.86-7.28-8.68a.39.39,0,0,1,0-.53c3.47-3.27,10-10.77,10.49-11.43a5.14,5.14,0,0,0-.43-1.27,16.82,16.82,0,0,1-.65-1.8.42.42,0,0,1,.13-.42.4.4,0,0,1,.42,0,31.57,31.57,0,0,1,3,1.69c1.12.69,2.23,1.34,2.92,1.66a.39.39,0,0,1,.22.44c-1.56,7.37-5.08,14.24-8.19,20.3a.4.4,0,0,1-.3.22Zm-6.72-9c2.06,2.59,4.18,5.25,6.65,7.94,3-5.81,6.23-12.35,7.79-19.31-.73-.36-1.73-1-2.71-1.55-.72-.43-1.45-.87-2.07-1.22.11.29.22.56.32.78.36.88.6,1.47.42,1.89a152.3,152.3,0,0,1-10.4,11.45Z"/><path d="M1219.3,222.71s-.4-.05-.4-.4a.42.42,0,0,1,.37-.39h267.32a.43.43,0,0,1,.31.39.38.38,0,0,1-.31.37Z"/><path d="M1333.09,196.86a.39.39,0,0,1-.39-.34,87.43,87.43,0,0,0-11.63-33.32.39.39,0,0,1,.11-.54h0a.4.4,0,0,1,.54.12h0a88.21,88.21,0,0,1,11.76,33.65.4.4,0,0,1-.34.45Z"/><path d="M1313.47,197.43a.44.44,0,0,1-.22-.07.4.4,0,0,1-.12-.54c4.29-6.64,9.64-15.38,13.08-24.08a.42.42,0,0,1,.52-.25h0a.43.43,0,0,1,.24.54c-3.45,8.77-8.83,17.55-13.14,24.22A.4.4,0,0,1,1313.47,197.43Z"/><path d="M1333.86,215.6h0a.41.41,0,0,1-.39-.41h0l.06-5.38a.38.38,0,0,1,.37-.39h0a.38.38,0,0,1,.4.36v0h0v5.39a.4.4,0,0,1-.4.4h0Z"/><path d="M1367,91.5h-.11a.37.37,0,0,1-.3-.44v0h0c.34-1.41.49-2.15.78-3.52a.4.4,0,0,1,.48-.28h0a.42.42,0,0,1,.29.35h0v.07h0c-.27,1.37-.43,2.13-.78,3.55A.37.37,0,0,1,1367,91.5Z"/><path d="M1401.52,193.43a.39.39,0,0,1-.31-.45h0a.41.41,0,0,1,.31-.32c2.34-.1,4.77-.17,7.13-.19h0a.4.4,0,0,1,.4.38h0a.41.41,0,0,1-.39.41h0c-2.34,0-4.75.09-7.11.19Z"/><path d="M1422.36,165a.4.4,0,0,1-.4-.37.39.39,0,0,1,.36-.42h0c7.15-.44,14.4-.57,21.55-.39a.38.38,0,0,1,.38.38v0h0a.4.4,0,0,1-.4.38c-7.13-.17-14.36,0-21.47.39Z"/><path d="M1425.14,171.54a.4.4,0,0,1,0-.8h0l15.34-.29a.41.41,0,0,1,.41.39.4.4,0,0,1-.39.4h0l-15.34.3Z"/><path d="M1433.09,200a.4.4,0,0,1-.4-.38.38.38,0,0,1,.35-.41h0l7.9-.35a.4.4,0,0,1,.46.33h0a.39.39,0,0,1-.31.45H1441l-7.9.35Z"/><path d="M1373.87,137.17h-.08a.39.39,0,0,1-.31-.45h0c.44-1.94.78-3.89,1.08-5.9a.4.4,0,0,1,.45-.34h0a.41.41,0,0,1,.34.44h0q-.42,3-1.09,6A.39.39,0,0,1,1373.87,137.17Z"/><path d="M1378,134.28h0a.41.41,0,0,1-.36-.42h0l.32-3.47a.39.39,0,0,1,.35-.43h0a.39.39,0,0,1,.43.35h0a.33.33,0,0,1,0,.14l-.31,3.47A.42.42,0,0,1,1378,134.28Z"/><path d="M1373.49,75.66a.4.4,0,0,1-.38-.26.41.41,0,0,1,.24-.51,5.45,5.45,0,0,0,3.54-5,.38.38,0,0,1,.36-.4h0a.38.38,0,0,1,.39.37h0a6.26,6.26,0,0,1-4,5.81Z"/><path d="M1358.3,199.1h0a.39.39,0,0,1-.36-.42h0a9.42,9.42,0,0,1,.23-1.29,3.55,3.55,0,0,1,.57-1.36,1.87,1.87,0,0,1,1.42-.78h0a.4.4,0,0,1,.32.45h0a.38.38,0,0,1-.31.31,1.12,1.12,0,0,0-.78.48,3.26,3.26,0,0,0-.43,1.08,6.88,6.88,0,0,0-.2,1.19A.43.43,0,0,1,1358.3,199.1Z"/><path d="M1358.59,214.3a1.09,1.09,0,0,1-.83-.43,2.2,2.2,0,0,1-.33-.69,7,7,0,0,1-.25-3.05.41.41,0,0,1,.5-.26.42.42,0,0,1,.28.37,6.16,6.16,0,0,0,.22,2.7,1.38,1.38,0,0,0,.19.43.3.3,0,0,0,.21.13h0a.4.4,0,0,1,.31.46h0a.38.38,0,0,1-.31.31Z"/><g opacity=".13"><path d="M1361.3,70.55c-.32.32-.65.63-1,.92-.08.15-.16.29-.25.43a8.12,8.12,0,0,1-3.7,3,.73.73,0,0,0-.83-.42h-.29a15.54,15.54,0,0,1-1.93,0h.21a7.92,7.92,0,0,1-1.9-.54l-.2-.09a.73.73,0,0,0-.48-.1h-.12v-.32a.93.93,0,0,0-.85-1h-.13a1.09,1.09,0,0,0-1,1,5.32,5.32,0,0,1-.37.46,22.25,22.25,0,0,1-1.72,1.5l-.48.36-.08.06a7.83,7.83,0,0,1-3.12,1.23h0a3.94,3.94,0,0,1-.77-.07l-.23-.08-.11-.06-.24-.19v0l-.12-.16a3.19,3.19,0,0,1-1.45-1,2.38,2.38,0,0,1-.23-.45v-.12a1,1,0,0,0-.1-.17,4.7,4.7,0,0,1-.51-1.25h0a1.08,1.08,0,0,0-.88.41c-.08.13-.16.26-.25.38l-.09.09-.06.07h0c-.29.23-.54.51-.84.71l-.36.24-.11.07h0a12,12,0,0,1-2,1c-.47.23-1.08.28-1.44.67a1,1,0,1,0,1.2,1.64h0a12.76,12.76,0,0,0,3.89-2.18c.19-.15.37-.32.55-.49a7.34,7.34,0,0,0,1.85,2.33,4.6,4.6,0,0,0,4.19.27,9.53,9.53,0,0,0,2.53-1.41,12.86,12.86,0,0,0,2-1.83,4.69,4.69,0,0,0,1.14,1.33,3.82,3.82,0,0,0,2.23.78h.13a8.32,8.32,0,0,0,3-.56,11.79,11.79,0,0,0,3.82-2.17,8,8,0,0,0,1.66-2c.1-.21,0,0,0,.08.19-.3.35-.61.51-.92a1,1,0,0,0,.17-.59.78.78,0,0,0-.73-.83h-.13Z"/></g><g opacity=".13"><path d="M1365.35,122.33c-.3-.87-.59-1.73-.84-2.61-.55-1.85-1-3.72-1.45-5.59-.52-1.37-1-2.76-1.42-4.18a.54.54,0,0,1,0-.18.82.82,0,0,0-.83,0,.36.36,0,0,1,0,.32,7.25,7.25,0,0,1-.63.83c-.21.24-.44.47-.66.7-.46.47-1,.9-1.44,1.33a.56.56,0,0,1-.17.09.79.79,0,0,0,0,.43l-.09.06a24.73,24.73,0,0,1-2.43,1.18l-1.4.56a1.19,1.19,0,0,0-.53,0h-1.68a9.72,9.72,0,0,1-4.59.66,1,1,0,0,0-.44.36l-1-.29h-.45a.34.34,0,0,1-.38-.28,1.47,1.47,0,0,0-.72-.06,1,1,0,0,0-.64,1.26,1,1,0,0,0,.64.64c4.21,1.4,12.26,4.06,15.19,4.9a13.66,13.66,0,0,0,3.11.58h0a1,1,0,0,1,.35,0c.29.13.57.24.86.35a5,5,0,0,0,.78.24.67.67,0,0,0,.78.1C1365.92,123.56,1365.46,122.86,1365.35,122.33Z"/></g><g opacity=".13"><path d="M1355.4,146.52a2.21,2.21,0,0,0-1-.61,1,1,0,0,0-.62,1.83,8.76,8.76,0,0,1,1.23.95c.24.25.46.58.85.59a1,1,0,0,0,1-.83,1,1,0,0,0,0-.24,6.05,6.05,0,0,1,.1-1.41.77.77,0,0,0-.48-1h-.1a.77.77,0,0,0-1,.45v.09h0v.09A.29.29,0,0,0,1355.4,146.52Z"/></g><g opacity=".13"><path d="M1363.38,146.07c-.24-.4-.78-.61-1-1a14.29,14.29,0,0,1-1.8-1.93,7.44,7.44,0,0,1-.52-.73,1.08,1.08,0,0,0-.65-.62.87.87,0,0,0-1.08.56h0a.85.85,0,0,0,.08.68l.29.42-.24-.06a.83.83,0,0,0-1,.65v.09a.82.82,0,0,0,.42.86c1,.53,1.9,1.12,2.83,1.7a8,8,0,0,0,2.08,1,.88.88,0,0,0,1-.74h0a.89.89,0,0,0-.41-.86Z"/></g><g opacity=".13"><path d="M1351.66,143.61c-.23-.42-.42-.84-.68-1.23-.12-.21-.18-.48-.4-.6a.87.87,0,0,0-1.21.11h0a.72.72,0,0,0-.15.27h-.08c-.37.09-.59.42-.84.68-.42.44-.38.53-.43.68h0a.83.83,0,0,0-.13.34c-.37.14-.74.29-1.09.46a4.7,4.7,0,0,0-1.56.87.87.87,0,0,0,.17,1.2.91.91,0,0,0,.93,0c.59-.32,1.27-.54,2.33-1,.61-.22,1.26-.29,1.89-.45a1,1,0,0,0,.4-.19.87.87,0,0,0,1-.71h0A.72.72,0,0,0,1351.66,143.61Z"/></g><g opacity=".13"><path d="M1362.34,200.92a10.81,10.81,0,0,0-1.4-4.63c-.22-.37-.46-.78-.91-.89a1.12,1.12,0,0,0-1.36.81,1.14,1.14,0,0,0,.11.83h0a2,2,0,0,0-.31,1,.72.72,0,0,0,.78.62.62.62,0,0,0,.26-.09,13.5,13.5,0,0,1,.45,1.77c.17,1.39.27,2.8.3,4.2a28.89,28.89,0,0,1-.11,2.94,22.18,22.18,0,0,1-.7,3.11l-.07-.11c-.2-.24-.36-.56-.67-.65a1,1,0,0,0-1.12,1.6l.21.24v.08h0a.81.81,0,0,1,0,.31h0v.22a.91.91,0,0,0,.1.56.78.78,0,0,0,.35.32.94.94,0,0,0,1.13.61c.39-.09.56-.47.84-.73a8.32,8.32,0,0,0,1.3-1.81,11.63,11.63,0,0,0,1-4.42A48.23,48.23,0,0,0,1362.34,200.92Z"/></g><g opacity=".13"><path d="M1453.76,156.13a1.32,1.32,0,0,0-2.57-.17c-.55,2.13-.86,4.32-1.44,6.45s-1,4-1.45,6c-.1.69-.21,1.38-.25,2.08v.16q-.09.42-.21.84h0a1.11,1.11,0,0,0,0,.72,1.29,1.29,0,0,0,1.6.86h0a1.28,1.28,0,0,0,.71-.54h0a4.54,4.54,0,0,0,.47-1.56c.39-1.48.53-3,.9-4.52.62-2.73,1.29-5.45,1.85-8.21.1-.42.17-.85.29-1.27A1.86,1.86,0,0,0,1453.76,156.13Z"/></g><g opacity=".13"><path d="M1438.35,215.51c-.42-1.07-.78-2.16-1.1-3.27-.46-1.37-1-2.71-1.48-4.08-.66-1.84-1.12-3.37-1.61-4.87-2.92-6.81-5.72-13.67-8.45-20.57-2.94-7.38-5.73-14.79-8.43-22.28a.72.72,0,0,0-.36.84c1.3,4.21,3.11,8.26,4.56,12.46,1.77,5.39,3.4,10.82,4.67,16.35.29,1.15.62,2.27,1,3.4a1,1,0,0,0-1.16.81h0a1.41,1.41,0,0,0,0,.41c.83,4.44,1.56,7.49,1.64,11.76v2a1.92,1.92,0,0,0-.31.18,1,1,0,0,0-.26.27c.16-.67.32-1.35.46-2a.76.76,0,0,0-.61.22c-.22.2-.22.49-.28.78a3.72,3.72,0,0,1-.59,1.46h0l-.1.12a29.14,29.14,0,0,1-3.89,3.47,18.69,18.69,0,0,1-6,2.92c-.78.24-1.5.47-2.27.67-1.6,0-3.21.14-4.82.1-2.57-.07-5.13-.36-7.69-.53a75.75,75.75,0,0,1-10.74-.77,52.39,52.39,0,0,0-7.49-.87c-2.24-.21-3-.35-5-.6-1.43-.15-3.51-.34-4-.45-2.09-.35-6.23-1.11-7-1.17a33.39,33.39,0,0,0-4-.36,3.23,3.23,0,0,0-1.2.07.88.88,0,0,0-.58.73l-.78-.05a.76.76,0,0,0-.36.08.92.92,0,0,0-.48,1.2h0a.93.93,0,0,0,.83.56,55.73,55.73,0,0,1,5.9.53c1.11.17,2.22.34,3.34.45.49,0,1,.22,1.48,0a.73.73,0,0,0,.42-.35l.59.14c3.22.68,5.81.77,8.44,1.18s5.13.52,7.7.78c.58.1,3,.5,4.77.63.1.37.44,3.63.83,3.62,1.32.11,2.64.28,4,.41.37.67,1-.54,1.74-.37,1.7.18,3.4.15,5.1.19s3.51.2,5.27.17c1.48,0,3,.85,4.44.66a21.53,21.53,0,0,0,4.73-.56c0,.52.4,0,.92,0h3c3.45-.31,11.2-.53,11.36-.48,1.5,0,3,0,4.5-.07h1.18a1,1,0,0,0,.46-.89,5.74,5.74,0,0,0-.65-1.65C1439.84,218.43,1438.59,216,1438.35,215.51Z"/></g><path d="M1399.79,93.33h-.1a.37.37,0,0,1-.29-.4c0-.5.07-1,.11-1.49.34-4.46.7-9.06-1.72-12.46-.31-.43-.67-.84-1-1.25a11,11,0,0,1-1.66-2.33,11.46,11.46,0,0,1-.78-4.81c0-5.14-.06-10.44.88-15.58.42-2.29,1.22-5.6,3.38-8,3-3.31,7.72-4.2,12.41-4.67a123.66,123.66,0,0,1,26.58-.09c4.62.53,10.38,1.65,13.91,5.65,2.92,3.32,3.73,7.89,4.17,12.33a25.48,25.48,0,0,1-.1,7.65,18.07,18.07,0,0,1-2.24,5.52,11.93,11.93,0,0,1-3.31,3.89c-2.5,1.75-5.78,1.89-8.41,2l-20.25.88a62.25,62.25,0,0,0-11.63,1.26,7,7,0,0,0-2.78,1.13,7.51,7.51,0,0,0-1.56,1.9c-1.87,2.81-3.61,5.74-5.19,8.72A.4.4,0,0,1,1399.79,93.33Zm25.58-51a130.8,130.8,0,0,0-14.27.78c-4.52.45-9.09,1.3-11.9,4.4-1.55,1.74-2.54,4.09-3.18,7.62a84.92,84.92,0,0,0-.87,15.45,10.65,10.65,0,0,0,.69,4.47,9.34,9.34,0,0,0,1.56,2.13,10.45,10.45,0,0,1,1,1.3c2.52,3.54,2.24,8.13,1.9,12.61,1.34-2.44,2.8-4.84,4.34-7.15a8.48,8.48,0,0,1,1.77-2.1,7.79,7.79,0,0,1,3.11-1.27,65,65,0,0,1,11.8-1.24l20.27-.9c2.53-.11,5.66-.24,8-1.86A11.05,11.05,0,0,0,1452.7,73a17.35,17.35,0,0,0,2.14-5.28,24.67,24.67,0,0,0,0-7.38c-.43-4.31-1.21-8.74-4-11.88-3.34-3.8-8.92-4.88-13.4-5.39a104.76,104.76,0,0,0-12.14-.71Z"/><path d="M1406.65,67.1a.39.39,0,0,1-.31-.45h0a.41.41,0,0,1,.31-.32l35.65-1.4h0a.37.37,0,0,1,.31.42v0h0a.38.38,0,0,1-.31.31Z"/><path d="M1406,56.77a.4.4,0,0,1-.32-.46h0A.41.41,0,0,1,1406,56l36.3-1.5a.4.4,0,0,1,.42.38h0a.38.38,0,0,1-.35.41h0L1406,56.8Z"/><g opacity=".13"><path d="M1453.33,70.14a22.49,22.49,0,0,1-2.33,3.4,9.44,9.44,0,0,1-3.35,2.06,7,7,0,0,1-.88.3,6.25,6.25,0,0,1-.86.18c-1.35.15-2.71.1-4.08.16-2.25,0-4.5.13-6.75.21-4.67,0-9.34.29-14,.68a37,37,0,0,0-6.19.82,21.27,21.27,0,0,0-4.62,1.28.87.87,0,0,0-.32,1.19h0a.88.88,0,0,0,1.1.37,40.8,40.8,0,0,1,6.76-1.23c2.12-.23,4.26-.16,6.39-.27,4.67-.21,9.34-.48,14-.64,1.71,0,3.41-.13,5.1-.23a21.4,21.4,0,0,0,3.57-.37,10,10,0,0,0,6.23-4.61c.4-.61.78-1.23,1.19-1.87a2.8,2.8,0,0,0,.44-.86.78.78,0,0,0-.69-.86h0A.8.8,0,0,0,1453.33,70.14Z"/></g></svg>