<svg xmlns="http://www.w3.org/2000/svg" viewBox="0 0 229.7 222.35"><defs><style>.cls-1{fill:#acd4f7;}.cls-2{opacity:0.13;}.cls-3{fill:#fff;}</style></defs><title>bg-img-l</title><path fill="#acd4f7" d="M194.56,45a88.37,88.37,0,0,0,14.91,0c.28,3.57.55,5.75-.57,9.19a6.78,6.78,0,0,1-3.34,4.23c-2.13,1-4.77.51-7.11,0a7.13,7.13,0,0,1-2.59-1c-1.47-1.06-1.55-3-1.53-4.59C194.42,49.6,194.5,47.91,194.56,45Z"/><g opacity=".13"><path d="M220.92,23.48a1,1,0,0,0-1.4.14c-.21.42-.14.22-.23.83a.45.45,0,0,1,0,.23c-.06.24-.25,1-.33,1.22h0a15.43,15.43,0,0,1-1.69,3.28,10.47,10.47,0,0,1-1.44,2c-.94,1.11-3.55,3.18-5.06,5-.44.51-1.41,1.68-1.55,1.88h0A12.11,12.11,0,0,0,207.67,40a22.62,22.62,0,0,0-1.3,2.37,5.86,5.86,0,0,0-.76,2.22.43.43,0,0,0,0,.16,1.63,1.63,0,0,0-.23,1.45c.48,1.36.47,2.94.36,5.45a8,8,0,0,1-.75,4,5.67,5.67,0,0,1-.79,1.55,1.82,1.82,0,0,0-.41.82,1.24,1.24,0,0,0,.93,1.41,3.91,3.91,0,0,0,.44-.26c.61-.41,1.22-.83,1.85-1.23l.94-.6a12.19,12.19,0,0,0,1.18-2.9c.43-2.14.54-2.54,1-4.88a11.27,11.27,0,0,0,0-3.07,3.08,3.08,0,0,0-.64-1.89h-.42l-.72.07a18.65,18.65,0,0,1,3.8-6.82c1.27-1.28,2.63-2.43,4-3.69a17,17,0,0,0,3.21-3.67c.46-1,.39-.86.68-1.54,0-.11,0,0-.07.12.17-.34.34-.68.49-1a6.3,6.3,0,0,0,.5-1.65h0C221.08,25.26,221.53,24.09,220.92,23.48Z"/></g><g opacity=".13"><path d="M206.21,42.59l.11-.2v-.07Z"/></g><path d="M219.68,18.05A12.72,12.72,0,0,0,214.75,12c-3.86-2.42-10.57-4.13-15.86-2.77-5,1.3-9.09,3.8-11.53,6.91a13.86,13.86,0,0,0-2.73,10.31,17.73,17.73,0,0,0,4.84,9.72c.37.39.77.78,1.14,1.16a21.75,21.75,0,0,1,2.18,2.42,8.84,8.84,0,0,1,1.73,4.79h-.21a.33.33,0,0,0-.31.35h0v8.24a6.78,6.78,0,0,0,.45,2.85c1.15,2.57,4.74,3.32,6.22,3.51a12.51,12.51,0,0,0,1.83.13,7.37,7.37,0,0,0,5.31-1.82,7.08,7.08,0,0,0,1.51-3.61,26.44,26.44,0,0,0,.53-9.17.36.36,0,0,0-.39-.28H209c.74-3.18,3.39-5.9,5.83-8.38s5.16-5.25,6-8.56A18.07,18.07,0,0,0,219.68,18.05ZM208.63,54a6.31,6.31,0,0,1-1.37,3.29c-1.23,1.31-3.69,1.87-6.55,1.49s-5-1.54-5.68-3.11a6.11,6.11,0,0,1-.37-2.58V45.16c3.21.2,11.63.37,14.53.2A24.89,24.89,0,0,1,208.63,54Zm-6.45-26a3.44,3.44,0,0,0,.35.41,5.79,5.79,0,0,0,2.9,1.67,16.89,16.89,0,0,0-.77,4.28c-.31,3.59-.51,7-.51,10.4h0v.07c-1.65,0-3.29,0-4.94-.07h0a46.19,46.19,0,0,0-1-11,24.5,24.5,0,0,0-.73-2.8,3.16,3.16,0,0,0,1.06.1,4.25,4.25,0,0,0,3.14-2.27,8.09,8.09,0,0,1,.5-.79Zm-.07-1.36a8.38,8.38,0,0,1-.73-3.12,5.24,5.24,0,0,1,.88-3.75.6.6,0,0,1,.38-.26h.06a.49.49,0,0,1,.2.18,4.29,4.29,0,0,1,.42,3.48,13,13,0,0,1-1.21,3.44Zm18.06,1c-.8,3.13-3.37,5.74-5.85,8.25-2.69,2.63-5.37,5.39-6.1,8.85-1.13,0-2.25.06-3.38.07v-.07c0-3.34.2-6.81.51-10.34a15.47,15.47,0,0,1,.76-4.22A4.47,4.47,0,0,0,208,30a5.62,5.62,0,0,0,3.09-2.62,2,2,0,0,0,.18-1.67,1,1,0,0,0-.81-.56,1.75,1.75,0,0,0-1.08.31,9.18,9.18,0,0,0-3.65,3.86l-.07.16A5.23,5.23,0,0,1,203,28a6.36,6.36,0,0,1-.5-.66,15.84,15.84,0,0,0,1.45-4,5.06,5.06,0,0,0-.54-4,1.05,1.05,0,0,0-.59-.45,1.14,1.14,0,0,0-1.13.49,5.9,5.9,0,0,0-1,4.24,8.72,8.72,0,0,0,1.05,3.8c-.2.32-.41.67-.63,1a3.06,3.06,0,0,1-3.92,1.72,12.06,12.06,0,0,0-2.65-4.23,3.21,3.21,0,0,0-1.36-.91,1.72,1.72,0,0,0-1.79.41,1.52,1.52,0,0,0,.14,1.87,9.89,9.89,0,0,0,4.63,3.21l.49.19a25.14,25.14,0,0,1,.89,3.19,45.65,45.65,0,0,1,1,10.81h0c-1.11,0-2.22-.1-3.33-.16a9.59,9.59,0,0,0-1.88-5.28,20.4,20.4,0,0,0-2.25-2.49c-.37-.38-.75-.77-1.11-1.16a16.87,16.87,0,0,1-4.68-9.3,13.06,13.06,0,0,1,2.62-9.76c2.35-3,6.34-5.39,11.16-6.65,5.1-1.32,11.54.32,15.33,2.68a12.15,12.15,0,0,1,4.65,5.77,17.22,17.22,0,0,1,1.12,9.3Zm-13.83,1.88A8.58,8.58,0,0,1,209.68,26a1.2,1.2,0,0,1,.68-.22.3.3,0,0,1,.26.17,1.22,1.22,0,0,1-.14,1,4.94,4.94,0,0,1-2.73,2.37,4.17,4.17,0,0,1-1.36.17Zm-13.4-4a2.53,2.53,0,0,1,1.06.73,10.85,10.85,0,0,1,2.26,3.41,9.71,9.71,0,0,1-4.18-2.9c-.18-.17-.45-.69-.18-1a.87.87,0,0,1,.68-.25h0a1.09,1.09,0,0,1,.36,0Z"/><path d="M223.12,13.22a.36.36,0,0,1-.42-.25h0a.36.36,0,0,1,.25-.43h0l4.35-2.35a.65.65,0,0,1,.79,0,.36.36,0,0,1,.15.34c0,.32,0,.34-5,2.73A.28.28,0,0,1,223.12,13.22Z"/><path d="M195.53,5.25a.36.36,0,0,1-.32-.2L193.1.45a.37.37,0,0,1,.23-.44.37.37,0,0,1,.4.15l2.13,4.57a.34.34,0,0,1-.16.45h0A.36.36,0,0,1,195.53,5.25Z"/><path d="M181.31,15.51h-.06l-4.78-.95a.67.67,0,0,1-.6-.43.38.38,0,0,1,.1-.38c.2-.21.32-.32,5.45,1.08a.36.36,0,0,1,.25.42A.35.35,0,0,1,181.31,15.51Z"/><path d="M174.94,33.36a.35.35,0,0,1-.42-.26h0a.36.36,0,0,1,.28-.41h0l4.95-2a.36.36,0,0,1,.46.18h0a.35.35,0,0,1-.18.45h0l-4.95,2.08Z"/><path d="M210.07,5.16h-.13a.37.37,0,0,1-.2-.43L211.5.35a.36.36,0,0,1,.44-.26l.06,0h0a.35.35,0,0,1,.19.45h0L210.44,5A.38.38,0,0,1,210.07,5.16Z"/><path d="M229.32,30h-.12l-4.77-1.87a.38.38,0,0,1-.22-.45h0a.36.36,0,0,1,.46-.22h0l4.77,1.84a.34.34,0,0,1,.25.41h0a.37.37,0,0,1-.37.26Z"/><path fill="#fff" d="M48.07,101.93q4.2-3.75,8.74-7.09c-2.57-.34-5.09-.52-7.6-.68.64-2.53,1.11-5,1.58-7.5q-4.49,3.12-8.64,6.68a31.46,31.46,0,0,0-.9,7.23C43.26,101.24,45.9,101.35,48.07,101.93Z"/><path fill="#acd4f7" d="M26.94,106a9.67,9.67,0,0,0-6.53.88,8.92,8.92,0,0,0-4.23,4.83,11.16,11.16,0,0,0-.54,4.21,7.16,7.16,0,0,0,2.72,5.21,10.33,10.33,0,0,0,6,2.45A9,9,0,0,0,32.09,120a8.75,8.75,0,0,0,1-8.18A9.12,9.12,0,0,0,26.94,106Z"/><path d="M48.07,102.28a.35.35,0,0,0,.21-.12C51.06,99.68,54,97.3,57,95.09a.39.39,0,0,0,.13-.35.34.34,0,0,0-.29-.26c-2.38-.31-4.67-.48-6.69-.61,1.46-1.1,2.91-2.22,4.38-3.31a.36.36,0,0,0,.07-.49.35.35,0,0,0-.49-.07h0c-1.47,1.09-2.92,2.21-4.37,3.32.53-2.21,1-4.46,1.37-6.62a.34.34,0,0,0-.15-.36.33.33,0,0,0-.38,0A105.47,105.47,0,0,0,41.91,93a.37.37,0,0,0-.12.2c-.06.32-.12.67-.19,1s-.11.55-.17.83A25.11,25.11,0,0,0,24.66,88.9,24.78,24.78,0,0,0,7.34,95.62,24.16,24.16,0,0,0,.06,111.71C-.56,121.85,3.41,128.35,6.88,132a24.51,24.51,0,0,0,17.78,7.75A25.4,25.4,0,0,0,45.8,128.62c4.6-7.06,4.69-18.33,2.14-24.72q-.42-.95-.9-1.83l1,.21Zm-5.75-7.9a4.19,4.19,0,0,0,.17-.87c2.94-2.44,5.23-4.28,7.83-6.09-.43,2.14-.85,4.34-1.41,6.52q-2.43,1.88-4.85,3.78a26.09,26.09,0,0,0-2-2.07C42.14,95.23,42.22,94.8,42.32,94.38Zm-.7,5.28a24.11,24.11,0,0,1,.3-3.17,22.88,22.88,0,0,1,1.58,1.68Zm2.3-1a22.68,22.68,0,0,1,1.73,2.42L45,101a24.29,24.29,0,0,1-3.16-.66Zm3.3,5.32c2.57,6.23,2.48,17.21-2,24.07A24.73,24.73,0,0,1,24.66,139a23.9,23.9,0,0,1-17.28-7.49C4,128,.15,121.65.73,111.74c.75-12.83,10.81-22.16,23.93-22.16h-.07A24.55,24.55,0,0,1,41.27,95.9a27.16,27.16,0,0,0-.34,4.32l-3.63,3A15.69,15.69,0,0,0,29,97.9a18.1,18.1,0,0,0-12.46,1.76,17.22,17.22,0,0,0-8,9.38,21.86,21.86,0,0,0-1,8.11,14.09,14.09,0,0,0,5.2,10,19.23,19.23,0,0,0,11.38,4.75h1a16.45,16.45,0,0,0,6.13-1.13h0a16.75,16.75,0,0,0,9.52-21.68V109a19.77,19.77,0,0,0-3-5.34l3.44-2.81a22.11,22.11,0,0,0,3.76.81,6.27,6.27,0,0,1,1.2.2c.38.71.76,1.42,1.09,2.14ZM25.06,114.06a.3.3,0,0,0,.25.12.44.44,0,0,0,.22-.1c1.88-1.68,3.8-3.34,5.72-5a8.63,8.63,0,0,1,1.56,2.71,8.34,8.34,0,0,1-1,7.85,8.61,8.61,0,0,1-7.42,3.46,10,10,0,0,1-5.79-2.37,6.8,6.8,0,0,1-2.6-4.92,10.85,10.85,0,0,1,.48-4.08,8.62,8.62,0,0,1,4.09-4.64A9.4,9.4,0,0,1,24.91,106h0a9,9,0,0,1,2,.2,8.79,8.79,0,0,1,3.92,2.33c-1.93,1.65-3.85,3.31-5.73,5A.32.32,0,0,0,25,114v.08Zm2-8.5a10.06,10.06,0,0,0-6.77.92,9.34,9.34,0,0,0-4.4,5,11.23,11.23,0,0,0-.57,4.34,7.49,7.49,0,0,0,2.86,5.48,10.61,10.61,0,0,0,6.2,2.52H25a9.43,9.43,0,0,0,7.47-3.76,9.05,9.05,0,0,0,1.08-8.5,9.54,9.54,0,0,0-1.69-2.93c1.79-1.53,3.6-3,5.42-4.53a18.53,18.53,0,0,1,2.88,5.13,16.48,16.48,0,0,1-1.88,15.18,16.28,16.28,0,0,1-14,6.68,18.59,18.59,0,0,1-11-4.55,13.37,13.37,0,0,1-5-9.54,21.35,21.35,0,0,1,1-7.86,16.52,16.52,0,0,1,7.68-9,17.39,17.39,0,0,1,8.18-2h0a17,17,0,0,1,3.7.44,15,15,0,0,1,7.94,5.07c-1.83,1.51-3.65,3-5.45,4.56A9.47,9.47,0,0,0,27,105.59Zm17.46-7.34c1.59-1.25,3.19-2.5,4.8-3.72,2,.11,4.26.27,6.65.56-2.72,2-5.39,4.21-7.93,6.46q-.72-.17-1.44-.3a25,25,0,0,0-2.12-3Z"/><path d="M13,124.25a.09.09,0,0,1-.1-.06,62.61,62.61,0,0,1-3.41-8,.12.12,0,0,1,.11-.1.12.12,0,0,1,.15.08h0a67.85,67.85,0,0,0,3.4,8,.11.11,0,0,1,0,.15H13Z"/><path d="M17.56,128.93a.14.14,0,0,1-.1-.07A115.75,115.75,0,0,1,10,111.27a.12.12,0,0,1,0-.17h0a.11.11,0,0,1,.14.07h0a117.77,117.77,0,0,0,7.5,17.57.11.11,0,0,1,0,.15Z"/><path d="M19.84,129.52h-.07c-3-6.81-5.87-13.79-8.46-20.78a.12.12,0,0,1,.07-.15h0a.12.12,0,0,1,.15.07h0c2.59,7,5.45,14,8.45,20.77a.11.11,0,0,1,0,.15h-.09Z"/><path d="M14.74,110.94a.13.13,0,0,1-.11-.06c-.8-1.72-1.48-3.5-2.16-5.27a.09.09,0,0,1,0-.13h0a.12.12,0,0,1,.15.06h0c.64,1.77,1.37,3.53,2.15,5.25a.11.11,0,0,1,0,.15h0Z"/><path d="M16.31,108.57a.12.12,0,0,1-.11-.07l-2-4.84a.09.09,0,0,1,0-.13h0a.09.09,0,0,1,.13,0h0l2,4.84a.12.12,0,0,1,0,.14h-.06Z"/><path d="M17.92,106.19a.08.08,0,0,1-.1-.06h0l-1.76-4.22a.11.11,0,0,1,.07-.14h0a.15.15,0,0,1,.13,0L18,106.09a.13.13,0,0,1-.06.15Z"/><path d="M20.48,104.79a.12.12,0,0,1-.11-.08,42.48,42.48,0,0,1-1.61-4.24.12.12,0,0,1,0-.17h0a.12.12,0,0,1,.16,0h0c.46,1.43,1,2.85,1.6,4.23a.1.1,0,0,1,0,.14h0Z"/><path d="M22.93,103.9a.1.1,0,0,1-.1-.07,33.23,33.23,0,0,1-1.47-4.09.11.11,0,0,1,.07-.14h0a.12.12,0,0,1,.15.08h0A33,33,0,0,0,23,103.77a.09.09,0,0,1,0,.13h-.07Z"/><path d="M25.65,104a.14.14,0,0,1-.12-.09l-1.32-4.54a.11.11,0,0,1,.07-.14h0a.12.12,0,0,1,.15.08h0l1.32,4.55a.11.11,0,0,1-.07.14h0Z"/><path d="M28.63,105.33a.11.11,0,0,1-.11-.08l-1.74-5.4a.11.11,0,0,1,.07-.14h0a.12.12,0,0,1,.15.07l1.73,5.45a.12.12,0,0,1-.07.15h0Z"/><path d="M32.08,106.65a.12.12,0,0,1-.11-.07l-2.35-6.24a.11.11,0,0,1,.06-.14h0a.11.11,0,0,1,.15,0h0l2.35,6.27a.12.12,0,0,1-.07.15Z"/><path d="M22.92,130.45a.12.12,0,0,1-.11-.07,44.83,44.83,0,0,1-2.72-5.94.11.11,0,0,1,0-.15h0a.12.12,0,0,1,.15.07h0a42.57,42.57,0,0,0,2.7,5.91.12.12,0,0,1,0,.16Z"/><path d="M25.22,130.32a.17.17,0,0,1-.1,0A27.84,27.84,0,0,1,22.53,125a.11.11,0,0,1,0-.15h0a.11.11,0,0,1,.15,0h0a28.81,28.81,0,0,0,2.59,5.29.14.14,0,0,1,0,.17Z"/><path d="M27.5,130a.12.12,0,0,1-.11-.07,50,50,0,0,1-2.17-4.84.12.12,0,0,1,.05-.15h0a.12.12,0,0,1,.16,0h0c.68,1.64,1.36,3.27,2.18,4.84a.12.12,0,0,1-.05.16h0Z"/><path d="M33.43,104.25a.12.12,0,0,1-.11-.07l-.92-2.61a.12.12,0,0,1,.07-.15.11.11,0,0,1,.15,0h0l.92,2.62a.11.11,0,0,1-.06.14h0Z"/><path d="M39.77,118.31a.12.12,0,0,1-.11-.07c-1.66-3.53-3.19-7.15-4.66-10.71a.13.13,0,0,1,.06-.15.14.14,0,0,1,.16.07c1.44,3.58,3,7.18,4.62,10.69a.11.11,0,0,1,0,.15Z"/><path d="M40.05,113.21a.11.11,0,0,1-.1-.06c-1.21-2.26-2.35-4.6-3.36-7a.12.12,0,0,1,0-.16h0a.12.12,0,0,1,.15.06c1,2.35,2.15,4.69,3.36,7a.14.14,0,0,1,0,.15Z"/><path d="M38.8,121.57a.12.12,0,0,1-.11-.07l-5.35-12.33a.11.11,0,0,1,0-.13h.06a.11.11,0,0,1,.13,0h0l5.32,12.34a.11.11,0,0,1,0,.15Z"/><path d="M37.54,123.85a.12.12,0,0,1-.11-.07l-2.73-5.87a.11.11,0,0,1,0-.15h0a.12.12,0,0,1,.15.06h0l2.73,5.87a.12.12,0,0,1-.06.15Z"/><path d="M35.83,125.56a.12.12,0,0,1-.11-.07l-2.32-5a.12.12,0,0,1,0-.16h0a.12.12,0,0,1,.16.06h0l2.32,5a.12.12,0,0,1-.06.15Z"/><path d="M34.08,127a.14.14,0,0,1-.1-.07l-2-4.25a.13.13,0,0,1,.06-.16h0a.1.1,0,0,1,.14,0h0l2,4.25a.12.12,0,0,1,0,.14h0Z"/><path d="M32.14,128.26a.12.12,0,0,1-.1-.07L30,124a.12.12,0,0,1,.05-.16h0a.12.12,0,0,1,.16.06h0l2,4.24a.09.09,0,0,1,0,.13h-.07Z"/><path d="M29.83,129.7a.14.14,0,0,1-.11-.06l-2-4.34a.14.14,0,0,1,.05-.16h0a.12.12,0,0,1,.14,0h0l2,4.34a.15.15,0,0,1,0,.16Z"/><g opacity=".13"><path d="M50.24,94.71c-.41-.64-1.05-.44-1.54,0a9.52,9.52,0,0,1-1.36,1c-2,1.46-4,2.73-5.46,4a.77.77,0,0,0,1,1.14c1.76-1.36,3.62-2.6,5.45-3.89.48-.32,1-.68,1.43-1a.87.87,0,0,0,.53-1.11h0A.58.58,0,0,0,50.24,94.71Z"/></g><g opacity=".13"><path d="M34.14,113.62a2.42,2.42,0,0,0-.24-1.3.83.83,0,0,0-1.16-.18h0c-.5.37-.3,1.07-.42,1.6h0a9.18,9.18,0,0,1-.42,1.64A10.69,10.69,0,0,1,29.47,119a10,10,0,0,1-3.9,2,7.06,7.06,0,0,1-3,.1h0a5.93,5.93,0,0,1-3.86-1.72.84.84,0,0,0-1.17-.1.82.82,0,0,0-.11,1.14h0l.1.1a9.61,9.61,0,0,0,6.17,2.6,6.84,6.84,0,0,0,1.28,0,1.22,1.22,0,0,0,0,.27c.36.8.82.51,1.36.44l1.28-.27a7.09,7.09,0,0,0,3.53-2.18,9.89,9.89,0,0,0,3.08-7.69Z"/></g><g opacity=".13"><path d="M41.24,113.9a13.63,13.63,0,0,0-.19-1.41.87.87,0,0,0-.42-.74.81.81,0,0,0-1.1.31.79.79,0,0,0-.09.6,8.31,8.31,0,0,1,0,3.22,24.79,24.79,0,0,1-1.27,3.85c-.1.25-.2.5-.31.74a3.2,3.2,0,0,1-.26.6,17.68,17.68,0,0,1-1.3,2.38A20,20,0,0,1,31.81,128c-1.17.87-1,.49-2,1.12l.34-.2-.53.19a22.93,22.93,0,0,1-4.52,1.31H23.36a3,3,0,0,1-.6,0,.6.6,0,0,0-.68.48h0a.59.59,0,0,0,.45.68l.87.15h.09a8.85,8.85,0,0,0,3.51-.29,35.19,35.19,0,0,0,3.47-1c.19-.06,0,0-.11,0a6.44,6.44,0,0,0,1.36-.4,17,17,0,0,0,6.28-5.3,12,12,0,0,0,1.37-2.45,5.15,5.15,0,0,0,.49-1.36v.28a23.1,23.1,0,0,0,1.26-4.15.53.53,0,0,1,0,.25A11.46,11.46,0,0,0,41.24,113.9Z"/></g><g opacity=".13"><path d="M49.17,113.69a.73.73,0,0,0-.22-.52.74.74,0,0,0-1,0h0a.71.71,0,0,0-.21.5,13.6,13.6,0,0,1-.8,5.1,23.45,23.45,0,0,1-1.89,4.85c-.68,1.24-1.25,2.53-2,3.75a29.16,29.16,0,0,1-3.14,4.19c-2.17,2.21-3.77,3.77-6.21,4.56a26.84,26.84,0,0,1-7.17,2.15h-.28l-.35.06a.61.61,0,0,0-.55.66h0a.6.6,0,0,0,.55.55,15.6,15.6,0,0,0,2.72-.29,25.75,25.75,0,0,0,4.71-1.4,19.23,19.23,0,0,0,3.1-1.23,16.26,16.26,0,0,0,3.62-2.77,18.58,18.58,0,0,0,1.66-1.66.63.63,0,0,0,.78.39h0a.68.68,0,0,0,.23-.14,22.09,22.09,0,0,0,4-5.85,19.14,19.14,0,0,0,1.22-3.18c.06-.4.29-.84.09-1.22a.74.74,0,0,0-.16-.19,24.58,24.58,0,0,0,1.32-6.57A16.83,16.83,0,0,0,49.17,113.69Z"/></g><path d="M201.76,172.41h-.51a12.66,12.66,0,0,1-9.16-5.2c-1.9-2.4-3.25-5.38-4.42-9.67V145.26c0-7.83,0-15.24-.15-22.78a.29.29,0,0,1,.11-.26.35.35,0,0,1,.26-.1c4.32.38,15.78,1.37,20.06,3.64a16.79,16.79,0,0,1,8.35,9.76h0c.88,2.91.55,6,.23,9-.14,1.29-.29,2.61-.33,3.89-.15,5-.32,10.55-2.55,15.41C211.59,168.15,207.22,172.41,201.76,172.41Zm-13.46-15a25.41,25.41,0,0,0,4.28,9.38,12.06,12.06,0,0,0,8.65,4.93c5.34.28,9.71-3.94,11.68-8.24,2.16-4.73,2.33-10.22,2.48-15.14a37.15,37.15,0,0,1,.33-3.94c.31-2.9.64-5.91-.21-8.68h0a16,16,0,0,0-8-9.34c-4-2.13-14.88-3.13-19.42-3.52.12,7.41.13,14.7.15,22.4,0,3.93.06,8,.06,12.12Z"/><path d="M108.41,222.35c-13,0-25.11-.75-34.76-1.62-20.94-1.9-37.49-5.07-40.5-6.24a.33.33,0,0,1-.21-.35A584.84,584.84,0,0,0,34,155.52a.34.34,0,0,1,.13-.28.33.33,0,0,1,.3-.06,323.27,323.27,0,0,0,117.24,7.3.36.36,0,0,1,.39.28h0c.6,9.16,1.07,18.14,1.41,26.69h0c.38,9.66.62,19.39.68,28.93a.34.34,0,0,1-.3.34l-6,.89A271,271,0,0,1,108.41,222.35Zm-74.78-8.42c3.53,1.22,19.7,4.26,40.07,6.13,19,1.73,47.27,2.94,74.12-1l5.65-.84c-.09-9.43-.33-19.09-.68-28.63-.34-8.43-.8-17.27-1.37-26.3a328,328,0,0,1-58.62,1.65,324.79,324.79,0,0,1-58-8.84c.51,19.46.2,39-1.17,57.83Z"/><path fill="#fff" d="M217,188.32c-.6-9.78-1.19-19.57-.93-29.36.2-7.79,1-15.63-.11-23.35.4,4.32-2.41,8.71-6,11.79-6.41,5.52-15.06,7.95-23.47,9.89q-12.11,2.78-24.44,4.62c.12,2.19.58,10.23.83,15.32q.65,13.64,1,27.27.17,6.41.26,12.81a241.21,241.21,0,0,0,26.19-5.63c10.07-2.86,20.29-7,26.91-15.11C217.24,193.55,217.09,190.94,217,188.32Z"/><path d="M164.13,217.63a.39.39,0,0,1-.23-.07.4.4,0,0,1-.12-.27c-.06-4.24-.15-8.54-.26-12.81-.22-8.62-.55-17.52-1-27.23-.15-3.09-.32-6.24-.49-9.28l-.33-6h0a.33.33,0,0,1,.27-.38h0c8.18-1.24,16.42-2.79,24.41-4.62s16.82-4.22,23.32-9.82c4-3.46,6.2-7.76,5.84-11.5a.35.35,0,0,1,.37-.33h0a.33.33,0,0,1,.31.26c.82,6,.56,12.11.31,18-.07,1.76-.15,3.58-.2,5.36-.26,9.79.35,19.73.93,29.31h0c.16,2.57.32,5.22.29,8.25a.27.27,0,0,1-.09.21c-7.06,8.71-18.17,12.69-27.06,15.24a237.24,237.24,0,0,1-26.23,5.63Zm-1.7-55.44c.1,1.91.21,3.81.31,5.72.17,3.05.35,6.19.5,9.29.45,9.71.79,18.62,1,27.26.1,4.14.19,8.31.25,12.42a235.58,235.58,0,0,0,25.75-5.56c8.76-2.47,19.69-6.47,26.65-14.89,0-3-.13-5.56-.28-8.08h0c-.58-9.62-1.19-19.58-.93-29.39,0-1.79.12-3.62.2-5.38a126.48,126.48,0,0,0,.05-14.44,17.61,17.61,0,0,1-5.75,8.52c-6.62,5.72-15.68,8.14-23.61,10s-16,3.32-24.14,4.53Z"/><path fill="#acd4f7" d="M133.87,93.19a25.56,25.56,0,0,0-4-10c-1.79-2.45-4.19-4.36-6.19-6.66-6-7.09-7.12-17-8-26.32-4.41,11.45-22.37,21.55-29,24.18,2,6.13.16,13.54-5,17.33-2.83,2-6.35,3-9.33,4.77s-5.55,5.3-4.57,8.67a14.06,14.06,0,0,1,.81,2.53c.23,2.38-2.23,4-4,5.55-4.09,3.51-5.65,10.28-2.13,14.32,2.78,3.19,7.5,3.66,11.73,3.75,5.73.12,54.85-12,58-18.12S135.24,99.86,133.87,93.19Z"/><path d="M134.26,93a25.33,25.33,0,0,0-4-10.1,31.48,31.48,0,0,0-3.58-3.9,31.31,31.31,0,0,1-2.62-2.78c-5.78-6.72-7-15.81-8-26.12a.35.35,0,0,0-.29-.32.36.36,0,0,0-.38.22c-4.29,11.09-25.6,22.7-28.84,24a.35.35,0,0,0-.2.43c2.08,6.23,0,13.36-4.92,16.93a26.52,26.52,0,0,1-5.09,2.73,34.8,34.8,0,0,0-4.23,2.12c-3,1.81-5.71,5.42-4.71,9,.1.32.23.63.35.94a5.67,5.67,0,0,1,.45,1.52c.18,1.86-1.5,3.22-3.12,4.58-.27.25-.54.47-.79.69a12.39,12.39,0,0,0-4.19,8.35,8.66,8.66,0,0,0,2,6.51c2.86,3.25,7.67,3.78,12,3.87,0,0,55.45-12.67,58.44-18.43C135.35,107.86,135.93,101,134.26,93ZM90.8,128.39c-5.1,2.45-11,2.69-16.69,2.57-4.39-.08-8.82-.63-11.47-3.63a8,8,0,0,1-1.84-6,11.86,11.86,0,0,1,3.93-7.85l.78-.68c1.68-1.38,3.58-3,3.37-5.18a6.2,6.2,0,0,0-.52-1.75c-.12-.3-.23-.58-.32-.88-1-3.24,1.61-6.53,4.4-8.24a33.43,33.43,0,0,1,4.13-2A26.28,26.28,0,0,0,81.79,92c5.08-3.67,7.29-10.9,5.29-17.38,6.53-2.39,13.18,1.7,16.18,6.84.77,1.3,1.16,8,.84,9.9C103.1,97.15,95.81,125.81,90.8,128.39Zm41.1-15.46c-2.85,5.5-23.75-23.35-25-27.38,2.27-11.52,4.48-22.83,8.62-33.82,1,9.8,2.39,18.44,8,25,.83,1,1.77,1.89,2.66,2.78a33.68,33.68,0,0,1,3.51,3.85,24.77,24.77,0,0,1,3.91,9.84C135.19,101.06,134.63,107.7,131.9,112.93Z"/><path fill="#fff" d="M117,100.63a115.2,115.2,0,0,1-3.69-14.86c-2.17-.37-9.64,2.16-9.65,2.75l-1.31,12.06a1.5,1.5,0,0,0,1,1.84A11.78,11.78,0,0,0,117,100.63Z"/><path fill="#fff" d="M118.34,51.77c.74,4.48,1.24,9.28,3.67,13.24,1.32,2.15,4.89,14.09-3.64,20.39a19.45,19.45,0,0,1-16.51,3.13c-4.16-1.07-10.45-6.4-11.59-13.23-2.66,1.69-6.13.6-7-2A3.74,3.74,0,0,1,85.66,69a3.41,3.41,0,0,1,2.83.09A41.25,41.25,0,0,0,86.59,59c2.19-4.65,7-8.12,12-10.53C100.25,47.62,117.58,47.14,118.34,51.77Z"/><path d="M179.29,62.69A2.66,2.66,0,0,0,177,60.85a3.5,3.5,0,0,0-1,.25,4,4,0,0,0-3.28-1.78,1.75,1.75,0,0,0-1,.24h-.06a3.54,3.54,0,0,0-2.85-.78,24.77,24.77,0,0,1-.75-6.12A22.09,22.09,0,0,0,167,45.44a1.63,1.63,0,0,0-.93-1.07c-.8-.21-1.44.53-1.73,1.36a19.37,19.37,0,0,0-.68,6.82v1.57A42.12,42.12,0,0,1,162,65.93a.32.32,0,0,0,.24.38h.1a.34.34,0,0,0,.38-.3h0a42.75,42.75,0,0,0,1.7-12V52.49a19.22,19.22,0,0,1,.61-6.58c.14-.41.51-1,.88-.91a1.22,1.22,0,0,1,.5.68,21.93,21.93,0,0,1,1,7.06,25,25,0,0,0,.81,6.44,2.61,2.61,0,0,0-.88,1.14,6.23,6.23,0,0,0-.39,2,31.65,31.65,0,0,0,.06,4.77,3.55,3.55,0,0,0,.34,1.39,1.61,1.61,0,0,0,1.32.92,1.63,1.63,0,0,0,1-.44,2,2,0,0,0,.57.58,1.18,1.18,0,0,0,.63.18,1.42,1.42,0,0,0,.8-.33,1.54,1.54,0,0,0,1.47.94,2,2,0,0,0,1-.48,9.83,9.83,0,0,0,2.78-3.3.36.36,0,0,0-.16-.47h0a.33.33,0,0,0-.45.13h0a9,9,0,0,1-2.5,3,1.44,1.44,0,0,1-.68.33,1,1,0,0,1-.85-.76,2.89,2.89,0,0,1,.24-1.51A15.13,15.13,0,0,1,175,62.79c.71-.87,1.32-1.27,1.94-1.27a2,2,0,0,1,1.62,1.36,6.14,6.14,0,0,1,.16,2.56,149.65,149.65,0,0,1-2.51,18.25.35.35,0,0,0,.27.4h.07a.37.37,0,0,0,.39-.24,150.59,150.59,0,0,0,2.5-18.31A6.85,6.85,0,0,0,179.29,62.69Zm-10,5.74a1.15,1.15,0,0,1-.68.33.93.93,0,0,1-.73-.54,3.2,3.2,0,0,1-.25-1.15,30,30,0,0,1,0-4.64,5.39,5.39,0,0,1,.33-1.78,1.9,1.9,0,0,1,1-1.16,3.07,3.07,0,0,1,2.24.63,1.21,1.21,0,0,0-.2.3A13.47,13.47,0,0,0,169.31,65a6.88,6.88,0,0,0,.07,3.19v.13a.52.52,0,0,1-.1.11Zm5.15-6a16.12,16.12,0,0,0-2.63,4.68,3.4,3.4,0,0,0-.28,1.29.71.71,0,0,1-.38.51.53.53,0,0,1-.52,0,1.38,1.38,0,0,1-.53-.82,6.34,6.34,0,0,1-.09-3,13.32,13.32,0,0,1,1.59-4.35,1.77,1.77,0,0,1,.51-.61,1.26,1.26,0,0,1,.69-.13,3.2,3.2,0,0,1,2.63,1.42,3.4,3.4,0,0,0-1,1Z"/><path fill="#acd4f7" d="M121.81,50.53a10,10,0,0,0-2.36-4.77c-2.89-3.41-6-6.13-12.83-7a32.89,32.89,0,0,0-9.45.22,12.24,12.24,0,0,0,.33-2.7,11.49,11.49,0,1,0-14,11.21,22,22,0,0,0-1.69,2.68,20.07,20.07,0,0,0-2.36,11.52c.36,3.41,1.9,5.55,4.36,8.35a3.84,3.84,0,0,1,2.3-1.46,4.86,4.86,0,0,1,2.7.73c1.48-5.19,2.25-8.86,1.56-14.38C102.56,58,112,53.92,121.81,50.53Z"/><path fill="#fff" d="M166.6,69.09a5.48,5.48,0,0,1,1.08-3.58,14.85,14.85,0,0,0,1.47-1.88,1.73,1.73,0,0,0-.28-2.18,1.83,1.83,0,0,0-1.46-.21,6.78,6.78,0,0,0-3.26,2.15,7.34,7.34,0,0,0-1.5,2,6.45,6.45,0,0,0-.51,2.12,2.19,2.19,0,0,0,1.49,2.59,3.14,3.14,0,0,0,1.89.44A1.32,1.32,0,0,0,166.6,69.09Z"/><path d="M107.78,81.48h-.49a6.34,6.34,0,0,1-4-2.1.36.36,0,0,1,0-.49.34.34,0,0,1,.48,0h0a5.66,5.66,0,0,0,3.58,1.87,2.88,2.88,0,0,0,2.78-1.11.35.35,0,0,1,.46-.14h0a.37.37,0,0,1,.14.47h0A3.43,3.43,0,0,1,107.78,81.48Z"/><path d="M100.55,66.09a1.08,1.08,0,0,1,.83-1.28h0a1.08,1.08,0,0,1,1.28.83h0a1.1,1.1,0,0,1-.86,1.29h0a1.08,1.08,0,0,1-1.24-.84h0Z"/><path d="M116,62.48a1.1,1.1,0,0,1,.82-1.31h0a1.1,1.1,0,0,1,1.31.82h0a1.09,1.09,0,0,1-.79,1.31h-.11A1.07,1.07,0,0,1,116,62.48Z"/><path d="M112.88,73.09a.34.34,0,0,1-.31-.37h0a.36.36,0,0,1,.13-.23l1.24-1c.14-.1.17-.15.18-.17a1.06,1.06,0,0,0-.23-.19,6.73,6.73,0,0,1-2.72-5.21.35.35,0,0,1,.34-.36h0a.37.37,0,0,1,.35.35,6,6,0,0,0,2.46,4.66.82.82,0,0,1,.44,1,.78.78,0,0,1-.39.43l-1.22,1A.33.33,0,0,1,112.88,73.09Z"/><path fill="#fff" d="M92.5,151.76c-.77-9.2-1.54-15.77-2.31-25-1.1,6.24-4.5,18.5-5.87,25.18a316.36,316.36,0,0,1,33.27,2.31,16.29,16.29,0,0,0-5,6.55,28.48,28.48,0,0,0-1.6,7.85c-14.11-.48-28-.68-41.84-.27a8.06,8.06,0,0,1-4.51-.72,5.32,5.32,0,0,1-2.12-2.73c-1.16-3-.45-6.32.27-9.44,2.21-9.2,6.29-26.73,10.08-35.4a34.83,34.83,0,0,1,6.44-10.37c5.91-6.18,14.69-8.48,23.17-10.48.37,2.12,2.61,3.41,4.71,3.84a9.49,9.49,0,0,0,5.63-.32A7.31,7.31,0,0,0,116.91,98c6.51-.59,10.62-.57,13.49-.16,3.79.56,7.5,3.32,10,6.08,5.25,5.77,8,10.61,13.56,17.32a99.36,99.36,0,0,0,7.3-38.45c1.19,2.73,16.47,2.47,18.09-1.87-1.07,16-2.17,32.28-7,47.61-1.57,4.93-3.58,9.84-7,13.77s-8.29,6.82-13.46,6.65-8.49-1.57-11.83-8a10.56,10.56,0,0,0-1.42,2.9c0,6.81.6,14.82.68,21.54-15.25,2.41-31.25.37-46.58-.62C92.73,160.2,92.81,155.66,92.5,151.76Z"/><path fill="#acd4f7" d="M128.63,199a2.83,2.83,0,0,1,2.62-3h0a2.84,2.84,0,0,1,.41,5.66h-.22a2.72,2.72,0,0,1-2.81-2.63h0Z"/><path d="M87.84,208.64h0l-6.89-.1a.34.34,0,0,1-.34-.34h0l.73-24.35a.35.35,0,0,1,.35-.34h6.72a.36.36,0,0,1,.26.11.38.38,0,0,1,.09.25l-.56,24.5a.36.36,0,0,1-.36.34h0Zm-6.5-.82,6.19.12L88,184.15H82Z"/><path d="M75.81,207.59h0l-6.73-.36a.33.33,0,0,1-.33-.33h0l.69-11.49a.35.35,0,0,1,.36-.33h0l6.36.33a.34.34,0,0,1,.32.36h0l-.34,11.52a.33.33,0,0,1-.11.25A.34.34,0,0,1,75.81,207.59Zm-6.35-1,6,.32.34-10.82-5.67-.3Z"/><path d="M52.77,205h0l-6.72-.18a.36.36,0,0,1-.34-.36V199a.37.37,0,0,1,.35-.35H52.8a.36.36,0,0,1,.37.33h0v5.59a.33.33,0,0,1-.11.25A.33.33,0,0,1,52.77,205Zm-6.38-.87,6,.16V199.4h-6Z"/><polygon fill="#acd4f7" points="58.47 191.97 58.08 205.59 64.81 206.04 65.32 192.23 58.47 191.97"/><path d="M64.37,206.39h0l-6.73-.45a.34.34,0,0,1-.32-.35L57.71,192a.3.3,0,0,1,.1-.25.41.41,0,0,1,.26-.09l6.81.26a.34.34,0,0,1,.34.34h0l-.53,13.85a.33.33,0,0,1-.12.24A.45.45,0,0,1,64.37,206.39ZM58,205.27l6,.41.48-13.12-6.13-.23Z"/><path d="M174.93,197.63h-.11a.34.34,0,0,1-.23-.42h0l5.84-18.36a.37.37,0,0,1,.26-.24.34.34,0,0,1,.33.1,52,52,0,0,0,6.35,5.88,151.21,151.21,0,0,0,5.8-15.41.35.35,0,0,1,.28-.24.3.3,0,0,1,.33.13c3,4.09,6,8.53,9.41,14l7.25-20.45a.36.36,0,0,1,.48-.18h0a.35.35,0,0,1,.2.41h0L203.62,184a.35.35,0,0,1-.28.24A.39.39,0,0,1,203,184c-3.45-5.45-6.45-9.88-9.36-13.95a150,150,0,0,1-5.78,15.21.34.34,0,0,1-.22.2.4.4,0,0,1-.3-.06,49.34,49.34,0,0,1-6.38-5.79l-5.62,17.77A.35.35,0,0,1,174.93,197.63Z"/><path d="M185.6,194.32h-.12a3.57,3.57,0,0,1-.85-.48l-1.54-1.11a.34.34,0,0,1-.1-.46h0a.34.34,0,0,1,.47-.08h0l1.55,1.1a2.68,2.68,0,0,0,.68.38.31.31,0,0,1,.28.34h0a.36.36,0,0,1-.39.28h0Zm2-1.54a.36.36,0,0,1-.2-.06.34.34,0,0,1-.1-.47h0l1.56-2.31a.34.34,0,0,1,.47-.1h0a.35.35,0,0,1,.09.49h0l-1.56,2.29a.34.34,0,0,1-.21.16Zm-6.6-1.61a.31.31,0,0,1-.2-.07l-2.26-1.61a.34.34,0,0,1-.1-.46h0a.35.35,0,0,1,.49-.09h0l2.26,1.62a.34.34,0,0,1,.09.46h0a.35.35,0,0,1-.28.15Zm19.47-1.83a.35.35,0,0,1-.22-.08c-.68-.6-1.41-1.19-2.14-1.77a.33.33,0,0,1,0-.47h0a.33.33,0,0,1,.45-.07h0c.73.59,1.45,1.19,2.14,1.78a.34.34,0,0,1,0,.48h0a.32.32,0,0,1-.26.12Zm-9.75-1.16a.33.33,0,0,1-.19-.06.34.34,0,0,1-.1-.47h0l1.57-2.27a.36.36,0,0,1,.47-.17.35.35,0,0,1,.16.47h0v.08h0L191,188.1a.32.32,0,0,1-.3.12Zm-14.23-.24a.36.36,0,0,1-.2-.06l-2.23-1.6a.34.34,0,0,1-.1-.46h0a.35.35,0,0,1,.49-.09h0l2.26,1.62a.34.34,0,0,1,.1.46h0a.37.37,0,0,1-.27.13Zm19.69-2.1a.39.39,0,0,1-.21-.08c-.73-.56-1.47-1.13-2.21-1.68a.36.36,0,0,1-.07-.49.34.34,0,0,1,.47-.08h0l2.21,1.69a.35.35,0,0,1,.08.49h0a.37.37,0,0,1-.29.14Z"/><path d="M58.91,175h0a47.75,47.75,0,0,1-14.61-2.38.38.38,0,0,1-.23-.45h0a.38.38,0,0,1,.45-.23h0a46.4,46.4,0,0,0,14.36,2.35.34.34,0,0,1,.4.26h0a.34.34,0,0,1-.27.4h-.13Z"/><path d="M52.29,179.46h0a46.52,46.52,0,0,1-7.69-1.25.35.35,0,0,1,.17-.68h0a45,45,0,0,0,7.56,1.24.32.32,0,0,1,.28.36h0a.34.34,0,0,1-.27.28Z"/><path d="M49.56,185.24h0a24.88,24.88,0,0,1-6.13-1.39.35.35,0,0,1-.22-.42h0a.35.35,0,0,1,.45-.21h0a23.86,23.86,0,0,0,5.9,1.3.33.33,0,0,1,.27.38h0a.34.34,0,0,1-.27.28Z"/><path d="M205.17,136.72H205a24.3,24.3,0,0,0-10.41-2.25h0a.35.35,0,0,1-.35-.34h0a.35.35,0,0,1,.34-.35h0a24.72,24.72,0,0,1,10.7,2.3.36.36,0,0,1,.28.39h0a.34.34,0,0,1-.4.27h0Z"/><path d="M201,140.41h-.1a16.86,16.86,0,0,0-6.36-.55.35.35,0,0,1-.38-.31h0a.36.36,0,0,1,.3-.39,18.09,18.09,0,0,1,6.63.58.36.36,0,0,1,.3.39h0a.35.35,0,0,1-.38.29h0Z"/><path d="M205,146.62h-.15a17.36,17.36,0,0,0-9.54-1.7.34.34,0,0,1-.44-.19h0a.35.35,0,0,1,.2-.43h.17a17.91,17.91,0,0,1,9.9,1.76.35.35,0,0,1,.16.46A.37.37,0,0,1,205,146.62Z"/><path d="M129.23,197.54a.37.37,0,0,1-.2-.07l-9.62-7.1a.34.34,0,0,1-.1-.46h0a.35.35,0,0,1,.49-.06h0l9.62,7.13a.37.37,0,0,1,.08.49A.42.42,0,0,1,129.23,197.54Z"/><path d="M117.45,185.73a3,3,0,0,0-1.82,5.51.27.27,0,0,0-.1.16l-6.25,15.19H109a3,3,0,1,0-.37,6h0a3.1,3.1,0,0,0,3.17-3,3,3,0,0,0-1.86-2.77l6.21-15.14v-.11h0a2.88,2.88,0,0,0,.92.22,3.1,3.1,0,0,0,3.17-3A3,3,0,0,0,117.45,185.73Zm-6.32,23.84a2.29,2.29,0,1,1-2.49-2.28h0a2.38,2.38,0,0,1,2.49,2.26h0Zm6.22-18.43a2.35,2.35,0,0,1-.27-4.68v.06a2.38,2.38,0,0,1,2.48,2.25,2.28,2.28,0,0,1-2.19,2.37h0Z"/><path d="M141.34,182a3,3,0,0,0-2,5.37l-6.34,9a3,3,0,1,0-2.72,5.35,2.93,2.93,0,0,0,1.19.32h0a3.07,3.07,0,0,0,3.14-3h0a3,3,0,0,0-1.06-2.28l6.36-9A2.88,2.88,0,0,0,141,188a3.1,3.1,0,0,0,3.17-3A3,3,0,0,0,141.34,182ZM134,199a2.29,2.29,0,0,1-2.16,2.3h0a2.29,2.29,0,0,1-2.47-2.1h0a2.29,2.29,0,0,1,2.1-2.47h0A2.39,2.39,0,0,1,134,199Zm7.34-11.7a2.29,2.29,0,0,1-2.45-2.11h0a2.29,2.29,0,0,1,2.11-2.46h0a2.38,2.38,0,0,1,2.45,2.31h0A2.29,2.29,0,0,1,141.34,187.3Z"/><path d="M179.52,80.51a.34.34,0,0,0-.41.25c-.69,2.12-6.16,3.49-11.06,3.49H168a23.4,23.4,0,0,1-3.13-.21,50.83,50.83,0,0,0-1.65-11.64l-.1-.4c-.56-2.07-1.12-4.2-.35-6.07a8.6,8.6,0,0,1,2.6-3.08,4.88,4.88,0,0,1,2.09-1.23,1.48,1.48,0,0,1,1.73.87c.18.68-.46,1.32-1.06,2l-.39.43a6,6,0,0,0-.68,6.75h0a.34.34,0,0,0,.47.11h0a.37.37,0,0,0,.13-.48,5.32,5.32,0,0,1,.62-6l.37-.41c.7-.75,1.49-1.6,1.23-2.67a2.16,2.16,0,0,0-2.53-1.37,5.46,5.46,0,0,0-2.45,1.39,9.49,9.49,0,0,0-2.77,3.36c-.85,2.09-.23,4.51.32,6.51l.11.39a50.59,50.59,0,0,1,1.63,11.41c-1.37-.28-2.27-.72-2.45-1.29a.35.35,0,0,0-.35-.25.36.36,0,0,0-.34.36,98.3,98.3,0,0,1-7.05,37.7c-2.26-2.76-4.05-5.18-5.77-7.53a100.08,100.08,0,0,0-7.46-9.34c-1.5-1.63-5.49-5.5-10.22-6.19-3.12-.45-7.44-.4-13.57.15a.37.37,0,0,0-.3.24.58.58,0,0,1-.05.14,115.75,115.75,0,0,1-2.92-12.2.37.37,0,0,0-.28-.28,22.33,22.33,0,0,0-6.68-.11,4,4,0,0,0-2.83,1.32,3.79,3.79,0,0,0-.54,1.85l-1.14,10.44C93,101.1,84.85,103.43,79.1,109.44a34.73,34.73,0,0,0-6.49,10.47c-4,9.12-8.41,28.3-10.08,35.52-.66,2.88-1.49,6.46-.26,9.65A5.89,5.89,0,0,0,64.53,168a8.49,8.49,0,0,0,4.71.77c12-.42,24.88-.31,41.81.27V169h.09a.35.35,0,0,0,.14-.47,4.54,4.54,0,0,1-.33-2.06h1a29.18,29.18,0,0,1,6.18.68,8.61,8.61,0,0,1,4.24,2.34,10.8,10.8,0,0,1,1.92,3.94l.08.21c.41,1.24,1.07,1.92,1.85,1.92h.14a1.29,1.29,0,0,0,.92-.5l.09-.18a3.17,3.17,0,0,0,.91,1.56,1.65,1.65,0,0,0,1,.34,1.32,1.32,0,0,0,.62-.15,1.88,1.88,0,0,0,.68-1.37,17,17,0,0,0-1-9.33,8,8,0,0,1,2.14,3,17.51,17.51,0,0,1,1.06,5,3.12,3.12,0,0,0,.3,1.2,1.28,1.28,0,0,0,1.26.68c.51-.09.88-.53,1.1-1.31a12.08,12.08,0,0,0,.21-6c.7.89,1.39,1.79,2,2.73l1.08,1.53a1.34,1.34,0,0,0,.91.68h.11a1.3,1.3,0,0,0,.88-.33,2.92,2.92,0,0,0,.37-2,14,14,0,0,0-3.15-6.47h1.38a.3.3,0,0,0,.26-.13.29.29,0,0,0,.07-.27,66.37,66.37,0,0,1-.48-10.16c0-3.19,0-6.5-.27-10a.37.37,0,0,0-.24-.26c.57-.76,1.15-1.51,1.72-2.28,3.09,6.36,6.63,7.72,11.64,7.86s10.08-2.5,13.73-6.77,5.64-9.66,7-13.89c4.92-15.47,6.07-31.86,7.07-47.71a.34.34,0,0,0-.16-.47Zm-75.5,8a3.19,3.19,0,0,1,.41-1.54,3.37,3.37,0,0,1,2.36-1,21.32,21.32,0,0,1,2.88-.19h0a22.18,22.18,0,0,1,3.36.28A112.9,112.9,0,0,0,116.17,99a7.08,7.08,0,0,1-3.45,3.4,9.22,9.22,0,0,1-5.45.3c-1.88-.41-4-1.51-4.39-3.42Zm36.29,82.54a2.53,2.53,0,0,1-.23,1.46.63.63,0,0,1-.43.21c-.18,0-.34-.26-.41-.37v-.06l-1.07-1.52a44,44,0,0,0-3.11-4.09h0a11.93,11.93,0,0,0-2.11-3.55.34.34,0,0,0-.48,0,.37.37,0,0,0,0,.5,11.36,11.36,0,0,1,2.28,10.67c-.09.34-.27.81-.55.81a.65.65,0,0,1-.54-.34,2.57,2.57,0,0,1-.21-.94,18.45,18.45,0,0,0-1.11-5.14,7.93,7.93,0,0,0-3.41-4.09.44.44,0,0,0-.32,0,.36.36,0,0,0-.16.47,16.51,16.51,0,0,1,1.47,10,1.39,1.39,0,0,1-.39.88.78.78,0,0,1-.84-.12,4.55,4.55,0,0,1-1-2.3,3.31,3.31,0,0,0,0-.77,17,17,0,0,0-2.17-6.38.35.35,0,0,0-.45-.21.36.36,0,0,0-.21.45s0,0,0,0v.07a16.63,16.63,0,0,1,2,6.13,2.58,2.58,0,0,1-.31,1.72.58.58,0,0,1-.45.25c-.67.07-1.1-1-1.25-1.44l-.08-.22a11.23,11.23,0,0,0-2-4.18,9.34,9.34,0,0,0-4.57-2.53,28.81,28.81,0,0,0-6.34-.73,8.34,8.34,0,0,1-1,0,19,19,0,0,1,1.2-4.93l.09-.2a12.58,12.58,0,0,1,2.57-4.47c1.6.2,3.26.34,4.82.49s3.27.3,4.9.5a19,19,0,0,1,4.28.85,13,13,0,0,1,3.85,2.4c4.08,3.46,7,6.59,7.68,10.75ZM172,128.35c-1.36,4.13-3.16,9.45-6.81,13.67s-8.56,6.66-13.19,6.53c-4.95-.14-8.2-1.42-11.19-7.8,1.12-1.52,2.24-3.05,3.34-4.57a2.56,2.56,0,0,0,.43-3.09l-7.15-17.31a.33.33,0,0,0-.42-.15.36.36,0,0,0-.19.46l7.14,17.3a1.91,1.91,0,0,1-.34,2.41c-2.51,3.49-5.11,7-7.71,10.39a.32.32,0,0,0-.07.19.37.37,0,0,0,.35.36.31.31,0,0,0,.24-.16l1.75-2.32c.25,3.38.25,6.58.25,9.68a68.08,68.08,0,0,0,.43,9.89h-1.3a.29.29,0,0,0-.14.08,38.46,38.46,0,0,0-4.27-4.1,13.94,13.94,0,0,0-4.09-2.49,19.69,19.69,0,0,0-4.43-.9c-1.63-.19-3.32-.34-4.93-.49-1.38-.13-2.79-.27-4.18-.43a5.91,5.91,0,0,1,2.08-.93.37.37,0,0,0,.27-.27.35.35,0,0,0-.27-.4c-8.65-1.1-15.52-1.61-24.81-2a.31.31,0,0,0,0-.19c-.39-4.6-.78-8.62-1.16-12.49s-.77-7.88-1.16-12.48a.34.34,0,0,0-.27-.27.33.33,0,0,0-.38.27c-.63,3.49-2,8.92-3.27,14.16-1,4.18-2,8.07-2.61,11a.35.35,0,0,0,.07.28.3.3,0,0,0,.26.13c13.44.43,21.47.86,31.8,2.14a6.57,6.57,0,0,0-1.45,1h-.07a.33.33,0,0,0-.26.3,13.46,13.46,0,0,0-2.67,4.62l-.08.19a17.89,17.89,0,0,0-1.28,5.4v0h0a.21.21,0,0,0,0,.11,6.62,6.62,0,0,0,.21,2.17c-16.68-.56-29.45-.63-41.33-.25-1.43,0-3.06.08-4.33-.68a5.18,5.18,0,0,1-2-2.54c-1.15-3-.35-6.46.29-9.24,1.63-7.2,6-26.34,10-35.4a34.26,34.26,0,0,1,6.37-10.27C85,104.05,93,101.76,102.13,99.6h0s1.53,2.38,2.43,2.69a9.63,9.63,0,0,0,5.84,1.29c5.62-.81,6.63-5.15,6.69-5.35,6-.53,10.19-.58,13.19-.13,4.5.68,8.35,4.42,9.8,6a104.72,104.72,0,0,1,7.4,9.27c1.83,2.47,3.72,5,6.18,8a.35.35,0,0,0,.32.11.36.36,0,0,0,.27-.21,99.6,99.6,0,0,0,7.37-37.57,6.94,6.94,0,0,0,2.71,1,.42.42,0,0,0,.19.06h0a.11.11,0,0,0,.12-.05A25.11,25.11,0,0,0,168,85c3.62,0,9-.8,11-2.8C177.91,97.53,176.76,113.4,172,128.35ZM92.19,151.79a.17.17,0,0,0,0,.1l-7.46-.27h0c.61-2.83,1.54-6.56,2.54-10.56,1-4.17,2.12-8.45,2.8-11.79.37,3.56.69,6.82,1,10,.37,3.92.77,7.92,1.16,12.52Z"/><path d="M118.41,156.29h-.06a.35.35,0,0,1-.29-.38h0a1.57,1.57,0,0,0-.28-1.11c-.1-.15-.23-.23-.29-.21a.35.35,0,0,1-.41-.26h0a.35.35,0,0,1,.22-.4,1,1,0,0,1,1,.48,2.19,2.19,0,0,1,.4,1.61A.35.35,0,0,1,118.41,156.29Z"/><path d="M111.82,169.3a1.36,1.36,0,0,1-1.29-.76.35.35,0,0,1,.08-.49h0a.35.35,0,0,1,.48.07h0v.08a.09.09,0,0,1,0,.07.73.73,0,0,0,.76.32,2.76,2.76,0,0,0,1.54-1,14.14,14.14,0,0,0,1.37-1.52.36.36,0,0,1,.47-.17.35.35,0,0,1,.16.47h0a.16.16,0,0,1-.06.08,14.28,14.28,0,0,1-1.41,1.6,3.51,3.51,0,0,1-2,1.15Z"/><path d="M161.24,83a.35.35,0,0,1-.35-.31,1.14,1.14,0,0,1,.27-.81,2.16,2.16,0,0,1,.54-.46,6,6,0,0,1,2.59-.88.37.37,0,0,1,.44.24.35.35,0,0,1-.23.43h-.14a5.49,5.49,0,0,0-2.29.79,1.35,1.35,0,0,0-.37.3.38.38,0,0,0-.11.3.35.35,0,0,1-.31.38h0Z"/><path d="M179.34,81.31h0A.35.35,0,0,1,179,81h0a.27.27,0,0,0-.11-.18,1.22,1.22,0,0,0-.36-.18,3.48,3.48,0,0,0-1.2-.16.35.35,0,0,1-.28-.4h0a.35.35,0,0,1,.28-.27,4.09,4.09,0,0,1,1.43.2,1.69,1.69,0,0,1,.6.3,1,1,0,0,1,.35.74A.34.34,0,0,1,179.34,81.31Z"/><path d="M107.93,107a8.58,8.58,0,0,1-7.4-4.38.33.33,0,0,1,.12-.45h0a.35.35,0,0,1,.47.14h0a7.87,7.87,0,0,0,7.39,4,.35.35,0,0,1,.37.32.34.34,0,0,1-.31.37h-.64Z"/><path d="M100.78,107.41h-.1A4.42,4.42,0,0,1,98,104.18a.35.35,0,0,1,.17-.46h0a.37.37,0,0,1,.47.2v.17a3.68,3.68,0,0,0,2.26,2.76.33.33,0,0,1,.2.41h0a.32.32,0,0,1-.32.21Z"/><path d="M82.52,45.67h-.13a.35.35,0,0,1-.19-.45h0a10.1,10.1,0,0,1,3-3.79,23.93,23.93,0,0,1,4.09-2.52.35.35,0,0,1,.47.15h0a.35.35,0,0,1-.14.47h0A23.67,23.67,0,0,0,85.68,42a9.4,9.4,0,0,0-2.81,3.53A.35.35,0,0,1,82.52,45.67Z"/><path d="M152,124.73a.33.33,0,0,1-.35-.31h0a.29.29,0,0,1,.07-.22,13.86,13.86,0,0,0,2.33-4.16.37.37,0,0,1,.47-.2h0a.37.37,0,0,1,.21.44,15.11,15.11,0,0,1-2.44,4.34A.34.34,0,0,1,152,124.73Z"/><path d="M79.27,152.7a.35.35,0,0,1-.31-.38.37.37,0,0,1,.26-.3,33.7,33.7,0,0,1,6.58-.35.34.34,0,0,1,.34.34h0a.33.33,0,0,1-.33.33h0a33.36,33.36,0,0,0-6.47.35Z"/><path d="M124.3,62.27a7.13,7.13,0,0,0-4.77-5.81c-.2-1-.37-2.1-.53-3.16l-.2-1.22,1-.34,2.54-.91a.35.35,0,0,0,.23-.39,10.49,10.49,0,0,0-2.43-4.91A18.58,18.58,0,0,0,107,38.46a35.23,35.23,0,0,0-9.62.25,16.2,16.2,0,0,0,.3-2.41,11.85,11.85,0,0,0-23.7,0h0c0,5.42,4.33,10.09,9.36,11.51-.48.69-1,1.5-1.46,2.25a20.47,20.47,0,0,0-2.41,11.71c.36,3.53,2,5.8,4.13,8.31-.06.1-.13.19-.19.3a3.89,3.89,0,0,0-.42,3,4.44,4.44,0,0,0,2.74,2.76A5.47,5.47,0,0,0,90,75.83c1.41,6.86,7.68,12,11.77,13a21,21,0,0,0,5.18.68,19.39,19.39,0,0,0,11.62-3.87c6.81-5,6.15-13.66,4.79-18.27A7.45,7.45,0,0,0,124.3,62.27Zm-.65,0a7,7,0,0,1-.56,4.08,9.34,9.34,0,0,0-.73-1.61,23,23,0,0,1-2.67-7.49,6.28,6.28,0,0,1,4,5ZM118.9,57a23.92,23.92,0,0,0,2.86,8.24,11.21,11.21,0,0,1,.82,2l-.32.45a5.37,5.37,0,0,1-7.55.69,7,7,0,0,1-1.51-9,5.43,5.43,0,0,1,3.7-2.52,4.91,4.91,0,0,1,.86-.07A5.46,5.46,0,0,1,118.9,57ZM99.31,61.32c3.13-.54,6.16,1.88,6.74,5.37a6.77,6.77,0,0,1-.92,4.77,6.45,6.45,0,0,1-.47.69,5.38,5.38,0,0,1-7.54.68,6.87,6.87,0,0,1-2.44-4.21h0c-.58-3.49,1.5-6.74,4.63-7.28Zm6.39,2.48a6.4,6.4,0,0,0-6.5-3.15A6.66,6.66,0,0,0,93.9,67l-4.15,1.36a31.63,31.63,0,0,0,1.35-13c10.31,2.37,18.86-.25,27-3.1l.19,1.22q.21,1.37.45,2.73A6,6,0,0,0,112.57,59a7.58,7.58,0,0,0-1.09,3.2,2.21,2.21,0,0,0-1.86-.61,5.16,5.16,0,0,0-3.92,2.16Zm-31-27.56A11.14,11.14,0,0,1,85.85,25.11h0A11.17,11.17,0,0,1,97,36.3h0a14.27,14.27,0,0,1-.34,2.52,21.65,21.65,0,0,0-4.9,1.55,21,21,0,0,0-8,6.8c-4.87-1.26-9.09-5.74-9.07-10.94Zm5.41,25.42a20,20,0,0,1,2.35-11.28c.51-.86,2-3.05,2-3.05A20.53,20.53,0,0,1,92,41a27.63,27.63,0,0,1,4.51-1.47,34.53,34.53,0,0,1,6.49-.68h0a34.41,34.41,0,0,1,3.93.25c7,.82,10,3.82,12.6,6.82a9.86,9.86,0,0,1,2.22,4.29l-2.21.77c-.35.12-16.81,7.13-28.72,3.56a.39.39,0,0,0-.31.08.32.32,0,0,0-.12.3A31.12,31.12,0,0,1,89,68.43a.36.36,0,0,0-.23.26h0a5.38,5.38,0,0,0-3.67,0,3.52,3.52,0,0,0-1.06.77c-2.43-2.81-3.63-4.74-3.94-7.78Zm38.1,23.52a18.9,18.9,0,0,1-16.21,3c-3.92-1-10.21-6.24-11.35-13a.32.32,0,0,0-.19-.26,1.82,1.82,0,0,0-.39.14,4.77,4.77,0,0,1-4.14.49,3.68,3.68,0,0,1-2.31-2.31A3.23,3.23,0,0,1,84,70.83a9.36,9.36,0,0,1,1.33-1.34,4.14,4.14,0,0,1,3.24-.09l.16.08a10.28,10.28,0,0,0,.46,3.35.35.35,0,0,0,.33.24h.09a.35.35,0,0,0,.23-.44h0a15.22,15.22,0,0,1-.37-3.22v-.16h0l4.38-1.46a6.64,6.64,0,0,0,.1,1,7.45,7.45,0,0,0,2.69,4.64,6.19,6.19,0,0,0,3.87,1.36,5.57,5.57,0,0,0,1,0A6.21,6.21,0,0,0,105.7,72a7.49,7.49,0,0,0,1-5.27,7.74,7.74,0,0,0-.7-2.2.27.27,0,0,0,.08-.07,4.46,4.46,0,0,1,3.51-2c.69,0,1.53.23,1.69.79a.44.44,0,0,0,.13.14A7.61,7.61,0,0,0,114.19,69a6.27,6.27,0,0,0,3.88,1.31,5.6,5.6,0,0,0,1,.06,6.08,6.08,0,0,0,3.7-2.18c1.23,4.31,1.91,12.2-4.57,17Z"/><g opacity=".13"><path d="M117.68,52.63a1,1,0,0,0-1.06-.2,5,5,0,0,0-.91.34c-1,.37-2,.79-3,1.09a57,57,0,0,1-5.91,1.55,39.37,39.37,0,0,1-7.5.79A23.51,23.51,0,0,1,92,55c-.46-.1-1-.41-1.43-.15a.77.77,0,0,0-.22,1,.87.87,0,0,0,.4.31A29.77,29.77,0,0,0,100,57.85a44.25,44.25,0,0,0,5.51-.4c1.45-.22,2.86-.6,4.3-.9,2.16-.56,4.32-1.07,6.41-1.84l1-.41a1.17,1.17,0,0,0,.52-.36A1,1,0,0,0,117.68,52.63Z"/></g><g opacity=".13"><path d="M115.34,94c-.1-.38-.21-.75-.32-1.14a13.46,13.46,0,0,1-.6-2.15c-.19-.68-.37-1.36-.56-2a.26.26,0,0,1,0-.21l-.06-.16a.26.26,0,0,1,.11-.34c-.47-.34-1.09.13-1.61.36a7.21,7.21,0,0,1-1.56.54c-.64.17-2.69.26-3.28.39a.64.64,0,0,0-.43.34l-1-.43c-.24-.1-.47-.2-.69-.31a11.19,11.19,0,0,1-1.64-.06V89a1,1,0,0,1,0,.24v.18c-.07.23-.15.44-.22.68l.16.12c2,1,4.13,2,6.13,3.06,1,.56,2,1.1,3,1.64a6.07,6.07,0,0,0,1.37.56h.32a.66.66,0,0,0,.28,0,.91.91,0,0,0,.68-.68.43.43,0,0,0,.14-.23A3.54,3.54,0,0,0,115.34,94Z"/></g><g opacity=".13"><path d="M159.43,145.85a.9.9,0,0,0-.6.12,9.84,9.84,0,0,1-3.88.49,14.07,14.07,0,0,1-5.46-1.19,4.66,4.66,0,0,1-.85-.46c-.13-.1-.8-.56-1-.68a7.57,7.57,0,0,1-1.37-1.28h0a25.41,25.41,0,0,1-2.1-4v-.11a4,4,0,0,0-.4-1,1,1,0,0,0-.38-.32l-.34.36a.31.31,0,0,1-.11.2l-.41.38a32.41,32.41,0,0,0-2,2.66.77.77,0,0,0,.11.3,13,13,0,0,0,1.2,1.64c1,2.1,2.31,4.09,4.61,4.78a29.72,29.72,0,0,0,4.77.81,21.14,21.14,0,0,0,2.87-.14h2.14a4.06,4.06,0,0,0,1.3-.1.83.83,0,0,0,.53-.84,7.4,7.4,0,0,0,1.05-.29c.24-.12.55-.16.68-.38a.56.56,0,0,0,0-.79h0A.62.62,0,0,0,159.43,145.85Z"/></g><g opacity=".13"><path d="M179.32,80.85a.78.78,0,0,0-.53-.54h-.16a.68.68,0,0,0-.89-.35.34.34,0,0,0-.16.1,9.55,9.55,0,0,1-.91,1,3.07,3.07,0,0,1-.26.25,18.8,18.8,0,0,1-1.8.57,13.3,13.3,0,0,1-2.48.72c-1,.15-1,.14-2.24.26a17.7,17.7,0,0,1-3,.26,9.6,9.6,0,0,1-2.27-.28h0a.85.85,0,0,0-.21-.73h0a.84.84,0,0,0,0-1.19h0a.84.84,0,0,0-1.19,0h0a5.15,5.15,0,0,1-.77.55,1.56,1.56,0,0,0-.6.51h-.1a.72.72,0,0,0-.68.76h0a.74.74,0,0,0,.37.55,11.6,11.6,0,0,0,5.15,1.37c.61,0,1.22-.1,1.83-.09s1.18,0,1.75,0c1.23-.14,2.42-.37,3.62-.61h0a8.46,8.46,0,0,0,1.65-.33c1.56-.55,3.17-1.17,3.59-1.9a2.07,2.07,0,0,0,.19-.32h0A.69.69,0,0,0,179.32,80.85Z"/></g><g opacity=".13"><path d="M177.26,67.26a.68.68,0,0,0-.79-.55h0c-.42.11-.51.58-.73.9a4.94,4.94,0,0,1-.3.49c-.11.15-.13.11-.34.26h0a7.78,7.78,0,0,1-.8.58,1.87,1.87,0,0,1-.39.22,4,4,0,0,1-1.19.18c-.88,0-1.13-.24-2.42-.26-.28,0-.58.06-.87.06a2.74,2.74,0,0,1-.91-.44h0c-.3-.23-.47-.62-.82-.76a.93.93,0,0,0-1.21.48h0a.92.92,0,0,0,.19,1,4.15,4.15,0,0,0,2.62,1.65h.31a6,6,0,0,1,1.79.14c.62.08.34.09,1.26.19a3.49,3.49,0,0,0,1.44-.4,5.62,5.62,0,0,0,1.5-1,1.09,1.09,0,0,0,.17-.13l.16-.19h0a2,2,0,0,0,.54-.69,6.87,6.87,0,0,0,.51-.81C177.09,67.85,177.31,67.57,177.26,67.26Z"/></g><g opacity=".13"><path d="M168.46,58.68a.73.73,0,0,0-.9-.51h0l-.17.07c-.4.28-.51.91-.85,1.29a40.45,40.45,0,0,0-3.41,3.64.69.69,0,0,0,0,1l0,0h.11a.68.68,0,0,0,1,0l0,0h0a36.47,36.47,0,0,1,3-3.09,5,5,0,0,0,1.07-1.46A1,1,0,0,0,168.46,58.68Z"/></g><g opacity=".13"><path d="M118.8,155.09a1.1,1.1,0,0,0-.94-.43,10.48,10.48,0,0,0-1.77-.06,1.08,1.08,0,0,0-.8.28.83.83,0,0,0-.22.88,6.83,6.83,0,0,0-.79.73,15.16,15.16,0,0,0-2.82,4.81,18,18,0,0,0-.62,2.61,7.64,7.64,0,0,0,0,4.24c.68,1.14,1.91.56,2.73-.12l.36-.28c.45-.31.79-.77.5-1.32a1,1,0,0,0-1-.39.91.91,0,0,0-1.17.51v-.13a7,7,0,0,1,.28-2.4,13.33,13.33,0,0,1,1.55-4.22,10.73,10.73,0,0,1,2-2.73c.57-.48.3-.33.9-.58.25-.1.53-.13.76-.24h.36a.76.76,0,0,0,.74-.76h0a.77.77,0,0,0-.11-.39Z"/></g><g opacity=".13"><path d="M87.89,133.66c-.62,0-.68.68-.83,1.17-.28,1-.49,1.91-.78,2.86a46.29,46.29,0,0,1-2.38,6.46c-.22.62-1.7,3.55-2.47,4.95-.22.43-.45.85-.68,1.27a2,2,0,0,0-.39.87,1.19,1.19,0,0,0,.19.88,14.1,14.1,0,0,1,2.83-.22l.17-.14a7,7,0,0,0,2-3.95c.1-.38.17-.77.25-1.15a.83.83,0,0,0,0-.69.75.75,0,0,0-.25-.25c.68-1.92,1.29-3.86,1.92-5.79a39.55,39.55,0,0,0,.94-4.32,7.13,7.13,0,0,0,.23-1.37.63.63,0,0,0-.67-.59h-.08Z"/></g><g opacity=".13"><path d="M121,168.14a13,13,0,0,0-4-1.41h-.38a2.28,2.28,0,0,0-1.27.35c-.77.6-1.62,1.66-1.85,1.7h0l-.33.18a3.9,3.9,0,0,1-.69.19,23.83,23.83,0,0,1-3.58-.23c-1.25-.13-2.51-.14-3.76-.22-1.42-.1-2.83-.25-4.24-.38-2.53-.29-5.07-.2-7.62-.32-2-.15-4,0-6-.07-3.46,0-7,.15-10.5.36-2.32.2-7.35.4-9.35-.24-.55-.11-1.11-.54-1.65-.26a.76.76,0,0,0-.23,1.05h0a.81.81,0,0,0,.41.32,18.63,18.63,0,0,0,4.89,1.09,36.12,36.12,0,0,0,6.24.12c2-.14,3.92-.12,5.88-.23a55.52,55.52,0,0,1,6.32,0c1.26,0,2.52,0,3.78.05,1.78.09,3.57,0,5.34.1,2.46.15,4.9.43,7.36.55a30.06,30.06,0,0,1,3.55.21,9.9,9.9,0,0,0,4.77-.33,6.55,6.55,0,0,0,2.37-2h.07a9.19,9.19,0,0,1,1.47.33,10.84,10.84,0,0,1,5,2.73,2.32,2.32,0,0,1,.68.84,1.17,1.17,0,0,0,.39.56,1,1,0,0,0,1.4-.2h0a1,1,0,0,0,.19-.58C125.26,170.7,122.5,168.93,121,168.14Z"/></g><g opacity=".13"><path d="M213,200.67l1.88-1.91,1.86-1.9.83-.88v-.81a27.52,27.52,0,0,0-.23-2.87c0-.62-.25-3-.47-4.43a.85.85,0,0,0-.09-.38c-.09-1.69-.17-3.37-.16-5.06v-1.07a52.73,52.73,0,0,1-.14-5.62c-.07-1.29-.11-2.58-.13-3.86-.06-2.79-.08-5.59,0-8.38v-2.05c-.06-2.19-.17-4.39-.07-6.59l.08-1.61c0-2.17,0-4.34.07-6.5,0-1.36.19-2.73.23-4.09v-3.45a.75.75,0,0,0-1,.34h0a27.8,27.8,0,0,0-.92,4.33,54,54,0,0,0-.76,7.5c0,1.46-.15,2.91-.23,4.36s-.06,3-.12,4.48c-.17,5.24-.44,10.48-.34,15.73.11,3.19.25,6.39.36,9.59V193a34.26,34.26,0,0,1-1.36,7.24c-.1.31-.14.42-.39,1.08a1.64,1.64,0,0,0-.2.65A13.29,13.29,0,0,1,213,200.67Z"/></g></svg>