<svg id="Layer_1" data-name="Layer 1" xmlns="http://www.w3.org/2000/svg" viewBox="0 0 409.6 399.2"><defs><style>.cls-1{fill:#1c1e28;}.cls-2{fill:#777c87;}</style></defs><title>Business Strategy</title><path class="cls-1" d="M485.6,262.4c-1.3,2.89-2.2,6.05-4,8.64-9.69,14.28-29.54,13.75-38.58-1.11-6.58-10.8-12.71-21.87-19-32.82-4.66-8.07-9.37-16.11-13.92-24.24-1.09-1.94-2.14-2.39-4.41-2-39.16,6.73-74.1-13.08-88.46-50-14.77-38,5.34-84,43.31-99.16,42.23-16.83,87.85,2.72,103.71,45.35,10.11,27.13,5.28,52.64-12.17,75.72-1.2,1.59-2.51,3.1-3.88,4.79,1.06,1.91,2.05,3.77,3.11,5.59,8.84,15.34,17.8,30.62,26.5,46,2.92,5.16,5.21,10.67,7.78,16ZM390.74,67.62c-37,0-66.28,29.8-66.21,67.28.06,36.32,30,65.47,67.2,65.45,36.2,0,65.38-30,65.51-67.24C457.37,97.61,426.91,67.6,390.74,67.62ZM420.54,207c2.7,4.67,5.35,9.28,8,13.88q12.06,20.91,24.14,41.82c3.06,5.28,7.32,7.52,12.07,6.51,7.9-1.68,11-9.56,6.65-17.21-9.91-17.32-19.93-34.58-29.91-51.86-.79-1.37-1.62-2.71-2.34-3.91Z" transform="translate(-76 54.79)"/><path class="cls-2" d="M301.46,280.45c.92,1.88,1.53,3.17,2.18,4.43q12.27,24,24.55,48c.67,1.3,1.85,2.79,1.64,4-.41,2.26-1.1,5-2.69,6.38-2.12,1.87-5.1,1.4-7.15-.91a19.54,19.54,0,0,1-2.47-4.08c-9.25-18-18.54-36-27.64-54.05-1.38-2.75-2.85-3.87-6-3.84q-29.19.24-58.4,0c-2.92,0-4.45.87-5.79,3.54-9.15,18.2-18.5,36.3-27.8,54.42a21.55,21.55,0,0,1-2.24,3.77c-2,2.41-4.61,2.7-7.21,1.39a5.41,5.41,0,0,1-3-6.72,21.29,21.29,0,0,1,1.79-4q12.27-24,24.55-48c.6-1.16,1.13-2.35,2.08-4.33H151.19c-11.86,0-16.81-4.95-16.82-16.71V253.59H130c-11.73,0-23.46,0-35.2,0S76,246.62,76,235Q76,112.78,76-9.42c0-11.44,7-18.42,18.46-18.51,8.53-.07,17.07-.08,25.6,0,4.83.05,7.89,3.24,7,7.13-.84,3.52-3.36,4.86-6.85,4.85-8.27-.05-16.53,0-24.8,0-5.8,0-7.37,1.57-7.37,7.33q0,121.39,0,242.79c0,6.06,1.5,7.41,8.09,7.41H406.88a34,34,0,0,1,4.4.08c3.29.43,5.4,2.19,5.58,5.69.17,3.27-2,5.78-5.54,6.12-2.52.24-5.07.1-7.6.11H375.11c0,3.83,0,7.49,0,11.16-.07,10.17-5.35,15.62-15.52,15.67-17.73.09-35.46,0-53.19,0Zm61.64-26.6H146.71a5.29,5.29,0,0,0-.28,1q0,4-.05,8c0,5.6,0,5.6,5.79,5.6H357.35c.93,0,2.06.32,2.75-.09,1.15-.69,2.77-1.78,2.86-2.83C363.31,261.72,363.1,257.87,363.1,253.85Z" transform="translate(-76 54.79)"/><path class="cls-1" d="M262.34,102.75c1-2.86-.75-4.38-3.41-5.78-5.3-2.79-10.38-6-15.71-8.72a5.32,5.32,0,0,0-4.48.2c-7.86,4.87-15.49,4.85-23.29-.11a4.88,4.88,0,0,0-4.14-.2c-5.66,3-11.1,6.35-16.76,9.32-2.29,1.2-2.7,2.67-2.61,5.07.38,10.7-7.47,19.77-17.65,20.65-11.08.95-20.35-6.15-21.89-17.08-1.15-8.16,2-14.79,8.72-19.28,7.08-4.71,14.67-4.7,21.8-.06,2.28,1.49,3.72,1.62,6,.27,5.23-3.18,10.58-6.18,16-9.1a4,4,0,0,0,2.51-4.32c-.47-12.07,8.27-21.46,19.78-21.49s20.18,9.38,20,21.81a5,5,0,0,0,2,3.65q8.52,5.19,17.38,9.84a4.84,4.84,0,0,0,4.06-.3,21.65,21.65,0,0,1,15.22-3.43A5.25,5.25,0,0,0,290,82q15-20.49,29.54-41.28a5.24,5.24,0,0,0,.28-4.48c-4.4-9-2.7-18.83,4.64-25a19.83,19.83,0,0,1,24.45-1,20.12,20.12,0,0,1,6.81,23.88c-3.67,8.77-12.49,13.34-22.54,11.92a4.37,4.37,0,0,0-3.49,1.47c-10.1,13.9-20,27.95-30.14,41.83-1.55,2.12-.41,3.32.41,4.93a19.93,19.93,0,1,1-37.63,8.47Zm-35.1-38.58a8.19,8.19,0,0,0-8,7.87,7.93,7.93,0,0,0,15.86.15A8.2,8.2,0,0,0,227.24,64.17Zm110-45.69a8,8,0,0,0-7.73,8.06,7.93,7.93,0,0,0,7.92,7.83,8,8,0,0,0,7.79-8A8.12,8.12,0,0,0,337.2,18.48Zm-47,85a8.27,8.27,0,0,0-7.84-8.06,8.07,8.07,0,0,0-8,7.82,7.85,7.85,0,0,0,7.75,8A8.08,8.08,0,0,0,290.19,103.5Zm-110.19,0a8.18,8.18,0,0,0-7.84-8,8.27,8.27,0,0,0-8,7.88,8,8,0,0,0,7.88,7.93A7.93,7.93,0,0,0,180,103.45Z" transform="translate(-76 54.79)"/><path class="cls-2" d="M221.48-27.94c0-4.14-.08-7.84,0-11.54.23-8.81,5.92-14.91,14.76-15.11q18.39-.4,36.8,0c8.93.2,14.75,6.49,14.92,15.44.08,3.58,0,7.15,0,11.22H413.34c13.49,0,20.12,6.64,20.13,20.15q0,25.4,0,50.8c0,1.71.24,3.92-.68,5-1.46,1.72-3.7,3.51-5.81,3.78-2.87.38-4.86-1.82-5.33-4.84a25.23,25.23,0,0,1-.15-4q0-25.39,0-50.8c0-6.74-1.41-8.11-8.27-8.11h-264a30.57,30.57,0,0,1-4.79-.15,5.58,5.58,0,0,1-5-5.4,5.4,5.4,0,0,1,4.25-6,18.7,18.7,0,0,1,4.74-.45q34.2,0,68.39,0ZM276-28.16V-38.94c0-2.45-1.24-3.72-3.67-3.73-11.71,0-23.42-.11-35.13.13a4.86,4.86,0,0,0-3.52,3.11c-.47,3.64-.17,7.37-.17,11.27Z" transform="translate(-76 54.79)"/><path class="cls-1" d="M208.93,171.21q0-19.61,0-39.19c0-6.64,2-8.65,8.55-8.68s13.33-.06,20,0c5.59.06,7.86,2.2,7.87,7.73q.09,40.2,0,80.38c0,5.38-2.27,7.58-7.54,7.65q-10.59.12-21.19,0c-5.49-.06-7.66-2.28-7.68-7.91C208.9,197.87,208.93,184.54,208.93,171.21ZM233.13,207V135.66H221.24V207Z" transform="translate(-76 54.79)"/><path class="cls-1" d="M264,186.51c0-8.13,0-16.25,0-24.38,0-5.9,2-8,7.87-8q10.39-.11,20.78,0c5.7.06,7.68,2,7.7,7.76q.09,24.76,0,49.54c0,5.6-2.2,7.66-7.83,7.7q-10.38.09-20.77,0c-5.55-.05-7.7-2.24-7.73-7.83C264,203,264,194.76,264,186.51ZM288.14,207V166.44H276.31V207Z" transform="translate(-76 54.79)"/><path class="cls-1" d="M190.33,186.4c0,8.26,0,16.51,0,24.77,0,5.62-2.19,7.88-7.65,7.94q-10.59.1-21.18,0c-5.32-.06-7.55-2.2-7.57-7.59q-.14-25,0-50c0-5.4,2.16-7.4,7.62-7.46q10.59-.12,21.18,0c5.55.07,7.57,2.21,7.6,7.91C190.36,170.15,190.33,178.27,190.33,186.4Zm-24.17-20.14v40.52H178V166.26Z" transform="translate(-76 54.79)"/><path class="cls-1" d="M331.15,207.13c5.85,0,11.27,0,16.68,0,4.83,0,7.4,2.07,7.48,5.81s-2.52,6.1-7.22,6.15q-10.77.14-21.54,0c-5.13-.06-7.31-2.25-7.37-7.29s-.09-10.37,0-15.55c.07-4.11,2.37-6.62,5.85-6.68s5.91,2.42,6.08,6.49C331.27,199.62,331.15,203.17,331.15,207.13Z" transform="translate(-76 54.79)"/><path class="cls-1" d="M435.84,132.37c-.52-2.6-1.48-7.66-2.58-12.69-.37-1.68-1.21-3.24-1.7-4.9-1.1-3.72.17-6.72,3.28-8s6.15.12,7.79,3.65a52.34,52.34,0,0,1,5.06,26.4c-2.21,27.77-19.86,47.57-47.08,53.19-30.78,6.36-63.35-17.77-66.27-49.11-2.77-29.62,13.52-53.9,42.19-61.89,17.36-4.84,33.51-1.15,48.14,9.2a6,6,0,0,1,1.77,8.43c-1.88,2.76-5.19,3.49-8.47,1.34-6.66-4.38-13.65-7.61-21.68-8.57-23.81-2.82-45.9,13.22-49.68,36.86-2.86,18,3,33.13,17.79,43.86s31.2,12.05,47.47,3.36C427,165.43,434.77,152.18,435.84,132.37Z" transform="translate(-76 54.79)"/></svg>