<svg id="Layer_1" data-name="Layer 1" xmlns="http://www.w3.org/2000/svg" viewBox="0 0 384.03 366.24"><defs><style>.cls-1{fill:#777c87;}.cls-2{fill:#1c1e28;}</style></defs><title>Business Development</title><path class="cls-1" d="M429.67,153.05V77.12H103.58v4.1c0,43.62-.08,87.24.11,130.87a39.4,39.4,0,0,0,2.67,14.18c3.62,9,10.42,13.9,20.64,13.7,13.25-.26,26.5-.08,39.75-.06,5.74,0,9.17,2.89,9.11,7.58s-3.5,7.47-9.28,7.48c-12.87,0-25.77-.47-38.62.11-23,1-35.93-16.55-38.74-32.89a21.26,21.26,0,0,0-.72-2.44V-3c1.2-4,2.12-8.19,3.64-12.1a36.33,36.33,0,0,1,34.65-23.27c93.13.27,186.25.4,279.37-.08,23.26-.11,36.86,18.23,38.59,35.66.31,3.11.4,6.24.4,9.36,0,51.13,0,106.25.11,157.37ZM292.75,255q-28.12,0-56.25,0c-4.77,0-7.9-2.38-8.51-6.25-.78-5,2.59-8.76,8.12-8.78,12.88-.06,41.32,0,43.11,0ZM103.77,61.4H430c0-3.33,0-6.43,0-9.52,0-17.13.24-34.26-.19-51.37-.37-14.9-9.92-23.7-24.62-23.7H368.4q-120.93,0-241.87,0c-7,0-12.67,2.39-16.94,7.9s-6,12-6,18.92q0,27.2,0,54.38C103.58,59.05,103.7,60.14,103.77,61.4Z" transform="translate(-88.5 38.45)"/><path class="cls-2" d="M447.43,165.82c9,8,8.29,20.38.44,27.05a3.09,3.09,0,0,0-.54.85c1.59,3.88,3,7.75,4.78,11.44a4.64,4.64,0,0,0,3.16,2.19c11.16,1.05,17.19,7.46,17.23,18.6,0,4,.06,8,0,12-.18,9.43-7.12,16.68-16.52,16.92-2.59.07-3.94.76-4.4,3.28a8,8,0,0,1-.89,2.46c-2.75,4.74-3.6,8.63.78,13.67,4.65,5.36,3.24,13.93-1.63,19.35-3.51,3.89-7.23,7.63-11.11,11.15a16.42,16.42,0,0,1-22.76-.24c-2-1.91-3.59-2.22-5.73-.77a1.07,1.07,0,0,1-.35.14c-6.21,1.85-10.73,4.32-11.44,12.3-.61,6.8-8.11,11.31-15.26,11.5-4.63.12-9.25.09-13.88,0-9.4-.13-16.45-6.52-17-16-.19-3.22-1.47-4.25-4.21-5.39-5.58-2.33-10.13-4.78-16.1.64-4.95,4.48-13.43,2.63-18.64-2.1a155.82,155.82,0,0,1-11.15-11.11,16.35,16.35,0,0,1,.28-22.75c1.92-2,2.15-3.51.75-5.75a29.47,29.47,0,0,1-2.11-4.8c-2.2-5.54-2.57-5.55-8.34-5.55s-13.53-3.47-13.53-15.06,0-9.29,0-13.75c.06-11.41,6-17.77,17.43-18.82a4.55,4.55,0,0,0,3.12-2.25c1.71-3.59,3.05-7.36,4.62-11.28-.79-.87-1.74-1.85-2.62-2.88a16.74,16.74,0,0,1,.38-22.55c3.23-3.48,6.63-6.81,10-10.1,6.92-6.64,16.55-6.86,23.61-.34,1.91,1.77,3.38,2.19,5.46.68a7.13,7.13,0,0,1,2.38-1.08c5.44-1.34,8.57-3.82,9.07-10.32.51-6.73,6.93-11.72,13.75-12.3a129.1,129.1,0,0,1,16.1-.25c9.65.38,16,6.61,16.71,16.29.18,2.52.91,3.71,3.36,4.44,3,.89,5.71,2.49,8.66,3.49,1,.35,2.79.27,3.46-.39a18.66,18.66,0,0,1,14.9-5.45S446,164.58,447.43,165.82ZM439,282.42c-.63-.82-1.11-1.54-1.69-2.15-1.38-1.45-2.83-2.83-4.23-4.26-3.66-3.76-3.75-6.35-1.44-11.11a141.75,141.75,0,0,0,7.12-16.82c2.3-6.83,3.62-8.17,10.86-8.17,8.7,0,7.78.65,7.79-7.91,0-9.12,0-9.12-9.19-9.39-5.28-.15-7.22-2-9-7.21a151.4,151.4,0,0,0-7.1-17.23c-2.89-5.84-2.89-8.06,1.63-12.62,5.86-5.93,5.86-5.93,0-11.78-6.26-6.26-6.26-6.26-12.58-.13-4.11,4-6.67,4.07-11.72,1.65a170.06,170.06,0,0,0-17.9-7.38c-5.42-1.86-7.24-3.81-7.31-9.73-.1-8.37-.1-8.37-8.31-8.37-8.94,0-8.94,0-9,8.82-.06,5.7-1.82,7.56-7.16,9.39a135.87,135.87,0,0,0-16.88,7c-6,3-8.18,3-12.92-1.67-6.58-6.46-4.92-6.45-11.57.13-6.32,6.25-6.29,6.27-.19,12.55,4.18,4.31,4.23,6.59,1.62,12a158.24,158.24,0,0,0-7.08,17.23c-1.84,5.4-3.86,7.27-9.72,7.35-8.57.12-8.6.12-8.56,8.49.06,10.14-1.14,8.7,8.72,8.8,5.93.06,7.74,1.76,9.62,7.35a126.06,126.06,0,0,0,6.78,16.55c3.1,6.19,3.07,8.34-1.78,13.2-6.51,6.52-6.27,4.8.06,11.22s6.45,6.47,13.08.08c3.82-3.67,6.4-3.8,11.13-1.51a141.65,141.65,0,0,0,16.8,7.15c7,2.34,8.4,3.71,8.42,11.13,0,8.52-.8,7.6,7.63,7.62,9.56,0,9.56,0,9.71-9.38,0-.37,0-.75,0-1.12.09-3.87,2.15-6.09,5.68-7.47,6.83-2.65,13.64-5.39,20.32-8.39,3.67-1.65,6.74-1.37,9.6,1.36q2.58,2.46,5,5c1.37,1.42,2.62,1.69,4.12.14,2.69-2.79,5.48-5.48,8.18-8.26A15,15,0,0,0,439,282.42Z" transform="translate(-88.5 38.45)"/><path class="cls-2" d="M257.65,158.33l-16.76-18.88a24.91,24.91,0,0,1-2.16-2.57,7.5,7.5,0,0,1,1.15-9.86c2.79-2.5,7.27-2.84,9.86,0,7.79,8.42,15.46,17,22.84,25.74a9,9,0,0,1-.37,11.81c-7.14,8.34-14.45,16.53-21.85,24.63a7.5,7.5,0,1,1-11-10.23c4.54-5.3,9.27-10.45,13.91-15.67C254.69,161.7,256.07,160.12,257.65,158.33Z" transform="translate(-88.5 38.45)"/><path class="cls-2" d="M148,158.35c6.25,7,12.17,13.61,18,20.26,2.48,2.82,3.05,6,1.09,9.33a6.85,6.85,0,0,1-8.39,3.24,10.05,10.05,0,0,1-4.24-2.86q-10.1-11.08-20-22.38c-4.41-5-4.44-10.17-.09-15.12q9.9-11.28,19.95-22.4c3.46-3.85,7.87-4.39,11.22-1.51s3.5,7.62,0,11.6C159.87,145.06,154.05,151.56,148,158.35Z" transform="translate(-88.5 38.45)"/><path class="cls-2" d="M217.76,128.27c-1.56,6.6-3.3,14-5.07,21.41Q208,169.34,203.27,189c-.21.85-.4,1.7-.67,2.53-1.35,4.2-5,6.46-8.89,5.57a7.38,7.38,0,0,1-5.62-9.15c2.82-12.41,5.83-24.78,8.77-37.17,1.93-8.13,3.89-16.26,5.79-24.4.84-3.59,2.72-6.17,6.5-6.9C213.8,118.58,218,122.5,217.76,128.27Z" transform="translate(-88.5 38.45)"/><path class="cls-2" d="M347.13,44.93c-11.5,0-23,.22-34.49-.06a25.28,25.28,0,0,1-6-49.66,30.23,30.23,0,0,1,7.76-1c21.74-.08,43.48-.12,65.22,0,11,.06,19.33,4.91,23.91,15,4.3,9.49,2.89,18.59-3.69,26.66-5,6.17-11.83,9-19.74,9.09-11,.07-22,0-33,0Zm.11-35.59c-11.11,0-22.23-.11-33.35.05-6.31.08-10.72,4.51-10.69,10.2s4.46,10.19,10.74,10.22c22,.11,44,.07,66,0,4.32,0,7.77-1.81,9.76-5.79,3.49-7-1.45-14.53-9.81-14.67C369,9.2,358.11,9.34,347.24,9.34Z" transform="translate(-88.5 38.45)"/><path class="cls-2" d="M249.77,19.76a25.36,25.36,0,1,1-50.72-.39,25.36,25.36,0,1,1,50.72.39Zm-15.08-.27a10.28,10.28,0,0,0-10.42-10.1,10.09,10.09,0,0,0-10,10.07,10.21,10.21,0,0,0,10.14,10.35A10.42,10.42,0,0,0,234.69,19.49Z" transform="translate(-88.5 38.45)"/><path class="cls-2" d="M133.39,19.68a25.3,25.3,0,1,1,25.22,25.26A25.37,25.37,0,0,1,133.39,19.68Zm35.45-.18a10.18,10.18,0,0,0-20.35-.05,10.18,10.18,0,1,0,20.35.05Z" transform="translate(-88.5 38.45)"/><path class="cls-1" d="M329.73,231.23A46.2,46.2,0,1,1,376,277.41,46.09,46.09,0,0,1,329.73,231.23Zm15.15-.09a31,31,0,1,0,30.95-30.95A31.08,31.08,0,0,0,344.88,231.14Z" transform="translate(-88.5 38.45)"/><circle class="cls-1" cx="113" cy="285.96" r="7.61"/></svg>