<svg xmlns="http://www.w3.org/2000/svg" viewBox="0 0 438.86 439.32"><path d="M297.24,436.54c-18.59-4.25-34.88-13.82-51.23-23C141.87,355,64.64,271,11.32,164.46A111.47,111.47,0,0,1,.19,126.87c-.2-1-.87-30.22,2.5-41.84a118,118,0,0,1,29.68-54.1c7.15-7.46,14.47-14.75,21.88-22,12.3-12,29.32-12,41.52.17q39.55,39.28,78.83,78.83c12.1,12.2,12,29.22,0,41.54-10.25,10.48-20.72,20.75-31.08,31.13-10.08,10.1-11,18.48-3.24,30.2,4.62,6.93,9.53,13.66,14.32,20.46,4.16,5.91,3.65,11.86-1.34,15.4-4.69,3.32-10.7,2-14.7-3.53-5.74-8-11.5-16-16.84-24.19-10.47-16.16-8.36-36,5.24-50,10.59-10.85,21.43-21.45,32.13-32.2,6.06-6.09,6.08-10,0-16.14l-76-76C77,18.49,73,18.41,67,24.52c-9.3,9.52-19.6,18.41-27.4,29.06-23.55,32.16-27.37,67.1-9.68,103.08a556.09,556.09,0,0,0,128.49,170,528.79,528.79,0,0,0,124.9,83.75,98.06,98.06,0,0,0,109.57-17.1c7.66-7.17,15-14.71,22.35-22.19,4.79-4.87,4.78-9.48-.1-14.37Q376.32,317.8,337.32,279c-5-5-9.48-4.83-14.68.34-10.52,10.46-20.95,21-31.48,31.44-15.49,15.35-35.08,17.44-53.1,5.21-11.16-7.56-21.93-15.7-32.73-23.76-5.81-4.33-7-10.35-3.31-15.11s9.51-5.1,15.43-.74c10.6,7.79,21.15,15.64,31.94,23.15,9.53,6.64,18.81,5.74,27.13-2.41C287.35,286.49,298,275.65,308.73,265c13-12.93,29.88-12.94,42.95.08q38.77,38.64,77.42,77.41c13,13,13,29.94,0,43-8.08,8.17-16.06,16.48-24.61,24.16a116,116,0,0,1-66.88,29.63C336.53,439.45,303.54,438,297.24,436.54Z"/><path d="M186.61,252.71a9.9,9.9,0,0,1-19.8,0v-.1a9.84,9.84,0,0,1,10-9.68h0a9.65,9.65,0,0,1,9.8,9.5h0Z"/></svg>