<svg xmlns="http://www.w3.org/2000/svg" viewBox="0 0 360.07 350.81"><path d="M0,6.47C2.05,1.67,5.7-.14,10.86,0,19,.23,27,0,35.14.08c17.83.12,31.69,10.1,37.5,27,2.12,6.2,4.24,12.41,6.1,18.69.73,2.47,1.93,3.18,4.42,3.21,26.85.3,204.39,2.82,266.31,3.83a13.79,13.79,0,0,1,8,2.67c1.63,1.32,3,4.65,2.49,6.65-6.86,29.42-13.59,58.89-21.34,88.09-4.92,18.47-21.17,30.37-40.18,32.27-32.77,3.27-145.35,15.25-168.92,17.49-4,.37-6,1.83-7.66,5.49-7.14,15.62,2.84,33,21.37,32.89,52-.39,159.38,0,161.1.26a7.89,7.89,0,0,1,6.89,8.36,8.12,8.12,0,0,1-7.2,7.84c-1.15.17-108.82.18-161.48.14-29.22,0-48.09-28.63-36.38-55.44,2.37-5.45,2.86-10.13.9-16-16.84-49.93-33.32-100-49.92-150C53.28,22,46.14,16.81,33.81,16.79c-7.62,0-15.25-.11-22.87,0C5.71,16.88,1.81,15.17,0,10ZM85.52,65.65c.27,1.16,25.36,77.65,37.67,115.13.66,2,1.52,2.7,3.73,2.46,14.69-1.59,29.39-3,44.08-4.52l125.9-13.11c14.29-1.49,23.41-9.3,26.84-23.3,4.27-17.39,16-65.79,17.7-72.91Z"/><path d="M114.9,350.64a37.65,37.65,0,1,1,1.22,0Zm.2-16.76a20.84,20.84,0,1,0-20.94-20.74v.19A20.9,20.9,0,0,0,115.1,333.88Z"/><path d="M311.37,313.22a37.68,37.68,0,1,1,0-.19Zm-38,20.65a20.83,20.83,0,1,0-20.52-21.14v.06C252.54,324,261.91,333.64,273.37,333.87Z"/></svg>