<svg xmlns="http://www.w3.org/2000/svg" viewBox="0 0 378.45 378.37"><path d="M34.71,162.17C17.62,161.89,4,150.17.62,133.46c-.5-2.51-.69-67.31-.6-97C.08,18.08,11.48,4,28.91.6,31.7.06,96.47,0,126,0c22.6,0,37.56,15,37.58,37.55v88.1c0,18.6-11.75,32.87-29.56,36.12C131.23,162.24,50.47,162.39,34.71,162.17Zm3-134.93c-7.52,0-10.41,2.9-10.41,10.44v87C27.3,132,30.2,135,37.46,135h88.45c7.4,0,10.11-2.77,10.12-10.24V37.37c0-7.37-2.79-10.12-10.24-10.13C111.2,27.22,52.48,27.22,37.71,27.24Z"/><path d="M252,378.32c-22.13-.06-37.21-15.1-37.24-37.18q-.06-44,0-88.09c0-21.7,15-36.92,36.64-37q45.18-.2,90.35,0c21.61.09,36.49,15,36.56,36.6q.15,44.62,0,89.23c-.08,21.52-15.13,36.36-36.71,36.44C326.71,378.39,266.93,378.39,252,378.32Zm89-27.25c7,0,10-3,10-10.08V253.27c0-6.84-3-9.92-9.78-9.93q-44.61,0-89.22.07c-6.92,0-9.72,2.91-9.72,9.86V341c0,7.38,2.76,10.08,10.27,10.09H341Z"/><path d="M37.42,378.32c-21.88-.07-37-15.14-37.06-37q-.09-44.24,0-88.46c0-21.48,15-36.74,36.43-36.84q45.34-.24,90.71,0c21.39.1,36.29,15,36.38,36.4q.19,44.79,0,89.59c-.1,21.32-15.15,36.17-36.49,36.28C112.27,378.39,52.29,378.39,37.42,378.32ZM27.89,341c0,7.19,2.81,10.1,9.89,10.11h88.83c7,0,10-3.06,10-10.09V253.24c0-6.83-3-9.89-9.79-9.9H37.61c-6.88,0-9.71,2.94-9.72,9.88Z"/><path d="M297,0a81.42,81.42,0,1,0,81.42,81.42A81.42,81.42,0,0,0,297,0Zm0,136.42a55,55,0,1,1,55-55A55,55,0,0,1,297,136.42Z"/></svg>