<svg xmlns="http://www.w3.org/2000/svg" viewBox="0 0 384.83 367.92" fill="#12bc00"><path d="M.78,178c.2-.14.52-.24.57-.42,3-11.26,30.56-34.27,35.67-39.11,3-2.81,3.92-5.61,3-9.6s-7.38-27.18-8.21-35.3C30.2,77.85,38.39,65,53.38,60c4.52-1.52,30.91-2.9,39.36-4.1,4.16-.59,7.14-2,8.79-6.17,1.41-3.59,10.6-29.21,16.6-37.09,8.47-11.13,21-15.1,34.3-11,9.26,2.91,16.85,8.61,24.85,13.84,16.28,10.77,14.86,10.75,31.14,0,6.25-4.14,12.32-8.54,19.17-11.67C244.92-4.18,260.5.63,270.4,17c3.38,5.58,11.86,29.84,15.15,35.37a5.46,5.46,0,0,0,4,2.88c4.68.92,33.91,1.64,43.36,5,12,4.31,19.11,12.71,20.65,25.55,1.1,9.17-7.53,38.64-8.31,45-.31,2.56.11,4.51,2.06,6.36,3,2.84,22.95,18.28,28.52,24.77,12,13.94,12,30.19,0,44.16-3,3.52-21.22,17.92-26.41,22.64-3.44,3.12-5.15,6.29-3.83,11.11,1,3.46,7.27,26.3,8.12,34.55,1.62,15.92-6.65,28.8-21.86,33.8-4.41,1.45-30.8,2.81-39.37,4-4.08.57-6.83,2.14-8.45,6.09-1.46,3.58-10.58,29.23-16.61,37.09-7.09,9.23-16.37,13.67-28.08,12.37-7.9-.87-33.33-17.19-39.74-20.86-4.71-2.7-8.82-2.73-13.57,0-7.69,4.45-14.56,10.11-22.29,14.48-22.67,12.82-41.22,6.77-52-16.91-3.47-7.63-5.79-15.67-8.87-23.44-2.21-5.58-5.41-9.18-12-9.15C88,311.83,68,311,61,309.92c-15.18-2.35-25.5-11.05-28.46-24-1.62-7.11,6.26-38.53,7.61-47.6a8.87,8.87,0,0,0-2.89-8.58C31.65,224.33,7,204.06,3.43,196.36,2.49,194.32-1.72,187.67.78,178Zm120.84,17.43q19.26,19.44,38.66,38.72c7.94,7.92,17,7.89,25-.07,11.87-11.82,64-64,78.23-78.19,18.15-18.35-5.36-39.88-22.52-22.72q-32.38,32.28-64.71,64.68c-3.51,3.51-3.51,3.51-6.9.13-8.22-8.22-16.46-16.41-24.65-24.66C128.87,157.44,105.45,179.27,121.62,195.45Z"/></svg>