<svg xmlns="http://www.w3.org/2000/svg" viewBox="0 0 48 43.92"><path d="M48,22.42a4.67,4.67,0,0,1-4.78,4.14,3.83,3.83,0,0,0-.83.07v7.55c0,.45,0,.9-.5,1.1s-.84-.14-1.16-.48c-1.16-1.29-3.87-4.25-3.87-4.25-.1.46-.15.89-.28,1.3a4.6,4.6,0,0,1-4.36,3.42c-1.39.06-13,0-13,0a1,1,0,0,0-.81.35c-2.36,2.62-4.74,5.23-7.11,7.84-.53.69-1.7.69-1.7-.6V35.28H4.76A4.75,4.75,0,0,1,0,30.57v-17A4.69,4.69,0,0,1,4.49,8.89c2-.09,6.74-.06,6.74-.06V4.48A4.73,4.73,0,0,1,16,0Q29.59,0,43.18.06a4.71,4.71,0,0,1,4.75,3.81C47.94,4,48,22.42,48,22.42ZM11.32,41.21c.1-.12,4.25-4.68,6.18-6.85a1.65,1.65,0,0,1,1.34-.61q6.43,0,12.88-.06a3.18,3.18,0,0,0,3.47-2.86,2.35,2.35,0,0,0,0-.53V13.52a3.09,3.09,0,0,0-3.18-3h0L5,10.58a3.15,3.15,0,0,0-3.39,2.87V30.38a3.18,3.18,0,0,0,2.95,3.39h5.56c.83,0,1.09.26,1.09,1.1C11.21,35.53,11.32,41.21,11.32,41.21Zm1.49-32.3H31.88c3.33,0,4.92,2.44,4.92,5.08V27.62a1.26,1.26,0,0,0,.36.92c1.11,1.19,3.64,3.85,3.64,3.85V26c0-.73.3-1,1-1h1.12a3.18,3.18,0,0,0,3.46-2.87V5.34a3.33,3.33,0,0,0-3.14-3.51H16a3.13,3.13,0,0,0-3.19,3C12.74,5.57,12.81,8.91,12.81,8.91Z"/><path d="M7.82,23.31a.69.69,0,0,1-.62-.75.71.71,0,0,1,.62-.76l20.56-.05c.8,0,1.19.27,1.2.8s-.39.81-1.2.81C28.38,23.36,8,23.33,7.82,23.31Z"/><path d="M28.41,26.51c.78,0,1.15.25,1.16.78s-.38.82-1.17.82H8a.8.8,0,0,1-.79-.81h0A.76.76,0,0,1,8,26.53H8Z"/><path d="M8.17,18.5a.91.91,0,0,1-.91-.39.81.81,0,0,1,.33-1C7.9,17,18.28,17,18.28,17a.83.83,0,0,1,.9.74v.08c0,.46-.36.77-.92.78Z"/></svg>