<svg xmlns="http://www.w3.org/2000/svg" viewBox="0 0 384.01 383.82"><path d="M216,2.55c51,12.13,85.15,55.29,85.33,107.77a6.74,6.74,0,0,0,3,6.13,44.16,44.16,0,0,1,8.79,61.83C299.79,193,288.52,195.66,271.72,196c-3-.14-4.54.6-5.84,3.62-6.75,15.72-17.66,27.95-32.18,37-1.14.71-2.68,2-2.71,3-.13,4.44.24,8.89.44,13.33,10.25,9.88,41.75,5.11,55,7.2,54.63,8.65,96.55,57.76,97.58,113,.08,4.7-1,8.3-5.28,10.57H227.5c-10.3,0-10.94-15.13.46-15s139,0,140.52,0c-3.42-56.58-53.42-95.45-97-95-1,2.44-25.27,40.24-36.62,56.84-3.83,5.61-8.55,6-13.4,1.16-8.87-8.81-27.82-29-28.62-30.48-10.78,10.81-20.28,20.37-29.81,29.91-5.71,5.7-10,5.26-14.6-1.45-10.48-15.37-34.69-52.6-36.5-56.15-52.64,1.19-95.27,48.64-96.07,95.17,1.49,0,130.74,0,142.8.05s11.56,14.95-.15,14.95H0c0-5.52.54-18.42.64-19.39C6.05,313.22,42.69,272.14,93,260.77c14.67-3.31,29.55-2.83,44.4-2.71,5.72,0,18.11,1.75,15.74-16.9.28-2.11-.56-3.34-2.44-4.47a79.4,79.4,0,0,1-33.07-38.09c-.79-1.87-1.72-2.77-3.84-2.64-24,.57-37.69-4.05-48.25-27.26-7.16-17.06-4-33.06,8.23-47,2.73-3.11,7.06-5.33,8.54-8.86,1.59-3.77.56-8.61.88-13C86.5,55.49,118.5,16.25,161.5,4.31,186.35-2.6,204.35.34,216,2.55Zm31.27,200.52c-9.57,0-18.29-.08-27,.1-.93,0-2.16,1.35-2.7,2.37-3.51,6.6-8.82,11-16.18,12.09-4.77.73-9.71.48-14.58.42-11.07-.16-20.67-8.76-21.85-19.4-1.32-12,5.71-22.54,17.25-24.87,4.82-1,9.93-.72,14.91-.7,9.19,0,16.05,4.27,20.24,12.4,1.13,2.21,2.4,2.65,4.59,2.62,9.25-.1,18.51-.29,27.74.07,4,.16,5.36-1.23,6.13-4.9,3.58-17,3.07-51.93,2.23-52-15.35-2.09-32.45-7.52-45.26-16.18-1.92-1.29-3.06-.69-4.61.3C188,128.33,165.85,134,141.88,131.94c-5.15-.43-10.26-1.25-15.44-1.9,0,14.12.28,45.82.63,47.78,6.59,36.87,39.09,60.31,76.07,54.41C221.71,229.25,236.08,219.27,247.29,203.07ZM258,116.39c-.61-6.75-.56-13.15-1.85-19.28-6.87-32.7-37.29-55.32-69.6-52.1-34.14,3.4-59.16,30.39-60.06,64.51-.09,3.76,1.07,5.14,4.65,5.84,26.64,5.22,51.07.25,73.24-15.5,5.4-3.84,7.54-3.76,13.07.09,16,11.38,29.69,15.18,40.55,16.45ZM97.85,108c1.73-.12,11.27.29,13-1.22s1.15-5.3,1.56-8.1c8.37-57.69,74.12-87.75,123-56,22.19,14.42,35.39,37.18,37.91,63.62.1,1,8.68,1,12.85,1-.19-48.34-40.6-92.9-94.94-92.45-54.17.5-93.4,45.34-93.38,93.16Zm13.06,73V122.56c-12.57-.92-22.75,2.94-29.41,13.62-6.45,10.34-6.35,21.14.22,31.4,6.7,10.49,16.84,14.13,29.19,13.35ZM273,180.61c11.1,2.16,23.22-3.32,29.48-13.19a29.35,29.35,0,0,0-1.17-33.09c-6.66-9-19.05-13.9-28.31-11.26Zm-46,135,25-36.83c-8.21-3.66-16-7.21-23.9-10.56-.74-.31-2.29.41-3,1.11-3.19,3-18.12,18-22.25,22.08Zm-46-24.18c-4.79-4.78-20.42-22.44-24-23.05s-20.78,8.44-25.23,10.45l25,36.79c8.13-8.13,16-16,24.24-24.28Zm34.87-46.62a84.23,84.23,0,0,1-47.77,0c0,3.66.18,12.58.9,13.32,7.47,7.68,15.08,15.23,22.83,23,7.92-7.89,15.61-15.53,23.25-23.22.48-.53.8-9,.8-13.19Zm-29.22-56.6c-9.61,0-10,14.91.13,14.91H198c8.72,0,9.91-14.91-.13-14.91Z"/><circle cx="192.02" cy="376.3" r="7.52"/></svg>