<svg id="Layer_1" data-name="Layer 1" xmlns="http://www.w3.org/2000/svg" viewBox="0 0 360.33 384"><defs><style>.cls-1{fill:#777c87;}.cls-2{fill:#1c1e28;}</style></defs><title>Digital Marketing</title><path class="cls-1" d="M369-47.25c1,1.25,2.32,2.37,2.82,3.78,1.5,4.22-1.37,7.46-6.48,7.46-25.11,0-50.23,0-75.34,0a43.5,43.5,0,0,0-7.82.62,30.07,30.07,0,0,0-25,29.1c-.28,21.24-.14,42.48,0,63.72a6,6,0,0,0,2,4c8.81,7.4,13.06,16.79,13,28.24,0,19.49,0,39-.07,58.47,0,2.65.63,4.41,3.25,5,4.6,1,9.22,2.56,13.85,2.62,21.61.28,43.23.12,64.84.13,6.32,0,8,1.67,8,8,0,6.11,0,12.23,0,19.18,1.56-1.12,2.62-1.82,3.62-2.59,9.53-7.28,19.1-14.51,28.53-21.91a11.94,11.94,0,0,1,8.25-2.73c4.87.16,9.75.06,14.62,0,19.09-.08,32.23-13.17,32.26-32.32q.08-54,0-107.95c0-6.75.07-13.5,0-20.25-.24-18.19-13.43-31.22-31.69-31.34-4.37,0-8.74,0-13.12,0-3.09,0-6.2.09-7.53-3.44-1.23-3.27.29-5.75,2.72-7.83h24c3.21.93,6.5,1.65,9.63,2.81,16.08,5.94,27.11,21.08,27.17,38.17q.26,66.18,0,132.34c-.13,22.37-18.18,40-41,41a12.76,12.76,0,0,1-2.62,0c-10.9-1.75-19.56,2.12-27.73,9.36-8.76,7.77-18.54,14.38-27.85,21.54-2.18,1.68-4.32,3-7.18,1.61s-3.34-4-3.32-6.91c.08-8.34,0-16.69,0-25.18-26.26-1.84-52.4,2-78.43-2.56v28.22h4.13c14,0,28,.5,42-.12,18.11-.81,31.05,11.67,30,30.19-.45,7.59,0,15.24-.13,22.86-.08,4.6-3.38,7.06-7.44,5.8-3-.94-3.76-3.34-3.76-6.18,0-8.13,0-16.25,0-24.37,0-11.19-5.67-16.9-16.81-16.92q-34.49,0-69,0c-11.24,0-16.91,5.63-16.92,16.77q0,34.49,0,69c0,10.85,5.84,16.58,16.72,16.59,11.75,0,23.5,0,35.25,0,7.1,0,8.52,1.41,8.54,8.52,0,1.12,0,2.24,0,3.94a26.35,26.35,0,0,0,2.68-1.55,59.83,59.83,0,0,0,6.21-4.82c5-4.79,10.58-6.65,17.6-6.25,9.38.54,15.42-5.8,15.7-15.23.09-3.12-.07-6.25.11-9.37.21-3.52,2.18-5.31,5.48-5.33s5.55,1.77,5.54,5.24c0,5.6.25,11.36-1,16.74a24.61,24.61,0,0,1-24.57,19.21,18.41,18.41,0,0,0-13.14,4.74c-5.76,4.92-11.86,9.44-17.82,14.13h-4.5c-2.91-2.23-3.91-5.16-3.62-8.8.25-3.1.05-6.23.05-9.92h-4.15c-9.75,0-19.5,0-29.25,0-16-.06-27-10.95-27.09-27.15-.12-19.12,0-38.25,0-57.37V229c-1.68,1.21-2.74,1.93-3.76,2.71-7.72,6-15.45,11.88-23.14,17.87-2.18,1.7-4.37,2.95-7.2,1.64-3-1.39-3.37-4-3.33-6.9.07-6.1,0-12.2,0-18.85H181c-15,0-30,.11-45,0-18.13-.16-31.79-11.22-35.09-28.23a29.88,29.88,0,0,1-.5-5.59q-.06-28.12,0-56.25c0-4.53,2.33-6.8,6.3-6.37,3.18.35,4.87,2.42,4.91,6.38.07,6.25,0,12.5,0,18.75,0,11.75,0,23.5,0,35.25,0,15.26,9.48,24.76,24.81,24.82,17.25.08,34.5,0,51.75,0,7.43,0,8.8,1.36,8.82,8.71v11.39c1.28-.79,2.12-1.21,2.85-1.77,7.33-5.64,14.68-11.25,21.92-17a7.8,7.8,0,0,0,2.38-3.55c3.53-11.08,12.42-18.11,24.09-18.68,4.08-.21,8.19,0,12.72,0v-4.54q0-49.31,0-98.62c0-15.12-9.72-24.82-24.89-24.83q-49.87,0-99.75,0c-15,0-24.61,9.61-24.69,24.56,0,3.25.06,6.5,0,9.75-.11,4.2-2.13,6.34-5.77,6.28s-5.48-2-5.41-6.13c.09-6.11-.29-12.35.81-18.3A33.39,33.39,0,0,1,133.86,54.1c35-.21,70-.08,105-.05,2.09,0,4.19.4,6.75.66.07-1.41.2-2.71.2-4q0-26.62,0-53.25c0-23.71,12.75-39.34,35.95-44.2a4.37,4.37,0,0,0,1-.51Z" transform="translate(-100.37 47.25)"/><path class="cls-2" d="M190,159.64H176.48q-1.59,9.38-3.18,18.72c-.77,4.58-3.18,6.77-6.8,6.15s-5.06-3.57-4.29-8.19c.91-5.41,1.82-10.81,2.85-16.9-3.93,0-7.62,0-11.3,0-1.75,0-3.51.08-5.24-.07-3.57-.31-5.7-2.59-5.59-5.78s2.19-5.19,5.63-5.32c4.62-.16,9.24-.06,13.87-.08h4.45l2.25-13.79c-7,0-13.48.06-19.94,0-3.89-.05-6.21-2.17-6.27-5.46s2.4-5.7,6.43-5.74c7.11-.08,14.21,0,21.65,0,1-6.1,2-12,3-17.84a28.82,28.82,0,0,1,.58-2.94c.95-3.25,3.35-4.86,6.45-4.24s4.75,2.83,4.41,5.95c-.48,4.46-1.33,8.88-2,13.32-.27,1.72-.53,3.45-.84,5.47H196l2.72-16.1c.23-1.35.41-2.72.72-4.05.81-3.43,3.34-5.17,6.56-4.6s5,3.28,4.44,6.7c-.91,5.91-1.93,11.81-3,18.33,5.26,0,10.21-.17,15.13.08,1.86.1,4.29.64,5.33,1.91s1.75,4.23,1,5.68a7.21,7.21,0,0,1-5.12,3.39c-6,.42-12,.16-18.18.16l-2.37,13.81h11.27c3.12,0,6.25-.09,9.37.08,3.49.19,5.52,2.23,5.62,5.31s-2,5.65-5.56,5.77c-6.37.19-12.74.19-19.11,0-2.61-.06-3.72.63-4,3.43-.61,5.32-1.68,10.6-2.64,15.87-.8,4.39-3.18,6.41-6.67,5.85s-5.06-3.47-4.35-7.75C188.09,171.24,189,165.7,190,159.64Zm4.15-25.24c-4.21,0-8.05-.06-11.88.07a2.38,2.38,0,0,0-1.79,1.38c-.78,4-1.36,8-2,12h13.51C192.66,143.36,193.35,139.1,194.11,134.4Z" transform="translate(-100.37 47.25)"/><path class="cls-2" d="M318,251.08c0,7.52-2.54,14.32-8.17,19-6.63,5.56-14.07,10.2-21.35,14.95a6.28,6.28,0,0,1-5.28.12c-8.36-4.24-16.53-8.86-22.77-16.11s-8.53-15.47-6.15-24.74c3.37-13.12,17.68-19,29.45-12.37a4.27,4.27,0,0,0,3.5.24C302,224.33,318.14,234.16,318,251.08Zm-53.32,0c0,4.34,1.45,8.34,4.68,11,4.75,4,10,7.41,15.07,11a2.55,2.55,0,0,0,2.34.17c5.67-4.21,11.67-8.11,16.71-13,3.73-3.63,4.34-8.94,2.38-14a8.46,8.46,0,0,0-7.39-5.55,7.3,7.3,0,0,0-7.35,3.44c-3.47,5.11-7.18,5.12-10.79.07-1.91-2.68-4.35-4-7.66-3.67C267.85,241.06,264.71,245.2,264.72,251.08Z" transform="translate(-100.37 47.25)"/><path class="cls-2" d="M329.8,119.68c-2.46.67-4.83,1.81-7.23,1.87-9,.22-18,.11-27,.08-5.17,0-7-1.8-7-7q0-32.61,0-65.22c0-5.2,1.79-7,7-7,9.12,0,18.24-.11,27.36.05,2.11,0,4.2.93,7.16,1.63,5.57-6.62,12.19-13.5,17.53-21.24,2.83-4.1,3.56-9.68,5-14.66.62-2.13.32-4.55,1.06-6.61a11,11,0,0,1,9.84-7.54A10.69,10.69,0,0,1,374.44-.15a43.08,43.08,0,0,1,3.12,36.5c-.52,1.5-1.07,3-1.75,4.9H402c10,0,15.9,5.83,15.91,15.76q0,25.86,0,51.73c0,8.76-5.45,15.21-14,15.34-19,.27-38,.31-56.95-.28C341.09,123.62,335.37,121.09,329.8,119.68Zm35-113.77c-.42.51-.63.68-.7.89A4.52,4.52,0,0,0,364,7.9c-.51,11.39-5.29,20.87-12.86,29.18Q341.37,47.76,332,58.73a7.81,7.81,0,0,0-1.9,4.56q-.22,19.5,0,39a6.47,6.47,0,0,0,2.19,4.23A27.44,27.44,0,0,0,350.63,113q25.49.06,51,0c4.18,0,5-.9,5-5.13q0-25.11,0-50.24c0-4.49-.66-5.09-5.34-5.11-10.87,0-21.75,0-32.62-.07-6.09,0-8.41-3.53-6.19-9.1,1.75-4.41,3.8-8.72,5.16-13.24C370.14,21.77,369.12,13.74,364.83,5.91Zm-46.24,48H300.07v56.22h18.52Z" transform="translate(-100.37 47.25)"/></svg>