<svg xmlns="http://www.w3.org/2000/svg" viewBox="0 0 352.29 344.13"><path d="M293.29,61.5c.18,3.86.4,7.73.51,11.6.1,3.32,1.67,5.4,4.88,6.21,5.68,1.43,22.79,6,25.55,7.11,10.28,4.45,14.36,12.81,11,23.44a123,123,0,0,1-6.61,15.83c-6.07,12.71-6,13,5.12,21.84a116.09,116.09,0,0,1,12.12,10.58c8.55,9,8.61,19-.07,27.93-4.84,5-10.52,9.18-15.87,13.69-6.48,5.46-6.75,6.46-3.27,14.32,2.68,6,5.79,11.92,8,18.13,4.54,12.76.23,21.86-12.54,26.33-6.33,2.22-13,3.44-19.52,5.11-8,2.07-8.62,2.65-9,10.84-.28,6.49,0,13-.52,19.48-.94,13-9,20.43-20.8,19.53-3.6-.33-20-3.49-24.64-4.61-4.15-1-7,.4-8.9,4.21-2.29,4.71-11.27,21.37-13.93,24.67-5.5,6.42-13,8.06-20.68,4.54-3.89-2-17.91-12.36-21.43-14.91-5.75-4.24-7.28-4.25-12.94-.08-3.52,2.59-17.3,12.91-21.07,14.85-8.07,3.82-16,2.12-21.55-4.84-3.16-4-11.86-20.55-13.72-24.36s-4.67-4.91-8.63-4c-6,1.33-24.93,4.63-28.41,4.41-9-.76-14.9-5.9-16.38-14.79a119.92,119.92,0,0,1-1.13-18.65c-.09-14.09,0-14-13.79-17.3a142.55,142.55,0,0,1-15.45-4.29C17.75,254,13.27,245,17.37,233c2.26-6.58,5.57-12.79,8.39-19.18,3.34-7.57,3.06-8.68-3.27-14-5.25-4.42-10.84-8.52-15.63-13.4-9.15-9.32-9.14-19.4,0-28.73,4.89-5,10.59-9.12,15.92-13.63,5.89-5,6.23-6.35,3.1-13.46-2.72-6.16-5.93-12.14-8.19-18.46-4.64-13-.33-22.06,12.64-26.57,6.34-2.2,13-3.41,19.54-5.09,7.81-2,8.42-2.65,8.77-10.6.29-6.49.07-13,.52-19.48,1-14,9.3-20.89,23.23-19.47,2.85.29,17.8,3.3,22.41,4.38,4,.92,6.81-.38,8.61-4.06s9.62-18.72,12-22.37C132-.33,141.23-2.38,151,3.32a105.12,105.12,0,0,1,12.76,9c12.22,9.81,12.49,9.82,24.61.09a108.34,108.34,0,0,1,12.74-9.19C211-2.58,220.39-.47,227,9c2.63,3.76,10.41,19.21,12.2,22.77,1.65,3.26,4.28,4.36,7.78,3.62,6.1-1.29,12.19-2.67,18.33-3.81a41.71,41.71,0,0,1,8.92-.87c11.15.34,17.8,7.17,18.87,19.22C293.41,53.73,293.29,61.5,293.29,61.5ZM75.05,293c.09,3.34,1.67,5.08,5.26,4.34,5.37-1.09,10.77-2.1,16.13-3.23,18.37-3.86,25.8-.22,33.89,16.62,1.79,3.71,3.53,7.45,5.44,11.09,3.82,7.28,4.82,7.51,11.28,2.67,3.49-2.63,6.88-5.4,10.31-8.12,14-11.12,23.32-11.12,37.26-.12,4.13,3.24,8.18,6.58,12.45,9.62,4.43,3.15,5.4,3,8.06-1.89,3.17-5.79,5.84-11.87,9-17.66,6.52-11.87,14-15.39,27.28-13,6.14,1.12,12.19,2.72,18.33,3.81s7.3.12,7.5-6.14c.19-5.87,0-11.76.2-17.62.55-14.5,5.79-21.12,19.72-24.9,5.42-1.47,10.94-2.53,16.37-3.95,7.51-2,8-3,4.92-10.05-2.61-5.93-5.55-11.73-8.06-17.71-4.25-10.14-2.34-19,5.92-26.46,1.48-1.33,12.15-10,15.82-13.21,5-4.38,5-5.86-.1-10.29-4.06-3.51-8.34-6.77-12.49-10.19-12.06-9.92-14.1-18.33-7.83-32.63,2.36-5.37,5.07-10.59,7.37-16s1.68-6.44-3.89-8c-6.61-1.84-13.33-3.26-19.94-5.07-10.49-2.83-16.63-9.54-17.38-20.66-.28-4.48-.56-20-.71-23.21s-1.67-5.09-5.26-4.36c-5.38,1.1-10.78,2.07-16.14,3.24-18.14,3.91-25.76.2-33.89-16.67-2.12-4.38-4.2-8.79-6.56-13-2.8-5-3.92-5.26-8.64-1.83-4.24,3.08-8.26,6.47-12.41,9.68-13.64,10.54-22.84,10.51-36.38-.11-.49-.38-8.89-7.1-12.76-9.83-4.45-3.13-5.41-3-8.06,1.87-3.17,5.8-5.84,11.87-9,17.67-6.51,11.86-13.91,15.36-27.28,13-6.16-1.11-12.16-2.7-18.35-3.8S75.12,46.81,75,53c-.18,5.87,0,11.76-.2,17.62C74.16,85.25,69,91.77,55,95.59,50,97,44.78,98,39.7,99.29c-8.92,2.25-9.24,3-5.57,11.32,2.91,6.61,6.07,13.14,8.56,19.91,3,8,.83,15.26-5,21.36-2,2-13.78,11.73-17.34,14.82-5.39,4.71-5.39,6,.1,10.77,4.81,4.17,10,7.93,14.69,12.23,9.41,8.61,11.07,16.07,6.31,27.93-2.18,5.44-4.91,10.65-7.31,16-3.65,8.12-3.23,8.93,5.37,11.15,6.76,1.75,13.62,3.18,20.25,5.32,8.69,2.81,13.49,9.15,14.42,18.24C74.62,272.83,75,289.32,75.05,293Z"/><path d="M120.11,237.2c-2.64-2-5.27-3.29-6.83-5.37-1.92-2.56-1.51-5.72.43-8.4.85-1.07,112.84-113,114-113.92a7.9,7.9,0,0,1,11,10.92c-.89,1.21-75.13,75.47-111.22,111.5C125.62,233.82,123.06,235.12,120.11,237.2Z"/><path d="M164.11,132.16a28,28,0,1,1,0-.2Zm-39.9-.15A12,12,0,0,0,136,144.1a12.28,12.28,0,0,0,12.18-12.16,12,12,0,0,0-12.06-11.79,11.75,11.75,0,0,0-11.88,11.62h0Z"/><path d="M188.13,212.12a28,28,0,1,1,28,28H216A28.08,28.08,0,0,1,188.13,212.12Zm39.9,0A12,12,0,0,0,216.24,200a12.32,12.32,0,0,0-12.15,12.19A12,12,0,0,0,216.17,224,11.8,11.8,0,0,0,228,212.3h0v-.18Z"/></svg>