<svg id="Layer_1" data-name="Layer 1" xmlns="http://www.w3.org/2000/svg" viewBox="0 0 384 340.44"><defs><style>.cls-1{fill:#777c87;}.cls-2{fill:#1c1e28;}</style></defs><title>discussion</title><path class="cls-1" d="M88.5,103.5C90,99,90.9,94.27,93,90.13c7.39-14.52,19.38-23,35.73-23.38,22.24-.58,44.5-.23,66.74-.23,4.18,0,6.65,2.11,6.72,5.43s-2.53,5.76-6.84,5.77c-17.25.06-34.5,0-51.75,0-4.88,0-9.76-.11-14.62.12-16,.78-29.08,14-29.16,30.05q-.28,56.06,0,112.12c0,12.58,8.16,23.59,20.09,28.14,11.53,4.4,15.21,11.91,11.6,23.63q-4.35,14.13-8.68,28.27c-.29.93-.5,1.88-1.07,4,1.93-1.51,3-2.31,4.08-3.19,17.13-14.39,34.32-28.7,51.32-43.24,6.24-5.34,13.2-7.59,21.32-7.57q52.88.18,105.75,0c16.61,0,29.18-9.81,32.12-25.24.76-4,.53-8.21.56-12.33.08-8.62,0-17.25.06-25.87,0-4.35,2.92-7.52,6.27-6.45,1.89.61,4.59,2.89,4.61,4.46.23,13.73,1.23,27.64-.5,41.17-2.73,21.38-20.64,35.47-42.57,35.51-35,0-70,.12-105-.08a24.26,24.26,0,0,0-17,6.26c-17.15,14.75-34.55,29.21-51.88,43.74-4.91,4.12-9.79,4.69-14.49,1.9-4.92-2.92-6.86-8.24-5-14.34,3.07-10.15,6.26-20.27,9.38-30.41,1.78-5.8.86-7.57-4.64-9.73C101.52,253,92.59,242.4,89.25,227.07c-.2-.95-.5-1.88-.75-2.82Z" transform="translate(-88.5 25.49)"/><path class="cls-1" d="M438,169.19c3.63,11.78,7.2,23.45,10.81,35.1,2.58,8.31,1.5,13.34-3.66,16.74s-10.37,2.35-16.87-3.12q-26.07-22-52.17-43.94a18.19,18.19,0,0,0-12.34-4.48q-54.17.1-108.33,0c-21.39-.06-38.6-14.79-42.1-35.86a47.65,47.65,0,0,1-.46-7.84q0-53.79,0-107.59c0-21.31,12.95-37.93,33-42.53A50.68,50.68,0,0,1,257-25.43q85.66-.09,171.32,0c26.1,0,44.19,18.28,44.2,44.44q0,52.48,0,105c0,23-10.8,37.66-32.63,44.46C439.29,168.58,438.75,168.86,438,169.19Zm1.3,43.14c-.6-2.31-.86-3.49-1.22-4.64-3.49-11.33-7-22.63-10.47-34-2.33-7.74,1.27-14.05,9-16.11,15.81-4.23,24.68-15.63,24.69-31.87q0-53.61,0-107.23c0-19.45-13.23-32.7-32.75-32.71q-85.87-.06-171.74,0c-19.57,0-32.64,13.13-32.67,32.73q-.08,53.63,0,107.24a37.76,37.76,0,0,0,.55,7.45c3.05,15,15.47,25,31.17,25q54.18.1,108.36,0a28.1,28.1,0,0,1,18.88,6.92q24.18,20.47,48.47,40.81C433.77,207.88,436.07,209.72,439.25,212.33Z" transform="translate(-88.5 25.49)"/><path class="cls-2" d="M218.25,215.31H133.88a22.3,22.3,0,0,1-3.75-.11c-2.81-.5-4.84-2.46-4.49-5.11.25-2,2-4,3.58-5.45.9-.8,2.86-.55,4.33-.55q84.75,0,169.5,0a14.61,14.61,0,0,1,4.09.29c2.84.86,4.38,2.92,4.06,5.93a5.23,5.23,0,0,1-4.84,4.93,25.86,25.86,0,0,1-3.74.08Z" transform="translate(-88.5 25.49)"/><path class="cls-2" d="M159.36,169.53c-9,0-18,0-27,0-4.36,0-7-2.15-7-5.58s2.65-5.64,7-5.65q27.15,0,54.3,0c4.4,0,6.89,2.11,6.89,5.63s-2.45,5.58-6.87,5.6C177.58,169.55,168.47,169.53,159.36,169.53Z" transform="translate(-88.5 25.49)"/><path class="cls-2" d="M159.36,112.5c9,0,18,0,27,0,4.72,0,7.25,2,7.24,5.65s-2.5,5.58-7.27,5.59q-26.78,0-53.55,0c-4.67,0-7.34-2.08-7.33-5.62s2.7-5.61,7.35-5.62C141.64,112.48,150.5,112.5,159.36,112.5Z" transform="translate(-88.5 25.49)"/><path class="cls-2" d="M287,131.13H397.69c0-6.16.46-12.25-.14-18.24-.51-5.21-4-9-8.38-11.84-3.77-2.45-4.7-5.5-2.79-8.45s5.13-3.42,8.86-1c8.93,5.74,13.72,14,14.22,24.57.23,4.86.12,9.74,0,14.62-.11,6.75-4.85,11.68-11.55,11.69q-55.31.1-110.59,0c-6.61,0-11.47-4.71-11.49-11.3,0-7-.24-14.07.9-20.9,1.52-9.13,7.26-15.84,15.54-19.94s16.55-7.6,24.86-11.34a9.71,9.71,0,0,1,9.66.69c10.58,6.67,21.1,6.6,31.7,0,4.33-2.7,13.11-1.22,16,3,1.08,1.58,1.1,4.59.39,6.5a4.38,4.38,0,0,1-6.37,2.13c-3.7-2.16-6.42-.57-9.63.88C347.13,97.55,335.38,97.13,324,91a5.75,5.75,0,0,0-5.88-.17c-6.31,3-12.7,5.82-19.07,8.7-8,3.62-12,9.78-12,18.58C287,122.35,287,126.58,287,131.13Z" transform="translate(-88.5 25.49)"/><path class="cls-2" d="M376.64,36.23c.75,15.23-4.67,26.85-17.57,34.12C338,82.21,311.56,68.65,309,44.62a64.44,64.44,0,0,1,.62-19.71c3.53-17,19.37-28,36.62-26.34C363,.2,376,14.34,376.63,31.59,376.7,33.33,376.64,35.08,376.64,36.23Zm-10.95.4-.33,0c0-1.87.09-3.75,0-5.62a22.71,22.71,0,0,0-21-21.24c-12.06-.69-22.56,7.28-24.13,18.87a59.6,59.6,0,0,0-.14,14.92c1.32,11.24,10.18,19.13,21.48,19.81a22.59,22.59,0,0,0,23.15-17.44C365.46,42.92,365.4,39.73,365.69,36.63Z" transform="translate(-88.5 25.49)"/></svg>