<svg xmlns="http://www.w3.org/2000/svg" viewBox="0 0 384.12 383.81"><path d="M285,0c7.3,1.5,14.75,2.51,21.88,4.59,47.73,14,80.4,60.68,77,109.71-3.57,51.21-41.2,92.66-91.06,100.33-60,9.22-115.15-31.79-123.84-92.12C160.69,65.17,201.5,10.25,259,1.39,261.65,1,264.32.47,267,0Zm-9.09,192A84,84,0,1,0,192,107.91V108A84.15,84.15,0,0,0,275.91,192Z"/><path d="M0,57c2.9-6.87,8.1-9.43,15.5-9.08,10.35.49,20.86-.58,31.05.86C62,51,71.69,60.72,75.72,75.78c1.77,6.61,3,13.35,4.59,20.21h51.18c7.26.06,12.6,5.28,12.53,12.1s-5.34,11.82-12.4,11.86c-13.88.07-44.34,0-46,0,3.52,15.82,23.3,104.46,29.79,133.32,1.68,7.47,5.81,10.67,13.55,10.68H304.05c7.69,0,11.83-3.12,13.91-10.46,1.56-5.53,3-11.08,4.61-16.59,2-7.06,8.23-10.72,15-9,6.39,1.69,10,8.08,8.21,15-1.64,6.41-3.35,12.8-5.33,19.11a36.33,36.33,0,0,1-35.19,25.87h-177c-18.09,0-32.14-11.1-36.13-28.83-13-57.85-25.9-115.85-39-173.85-.8-3.52-2.21-7.38-4.59-9.89-1.93-2-5.7-3.08-8.72-3.24a241.18,241.18,0,0,0-24.35,0C8.11,72.46,3,69.81,0,63Z"/><path d="M140.65,380.42a35.79,35.79,0,0,1-18.85-43.66c5.79-17.44,23.45-27.56,41.82-24,17.1,3.34,29.65,20.21,28.28,38a36.38,36.38,0,0,1-28.27,32.49A40.69,40.69,0,0,1,140.65,380.42ZM168,348.1A12,12,0,1,0,155.87,360H156a12.07,12.07,0,0,0,12-11.89Z"/><path d="M260.65,380.42a35.79,35.79,0,0,1-18.85-43.66c5.79-17.44,23.45-27.56,41.82-24,17.1,3.34,29.65,20.21,28.28,38a36.38,36.38,0,0,1-28.27,32.49C282.82,383.39,271,385.47,260.65,380.42ZM276.14,360A12,12,0,1,0,264,348.12v.13A12.08,12.08,0,0,0,276.14,360Z"/><path d="M252,127.18c5.46-5.5,39.27-39.49,51.17-51.25,7-7,18.1-4.11,20.46,5.16,1.22,4.82-.45,8.77-3.9,12.21-16.1,16-55.25,55.33-58.85,58.8-5.44,5.25-12.29,5.28-17.65,0q-11.7-11.59-23.32-23.33c-5-5.09-5.14-12.29-.46-17.12s12.17-4.9,17.38.22C241.79,116.76,246.65,121.8,252,127.18Z"/></svg>