<svg xmlns="http://www.w3.org/2000/svg" viewBox="0 0 362.57 409.81"><path d="M17.58,409.05C5.07,405.77-1.65,396.57.34,383.82c2.28-14.59,5.38-29.05,8.24-43.55,3.06-15.54,6.15-31.08,9.4-46.58C21.28,278,30.9,267.92,46,262.76c19.65-6.69,39.21-13.63,58.83-20.41,2.47-.85,3.4-2.25,3.66-4.93.75-7.52-1.15-12.36-8.21-17.14-18-12.17-28.38-29.91-31.86-51.5-.19-1.17-.48-2.32-.74-3.58C60,165,53.13,162.72,48,156.8c-5.35-6.17-7.19-13.17-4.54-21.15.61-1.85,1-32.23,2-45.36,1-13.68,5.76-26.47,12.51-38.43,1.85-3.28,5.28-4.22,8.19-2.65s3.7,4.79,2.28,8.33c-3.18,7.89-7,15.66-9.27,23.73-3.78,13.09-2.68,26.67-2.65,40.42L66.39,120c3.3-5.55,5.61-11.08,9.35-15.35,6.79-7.74,16-10.24,26.12-8.89a106.4,106.4,0,0,0,43.56-2.7c11.29-3.19,33.74-17.88,35.27-18.93,5.66-3.85,12.92-3,16.59,2.77,5,7.85,11.41,13,20.86,14.5,5.12.81,7.33,4.39,7.46,10.31s0,12,0,18l10.36,2c.16-.23.75-31.84-.43-47.35-1-12.92-6.41-24.15-18.76-30.66a12,12,0,0,1-3-2.64C191.9,17.07,164.31,9.09,133,13.47c-24.15,3.38-47.48,22.6-48.23,23.15-3.07,2.24-6.46,2-8.55-.53a5.8,5.8,0,0,1,.58-8.18q.21-.18.42-.33c5.6-4.5,11-9.47,17.27-12.86C132.85-6.09,170.61-5,207.39,19c2.22,1.44,17.74,14.79,23.41,19.79A48.27,48.27,0,0,1,247.48,72.7c1.11,17.53.65,35.15,1.06,52.73a55,55,0,0,0,1.55,11.77c3.23,13.13-6.8,26.52-21.07,27.79-1.18.1-2.37.15-3.09.2-2.1,7.15-3.66,14.19-6.21,20.85a74,74,0,0,1-29.53,36.25c-2.55,1.67-3.49,3.4-3.38,6.43.55,15.19-2.77,11.19,12,16.41a23.26,23.26,0,0,0,7.4,1.15c39.86.07,124.43.05,126.75.55a14.75,14.75,0,0,1,11.52,13.61c.32,7.85.23,15.73.15,23.59,0,3.9-2.35,6.37-5.6,6.53s-6.12-2.37-6.25-6.37c-.21-6.79,0-13.6-.1-20.4,0-4.6-.84-5.48-5.34-5.48H162.16c-4.45,0-5.48,1-5.48,5.42V369.32c0,4.28,1.17,5.33,5.57,5.33H327.06c5,0,5.64-.71,5.65-5.95V316.31c0-6.53,1.84-9.5,5.93-9.61s6.07,2.91,6.07,9.35v58.26a18.53,18.53,0,0,0,2.09.33c12.88.58,19.22,11.24,13.84,23.08-2.93,6.46-8.42,9.61-14.57,12.08H193.28c-2.58-2.06-4.93-4.26-3.5-8s4.53-4.1,7.91-4l146.5-.08s6.45-1.26,6.12-6.12-6.92-4.86-6.92-4.86l-197.46-.08s-6.45.54-6.45,5.25,6.65,5.86,6.65,5.86,13.19.08,18.78,0c3.4,0,6.5.38,7.9,4s-1,6-3.55,8C119.15,409.8,18.05,409.2,17.58,409.05ZM187.74,84c-.86.59-1.41.92-1.91,1.32-24.93,20.12-53.54,26.34-84.81,22.4-12.7-1.6-21.39,5.65-21.56,18.39-.16,11.07-.07,22.14.1,33.2a65.43,65.43,0,0,0,7.73,29.48c11.93,22.95,40.32,37.74,68.71,34.09,27.09-3.49,50.27-24.6,55.59-50.92,4.5-22.22,1.31-44.93,1.93-67.41a3.24,3.24,0,0,0-2-2.31C201,99.77,193.48,93.41,187.74,84ZM66.88,397.59h61.83c-2.16-5.88-2.64-11.48.91-16.69,3.7-5.43,9.44-6.39,15-6.39V280.2c-17.55-1.69-33.87-4.56-36.39-26.35C87.78,261,67.6,267.73,47.61,275c-9.47,3.44-15.62,10.4-17.68,20.53-2.36,11.61-9.42,47-10.65,53.2h35.6c0-2.28-.05-4.38,0-6.47.14-4.35,2.48-6.95,6.1-6.88s5.72,2.58,5.87,6.71C67,344.48,66.88,397.59,66.88,397.59ZM16.6,361.11c-1.52,8.23-3.21,16-4.35,23.92-1,7.31,1.81,11.93,8.55,12.3,11.22.62,22.51.17,33.84.17V361.11ZM174.71,230.49c-18.15,6.67-36,6.65-54.27.77,0,2-.14,16.91.15,22.9.25,5.28,3.11,9.24,8.1,10.83s10.23,2.36,15.72,3.57c.12-1.94.25-3.1.27-4.27.21-12.14,6.16-18,18.39-18h11.64Zm51.2-98.06v20.31c7.05.33,12.67-4.11,12.84-9.92s-5.55-10.62-12.84-10.39ZM67.4,132.26c-5.17-.22-9,1.49-11.62,5.44a8.4,8.4,0,0,0,0,9.77c2.62,4,6.5,5.57,11.62,5.49Z"/><path d="M264.54,316.63a19.88,19.88,0,1,1,0-.12Zm-19.92,7.57a7.74,7.74,0,0,0,.76-15.46h-.47a7.74,7.74,0,0,0-.29,15.47Z"/></svg>