<svg id="Layer_1" data-name="Layer 1" xmlns="http://www.w3.org/2000/svg" xmlns:xlink="http://www.w3.org/1999/xlink" viewBox="0 0 4.19 4.19"><defs><style>.cls-1{fill:url(#linear-gradient);}.cls-2{fill:#fff;}</style><linearGradient id="linear-gradient" x1="279.76" y1="140.48" x2="280.63" y2="146.4" gradientUnits="userSpaceOnUse"><stop offset="0" stop-color="#0e3189"/><stop offset="0.94" stop-color="#001042"/></linearGradient></defs><title>fb-c</title><path class="cls-1" d="M282.37,144a2.08,2.08,0,0,1-1.92,2.08.47.47,0,0,1-.17,0,2.31,2.31,0,0,1-.46-.05,2.1,2.1,0,1,1,2.55-2.05Z" transform="translate(-278.18 -141.88)"/><path class="cls-2" d="M280.51,143.54a.26.26,0,0,1,.19-.07,1.55,1.55,0,0,1,.29,0l.08-.44a1.52,1.52,0,0,0-.52-.07.89.89,0,0,0-.43.09.53.53,0,0,0-.23.24,1,1,0,0,0-.07.44V144h-.34v.5h.34V146a2.31,2.31,0,0,0,.46.05.47.47,0,0,0,.17,0v-1.61h.46V144h-.46v-.17A.35.35,0,0,1,280.51,143.54Z" transform="translate(-278.18 -141.88)"/></svg>