<svg xmlns="http://www.w3.org/2000/svg" viewBox="0 0 157.1 160.29"><path fill="#4285f4" d="M157.08,81.93a67.26,67.26,0,0,0-1.69-16.37H80.16V95.3h44.16c-.9,7.39-5.7,18.52-16.38,26l25.29,19.58c15.13-14,23.86-34.54,23.86-58.94"/><path fill="#34a853" d="M80.16,160.29c21.63,0,39.79-7.13,53.06-19.41l-25.29-19.59C99.14,127.43,58,145,34.56,96l-26,20.12a80.09,80.09,0,0,0,71.59,44.17"/><path fill="#fbbc05" d="M34.56,96c-1.75-5.11-4.69-16.34-.1-31.72L8.54,44.17a80,80,0,0,0,0,71.94L34.54,96"/><path fill="#eb4335" d="M80.16,31a44.36,44.36,0,0,1,31,11.93l22.64-22.1A77.07,77.07,0,0,0,80.18,0,80.09,80.09,0,0,0,8.59,44.16L34.46,64.28C41,45,59,31,80.18,31"/></svg>