<svg xmlns="http://www.w3.org/2000/svg" viewBox="0 0 487.32 468.48"><path d="M483.69,275.33c-13.28,69.26-50.13,122.55-110,159.5-38.82,24-81.53,34.51-127.13,33.59C153.82,466.55,68.87,407.16,35.4,320.71c-7.81-21.36,21.7-32.44,29.7-11.6,15,37,38.4,67.48,71.15,90.39,43.74,30.59,92.38,42.3,145.13,34.8,85.34-12.11,152.4-75.49,170-159.59C473.69,167.54,404.7,60.6,297.86,36.82,200.53,15.16,104.44,64.93,66.1,156.94c-10,22.14-38.53,10-30.93-9,6.61-16.5,14.61-32.23,24.93-46.74C103.48,40,162.59,5.71,237.48.55,356-7.57,461.2,74.13,483.35,190.55,487.93,223.39,489.1,246.6,483.69,275.33Z"/><path d="M282.1,250.15H17.1c-22.77,0-22.86-32-.13-32H283.31c-1.85-2-41-40.73-56.86-57.27s6.85-38.46,23.06-22.2,72,71.86,83.62,83.47c7.06,7,7.16,16.87.16,23.85-28,28-66.4,65.6-84,83.77s-40.38-4.4-23-22.16S282.31,250.5,282.1,250.15Z"/></svg>