<svg xmlns="http://www.w3.org/2000/svg" viewBox="0 0 1471.02 347.42"><path d="M354.44,198.32h-99.7q1.14,18.42,12.63,28.78t27.87,10.3q13.42,0,22.41-6.25a33.2,33.2,0,0,0,12.63-16.75h22.3a53.6,53.6,0,0,1-20,29.24q-15,11.27-37.31,11.26-17.75,0-31.74-8a56.39,56.39,0,0,1-22-22.64q-8-14.67-8-34t7.74-33.9A54.36,54.36,0,0,1,263,134q14-7.84,32.19-7.85,17.74,0,31.4,7.74a53.51,53.51,0,0,1,21,21.27,62.89,62.89,0,0,1,7.4,30.6A123.45,123.45,0,0,1,354.44,198.32Zm-26-37.2a34.06,34.06,0,0,0-14.22-13,44.27,44.27,0,0,0-19.91-4.44q-15.71,0-26.73,10T255,181.4h78.72Q333.69,169.67,328.44,161.12Z"/><path d="M447.44,252.92l-29.61-46.41L389.4,252.92H367.83L408.1,191l-40.27-62.8h23.43l29.57,46.16,28.22-46.19h21.61l-40,61.66,40.27,63Z"/><path d="M530.38,133.4q12.18-7.17,28.33-7.17a58.38,58.38,0,0,1,30.15,8,56.31,56.31,0,0,1,21.27,22.37q7.7,14.44,7.7,33.56,0,18.89-7.74,33.67A56.69,56.69,0,0,1,558.67,255q-15.93,0-28.1-7.17A51,51,0,0,1,512,230v82.14H491.36V128.24h20.71v23Q518.2,140.51,530.38,133.4ZM591,165.59a39.3,39.3,0,0,0-15.36-15.92,42.61,42.61,0,0,0-21.22-5.46,41.48,41.48,0,0,0-21.05,5.57,40.83,40.83,0,0,0-15.47,16.16q-5.8,10.58-5.8,24.45,0,14.12,5.8,24.69a40.83,40.83,0,0,0,15.47,16.16,43,43,0,0,0,42.32,0,40,40,0,0,0,15.36-16.16q5.68-10.58,5.69-24.91,0-14.14-5.74-24.62Z"/><path d="M758.25,198.32H658.59q1.14,18.42,12.63,28.78t27.87,10.3q13.42,0,22.41-6.25a33.2,33.2,0,0,0,12.63-16.75h22.31a53.6,53.6,0,0,1-20,29.24q-15,11.27-37.32,11.26-17.75,0-31.74-8a56.34,56.34,0,0,1-21.94-22.5q-8-14.67-8-34t7.74-33.9a54.36,54.36,0,0,1,21.73-22.41q14-7.84,32.19-7.85,17.74,0,31.4,7.74a53.7,53.7,0,0,1,21,21.27,62.88,62.88,0,0,1,7.39,30.6A123.57,123.57,0,0,1,758.25,198.32Zm-25.94-37.2a34.06,34.06,0,0,0-14.22-13,44.27,44.27,0,0,0-19.91-4.44q-15.69,0-26.73,10T658.83,181.4h78.72Q737.54,169.67,732.31,161.12Z"/><path d="M822.52,131.88Q832.65,126,847.21,126V147.4h-5.46q-34.82,0-34.81,37.77V253H786.23V128.24h20.71v20.25A39.74,39.74,0,0,1,822.52,131.88Z"/><path d="M896.35,145.3v73.49q0,9.11,3.87,12.86t13.42,3.75h15.25v17.52H910.23q-17.29,0-25.94-8t-8.64-26.17V145.28H859.49V128.22h16.16V96.82h20.7v31.4h32.54v17.06Z"/><path d="M1000.9,130.52a52.21,52.21,0,0,1,24.68-5.69,55.1,55.1,0,0,1,29.24,8,56.17,56.17,0,0,1,20.71,22.57q7.62,14.67,7.62,34t-7.62,34.25a57.42,57.42,0,0,1-20.7,23.11,54,54,0,0,1-29.24,8.19q-14.1,0-24.68-5.57a47.82,47.82,0,0,1-17-14.45v18H952.09V84.56H984V145.3A45.42,45.42,0,0,1,1000.9,130.52Zm45,39.24a32.34,32.34,0,0,0-12.29-12.62,32.88,32.88,0,0,0-16.49-4.33,31.78,31.78,0,0,0-16.27,4.44,33,33,0,0,0-12.29,12.86,40.21,40.21,0,0,0-4.66,19.79q0,11.39,4.66,19.79a33,33,0,0,0,12.27,12.86,32.08,32.08,0,0,0,32.76-.11,33.82,33.82,0,0,0,12.29-13q4.66-8.41,4.66-20,0-11.37-4.61-19.68Z"/><path d="M1222.62,199.4h-92.18q1.14,13.65,9.56,21.38t20.7,7.74q17.76,0,25.26-15.25h34.36a57.45,57.45,0,0,1-20.88,30Q1184,255,1161.44,255q-18.21,0-32.65-8.08a56.72,56.72,0,0,1-22.53-22.86q-8.07-14.79-8.08-34.13,0-19.56,8-34.36a55.71,55.71,0,0,1,22.3-22.75q14.32-8,33-8,18,0,32.19,7.73a54.49,54.49,0,0,1,22.07,22q7.85,14.22,7.85,32.65A76.83,76.83,0,0,1,1222.62,199.4ZM1190.54,178q-.22-12.28-8.87-19.68t-21.16-7.4q-11.84,0-19.91,7.17T1130.7,178Z"/><path d="M1278.59,84.56V252.92h-31.86V84.56Z"/><path d="M1341.83,84.56V252.92H1310V84.56Z"/><path d="M1393.72,249.4a49,49,0,0,1-19.46-15.13,38.4,38.4,0,0,1-7.85-21.16h32.08a17.57,17.57,0,0,0,7.17,12.06q6.25,4.77,15.59,4.77,9.09,0,14.22-3.64t5.12-9.32q0-6.15-6.26-9.22T1414.44,201a169.18,169.18,0,0,1-23.09-7,40,40,0,0,1-15.47-11.15q-6.5-7.51-6.49-20.25a32.73,32.73,0,0,1,6-19.12q6-8.64,17.29-13.65t26.51-5q22.53,0,36,11.26t14.75,30.28h-30.5a16.51,16.51,0,0,0-6.26-11.94q-5.58-4.44-14.9-4.44-8.65,0-13.31,3.19a10.16,10.16,0,0,0-4.67,8.87q0,6.38,6.38,9.67t19.76,6.75a167.45,167.45,0,0,1,22.52,7.06,39.71,39.71,0,0,1,15.36,11.26q6.5,7.62,6.71,20.14a33.41,33.41,0,0,1-6,19.56q-6,8.65-17.3,13.54T1421.44,255A66.57,66.57,0,0,1,1393.72,249.4Z"/><path d="M94.72,220.55a70.31,70.31,0,0,0,46.3-65q.06-6.57,0-13.16c-.06-4.79-2.58-7.31-7.44-7.17-41.75,2.63-56.37,29.32-56.37,29.32V140.79a70.56,70.56,0,1,0-13.2,0v41.42S48.5,153.4,7.5,152.75c-4.86-.14-7.38,2.38-7.44,7.17q-.07,6.6,0,13.16a70.3,70.3,0,0,0,46.3,65c5.67,2,11.66,3.16,17.62,4.73v22.44S47.32,235.68,7.5,235.87c-4.86-.14-7.39,2.38-7.44,7.18Q0,249.62.06,256.2a70.3,70.3,0,0,0,46.31,65C52,323.2,58,324.36,64,325.93v8.62H21c-9.63,0-10.37,12.84,0,12.84H121.29c8.92,0,10.06-12.82-1.14-12.82H77.22v-26c5.92-1.56,11.87-2.7,17.5-4.71a70.31,70.31,0,0,0,46.3-65q.06-6.57,0-13.15c-.06-4.8-2.58-7.32-7.44-7.17-38.86,2.05-56.37,29.31-56.37,29.31V225.29C83.14,223.69,89.09,222.56,94.72,220.55Zm-17.5-17.76c1.58-30.66,26.33-52.26,50.71-54.18,3.37,37.6-27.16,61.81-50.71,62.7Zm-13.29,26.1c-23.57-.82-54.2-25.06-50.82-62.71C37.94,168.13,63.2,190.4,64,222Zm0,83.11c-23.57-.83-54.17-25.06-50.8-62.7,24.67,2,49.75,24,50.8,55.24Zm13.26-26c1.64-30.6,26.36-52.19,50.74-54.11,3.37,37.59-27.16,61.8-50.71,62.69ZM11.91,70.57a57.77,57.77,0,1,1,57.77,57.77h0A57.86,57.86,0,0,1,11.91,70.57Z"/><path d="M90.57,33.82a40.35,40.35,0,0,0-20.31-5,41.89,41.89,0,0,0-20.82,5.07A35,35,0,0,0,35.38,48.4a46,46,0,0,0-5,21.93A45.53,45.53,0,0,0,35.53,92.4,36.53,36.53,0,0,0,49.74,107a40.72,40.72,0,0,0,20.53,5.16q14.43,0,24.14-7.29a34.66,34.66,0,0,0,13-18.92H92.93a21.43,21.43,0,0,1-8.17,10.82q-5.82,4-14.5,4a26,26,0,0,1-18-6.7q-7.42-6.7-8.17-18.62h64.47A80.24,80.24,0,0,0,109,67.4a40.66,40.66,0,0,0-4.78-19.8A34.6,34.6,0,0,0,90.57,33.82ZM44.21,64.58q1-11.47,8.17-18a24.85,24.85,0,0,1,17.29-6.47A28.57,28.57,0,0,1,82.55,43a22,22,0,0,1,9.2,8.42,24.66,24.66,0,0,1,3.39,13.17Z"/></svg>