<svg xmlns="http://www.w3.org/2000/svg" viewBox="0 0 384 256.14"><path d="M0,18.34C0,8.86,5.4,0,22.09,0s326,.06,340.08,0S384,9.4,384,21.56v213c0,15.23-7.43,21.58-21.44,21.58H21.36c-13,0-21.36-5.29-21.36-18.3ZM368.84,230.22V24.51L214,140.51c-13.89,10.41-30.13,10.34-44-.06-50.48-37.85-154.87-116-154.87-116V230.17s79-97.62,82.86-102a7.15,7.15,0,0,1,10.08-.78h0a7.35,7.35,0,0,1,1.34,9.81c-.41.8-83.86,103.9-83.86,103.9H358.41s-72.33-89.56-82.91-102.7c-3.64-4.53-2.51-10.16,2.3-12.17,3.46-1.44,6.56-.32,9.7,3.56ZM27.44,15.06,178.22,128.22c9.42,7.07,18.06,7.13,27.41.11,45.57-34.16,151-113.27,151-113.27Z"/></svg>