<svg id="Layer_1" data-name="Layer 1" xmlns="http://www.w3.org/2000/svg" viewBox="0 0 383.97 347.03"><defs><style>.cls-1{fill:#777c87;}.cls-2{fill:#1c1e28;}</style></defs><title>Marketing Strategy</title><path class="cls-1" d="M88.5,310.5c2.12-2.9,5.06-3.54,8.5-3.47,7.49.15,15,.05,23,.05v-4.2q0-28.32,0-56.63c0-9.46,5.08-14.67,14.51-14.73,12.25-.07,24.5-.05,36.75,0,10.19,0,15.22,5.06,15.24,15.2q0,27.75,0,55.49v4.64h18.29V293.72c0-5.62,0-11.25,0-16.87,0-4.43,2.08-6.91,5.6-7s5.62,2.36,5.64,6.82c0,8.62,0,17.25,0,25.87v4.25h43.83c.07-1.38.18-2.7.18-4q0-48,0-96c0-5.07,0-5.08-4.94-5.08-11.5,0-23,.14-34.49-.08-3.74-.07-4.68,1.25-4.64,4.77.15,14.37.07,28.74.06,43.12,0,1,0,2,0,3-.18,3.54-2.34,5.89-5.45,6a5.59,5.59,0,0,1-5.73-5.72c-.09-16.75-.24-33.5.09-50.24.14-7.06,6.07-12,13.32-12.06,13-.08,26-.06,39,0,8.55,0,14,5.46,14,14.11.08,13.12,0,26.25,0,39.37V306.8h18.26V165.57c0-11.34,4.85-16.18,16.21-16.18q17.63,0,35.24,0c9.82,0,15.09,5.25,15.09,15q0,68.81,0,137.62v4.74h18.29c0-1.51,0-3.08,0-4.64q0-89.05,0-178.12c0-4,.46-7.73,3.17-10.88a12.25,12.25,0,0,1,9.47-4.61c13.75,0,27.5-.21,41.24,0,7.4.14,12.57,5.72,12.61,13.14.1,18.75.06,37.5,0,56.25,0,4.17-2.08,6.56-5.5,6.64-3.58.09-5.73-2.36-5.73-6.74,0-17.87-.09-35.75.06-53.62,0-3.43-1-4.6-4.46-4.55-11.75.17-23.5.15-35.24,0-3.21,0-4.41.9-4.4,4.24q.1,89.81.06,179.61c0,1.71-.41,3.58,2.42,3.56,13.5-.11,27-.11,40.49-.16.22,0,.43-.19,1.06-.48V204.75a29.12,29.12,0,0,1,.07-3.74,5.24,5.24,0,0,1,5.23-4.95c3.15-.16,5.19,1.62,5.83,4.72a18.6,18.6,0,0,1,.13,3.74V306.87c1.53.07,2.84.19,4.16.2,7,0,14-.06,21,.05,3.91.06,6.26,2.23,6.34,5.47s-2.39,5.55-6.46,5.72c-.87,0-1.75,0-2.62,0q-183,0-366,.05c-3.53,0-6.63-.43-8.91-3.38Zm256.17-3.7c.09-1,.23-1.88.23-2.72q0-69.69.06-139.39c0-3.15-1.19-4.12-4.21-4.1-11.49.11-23,0-34.47,0-5.37,0-5.38,0-5.38,5.48V306.8Zm-169.75.06a11.61,11.61,0,0,0,.31-1.77c0-19.6,0-39.21.06-58.81,0-2.93-1.37-3.52-3.93-3.5-11.74.08-23.48.16-35.22,0-3.71-.07-5,.93-4.94,4.81.19,18.48.08,37,.08,55.44v3.87Z" transform="translate(-88.5 28.65)"/><path class="cls-2" d="M399,43.55c-2-20.32-4-39.8-6-59.61L335-1c4.32,3,8.05,5.63,11.75,8.26,4.49,3.17,5.06,5.43,2.3,10.07-8.22,13.86-18.7,25.91-30,37.26-2.64,2.64-6.08,2.64-8.34.33s-2.07-5.41.43-8.36Q323.42,32,335.65,17.37a27.94,27.94,0,0,0,1.77-2.78c-6-4.18-11.85-8.35-17.81-12.41-2.34-1.59-4-3.39-3.47-6.44s2.62-4.17,5.43-4.89Q357.81-18.48,394-28c6.67-1.74,9-.24,9.67,6.66,2.56,25,5,50,7.57,74.94.29,2.75-.28,5-2.78,6.39s-4.73.73-6.94-.84c-5.9-4.17-11.85-8.26-17.83-12.41-4.59,5.49-8.86,10.86-13.41,16-42.4,47.79-95.82,76.7-157.32,91.74a389,389,0,0,1-62.11,9.62c-7.39.59-13-3.26-14.41-9.71-1.51-7,1.9-12.83,9.38-15.2,30.29-9.57,59.72-21.19,87.71-36.3A356.5,356.5,0,0,0,292.32,63.6c.39-.32.77-.65,1.16-1,3.42-2.65,6.78-2.58,8.91.18s1.59,5.81-1.69,8.46c-5.54,4.47-11.08,9-16.81,13.18-37,27.14-77.94,46.44-121.24,61.05-4.14,1.39-8.33,2.63-12.44,4.11a10.57,10.57,0,0,0-2.62,2.09c1,.36,2.15,1.16,3.12,1,16.93-2.35,34-4,50.73-7.42,42.21-8.59,81.29-24.82,116.38-50.13A268.17,268.17,0,0,0,375.63,38.4c4.81-6.39,6.27-6.62,12.81-2.11Z" transform="translate(-88.5 28.65)"/></svg>