<svg id="Layer_1" data-name="Layer 1" xmlns="http://www.w3.org/2000/svg" viewBox="0 0 385.57 385.65"><defs><style>.cls-1{fill:#1c1e28;}.cls-2{fill:#777c87;}</style></defs><title>New Business Development</title><path class="cls-1" d="M297.9-23.23c3.9-3.34,8.17-6.25,12.29-9.33,6.1-4.57,8.69-4.18,13.35,2,4.07,5.42,8.15,10.83,12.19,16.27,1.83,2.45,4,4.28,7.27,3.59,3.45-.72,4.83-3.22,5.29-6.49,1.08-7.58,2.14-15.15,3.38-22.7.8-5,3.59-6.89,8.46-6.2q17.52,2.46,35,5c5.79.82,7.81,3.62,7,9.72-1,7.08-2,14.16-3,21.23-.48,3.22-.07,6.09,3,7.86s5.75.57,8.31-1.36c5.8-4.39,11.61-8.78,17.47-13.1,4.54-3.35,7.83-2.9,11.25,1.63q10.57,14,21,28c3.56,4.8,3.08,7.78-1.77,11.47q-8.55,6.5-17.18,12.86c-2.72,2-4.58,4.4-3.56,8,1,3.41,3.72,4.4,6.91,4.83q10.81,1.44,21.6,3.05c5.4.79,7.5,3.76,6.7,9.22q-2.51,17.13-4.94,34.26c-.87,6-3.42,8-9.45,7.13-7.2-1-14.41-2-21.6-3.08-3.08-.45-5.8,0-7.59,2.82-1.88,3-.94,5.72,1,8.32q6.48,8.55,12.89,17.16c3.89,5.22,3.51,8.22-1.58,12.06q-13.68,10.29-27.42,20.54c-5,3.72-8,3.29-11.77-1.65q-6.48-8.55-12.88-17.16c-1.92-2.6-4.22-4.45-7.62-3.63-3.59.88-4.71,3.77-5.17,7.08q-1.49,10.81-3.05,21.61c-.75,5.21-3.27,7.31-8.48,6.63q-17.71-2.34-35.39-5c-5.76-.87-7.43-3.22-6.69-9.13.82-6.6,1.83-13.17,2.75-19.75.16-1.12.65-2.38.32-3.34-.77-2.22-1.48-4.83-3.1-6.32-2.12-2-5-1.2-7.28.51-5.95,4.4-11.85,8.87-17.79,13.29-5.35,4-8.34,3.58-12.33-1.71q-10.18-13.53-20.32-27.11c-3.82-5.12-3.36-8.15,1.76-12,5.71-4.31,11.42-8.62,17.17-12.87,2.66-2,4.28-4.39,3.37-7.72-.87-3.18-3.41-4.38-6.52-4.79-7.09-.94-14.16-2-21.23-3-6.36-.93-8.3-3.36-7.43-9.69q2.38-17.32,5-34.62c.82-5.4,3.59-7.32,8.92-6.56,7.33,1,14.66,2,22,3.19,3.15.51,5.81,0,7.57-2.79s1.1-5.49-.81-8c-4.38-5.81-8.82-11.58-13.05-17.5-1.41-2-3.56-6.86-.88-9.54S294.91-20.66,297.9-23.23Zm149.15,40L431.74-3.56C425.83.72,420.53,5,414.81,8.6c-8.74,5.52-20.12,2.6-25.75-6.07-3.49-5.36-3.23-11.14-2.34-17.07.71-4.78,1.36-9.56,2.06-14.54l-25.24-3.53c-.89,5.93-1.8,11.47-2.54,17-1.17,8.87-5.81,15-14.5,17.23s-15.69-1.14-21-8.23c-3.38-4.51-6.77-9-10.31-13.72L294.77-5c3.85,5.15,7.54,9.89,11,14.77,4.91,6.88,5.58,14.3,1.24,21.55s-11.36,10.26-19.92,9.08L269.37,38c-1.2,8.52-2.37,16.77-3.57,25.24,6.13.89,11.81,1.73,17.5,2.54,5.88.84,10.74,3.42,14.1,8.39,5.82,8.59,4,19.36-4.45,26.18-4.74,3.82-9.7,7.39-14.77,11.24l15.26,20.35c1.17-.83,2.19-1.52,3.18-2.25,3.82-2.85,7.6-5.76,11.45-8.57,4.67-3.41,9.85-5,15.61-3.74,11,2.35,16.89,11.75,15.08,23.61-.83,5.39-1.54,10.8-2.33,16.43L361.6,161c.3-1.84.53-3.18.74-4.53.76-5.09,1.25-10.23,2.32-15.25a18.05,18.05,0,0,1,13.75-14.45c7.44-2,14.06,0,19.08,5.75,4.42,5.09,8.31,10.64,12.51,16.1l20.37-15.31c-3.62-4.84-7-9.33-10.38-13.88-5.45-7.41-6.11-15.46-1.89-22.5s12-10.29,21.14-8.86c5.4.84,10.83,1.51,16.52,2.3,1.23-8.56,2.41-16.71,3.64-25.21-5.55-.81-10.85-1.66-16.17-2.35-9.55-1.23-16.12-6.4-18.22-14.47S426,32.7,433.5,27C437.89,23.67,442.3,20.37,447.05,16.8ZM204.57,195.48c-10.91,18.67-29.48,23.27-44.13,19.34A38.72,38.72,0,0,1,132,179a37.21,37.21,0,0,1,7.33-23.62c6.46-9,15.38-14.11,26.24-15.87Zm-43.82-76.15c-.36,1.08-.72,2-.95,2.93-2.64,10.67-11.93,14.26-21.09,8.11-4-2.66-7.86-5.39-11.55-7.93l-12,11.64c2.59,3.77,5.31,7.66,8,11.61,6.27,9.32,2.61,18.69-8.3,21.22-4.83,1.12-9.7,2.13-14.51,3.19v15.15c4.87,1.06,9.63,2.06,14.37,3.14,11.11,2.53,14.78,12,8.35,21.43-2.66,3.92-5.36,7.82-7.7,11.24,4,4.11,7.78,7.91,11.69,11.89,3.9-2.66,8-5.56,12.16-8.3,8.74-5.72,18.19-1.88,20.54,8.33,1.15,5,2.16,10,3.21,14.82H178.2c1.09-5,2.06-9.83,3.17-14.59,2.48-10.7,11.86-14.41,21-8.31,4.05,2.71,8,5.51,12.64,8.68,3.87-4.07,7.57-8.16,11.51-12,1.55-1.51,1.57-2.68.79-4.55l2.41,19.65c-1.63,1.88-4.17,3.85-5.92,5.61-7.43,7.51-7.84,7.52-16.68,1.43-4.18-2.88-8.37-5.74-13-8.9-1.51,7.1-2.84,13.57-4.27,20-.92,4.11-3,6-7,6-8.16.09-16.31.05-24.47,0-3.79,0-6-2-6.93-5.65-.32-1.34-.56-2.7-.85-4.05-1.14-5.3-2.29-10.61-3.54-16.34-5.82,4-11.06,7.63-16.36,11.2-4.38,2.95-6.81,2.71-10.61-1q-8-8-16-16c-4.92-4.93-5.08-6.8-1.07-12.66l10.41-15.18c-6.62-1.4-12.57-2.77-18.57-3.88-3.29-.62-5.87-2-7.5-5V163c1.67-2.93,4.23-4.32,7.53-4.92,6-1.1,11.93-2.49,18.49-3.89l-10.66-15.53c-3.67-5.37-3.47-7.49,1.11-12.09,5.41-5.42,10.8-10.85,16.25-16.23,3.79-3.74,6.18-3.93,10.62-.92,5.29,3.57,10.53,7.21,16.36,11.2,1.3-6.18,2.5-11.88,3.69-17.59,1.41-6.73,2.28-7.64,8.84-9Zm11.62,83.74c8.11-.27,15.76-4.74,20.8-13.76,1.26-2.24,1-3.64-.75-5.5a100.67,100.67,0,0,1-19.29-27.58c-1.88-4.1-4.37-4.39-8-3.55a25.45,25.45,0,0,0-20,27.12C146.44,193.1,156.81,202.7,172.37,203.07Z" transform="translate(-87.38 47.93)"/><path class="cls-2" d="M87.38,192.33V163M280.2-9.12C274-8.32,264.75-7,257.76-5.39c-38,8.72-65,31.13-78.83,67.48-13.91,36.62-8.5,71.49,14.36,103.43,7.84,10.95,17.88,19.61,29.1,27,8.79,5.78,15.26,13.47,18.12,23.68a60.13,60.13,0,0,1,2,13.69c.32,7.77,0,15.56.1,23.34.07,8.71,5.05,13.92,13.75,14q24.67.19,49.34,0c8.75-.07,13.66-5.22,13.7-14,.05-7.53-.05-15.07,0-22.6.17-15.75,6.5-28.33,19.43-37.51,4.91-3.48,9.7-7.11,14.91-10.94l8.46,9.47C357.4,195.3,353,199,348.2,202.13c-11.22,7.29-16.39,17.5-16,30.79.21,7,.06,14.06,0,21.09,0,8.75-3.66,15.66-10.49,21.11a6.76,6.76,0,0,0-2.19,4.56c-.21,9-.52,18.09,0,27.1.81,14.25-5,27.13-22.73,30.94H265.16c-17.35-5.55-22.55-12.71-22.55-31.06,0-9.16,0-18.32,0-27.47,0-1.13-.28-2.77-1-3.29-9.72-6.64-12.31-16.23-11.74-27.29.2-3.79,0-7.59,0-11.39L227.29,217c-4.41-10.61-14.51-15-22.72-21.56l-12.15-11.67a100.67,100.67,0,0,1-19.29-27.58l-7.58-16.68c-1.63-6.85-3.18-13.4-4.8-20.22L159.61,94c1.11-14.8,4.27-29.19,10.52-42.77,14.22-30.9,37.25-52.47,69.07-64.48,15.69-5.93,38-8.35,54.74-6.94ZM255.58,305.81c-.07,1.26-.14,2.13-.15,3-.13,11.25,4.62,16.07,15.83,16.08,6.52,0,13.06-.35,19.54.08,10.46.69,18-6.22,15.33-19.16Zm.06-25.51v12.28h50.8V280.3Z" transform="translate(-87.38 47.93)"/><path class="cls-2" d="M287.27,222.27H275.33c-1.23-5-2-10.12-3.74-14.84a37.36,37.36,0,0,0-20.27-21.67c-11.06-4.93-21.6-10.5-30.65-18.71C181.18,131.22,182,67.93,222.41,33.27c3.32-2.84,6.89-5.4,10.72-8.38L240,35.69c-2.83,2.18-5.53,4.16-8.11,6.27-43.23,35.26-34,105.68,17,128.48,10.91,4.89,21.12,10.45,28.24,20.44A52.85,52.85,0,0,1,287.27,222.27Z" transform="translate(-87.38 47.93)"/><path class="cls-1" d="M104.55-2.72,112-13.11l44.78,32-7.42,10.43Z" transform="translate(-87.38 47.93)"/><path class="cls-2" d="M184.86,3.24l-12.37,3.2L159.41-44.65l12.34-3.28C176.11-30.91,180.41-14.11,184.86,3.24Z" transform="translate(-87.38 47.93)"/><path class="cls-2" d="M97.05,75.06,93.94,62.67l51.12-12.8,3.11,12.4Z" transform="translate(-87.38 47.93)"/><path class="cls-1" d="M400.35,223.94l38.38,32c-2.7,3.26-5.3,6.38-8.17,9.83l-38.37-32Z" transform="translate(-87.38 47.93)"/><path class="cls-2" d="M376.82,286.37h-12.2V241.89h12.2Z" transform="translate(-87.38 47.93)"/><path class="cls-2" d="M402.88,203V190.85h44.36V203Z" transform="translate(-87.38 47.93)"/><path class="cls-1" d="M275,254.05V235.51H287.2v18.54Z" transform="translate(-87.38 47.93)"/><path class="cls-1" d="M413.68,64.23A51.17,51.17,0,1,1,362.53,13,51.22,51.22,0,0,1,413.68,64.23Zm-12.81.2a38.36,38.36,0,1,0-76.72-.36c-.1,20.77,17.39,38.39,38.23,38.53S400.75,85.34,400.87,64.43Z" transform="translate(-87.38 47.93)"/></svg>