<svg id="Layer_1" data-name="Layer 1" xmlns="http://www.w3.org/2000/svg" viewBox="0 0 384 384"><defs><style>.cls-1{fill:#777c87;}.cls-2{fill:#1c1e28;}</style></defs><title>Online Marketing</title><path class="cls-1" d="M224.25-47.25c11.59,11.52,23.25,23,34.69,34.64a9.66,9.66,0,0,1,2.21,6c.24,8.62.1,17.25.1,25.87v4.63H312c13,0,16.31,2.22,21.23,14.37H445.92c16.53,0,26.58,10.07,26.58,26.65V254.64c0,16.07-10.13,26.31-26.12,26.41-10.25.06-20.5,0-30.75,0-2.6,0-5-.41-6.27-3.13-1.95-4.14.58-8,5.48-8.08,10-.08,20,0,30,0,11.68,0,16.41-4.71,16.41-16.31V235.73H99.87c0,7.68-.33,15.28.11,22.83.32,5.54,4.86,9.82,10.41,10.82a35.32,35.32,0,0,0,6.34.42q129.72,0,259.45,0c1.5,0,3,0,4.5.08,3,.24,4.49,2.11,4.74,4.89s-.93,5.19-4,5.92a19.47,19.47,0,0,1-4.46.34q-30,0-60,0h-4.9c2,14.93,4,29.47,6,44.44h13.82c7.12,0,14.25,0,21.37,0,3.05,0,5.8.29,6.95,3.72s-.49,5.72-3.19,7.55H204c-2.71-1.82-4.37-4.09-3.21-7.55s3.9-3.76,7-3.72c5.49.07,11,0,16.49,0H243c2-14.94,4-29.48,6-44.44h-4.84q-64.65,0-129.29,0C101.4,281,93,274.7,89.11,261.9a3.67,3.67,0,0,0-.61-.9V58.5a3.64,3.64,0,0,0,.57-.93c3.7-12.76,12.29-19.27,25.54-19.29,13.62,0,27.24,0,40.87,0,1.31,0,2.61-.12,4.13-.19,0-7.06-.11-13.68,0-20.29a5.47,5.47,0,0,1,8.22-4.87c2.8,1.44,3,4,3,6.76,0,15.63.06,31.25-.05,46.87,0,3.55,1.24,5,4.83,4.84,5-.19,10,0,15,0h20.11c0-10,0-19.59,0-29.18,0-11.81,6.48-18.24,18.34-18.25,6.84,0,13.68,0,20.64,0V-2.39c-6.28,0-12.26,0-18.24,0-5.22,0-9.79-1.83-12.37-6.41A21.93,21.93,0,0,1,216.65-18c-.38-5.92-.11-11.89-.11-18H174.36c-2.82,0-3.55,1.76-3.53,4.22,0,6.88.08,13.75,0,20.62-.07,4-2.13,6-5.67,6s-5.46-2-5.51-6.07c-.08-5.74.34-11.52-.11-17.24-.7-8.88,2.33-15.29,10.75-18.79Zm23.21,168.79v4.31q0,26.06,0,52.12c0,11.45-6.64,18.14-18.12,18.27-5.87.06-11.76-.19-17.62.12a10,10,0,0,0-5.8,2.37c-5.06,4.64-9.82,9.61-14.66,14.49-2,2-4.13,3.26-7,2s-3.61-3.51-3.54-6.39c.09-4.08,0-8.17,0-12.62h-4.48c-11.12,0-22.24.1-33.37,0s-17.62-6.87-17.63-17.94q0-30.37,0-60.74,0-18.83,18.91-18.86,30.93,0,61.86,0h4.4V82.59c-11.81,0-23.3,0-34.79,0-10.5,0-16-5.45-16-15.88,0-5.59,0-11.18,0-17-1.62-.07-2.83-.17-4.05-.18H114.68c-9.82,0-14.93,5.17-14.93,15.1V224.05h361.5V65c0-10.41-5-15.44-15.34-15.44H333.23V75.89H338q44.23,0,88.48,0c6.08,0,7.82,1.74,7.83,7.78q0,27.75,0,55.49c0,7.9-1.28,9.2-9,9.2H283.89c-1,0-2,0-3,0-3.75-.26-5.73-2.14-6-5.88-.15-2.49-.05-5-.06-7.49V121.54Zm24.3-86.38q-21.54,0-43.1,0c-5,0-6.67,1.67-6.67,6.76q0,30.74,0,61.47c0,5,1.78,6.75,6.77,6.76q43.11,0,86.21,0c4.92,0,6.72-1.85,6.73-6.85q0-30.74,0-61.47c0-5-1.74-6.65-6.82-6.66Q293.32,35.13,271.76,35.16ZM192.18,196.41c3-3,5.67-5.48,8-8.16a9.46,9.46,0,0,1,7.93-3.3c6.74.16,13.49.07,20.23.05,6.27,0,7.82-1.56,7.83-7.68V121.41h-8c-7.13,0-12.36-3.09-16-9.3a5.42,5.42,0,0,0-4-2.1c-21.48-.13-43-.1-64.45-.08-5.86,0-7.28,1.47-7.28,7.33q0,30,0,60c0,6.29,1.44,7.76,7.68,7.77,12.24,0,24.49,0,36.73,0C191.45,185,191.5,185,192.18,196.41Zm94.22-59.58H422.71V87.35H333c0,5.8.06,11.38,0,17-.13,10-7.06,17-17,17.07-7.25.08-14.49,0-21.74,0H286.4Zm14.33,144.44H260.26c-2,14.72-3.94,29.28-5.93,44h52.34C304.68,310.52,302.71,296,300.73,281.27ZM227.8-26.9a74.46,74.46,0,0,0,.14,9.7c.18,1.28,1.79,3.2,3,3.36,3.33.46,6.77.16,10.22.16Z" transform="translate(-88.5 47.25)"/><path class="cls-2" d="M354.7,190.36q36.15,0,72.31,0c2.91,0,5.51.29,6.71,3.5a5.49,5.49,0,0,1-3.94,7.54,9.81,9.81,0,0,1-2.23.22q-72.87,0-145.74,0a10.18,10.18,0,0,1-2.59-.27c-3-.8-4.26-2.91-4.05-5.89s1.86-4.91,5-5c4-.13,8-.06,12-.06Z" transform="translate(-88.5 47.25)"/><path class="cls-2" d="M354.75,165.42h70.81a29.68,29.68,0,0,1,4.11.16c2.95.42,4.32,2.47,4.42,5.2s-1.11,4.93-4,5.53a23.65,23.65,0,0,1-4.84.34q-70.61,0-141.22,0a24.37,24.37,0,0,1-4.84-.32c-2.91-.59-4.07-2.69-4-5.5s1.38-4.78,4.31-5.24a26.82,26.82,0,0,1,4.11-.17Z" transform="translate(-88.5 47.25)"/><path class="cls-2" d="M249.69,72.67c0-6,0-12,0-18s4-8.49,9.5-5.54Q275.67,58,292,67.08c5.31,3,5.34,8,.08,11Q275.61,87.22,259,96.17c-5.26,2.83-9.19.45-9.25-5.51S249.69,78.67,249.69,72.67Zm11.47,9.5L278.7,72.6,261.16,63Z" transform="translate(-88.5 47.25)"/><path d="M186.39,164.25c-9.37,0-18.74,0-28.1,0-4.2,0-6.54-2-6.62-5.47S154,153,158.39,153q27.92,0,55.83,0c4.32,0,6.95,2.24,6.92,5.67s-2.66,5.55-7,5.56C204.87,164.27,195.63,164.25,186.39,164.25Z" transform="translate(-88.5 47.25)"/><path d="M186.38,131.87c9.23,0,18.46,0,27.69,0,4.54,0,6.85,1.93,6.86,5.54s-2.34,5.68-6.81,5.69q-27.87,0-55.76,0c-4.37,0-6.79-2.21-6.69-5.81.1-3.45,2.4-5.38,6.64-5.4C167.67,131.84,177,131.87,186.38,131.87Z" transform="translate(-88.5 47.25)"/></svg>