<svg xmlns="http://www.w3.org/2000/svg" viewBox="0 0 23.97 24"><path d="M12,0A12,12,0,0,0,7.82,23.25a15.75,15.75,0,0,1,.1-4c.21-.87,1.32-5.57,1.32-5.57A4,4,0,0,1,8.9,12c0-1.56.91-2.72,2-2.72a1.41,1.41,0,0,1,1.43,1.39h0v.19a21.65,21.65,0,0,1-.93,3.73,1.63,1.63,0,0,0,1.17,2h0a1.62,1.62,0,0,0,.44,0c2,0,3.53-2.1,3.53-5.13a4.43,4.43,0,0,0-4.3-4.56H12a4.86,4.86,0,0,0-5.06,4.65h0v.21a4.35,4.35,0,0,0,.83,2.56.3.3,0,0,1,.08.32c-.08.36-.27,1.12-.31,1.27s-.16.25-.37.15c-1.41-.65-2.28-2.7-2.28-4.34,0-3.54,2.57-6.79,7.41-6.79,3.89,0,6.92,2.77,6.92,6.48,0,3.86-2.44,7-5.82,7a3,3,0,0,1-2.58-1.29s-.56,2.14-.69,2.66a21.52,21.52,0,0,1-1.76,3.65A12,12,0,1,0,12,0Z"/></svg>