<svg xmlns="http://www.w3.org/2000/svg" viewBox="0 0 38 24"><rect fill="#fff" stroke="#000" stroke-opacity=".07" x=".5" y=".5" width="37" height="23" rx="3"/><path fill="#097a44" d="M32,15.77l2-7.41,2,3.82Z"/><path fill="#f46f20" d="M30.76,15.79l2-7.4,2,3.82Z"/><path fill="#302f82" d="M20.67,8.2a2,2,0,0,0-1.56-.56h-3l-1.95,6.81h1.75l.66-2.31H17.8a3.43,3.43,0,0,0,1.9-.5A3,3,0,0,0,20.67,8.2Zm-3.21.94h1.12a.77.77,0,0,1,.55.15c.11.11.07.35,0,.53a1.09,1.09,0,0,1-.4.62,1.17,1.17,0,0,1-.7.2H17ZM8.94,8.39c-.13-.23-.51-.74-1.66-.71H4L2,14.43H3.73l.72-2.52H5.7c.47,0,.58.1.6.13s.09.15,0,.65c0,0-.25,1-.27,1.19v.55H7.82L7.94,14s-.18-.13-.17-.28.23-1,.23-1a2.1,2.1,0,0,0,.1-1.11.93.93,0,0,0-.26-.41A2.42,2.42,0,0,0,9.05,9.68,1.86,1.86,0,0,0,8.94,8.39Zm-2.16,2a6.66,6.66,0,0,1-1.92.09l.38-1.33a11.09,11.09,0,0,1,2,.09s.21.07.08.5A.77.77,0,0,1,6.78,10.43ZM12.18,12a2,2,0,0,1-.3.67,1,1,0,0,1-.87.43c-.45,0-.37-.55-.31-.72l.89-3.11H9.9l-.86,3a3,3,0,0,0-.15,1.32c.08.42.4.91,1.41.91a2.68,2.68,0,0,0,1.33-.39l-.08.3h1.62l1.47-5.13H13Zm12.93,1.1.63-2.18c.24-.83-.07-1.21-.37-1.39A2.72,2.72,0,0,0,24,9.2a2.87,2.87,0,0,0-2,.68,2.63,2.63,0,0,0-.78,1.36h1.61v-.11a1.15,1.15,0,0,1,.25-.37.86.86,0,0,1,.56-.17.9.9,0,0,1,.46.08v.18c0,.06,0,.15-.25.23s-.92.15-.92.15a4.19,4.19,0,0,0-1.25.32,2.14,2.14,0,0,0-1.15,1.39,1.25,1.25,0,0,0,.17,1.22,1.39,1.39,0,0,0,1.12.44,2.93,2.93,0,0,0,1.47-.48v.33H25l.13-.48L25,13.9A1.49,1.49,0,0,1,25.11,13.1ZM22.19,13a.62.62,0,0,1,.34-.4,1.85,1.85,0,0,1,.57-.15l.59-.12v.07a1.23,1.23,0,0,1-.51.75,1.54,1.54,0,0,1-.72.21.33.33,0,0,1-.25-.08A.54.54,0,0,1,22.19,13ZM30.1,9.32l-1.69,3v-3h-1.8L27,14.45s-.32.52-.59.52h-.68l-.39,1.37h.83A2,2,0,0,0,27.46,16a9.25,9.25,0,0,0,1.27-1.71l3.17-5Z"/></svg>