<svg xmlns="http://www.w3.org/2000/svg" viewBox="0 0 408.15 408.56"><path d="M380.23,401.5c-18.76-18.76-94.44-94.63-95.56-95.94-46.37,36.74-98.08,49.18-155.23,34.83C87,329.72,53.59,305.12,29.24,268.93-18.41,198.1-8,100.21,61.64,41a171.85,171.85,0,0,1,222-.76c36.44,30.57,57.52,69.91,61.7,117.46,4.15,47.31-9.47,89.49-39.66,126.41,1.15,1.21,78.51,78.81,95.81,96.11S399,420.27,380.23,401.5ZM30.42,173.18c.31,78.46,63.12,142.64,142.74,142.58a142.64,142.64,0,1,0-.08-285.28C94.42,30.42,30.37,94.63,30.42,173.18Z"/><path d="M61.66,168.27c.09-28.83,9.73-53.88,30-74.66a14.76,14.76,0,0,1,20.86-.83h0c6.27,5.61,7.09,14.7,1.26,21.09-9.14,10-16.74,21-19.25,34.38-1.68,8.94-1.82,18.2-2.19,27.33-.43,10.75-10.46,17.94-20.36,14.12a14.22,14.22,0,0,1-9.57-12.22C62,174.46,61.89,171.39,61.66,168.27Z"/></svg>