<svg xmlns="http://www.w3.org/2000/svg" viewBox="0 0 384.02 384.01"><path d="M0,193.48c0-13.46,16.55-27,33.32-27H196c-.56-1.4-16.27-28.47-16.81-72.2V44.39c0-11,6.2-17.33,17.08-18.19C252.52,26.2,270.91,0,281.69,0s26.8,26,85.67,26.24C377.52,27,384,33.58,384,43.73c0,18.37.11,36.74-.15,55.1A140.41,140.41,0,0,1,382,118.57c-5.6,35.57-21.4,65.94-46.94,91.31A8.16,8.16,0,0,0,333,215c-.21,8.49-.1,135.35-.1,135.35,0,15-12.84,33.68-27.6,33.68H27.75C14.89,384,0,366.75,0,357ZM320.06,223c-1.65,1.1-21.65,13.14-30.79,18.23a15.51,15.51,0,0,1-14.46.39,160.68,160.68,0,0,1-69.11-59.1c-1.62-2.47-3.23-3.43-6.2-3.43q-82.5.15-165,.07c-14.13,0-21.73,7.6-21.73,21.75V349.44c0,14.09,7.73,21.79,21.73,21.79H298.1c14.32,0,21.92-7.63,21.92-22ZM193,110.89c7,53.48,35.12,92.35,82.86,117.27,4.11,2.15,7.57,2.34,11.48-.08,3.28-2,78.28-34.87,83-122.21,1-31.87.64-41.45.85-62.19,0-3.12-1.58-4.43-4.58-4.72-6.83-.66-39,.49-81.73-24.73-2.42-1.75-4.37-1.48-6.8.06-32.53,20-58.22,22.82-80.24,24.69-5.17.42-5.87,1.09-5.88,6.42C192,45.4,191.42,98.57,193,110.89Z"/><path d="M77.48,198.46C88.19,199,95.8,207,96,217.63c.07,4.24.08,8.49,0,12.74-.2,10.56-8,18.79-18.64,19.14-8.86.29-17.73.27-26.59,0-10.66-.32-18.39-8.39-18.65-19.06-.11-4.5-.13-9,0-13.49a18.65,18.65,0,0,1,18-18.46C54.73,198.24,73,198.28,77.48,198.46Zm-26,12.77c-4.2.14-6.39,2.4-6.5,6.6-.11,4-.09,8,0,12,.1,4.34,2.35,6.84,6.66,6.92q12.53.23,25.06,0c4.07-.08,6.44-2.64,6.57-6.69s.12-8,0-12c-.11-4.35-2.4-6.69-6.73-6.83-4-.08-20.74-.11-25.1,0Z"/><path d="M288,339.12v-24.9c0-9.32,12.69-9.1,12.69-.27s.12,20.88,0,31.5c0,4-2.52,6.4-6.72,6.42-12.49.09-27,0-37.48,0-9.12,0-9.51-12.72,0-12.72C267.68,339.15,288,339.12,288,339.12Z"/><path d="M82.79,307.23c9.64,0,9.79,12.59.54,12.59H63.85c-8.67,0-9.12-12.64.2-12.64S73.15,307.23,82.79,307.23Z"/><path d="M81.62,333c9.64,0,9.79,12.59.54,12.59H38.68c-8.67,0-9.12-12.64.2-12.64S72,333,81.62,333Z"/><path d="M62.62,268.88c9.64,0,9.79,12.59.54,12.59H38.68c-8.67,0-9.12-12.64.2-12.64S53,268.88,62.62,268.88Z"/><path d="M113.79,268.88c9.64,0,9.79,12.59.54,12.59H89.85c-8.67,0-9.13-12.64.2-12.64S104.15,268.88,113.79,268.88Z"/><path d="M165,268.88c9.64,0,9.79,12.59.54,12.59H141.09c-8.67,0-9.12-12.64.2-12.64S155.39,268.88,165,268.88Z"/><path d="M216.26,268.88c9.64,0,9.79,12.59.54,12.59H192.32c-8.67,0-9.12-12.64.2-12.64S206.62,268.88,216.26,268.88Z"/><path d="M267.49,269c9.64,0,9.79,12.59.54,12.59H243.55c-8.67,0-9.12-12.64.2-12.64S257.85,269,267.49,269Z"/><path d="M204.78,64.33c0-8.84,4.24-13.63,13.05-14.78,31.84-2.71,54.71-16.78,57.5-18.16a12.83,12.83,0,0,1,12.22-.12,181,181,0,0,0,59,18.5c7.38,1,11.92,5.75,11.83,12.72-.22,16.84.72,33.9-1.61,50.48-6.2,44.33-29.66,77.62-68.4,100.09a12.81,12.81,0,0,1-13.85-.2c-44.21-26.52-67.77-65.35-69.67-117C204.69,91.37,204.78,64.33,204.78,64.33Zm13.37-.92c0,13.74-1.09,28,.2,41.93,3.9,42.11,25.13,73.64,61,95.5a5,5,0,0,0,4.29.08c34-20.27,54.77-49.95,60.32-89.16,2.18-15.35,1.15-31.14,1.7-46.73.09-2.57-1.34-2.69-3.22-3a180.29,180.29,0,0,1-58.2-18.27c-2-1-3.56-.72-5.54.15C270.7,47.44,245.92,60.29,218.15,63.41Z"/><path d="M300.76,95.62c9.67,2.24,12.79,6.15,12.8,15.71v34.84c0,8.63-5.07,13.68-13.77,13.73q-18.17.09-36.33,0c-8.85,0-13.76-5.1-13.79-14.07V111.36c0-9.64,3.14-13.56,12.8-15.71V89a19.14,19.14,0,0,1,38.27,0C300.81,91.23,300.76,93.47,300.76,95.62Zm-.18,51.29v-38H262.64v38Zm-12.51-51.1c-.41-4.5,0-11-6.42-11s-6.1,7.11-6.39,11Z"/><path d="M288,127.86a6.35,6.35,0,0,1-6.27,6.43h-.09a6.28,6.28,0,0,1-6.36-6,6.47,6.47,0,0,1,6.13-6.69A6.56,6.56,0,0,1,288,127.86Z"/></svg>