<svg id="Layer_1" data-name="Layer 1" xmlns="http://www.w3.org/2000/svg" viewBox="0 0 510.82 510.05"><defs><style>.cls-1{fill:#777c87;}.cls-2{fill:#1c1e28;}</style></defs><title>Social Media Marketing</title><path class="cls-1" d="M454.14-111.25c4.59,1.34,9.26,2.42,13.74,4,37.94,13.79,62,40.41,67.52,80.34C542.34,23,517,61.4,476.07,80c-1.2.54-2.4,1.06-4,1.74,12.64,40.92,12.7,81.81-.09,123.06,27,11,46.52,29.71,57.65,56.75,8.12,19.73,8.67,40.3,4.15,60.71-8.69,39.32-44,70.37-82.92,75.64-42.17,5.72-88.93-16.18-108.21-64-40.74,12.53-81.62,12.65-122.36,0-3.21,6-6,12.06-9.48,17.68-32.12,52.28-105,63-150.84,22.18-4.9-4.37-5.42-9.34-1.33-12.7,3.19-2.62,7-2.2,11.18,1.45a86.29,86.29,0,0,0,40.25,19.73c48.1,9.84,96.5-26.16,100.62-74.94,3.89-46.07-25.84-84.8-71.3-92.87-45.74-8.12-91.8,26-97.65,72.15a86.59,86.59,0,0,0,6.78,47.21c2.37,5.3,1.1,9.5-3.18,11.42s-8-.06-10.54-5.43c-.14-.3-.29-.6-.42-.9-16.54-37-8.33-81.62,20.25-110.36a102.29,102.29,0,0,1,32.77-22.27c1-.45,2.07-1,3.31-1.54-12.77-41-12.84-81.9-.35-122-9-5.6-18.47-10.09-26.29-16.56C32.4,39.87,19.49,5.9,28.78-34.34,38.2-75.12,65-100,105.59-110.17c1.09-.27,2.14-.71,3.2-1.08h34.94a28.13,28.13,0,0,0,3.15,1.12c28.64,6.71,50.66,22.55,65.73,47.85,2.78,4.67,5,9.69,7.53,14.73a201.8,201.8,0,0,1,122.25-.11c.47-.36.66-.43.72-.56.76-1.66,1.47-3.34,2.25-5C357.53-79.17,377-97.11,404-106.78c5-1.77,10.11-3,15.17-4.47ZM224.32-33.11c.21,2,.29,3.29.49,4.59,4.43,28-1.95,53.44-18.52,76.36-4.64,6.4-9,7.85-13.12,4.61-3.87-3-3.53-7.3,1.08-13.48a85.05,85.05,0,0,0,5.39-93.92,84.88,84.88,0,0,0-84.39-41.54c-39.66,5.25-68.95,35.41-74,76.18C36.82,15.89,59.38,53.11,94.6,67c24.25,9.53,48.13,8,71.37-3.8,5.67-2.87,9.81-2.07,12,2.26s.38,8.11-5.28,11.07c-11.93,6.23-24.54,10.33-38,11-9.73.46-19.49.09-30.06.09-11.55,36.86-11.54,74.76.54,112.93,35.44-6,66.37,2.3,91.61,27.54s33.5,56.47,27.58,91.28c36.8,12.71,83,11.43,114.05-.24-5.95-34.78,2.34-65.71,27.51-91,25.31-25.4,56.42-33.63,91.33-27.71,12.67-34.15,12.11-82.38,0-114.23-34.76,5.92-65.72-2.26-91-27.41C340.78,33.43,332.48,2.36,338.5-33.12,300.38-45.06,262.59-45.09,224.32-33.11Zm297.58,21c0-47-38.35-85.13-85.52-85.12-46.72,0-85,38.37-84.91,85.19S390.07,73.28,437,73.13C483.77,73,521.91,34.68,521.9-12.15Zm-85.26,396c46.79,0,85.14-38.16,85.27-84.88.13-46.95-38.25-85.49-85.17-85.52s-85.36,38.49-85.27,85.43C351.56,345.57,389.88,383.8,436.64,383.82Z" transform="translate(-25.83 111.25)"/><path class="cls-2" d="M110.76,258a38.88,38.88,0,0,1,5.13,2.22q23.74,13.61,47.41,27.36c9.53,5.55,9.53,14.52,0,20.06Q139.67,321.44,115.89,335c-9.27,5.29-17,.71-17.07-10q0-27.9,0-55.81C98.86,262.3,103.18,257.84,110.76,258Zm39.94,39.61-36.62-21.17v42.35Z" transform="translate(-25.83 111.25)"/><path class="cls-2" d="M249.27,168.66c.6,11.94,1.18,23.21,1.74,34.48.22,4.49.51,9,.61,13.46.12,5.55-2.54,8.76-7.14,8.87s-7.48-3-7.78-8.49c-.77-14.11-1.44-28.23-2.15-42.34-.09-1.79-.19-3.58-.31-5.78-2.76-.14-5.21-.22-7.65-.4-8.12-.6-14-6.46-14.08-14.6q-.24-20,0-39.91c.11-8.47,6.48-14.51,15.1-14.6,9-.11,18.11-1.08,26.91.19,17,2.47,31.81-3.67,46.75-9.82,6.59-2.71,12.92-6.06,19.33-9.2,4.11-2,8.24-3.67,8.22-9.77,0-1.73,4-4.73,6.34-4.86s5.24,2.21,7,4.25c1.16,1.36,1,4.1,1,6.23q.07,57.62,0,115.24a19.52,19.52,0,0,1-.56,5.41c-1.07,3.66-3.76,5.44-7.53,5.16s-6.6-2.48-6.58-6.21c0-4.18-2.23-5.79-5.36-7.3-3.73-1.81-7.42-3.73-11-5.75-4.42-2.46-5.79-6.55-3.68-10.45,2-3.69,6-4.89,10.3-2.94,3,1.33,5.85,2.87,9.25,4.54v-79l-57.52,22c0,10.2-.08,21.65.15,33.09,0,1,1.89,2.43,3.17,2.85,4.87,1.62,9.9,2.8,14.8,4.37,5.08,1.63,7.26,5.56,5.8,9.92-1.32,4-5.35,5.68-10.25,4.35a5.31,5.31,0,0,1-.95-.32C272.44,165.86,261.18,168.79,249.27,168.66Zm-21.52-54.17v38.64h27.34V114.49Z" transform="translate(-25.83 111.25)"/><path class="cls-2" d="M88.2,12.28C79.34,5.05,73.53-4,71.53-15.25a58.35,58.35,0,0,1,3.14-31.81c2.74-7,9.13-8.13,13.85-2.24,5.89,7.37,13,12.75,22.16,15.25,1.42.39,2.88.61,4.54,1,.5-1.64.94-3,1.36-4.42,5.21-17.28,24.32-25.36,40-16.54,3.52,2,6,1.75,9-.3,1.08-.76,2.23-1.9,3.4-2,2.8-.17,6.38-.81,8.22.6s3,5.28,2.53,7.7a30.07,30.07,0,0,1-4.93,11.8c-3.08,4.22-3.51,8.69-4,13.49-2.44,26.26-14.68,46-39.44,56.44-21,8.83-41.58,6.1-61.43-4.31-3.55-1.86-5-4.84-4.09-8.71s3.62-5.28,7.31-5.58c4.91-.39,9.8-.93,14.7-1.4Zm16,10.39.11,1.07c3.58-.22,7.24-.09,10.75-.73,25.19-4.55,41.79-25.12,41.05-53.75,0-1.65.18-3.44-.37-4.92-1.35-3.62-9.3-7.28-14.12-6.79a12.48,12.48,0,0,0-10.91,10.07,35.75,35.75,0,0,0-.27,5c-.18,7.53-2.83,10.14-10.43,9.88A56.09,56.09,0,0,1,89.33-27.81c-1-.68-2-1.23-3.37-2C84.42-15.78,89-5.1,100.32,2.47c2.33,1.56,4.94,2.7,7.37,4.13,5.68,3.36,6,9.48.72,13.36C107.07,20.94,105.63,21.77,104.24,22.67Z" transform="translate(-25.83 111.25)"/><path class="cls-2" d="M437.62-6.27V4.11c0,10.63,0,21.27,0,31.91,0,6.48-2.54,9.71-7.38,9.75s-7.53-3.22-7.56-9.59c-.06-12.13,0-24.27,0-36.4V-6.28c-3.63,0-6.74.09-9.84,0-5-.17-8.26-3.16-8.22-7.45s3.34-7.26,8.33-7.45c3-.12,5.93,0,9.73,0,0-6.58.05-12.81,0-19-.09-8.93,2.69-16.63,9.42-22.72,8.75-7.91,19.35-8,30.07-6.76,3.9.46,6,3.74,5.63,7.66s-2.69,6.46-6.77,6.75c-3.31.23-6.65,0-10,.14-7.76.36-12.79,5.06-13.25,12.77-.34,5.63-.13,11.3-.15,17,0,1.14.11,2.29.22,4.24,3.38,0,6.62-.06,9.85,0,5.46.12,8.8,2.91,8.91,7.34.12,4.7-3.18,7.5-9,7.6C444.47-6.22,441.36-6.27,437.62-6.27Z" transform="translate(-25.83 111.25)"/><path class="cls-2" d="M436.69,245.65c10,0,19.94-.05,29.91,0,15,.09,23.15,8.15,23.18,23.09q.08,29.91,0,59.82c0,14.87-8.32,23.15-23.17,23.18q-29.91,0-59.83,0c-14.85,0-23.12-8.28-23.16-23.17q-.08-29.91,0-59.83c0-15,8.1-23,23.16-23.09C416.75,245.6,426.72,245.65,436.69,245.65Zm38.13,53.25c0-10,0-20,0-29.94,0-6.71-1.57-8.31-8.2-8.33q-29.94-.06-59.88,0c-6.65,0-8.13,1.57-8.14,8.37q0,29.69,0,59.38c0,6.64,1.71,8.38,8.18,8.39q29.94,0,59.88,0c6.43,0,8.13-1.79,8.16-8.43C474.85,318.53,474.82,308.72,474.82,298.9Z" transform="translate(-25.83 111.25)"/><path class="cls-2" d="M436.62,321.16a22.56,22.56,0,1,1,22.6-22.32A22.35,22.35,0,0,1,436.62,321.16Zm-.07-15a7.42,7.42,0,0,0,7.68-7.39,7.55,7.55,0,1,0-15.09-.28A7.43,7.43,0,0,0,436.55,306.16Z" transform="translate(-25.83 111.25)"/></svg>