<svg id="Layer_1" data-name="Layer 1" xmlns="http://www.w3.org/2000/svg" viewBox="0 0 383.81 384"><defs><style>.cls-1{fill:#1c1e28;}.cls-2{fill:#777c87;}</style></defs><title>Start-ups</title><path class="cls-1" d="M268.13,219.15s-2.54-1.09-3.29-1.48c-8.87-4.67-13.12-13.12-11.58-23q1.06-6.85,2.15-13.69c1.76-11.19,3.53-22.38,5.31-33.67-2.92-.85-4.5-.21-5.84,2.49-9.33,18.78-18.85,37.45-28.31,56.16-8.9,17.6-17.67,35.26-26.72,52.77A22.76,22.76,0,0,1,170,269.06c-10.84-4.9-15.73-17-11.53-28.65,1.31-3.64,2.72-7.24,4.17-10.83,2-4.84,5.82-6.81,10-5.21s5.66,5.73,3.89,10.64c-1.39,3.87-3,7.66-4.26,11.59-1.49,4.78,1.73,9.11,6.73,9.41,4.26.24,6.57-2.21,8.33-5.73q13.86-27.6,27.84-55.14,14.61-28.9,29.2-57.81c1.42-2.84,3.2-5.26,6.61-5.33,6.49-.14,13-.18,19.49,0a6.76,6.76,0,0,1,6.39,6.66,28.4,28.4,0,0,1-.51,5.58c-2.79,17.63-5.64,35.25-8.43,52.88a6.13,6.13,0,0,0,3.66,7.08,5.75,5.75,0,0,0,7.41-1.67,12.53,12.53,0,0,0,1.95-4.39q8.07-28.83,16-57.7c4.15-15.16-5-27.06-20.79-27.09-16.12,0-32.24.13-48.36-.1-3.69-.05-5.37.95-6.69,4.51-7.3,19.77-14.9,39.44-22.45,59.12-1.87,4.89-5.76,6.88-10,5.32s-5.85-5.75-4.07-10.55c2.52-6.78,5.16-13.52,7.74-20.28.39-1,.72-2.08,1.27-3.68a13.06,13.06,0,0,0-1.31.82q-8.76,8.74-17.51,17.49c-8.8,8.77-18.5,8.81-27.22.1q-24.94-24.91-49.87-49.81c-3.82-3.79-7.51-7.6-9.29-12.83V96.75C90,91.67,93.28,87.86,97,84.22c11.94-11.76,23.71-23.67,35.57-35.5,8.59-8.57,18.34-8.52,27,.1,4.59,4.57,9.15,9.17,14,14,3.8-6.57,9.78-9,16.24-11.1A98.9,98.9,0,0,0,235.5,21,41.19,41.19,0,0,1,255.12,7.82c.77-.23,1.52-.53,2.48-.87-.84-1.5-1.51-2.68-2.15-3.88a34.22,34.22,0,0,1,19.07-48.43c2-.68,4-1.26,6-1.89h9.75c1.91.53,3.83,1,5.72,1.61a34.09,34.09,0,0,1,23.76,31,34,34,0,0,1-20.35,33l-3.07,1.39c7.22,8.83,22.47,12.07,33.68,6.76a70.13,70.13,0,0,0,12.51-8.12c9.75-7.56,22.42-6.71,29.84,2.28s6.25,21.74-3.2,29.73C350.3,66.24,328.55,74,303.85,72.82c-2.91-.14-4.11.63-5,3.39-2.58,8.05-5.51,16-8.36,24.16.8.46,1.4.85,2,1.15,16.37,8,24,24.61,19.19,42.2-3.81,13.94-7.75,28.86-12,43.91Zm-40.53-121c1.54.08,2.64.19,3.74.19,13.49,0,27-.08,40.49.08,2.79,0,3.87-1,4.71-3.47,3.58-10.65,7.32-21.24,11.08-31.82,1.77-5,4.64-6.61,9.8-5.9a77,77,0,0,0,27.19-1,75.57,75.57,0,0,0,34.45-17.23,8.76,8.76,0,0,0,2.84-6c-.15-4.66-5.44-6.06-9.71-3.23-6,4-11.82,8.75-18.46,11.19-18.73,6.88-35.36,2.17-49.48-11.63-14.93-14.59-36.4-8.83-41.74,11.33-3.43,12.91-6.71,25.85-10.06,38.78Zm-49.87,44.06c-5.59-5.6-10.83-10.93-16.21-16.13a3.37,3.37,0,0,0-3-.38c-13.16,5.4-30.34-10.48-25-25,.3-.8.41-2.18-.05-2.66-4.72-4.9-9.58-9.66-14.54-14.61-4.88,4.9-9.32,9.46-13.87,13.91-1.84,1.8-1.87,3.26,0,5,2.81,2.66,5.49,5.46,8.23,8.2q22.41,22.41,44.81,44.81c1.58,1.59,3,3.16,5.29.92C168.1,151.69,172.83,147.06,177.73,142.25Zm-33.3-55.07c.5-.43,1-.82,1.43-1.25,5.37-5.09,8.66-5,14,.29q6,6,11.91,11.92c7.1,7.12,7.16,9.06.59,16.43-.14.16-.16.43,0-.12L188.91,131l12.3-12.5c3.18-3.23,3.19-3.65-.06-6.91q-13.49-13.5-27-27Q161.44,71.9,148.74,59.19c-1.49-1.5-3-2.43-4.78-.62-4.77,4.72-9.51,9.48-14.07,14Zm141-81.05a19,19,0,0,0,19.36-19.08A19.19,19.19,0,0,0,285.6-32.24a19.37,19.37,0,0,0-19.24,19A19.23,19.23,0,0,0,285.45,6.13Zm-61.24,45.2A125.87,125.87,0,0,1,190,67.57a5.62,5.62,0,0,0-3.88,7.11,5.77,5.77,0,0,0,7.52,3.77c8.26-3.15,16.4-6.6,24.55-10a4.16,4.16,0,0,0,2.15-2.31C221.68,61.56,222.77,57,224.21,51.33ZM215,86.84l-12.09,4.62,8.53,9.05C212.6,96,213.69,91.82,215,86.84ZM152,100c-1.53,2.69-3.5,4.93-3.92,7.43-.19,1.14,3,4.18,4.1,3.92,2.45-.57,4.55-2.67,7.13-4.36Z" transform="translate(-88.5 47.25)"/><path class="cls-2" d="M330.84,155.8c5-4.94,8.55-4.94,13.46,0,8.32,8.29,16.6,16.61,24.66,24.68l34.7-34.69c-2.32-2.11-5.06-4.58-7.8-7.05-2.54-2.29-3.66-5.11-2.61-8.43s3.45-4.62,6.67-5.26c20.8-4.13,41.58-8.41,62.4-12.51,7.07-1.4,11.11,2.86,9.71,9.85q-6.18,30.83-12.34,61.67c-.67,3.37-1.95,6.22-5.58,7.29s-6.28-.46-8.67-3c-3-3.17-6.07-6.26-9.34-9.63-1.26,1.2-2.25,2.11-3.2,3q-28.11,28.11-56.21,56.21c-5.54,5.53-8.95,5.52-14.52,0l-24.48-24.51c-1.21,1.14-2.22,2-3.17,3-11,11-22.07,22.12-33.18,33.1a12.08,12.08,0,0,1-4.92,3.15,6.73,6.73,0,0,1-8-3.37,6.91,6.91,0,0,1,1.07-8.94c4.24-4.42,8.62-8.71,12.95-13q14.18-14.19,28.37-28.36c5-5,8.61-5,13.69.09,8.2,8.22,16.36,16.49,24.8,25,1.31-1.25,2.38-2.23,3.4-3.26l55.95-55.94c5.63-5.63,8.92-5.65,14.48-.07,1.22,1.22,2.31,2.58,4.14,4.66,2.82-14,5.41-26.8,8.13-40.25L416.28,137l-.86,1.4a17.71,17.71,0,0,1,3.52,2.2c3.92,4,3.9,8.07-.08,12.11-7.2,7.29-14.47,14.51-21.72,21.76-7.07,7.07-14.11,14.16-21.22,21.19-4.58,4.53-8.4,4.51-12.93,0-8.37-8.38-16.71-16.8-24.83-25L200.88,308,211.52,318c.55-.52,1.54-1.4,2.48-2.33q16.31-16.31,32.62-32.6c3-3,6.45-3.47,9.52-1.65a7.24,7.24,0,0,1,3.34,8.39,9.58,9.58,0,0,1-2.29,3.77Q237,314,216.64,334.19a25.78,25.78,0,0,1-3.64,2.56h-4.5c-2.18-2-4.43-3.94-6.54-6-5.34-5.26-10.62-10.59-15.91-15.89-5.48-5.49-5.48-8.74,0-14.24C212.13,274.53,321.63,165,330.84,155.8Z" transform="translate(-88.5 47.25)"/><path class="cls-2" d="M273.79,259.43a7.4,7.4,0,0,1,7.42,7.35,7.48,7.48,0,1,1-14.95-.1A7.38,7.38,0,0,1,273.79,259.43Z" transform="translate(-88.5 47.25)"/><path class="cls-1" d="M188.16,203.46a7.56,7.56,0,0,1-7.54,7.31,7.4,7.4,0,0,1-7.39-7.75,7.56,7.56,0,0,1,7.64-7.18A7.7,7.7,0,0,1,188.16,203.46Z" transform="translate(-88.5 47.25)"/></svg>