<svg id="Layer_1" data-name="Layer 1" xmlns="http://www.w3.org/2000/svg" viewBox="0 0 384.03 364.43"><defs><style>.cls-1{fill:#777c87;}.cls-2{fill:#1c1e28;}</style></defs><title>Strategic Planning</title><path class="cls-1" d="M88.5,277.5c4.68-12.57,15.4-11.44,26.21-10.9V132.85c0-1.25-.07-2.5,0-3.74.28-3.18,2-5.06,5.22-5.35,3-.26,5.44,1.86,5.87,5.08a27.44,27.44,0,0,1,.09,3.74V266.21H434.85V87.62H125.93c0,3.56,0,7.12,0,10.69a25.69,25.69,0,0,1-.14,4.48c-.59,3.09-2.56,4.93-5.76,4.77s-5.14-2.06-5.25-5.26c-.16-4.73,0-9.47,0-14.85-10.4.09-21.48,1.65-26.24-11V38.25c3.17-8.61,9.49-11.44,18.42-11.36,33.5.28,67,.15,100.5,0a11.74,11.74,0,0,0,6.41-2.14c12.83-9.34,25.43-19,38.29-28.28,2.89-2.08,3.82-4.1,3.63-7.64-.75-13.51,8.59-24.28,22.17-26.07,12.13-1.61,24.12,7,26.87,19.46.63,2.87.16,6,.5,8.93A5.68,5.68,0,0,0,307-5.19q20.64,15.57,41.5,30.87a8.08,8.08,0,0,0,4.46,1.26c12.62.1,25.25.06,37.87.06a21,21,0,0,1,3.37.08c3.11.5,5,2.3,5,5.54s-1.92,5-5,5.52a26.9,26.9,0,0,1-4.12.08H106.51c-6.64,0-6.79.15-6.79,6.67,0,8.87.08,17.75,0,26.62,0,3.41,1.48,4.82,4.73,4.74.87,0,1.75,0,2.62,0H453.9c.75,0,1.5,0,2.25,0,4.2-.1,5.11-1,5.12-5,0-9.38-.07-18.75.05-28.13,0-3.54-1.37-4.92-4.9-4.89-11.13.11-22.25,0-33.38,0-.87,0-1.75,0-2.62,0-3.74-.18-6.16-2.47-6.08-5.73.07-3.11,2.4-5.31,6-5.45,2.49-.1,5,0,7.5,0,9.87,0,19.75-.05,29.62,0,9,.06,15,6.13,15.06,15.12q.11,15.2,0,30.38c-.06,8.31-5.53,14.18-13.85,14.76-3.95.27-7.94,0-12.12,0V266.44h9.89c10.21.05,16.07,5.87,16.1,16q0,14.43,0,28.87c0,9.43-6,15.54-15.45,15.55q-113.62,0-227.25,0c-4.72,0-7.38-2-7.29-5.63a5.19,5.19,0,0,1,5-5.51,35.37,35.37,0,0,1,4.12-.07H454.75c6.17,0,6.53-.36,6.53-6.61q0-13.11,0-26.24c0-4.34-.89-5.18-5.3-5.24H106.86c-7,0-7.14.18-7.14,7.16q0,12.75,0,25.5c0,4.7.72,5.44,5.43,5.44h93c5.89,0,8.53,1.64,8.67,5.37s-2.75,5.84-8.67,5.85c-30.38,0-60.75-.18-91.12.1-8.89.08-15.25-2.75-18.54-11.26ZM230.06,26.78H331L299.81,3.57c-5.31,5.89-11.66,9-19.3,9s-14.13-3.31-19.36-9ZM294.2-12.31a13.74,13.74,0,0,0-13.74-13.86A13.73,13.73,0,0,0,266.8-12.61,13.73,13.73,0,0,0,280.35,1.44,13.73,13.73,0,0,0,294.2-12.31Z" transform="translate(-88.5 37.42)"/><path class="cls-2" d="M304.68,156.65c-8.26,8.3-15.91,16-23.58,23.69Q266.27,195.19,251.4,210c-8.61,8.56-18.08,8.52-26.61,0-5.73-5.75-11.45-11.51-18-18.1a23.47,23.47,0,0,1-2.45,3.62Q185.17,214.79,165.91,234c-5,5-11.1,6.75-17.86,4.41s-10.38-7.23-11.19-14.17a15.71,15.71,0,0,1,4.68-13.34c18-18.06,36-36.15,54.11-54.07,6.79-6.7,16.66-6.53,23.6.19,6.27,6.08,12.28,12.44,18.17,18.44,14.41-14.4,28.5-28.5,43-43-1.95-1.8-4.32-3.83-6.51-6-3.1-3.12-4.1-6.86-2.34-11s5-6,9.49-6c12.5,0,25-.07,37.49,0,6.24.06,10.08,3.84,10.14,10.1.13,12.63.05,25.25,0,37.88a9.24,9.24,0,0,1-6,9.12c-4.12,1.75-7.87.83-11-2.28C309.42,162,307.3,159.49,304.68,156.65ZM284.8,120.76c.09.53.07.68.14.74,2.17,2.24,4.36,4.46,6.53,6.7,3.61,3.71,3.7,6.34.1,10q-24.21,24.28-48.49,48.49c-3.57,3.56-6.37,3.53-10,0-6.75-6.69-13.43-13.43-20.16-20.12-4.45-4.43-6.83-4.42-11.3.05q-25.18,25.17-50.34,50.35a19,19,0,0,0-2.28,2.48c-1.66,2.4-1.25,4.79.53,6.88s4.31,2.44,6.74,1a18.72,18.72,0,0,0,3.4-2.9q21.22-21.18,42.41-42.38c4-4,6.47-3.95,10.48,0,6.56,6.51,13.08,13.07,19.62,19.6,4.77,4.76,7,4.75,11.85-.06l55.12-55.11c4-3.95,6.49-3.93,10.46,0,2.41,2.37,4.83,4.72,7.67,7.5V120.76Z" transform="translate(-88.5 37.42)"/><path class="cls-2" d="M351.63,215.94a30.08,30.08,0,1,1,29.92,30.12A29.94,29.94,0,0,1,351.63,215.94Zm30.05-18.81a18.86,18.86,0,1,0,18.88,18.66A18.69,18.69,0,0,0,381.68,197.13Z" transform="translate(-88.5 37.42)"/><path class="cls-2" d="M411.78,139.89a30.08,30.08,0,1,1-29.91-30.26A30.19,30.19,0,0,1,411.78,139.89Zm-11.22-.24a18.87,18.87,0,1,0-18.92,19.12A18.94,18.94,0,0,0,400.56,139.65Z" transform="translate(-88.5 37.42)"/><path class="cls-2" d="M211.88,237.61c8.24,0,16.47,0,24.7,0,4.47,0,7,2,7.1,5.41s-2.6,5.76-7.2,5.77q-24.89,0-49.77,0c-4.43,0-7-2.08-7.06-5.5-.09-3.62,2.44-5.66,7.16-5.68C195.17,237.59,203.53,237.61,211.88,237.61Z" transform="translate(-88.5 37.42)"/><path class="cls-2" d="M211.89,120.81c-8.48,0-17,0-25.45,0-4.38,0-6.88-2.15-6.79-5.68.07-3.31,2.58-5.49,6.68-5.5q25.26-.08,50.52,0c4.29,0,6.91,2.34,6.83,5.77s-2.61,5.4-6.72,5.42C228.61,120.83,220.25,120.81,211.89,120.81Z" transform="translate(-88.5 37.42)"/><path class="cls-2" d="M211.49,142.69c-8.23,0-16.46,0-24.69,0-4.73,0-7.24-2.07-7.15-5.7.1-3.43,2.62-5.46,7.08-5.46,16.71,0,33.42,0,50.14,0,3.17,0,6.1,1,6.45,4.32.2,1.92-1.22,4.3-2.55,6-.69.87-2.76.86-4.21.87C228.21,142.72,219.85,142.69,211.49,142.69Z" transform="translate(-88.5 37.42)"/><path class="cls-2" d="M275.05,237.64c2.87,0,5.74-.1,8.61,0,3.3.14,5.55,2.33,5.69,5.28a5.5,5.5,0,0,1-5.26,5.73c-6.1.22-12.22.23-18.32,0a5.19,5.19,0,0,1-5-5.84c.29-3.18,2.12-5,5.34-5.14,3-.12,6,0,9,0Z" transform="translate(-88.5 37.42)"/></svg>