<svg xmlns="http://www.w3.org/2000/svg" viewBox="0 0 383.97 320.88"><path d="M2.11,64.87a50,50,0,0,1,12.6-22.26c11.74-12,23.52-23.86,35.5-35.56C60.77-3.28,76.3-2.12,85.34,9.59Q104,33.75,122.42,58.15c7.52,10,6.66,21.68-2.09,30.57-6.49,6.59-13.11,13-19.59,19.65-4.14,4.22-4.55,8.79-1.3,13.56,21.87,32.16,47.33,61,78.61,84.36,6.8,5.09,13.68,10.07,20.61,15,5.1,3.63,9.67,3.26,14.16-1.14,6.51-6.39,12.9-12.91,19.38-19.33,9-8.93,20.65-9.75,30.85-2.09,9,6.74,29.74,22.46,29.82,23.62.14,2.13-.09,4.85-1.33,6.38-2,2.51-4.91,1.75-7.37-.13-9-6.9-30.65-23-32.67-23.67a10.76,10.76,0,0,0-10.5,2.58c-2,1.86-3.95,3.81-6.28,6.08L303,265.81c8.67-5.74,9.25-15,1.56-21.62-3.26-2.83-3.77-5.74-1.47-8.41,2.07-2.4,5.28-2.44,8.39-.1,11.17,8.43,12.81,24.09,3.29,34.34-6.46,7-13.37,13.5-20.07,20.24l-2.8,2.92c4.75,4.47,11.11,4.19,15.68-.53,5.26-5.43,8.27-5.45,13.37-.1,4.89,5.12,12,5.15,16.92.05,5.21-5.37,8.18-5.37,13.38,0s13,5,17.61-.94c.38-.49.67-1.06,1.05-1.55,2.08-2.66,5-3.25,7.58-1.55s3.07,4.63,1.47,7.62c-5.81,10.8-20.62,14.42-31.26,7.64-1.05-.67-2.05-1.43-3-2.13-11.9,7.56-19.81,7.59-30.32-.08-4.38,3.47-9.42,5.81-15.24,5.74a23,23,0,0,1-15.14-6,14.93,14.93,0,0,0-1.78,1.39c-16.22,17-35.67,21.46-58.22,15.84-34.8-8.66-66-24.38-95.12-45.13a347.84,347.84,0,0,1-88.45-91.77c-2.31-3.46-2.07-6.67.66-8.59s5.86-1.23,8.27,2.28C63.19,195.6,77.9,215.2,95.9,232c29.51,27.56,61.56,51.47,99.64,66a283.8,283.8,0,0,0,37.26,11c14.32,3.33,27.36-.55,38.1-10.62,8.29-7.77,16.06-16.1,24.5-24.62l-68.9-52.63c-2.29,2.57-4.31,5.13-6.64,7.36-7.84,7.51-18,8.18-27.06,2.14A369.92,369.92,0,0,1,90.38,128.16c-6-9-5.35-19.23,2.19-27,2.23-2.31,4.83-4.28,7.38-6.53L47.88,26.44C38.66,35.22,29,43.3,20.75,52.56,11.22,63.21,9.15,76.34,12.23,90.2,16.94,111.56,35.65,153,36,153.82c1.44,3.27.52,6.21-2.37,7.63a5.2,5.2,0,0,1-7-2.12c-.08-.16-.15-.32-.22-.48-4.11-8.27-8.33-16.5-11.88-25C8.17,118.89.24,86.13,0,85.56,0,85.56,1.33,67.74,2.11,64.87ZM107.5,86.39c1.37-1.49,2.27-2.53,3.24-3.5,7.35-7.37,7.69-12,1.44-20.19Q94.92,40.08,77.62,17.47c-6.72-8.78-15.43-8.67-22.45.46Z"/><path d="M198.3,189.45c7.32-7.32,14.86-14.44,21.88-22,5.24-5.67,11.21-7.88,18.92-7.81,30.75.28,61.5.17,92.25.1,20.87-.06,37.26-13.52,41-33.52a24.72,24.72,0,0,0,.46-4.46c0-16.5.4-33-.08-49.49C372.13,52,355,34.88,334.68,34.6c-31.75-.43-98.49-.25-100.08-.53a5,5,0,0,1-4.24-5.39c.12-3,1.94-4.8,4.92-5.23,1.12-.11,64.87-.07,95.62-.07s53,22.37,53.07,53V118c-.05,30.15-22.39,52.55-52.6,52.62q-46.69.1-93.37,0a11.83,11.83,0,0,0-9.25,3.85c-8.79,9.07-17.83,17.88-26.72,26.85-3,3-6.22,4.67-10.4,2.85-4-1.73-5.14-5-5.07-9.16.12-7.25,0-14.5.08-21.75,0-2.55-.84-3.71-3.35-4.46-23.55-7-37.72-26.12-37.8-50.72q-.06-21.37,0-42.74c.11-29.11,22.86-51.83,51.89-51.88,4,0,8-.07,12,0,3.64.09,5.87,2.23,5.89,5.41s-2,5.3-5.44,5.5c-4,.23-8,.08-12,.11-23.68.18-41,17.13-41.29,40.78q-.3,21.94,0,43.88c.25,19.22,11.58,33.88,30,39.24,7.9,2.31,10.83,6.15,10.88,14.37C197.42,178.23,198.3,189.45,198.3,189.45Z"/><path d="M252.42,100c1.35.37,2.64.32,3.16.93,1.28,1.5,3.15,3.37,3,5s-1.92,4.43-3.5,4.87c-2.69.75-3,2.06-2.87,4.24.07,1.49,0,3,0,4.49-.09,4.55-2,7.06-5.39,7.08s-5.41-2.52-5.43-7v-8.29H223.64c-7.85,0-10-3.56-6.11-10.36,5.72-10.08,11.42-20.16,17.3-30.15,3.3-5.62,7-7.66,11-6.64,4.45,1.15,6.56,4.73,6.61,11.62C252.5,83.68,252.42,91.66,252.42,100ZM241.29,81l-10.9,19.24h10.9Z"/><path d="M193.1,117.24h11.1c1.49,0,3-.11,4.49,0,3.62.23,5.85,2.4,5.82,5.55s-2.32,5.39-5.93,5.43c-8.24.1-16.5.26-24.72-.13-2.12-.1-5.09-1.66-5.93-3.39s-.2-5,1-6.75c5.26-7.74,11-15.14,16.45-22.77a49.5,49.5,0,0,0,4.92-8.37c2.12-4.7.51-8.87-3.69-10.6s-8.62.34-10.44,5.1a1.06,1.06,0,0,1-.11.36c-1.41,3.74-4,5.31-7.07,4.24s-4.47-4-3.31-7.69c2.3-7.29,7.25-11.91,14.8-13.27,7.26-1.3,13.35,1.2,17.9,6.93,4.21,5.3,5.22,11.4,2.62,17.64a69.84,69.84,0,0,1-6.32,11.42C201.19,106.24,197.34,111.31,193.1,117.24Z"/><path d="M340.35,75.81H321.79c-4.29,0-6.69-1.9-6.8-5.26-.13-3.54,2.28-5.67,6.78-5.71,8.6-.07,17.22-.1,25.83,0,5.78.08,8,3.68,5.64,9.08q-10.74,24.66-21.66,49.26c-1.71,3.87-4.58,5.24-7.64,3.86s-4-4.35-2.32-8.26C327.23,105.87,339.6,77.61,340.35,75.81Z"/><path d="M301.61,70c-.16.52-.4,1.49-.76,2.4Q291,97.26,281.12,122.09c-1.63,4.08-5.17,5.63-8.24,3.63s-3.16-4.73-1.89-7.89Q279.36,97,287.61,76.16c1.2-3,2.29-6.08,3.66-9,1.18-2.51,3.34-3.8,6.14-3.09S301.59,66.64,301.61,70Z"/></svg>