<svg xmlns="http://www.w3.org/2000/svg" viewBox="0 0 384.17 383.13"><path fill="#777c87" d="M203.71,1.82a48.58,48.58,0,0,1,35.63,46.57c.19,28.36.06,90,.06,90s63.72.5,93.19-.14A50.18,50.18,0,0,1,384.16,187c0,.89-.58,75.13,0,111.37.55,30.34-23.18,52.39-49.41,51.95a13.41,13.41,0,0,0-1.66.29c0,5.61-.26,11.32.07,17,.47,8.22-2.86,13.67-10.65,16.38h-6c-7.86-6.28-33.75-27.7-39-31.94a8.25,8.25,0,0,0-4.65-1.67c-6.12-.2-12.25-.06-18.37-.09-4.48,0-7-2-7-5.49-.06-3.66,2.48-5.73,7.18-5.74,7.12,0,14.25-.22,21.36.11a11.89,11.89,0,0,1,6.68,2.56c11.44,9.51,22.66,19.27,34,28.88a18.19,18.19,0,0,0,3.81,1.93c.44-1.45,1.24-2.89,1.27-4.34.13-7.37,0-14.74.08-22.12,0-5,2.07-7.17,7.12-7,10.37.38,20.19-1,28.67-7.63,9.46-7.33,14.91-17,15-28.91q.36-58.12,0-116.24c-.13-19.51-15.8-35.33-35.28-36.49-3.49-.2-142.11-.15-142.11-.15-18.77,0-33.51,10.75-38,27.84A45.89,45.89,0,0,0,156,189q-.15,55.31-.05,110.62C156,323,172,339,195.25,339h30c4.59,0,7.31,2.22,7.23,5.76s-2.66,5.46-7.09,5.47c-10.74,0-21.5.1-32.24,0a48.64,48.64,0,0,1-48.4-48.54c-.19-28.24,0-89.43,0-89.43-1.39-.12-23.3-.42-33.17-.21a9.78,9.78,0,0,0-5.61,2.16q-16,13.33-31.65,27c-4.67,4.06-9.78,5.67-15.54,3.06s-8-7.52-7.78-13.74c.17-6,0-12,0-18.15-4.25-.56-20.6-4.32-24.56-6.14-3.55-1.59-4.59-4.72-3.13-7.66s4.57-4,8-2.3c7.24,3.72,14.94,4.59,22.91,4.44,6.33-.11,8,1.68,8,7.94,0,7.24-.06,14.5.06,21.74,0,1.2.8,2.39,1.22,3.59,1.2-.51,2.61-.75,3.56-1.55,11.06-9.37,22.11-18.75,33-28.29a13,13,0,0,1,9.44-3.53c10.25.21,35.14.07,35.14.07V188.31c.13-28.69,21.34-49.85,50.07-49.91H228c.08-1.54.26-60.25.19-88.37C228,31.48,217,16.88,199.73,12.43a42.6,42.6,0,0,0-10.37-1.2q-69.56-.11-139.12,0c-22.66,0-38.95,16.35-39,39.05,0,37.24-.15,74.49.15,111.73,0,5.59,1.88,11.23,3.41,16.7,1.11,3.95.69,7-2.26,8.41-3.14,1.53-6.51.18-8-3.82-1.79-4.76-3-9.71-4.54-14.58,0,0,.52-127.32.71-128C4.79,21,16.52,8.06,35.62,1.89,41.66,0,201.33,1.15,203.71,1.82Z"/><path fill="#1c1e28" d="M120.18,27.3c3.8.63,7.64,1.09,11.4,1.94,4.48,1,6.51,3.9,5.55,7.32-.92,3.27-4,4.61-8.23,3.56-11.7-2.87-22.38-.7-31.68,6.92-8,6.5-12.12,15.07-12.7,25.34-.26,4.51,1.55,7.08,5,7.34s6-1.91,6.1-6.42c.18-10.14,7.86-19.94,18.31-22.44A24.07,24.07,0,0,1,131.72,95.1c-1.62.92-3.39,1.58-5.07,2.4-9,4.34-14.35,14.71-12.46,24.28.61,3.08,2.59,5,5.75,4.82s5-2,5.34-5.23a16.89,16.89,0,0,0,0-2.25c-.25-5.94,2.34-9.85,7.88-12.25,12.74-5.53,20-15.34,21.68-29.15,1.54-11-6.12-23.5-6.66-24.34-2-3.21-1.65-6.44,1-8.3s6-1.2,8.16,1.8c6.76,9.37,10,19.84,8.78,31.38C164.27,96.1,155,108.86,139,116.79a4.94,4.94,0,0,0-2.26,3.53c-.56,10.39-7.52,17.7-17.07,17.62s-16.69-7.75-16.78-18.27c-.13-15.94,6.93-27.15,21.66-33.53,5.75-2.5,8.83-8,8-13.48a13,13,0,0,0-10.68-11.1c-5.69-.85-11.4,2-13.57,7.14a27.62,27.62,0,0,0-1.48,7.3A16.87,16.87,0,0,1,88.25,91h0a16.41,16.41,0,0,1-2.31-.4c-7.84-1.91-12.93-9-12.67-17.66C74,47.36,94.38,27.7,120.18,27.3Z"/><path fill="#1c1e28" d="M247.46,190.06c0-10.37,7-17.71,16.75-17.73s16.94,7.35,17,17.57q.1,31.48,0,63c0,10.13-7.48,17.75-17,17.67s-16.69-7.68-16.69-17.92C247.43,242.15,247.46,190.06,247.46,190.06Zm11.25,62.15c0,4.42,2.07,7,5.51,7s5.71-2.61,5.72-6.9V190.5c0-4.44-2.06-6.9-5.59-6.94s-5.62,2.37-5.64,6.82c0,10.39,0,61.83,0,61.83Z"/><path fill="#1c1e28" d="M247.52,292.58a16.86,16.86,0,1,1,33.71-.94v.81a16.86,16.86,0,0,1-33.71,1h0v-.87Zm16.86,5.56a5.76,5.76,0,0,0,5.58-5.49,5.67,5.67,0,0,0-5.6-5.74h-.07a5.62,5.62,0,0,0,.09,11.23Z"/><path fill="#1c1e28" d="M120.25,143.12a16.68,16.68,0,0,1,16.28,17v.28a16.86,16.86,0,1,1-16.38-17.33h.11Zm-.61,22.5a5.67,5.67,0,0,0,5.65-5.38,5.47,5.47,0,0,0-5-5.85h-.4a5.62,5.62,0,0,0-5.72,5.28A5.84,5.84,0,0,0,119.64,165.62Z"/></svg>