<svg xmlns="http://www.w3.org/2000/svg" viewBox="0 0 146 146"><defs><linearGradient id="linear-gradient" x1="74.65" y1="75.46" x2="74.65" y2="314.83" gradientTransform="translate(-1.6 -155.37)" gradientUnits="userSpaceOnUse"><stop offset="0.32" stop-color="#20a9e5"/><stop offset="0.67" stop-color="#1686c3"/></linearGradient></defs><path fill="url(#linear-gradient)" d="M73.05,0a73,73,0,1,0,73,73h0A73,73,0,0,0,73.05,0ZM27.49,104.22a45.24,45.24,0,0,0,29.89-8.69A19.45,19.45,0,0,1,40.05,83.37a12.74,12.74,0,0,0,7.29,0,18.4,18.4,0,0,1-15-18.06,13.52,13.52,0,0,0,7.29,2.08s-13.55-13.2-6.25-26A55.55,55.55,0,0,0,72.31,59.75,18.74,18.74,0,0,1,81.69,40,18.4,18.4,0,0,1,105,42.78s9-2.09,12.16-3.83a18,18,0,0,1-8,10.77A38.5,38.5,0,0,0,119.54,47a29.29,29.29,0,0,1-8,8C117.82,100.74,74.74,130.27,27.49,104.22Z"/></svg>