<svg xmlns="http://www.w3.org/2000/svg" viewBox="0 0 24 24"><path d="M12,0A12,12,0,1,0,24,12,12,12,0,0,0,12,0Zm5.86,9.66V10A8.22,8.22,0,0,1,5.22,17a4,4,0,0,0,.69,0A5.77,5.77,0,0,0,9.5,15.76a2.89,2.89,0,0,1-2.7-2,3.29,3.29,0,0,0,.54.05,3.23,3.23,0,0,0,.76-.1,2.9,2.9,0,0,1-2.31-2.84h0a2.94,2.94,0,0,0,1.3.36A2.91,2.91,0,0,1,5.81,8.79,2.84,2.84,0,0,1,6.2,7.34a8.2,8.2,0,0,0,6,3,3,3,0,0,1-.08-.66,2.89,2.89,0,0,1,5-2A6.13,6.13,0,0,0,18.92,7a2.93,2.93,0,0,1-1.27,1.6,6,6,0,0,0,1.66-.46A6,6,0,0,1,17.86,9.66Z"/></svg>