<svg xmlns="http://www.w3.org/2000/svg" viewBox="0 0 409.59 409.42"><path d="M137.45,216.09c-62.34-43.58-67-130.24-16.8-180.81,45.51-45.86,119.88-48,167.45-.7,26,25.85,37.63,57.72,34.45,94.38S301.72,194,272.14,216C392.9,266.89,409.36,378,409.59,409.41H377.87c-1.83-60.57-65.61-172.15-168.5-172.15s-177,78.87-177.51,172.06H0C.41,365.92,18.66,259,137.45,216.09Zm153.74-97.57c.09-47.39-38.56-86.21-86.09-86.49s-86.59,38.68-86.69,86.29c-.09,47.39,38.56,86.21,86.09,86.49S291.09,166.13,291.19,118.52Z"/></svg>