<svg xmlns="http://www.w3.org/2000/svg" viewBox="0 0 409.6 409.65"><path d="M205.15,0C92.09-.33.05,91.53,0,204.8,0,317.85,91.52,409.5,204.65,409.65s204.71-91.44,205-204.6C409.8,92.09,318.35.34,205.15,0ZM89.23,344.11s27.83-102,117.91-102S321.05,343.54,321.05,343.54A181,181,0,0,1,89.23,344.11Zm53.33-190.55c-.18-34.11,28.06-62.37,62.28-62.35s62.48,28.38,62.2,62.43a62.24,62.24,0,1,1-124.48-.08Zm199,169.8s-14-72.49-87.93-98.57c50.9-36.5,44.05-101.57,11.9-132.6-34.32-33.13-88.3-33.39-121.63.41-18.72,19-27.16,42-24.72,68.71s15.43,47.38,37.36,63.57c-72.22,27.17-88.47,98.54-88.47,98.54A180.18,180.18,0,0,1,23.8,204.8c0-100.12,81.38-181.31,181.31-181S386,105.18,385.8,205a180.64,180.64,0,0,1-44.23,118.34Z"/></svg>