<svg xmlns="http://www.w3.org/2000/svg" viewBox="0 0 38 24"><path opacity=".07" d="M35,0H3A3,3,0,0,0,0,3V21a3,3,0,0,0,3,3H35a3,3,0,0,0,3-3V3A3,3,0,0,0,35,0Z"/><path fill="#fff" d="M35,1a2,2,0,0,1,2,2V21a2,2,0,0,1-2,2H3a2,2,0,0,1-2-2V3A2,2,0,0,1,3,1H35"/><path fill="#142688" d="M28.3,10.1H28l-1,3h1.9ZM31.2,16H29.5c-.1,0-.1,0-.2-.1L29,14.8H26.6a5.36,5.36,0,0,0-.5,1.1.1.1,0,0,1-.1.1H23.9L27,8.7c0-.5.3-.7.8-.7h1.5c.1,0,.2,0,.2.2C29.5,8.2,31.2,15.9,31.2,16Zm-13.4-.3.4-1.8a3.79,3.79,0,0,0,3,.3c.5-.2.5-.7.1-1.1-.2-.2-1.6-.9-1.9-1.2a2,2,0,0,1-.1-3.1c1.52-1.87,4.9-.6,4.9-.6a10.46,10.46,0,0,1-.4,1.7,4.19,4.19,0,0,0-1.5-.4,2.08,2.08,0,0,0-1.3.3.48.48,0,0,0,0,.7s1.3.8,1.6,1a2.21,2.21,0,0,1,1.1,1.4,2.15,2.15,0,0,1-.9,2.3c-.5.4-2.07,1.3-4.8.4C17.9,15.8,17.9,15.8,17.8,15.7Zm-3.5.3c.1-.7,1.2-5.5,1.6-7.7.1-.2.1-.3.3-.3H18c-.2,1.2-1.3,6.2-1.7,7.7,0,.2-.1.2-.3.2M5.3,8H8.7a1,1,0,0,1,1,.8s.9,4.5,1,4.6c0-.1,2.2-5.4,2.3-5.4h2.1c0,.1-3.3,7.8-3.4,7.9a13.33,13.33,0,0,1-2,0c-.1,0-.2,0-.2-.2L7.9,9.5A2,2,0,0,0,7,8.9a6.66,6.66,0,0,0-1.9-.5S4.76,8,5.3,8Z"/></svg>