<svg xmlns="http://www.w3.org/2000/svg" viewBox="0 0 22.03 22.01"><path d="M11,0A11,11,0,0,0,1.45,16.46l-1.4,5a.46.46,0,0,0,.12.46A.46.46,0,0,0,.51,22H.63l5.23-1.29A11,11,0,1,0,11,0Zm5.6,15a2.91,2.91,0,0,1-1.88,1.42,8,8,0,0,1-3.4-.7A12.72,12.72,0,0,1,6.48,11.5a5.41,5.41,0,0,1-1.18-3,3.12,3.12,0,0,1,1-2.33A1,1,0,0,1,7,5.76h.54c.18,0,.41-.07.64.48S9,8.18,9,8.32a.48.48,0,0,1,0,.49,5.84,5.84,0,0,1-.71,1,.42.42,0,0,0-.13.57h0a7.81,7.81,0,0,0,1.59,1.94A7.71,7.71,0,0,0,12,13.71c.28.14.45.12.62-.07s.7-.81.89-1.09.38-.24.64-.14,1.65.77,1.94.91.47.21.54.32a2,2,0,0,1-.1,1.4Z"/></svg>