<svg xmlns="http://www.w3.org/2000/svg" viewBox="0 0 285.17 384.1"><path fill="#d97e4a" d="M228,226.48c8.24,3.23,16.46,6.49,24.72,9.67,18.54,7.13,32.07,25.7,32.26,45.56.3,30.58.09,61.17.13,91.76,0,5.35-3.11,8.37-7.51,10.53h-33V281.35a23.7,23.7,0,0,0-.34-4.45,5.19,5.19,0,0,0-5.45-4.63c-3.2-.08-5.22,1.49-5.83,4.63a22.9,22.9,0,0,0-.34,4.45V384H161.37l1.38-8.3q9.42-46.76,18.85-93.5,6.84-33.9,13.72-67.81a10.33,10.33,0,0,1,3.93,1C208.87,219.12,218.42,222.79,228,226.48Z"/><path fill="#d97e4a" d="M45.87,231.05l11.3-4.58c9.58-3.51,19.18-7,28.49-11.19l4.19-.93c.35,1.46.74,2.9,1,4.37q10.7,53.31,21.36,106.63,5.87,29.32,11.64,58.65H52.62V280.58a21.45,21.45,0,0,0,0-3c-.44-3.09-2.22-5-5.37-5.28s-5.24,1-6.16,4.21a17.74,17.74,0,0,0-.42,4.82V384h-15V281.65c0-13.07,4.19-24.87,10.52-36.12C39,240.43,43.07,236.18,45.87,231.05Z"/><path fill="#865151" d="M85.65,215.25c-9.31,4.21-18.91,7.68-28.49,11.19-7.9-6.77-11.68-15.24-11-25.73.3-4.73-1.84-8.64-5-12.14-13.8-15.51-13.74-33.91.16-49.42a17.89,17.89,0,0,0,4.77-13c-.34-10.8,3.76-19.37,12.69-25.6,5.68-4,8.19-9.61,8-16.43-.48-13.86.67-27.43,6.88-40.1,11.86-24.21,31-38.74,57.67-43.3.61-.1,1.26,0,1.55-.76h18.75c2.57,1.52,5.74.66,8.33,2.13-10.12,3.79-20,7.9-28.45,15a77.24,77.24,0,0,0-24.89,37.73c-3,9.91-3.22,20.08-3,30.3a17.38,17.38,0,0,1-7.89,15.58c-8.4,5.8-12.84,13.75-12.31,24.07.36,6.91-2.9,12.08-7.18,17-10.44,11.95-11.2,30.72-1,43,5.65,6.79,9.18,13.7,8.19,22.67C83.13,210.25,84.67,212.73,85.65,215.25Z"/><path fill="#ede0dc" d="M123.87,384l-11.64-58.65Q101.58,272,90.87,218.72c-.29-1.47-.68-2.91-1-4.37l1-.62c2.63,3,5.18,6,7.9,8.9,9,9.59,18.13,19.11,27.17,28.69,3.21,3.4,6.79,6.17,11.43,7.31l.83.17a17.68,17.68,0,0,0,.13,3c2.27,10.91,4.59,21.8,6.87,32.71,4.19,20,8.27,40,12.61,60,1.54,7.11,2.29,14.41,5,21.25l-1.38,8.3Z"/><path fill="#ca6c35" d="M45.87,231.05c-2.79,5.13-6.86,9.38-9.72,14.48-6.33,11.25-10.53,23-10.52,36.12V384H6.87C1.43,381.06,0,376.49,0,370.42c.26-28.57.12-57.14.12-85.72,0-22.62,12.4-40.79,33.53-49.11C37.69,234,41.79,232.56,45.87,231.05Z"/><path fill="#cb6c35" d="M40.62,384V281.33a17.74,17.74,0,0,1,.42-4.82c.92-3.21,3.09-4.46,6.16-4.21s4.93,2.19,5.37,5.28a21.45,21.45,0,0,1,0,3V384Z"/><path fill="#cb6c35" d="M232.62,384V281.35a22.9,22.9,0,0,1,.34-4.45c.61-3.14,2.63-4.71,5.83-4.63a5.19,5.19,0,0,1,5.45,4.63,23.7,23.7,0,0,1,.34,4.45V384Z"/><path fill="#9d5e5e" d="M90.8,213.73l-1,.62-4.2.93c-1-2.55-2.52-5.07-2.22-7.83,1-9-2.54-15.88-8.19-22.67-10.21-12.26-9.45-31,1-43,4.28-4.91,7.54-10.08,7.18-17-.53-10.32,3.91-18.27,12.31-24.07a17.38,17.38,0,0,0,7.89-15.58c-.22-10.22,0-20.39,3-30.3A77.24,77.24,0,0,1,131.46,17.1c8.43-7.1,18.33-11.21,28.45-15,27.8,5.87,51.52,30.64,57,59.32a107.13,107.13,0,0,1,1.47,22.83,18.92,18.92,0,0,0,8.49,16.88C235.15,107,239.1,115,238.79,125.2a20,20,0,0,0,5.5,14.65c13.22,14.5,13.14,34-.1,48.4-3.28,3.56-5.69,7.6-5.36,12.38.74,10.57-3.05,19-10.85,25.85-9.6-3.69-19.2-7.36-28.77-11.08a10.33,10.33,0,0,0-3.93-1c-.35-.67-1-.72-1.63-.75-4.9-2.73-10.3-4.28-15.49-6.33-3.39-1.34-4.86-3.54-4.82-7.1.07-5.49,0-11,0-16.46C186.48,174.21,195,161.61,197,145.4c1.38-11.14.45-22.45.41-33.69a27.06,27.06,0,0,0-6.08-16.95c-2.46-3.13-5.35-5.93-8-9a141.68,141.68,0,0,1-21.17-33c-1-2.16-1.91-4.73-4.86-4.43-3.12.32-3.43,3.16-4.09,5.57a89,89,0,0,1-2.54,8.59c-5.25,13.77-14.4,24.69-25.35,34.27A147.5,147.5,0,0,1,105,110.68c-13.69,7.63-19.58,20.81-16.8,36.3S99,174.65,111.74,183.76c0,5.21-.1,10.43,0,15.63.11,4.16-1.64,6.67-5.58,8.12C101,209.45,95.73,211.12,90.8,213.73Z"/><path fill="#fef3f3" d="M193.69,213.64a1.6,1.6,0,0,1,1.63.75q-6.85,33.92-13.72,67.86-9.43,46.76-18.85,93.5c-2.71-6.84-3.46-14.14-5-21.25-4.34-20-8.42-40-12.61-60-2.28-10.91-4.6-21.8-6.87-32.71a17.68,17.68,0,0,1-.13-3c7.68.76,13.56-2.29,18.83-7.84,9.71-10.22,19.89-20,29.82-30C189.15,218.58,191.87,216.5,193.69,213.64Z"/><path fill="#fdd0a2" d="M193.69,213.64c-1.86,2.86-4.54,4.94-6.9,7.32-9.93,10-20.11,19.78-29.82,30-5.27,5.55-11.15,8.6-18.83,7.84l-.83-.17c0-21,0-41.91.11-62.86,0-2.3-.76-3.49-3.07-3.76a55.05,55.05,0,0,1-22.57-8.23C99,174.67,91,162.58,88.23,147s3.11-28.67,16.8-36.3a147.5,147.5,0,0,0,20.35-13.87c0,13.83-.09,27.67.05,41.51A68.48,68.48,0,0,0,126.72,149c2.3,13.45,10,23.66,20,32.33,4.16,3.61,9.06,6.87,14.29,7.79,4.19.73,8.2-2.93,12-5.22l.34-.16c0,5.49.11,11,0,16.46,0,3.56,1.43,5.76,4.82,7.1C183.39,209.36,188.79,210.91,193.69,213.64Z"/><path fill="#febb85" d="M111.78,183.78A55.05,55.05,0,0,0,134.35,192c2.31.27,3.08,1.46,3.07,3.76-.09,21-.09,41.9-.11,62.86-4.64-1.14-8.22-3.91-11.43-7.31-9-9.58-18.14-19.1-27.17-28.69-2.72-2.89-5.27-5.93-7.9-8.9,4.92-2.61,10.23-4.28,15.42-6.2,3.94-1.45,5.69-4,5.58-8.12C111.68,194.25,111.78,189,111.78,183.78Z"/><path fill="#fee4c0" d="M173.34,183.75l-.34.16c-3.82,2.29-7.83,6-12,5.22-5.23-.92-10.13-4.18-14.29-7.79-10-8.67-17.67-18.88-20-32.33a68.48,68.48,0,0,1-1.29-10.67c-.14-13.84,0-27.68,0-41.51,10.95-9.58,20.1-20.5,25.35-34.27A89,89,0,0,0,153.26,54c.66-2.41,1-5.25,4.09-5.57s3.85,2.27,4.86,4.43a141.68,141.68,0,0,0,21.17,33c2.61,3,5.5,5.82,8,9a27.06,27.06,0,0,1,6.08,17c0,11.24,1,22.55-.41,33.69C195,161.6,186.48,174.25,173.34,183.75Z"/></svg>