<svg xmlns="http://www.w3.org/2000/svg" viewBox="0 0 263.27 384.09"><path fill="#fea964" d="M234.47,384H29c.37-12.53-1.07-25.14,2.21-37.54A61.52,61.52,0,0,1,85,300.93c5.8-.53,11-.12,11.55-7.71l29.89,22.88c4.32,3.31,6.32,3.33,10.6,0l30.74-23.58c-.06,7.21.91,8,8.11,8.23a55.59,55.59,0,0,1,25.61,7.06c21.48,12,32.12,30.46,33,54.78C234.68,369.75,234.47,376.88,234.47,384Z"/><path fill="#4d4e59" d="M11.65,257.37C5,247,1.8,235.46.5,223.37c-2.36-22,3.68-41.76,15.66-60.13,8.85-13.57,12.75-28.79,12.8-45V80.37C29.19,42.82,58.69,8,95.71,1.37c2-.35,4.21,0,6-1.41H161c5.92,1.62,12.09,2.2,17.87,4.46,4.73,1.84,9.54,3.52,13.71,6.54.22,1.09.44,2.19.67,3.28,1.22,5.63-1.92,10.44-7.54,11-2.17.24-4.42-.52-6.64-.53-13.36-.06-26.73,0-40.09-.05a84.18,84.18,0,0,0-33.12,6.06,82.51,82.51,0,0,0-42.2,37.94c-7.48,13.78-10.24,28.69-9.93,44.27.06,3.09.35,6.24-.73,9.26-2.52,2.06-3.21,4.74-3.18,7.94.11,14.1.05,28.21.05,42.31-.86.09-1.11.69-1.48,1.41-1.64,3.21-2.66,6.67-4.58,9.78C36.78,195,30,206.37,27,219.63c-2.2,9.85-1.74,19.77-1.82,29.7,0,5.91-4.91,9.52-10.57,8C13.72,257.12,12.64,255.94,11.65,257.37Z"/><path fill="#febc7b" d="M96.51,293.25C96,300.84,90.76,300.43,85,301a61.52,61.52,0,0,0-53.78,45.53c-3.28,12.4-1.84,25-2.21,37.54H8c-3-2.45-3.95-5.53-3.84-9.46.27-10.22-.12-20.45.13-30.66.58-23.28,11.29-40.71,31.07-52.74,1.59-1,3.25-1.83,4.88-2.74,7.55-2.9,15.29-5.16,23.42-5.35a47.74,47.74,0,0,0,17.05-3.14c.68,1.76,2.38,2.45,3.7,3.52C88.4,286.73,92.85,289.48,96.51,293.25Z"/><path fill="#f9a157" d="M234.47,384c0-7.12.21-14.25,0-21.37-.85-24.32-11.49-42.81-33-54.78a55.59,55.59,0,0,0-25.61-7.06c-7.2-.22-8.17-1-8.11-8.23l15.37-12.31c3.48.77,6.77,2.51,10.4,2.54a79,79,0,0,1,29.68,5.66c10,5.2,18.74,11.86,25.14,21.33a60.15,60.15,0,0,1,10.87,34c.05,10.12-.16,20.25.1,30.36.1,4-.76,7.3-3.84,9.91Z"/><path fill="#42434d" d="M223.2,288.4a79,79,0,0,0-29.68-5.66c-3.63,0-6.92-1.77-10.41-2.54A36.65,36.65,0,0,1,164,257.25a88.06,88.06,0,0,1-.76-14.24l2.33-1.18c30.59-15.22,46.88-39.79,47.94-74,.41-13,.1-26,.07-39,0-5.07-2-7.36-7-7.87-14-1.42-22.73-9.25-27.25-22.23-2.52-7.22-6.19-8.51-12.69-4.28a173.65,173.65,0,0,1-36.81,18.18A176.11,176.11,0,0,1,71,122.43c-6,.23-12-2-18-.17,1.08-3,.79-6.17.73-9.26-.31-15.58,2.45-30.49,9.93-44.27a82.51,82.51,0,0,1,42.2-37.94A83.92,83.92,0,0,1,139,24.73c13.36.09,26.73,0,40.09.05,2.22,0,4.47.77,6.64.53,5.62-.59,8.76-5.4,7.54-11-.23-1.09-.45-2.19-.67-3.28C213.44,22.94,226.39,40.79,232.19,64a81.65,81.65,0,0,1,2.24,20c0,11.12.08,22.23,0,33.35a84.53,84.53,0,0,0,14,48.1c10.87,16.62,16,34.79,14.62,54.64-1.72,24.63-12.13,45-30.75,61.13C229.37,283.71,226.24,286,223.2,288.4Z"/><path fill="#42434d" d="M80.68,279.91a47.74,47.74,0,0,1-17.05,3.14c-8.13.19-15.87,2.45-23.42,5.35C29.5,280.5,19.85,271.58,13,260c-.5-.84-.89-1.75-1.34-2.63,1-1.43,2.07-.25,3,0,5.66,1.55,10.52-2.06,10.57-8,.08-9.93-.38-19.85,1.82-29.7,3-13.26,9.73-24.68,16.74-36,1.92-3.11,2.94-6.57,4.58-9.78.37-.72.62-1.32,1.48-1.41a75.76,75.76,0,0,0,3.55,19.34C61.24,216,77.15,232.73,100.18,243c.36,4.77-.27,9.49-.74,14.22C96.3,267.38,90.3,275.14,80.68,279.91Z"/><path fill="#fedeb9" d="M80.68,279.91c9.62-4.77,15.62-12.53,18.76-22.66,1.31-.14,2.39.52,3.55,1,13,5.13,26.42,6,40.19,4.43,7.24-.82,13.92-3.46,20.81-5.41a36.64,36.64,0,0,0,19.12,23l-15.37,12.36L137,316.14c-4.28,3.29-6.28,3.27-10.6,0L96.51,293.25c-3.66-3.74-8.11-6.49-12.13-9.79C83.06,282.36,81.36,281.67,80.68,279.91Z"/><path fill="#fef2e3" d="M100.18,243c-23-10.27-38.94-27-46.79-51.18a75.76,75.76,0,0,1-3.55-19.34c0-14.1.06-28.21-.05-42.31,0-3.2.66-5.88,3.18-7.94,6-1.83,12,.4,18,.17,4.75,2.72,7.93,6.11,8.48,12.17.54,5.87.43,11.69.43,17.52,0,7.11.2,14.16,1.93,21.09,5.22,21,17.21,37.17,34.76,49.49a12.19,12.19,0,0,1,2.9,17c-.25.35-.52.69-.8,1-2.17,2.59-5.14,3.79-8,5.29C107,245.94,103.67,244.1,100.18,243Z"/><path fill="#feead1" d="M110.72,246c2.83-1.5,5.8-2.7,8-5.29a12.19,12.19,0,0,0-1.09-17.2,12.65,12.65,0,0,0-1-.8c-17.55-12.32-29.54-28.51-34.76-49.49-1.73-6.93-1.93-14-1.93-21.09,0-5.83.11-11.65-.43-17.52-.55-6.06-3.73-9.45-8.48-12.17a176.15,176.15,0,0,0,58.79-9.82,173.65,173.65,0,0,0,36.81-18.18c6.5-4.23,10.17-2.94,12.69,4.28,4.52,13,13.24,20.81,27.25,22.23,5.08.51,7,2.8,7,7.87,0,13,.34,26-.07,39-1.06,34.24-17.35,58.81-47.94,74L163.22,243a84.7,84.7,0,0,1-36.68,5.94C121.19,248.61,115.76,248.25,110.72,246Z"/><path fill="#fed5a6" d="M110.72,246c5,2.25,10.47,2.62,15.83,3a84.7,84.7,0,0,0,36.68-5.94,87.55,87.55,0,0,0,.74,14.2c-6.89,1.95-13.57,4.59-20.81,5.41-13.75,1.59-27.19.7-40.19-4.41-1.16-.46-2.24-1.12-3.55-1,.47-4.73,1.1-9.45.74-14.22C103.67,244.1,107,245.94,110.72,246Z"/></svg>