<svg id="Layer_1" data-name="Layer 1" xmlns="http://www.w3.org/2000/svg" viewBox="0 0 512 510.76"><defs><style>.cls-1{fill:#1c1e28;}.cls-2{fill:#474a56;}</style></defs><title>relations</title><path class="cls-1" d="M25,22c1.32-7.52,2.14-15.17,4.06-22.54,13.31-51.15,45.15-85.5,95-102.61,51.72-17.74,113.49-.43,149.34,41,19.41,22.41,31.28,48.1,34.8,77.58.63,5.32-1.51,8.76-5.74,9.56-4.45.84-7.76-1.81-9-7.2-.15-.65-.23-1.31-.39-2-2.38-9.66-4-19.6-7.28-28.95-19.21-54.72-80.43-90.18-137.53-80.29-45,7.8-77.2,32.45-97,73.4C31.4,21.22,38.57,77.09,67.6,110.77c21.78-8.52,43.4-17,65-25.45,3.22-1.27,4.35-10.3,1.29-13a52.8,52.8,0,0,1-16.95-28.18c-.28-1.17-2.12-2.37-3.48-2.81C98,36.23,90.79,18.56,100,6.05c1.12-1.51,1-4.09,1-6.18,0-12.33-.35-24.63,4-36.52a65.78,65.78,0,0,1,73.33-42.16c30.31,5.29,53,32.13,53.62,63.37.07,3.49.11,7,0,10.49a28.42,28.42,0,0,0,3.13,14.74c6,11.5-1.05,26.36-14.25,30.91-3.28,1.13-4.78,2.76-5.53,6a45.51,45.51,0,0,1-13.36,23c-2.63,2.53-4.57,10.84-2.84,13.73.72,1.21,62.73,25.83,67.53,28,.39-.62,1-1.76,1.81-2.8a124.42,124.42,0,0,0,23.53-52.87,40.06,40.06,0,0,1,1.09-4.88c1.34-4.18,5-6.33,8.86-5.34s6.68,4.65,5.51,8.77c-3.68,12.91-6.26,26.45-12,38.41-21.46,44.41-57.11,71.54-105.74,79.52-44.25,7.26-83.87-4.69-117.54-34.63-23.8-21.18-38.47-47.75-44.62-79C26.5,53.16,25.85,47.56,25,42ZM78.77,122.86c51.67,52.1,135.15,44.49,176.2-.13-.39-.29-29.92-12.22-44.38-17.69-1.05-.4-3.11.46-4.05,1.4-3.54,3.52-6.73,7.38-10.19,11-14,14.57-33.08,18.12-49.37,7.79-7.29-4.61-13-11.72-19.23-17.93-2-2-3.6-2.65-6.44-1.51C108.82,110.81,80.49,122,78.77,122.86ZM131,3.54c0,10.76-.33,21.26.07,31.73.74,19.16,16.21,33.53,35.8,33.74A34.66,34.66,0,0,0,202,35.89c.56-11.8.24-23.64.22-35.46a6,6,0,0,0-1.09-3.65c-3-3.51-6.24-6.82-9.26-10.07C166.69-1.23,166.69-1.23,131,3.54Zm85.66-12c2.19-21.71-8.18-40.52-27.75-51-17-9.07-38.77-6.54-54.26,6.3-13.78,11.42-22,33.48-17.68,47.48,2.72-4.41,6.53-6.64,11.68-6.39,20.44,1,39.13-4.49,56.54-15,6.46-3.91,11.37-3.05,16.56,2.41C206.7-19.48,211.46-14.15,216.68-8.47ZM150.15,81.46c1,8.81-2.22,14.38-9.77,17.05,17.28,23.8,36.15,22.88,52.83-.4-7.79-2.63-9.81-8.78-9.21-17C172.72,85,161.91,84.67,150.15,81.46Zm67.46-55.83c6.23-5.16,6.06-10,0-13.39ZM115.72,12.35c-6.33,4.52-6.2,9.18,0,12.76Z" transform="translate(-25 110.08)"/><path class="cls-2" d="M537,268c-1.36,7.84-2.15,15.84-4.17,23.51-13.44,50.91-45,86.3-95.09,101.8-56.32,17.43-106.53,3.82-147.33-39.18-28.58-30.11-40.12-67-37.23-108.21,4-57.21,46.55-108.75,102.06-124.06,6.24-1.72,12.62-3,19-4.22,5-1,8.82,1.31,9.72,5.45,1,4.45-1.54,8.13-7,9.07-17.4,3-33.93,8.34-48.86,18-33.57,21.61-53.81,52-59.16,91.71-4.6,34.11,3.91,65,24.31,92.72.49.67,2,2.39,1.91,2.28,22-8.62,43.8-17.12,65.56-25.71,2.83-1.12,3.68-10.36.92-12.76a50.57,50.57,0,0,1-17-28.11c-.24-1.1-1.81-2.26-3-2.75-17.42-7.05-22.13-19.37-13.75-35.73.85-1.65.89-3.83.91-5.77.14-12-.65-24,3.51-35.59,10.27-28.62,38.77-47.21,67.69-44,32.12,3.6,55.76,26.91,59.29,58.61.47,4.29.44,8.64.51,13,.11,6.42.24,12.46,3.32,18.73,5.63,11.43-1.45,25.31-14.47,30-3.48,1.26-4.93,3-5.74,6.41A46.23,46.23,0,0,1,429.42,296c-2.57,2.45-4.29,10.44-2.57,13.36.72,1.22,60.54,24.91,67.38,27.79A115.51,115.51,0,0,0,515,299.4c19.61-60-4.16-121.39-59-152.62A118.11,118.11,0,0,0,416.6,133c-2-.33-4-.6-5.89-1.1-4.57-1.17-7-4.75-6.15-8.8a7.28,7.28,0,0,1,9.06-5.79c12.84,3.34,26.25,5.6,38.22,11,45,20.25,72.27,55.29,82.61,103.49,1.15,5.33,1.71,10.8,2.55,16.2Zm-53.71,81c-1-.62-30.56-12.52-44.72-17.84-1.18-.45-3.45.4-4.48,1.41-3.57,3.48-6.72,7.38-10.19,11-14.26,14.74-33.5,17.92-50.3,7.1-6.84-4.4-12.23-11.15-18-17.08-2.12-2.18-3.72-3-6.8-1.76C336.31,336.9,308,348.09,306.29,349,352.31,397,437.11,397,483.29,349Zm-64-136.45c-18.69,11-38.74,16.81-60.75,16.59,0,6.12-.36,31.89,1.18,38.75,4,17.87,20.62,28.92,39,26.9,17.53-1.93,30.66-16.31,31.18-34.61.31-11.15.13-22.31,0-33.47a7.6,7.6,0,0,0-1.56-4.45C425.6,219,422.52,215.94,419.34,212.57Zm-75.11,8.5c3.74-6.32,8.81-7.32,14.63-7.11,18.84.66,36.18-4.47,52.29-14.07,8.55-5.1,12.79-4.45,19.69,3,4.45,4.79,8.87,9.61,13.59,14.73,3-29.88-20.16-56.2-49.53-56.38C366.29,161,340.49,184.81,344.23,221.07ZM368,324.43c17.36,23.6,36.44,23.36,52.72-.28-7.62-2.7-9.6-8.94-9.15-16.93a55.41,55.41,0,0,1-33.63.23C378.51,315.94,376.24,322,368,324.43Zm-24.86-73V238.54C337.29,242.72,337.26,246.7,343.12,251.4ZM445.27,238v13.23C451.49,247.18,451.53,242.2,445.27,238Z" transform="translate(-25 110.08)"/><path class="cls-1" d="M124,235.53a173.19,173.19,0,0,0,38.84,47.66,176,176,0,0,0,82.2,39.72c2.21.43,5.16,1,6.21,2.54a11.51,11.51,0,0,1,1.83,8c-.85,3.95-4.55,5.24-8.32,4.48a218.46,218.46,0,0,1-21.85-5.08q-71.74-22.33-110.29-86.93a29.68,29.68,0,0,0-3-4.12c-4.26,1.78-8.8,3.71-13.35,5.59-12,5-21.19-1.69-19.25-14.53,2.4-16,5.2-31.86,8.25-47.71,1.84-9.54,11.45-13.6,19.69-8.35q20.83,13.31,41.21,27.31c9,6.22,8,17.82-1.9,22.58C137.77,229.83,131,232.51,124,235.53Zm10.82-21.07L99.45,191c-2.44,14.21-4.72,27.49-7.18,41.78Z" transform="translate(-25 110.08)"/><path class="cls-2" d="M439,46.46c4.38-1.87,10.05-4.22,15.65-6.7,5-2.2,9.71-2.27,14.08,1.2s5.51,8,4.55,13.39c-2.79,15.56-5.3,31.16-8.18,46.7-2.07,11.24-11.31,15.22-20.87,9-13.27-8.6-26.48-17.29-39.55-26.19-10-6.84-8.85-18.49,2.24-23.58,5.26-2.41,10.61-4.6,17.18-7.44-7.79-9.12-14.58-18.14-22.46-26.09A172.11,172.11,0,0,0,322.8-19.08,31.14,31.14,0,0,1,319-20.3c-4.32-1.8-6.21-5.67-4.79-9.66,1.3-3.67,5.06-5.58,9.37-4.47C354-26.64,381.24-12.74,404.12,8.68,416.44,20.21,427.13,33.47,439,46.46Zm19,8.18L415.4,73l35.41,23.42C453.27,82.19,455.59,68.83,458.05,54.64Z" transform="translate(-25 110.08)"/></svg>