<svg xmlns="http://www.w3.org/2000/svg" viewBox="0 0 323.86 336.29"><path fill="#777c87" d="M146.63,82.43C136,86.2,113.33,97.76,78.06,95.62c-5.39,0-7,1.24-7,6.63-.12,12.36-.45,24.76.22,37.1,1.27,23.46,22,42.16,45.36,41.48,24.14-.7,43.59-20.05,43.94-43.87.15-10.87.06-21.74,0-32.61a6.44,6.44,0,0,0-.81-3.52C155.31,94.47,150.77,88.22,146.63,82.43Zm48.16,132.33c-7-3.59-14.55-6.11-22.16-6-3.86,29.66-27,49-52.24,50.94a55.35,55.35,0,0,1-36.58-9.64c-14.5-10-22.55-23.94-24.93-41.4-1.54.07-2.78.06-4,.19-21.32,2.26-40.23,19.88-42.75,41-1.26,10.61-.71,21.44-.84,32.17,0,3.21-.41,6.11-3.83,7.35S1.83,288.57,0,286c0,0,0-37.39,1.85-42.87A60.44,60.44,0,0,1,59.4,197.39c8.5-.19,17-.14,25.5,0,2.47,0,3-.83,3.26-3.21C88.79,188,87.1,184,81.6,180c-13.6-9.74-20.44-23.82-21.94-41.12-1.7,0-3.39.05-5.07,0-10.83-.36-19.14-6.81-21.73-16.81-2.54-9.8,1.64-19.21,10.81-24.94a5.17,5.17,0,0,0,2.07-3.7c.17-10.62.06-21.24.11-31.87C46,30.68,66.85,5.74,97.4.84c19.09-3.07,36.09,2.34,50.6,15.28a11.46,11.46,0,0,0,5.51,2.66c17.78,2.9,31.12,17.11,31.87,35.05.54,13,.22,26,.23,39,0,2,.19,3.35,2.27,4.54,9.28,5.35,13.3,14.91,10.82,24.85-2.39,9.47-10.76,16.06-21.19,16.62-1.73.09-3.48,0-5.45,0-.53,3.07-.93,6-1.56,8.87a54.84,54.84,0,0,1-24.25,35.13c-2.32,1.52-3.18,3.09-3,5.74s0,5.46,0,8.74c0,0,22.78-.13,32,.23,9.79.39,19.05,3.75,27.65,8.94ZM56.49,94l1.4,1c1.3-.58,3.36-.82,3.78-1.78,3.17-7.21,9-8.86,16.18-8.9,10.48.1,35.08,2,65-13.63,6-3,7.41-2.63,11.23,2.71,4.36,6.1,8.86,12.1,13,18.33,1.85,2.76,3.92,3.48,7,2.43a7.28,7.28,0,0,0,.3-1.46c0-12.62.29-25.25-.16-37.85C173.71,41.7,164.6,31.69,151.47,30c-4.74-.59-7.93-2.56-11.28-5.59C126.28,11.9,110,8.13,92.19,13.6c-18,5.53-30.28,17.87-33.4,36.4C56.31,64.39,57.11,79.28,56.49,94ZM70.66,208.61c1.26,21.47,21.91,39.8,44.57,40,23.27.21,43.88-17.68,45.63-40-5,0-10,.1-14.93,0-2.18-.06-3.31.49-4,2.78a25.54,25.54,0,0,1-9.8,13.79c-15.14,11.1-36.31,4.43-42.69-13.43-.42-1.19-1.56-3-2.45-3-5.46-.28-10.92-.14-16.4-.14Zm29-18.9c0,5.66-.42,10.79.09,15.82.74,7.75,7.79,13.65,15.74,13.75s15.45-5.64,16.35-13.52c.59-5.15.11-10.41.11-16a59.16,59.16,0,0,1-32.32,0ZM59.49,106.33c-6.87-1.34-11.64.21-14.39,4.58a10.76,10.76,0,0,0,.54,12.26c3.59,4.61,8.47,4.94,13.85,4.16ZM172,127.42c5.89.66,11.11.2,14.45-5.13a10.05,10.05,0,0,0-.25-11.64c-3.45-5.15-8.61-5.19-14.2-4.55Z"/><path fill="#1c1e28" d="M206.19,203.77q32-22.5,69.05-9.92A23,23,0,0,1,278,195c3.08,1.54,4.3,4.57,3,7.46-1.18,2.68-4.06,3.73-7.25,2.89-5.77-1.51-11.51-3.48-17.39-4.21-32.86-4.13-64,20.22-68.38,53.24-5.14,38.48,24.36,72.27,63,71.23,26.42-.7,45.84-13.76,56.21-38s5.87-46.67-11.26-66.62A29.56,29.56,0,0,1,293,217.6a5.52,5.52,0,0,1,7.88-7.45,13,13,0,0,1,2.19,2c19.93,22,26,47.39,16.18,75.36s-34.28,48.78-72,48.78c-40.34,0-71-34.75-71-72.57C176,246.69,184.34,220.79,206.19,203.77Z"/><path fill="#1c1e28" d="M267.74,245.51c5.07,0,9.56-.06,14.05,0a17.68,17.68,0,0,1,.26,35.35c-4.6.12-9.2,0-14.33,0,0,5.15.13,10,0,14.8-.29,9-7.19,16.11-16.37,17-8.32.86-16.76-5.23-18.55-13.67-.4-2.72-.45-14.43-.45-18.21-5.08,0-9.9.13-14.71,0a17.66,17.66,0,0,1-.21-35.3c4.83-.14,9.67,0,14.92,0v-12.7c.07-11.26,7.32-19.09,17.66-19.11s17.72,7.93,17.76,19.06C267.75,236.87,267.74,241,267.74,245.51Zm-32.5,24.13c6.58,0,8.31,1.69,8.33,8.13V293.9c0,4.67,2.6,7.62,6.44,7.61s6.42-3,6.46-7.63v-16.5c0-5.95,1.82-7.72,7.9-7.74h16.5c4.67-.06,7.43-2.62,7.32-6.63s-2.81-6.21-7.33-6.25c-5.63-.05-11.25,0-16.88,0s-7.48-1.89-7.5-7.36V232.15c-.05-4.4-2.62-7.15-6.47-7.14s-6.35,2.71-6.41,7.17c-.07,5.62,0,11.24,0,16.87,0,5.79-1.9,7.68-7.6,7.71-5.87,0-11.75-.07-17.62,0a6.47,6.47,0,0,0-6.66,6.25c-.12,3.59,2.69,6.43,6.69,6.58,3.08.15,16.83.05,16.83.05Z"/></svg>