<svg id="Layer_1" data-name="Layer 1" xmlns="http://www.w3.org/2000/svg" viewBox="0 0 289.04 288.85"><defs><style>.cls-1{fill:#474a56;}.cls-2{fill:#1c1e28;}</style></defs><title>magnifying-glass</title><path class="cls-1" d="M343.77,202l25,25.07c1.76-2.09,3.46-4.42,5.48-6.42,3-3,6.22-3.09,9.24-.1q18.25,18.06,36.32,36.32c2.89,2.92,2.81,6.31-.12,9.3q-10.38,10.56-21,20.93c-3,2.91-6.32,2.87-9.29-.08q-18.11-18-36.06-36c-3.15-3.18-3.08-6.29,0-9.53,1.88-2,3.93-3.77,5.71-5.46l-24.68-24.65c-31.72,26.74-68.38,36.73-109.49,27-29.74-7.05-53.43-23.72-70.78-48.94C118.94,138.12,128.36,69.49,176.1,28.64c46-39.38,116.27-37.29,160.55,4.48A121.32,121.32,0,0,1,343.77,202ZM145.39,120.85A108.46,108.46,0,1,0,254.09,12.66,108.34,108.34,0,0,0,145.39,120.85Zm233.89,113.2-12.22,12.29,26.91,27,12.32-12.31Z" transform="translate(-132.93 -0.4)"/><path class="cls-2" d="M254.14,66.69A37.9,37.9,0,1,1,216,104.26,37.87,37.87,0,0,1,254.14,66.69Zm25.36,38.07a25.89,25.89,0,0,0-25.68-25.88c-13.84-.1-25.56,11.52-25.68,25.48a25.68,25.68,0,0,0,51.36.4Z" transform="translate(-132.93 -0.4)"/><path class="cls-2" d="M215.41,173.84H203.68a23.69,23.69,0,0,1,23.2-24.22c18-.55,36-.57,53.93,0a23.52,23.52,0,0,1,23.09,24.22H291.72c-1.32-6-5.73-11.92-11.88-12q-26-.16-52.07,0C221.15,161.94,217.46,165.7,215.41,173.84Z" transform="translate(-132.93 -0.4)"/><path class="cls-2" d="M265.74,44c-15.88-2-30.65-.13-45.21,6.63-1.74-3.65-3.42-7.18-5.3-11.1,16.79-7.73,34-10.43,52.35-7.57C267,36.06,266.38,39.83,265.74,44Z" transform="translate(-132.93 -0.4)"/><path class="cls-1" d="M287.84,50.68,275.9,46.05c1.13-3.84,2.2-7.51,3.45-11.74l13.81,5.28C291.26,43.55,289.61,47,287.84,50.68Z" transform="translate(-132.93 -0.4)"/></svg>