<svg id="Layer_1" data-name="Layer 1" xmlns="http://www.w3.org/2000/svg" viewBox="0 0 409.76 321.76"><defs><style>.cls-1{fill:#474a56;}.cls-2{fill:#1c1e28;}</style></defs><title>video-call</title><path class="cls-1" d="M485.6,275.2c-1.47,6.65-3.54,13-8.15,18.3a33.88,33.88,0,0,1-22.74,11.95c-2.12.23-229.86.21-341.59.29-15.11,0-26.61-5.79-33.6-19.41-4.24-8.27-4.07-17.29-3.15-26.21.47-4.5,4-6.92,9.2-7.18,2.62-.13,5.26,0,8.3,0,0-2.16,0-135.95,0-201.15,0-14.23,5-26,16.51-34.66,7.87-5.92,16.9-8,26.65-8,65.07.08,201.38,0,201.38,0s0-6.79,0-10.06c.13-9.17,5.89-15.06,15-15.11,14.67-.08,35.82,0,44,0s7.51,12,.07,12-28.08.12-42.08-.06c-3.87,0-5.11,1.23-5.07,5.08q.24,26.8,0,53.6c0,3.63,1.11,4.93,4.8,4.92q38-.16,76,0c3.54,0,5-1,4.94-4.78q-.24-27,0-54c0-3.74-1.35-5.07-4.95-4.78-2.38.2-.15,0-7.19,0s-7.69-11.91-.21-11.91,7.48-.22,11.2.06c7.46.56,11.54,5.19,13.51,15.15,7.4-2.16,14.76-4.35,22.14-6.47,7.58-2.19,11.57.75,11.6,8.67.05,16.94,0,33.87,0,50.8,0,10.3-2.7,12.48-12.58,10.19a8.07,8.07,0,0,0-1.52,0V252.78s14.5-1.69,17.54,7.22Zm-12.26-10.29-297.56-.08c-8.93,0-9.31-11.47-.12-11.47s252.69-.45,252.69-.45V71.48h-5c-23.07,0-46.13,0-69.2,0-10.27,0-15.69-5.63-15.75-15.93,0-2.22,0-4.44,0-7H138.76c-5.56,0-5.8.25-5.8,5.93V252.91s9.09.05,17.83.05,8.27,11.94-.1,11.94H88.48c-2.71,16.95,7.19,28.77,23.8,28.77,112.39,0,342,.88,344.31.31C468.69,290.93,474.62,280.13,473.34,264.91ZM338.19,21.38s-208-.94-210.85-.21c-13.65,3.57-21.44,15.22-21.45,30.41,0,65.85.22,201.07.22,201.07H121s-.21-201.77.27-204.09c1.27-6.1,6.73-11.28,12.93-11.83,1.86-.17,204-.17,204-.17ZM449.33,56.59c-2.14,4-3.57,7.92-6.1,10.93-1.67,2-2.63,3.57-2.63,6.15.06,58.24,0,179,0,179h15.07s0-126.67,0-187.31C455.73,58.09,455.72,58.09,449.33,56.59ZM469.85,50V5.53c-6.59,1.94-12.83,3.7-19,5.66a3.31,3.31,0,0,0-2,2.3c-.13,10.09-.09,20.17-.09,30.35Z" transform="translate(-75.84 16.02)"/><path class="cls-2" d="M236.85,150.65c6.64-10.88,14.91-18.12,25.52-22.51-7.52-14-6.1-25.16,4-33.32a23.21,23.21,0,0,1,29.46.47c9.58,8.11,10.84,19.54,3.65,32.3,4.65,3,9.67,5.66,13.84,9.25s7.5,8.17,11.17,12.28C344.29,118,323,74.92,286.13,71.89c-18.64-1.54-33.9,5-45.74,19.5a26.56,26.56,0,0,1-1.81,2.14c-2.56,2.55-5.74,2.83-8.25.78s-3.32-5.53-.87-8.15c5.25-5.6,10.3-11.78,16.62-15.92,37.66-24.68,86.73-4.4,96.54,39.52,8.29,37.17-19.53,73.82-57.69,76s-68.81-28-67.22-66.23a58.17,58.17,0,0,1,1.06-8.72c.76-3.89,3.27-5.74,6.72-5.33s5,2.85,5,6.91c.05,7.27-.32,14.63.69,21.79C232,139.43,234.64,144.41,236.85,150.65Zm78.92,9c-6.82-14-17.58-22.13-33.11-22.85s-27.11,6.08-35.06,19.37c-1.63,2.72-1.88,4.68,1.24,6.46s6.14,4.21,9.4,6C276,178.27,302,174.3,315.77,159.69Zm-23.64-46.63a11.33,11.33,0,1,0-11.25,11.55A11.44,11.44,0,0,0,292.13,113.06Z" transform="translate(-75.84 16.02)"/><path class="cls-2" d="M272.18,220.1a18.11,18.11,0,1,1-17.29-18.65A18,18,0,0,1,272.18,220.1Zm-12-.41a6,6,0,0,0-5.89-6.22,6,6,0,0,0-6.27,5.89,6.13,6.13,0,0,0,5.94,6.27A6,6,0,0,0,260.16,219.69Z" transform="translate(-75.84 16.02)"/><path class="cls-2" d="M289.4,219.39a18.12,18.12,0,0,1,36.23.25,18.12,18.12,0,1,1-36.23-.25Zm18,6.24a6.09,6.09,0,1,0,.19-12.18,6.09,6.09,0,0,0-.19,12.18Z" transform="translate(-75.84 16.02)"/></svg>